<?xml version="1.0" standalone="no"?>
<!DOCTYPE svg PUBLIC "-//W3C//DTD SVG 20010904//EN"
 "http://www.w3.org/TR/2001/REC-SVG-20010904/DTD/svg10.dtd">
<svg version="1.0" xmlns="http://www.w3.org/2000/svg"
 width="512.000000pt" height="512.000000pt" viewBox="0 0 512.000000 512.000000"
 preserveAspectRatio="xMidYMid meet">

<g transform="translate(0.000000,512.000000) scale(0.100000,-0.100000)"
fill="#000000" stroke="none">
<path d="M500 4477 c-134 -20 -150 -36 -150 -152 l0 -64 -76 55 c-87 62 -113
71 -153 54 -36 -15 -55 -52 -80 -161 -74 -315 -41 -754 93 -1214 70 -244 77
-254 202 -262 138 -10 257 31 359 120 l50 45 0 133 c0 119 3 140 24 187 13 28
26 52 30 52 3 0 18 -19 32 -43 87 -140 103 -211 94 -442 -15 -373 48 -542 255
-685 49 -34 71 -57 88 -94 56 -117 86 -368 80 -689 l-3 -207 -46 -42 c-130
-123 -195 -256 -175 -363 4 -20 16 -45 27 -56 18 -18 37 -19 483 -19 l465 0
20 26 c28 36 26 62 -10 130 -25 49 -30 67 -25 104 3 25 25 307 49 628 25 320
46 585 49 587 2 2 51 -1 108 -7 99 -10 437 -5 505 8 28 5 32 2 60 -53 52 -102
143 -228 219 -306 77 -80 201 -167 264 -187 20 -7 40 -15 44 -19 3 -3 29 -103
57 -222 l50 -216 -45 -48 c-91 -94 -156 -218 -170 -323 -6 -46 -4 -53 19 -76
l26 -26 246 0 246 0 24 25 c22 21 25 33 25 98 0 80 19 156 56 227 l24 45 -40
312 c-29 236 -37 320 -29 346 l9 35 92 -33 c51 -18 96 -39 100 -46 5 -8 55
-130 112 -271 l103 -257 -57 -44 c-96 -75 -177 -219 -188 -335 -4 -45 -1 -56
18 -77 l23 -25 233 0 c274 0 269 -2 285 99 13 81 30 122 79 188 24 32 40 63
40 80 0 36 -168 930 -181 964 -6 15 -60 66 -122 115 -62 49 -158 129 -214 177
-87 74 -103 92 -103 117 0 16 20 93 46 172 78 246 88 298 88 443 0 97 -5 141
-17 173 l-17 44 32 -20 c62 -39 121 -107 154 -177 27 -56 41 -111 69 -270 19
-110 46 -242 60 -293 68 -254 194 -391 410 -447 89 -23 141 -20 170 10 31 30
31 58 0 128 -13 31 -34 93 -47 139 -20 77 -22 106 -23 393 -1 287 -2 316 -23
390 -60 218 -181 363 -357 426 -46 17 -91 23 -190 26 -138 5 -238 -7 -380 -49
l-71 -20 -49 29 c-75 44 -189 88 -295 114 -80 20 -121 23 -265 23 -197 0 -250
-8 -595 -93 -129 -32 -254 -61 -277 -65 l-42 -6 -158 177 c-321 363 -492 532
-646 642 -127 89 -309 162 -505 202 -88 18 -149 22 -347 25 -152 2 -271 -2
-325 -9z m573 -173 c59 -8 147 -26 195 -39 111 -32 276 -113 350 -172 156
-126 355 -329 591 -602 l54 -63 -39 7 c-122 21 -241 73 -334 146 -30 23 -107
93 -171 155 -97 95 -121 114 -147 114 -17 0 -38 -3 -47 -6 -25 -10 -48 -62
-40 -93 9 -36 256 -277 342 -334 214 -141 416 -183 688 -142 55 8 200 40 321
70 306 76 360 86 509 92 326 14 611 -107 698 -295 19 -41 22 -63 21 -167 -1
-127 -4 -137 -88 -410 -47 -150 -56 -236 -31 -289 19 -40 102 -117 318 -293
70 -57 127 -110 127 -116 1 -7 36 -199 79 -427 77 -404 78 -416 61 -440 -27
-38 -66 -120 -80 -167 l-13 -43 -104 0 c-56 0 -103 3 -103 7 0 3 14 28 31 55
34 53 81 94 146 127 45 22 73 55 73 84 0 17 -247 643 -277 700 -16 31 -19 33
-158 77 -55 18 -149 57 -209 87 -370 184 -578 454 -612 793 -8 89 -30 120 -83
120 -46 0 -78 -22 -86 -58 -9 -43 21 -224 53 -317 l29 -84 -56 -24 c-133 -58
-289 -87 -497 -94 -240 -8 -486 19 -736 83 -120 30 -130 30 -165 0 l-28 -24
-9 -298 -9 -297 27 -24 c37 -32 85 -31 116 3 23 24 25 33 31 212 4 103 8 203
8 223 l1 36 93 -21 c50 -11 93 -21 95 -22 5 -3 -79 -1131 -89 -1188 -6 -33 -7
-81 -4 -108 l7 -48 -126 0 c-109 0 -126 2 -126 16 0 28 32 85 57 101 47 31 51
54 60 324 4 140 7 267 6 282 -4 79 -116 106 -153 37 -6 -11 -15 -131 -21 -266
-10 -242 -10 -248 -35 -277 -38 -45 -71 -117 -79 -170 l-7 -47 -99 0 c-55 0
-99 4 -99 9 0 18 73 106 140 171 l68 65 8 140 c15 292 -8 618 -56 793 -39 141
-86 210 -187 274 -78 49 -126 110 -155 197 -20 61 -22 88 -24 331 -2 298 -7
329 -73 465 -22 44 -65 110 -95 147 -51 61 -56 72 -56 116 0 97 -55 223 -106
242 -34 13 -70 3 -94 -27 -27 -34 -25 -62 6 -120 39 -72 32 -145 -23 -238 -58
-98 -75 -161 -78 -285 l-2 -105 -58 -30 c-46 -23 -71 -30 -118 -30 l-60 0 -34
115 c-42 142 -87 342 -108 480 -23 150 -30 394 -16 518 18 153 16 151 79 96
28 -25 67 -71 85 -102 43 -73 74 -92 119 -73 134 54 206 73 297 78 185 10 356
-37 551 -153 51 -30 86 -28 120 6 22 22 26 70 10 100 -12 23 -162 109 -253
144 -212 84 -400 95 -639 40 l-28 -6 0 81 c0 70 2 81 18 82 236 17 370 16 535
-7z m3437 -964 c167 -27 273 -131 327 -321 15 -55 18 -105 19 -364 0 -248 3
-314 18 -380 10 -44 20 -84 23 -88 15 -24 -79 37 -110 72 -79 88 -113 195
-172 540 -27 161 -54 248 -100 327 -35 59 -125 156 -174 187 l-36 22 40 6 c64
10 96 10 165 -1z m-1222 -1199 c97 -121 254 -252 385 -321 26 -14 47 -31 47
-38 0 -7 -7 -38 -15 -70 -15 -55 -14 -69 23 -359 37 -294 38 -303 21 -335 -22
-41 -45 -118 -54 -180 l-7 -48 -109 0 c-71 0 -109 4 -109 11 0 24 76 123 131
171 33 28 62 61 65 72 6 26 -122 583 -141 613 -8 11 -38 29 -67 38 -164 54
-288 164 -413 365 -25 41 -45 77 -45 81 0 3 39 20 88 38 48 17 94 36 102 41 8
5 18 10 21 10 4 0 38 -40 77 -89z"/>
<path d="M334 3610 c-32 -13 -54 -50 -54 -91 0 -84 109 -123 164 -58 67 79
-14 188 -110 149z"/>
</g>
</svg>
