<?xml version="1.0" standalone="no"?>
<!DOCTYPE svg PUBLIC "-//W3C//DTD SVG 20010904//EN"
 "http://www.w3.org/TR/2001/REC-SVG-20010904/DTD/svg10.dtd">
<svg version="1.0" xmlns="http://www.w3.org/2000/svg"
 width="512.000000pt" height="512.000000pt" viewBox="0 0 512.000000 512.000000"
 preserveAspectRatio="xMidYMid meet">

<g transform="translate(0.000000,512.000000) scale(0.100000,-0.100000)"
fill="#000000" stroke="none">
<path d="M1410 4845 c-297 -54 -563 -199 -726 -394 -97 -115 -181 -275 -213
-404 -6 -27 -50 -124 -96 -215 l-84 -167 -125 -105 c-131 -110 -166 -155 -166
-218 0 -55 28 -104 104 -182 l74 -75 10 -127 c6 -74 17 -139 26 -156 20 -38
70 -80 104 -88 15 -3 33 -8 41 -10 19 -6 93 15 113 33 10 9 39 19 65 24 26 5
64 20 84 33 56 37 71 81 82 241 6 80 15 143 21 147 36 24 51 8 207 -230 196
-296 212 -325 244 -442 108 -388 165 -483 381 -635 9 -6 29 -83 53 -200 21
-105 51 -239 66 -300 25 -102 27 -124 25 -291 -1 -177 -1 -182 21 -203 42 -39
100 -23 118 31 6 18 11 110 12 203 2 154 0 179 -24 270 -72 277 -136 650 -144
835 -6 141 -15 173 -53 185 -32 10 -77 -13 -91 -47 -8 -21 -10 -66 -6 -155 l6
-125 -25 23 c-66 62 -116 172 -175 386 -44 159 -83 245 -182 398 -36 55 -63
103 -61 106 2 4 41 17 86 30 111 30 234 31 299 2 63 -28 158 -120 324 -313
157 -182 235 -259 327 -322 64 -43 174 -87 218 -88 32 0 120 -41 142 -66 51
-58 61 -154 26 -260 l-22 -66 -116 7 c-139 8 -163 1 -185 -59 -8 -23 -60 -193
-115 -379 l-100 -338 -17 -355 c-9 -195 -20 -359 -23 -365 -4 -6 -48 -9 -109
-7 l-101 3 50 70 c59 82 65 122 24 154 -30 24 -43 25 -76 11 -21 -10 -47 -42
-140 -178 -44 -63 -49 -110 -19 -156 34 -51 51 -55 244 -56 279 0 273 -8 292
367 8 148 15 291 15 318 2 65 6 54 65 -180 l49 -191 -38 -88 c-45 -105 -43
-141 9 -193 l34 -34 181 3 182 3 33 37 c19 20 37 49 41 64 4 17 -18 165 -60
398 l-66 371 40 300 c23 165 42 305 44 311 3 7 125 11 384 11 l380 1 62 -248
62 -249 -113 -338 c-102 -307 -117 -346 -167 -420 -62 -93 -71 -143 -35 -191
35 -48 56 -53 215 -50 141 3 148 4 173 28 37 35 33 25 219 497 158 399 167
427 173 507 3 48 9 86 13 86 3 0 20 -15 37 -32 l32 -33 19 -384 19 -384 -39
-66 c-41 -72 -48 -114 -23 -161 26 -51 58 -60 212 -60 119 0 142 3 170 20 65
39 64 30 91 645 l26 560 -96 215 -95 214 44 91 c82 169 143 406 143 560 l0 72
83 6 c91 5 159 28 240 81 113 72 225 217 248 321 15 70 1 94 -82 136 -52 26
-60 33 -55 52 23 92 27 144 24 271 -3 152 -8 169 -55 187 -36 14 -69 -6 -106
-63 -73 -113 -237 -240 -453 -350 l-101 -52 -34 26 c-89 67 -226 116 -388 139
-121 17 -461 6 -721 -24 -118 -14 -256 -28 -305 -32 -154 -11 -490 21 -848 80
l-148 25 -252 146 c-138 81 -256 151 -261 155 -14 12 105 65 199 89 100 26
246 46 395 56 112 7 116 8 147 39 57 57 43 154 -26 190 -60 30 -239 86 -343
106 -186 35 -451 19 -592 -37 -61 -24 121 181 248 281 45 34 126 91 181 127
55 36 106 72 113 81 22 27 26 90 8 125 -32 62 -96 74 -246 47z m-29 -173
c-101 -70 -197 -149 -261 -212 -84 -84 -173 -210 -191 -269 l-11 -38 -136 -36
c-75 -20 -138 -34 -140 -32 -2 2 15 41 38 87 123 247 343 420 630 497 91 24
102 25 71 3z m311 -603 c153 -30 156 -34 43 -48 -212 -26 -388 -79 -502 -151
l-64 -40 -45 26 c-24 14 -44 28 -44 30 0 2 14 25 30 51 17 26 30 59 30 75 0
24 6 29 52 43 157 46 313 51 500 14z m-757 -120 c-51 -69 -57 -105 -22 -136
12 -11 213 -131 446 -267 l425 -247 104 -20 c86 -15 318 -49 518 -75 38 -4 42
-8 54 -47 36 -120 117 -229 223 -298 69 -45 150 -73 284 -99 74 -15 123 -32
200 -72 89 -45 106 -51 130 -42 16 5 34 22 41 36 21 44 5 76 -56 115 -87 56
-159 83 -287 110 -187 38 -279 89 -343 191 -58 91 -63 87 111 88 98 1 235 12
387 30 200 24 272 28 480 28 221 0 253 -2 325 -22 241 -67 365 -198 415 -442
22 -107 26 -270 9 -351 l-11 -52 -87 7 c-185 14 -482 67 -597 106 -30 11 -69
31 -85 45 -37 30 -68 32 -103 4 -62 -49 -11 -133 110 -179 122 -45 352 -91
609 -120 55 -7 102 -14 104 -16 8 -8 -25 -92 -76 -192 -29 -57 -53 -108 -53
-113 0 -5 45 -111 101 -236 l101 -226 -23 -524 -23 -523 -73 0 -73 0 30 53 29
52 -19 405 c-11 223 -23 419 -27 437 -6 22 -70 98 -212 250 -112 120 -223 237
-247 261 l-43 42 -520 -2 c-286 -1 -523 0 -526 3 -3 3 2 35 11 70 21 80 14
198 -14 261 -25 57 -83 122 -138 154 -23 14 -85 35 -138 49 -157 38 -234 95
-421 311 -188 217 -233 266 -294 318 -153 132 -333 156 -573 76 -50 -17 -95
-27 -99 -23 -4 4 -39 53 -77 108 -37 55 -79 106 -93 114 -23 13 -47 8 -292
-66 l-266 -80 -60 61 c-34 34 -61 67 -61 73 0 7 61 65 136 129 l135 117 81
161 c44 89 82 162 83 164 4 4 367 100 382 101 7 1 -7 -26 -32 -60z m3910 -604
c-4 -31 -18 -77 -31 -101 -41 -76 -28 -107 61 -152 82 -42 82 -43 50 -97 -69
-118 -185 -192 -319 -202 -60 -5 -76 -3 -79 8 -29 104 -64 196 -92 243 -19 32
-35 62 -35 67 0 5 39 29 88 53 104 52 250 147 312 204 25 22 46 39 48 37 2 -2
0 -29 -3 -60z m-4292 -312 c-3 -54 -10 -102 -15 -108 -5 -5 -29 -10 -53 -10
-36 -1 -51 -6 -78 -33 -32 -31 -35 -32 -51 -17 -10 10 -16 33 -16 58 0 23 -3
65 -6 92 l-6 50 104 31 c56 18 109 32 115 33 9 1 11 -23 6 -96z m1926 -1279
c2 -1 -16 -144 -39 -316 l-42 -313 62 -340 c33 -187 63 -348 66 -357 5 -16 -4
-18 -96 -18 -56 0 -100 3 -98 8 2 4 16 39 31 78 l29 70 -96 371 c-53 204 -96
382 -96 394 0 22 113 409 124 427 4 7 147 4 155 -4z m1238 -66 c39 -40 86 -91
105 -113 l35 -40 -12 -146 -12 -145 -164 -417 -164 -417 -73 0 -73 0 39 58
c31 45 64 131 160 422 l121 365 -63 253 -64 252 48 0 c46 0 50 -2 117 -72z"/>
<path d="M633 3718 c-46 -22 -56 -125 -17 -169 23 -25 78 -25 104 1 16 16 20
33 20 79 0 52 -3 62 -26 80 -29 23 -48 25 -81 9z"/>
</g>
</svg>
