<?xml version="1.0" standalone="no"?>
<!DOCTYPE svg PUBLIC "-//W3C//DTD SVG 20010904//EN"
 "http://www.w3.org/TR/2001/REC-SVG-20010904/DTD/svg10.dtd">
<svg version="1.0" xmlns="http://www.w3.org/2000/svg"
 width="256.000000pt" height="256.000000pt" viewBox="0 0 256.000000 256.000000"
 preserveAspectRatio="xMidYMid meet">

<g transform="translate(0.000000,256.000000) scale(0.100000,-0.100000)"
fill="#000000" stroke="none">
<path d="M903 2269 c-171 -29 -313 -132 -395 -289 -28 -53 -39 -64 -72 -76
-55 -18 -85 -42 -128 -104 -25 -35 -64 -71 -116 -106 -91 -61 -118 -101 -109
-167 7 -51 33 -87 80 -110 l37 -19 0 -108 c0 -118 8 -138 54 -126 30 8 103 62
129 97 11 15 27 51 37 80 10 30 23 55 28 57 11 3 194 -289 210 -336 10 -30 9
-35 -19 -60 -23 -20 -32 -38 -35 -72 -3 -25 -13 -66 -22 -92 -23 -68 -11 -78
94 -78 96 0 83 16 108 -138 l15 -94 -82 -204 c-64 -161 -79 -209 -70 -222 9
-15 36 -17 224 -20 162 -2 219 1 231 10 9 7 52 96 97 197 l81 184 0 109 c0
102 1 109 18 103 33 -10 173 -35 198 -35 14 0 42 -11 62 -25 36 -24 37 -27 37
-86 0 -56 3 -63 33 -90 48 -43 102 -41 150 7 25 25 38 32 41 23 2 -8 20 -30
39 -49 l34 -34 -68 -138 c-55 -112 -67 -142 -58 -156 10 -15 34 -17 235 -17
l223 0 88 139 c126 200 130 222 58 387 -22 51 -40 99 -40 108 0 8 32 95 70
192 46 115 72 197 76 235 11 108 -24 227 -89 301 l-30 34 30 32 c52 54 76 114
81 200 4 65 2 81 -13 97 -10 11 -22 20 -27 20 -5 0 -79 -53 -163 -118 l-155
-119 -147 -17 c-384 -45 -524 -56 -733 -56 l-215 0 -85 85 c-82 83 -83 84 -59
94 35 13 79 66 109 129 36 80 29 86 -114 92 l-118 5 32 45 c45 63 92 111 183
187 42 35 77 72 77 82 0 40 -32 47 -137 30z m-105 -158 c-36 -37 -82 -96 -104
-129 -38 -59 -40 -62 -81 -62 -24 0 -43 4 -43 8 0 15 56 97 89 130 51 51 158
116 200 121 2 1 -26 -30 -61 -68z m-173 -331 c26 -33 63 -69 83 -79 20 -11 84
-67 142 -125 l105 -106 -17 -63 c-24 -93 -167 -327 -199 -327 -4 0 -10 12 -14
28 -4 15 -55 104 -114 197 l-107 170 -158 5 c-141 4 -159 7 -172 24 -31 43
-14 72 81 136 53 36 86 67 116 111 47 69 80 88 156 89 52 0 52 0 98 -60z m265
51 c0 -22 -44 -61 -76 -67 -44 -8 -85 9 -113 47 l-22 29 106 0 c58 0 105 -4
105 -9z m1496 -156 c-12 -48 -25 -73 -56 -108 l-31 -35 -39 16 c-22 10 -40 20
-40 24 0 9 152 127 164 127 4 1 5 -10 2 -24z m-171 -195 c64 -32 125 -92 155
-155 20 -41 25 -65 25 -135 -1 -83 -3 -90 -79 -278 l-79 -193 48 -111 c26 -61
49 -126 52 -143 6 -37 -4 -59 -95 -202 l-64 -103 -54 0 c-30 0 -54 2 -54 5 0
3 29 64 65 135 36 71 65 135 65 141 0 6 -17 32 -39 58 -62 74 -98 138 -127
223 -14 44 -33 82 -42 85 -8 4 -50 -6 -91 -20 -118 -42 -205 -57 -336 -57
-137 0 -195 12 -372 73 -108 37 -124 40 -137 27 -9 -10 -22 -73 -35 -177 l-20
-163 -73 -165 -73 -165 -59 0 c-43 0 -57 3 -53 12 3 7 35 87 72 177 l66 164
-19 121 -19 120 21 17 c20 16 20 18 3 71 -9 30 -17 69 -17 86 0 18 -10 43 -26
61 l-25 30 38 43 c86 95 136 185 173 306 l22 72 202 0 c202 0 396 15 661 50
181 24 255 22 320 -10z m-1870 -117 c-9 -21 -27 -49 -40 -63 l-25 -25 0 63 0
62 40 0 40 0 -15 -37z m412 -415 c6 -7 13 -34 16 -60 l7 -48 -55 0 -55 0 7 48
c7 56 18 72 48 72 12 0 27 -6 32 -12z m412 -219 l31 -11 0 -115 0 -115 -72
-164 -73 -164 -57 0 -57 0 50 113 c85 190 88 199 104 322 8 65 15 125 15 132
0 16 17 16 59 2z m794 -51 c8 -24 18 -50 22 -59 4 -11 0 -18 -15 -22 -18 -5
-20 -12 -18 -59 3 -47 1 -53 -18 -56 -16 -2 -27 10 -53 57 -48 91 -94 94 -137
10 -20 -40 -29 -50 -47 -47 -23 3 -23 1 -15 105 3 40 5 43 38 49 76 13 157 33
190 48 19 8 36 15 37 16 0 0 8 -19 16 -42z m80 -383 l-68 -135 -52 0 c-29 0
-53 2 -53 5 0 13 125 253 146 281 13 17 24 41 24 54 0 20 5 16 35 -23 l35 -46
-67 -136z"/>
<path d="M450 1750 c-40 -40 -11 -110 45 -110 32 0 65 33 65 65 0 14 -9 34
-20 45 -11 11 -31 20 -45 20 -14 0 -34 -9 -45 -20z"/>
</g>
</svg>
