<?xml version="1.0" standalone="no"?>
<!DOCTYPE svg PUBLIC "-//W3C//DTD SVG 20010904//EN"
 "http://www.w3.org/TR/2001/REC-SVG-20010904/DTD/svg10.dtd">
<svg version="1.0" xmlns="http://www.w3.org/2000/svg"
 width="512.000000pt" height="512.000000pt" viewBox="0 0 512.000000 512.000000"
 preserveAspectRatio="xMidYMid meet">

<g transform="translate(0.000000,512.000000) scale(0.100000,-0.100000)"
fill="#000000" stroke="none">
<path d="M3013 4896 l-96 -113 -91 -7 c-199 -15 -438 -47 -528 -71 -547 -142
-1131 -634 -1527 -1286 -182 -301 -316 -620 -396 -940 -60 -245 -70 -328 -70
-594 1 -307 9 -350 125 -660 13 -36 23 -112 34 -255 21 -267 40 -338 106 -394
41 -34 66 -40 153 -34 56 4 98 15 187 52 266 109 311 124 405 131 316 23 690
186 990 431 l41 33 96 -108 c229 -257 517 -481 792 -615 206 -101 359 -145
570 -165 93 -9 125 -17 220 -57 330 -136 403 -154 488 -116 94 41 122 122 144
417 10 136 21 216 34 250 65 179 81 231 100 320 27 129 37 406 21 566 -62 596
-350 1246 -782 1759 -110 131 -319 339 -427 424 -46 38 -74 68 -78 85 -24 105
-147 448 -194 540 l-21 43 56 132 c32 75 55 143 53 157 -2 19 -32 42 -137 107
-74 45 -143 82 -153 82 -11 0 -57 -46 -115 -114z m220 -56 l77 -50 -16 -37
c-8 -21 -22 -55 -31 -75 -8 -21 -17 -38 -20 -38 -3 0 -27 20 -54 44 -28 25
-71 52 -99 61 -28 9 -50 19 -50 22 0 11 95 122 105 122 6 0 45 -22 88 -49z
m-278 -166 c11 -5 -39 -34 -152 -89 -544 -268 -1006 -644 -1381 -1124 -102
-129 -288 -407 -373 -556 -209 -365 -418 -876 -553 -1350 -38 -136 -39 -136
-72 15 -26 119 -27 517 -1 665 163 931 810 1859 1565 2243 218 111 357 149
662 181 189 20 279 25 305 15z m16 -149 c-11 -19 -327 -533 -702 -1141 -375
-608 -683 -1113 -686 -1124 -5 -18 28 -60 47 -60 6 0 21 10 33 23 12 12 335
529 717 1150 551 895 696 1124 704 1110 13 -23 0 -427 -19 -588 -69 -588 -249
-1111 -559 -1627 -234 -390 -503 -726 -882 -1099 -279 -273 -361 -343 -425
-357 -29 -7 -118 -40 -198 -73 -80 -34 -170 -70 -200 -80 -57 -20 -105 -25
-99 -11 2 5 92 154 202 331 176 286 197 325 188 345 -15 33 -48 39 -76 13 -13
-12 -104 -152 -202 -312 -97 -159 -184 -301 -193 -314 l-15 -23 -8 22 c-13 36
-27 145 -38 306 -6 84 -16 174 -24 202 -12 48 -11 57 36 233 389 1455 1152
2482 2258 3036 80 40 149 73 153 73 5 0 0 -16 -12 -35z m263 -65 c40 -78 155
-393 180 -491 113 -445 9 -1044 -279 -1620 -362 -721 -974 -1301 -1555 -1474
-41 -12 -93 -25 -115 -29 l-40 -7 30 29 c17 16 89 85 160 152 795 747 1308
1604 1490 2484 58 285 91 640 83 895 -6 158 -4 160 46 61z m510 -862 c188
-188 301 -324 430 -518 290 -434 468 -885 530 -1338 18 -127 21 -400 6 -507
-12 -87 -42 -215 -49 -215 -4 0 -32 87 -63 192 -223 762 -567 1434 -987 1931
l-80 95 11 64 c6 34 12 154 12 265 1 112 5 203 9 203 4 0 86 -78 181 -172z
m-80 -683 c378 -498 681 -1146 884 -1890 47 -173 49 -181 36 -230 -7 -27 -20
-138 -28 -245 -8 -107 -21 -215 -29 -240 l-14 -45 -34 54 c-19 30 -111 178
-204 330 -148 239 -174 276 -197 279 -20 2 -31 -4 -43 -22 -20 -31 -38 4 198
-379 104 -169 187 -310 184 -314 -10 -9 -145 36 -282 95 -71 30 -161 63 -199
73 -77 21 -91 32 -341 265 -196 183 -417 420 -581 624 -85 104 -244 321 -244
331 0 5 34 52 76 106 92 117 210 293 284 421 29 51 57 89 61 85 4 -4 64 -100
133 -213 70 -112 133 -208 142 -213 25 -14 63 1 70 28 5 19 -24 73 -146 269
l-151 246 50 109 c84 183 211 563 211 631 0 52 23 30 164 -155z m-867 -1527
c232 -311 533 -641 826 -905 37 -33 67 -63 67 -66 0 -3 -28 1 -62 9 -252 59
-524 201 -782 408 -105 85 -313 286 -380 369 l-39 48 134 135 c73 74 135 134
136 134 1 0 46 -60 100 -132z"/>
<path d="M1433 2028 c-78 -125 -153 -253 -153 -263 0 -19 34 -45 58 -45 23 0
28 6 139 189 35 57 63 110 63 117 0 21 -30 44 -56 44 -17 0 -31 -12 -51 -42z"/>
<path d="M3600 1630 c-11 -11 -20 -25 -20 -32 0 -18 150 -261 176 -285 28 -26
61 -20 76 13 9 20 0 40 -67 151 -73 121 -114 173 -136 173 -5 0 -18 -9 -29
-20z"/>
</g>
</svg>
