<?xml version="1.0" standalone="no"?>
<!DOCTYPE svg PUBLIC "-//W3C//DTD SVG 20010904//EN"
 "http://www.w3.org/TR/2001/REC-SVG-20010904/DTD/svg10.dtd">
<svg version="1.0" xmlns="http://www.w3.org/2000/svg"
 width="1024.000000pt" height="1024.000000pt" viewBox="0 0 1024.000000 1024.000000"
 preserveAspectRatio="xMidYMid meet">

<g transform="translate(0.000000,1024.000000) scale(0.100000,-0.100000)"
fill="#000000" stroke="none">
<path d="M3445 7729 c-16 -4 -92 -46 -167 -91 -407 -246 -589 -441 -657 -708
l-19 -75 -53 5 c-117 11 -344 4 -429 -14 -158 -32 -345 -104 -454 -174 -79
-51 -192 -140 -224 -176 l-32 -37 -77 51 c-164 107 -316 145 -573 144 -154 0
-189 -4 -294 -28 -143 -33 -190 -51 -250 -93 -34 -24 -48 -42 -56 -73 -15 -54
-7 -87 46 -191 31 -63 47 -112 59 -180 60 -343 256 -596 536 -690 79 -26 109
-31 189 -31 59 0 114 6 145 16 27 8 50 14 51 13 1 -1 -2 -27 -7 -57 -18 -124
-7 -261 30 -386 l18 -61 -44 -70 c-54 -87 -117 -239 -148 -359 -62 -239 -55
-495 20 -688 l24 -61 0 141 c1 212 30 401 87 579 26 79 122 285 133 285 3 0
17 -20 30 -45 35 -65 162 -197 235 -244 73 -46 158 -82 235 -101 57 -13 287
-10 311 5 8 5 -12 14 -56 25 -387 99 -636 352 -716 728 -16 75 -21 141 -23
292 l-3 194 -41 38 c-53 50 -71 50 -71 0 0 -51 -21 -77 -74 -91 -196 -49 -454
75 -603 291 -73 105 -116 212 -134 327 -6 42 -24 92 -54 149 -43 82 -53 124
-37 148 14 21 92 55 170 72 114 25 440 24 537 -1 99 -26 224 -89 280 -140 l48
-43 -13 -77 c-15 -91 -9 -176 20 -269 27 -88 40 -95 40 -21 0 200 79 388 213
509 195 176 449 277 728 291 256 13 445 -57 594 -220 36 -39 65 -66 65 -59 0
26 -53 150 -83 195 -28 42 -126 128 -158 139 -18 6 26 152 72 236 97 181 218
295 499 473 144 90 178 105 196 87 7 -7 20 -58 29 -113 9 -59 30 -136 51 -187
45 -113 74 -228 74 -293 0 -66 13 -82 78 -90 l52 -7 0 56 c0 96 -39 245 -104
402 -14 34 -31 97 -37 140 -17 124 -49 182 -116 210 -36 16 -45 16 -88 3z"/>
<path d="M6660 7513 c-52 -19 -76 -67 -90 -179 -6 -49 -22 -129 -36 -177 -21
-73 -47 -227 -41 -233 1 -1 29 1 62 4 l60 7 3 45 c1 25 11 72 22 105 23 73 27
97 39 203 14 132 31 138 178 61 303 -156 511 -346 598 -544 28 -62 27 -65 -22
-108 -64 -56 -105 -151 -118 -272 -7 -65 -2 -64 35 7 11 20 44 63 75 96 95
103 244 165 433 181 264 23 537 -55 743 -213 172 -132 249 -277 268 -506 l7
-85 15 35 c40 90 47 190 23 342 -6 34 -2 40 41 83 65 62 190 121 312 147 172
35 533 12 633 -42 62 -33 66 -86 15 -170 -40 -66 -65 -131 -65 -169 0 -52 -30
-147 -77 -241 -130 -261 -438 -431 -661 -365 -57 17 -72 36 -72 89 0 41 -10
44 -51 15 -52 -37 -57 -57 -51 -239 7 -237 -15 -375 -81 -530 -46 -106 -100
-184 -182 -265 -110 -107 -249 -182 -426 -230 -94 -25 -117 -35 -83 -35 10 0
53 -5 94 -10 133 -18 307 20 427 92 78 47 161 126 208 197 22 33 43 61 46 61
12 0 108 -218 142 -325 58 -181 105 -474 95 -605 -1 -27 -2 -50 -1 -50 2 0 9
15 17 33 45 110 68 352 47 508 -25 189 -99 405 -188 552 l-36 59 27 86 c47
158 58 323 26 431 -5 19 -9 36 -7 37 1 1 27 -4 57 -12 71 -18 210 -18 285 1
197 50 383 209 480 410 46 94 75 190 94 315 9 54 22 93 52 144 56 97 67 151
44 211 -22 60 -76 95 -205 135 -251 78 -557 77 -785 -1 -70 -25 -171 -79 -215
-115 l-30 -26 -63 58 c-72 67 -201 154 -284 191 -179 79 -325 113 -518 120
-132 5 -201 -2 -346 -33 -24 -5 -27 -2 -39 40 -36 131 -170 290 -350 418 -105
74 -336 206 -427 244 -55 22 -119 29 -153 17z"/>
<path d="M3335 7427 c-176 -95 -327 -232 -386 -353 -19 -38 -35 -92 -42 -137
-15 -105 4 -174 90 -318 72 -122 83 -124 64 -15 -26 147 -8 212 84 315 62 68
95 118 95 141 0 15 -41 -15 -122 -89 -36 -34 -69 -61 -73 -61 -11 0 6 92 27
145 40 101 93 162 333 378 54 49 28 46 -70 -6z"/>
<path d="M6790 7265 c0 -3 41 -45 91 -93 111 -105 178 -175 199 -206 8 -13 29
-35 47 -50 65 -55 78 -148 58 -407 -11 -151 1 -167 50 -63 65 140 78 190 73
279 -3 62 -11 93 -32 135 -69 139 -191 259 -346 344 -74 40 -140 69 -140 61z"/>
<path d="M3242 6890 c-91 -21 -134 -142 -100 -280 6 -25 12 -126 13 -225 2
-195 12 -256 66 -395 106 -276 339 -481 566 -497 40 -3 70 -10 67 -14 -9 -15
-41 -138 -55 -214 -20 -107 -18 -343 4 -439 l19 -79 -50 -96 c-153 -294 -230
-679 -191 -958 10 -74 68 -271 89 -303 6 -10 7 33 3 127 -13 306 62 693 187
957 l33 70 16 -24 c79 -119 167 -202 271 -255 70 -35 209 -66 282 -63 l63 3
-55 29 c-169 88 -327 229 -403 357 -138 234 -160 495 -75 882 19 85 20 104 9
149 -12 52 -43 98 -67 98 -7 0 -21 -16 -33 -35 -18 -30 -25 -35 -59 -35 -129
0 -296 103 -396 244 -114 161 -160 309 -171 551 -3 76 -10 161 -16 188 -13 73
-11 123 6 137 34 28 409 -18 555 -68 145 -50 291 -146 364 -238 45 -58 45 -58
27 -83 -83 -118 -109 -252 -75 -390 21 -86 31 -94 39 -35 24 174 81 301 185
404 61 62 94 85 180 128 304 151 693 172 1030 56 302 -105 447 -269 494 -561
l12 -78 20 60 c14 44 19 87 18 160 0 110 -18 168 -75 251 -36 53 -34 60 53
139 158 143 342 215 643 251 171 20 218 19 240 -6 17 -19 18 -26 6 -88 -7 -37
-16 -146 -21 -242 -5 -126 -14 -197 -29 -255 -68 -255 -245 -458 -446 -511
-97 -26 -145 -15 -145 32 0 63 -59 28 -83 -48 -21 -67 -21 -125 -2 -198 26
-98 46 -263 47 -380 0 -303 -108 -541 -321 -704 -32 -25 -104 -71 -161 -103
l-105 -58 53 -3 c197 -11 433 111 544 282 l38 59 26 -59 c135 -302 189 -559
189 -903 l0 -213 26 58 c64 142 92 375 70 579 -27 255 -116 541 -221 710 -18
29 -18 35 -5 79 8 27 20 97 27 155 10 91 9 125 -6 239 -10 72 -28 170 -40 217
l-23 85 42 0 c60 0 138 25 238 78 190 100 315 273 390 540 18 66 21 106 22
272 1 108 7 215 13 240 16 62 15 144 -2 184 -8 18 -30 46 -50 61 -29 22 -49
28 -115 32 -84 6 -249 -8 -391 -33 -226 -40 -445 -145 -597 -287 l-52 -49 -58
35 c-111 67 -244 113 -413 143 -145 26 -476 26 -604 1 -162 -33 -295 -83 -427
-160 l-46 -27 -70 67 c-118 113 -306 210 -508 262 -154 40 -436 62 -523 41z"/>
<path d="M3360 6670 c-18 -11 -14 -12 80 -31 84 -16 215 -68 271 -106 76 -53
138 -124 175 -202 19 -40 33 -75 31 -77 -2 -2 -21 10 -43 27 -55 44 -125 78
-176 84 -24 3 -59 8 -78 11 -34 6 -32 3 40 -53 110 -87 177 -175 218 -286 12
-32 22 -60 22 -64 0 -3 -21 14 -48 39 -26 24 -69 57 -95 72 -48 29 -155 62
-165 51 -3 -3 10 -22 30 -43 19 -20 56 -65 81 -98 71 -94 142 -152 242 -199
128 -59 128 -59 119 -32 -28 88 -31 191 -9 317 20 115 19 179 -6 252 -53 158
-198 276 -403 328 -84 21 -258 28 -286 10z"/>
<path d="M6609 6661 c-112 -25 -238 -89 -310 -158 -118 -112 -151 -235 -113
-419 23 -107 23 -233 2 -292 -16 -42 -16 -43 6 -36 141 42 253 125 359 263 32
42 62 78 67 79 6 2 15 13 21 24 10 19 9 19 -21 13 -82 -18 -206 -89 -261 -149
l-29 -31 14 41 c40 116 127 247 216 325 33 29 59 54 57 56 -2 2 -28 -1 -58 -7
-68 -13 -142 -49 -197 -95 -55 -48 -55 -28 -1 76 27 52 59 95 93 126 67 61
208 127 331 156 54 12 100 28 103 35 6 18 -187 14 -279 -7z"/>
<path d="M585 6434 c-11 -2 -53 -12 -93 -21 -126 -28 -111 -40 60 -46 92 -3
177 -12 213 -21 85 -23 193 -79 239 -123 37 -36 76 -90 76 -105 0 -4 -29 4
-64 17 -88 33 -185 49 -253 40 l-57 -7 100 -52 c56 -28 118 -64 140 -80 39
-29 146 -137 141 -143 -2 -1 -31 9 -66 23 -69 28 -183 41 -242 27 -36 -8 -35
-9 135 -89 178 -85 359 -154 372 -142 4 4 2 14 -5 22 -24 29 -41 152 -38 282
2 116 0 134 -21 179 -45 97 -166 182 -312 219 -63 16 -285 30 -325 20z"/>
<path d="M9430 6433 c-143 -17 -273 -76 -349 -159 -70 -77 -85 -127 -76 -262
5 -90 3 -119 -14 -186 -12 -43 -26 -85 -32 -93 -32 -37 18 -27 191 39 110 43
330 155 330 170 0 4 -31 8 -68 8 -58 0 -134 -15 -237 -47 -16 -5 -13 2 14 33
59 68 153 143 235 185 84 44 87 59 13 59 -49 0 -169 -27 -225 -51 -24 -11 -48
-19 -53 -19 -17 0 22 57 71 104 107 105 265 156 483 156 69 0 117 4 117 10 0
12 -86 37 -175 50 -69 9 -156 11 -225 3z"/>
<path d="M2964 5966 c-62 -27 -101 -106 -119 -244 -19 -143 -20 -135 14 -127
22 5 39 0 71 -21 48 -32 121 -42 175 -24 48 16 104 66 122 108 17 42 11 51
-11 17 -18 -27 -49 -49 -85 -60 -23 -7 -23 -6 7 31 55 72 64 151 26 228 -47
91 -122 126 -200 92z m64 -102 c31 -21 29 -61 -4 -76 -49 -22 -85 32 -48 73
21 23 24 23 52 3z"/>
<path d="M7160 5958 c-96 -65 -118 -229 -43 -318 14 -17 22 -30 18 -30 -11 0
-69 32 -87 48 -25 21 -22 1 5 -39 55 -82 158 -101 262 -49 67 33 85 36 104 18
11 -11 12 -5 7 32 -4 25 -10 80 -15 123 -10 92 -48 176 -93 208 -46 33 -115
36 -158 7z m112 -90 c41 -33 24 -88 -28 -88 -26 0 -46 32 -36 60 5 15 31 40
42 40 3 0 13 -6 22 -12z"/>
<path d="M5848 5748 c-86 -23 -151 -113 -192 -265 l-24 -91 40 5 c36 5 43 2
81 -35 57 -55 95 -72 165 -73 78 -2 125 21 157 76 33 55 32 79 -1 37 -22 -27
-89 -72 -109 -72 -2 0 11 20 30 45 54 71 65 139 38 235 l-7 25 30 -19 c16 -10
37 -28 47 -40 l19 -21 -6 27 c-17 75 -94 148 -177 167 -24 6 -46 10 -49 10 -3
-1 -21 -5 -42 -11z m27 -153 c0 -34 -4 -41 -27 -49 -33 -12 -58 6 -58 40 0 31
27 56 59 52 23 -3 26 -7 26 -43z"/>
<path d="M1534 5736 c-45 -20 -102 -74 -125 -117 -26 -51 -24 -67 4 -41 34 32
40 27 32 -25 -8 -59 10 -107 61 -163 41 -46 31 -51 -40 -20 l-46 19 11 -20
c29 -56 182 -87 255 -53 39 18 104 87 104 109 0 11 11 15 39 15 l39 0 -12 28
c-7 15 -26 58 -42 96 -31 74 -89 148 -135 171 -35 18 -104 19 -145 1z m136
-116 c11 -11 20 -24 20 -30 0 -13 -37 -50 -50 -50 -31 0 -65 72 -43 93 13 14
54 6 73 -13z"/>
<path d="M4264 5737 c-67 -26 -120 -82 -139 -147 -7 -24 -7 -24 12 -7 11 9 22
15 25 12 3 -3 13 4 23 15 25 28 36 25 25 -6 -27 -70 -2 -178 54 -236 37 -38 9
-36 -40 3 -21 16 -49 46 -63 65 -13 19 -26 33 -28 31 -6 -7 26 -88 47 -117 27
-37 96 -70 148 -70 60 0 109 23 164 77 41 40 50 45 82 41 28 -3 35 -1 31 9 -2
8 -14 49 -24 93 -24 95 -48 145 -93 187 -61 59 -149 78 -224 50z m174 -120
c20 -16 15 -65 -9 -78 -34 -18 -69 6 -69 47 0 48 36 63 78 31z"/>
<path d="M8575 5734 c-56 -29 -96 -79 -146 -179 -27 -55 -49 -103 -49 -107 0
-5 15 -8 33 -8 28 0 38 -8 69 -49 79 -106 230 -123 307 -35 40 45 40 61 -1 31
-18 -14 -48 -28 -67 -32 l-34 -7 46 43 c48 47 77 117 77 188 l1 36 24 -30 c30
-36 33 -19 6 33 -55 106 -180 161 -266 116z m78 -115 c15 -24 -16 -69 -48 -69
-36 0 -51 34 -30 66 19 29 61 30 78 3z"/>
<path d="M6770 5540 c-36 -27 -105 -67 -155 -89 l-90 -38 4 -44 c1 -24 5 -46
7 -48 3 -3 24 0 47 6 23 6 43 10 44 9 2 -1 -2 -18 -8 -37 -6 -19 -14 -110 -19
-204 -7 -157 -10 -177 -40 -258 l-32 -88 23 -62 c13 -34 39 -90 58 -124 36
-66 120 -178 127 -170 2 2 -21 73 -53 158 -31 85 -57 170 -57 189 -1 37 33
160 43 159 3 0 21 -31 39 -69 68 -139 184 -245 299 -273 52 -13 103 -11 103 4
0 5 -4 9 -9 9 -5 0 -40 30 -80 66 -121 113 -201 253 -236 419 -28 135 -16 269
40 448 14 43 25 80 25 83 0 11 -20 0 -80 -46z"/>
<path d="M3415 5563 c117 -305 97 -564 -63 -801 -22 -32 -78 -94 -124 -137
l-83 -78 61 5 c93 9 147 38 233 126 54 54 87 99 113 151 22 44 39 69 42 60 51
-152 51 -158 -30 -373 -25 -65 -43 -120 -41 -123 12 -12 76 86 136 210 l68
138 -30 87 c-26 76 -30 107 -37 252 -4 91 -10 172 -13 180 -3 8 -8 27 -11 43
-6 27 -6 27 36 25 40 -3 42 -2 49 32 4 19 5 38 3 42 -3 4 -43 25 -90 47 -47
22 -114 61 -150 86 -72 50 -79 53 -69 28z"/>
<path d="M2386 5520 c-73 -19 -166 -71 -221 -125 -57 -55 -75 -90 -32 -63 207
132 345 163 553 123 43 -8 79 -13 81 -11 7 7 -50 38 -105 58 -65 23 -216 33
-276 18z"/>
<path d="M7622 5519 c-50 -10 -173 -73 -150 -77 8 -2 46 4 82 13 86 19 245 19
321 0 65 -17 155 -60 223 -107 51 -35 63 -31 33 11 -47 65 -139 125 -240 155
-59 17 -195 20 -269 5z"/>
<path d="M2418 5404 c-154 -37 -329 -176 -397 -315 -81 -167 -61 -339 56 -469
50 -56 41 -62 -34 -25 -62 31 -127 100 -155 163 -23 52 -21 142 6 206 21 50 7
45 -35 -11 -75 -101 -95 -226 -50 -308 l22 -40 -4 58 c-2 31 -2 57 0 57 1 0 9
-15 16 -32 8 -18 32 -56 55 -84 32 -41 57 -59 129 -93 48 -24 99 -49 113 -57
131 -76 235 -111 354 -120 216 -17 422 78 514 237 16 28 51 66 82 89 71 53
126 120 162 198 36 74 37 116 8 176 -27 56 -150 172 -150 142 0 -2 15 -28 34
-56 85 -130 65 -250 -64 -375 -53 -52 -54 -51 -17 35 47 111 40 227 -21 345
-112 217 -383 338 -624 279z m314 -96 c94 -45 188 -134 227 -217 22 -47 26
-70 26 -142 0 -78 -3 -90 -30 -134 -48 -77 -82 -90 -250 -91 l-140 -1 -85 -41
c-95 -47 -164 -63 -215 -52 -59 13 -123 58 -150 104 -81 138 -46 319 88 462
107 115 204 156 357 151 86 -2 103 -6 172 -39z m181 -700 c-36 -65 -114 -133
-188 -162 -91 -37 -212 -46 -302 -23 -61 16 -157 60 -198 90 -18 14 -15 15 46
16 79 0 131 11 247 52 75 26 104 31 212 34 69 2 139 8 155 13 46 16 47 14 28
-20z"/>
<path d="M2677 5150 c-65 -51 -86 -168 -44 -250 35 -71 112 -109 157 -80 12 7
8 10 -14 10 -56 0 -132 109 -113 162 2 7 11 -3 19 -22 20 -47 72 -90 108 -90
16 0 41 11 57 24 26 23 28 30 28 98 0 60 -4 79 -23 106 -44 61 -125 81 -175
42z"/>
<path d="M2240 5062 c-72 -72 -76 -200 -8 -264 39 -36 69 -35 112 2 41 36 60
85 54 141 -4 40 5 52 16 23 21 -55 -9 -165 -54 -197 -22 -16 -17 -29 8 -19 67
24 118 114 107 187 -8 54 -55 129 -94 149 -53 28 -98 21 -141 -22z"/>
<path d="M7590 5409 c-78 -13 -205 -77 -269 -135 -164 -148 -199 -317 -107
-527 16 -37 16 -38 -2 -28 -39 21 -111 113 -132 169 -34 90 -13 198 53 270 24
25 17 28 -22 8 -39 -20 -104 -95 -120 -136 -7 -19 -17 -42 -21 -51 -11 -21 19
-103 66 -180 36 -60 89 -113 152 -153 22 -13 51 -44 65 -69 36 -61 125 -140
200 -176 89 -44 168 -61 277 -61 118 0 211 23 306 75 38 21 111 59 162 85 102
52 166 107 213 185 l30 50 -4 -41 c-7 -63 8 -74 28 -20 34 88 3 196 -83 297
-19 22 -36 38 -38 36 -2 -2 5 -29 16 -60 38 -108 21 -189 -57 -277 -38 -43
-142 -105 -163 -98 -5 2 12 28 37 58 65 77 95 149 101 235 13 212 -148 431
-384 521 -78 30 -209 40 -304 23z m300 -100 c232 -110 350 -362 256 -547 -30
-59 -69 -94 -132 -118 -40 -15 -54 -16 -104 -6 -32 7 -94 29 -137 49 -78 36
-78 36 -223 37 -127 1 -149 4 -180 22 -71 41 -105 124 -98 240 10 152 121 278
308 350 23 9 69 13 135 11 91 -2 107 -5 175 -38z m-350 -692 c111 -4 138 -9
235 -41 68 -23 140 -40 190 -44 l80 -7 -43 -32 c-152 -112 -409 -104 -563 18
-33 26 -99 107 -99 122 0 3 17 1 38 -3 20 -5 93 -11 162 -13z"/>
<path d="M7434 5138 c-42 -37 -74 -98 -74 -143 0 -16 10 -48 23 -70 19 -33 28
-40 58 -43 42 -4 81 23 109 76 l19 37 1 -36 c0 -46 -34 -97 -85 -126 l-40 -23
30 0 c48 0 110 34 134 73 69 112 9 287 -99 287 -30 0 -48 -8 -76 -32z"/>
<path d="M7903 5099 c-62 -18 -113 -104 -113 -190 0 -92 54 -160 125 -158 21
1 24 3 10 6 -66 16 -120 139 -85 193 8 12 10 9 10 -13 0 -32 24 -94 46 -119 9
-9 29 -20 46 -23 140 -31 179 229 44 294 -23 12 -44 21 -47 20 -2 0 -18 -5
-36 -10z"/>
<path d="M4973 5345 c-75 -20 -141 -56 -193 -105 -25 -23 -38 -39 -30 -36 8 3
53 21 99 40 109 45 201 60 321 53 104 -5 226 -40 293 -83 28 -18 37 -21 37
-10 0 35 -130 116 -225 141 -73 19 -231 19 -302 0z"/>
<path d="M4960 5219 c-213 -55 -399 -246 -432 -441 -17 -99 1 -185 62 -290 26
-46 46 -85 44 -87 -8 -9 -96 54 -134 96 -91 103 -107 203 -52 332 17 41 29 77
26 80 -10 10 -93 -91 -120 -146 -33 -66 -44 -147 -29 -208 19 -71 36 -80 29
-14 l-5 54 29 -60 c38 -77 87 -133 159 -181 32 -21 90 -67 129 -103 131 -121
283 -181 458 -181 51 0 119 7 151 15 94 25 214 88 285 150 36 32 89 73 119 93
111 72 177 149 206 245 l14 42 1 -55 c1 -50 2 -53 15 -36 55 73 -4 257 -119
365 -40 39 -46 34 -17 -13 30 -49 54 -154 48 -212 -9 -91 -67 -176 -161 -240
-27 -18 -51 -32 -53 -30 -2 2 15 34 37 72 71 121 88 205 66 312 -67 323 -420
529 -756 441z m295 -66 c254 -74 422 -338 345 -542 -36 -99 -112 -159 -210
-169 -26 -2 -82 5 -133 17 -110 26 -129 26 -258 0 -119 -25 -172 -21 -235 16
-50 30 -85 71 -115 140 -33 74 -23 183 25 280 59 120 186 224 317 259 67 19
198 18 264 -1z m-3 -809 c51 -9 127 -14 170 -12 l76 3 -15 -25 c-38 -64 -165
-130 -284 -149 -135 -22 -325 38 -415 130 l-38 39 89 0 c50 1 117 7 150 14 82
19 158 19 267 0z"/>
<path d="M4806 4909 c-68 -59 -90 -172 -50 -251 29 -57 94 -65 147 -18 45 39
61 79 55 135 -3 25 -2 45 2 45 13 0 20 -29 20 -80 0 -81 -32 -133 -105 -174
l-30 -17 38 5 c116 15 190 158 142 274 -45 106 -148 144 -219 81z"/>
<path d="M5297 4919 c-86 -45 -116 -211 -54 -293 30 -39 64 -60 115 -71 20 -4
32 -3 32 4 0 6 -9 11 -19 11 -56 0 -113 101 -103 183 6 50 22 58 22 10 1 -109
92 -185 166 -137 76 50 70 190 -11 271 -49 50 -85 55 -148 22z"/>
<path d="M3047 4476 c-68 -103 -158 -150 -340 -176 -86 -13 -126 -30 -70 -30
22 0 25 -2 13 -10 -44 -28 -293 4 -415 54 -33 13 -62 22 -65 19 -12 -12 96
-94 166 -128 100 -47 179 -65 290 -65 233 0 408 122 454 317 18 77 9 82 -33
19z"/>
<path d="M7183 4483 c12 -106 103 -223 219 -282 210 -105 484 -67 663 94 47
42 58 68 18 46 -75 -44 -270 -91 -372 -91 -69 0 -97 11 -63 25 11 5 -21 14
-90 26 -141 23 -257 76 -314 145 -21 26 -45 55 -52 63 -11 14 -13 10 -9 -26z"/>
<path d="M6986 4270 c45 -77 183 -168 294 -194 78 -19 170 -20 225 -4 l40 12
-75 8 c-129 15 -337 97 -459 181 l-44 30 19 -33z"/>
<path d="M3235 4260 c-20 -22 -177 -101 -247 -124 -25 -8 -86 -23 -135 -32
-117 -22 -125 -26 -78 -35 112 -22 241 -1 334 54 58 34 161 128 161 146 0 17
-15 13 -35 -9z"/>
<path d="M4570 4198 c1 -59 122 -214 216 -274 56 -36 168 -84 195 -84 10 0 21
-5 25 -11 9 -16 -104 -4 -213 21 -81 19 -211 74 -266 112 -50 35 -40 12 24
-56 255 -273 795 -302 1093 -59 66 53 123 119 113 130 -4 3 -15 -1 -24 -9 -77
-64 -253 -126 -392 -136 -55 -4 -98 -6 -96 -4 2 3 33 14 69 27 146 51 273 157
340 285 20 38 35 70 32 70 -2 0 -38 -25 -78 -55 -126 -95 -258 -143 -423 -154
l-90 -6 30 -17 c30 -17 30 -17 5 -18 -47 0 -175 31 -273 67 -106 39 -203 96
-254 150 -18 19 -33 28 -33 21z"/>
</g>
</svg>
