<?xml version="1.0" standalone="no"?>
<!DOCTYPE svg PUBLIC "-//W3C//DTD SVG 20010904//EN"
 "http://www.w3.org/TR/2001/REC-SVG-20010904/DTD/svg10.dtd">
<svg version="1.0" xmlns="http://www.w3.org/2000/svg"
 width="512.000000pt" height="512.000000pt" viewBox="0 0 512.000000 512.000000"
 preserveAspectRatio="xMidYMid meet">

<g transform="translate(0.000000,512.000000) scale(0.100000,-0.100000)"
fill="#000000" stroke="none">
<path d="M2955 3969 c-127 -16 -248 -45 -358 -88 -176 -69 -517 -105 -772 -80
-349 33 -570 2 -800 -111 -182 -90 -341 -242 -430 -411 -26 -49 -49 -77 -85
-103 -100 -72 -143 -182 -121 -310 l12 -70 -40 -40 c-46 -47 -80 -117 -81
-163 l0 -33 -80 0 c-139 0 -189 -37 -182 -136 1 -12 23 -45 48 -73 49 -54 50
-61 23 -129 -12 -28 -11 -37 2 -60 27 -49 51 -53 174 -27 61 12 139 26 175 29
60 6 63 6 46 -9 -11 -8 -33 -15 -49 -15 -19 0 -39 -11 -59 -30 -26 -27 -30
-36 -24 -68 7 -48 33 -82 86 -111 56 -32 168 -32 293 -2 49 11 107 21 130 21
59 0 136 -23 183 -53 35 -23 140 -49 238 -59 26 -3 33 -11 64 -83 36 -84 51
-187 38 -258 -9 -46 -57 -117 -100 -145 -46 -31 -62 -71 -44 -109 22 -46 48
-52 193 -44 72 4 140 4 153 -1 37 -13 357 -10 387 4 15 7 33 25 41 40 12 23
21 28 49 28 43 0 72 27 79 72 12 71 28 299 31 418 2 135 25 244 54 259 54 28
165 19 366 -30 204 -49 339 -62 668 -64 323 -3 312 -1 380 -64 85 -78 73 -147
-48 -259 -36 -34 -69 -62 -74 -62 -8 0 -195 -235 -218 -274 -18 -31 -16 -60 8
-90 l20 -26 218 0 c239 0 236 -1 260 63 9 24 16 27 55 27 36 0 48 5 65 26 12
15 21 35 21 46 0 32 34 88 130 213 164 213 179 287 75 380 -24 22 -52 58 -61
79 -18 46 -33 54 121 -64 165 -126 158 -116 153 -218 -4 -70 -11 -100 -35
-153 -37 -80 -93 -163 -162 -242 -59 -67 -66 -103 -26 -142 24 -25 27 -25 200
-25 l176 0 64 60 c40 37 73 60 88 60 29 0 66 26 76 54 5 12 2 60 -6 111 -22
146 -6 269 54 397 23 50 34 85 30 100 -4 13 -29 50 -57 83 -87 102 -140 233
-140 345 0 42 9 77 40 148 67 155 91 263 97 442 l6 155 42 46 c24 25 53 65 65
88 12 24 36 56 55 72 36 32 62 79 80 150 25 95 -26 96 -60 1 -13 -35 -25 -66
-29 -69 -3 -3 -10 15 -17 41 -15 60 -79 132 -144 162 -27 13 -56 24 -63 24
-23 0 -62 -48 -62 -77 0 -40 52 -144 96 -193 l37 -41 -21 -22 c-12 -11 -23
-19 -25 -16 -1 2 -16 33 -32 68 -95 206 -298 375 -592 492 -109 43 -352 103
-523 129 -165 25 -492 35 -625 19z m500 -164 c346 -40 638 -128 822 -248 229
-149 336 -337 336 -592 -1 -161 -30 -283 -112 -457 -26 -57 -31 -78 -31 -145
0 -137 43 -265 135 -403 l45 -68 -19 -46 c-34 -77 -51 -187 -51 -321 0 -81 -4
-125 -11 -125 -5 0 -34 -22 -63 -50 -44 -41 -59 -50 -89 -50 -21 0 -37 2 -37
3 0 2 23 41 50 87 96 160 127 337 80 463 -23 61 -42 80 -160 163 -181 127
-374 341 -409 454 -19 58 -47 90 -82 90 -41 0 -58 -9 -75 -41 -12 -24 -13 -37
-3 -71 14 -55 58 -140 103 -203 20 -27 36 -53 36 -57 0 -12 -179 -65 -285 -84
-82 -15 -150 -19 -380 -18 -304 0 -435 12 -627 59 -57 14 -140 30 -184 37
l-82 12 39 28 c21 15 42 35 47 45 5 10 12 69 15 131 5 109 5 113 -20 142 -30
37 -71 40 -107 8 -23 -20 -26 -34 -32 -114 -7 -89 -7 -91 -41 -114 -58 -40
-140 -138 -177 -213 -48 -99 -67 -188 -71 -343 -3 -128 -11 -235 -21 -301 -4
-24 -10 -33 -25 -33 -11 0 -30 -16 -47 -40 -26 -38 -29 -39 -85 -40 l-59 0 30
37 c56 72 75 122 80 210 5 95 -6 151 -49 236 -22 46 -29 73 -29 121 0 165 -76
451 -125 470 -33 12 -67 5 -91 -20 -31 -30 -30 -47 9 -176 15 -48 29 -110 33
-136 l6 -49 -68 -19 c-54 -15 -103 -19 -229 -19 l-160 0 -72 37 c-121 64 -270
85 -373 54 -25 -7 -58 -16 -73 -20 l-29 -7 38 46 c21 25 46 45 55 45 23 0 59
46 59 75 0 36 -35 71 -84 84 -77 19 -281 12 -407 -14 -23 -5 -27 -1 -38 32 -7
21 -14 43 -17 49 -3 7 17 13 56 17 82 9 125 29 145 68 16 31 17 80 1 119 -4 9
0 24 8 35 13 18 14 18 46 -8 65 -55 149 -20 163 70 10 61 53 99 128 114 78 15
103 35 103 83 0 56 -31 82 -96 79 -75 -3 -140 -29 -193 -75 -25 -22 -49 -37
-53 -34 -3 4 -6 33 -7 66 0 68 21 105 75 131 26 13 57 15 154 11 142 -5 230
12 286 57 40 32 51 78 26 116 -24 37 -65 40 -121 10 -40 -21 -61 -25 -131 -25
-46 0 -84 3 -84 6 0 4 20 34 44 68 142 198 366 319 659 356 98 13 135 12 365
-10 246 -24 681 21 822 85 94 42 162 61 275 79 121 19 381 19 540 1z m1319
-325 c37 -42 52 -79 42 -106 -5 -14 -9 -14 -22 -3 -22 18 -74 110 -74 132 0
27 14 21 54 -23z m-843 -1506 c12 -56 38 -104 83 -152 l46 -49 -40 -59 c-21
-32 -69 -97 -105 -144 -36 -47 -75 -104 -86 -127 -19 -39 -24 -43 -58 -43 -46
0 -78 -22 -86 -60 -7 -30 -7 -30 -76 -30 l-70 0 33 46 c18 26 51 60 73 77 114
87 186 182 206 273 16 71 0 142 -46 212 l-35 51 42 11 c24 6 54 15 68 20 35
12 44 8 51 -26z m-2281 -106 c0 -7 19 -50 42 -95 34 -67 41 -92 42 -140 0 -68
-13 -97 -90 -192 -45 -57 -61 -70 -91 -74 -20 -4 -38 -5 -40 -4 -1 2 7 32 18
67 27 85 22 226 -10 315 -37 101 -37 105 -5 106 16 0 49 6 74 13 60 18 60 18
60 4z"/>
</g>
</svg>
