<?xml version="1.0" standalone="no"?>
<!DOCTYPE svg PUBLIC "-//W3C//DTD SVG 20010904//EN"
 "http://www.w3.org/TR/2001/REC-SVG-20010904/DTD/svg10.dtd">
<svg version="1.0" xmlns="http://www.w3.org/2000/svg"
 width="512.000000pt" height="512.000000pt" viewBox="0 0 512.000000 512.000000"
 preserveAspectRatio="xMidYMid meet">

<g transform="translate(0.000000,512.000000) scale(0.100000,-0.100000)"
fill="#000000" stroke="none">
<path d="M726 3988 c-24 -21 -29 -31 -28 -74 0 -41 14 -75 86 -215 l85 -166
-40 -39 c-61 -59 -150 -180 -230 -314 -39 -66 -76 -123 -83 -128 -6 -5 -58
-22 -116 -38 -87 -23 -121 -28 -201 -26 -85 3 -98 1 -123 -19 -50 -39 -56 -71
-56 -273 0 -249 21 -358 80 -411 24 -22 86 -25 167 -10 40 7 64 -1 391 -139
192 -80 362 -149 379 -152 23 -5 34 -15 46 -43 8 -20 33 -79 54 -131 59 -141
65 -176 72 -400 8 -228 16 -259 71 -279 56 -19 184 18 215 63 15 20 15 20 15
-6 0 -47 20 -53 184 -53 214 0 216 2 241 204 8 64 22 151 31 194 14 64 20 77
33 71 123 -53 286 -95 466 -120 94 -13 169 -15 350 -11 l230 5 0 -122 c0 -181
30 -226 150 -226 70 0 176 26 218 54 46 31 64 76 87 221 11 72 24 144 28 160
l8 30 19 -35 c16 -29 20 -65 25 -196 7 -215 20 -234 153 -234 95 1 187 17 209
37 29 26 36 50 53 187 14 116 37 203 66 257 7 13 65 78 128 144 160 165 234
283 295 465 47 142 61 233 60 400 -1 144 -6 188 -41 338 -5 22 -4 22 53 15 33
-5 113 -8 179 -8 102 0 127 3 167 22 63 29 134 96 166 158 24 44 27 62 27 145
0 78 -4 103 -23 141 -36 74 -87 125 -160 161 -58 29 -76 33 -142 32 -60 0 -86
-6 -132 -28 -108 -51 -178 -165 -178 -286 0 -66 12 -105 42 -137 l21 -23 -41
0 c-41 0 -42 1 -99 88 -159 242 -415 408 -749 483 -99 23 -103 23 -1173 26
l-1074 4 -41 40 c-80 81 -372 199 -530 215 -56 6 -65 4 -90 -18z m300 -201
c134 -52 186 -81 228 -127 48 -54 81 -127 101 -227 15 -77 36 -275 30 -281 -7
-8 -103 65 -156 117 -74 75 -123 149 -204 310 -37 74 -84 163 -106 199 -21 35
-39 66 -39 68 0 3 12 -2 28 -10 15 -7 68 -30 118 -49z m2500 -208 c305 -42
606 -226 743 -454 128 -212 156 -539 72 -823 -54 -180 -133 -308 -277 -445
-77 -75 -111 -116 -139 -168 -40 -76 -85 -237 -85 -305 0 -23 -4 -54 -10 -68
-8 -22 -16 -26 -50 -26 l-40 0 0 110 c0 144 -17 194 -125 375 -46 77 -101 183
-121 235 -20 52 -41 101 -47 108 -15 19 -50 14 -124 -19 -211 -96 -410 -133
-778 -144 l-210 -7 -149 -79 c-81 -44 -151 -78 -154 -75 -7 8 35 168 69 256
42 111 44 130 19 163 -29 37 -77 37 -114 0 -59 -59 -212 -650 -229 -883 l-2
-35 -62 -3 -62 -3 -5 33 c-3 18 -8 80 -11 138 -8 155 -25 286 -41 333 -8 23
-39 85 -68 137 -30 52 -66 133 -81 180 -39 124 -91 166 -146 121 -21 -17 -24
-28 -23 -80 1 -52 -1 -61 -15 -57 -9 3 -53 14 -98 26 -45 11 -121 34 -169 51
-98 34 -535 217 -546 228 -5 4 1 24 11 44 46 90 51 263 12 367 -12 30 -21 58
-21 61 0 3 22 9 49 12 101 12 126 36 254 241 50 81 115 173 142 203 l50 54 49
-72 c62 -92 161 -196 230 -244 107 -73 252 -106 305 -68 23 16 24 18 18 137
-6 120 -39 366 -56 418 -5 14 -7 29 -4 32 12 11 1957 7 2039 -5z m1309 -128
c131 -59 143 -234 22 -298 -16 -8 -30 -13 -32 -11 -2 2 2 22 10 45 18 52 6
101 -36 143 -59 59 -119 34 -119 -51 0 -59 -20 -66 -51 -16 -40 64 -9 143 71
185 53 27 82 27 135 3z m-4566 -645 c53 -25 66 -59 66 -169 0 -84 -4 -108 -20
-136 -20 -34 -108 -92 -120 -79 -4 3 -9 97 -12 208 l-6 202 34 -7 c19 -4 45
-12 58 -19z m1026 -876 c7 0 16 -16 19 -35 5 -27 17 -42 47 -62 68 -45 109
-156 109 -294 0 -67 -4 -85 -35 -146 -19 -38 -43 -77 -54 -87 -19 -17 -19 -13
-23 181 -4 183 -6 204 -31 276 -15 43 -39 101 -53 129 -21 41 -23 50 -9 44 9
-3 23 -6 30 -6z m2110 -100 l44 -89 -62 -20 c-310 -102 -761 -121 -1092 -46
-38 9 -76 18 -84 21 -8 2 26 25 76 50 l90 46 224 9 c286 13 534 52 704 112 22
8 44 12 48 10 4 -3 28 -44 52 -93z m-35 -298 c0 -49 -42 -178 -66 -203 -28
-30 -67 -41 -98 -29 -20 7 -20 7 3 19 22 12 23 17 19 102 l-4 89 40 11 c23 5
52 14 66 19 37 12 40 12 40 -8z"/>
<path d="M921 3025 c-75 -24 -121 -84 -121 -161 0 -155 221 -223 306 -94 92
139 -28 304 -185 255z m59 -155 c0 -5 -4 -10 -10 -10 -5 0 -10 5 -10 10 0 6 5
10 10 10 6 0 10 -4 10 -10z"/>
</g>
</svg>
