<?xml version="1.0" standalone="no"?>
<!DOCTYPE svg PUBLIC "-//W3C//DTD SVG 20010904//EN"
 "http://www.w3.org/TR/2001/REC-SVG-20010904/DTD/svg10.dtd">
<svg version="1.0" xmlns="http://www.w3.org/2000/svg"
 width="1024.000000pt" height="1024.000000pt" viewBox="0 0 1024.000000 1024.000000"
 preserveAspectRatio="xMidYMid meet">

<g transform="translate(0.000000,1024.000000) scale(0.100000,-0.100000)"
fill="#000000" stroke="none">
<path d="M4996 9071 c-4 -5 -9 -70 -13 -145 l-6 -136 -259 0 c-234 0 -262 -2
-296 -19 -57 -29 -187 -67 -295 -86 -150 -27 -373 -17 -528 24 -135 35 -277
88 -367 137 -73 40 -82 42 -56 12 52 -59 242 -161 385 -206 242 -78 473 -78
749 -2 58 16 113 32 123 36 13 5 18 2 17 -7 -1 -8 -2 -26 -1 -41 l1 -28 142 0
141 0 101 -97 c96 -94 100 -97 107 -73 4 15 7 -11 8 -63 l1 -88 -239 3 c-216
3 -265 7 -249 23 2 3 38 4 79 4 245 -4 263 5 190 98 -74 92 -117 94 -181 9
-22 -29 -40 -60 -40 -68 0 -21 -24 -29 -52 -19 -15 5 -45 2 -86 -10 -211 -60
-554 -41 -805 46 -92 32 -97 31 -97 -4 0 -26 6 -31 63 -54 162 -65 378 -106
554 -107 102 0 317 31 355 51 19 10 20 9 13 -39 l-6 -49 106 -6 106 -6 135
-127 134 -126 0 -69 c0 -37 -7 -173 -15 -301 -8 -128 -21 -359 -30 -513 -31
-548 -55 -941 -60 -980 l-6 -40 87 87 87 86 4 84 c2 45 10 209 18 363 9 154
22 426 30 605 8 179 19 399 25 490 5 91 13 227 16 303 l7 137 32 0 31 0 13
-362 c7 -200 23 -592 35 -872 l21 -510 73 83 c39 45 72 87 72 93 0 18 -38 751
-50 948 -5 96 -10 217 -11 268 l-2 93 128 129 127 130 62 0 c33 0 85 3 114 6
l52 7 0 39 c0 37 2 40 23 35 73 -18 217 -29 327 -24 136 5 277 36 376 81 45
21 54 29 54 50 0 15 -2 26 -4 26 -2 0 -54 -13 -116 -30 -208 -54 -408 -63
-583 -26 -56 12 -82 14 -91 7 -7 -6 -15 -8 -18 -5 -3 3 -5 -3 -4 -13 1 -17
-13 -18 -229 -18 l-230 0 -3 60 -3 60 108 97 108 97 143 1 142 0 0 30 c0 17
-4 30 -10 30 -5 0 -10 5 -10 10 0 16 23 12 131 -20 397 -118 765 -68 1052 141
50 37 57 49 28 46 -11 0 -18 -4 -16 -7 11 -18 -207 -96 -380 -136 -103 -24
-142 -28 -275 -28 -178 -1 -257 13 -440 75 l-115 39 -251 0 -251 0 -6 135 c-3
75 -9 140 -12 145 -8 13 -232 13 -239 1z m152 -204 l3 -77 -31 0 -30 0 0 80 0
81 28 -4 c26 -4 27 -5 30 -80z m-188 -325 l0 -66 -65 64 c-72 71 -70 77 15 72
l50 -4 0 -66z m200 -92 l0 -160 -35 0 -35 0 0 160 0 160 35 0 35 0 0 -160z
m200 114 c-25 -25 -53 -50 -62 -55 -16 -9 -18 -4 -18 46 l0 55 62 0 62 0 -44
-46z m-420 -465 l0 -62 -52 48 c-29 27 -60 54 -68 62 -12 11 -4 13 53 13 l67
0 0 -61z m459 29 c-18 -18 -47 -49 -65 -68 l-33 -35 -1 68 0 67 66 0 65 0 -32
-32z"/>
<path d="M5542 8971 c-23 -32 -42 -64 -42 -69 0 -5 -7 -15 -15 -22 -21 -17
-16 -70 6 -70 10 0 19 5 21 10 2 7 14 6 33 -3 27 -12 53 -14 138 -9 16 1 26 6
23 11 -3 5 1 12 9 15 14 5 14 9 -2 33 -10 16 -21 33 -26 38 -4 6 -24 34 -45
64 -20 30 -42 56 -48 58 -6 2 -29 -23 -52 -56z"/>
<path d="M4605 8998 c-44 -63 -105 -162 -105 -173 0 -24 191 -28 206 -4 3 5 0
9 -5 9 -6 0 -11 5 -11 10 0 6 10 8 24 4 32 -8 40 8 18 37 -10 13 -33 50 -52
82 -37 62 -51 69 -75 35z"/>
<path d="M3000 8581 c-72 -24 -684 -276 -973 -400 -189 -82 -249 -116 -296
-166 -94 -102 -107 -199 -52 -368 18 -54 30 -105 27 -112 -7 -20 -84 -68 -160
-101 -147 -63 -149 -89 -26 -453 49 -147 103 -300 120 -340 38 -94 154 -296
193 -338 47 -51 118 -76 199 -71 86 5 107 21 88 68 -7 18 -20 38 -28 46 -8 8
-13 17 -11 19 2 2 66 -17 142 -42 l138 -45 59 -123 c84 -174 137 -211 297
-209 61 1 84 7 145 36 108 53 152 95 178 173 12 36 26 67 31 70 11 8 89 -65
394 -365 138 -135 324 -318 415 -405 91 -88 253 -246 360 -351 107 -106 236
-227 285 -269 50 -42 105 -90 122 -105 l32 -28 50 92 c61 114 183 377 177 384
-3 2 -42 8 -87 13 -212 24 -549 85 -575 104 -14 10 -10 19 35 78 28 36 51 69
51 73 0 4 -209 215 -465 468 -256 254 -465 466 -465 472 0 11 280 170 570 324
214 114 246 135 277 187 47 80 42 93 -196 572 -117 234 -235 473 -264 531 -74
150 -108 168 -239 134 -34 -8 -64 -12 -69 -7 -4 4 -40 79 -79 166 -81 175
-118 223 -206 264 -55 25 -154 37 -194 24z m161 -131 c50 -26 79 -66 130 -179
28 -64 59 -131 67 -149 13 -29 13 -35 1 -43 -19 -12 -29 2 -105 154 -70 139
-92 161 -172 173 -57 9 -104 -7 -447 -154 -154 -65 -374 -158 -488 -207 -114
-48 -222 -97 -239 -109 -17 -11 -42 -41 -56 -66 -37 -69 -28 -140 40 -320 31
-80 52 -148 49 -152 -4 -4 -17 -9 -30 -10 -22 -3 -28 8 -79 147 -88 241 -84
334 19 430 58 54 85 67 514 245 176 73 379 157 450 188 72 31 150 61 173 67
48 12 134 5 173 -15z m-43 -158 c9 -9 37 -56 61 -102 24 -47 54 -99 67 -117
13 -17 24 -36 24 -42 0 -18 -18 -13 -24 7 -3 9 -31 31 -63 47 -56 30 -57 31
-90 118 -19 48 -31 92 -28 97 10 15 33 12 53 -8z m-163 -84 c10 -29 29 -75 42
-101 13 -27 23 -50 21 -51 -2 -1 -133 -54 -293 -118 -159 -64 -393 -160 -520
-212 -126 -53 -233 -96 -236 -96 -8 0 -39 110 -39 139 0 36 32 81 70 101 19
10 184 79 365 154 182 75 350 145 375 156 121 52 186 79 191 79 3 1 13 -23 24
-51z m933 -663 c168 -336 242 -495 242 -518 0 -64 -2 -66 -335 -257 -121 -70
-341 -198 -490 -285 -655 -385 -632 -373 -684 -344 -35 19 -62 74 -272 536
-255 562 -260 574 -225 641 23 44 44 58 206 130 85 38 245 111 355 162 110 50
283 130 385 177 102 47 232 108 290 136 136 64 240 106 265 107 17 0 62 -83
263 -485z m-810 409 c35 -24 26 -39 -40 -67 -35 -14 -113 -49 -175 -76 -62
-28 -116 -51 -120 -51 -12 0 -34 53 -26 61 8 7 323 148 333 149 3 0 16 -7 28
-16z m-471 -211 l13 -33 -67 -30 c-36 -17 -67 -29 -68 -28 -9 10 -36 70 -33
73 11 11 115 53 127 52 8 -1 20 -17 28 -34z m-259 -95 c19 -19 14 -54 -10 -70
-13 -8 -80 -41 -151 -73 -122 -55 -128 -57 -147 -40 -10 9 -23 30 -29 45 -9
28 -8 29 52 50 34 13 105 40 157 60 108 44 112 44 128 28z m-605 -257 c22 -9
43 -38 34 -48 -7 -7 -126 41 -121 49 7 11 57 10 87 -1z m34 -167 c205 -73 211
-76 219 -119 3 -20 4 -39 0 -42 -3 -3 -59 13 -123 36 -65 22 -149 50 -186 61
l-68 19 6 -32 c4 -18 11 -36 16 -42 6 -5 58 -30 117 -55 105 -45 107 -46 121
-88 7 -24 11 -46 8 -49 -8 -7 -224 66 -235 80 -5 7 -28 64 -51 127 -34 92 -40
119 -32 137 6 13 19 23 31 23 11 0 91 -25 177 -56z m46 -379 c112 -39 115 -41
130 -106 l7 -27 -93 33 c-50 18 -104 38 -119 44 -26 10 -48 41 -63 89 -6 21
-4 23 12 14 10 -5 67 -26 126 -47z m63 -189 c61 -20 116 -42 122 -49 16 -19
41 -97 30 -97 -5 0 -65 18 -133 41 -131 42 -138 47 -150 113 -6 31 -5 37 6 33
8 -3 64 -22 125 -41z"/>
<path d="M3400 7851 c-91 -43 -228 -108 -305 -144 -583 -272 -853 -400 -874
-414 -29 -18 -24 -53 17 -123 l27 -47 125 59 c241 114 447 214 745 362 165 81
346 170 403 197 56 26 105 55 109 65 9 24 -42 124 -64 124 -10 0 -92 -35 -183
-79z"/>
<path d="M3120 7424 c-311 -155 -622 -310 -691 -344 l-127 -62 65 -142 c36
-77 85 -185 109 -239 59 -130 113 -237 120 -237 7 0 83 43 339 190 221 128
817 463 965 543 28 15 53 34 57 43 3 8 -46 122 -111 257 -143 296 -130 272
-147 273 -8 0 -268 -126 -579 -282z m580 86 c112 -57 155 -221 84 -323 -42
-59 -104 -92 -174 -91 -127 2 -220 101 -220 233 0 158 166 254 310 181z m-437
-206 c4 -22 -2 -29 -62 -59 -36 -19 -91 -48 -121 -65 -51 -28 -56 -29 -67 -13
-21 27 -15 38 30 61 23 12 76 40 117 62 41 22 80 40 86 40 7 0 14 -11 17 -26z
m27 -154 c7 -16 10 -35 7 -42 -5 -15 -160 -98 -182 -98 -14 0 -45 48 -45 69 0
11 174 101 195 101 7 0 18 -13 25 -30z m-462 -92 c18 -5 46 -21 62 -35 86 -72
110 -195 54 -276 -102 -144 -330 -102 -380 71 -22 74 -6 137 47 191 60 63 125
77 217 49z m546 -60 c19 -27 15 -33 -42 -59 -26 -12 -70 -32 -98 -44 l-50 -23
-11 29 -11 30 86 44 c48 24 92 44 99 44 6 1 19 -9 27 -21z"/>
<path d="M3535 7466 c-71 -31 -108 -113 -86 -187 42 -141 219 -175 291 -57 40
66 14 183 -52 230 -37 26 -112 33 -153 14z"/>
<path d="M2692 7003 c-138 -68 -87 -274 71 -290 109 -11 193 109 143 205 -45
86 -138 123 -214 85z m129 -92 c34 -35 36 -59 8 -95 -28 -36 -72 -35 -110 3
-35 36 -37 64 -4 96 33 33 70 32 106 -4z"/>
<path d="M3870 7020 c-74 -42 -372 -212 -662 -376 -290 -165 -539 -308 -554
-319 -26 -20 -27 -21 -10 -53 9 -17 18 -32 20 -32 5 0 288 160 486 275 164 95
357 204 764 433 65 37 121 73 123 80 6 14 -16 73 -26 71 -3 0 -67 -36 -141
-79z"/>
<path d="M6754 8546 c-41 -18 -59 -49 -144 -256 -40 -96 -116 -278 -170 -405
-90 -210 -211 -500 -311 -745 -26 -62 -39 -110 -39 -140 0 -78 -10 -73 480
-266 52 -20 130 -49 172 -63 l77 -26 -226 -240 c-124 -132 -332 -347 -462
-478 -130 -130 -237 -241 -239 -246 -3 -10 97 -31 149 -31 44 0 69 -21 69 -56
0 -30 41 -196 68 -274 80 -232 163 -401 235 -477 28 -29 56 -53 63 -53 8 0 14
-4 14 -8 0 -13 -177 -42 -253 -42 -54 0 -71 4 -87 20 -11 11 -20 24 -20 28 0
5 36 19 79 31 l79 23 -15 45 c-10 27 -20 42 -28 39 -7 -2 -45 -14 -85 -26 -69
-21 -72 -21 -86 -3 -7 10 -14 24 -14 31 0 6 0 15 -1 19 0 4 28 17 63 29 59 20
63 23 60 50 -5 53 -9 57 -50 49 -20 -3 -56 -15 -80 -25 l-43 -19 -10 26 c-5
15 -8 32 -5 39 3 7 37 23 75 35 75 24 82 34 60 82 -10 21 -15 23 -43 17 -17
-4 -48 -15 -70 -24 -21 -10 -40 -16 -41 -14 -2 2 -6 19 -10 39 -7 40 -10 37
95 70 25 8 45 16 44 19 -1 3 -4 42 -8 88 -5 57 -11 82 -19 79 -12 -3 -271
-288 -324 -355 l-26 -32 28 -98 c43 -153 101 -299 140 -352 25 -34 53 -57 93
-77 51 -25 67 -27 147 -26 50 2 132 10 182 19 51 9 103 14 116 10 39 -9 76
-45 105 -99 l27 -52 -3 -218 c-3 -232 9 -438 35 -607 22 -147 21 -159 -14
-210 -47 -70 -143 -259 -143 -283 0 -24 -56 -108 -144 -215 -65 -80 -184 -188
-286 -260 -36 -25 -112 -83 -170 -127 -58 -45 -204 -156 -325 -247 -121 -91
-237 -181 -259 -200 l-38 -33 76 -59 c92 -70 73 -77 249 92 146 141 320 286
494 413 177 129 325 251 369 305 l38 45 23 -68 c50 -144 57 -159 89 -190 66
-67 79 -64 1275 307 69 22 133 48 142 58 32 36 10 223 -43 366 -25 65 -34 74
-84 78 -35 3 -43 9 -80 62 -58 86 -94 99 -241 90 -145 -9 -162 -4 -185 49 -23
52 -54 202 -74 364 -24 186 -23 195 25 241 41 39 41 39 40 109 -1 80 1 82 73
107 28 9 60 25 72 37 l22 20 -19 62 c-35 115 -42 166 -28 200 27 70 54 93 141
122 174 57 208 82 208 149 0 14 5 28 10 31 6 3 10 -1 10 -9 0 -13 5 -12 33 4
19 11 45 33 60 49 16 19 46 35 84 46 32 9 117 35 188 57 72 23 133 42 137 42
13 2 21 17 33 63 11 44 15 48 60 63 54 18 75 43 84 98 5 30 11 37 38 44 44 12
75 53 71 97 -3 33 0 36 32 44 19 5 49 9 65 9 47 0 265 56 315 81 38 19 46 28
48 56 4 38 -19 77 -53 93 -19 8 -32 6 -67 -10 -24 -12 -88 -33 -143 -47 -104
-27 -202 -54 -221 -62 -7 -2 -23 20 -37 50 -35 76 -62 93 -130 79 -50 -11 -53
-10 -75 16 -49 58 -55 62 -102 62 -38 0 -51 5 -75 30 -20 21 -38 30 -60 30
-26 0 -320 -54 -412 -75 -15 -4 -23 1 -28 14 -3 11 -19 34 -35 50 -21 23 -37
31 -63 31 -38 0 -347 -68 -707 -156 -221 -54 -332 -80 -379 -90 -16 -3 51 73
215 243 132 136 286 299 343 361 57 61 111 112 119 112 9 0 49 -13 91 -30 112
-43 427 -166 661 -258 113 -44 223 -85 244 -91 65 -17 112 3 142 62 14 26 138
386 379 1097 62 184 136 402 164 485 28 82 51 164 51 182 0 38 -44 94 -87 111
-36 15 -95 30 -813 211 -327 82 -622 157 -655 166 -212 56 -524 135 -536 135
-8 -1 -28 -7 -45 -14z m434 -192 c1607 -408 1579 -400 1587 -414 3 -5 -19 -80
-49 -167 -30 -87 -117 -340 -194 -563 -77 -223 -161 -463 -187 -535 -25 -71
-66 -184 -90 -250 -24 -66 -49 -137 -56 -157 -8 -23 -19 -38 -29 -38 -14 0
-499 193 -940 374 -127 52 -598 230 -823 311 -109 39 -202 76 -208 82 -7 7 17
75 79 224 50 118 135 322 190 454 55 132 123 292 150 355 27 63 78 181 112
263 60 142 63 147 91 147 16 0 181 -39 367 -86z m376 -2452 c18 -21 23 -18
-187 -77 l-57 -16 15 -29 c19 -36 24 -36 145 -5 52 14 104 25 116 25 21 0 74
-41 74 -58 0 -5 -56 -24 -124 -42 -68 -18 -129 -35 -135 -39 -8 -5 -8 -15 1
-38 l11 -30 134 34 c127 33 135 34 153 18 18 -16 46 -82 38 -90 -1 -2 -68 -21
-147 -44 -79 -22 -145 -42 -148 -44 -5 -6 24 -106 36 -126 8 -12 28 -9 123 17
62 17 126 32 143 34 27 3 30 0 36 -35 3 -22 2 -40 -5 -44 -5 -4 -66 -23 -135
-43 l-126 -36 4 -45 c1 -24 4 -45 6 -47 2 -2 65 13 140 33 75 21 137 36 139
34 10 -11 15 -45 8 -55 -15 -24 -360 -140 -373 -126 -4 4 -17 66 -29 137 -47
287 -135 515 -247 636 l-23 26 182 46 c101 25 190 46 199 47 9 0 23 -8 33 -18z
m546 -7 c7 -9 11 -17 9 -19 -2 -2 -78 -22 -169 -44 l-165 -40 -17 20 c-10 11
-18 23 -18 27 0 8 265 68 311 70 22 0 42 -5 49 -14z m198 -110 c22 -36 66
-165 77 -228 6 -32 5 -37 -12 -37 -16 0 -21 12 -30 66 -9 54 -29 103 -91 227
-2 4 5 7 16 7 12 0 28 -14 40 -35z m-1202 -60 c83 -90 154 -261 186 -445 23
-133 -9 -183 -143 -224 -179 -55 -309 -79 -424 -80 -128 -1 -159 10 -238 90
-86 87 -188 346 -191 483 l-1 55 135 39 c299 84 556 146 590 142 27 -3 47 -17
86 -60z m1058 49 c9 -8 16 -21 16 -28 0 -20 -315 -102 -326 -85 -11 18 -23 69
-16 69 4 1 63 14 132 30 146 33 173 35 194 14z m319 -39 c23 -59 30 -144 15
-163 -14 -16 -28 1 -28 34 0 12 -11 55 -24 95 -13 41 -22 78 -19 82 12 20 39
-2 56 -48z m496 40 c-14 -14 -79 -38 -79 -30 0 6 73 44 85 45 5 0 2 -7 -6 -15z
m-114 -35 c-3 -5 -21 -9 -38 -9 l-32 1 30 8 c43 11 47 11 40 0z m-624 -167 c5
-14 8 -31 6 -36 -3 -9 -270 -85 -316 -90 -9 -1 -17 11 -21 30 l-7 32 81 21
c45 12 113 32 151 45 90 30 94 30 106 -2z m166 -150 c4 -12 -46 -28 -56 -18
-8 8 30 36 43 32 5 -2 11 -8 13 -14z m-117 -122 c0 -5 -11 -16 -24 -25 -29
-18 -225 -84 -278 -93 -34 -5 -38 -3 -38 15 0 23 36 37 210 83 119 31 130 33
130 20z m-933 -429 c10 -16 3 -24 -52 -65 -91 -66 -97 -89 -57 -241 25 -96 27
-118 16 -123 -24 -9 -44 5 -60 42 -19 47 -46 176 -39 193 2 7 0 10 -5 7 -6 -3
-10 1 -10 11 0 14 -7 16 -48 11 -44 -5 -48 -4 -60 21 -21 45 -15 69 19 81 43
15 42 15 63 -23 12 -23 24 -33 39 -32 18 1 23 8 25 43 4 49 11 56 77 76 66 21
78 20 92 -1z m-372 -159 c4 -32 20 -107 36 -168 60 -233 57 -229 144 -223 33
3 54 3 47 0 -6 -2 -12 -12 -12 -22 0 -22 -19 -38 -84 -70 l-51 -25 1 -95 c1
-85 16 -242 45 -445 18 -130 91 -228 189 -255 52 -14 160 -17 237 -7 56 8 63
7 83 -13 25 -25 24 -29 -16 -34 -16 -2 -72 -18 -124 -35 -52 -18 -210 -61
-350 -97 -140 -35 -270 -69 -288 -75 -26 -9 -47 -7 -98 7 -35 9 -64 22 -64 28
0 23 62 196 71 196 4 0 24 -9 42 -19 19 -10 69 -27 111 -36 69 -16 90 -16 187
-4 60 7 109 16 109 21 0 4 -6 8 -14 8 -8 0 -39 24 -69 53 -71 67 -90 126 -112
348 -8 90 -22 234 -31 319 -18 187 -30 231 -90 335 -91 156 -104 186 -104 229
0 41 17 67 58 90 20 12 115 45 129 46 7 0 14 -24 18 -57z m-230 -494 c61 -27
85 -52 85 -90 0 -17 -3 -29 -7 -27 -122 55 -132 62 -133 101 0 20 2 37 4 37 2
0 25 -9 51 -21z m43 -204 c50 -23 52 -25 52 -64 0 -23 -2 -41 -3 -41 -2 0 -36
16 -75 35 -69 33 -72 36 -72 71 0 41 4 41 98 -1z m27 -189 c19 -13 25 -25 25
-52 0 -25 -4 -35 -12 -31 -7 3 -40 17 -73 31 -59 26 -61 28 -57 61 l4 33 44
-13 c25 -7 56 -21 69 -29z m928 -601 c2 -29 0 -30 -108 -62 -70 -21 -113 -29
-119 -23 -6 6 -6 10 -1 10 4 0 0 9 -10 20 -18 19 -17 20 21 35 21 9 48 20 59
25 11 6 45 19 75 29 63 21 79 15 83 -34z m-343 -150 c11 -37 17 -72 14 -76 -5
-8 -160 -59 -226 -74 -25 -6 -27 -4 -50 67 -12 40 -23 77 -23 82 0 12 248 85
258 76 4 -3 16 -37 27 -75z m-409 -118 c-10 -10 -292 -80 -298 -73 -3 2 -8 20
-12 38 l-8 34 81 18 c45 11 113 27 151 36 l70 18 11 -32 c6 -17 8 -34 5 -39z"/>
<path d="M6766 8170 c-43 -100 -75 -184 -72 -188 6 -5 146 -49 292 -92 l61
-18 69 165 c38 91 74 178 81 193 l12 27 -167 43 c-92 24 -174 45 -183 47 -13
4 -33 -36 -93 -177z"/>
<path d="M7206 8044 c-79 -189 -82 -203 -37 -204 7 0 80 -20 162 -45 82 -25
155 -45 162 -45 8 0 25 30 40 68 14 37 46 121 72 186 25 66 44 124 42 129 -3
10 -315 97 -347 97 -10 0 -41 -61 -94 -186z"/>
<path d="M7666 7927 c-42 -106 -76 -199 -76 -205 0 -7 7 -12 16 -12 9 0 97
-25 197 -55 99 -30 182 -54 183 -52 2 2 35 88 73 193 38 104 72 196 76 205 5
13 -4 19 -47 29 -29 7 -107 27 -173 45 -66 18 -132 35 -146 38 -27 7 -28 5
-103 -186z"/>
<path d="M8209 7952 c-11 -26 -38 -96 -59 -157 -21 -60 -47 -134 -59 -163
l-21 -52 23 -10 c35 -15 398 -122 402 -118 8 8 147 429 143 433 -2 2 -83 25
-179 50 -95 24 -187 49 -202 54 -27 9 -29 8 -48 -37z"/>
<path d="M6643 7883 c-4 -10 -37 -90 -74 -178 -38 -88 -65 -163 -61 -166 9 -8
344 -120 347 -117 11 15 154 372 150 376 -5 5 -334 102 -348 102 -4 0 -11 -8
-14 -17z"/>
<path d="M7057 7698 c-31 -72 -90 -215 -118 -286 -6 -16 -5 -24 4 -26 6 -3 90
-30 185 -61 96 -31 177 -53 182 -49 5 7 117 276 156 378 3 9 -8 17 -33 23 -32
9 -250 75 -319 97 -19 6 -25 -3 -57 -76z"/>
<path d="M7541 7619 c-107 -265 -149 -375 -143 -380 18 -15 395 -130 401 -123
11 13 151 382 151 398 0 10 -181 69 -382 124 -12 3 -21 -4 -27 -19z"/>
<path d="M8029 7463 c-6 -16 -31 -82 -56 -148 -25 -66 -56 -146 -70 -179 -13
-32 -23 -59 -21 -61 16 -12 423 -144 428 -138 4 4 31 76 59 158 29 83 62 176
73 208 12 31 19 60 16 62 -7 8 -388 125 -405 125 -7 0 -18 -12 -24 -27z"/>
<path d="M6465 7449 c-23 -36 -162 -385 -157 -391 15 -15 336 -128 343 -121 9
10 169 387 169 400 0 4 -73 32 -162 62 -90 29 -168 55 -175 57 -6 3 -14 0 -18
-7z"/>
<path d="M6891 7288 c-5 -13 -43 -105 -84 -205 -42 -101 -72 -185 -67 -188 22
-14 354 -135 362 -133 14 5 185 415 176 423 -5 5 -361 125 -370 125 -5 0 -12
-10 -17 -22z"/>
<path d="M7280 6953 c-45 -115 -84 -213 -87 -219 -2 -6 24 -23 59 -37 208 -86
339 -134 343 -127 3 4 27 67 55 139 27 72 66 169 85 215 19 47 35 89 35 94 0
5 -42 22 -92 37 -51 16 -140 46 -197 67 -57 21 -107 38 -111 38 -4 0 -45 -93
-90 -207z"/>
<path d="M7839 6963 c-6 -16 -35 -91 -64 -168 -30 -77 -65 -168 -79 -203 -23
-58 -23 -64 -8 -69 9 -4 105 -42 212 -84 150 -60 198 -75 206 -66 15 17 178
466 172 472 -6 6 -408 144 -421 145 -4 0 -12 -12 -18 -27z"/>
<path d="M6820 5604 c-183 -48 -238 -68 -247 -89 -8 -23 6 -65 23 -72 23 -9
459 110 470 128 3 5 0 25 -6 44 -10 31 -16 35 -43 34 -18 -1 -106 -21 -197
-45z"/>
<path d="M7020 5475 c-25 -7 -103 -29 -175 -49 -248 -69 -235 -64 -235 -89 1
-26 32 -67 53 -67 14 0 447 119 458 126 4 2 1 23 -6 46 -14 49 -27 54 -95 33z"/>
<path d="M7070 5295 c-25 -7 -115 -31 -200 -54 -152 -41 -210 -59 -210 -68 0
-2 7 -19 14 -38 11 -26 21 -35 38 -35 25 0 194 41 368 89 114 31 111 28 95 99
-6 26 -35 28 -105 7z"/>
<path d="M5584 8490 c-29 -11 -124 -118 -124 -140 0 -15 11 -20 56 -26 30 -3
85 -4 122 0 37 3 75 6 85 6 27 0 20 24 -27 87 -49 64 -80 85 -112 73z"/>
<path d="M5762 6875 c-22 -20 -91 -93 -154 -163 -62 -70 -212 -233 -334 -362
-121 -129 -315 -339 -430 -466 -115 -127 -267 -293 -338 -368 -76 -81 -125
-140 -120 -146 5 -4 140 -29 299 -54 160 -26 302 -50 316 -54 l25 -7 -256
-575 c-142 -316 -280 -622 -308 -680 -127 -264 -192 -406 -192 -418 0 -11 3
-11 18 0 48 34 315 335 830 938 53 61 172 204 443 531 103 123 241 282 308
354 66 71 121 135 121 141 0 47 -83 71 -500 140 -124 20 -226 38 -228 40 -2 1
127 264 287 584 160 321 291 587 291 591 0 20 -39 7 -78 -26z"/>
<path d="M1652 6147 c-12 -13 -22 -28 -22 -35 0 -15 -33 -32 -62 -32 -30 0
-72 -29 -104 -71 -34 -45 -28 -97 20 -181 300 -517 387 -616 630 -722 61 -27
83 -42 108 -77 33 -46 104 -130 176 -209 l42 -47 -20 -44 c-55 -123 5 -209
146 -209 l58 0 235 -238 c130 -131 278 -279 330 -328 l94 -89 -44 -9 c-24 -4
-118 -30 -209 -57 -597 -175 -731 -207 -900 -216 -120 -6 -165 3 -232 47 -58
39 -92 102 -90 171 2 106 88 222 367 499 172 171 186 187 181 215 -29 191 -48
255 -78 255 -37 0 -462 -434 -583 -596 -126 -167 -170 -333 -130 -487 19 -72
49 -119 114 -180 103 -96 232 -134 426 -124 174 9 256 30 790 202 160 51 333
106 385 121 125 35 136 41 151 76 7 16 30 57 51 90 32 49 37 63 26 75 -6 8
-66 61 -132 118 -173 147 -445 429 -555 575 -52 69 -95 125 -97 125 -1 0 -35
-21 -74 -47 -77 -51 -89 -55 -108 -36 -39 39 8 98 129 159 l77 38 34 -42 c18
-23 54 -69 78 -101 121 -160 376 -428 517 -542 33 -27 95 -77 137 -111 43 -35
80 -63 84 -63 4 0 25 15 46 33 l39 33 -44 35 c-24 19 -89 71 -144 115 -130
104 -402 374 -497 494 -110 140 -209 307 -207 350 0 8 3 10 5 4 3 -6 15 -9 27
-7 45 9 554 -174 799 -287 220 -102 470 -245 620 -355 l37 -28 53 17 c75 25
102 44 88 61 -12 14 -197 155 -269 205 -81 56 -396 230 -506 279 -66 30 -143
64 -172 77 -128 57 -271 113 -308 119 -125 23 -156 89 -92 195 38 64 107 120
147 120 27 0 28 -2 20 -29 -4 -15 -29 -49 -54 -74 -25 -26 -46 -51 -46 -57 0
-6 20 -19 45 -30 25 -11 78 -35 118 -54 40 -18 117 -53 172 -77 175 -75 466
-225 595 -306 133 -84 377 -253 447 -309 23 -19 45 -34 49 -34 10 0 31 28 54
72 l20 38 -37 34 c-240 216 -680 479 -1078 646 -93 39 -174 75 -179 81 -6 6
-6 13 2 21 18 18 15 79 -6 117 -34 63 -121 88 -195 57 -18 -7 -54 -31 -80 -54
l-47 -41 -102 40 c-136 52 -139 54 -168 96 -84 123 -465 343 -805 466 -38 14
-105 39 -148 56 -93 37 -117 38 -145 8z m118 -103 c0 5 126 -37 231 -77 99
-39 233 -102 302 -144 80 -48 178 -118 152 -108 -34 13 -85 5 -164 -25 -42
-17 -80 -30 -85 -30 -8 0 -70 53 -143 123 -18 17 -32 38 -30 46 1 11 -7 16
-28 17 -41 1 -86 26 -114 63 -13 17 -29 31 -34 31 -11 0 -62 32 -126 79 -29
22 -31 26 -15 32 11 3 27 2 37 -3 9 -5 17 -7 17 -4z m-148 -84 c21 -6 61 -31
90 -56 29 -24 69 -52 90 -61 31 -14 38 -22 38 -44 0 -29 23 -59 44 -59 7 0 29
-15 48 -32 66 -62 140 -123 159 -132 10 -5 19 -15 19 -23 0 -7 9 -22 21 -34
l20 -20 37 32 c41 37 125 76 180 85 93 15 193 -52 226 -154 29 -86 -13 -186
-102 -243 -45 -29 -51 -30 -137 -26 -220 10 -372 122 -564 418 -55 85 -129
196 -165 248 -77 111 -77 121 -4 101z m1143 -489 c44 -16 106 -41 137 -55 l57
-25 -19 -43 c-25 -55 -27 -156 -3 -201 12 -24 12 -29 2 -21 -8 7 -74 33 -146
59 -124 44 -146 56 -125 69 5 3 14 29 21 59 13 51 11 98 -4 160 -4 15 -6 27
-4 27 2 0 40 -13 84 -29z m-126 -352 c10 -11 28 -43 39 -70 l21 -49 -27 -17
c-15 -9 -43 -27 -63 -40 -20 -13 -42 -21 -50 -18 -19 9 -95 105 -103 133 -5
15 -3 22 6 22 7 0 42 14 78 30 36 16 68 30 72 30 4 0 16 -9 27 -21z"/>
<path d="M2322 5543 c-12 -2 -34 -20 -48 -39 -23 -30 -26 -41 -22 -94 5 -67
23 -94 77 -117 57 -24 139 5 167 59 26 51 14 112 -32 159 -39 40 -67 46 -142
32z m89 -83 c41 -22 13 -110 -34 -110 -53 0 -77 75 -35 104 26 19 42 20 69 6z"/>
<path d="M5548 4893 c-63 -76 -144 -170 -179 -208 -66 -72 -129 -149 -129
-158 0 -9 149 -29 173 -23 21 5 171 120 297 229 l44 38 -32 97 c-18 53 -35
112 -38 130 -4 17 -10 32 -14 32 -4 0 -59 -62 -122 -137z"/>
<path d="M8065 4751 c-43 -18 -195 -173 -230 -235 -60 -107 -79 -234 -50 -330
19 -62 19 -56 -10 -90 -14 -17 -25 -42 -25 -58 0 -20 -12 -44 -35 -71 -25 -29
-35 -50 -35 -74 0 -50 -80 -122 -197 -179 -100 -48 -114 -68 -68 -98 37 -24
73 -19 160 24 44 22 94 40 112 40 24 0 39 8 60 34 19 22 40 36 65 40 27 5 47
18 70 46 17 22 40 40 50 40 26 0 98 38 104 55 5 11 23 13 87 8 76 -5 87 -3
148 25 88 39 175 121 165 154 -20 62 -19 64 26 98 65 50 118 103 118 117 0 17
-40 53 -60 53 -9 0 -38 -20 -66 -45 -62 -57 -129 -105 -146 -105 -16 0 -148
107 -148 120 0 5 21 24 48 41 85 59 122 92 122 111 0 28 -30 68 -50 68 -11 0
-52 -26 -93 -59 -110 -88 -104 -86 -160 -35 -27 24 -52 44 -58 44 -38 0 54
110 105 126 25 8 76 53 76 69 0 10 -55 76 -62 74 -2 0 -12 -4 -23 -8z"/>
<path d="M5111 4354 c-54 -59 -60 -69 -44 -75 10 -4 77 -12 149 -18 391 -31
759 -174 975 -379 96 -90 125 -166 79 -207 -20 -18 -21 -18 -36 3 -61 88 -133
157 -232 224 -215 145 -558 251 -858 265 -72 3 -144 3 -159 -1 -25 -6 -155
-120 -155 -135 0 -3 98 -6 217 -6 198 -1 229 -3 333 -27 200 -45 389 -125 520
-221 76 -56 160 -145 190 -201 l25 -47 -20 -36 c-11 -20 -25 -38 -32 -40 -6
-2 -20 15 -31 39 -40 90 -182 212 -337 290 -71 36 -282 104 -400 129 -81 18
-141 22 -319 25 l-220 3 -35 -37 c-69 -71 -160 -176 -156 -180 2 -3 46 3 97
12 163 28 246 36 365 36 339 0 718 -122 850 -274 31 -35 73 -106 73 -123 0 -5
-48 -33 -106 -62 -486 -242 -1171 -248 -1638 -14 -193 97 -197 118 -60 296 49
62 92 140 108 195 7 21 5 20 -45 -10 -117 -72 -202 -175 -246 -297 -9 -22 -11
-20 -37 35 l-28 59 22 42 c37 69 135 153 279 238 88 52 141 90 153 110 24 40
52 114 46 121 -8 8 -231 -93 -310 -140 -116 -69 -258 -212 -258 -260 0 -36
-19 -13 -26 30 -11 74 9 119 85 195 107 107 246 186 446 254 l120 40 31 65
c18 36 35 75 38 87 l7 22 -58 -18 c-32 -10 -103 -31 -158 -47 -184 -51 -309
-108 -485 -223 -276 -178 -388 -420 -335 -722 16 -92 70 -299 111 -421 48
-147 168 -293 320 -391 80 -52 124 -73 345 -162 144 -58 164 -69 260 -147 144
-117 265 -205 319 -233 l45 -23 52 20 c51 19 113 66 113 86 0 6 -44 44 -97 86
l-96 76 139 0 c150 0 293 19 391 51 64 21 177 94 227 148 34 35 29 37 -40 16
-56 -16 -162 -38 -279 -57 -115 -19 -450 -15 -600 6 -275 39 -495 113 -695
234 -135 82 -196 145 -218 225 -6 21 -9 37 -8 37 2 0 16 -12 32 -26 124 -109
328 -216 550 -289 191 -62 333 -85 569 -92 304 -9 511 17 750 94 227 73 389
178 523 338 97 115 107 132 162 257 26 62 62 138 78 168 49 89 53 118 43 317
-7 162 -11 186 -34 236 -48 106 -175 206 -367 290 -234 101 -567 183 -826 202
l-90 7 -63 -68z m-1366 -823 c43 -78 164 -203 259 -265 146 -97 262 -148 456
-200 199 -53 267 -61 540 -60 275 0 344 7 536 54 379 93 648 253 851 505 l32
40 -5 -64 c-4 -51 -12 -75 -40 -117 -154 -231 -576 -440 -1029 -509 -583 -89
-1222 70 -1524 378 -139 143 -188 255 -161 369 l13 53 22 -65 c11 -36 34 -89
50 -119z m188 -494 c327 -214 800 -331 1208 -299 318 25 575 100 893 259 48
24 90 42 93 39 11 -10 -60 -86 -125 -136 -168 -126 -459 -224 -761 -257 -270
-28 -560 -3 -823 73 -300 86 -590 254 -687 398 -26 39 -61 120 -61 142 0 5 39
-29 88 -76 48 -47 126 -112 175 -143z"/>
<path d="M5076 1966 l-48 -34 70 -41 c68 -39 112 -84 112 -113 1 -35 15 -39
64 -17 26 11 50 27 53 35 15 39 -67 138 -148 179 -26 14 -50 25 -52 25 -2 0
-25 -15 -51 -34z"/>
<path d="M4997 1838 c-18 -4 -56 -16 -83 -26 -27 -11 -69 -23 -94 -27 -53 -9
-137 -47 -181 -84 l-31 -26 33 -53 32 -53 -101 -96 c-56 -53 -102 -100 -102
-105 0 -14 53 -57 72 -58 9 0 58 39 108 87 l91 86 50 -49 c27 -26 49 -56 49
-65 0 -14 -72 -101 -147 -177 -18 -19 -17 -24 18 -60 39 -40 47 -36 151 66
l77 75 51 -16 c33 -11 58 -13 73 -8 30 12 95 85 113 127 18 42 17 111 0 143
-12 22 -11 29 11 62 35 53 41 104 16 137 -11 15 -30 46 -42 69 -32 63 -61 72
-164 51z m-126 -323 c62 -22 109 -61 109 -91 0 -17 -5 -24 -19 -24 -26 0 -145
90 -149 113 -4 21 4 21 59 2z"/>
</g>
</svg>
