<?xml version="1.0" standalone="no"?>
<!DOCTYPE svg PUBLIC "-//W3C//DTD SVG 20010904//EN"
 "http://www.w3.org/TR/2001/REC-SVG-20010904/DTD/svg10.dtd">
<svg version="1.0" xmlns="http://www.w3.org/2000/svg"
 width="1024.000000pt" height="1024.000000pt" viewBox="0 0 1024.000000 1024.000000"
 preserveAspectRatio="xMidYMid meet">

<g transform="translate(0.000000,1024.000000) scale(0.100000,-0.100000)"
fill="#000000" stroke="none">
<path d="M4855 8614 c-115 -12 -329 -47 -428 -69 -736 -168 -1409 -607 -1874
-1220 -347 -460 -570 -1028 -644 -1650 -17 -142 -17 -556 0 -700 84 -714 388
-1321 913 -1830 271 -263 532 -447 878 -619 432 -215 854 -326 1350 -357 851
-53 1636 194 2290 719 52 42 157 137 232 211 l138 134 -46 86 c-127 239 -334
444 -576 571 -85 44 -50 49 56 8 63 -24 194 -110 266 -174 125 -111 230 -243
294 -372 30 -60 40 -71 51 -62 21 18 125 146 125 155 0 13 -72 127 -129 205
-160 218 -338 338 -603 405 -35 9 -71 18 -80 21 -14 4 -18 -1 -18 -23 0 -16
-6 -37 -13 -46 -11 -17 -16 -16 -71 3 -129 44 -144 12 -23 -49 26 -13 47 -27
47 -32 0 -11 -101 -109 -112 -109 -5 0 -37 15 -71 34 -117 65 -160 47 -55 -24
46 -31 64 -48 57 -56 -5 -6 -44 -21 -86 -34 -97 -29 -207 -24 -338 15 -177 51
-275 113 -296 185 -15 49 -1 73 77 133 30 23 60 55 67 71 47 113 61 130 137
176 88 53 188 148 215 205 32 68 25 118 -33 241 -51 108 -63 161 -43 193 8 12
18 7 55 -27 25 -23 55 -42 66 -42 20 0 20 1 4 38 -31 73 -34 84 -34 129 0 101
46 131 210 136 125 4 174 18 245 69 57 41 111 127 140 224 31 99 55 124 122
124 46 0 107 -25 134 -56 9 -11 33 -51 52 -89 29 -59 45 -78 96 -114 82 -57
95 -84 93 -192 -3 -117 13 -158 64 -159 25 0 51 27 80 83 25 50 50 59 64 22
18 -49 -24 -343 -63 -437 l-15 -35 -88 -8 c-103 -8 -310 -47 -369 -69 -56 -21
-27 -19 90 4 267 54 627 77 810 51 52 -7 41 -9 -80 -10 -298 -3 -533 -22 -646
-51 l-74 -19 80 6 c44 3 114 9 155 13 41 4 77 5 79 3 2 -1 -4 -21 -14 -43 -19
-43 -88 -113 -130 -132 -14 -6 -25 -14 -25 -18 0 -3 46 -11 103 -17 140 -16
309 -62 452 -122 66 -28 122 -47 126 -43 16 15 89 246 113 354 147 656 93
1301 -162 1943 -11 28 -29 73 -41 102 l-20 52 56 113 c66 135 116 283 133 397
15 101 8 262 -16 341 -42 141 -139 272 -238 319 -121 59 -339 27 -584 -85
l-81 -36 -119 103 c-439 382 -947 643 -1484 763 -256 58 -353 68 -663 71 -159
2 -308 1 -330 -1z m655 -349 c181 -20 277 -38 450 -85 325 -89 604 -213 871
-388 151 -100 342 -250 334 -263 -10 -15 -78 -29 -145 -29 -82 0 -193 24 -440
95 -107 30 -281 73 -386 95 -209 43 -242 54 -401 133 -211 106 -469 194 -673
228 -114 20 -405 17 -515 -4 -379 -74 -699 -275 -928 -582 -115 -155 -218
-383 -262 -580 -23 -100 -30 -377 -12 -488 l13 -89 -23 -9 c-13 -5 -28 -21
-34 -36 -18 -45 -23 -282 -9 -386 12 -90 110 -505 132 -560 15 -39 45 -57 95
-57 38 0 43 -3 49 -27 88 -390 227 -610 643 -1022 l176 -174 -130 93 c-71 52
-252 176 -401 277 l-272 183 -16 -40 c-38 -95 -178 -368 -207 -403 -50 -61
-163 -108 -479 -197 -80 -23 -151 -43 -158 -45 -30 -10 217 -306 392 -470 232
-217 494 -396 768 -524 393 -184 772 -280 1225 -312 154 -10 462 -7 553 7 24
3 30 2 20 -4 -20 -12 -258 -50 -385 -61 -277 -23 -566 -5 -859 54 -659 133
-1250 479 -1673 980 -452 534 -684 1285 -623 2010 34 391 134 749 306 1094 95
192 142 267 274 446 457 616 1208 1046 1980 1134 52 6 109 13 125 15 90 10
504 4 625 -9z m-307 -584 c211 -43 279 -70 375 -154 35 -30 93 -72 129 -94
140 -81 203 -173 203 -299 0 -63 6 -85 50 -188 92 -214 113 -336 65 -380 -15
-14 -22 -30 -20 -42 3 -10 12 -121 20 -247 11 -171 21 -255 41 -340 43 -177
39 -281 -19 -532 -67 -286 -61 -271 -110 -299 -47 -28 -79 -77 -150 -231 -102
-223 -147 -360 -147 -452 0 -102 26 -135 120 -148 56 -8 70 -20 70 -59 0 -46
32 -90 99 -136 92 -62 116 -111 85 -175 -30 -65 -166 -125 -329 -147 -105 -14
-157 -1 -175 43 -11 25 -11 52 0 143 13 117 7 171 -20 171 -8 0 -38 -34 -67
-75 -63 -90 -130 -155 -204 -195 -46 -25 -65 -30 -126 -30 -111 0 -111 9 -6
112 107 106 166 192 194 286 19 59 21 85 16 171 -10 175 -46 256 -107 242 -14
-3 -63 -9 -110 -12 -78 -6 -87 -4 -113 16 -34 27 -50 64 -67 155 -15 84 -33
121 -61 130 -11 4 -63 4 -115 0 -78 -6 -98 -5 -119 9 -69 46 9 111 178 147
117 25 210 50 220 59 13 12 -132 41 -252 51 -63 5 -131 14 -150 19 -54 15 -59
13 -80 -28 -29 -57 -96 -118 -148 -136 -58 -20 -69 -20 -77 0 -19 50 127 172
234 195 19 4 73 24 120 45 139 62 216 59 415 -16 55 -21 123 -46 150 -55 37
-13 68 -36 120 -90 105 -109 185 -125 185 -38 0 51 -24 89 -111 179 -44 45
-79 88 -79 96 0 8 22 43 50 77 39 49 56 82 80 159 20 65 42 113 68 146 64 84
102 138 102 146 0 18 -31 38 -69 44 -24 4 -72 0 -118 -10 -56 -11 -101 -14
-163 -9 -114 9 -122 1 -92 -93 12 -37 29 -101 38 -142 15 -68 21 -79 65 -121
27 -26 49 -52 49 -58 0 -18 -44 -41 -104 -52 -127 -23 -416 72 -416 137 0 23
-20 26 -85 14 -55 -10 -68 -10 -99 5 -36 17 -55 52 -41 75 11 18 83 50 112 50
15 0 52 -11 81 -25 49 -23 56 -24 82 -10 43 22 109 103 121 149 9 31 9 54 -1
96 -26 113 -24 195 9 340 39 172 47 181 187 215 155 38 194 32 316 -47 92 -60
151 -84 156 -63 5 22 -38 73 -88 105 -100 64 -119 105 -86 183 12 30 56 211
56 232 0 3 19 24 41 46 39 38 41 43 36 86 -4 41 -13 54 -95 137 -50 50 -116
120 -146 156 -122 142 -295 203 -646 230 -74 5 -209 10 -300 10 l-165 0 48 34
c57 41 179 81 302 101 135 21 447 14 588 -14z m2928 -61 c83 -43 119 -129 119
-286 0 -151 -59 -360 -148 -524 -103 -192 -96 -168 -78 -258 9 -43 16 -97 16
-120 0 -45 -20 -78 -164 -271 -42 -56 -78 -112 -81 -124 -3 -12 10 -80 29
-150 43 -154 63 -260 72 -364 6 -71 5 -80 -15 -97 -21 -19 -21 -19 -54 19
-133 158 -211 220 -343 275 -77 32 -77 32 -161 20 -46 -7 -108 -9 -138 -5
l-55 6 35 33 c34 33 45 56 25 56 -6 0 -56 -11 -113 -24 -56 -14 -120 -28 -142
-31 -131 -22 -245 -77 -318 -154 -87 -91 -125 -181 -152 -358 -18 -114 -31
-147 -65 -158 -47 -15 -162 101 -223 225 -30 62 -32 70 -31 175 2 192 33 351
139 719 63 222 69 269 55 435 -10 116 -9 151 4 240 20 129 20 191 2 261 -8 30
-12 58 -10 62 7 12 93 10 138 -3 55 -15 83 -47 92 -104 6 -42 15 -57 75 -116
81 -80 88 -104 70 -230 -14 -97 -5 -132 44 -191 38 -45 65 -103 65 -138 0 -18
-13 -62 -30 -100 -35 -81 -37 -103 -10 -165 32 -75 27 -129 -21 -210 -22 -38
-43 -82 -46 -97 -5 -24 -2 -28 17 -28 34 0 197 88 225 122 29 34 32 72 10 125
-19 46 -19 88 1 152 l17 51 -29 42 c-27 41 -29 48 -26 134 l3 90 -51 98 c-57
113 -64 162 -30 232 27 55 96 101 229 154 157 62 175 73 225 142 58 82 97 119
233 220 268 200 478 277 594 218z m-1762 -172 c76 -39 93 -60 69 -84 -15 -15
-22 -15 -62 -4 -25 7 -59 10 -76 8 -27 -4 -35 1 -71 48 -23 30 -38 58 -34 65
13 20 105 2 174 -33z m440 -221 c124 -50 156 -98 76 -113 -29 -5 -51 1 -123
36 -123 59 -151 89 -99 109 28 12 54 6 146 -32z m-2259 -741 c98 -18 186 -52
205 -79 19 -28 19 -110 0 -147 -20 -38 -60 -65 -142 -96 -115 -44 -175 -49
-257 -23 -60 20 -74 21 -113 11 -56 -15 -96 -15 -111 0 -47 47 51 134 211 189
37 12 67 26 67 30 0 4 -14 10 -31 14 -17 4 -40 16 -50 26 -16 16 -17 23 -7 44
20 45 94 55 228 31z m2467 -906 c7 -14 13 -51 13 -83 0 -119 -78 -199 -195
-201 -92 -1 -188 78 -166 137 15 38 39 41 67 8 33 -40 86 -57 125 -41 64 27
87 94 49 143 -22 28 -17 37 35 55 42 15 57 11 72 -18z m-3058 -374 c7 -9 23
-44 35 -78 25 -73 45 -88 124 -88 94 0 106 -16 146 -188 30 -129 34 -192 11
-192 -18 0 -229 187 -269 238 -66 86 -131 303 -100 335 8 8 36 -7 53 -27z
m2437 -673 c7 -70 6 -72 -24 -102 -27 -28 -37 -31 -89 -31 -66 0 -121 -24
-141 -61 -7 -15 -11 -54 -10 -100 2 -53 -1 -81 -11 -92 -15 -19 -56 -23 -67
-6 -4 8 -9 8 -17 0 -18 -18 -45 -12 -66 15 -17 21 -21 41 -21 96 0 107 -25
139 -118 153 -48 8 -69 31 -79 88 -6 41 -8 41 117 54 76 7 175 8 330 2 101 -5
128 8 156 71 l19 41 7 -28 c5 -15 11 -60 14 -100z m-2320 -555 c109 -73 253
-162 319 -198 66 -35 152 -83 192 -106 l72 -42 12 36 c6 20 15 40 18 45 4 4
18 -100 30 -232 13 -132 33 -319 45 -416 13 -97 20 -177 17 -179 -3 -2 -33 9
-67 24 -56 26 -61 31 -67 66 -4 22 -7 67 -7 102 0 95 -10 94 -143 -11 -34 -27
-37 -28 -66 -13 -55 29 -63 15 159 253 38 41 39 44 25 70 -10 18 -15 22 -15
11 0 -11 -13 -21 -37 -27 -33 -9 -42 -8 -77 15 -21 14 -58 44 -83 66 -24 23
-46 39 -49 36 -2 -3 -7 -30 -11 -59 -6 -55 -25 -89 -49 -89 -8 0 -27 12 -43
28 l-29 27 26 104 c31 121 45 136 95 107 17 -11 75 -43 127 -72 52 -29 101
-58 109 -65 12 -11 13 -7 7 25 -13 67 -24 84 -73 112 -211 119 -437 261 -543
341 -136 103 -300 275 -300 314 0 14 24 0 104 -61 57 -43 193 -139 302 -212z
m-585 -28 l41 -58 65 24 c36 13 82 33 104 44 39 20 39 20 59 0 18 -18 37 -67
29 -74 -6 -6 -288 -106 -297 -106 -9 0 -146 189 -141 194 14 12 85 43 91 40 4
-3 26 -31 49 -64z m3813 -65 c158 -78 302 -211 370 -342 25 -49 13 -40 -28 22
-41 63 -136 159 -211 216 -27 20 -104 65 -170 99 -80 40 -109 59 -86 55 18 -3
75 -25 125 -50z m-3237 -82 c14 -16 39 -57 56 -92 25 -54 29 -69 21 -99 -8
-32 -19 -42 -84 -79 -99 -55 -118 -55 -170 5 -45 51 -63 82 -74 124 -5 22 -1
31 18 43 36 24 67 6 95 -54 20 -42 28 -50 45 -45 12 3 31 6 44 7 12 0 22 3 22
5 0 2 -5 23 -11 48 -11 43 -22 54 -34 34 -11 -19 -43 -10 -65 17 -30 39 -23
74 20 95 51 26 86 23 117 -9z m2881 -64 c189 -130 312 -330 347 -568 15 -94
20 -209 10 -199 -3 3 -10 43 -15 89 -35 281 -167 509 -396 685 -125 96 -88 91
54 -7z m-744 -45 c317 -86 356 -105 356 -172 0 -31 -8 -44 -62 -97 -113 -108
-240 -155 -422 -155 -118 0 -203 18 -285 59 -78 40 -117 74 -151 135 -31 53
-41 138 -19 152 14 8 408 111 433 113 10 1 78 -15 150 -35z"/>
<path d="M7997 7460 c-59 -18 -102 -42 -181 -99 -42 -30 -46 -36 -30 -42 10
-4 36 -8 57 -8 20 -1 37 -5 37 -9 0 -5 -26 -19 -57 -32 -32 -13 -101 -44 -153
-69 -90 -42 -93 -45 -65 -51 17 -4 70 -8 120 -9 55 -1 85 -5 80 -10 -6 -6 -57
-30 -115 -54 -58 -24 -136 -60 -175 -80 -56 -29 -65 -36 -45 -38 14 -1 76 -4
139 -8 l113 -6 -123 -49 c-175 -70 -226 -94 -208 -100 27 -10 133 -26 166 -26
57 0 36 -17 -49 -39 -144 -38 -133 -30 -133 -94 0 -67 19 -93 75 -102 49 -8
98 -60 160 -168 44 -78 69 -97 106 -83 12 5 15 18 12 57 l-3 52 69 22 c91 30
110 50 111 117 l0 53 -38 9 -37 10 62 35 c34 20 63 42 65 48 3 8 -14 17 -41
24 -25 6 -46 14 -46 16 0 3 33 40 74 84 126 133 196 313 196 501 0 148 -33
182 -143 148z"/>
<path d="M6454 6985 c-12 -29 6 -61 63 -118 59 -58 72 -66 74 -44 5 54 -21
108 -72 152 -35 28 -57 32 -65 10z"/>
<path d="M6460 6691 c0 -22 4 -51 10 -65 39 -104 29 -202 -38 -371 -69 -173
-64 -221 15 -131 46 53 129 191 154 257 23 61 24 153 3 205 -28 67 -91 144
-119 144 -22 0 -25 -4 -25 -39z"/>
<path d="M7112 6178 c-15 -15 -15 -37 0 -135 16 -113 65 -152 128 -103 43 34
74 26 140 -35 33 -30 67 -55 75 -55 22 0 19 61 -6 114 -29 63 -58 85 -120 95
-43 7 -58 15 -80 42 -58 71 -78 89 -101 89 -13 0 -29 -5 -36 -12z"/>
<path d="M6560 6004 c-87 -49 -119 -94 -140 -199 -17 -84 -42 -127 -100 -176
-126 -106 -33 -141 120 -44 50 32 75 83 85 175 8 73 14 87 79 183 62 92 47
113 -44 61z"/>
<path d="M4591 3424 c0 -11 3 -14 6 -6 3 7 2 16 -1 19 -3 4 -6 -2 -5 -13z"/>
<path d="M7338 5382 c-33 -21 -60 -57 -77 -99 -14 -34 -114 -124 -170 -152
-20 -10 -65 -21 -101 -24 -78 -7 -130 -24 -130 -42 0 -32 190 -81 276 -72 68
7 106 28 141 76 15 22 56 58 91 81 82 53 104 89 99 157 -2 32 -11 60 -22 73
-23 25 -71 26 -107 2z"/>
<path d="M7540 4917 c-19 -6 -58 -35 -87 -64 -71 -70 -96 -76 -224 -51 -108
20 -163 18 -173 -8 -9 -24 1 -33 64 -63 31 -15 79 -43 106 -63 66 -47 72 -48
140 -32 32 7 92 14 132 14 122 0 161 37 170 162 4 61 3 68 -21 92 -28 28 -51
31 -107 13z"/>
<path d="M6950 4568 c33 -51 59 -97 57 -102 -5 -14 -194 -96 -241 -104 -65
-12 -79 -72 -17 -72 23 0 36 8 53 31 24 33 93 69 249 131 43 17 79 34 79 38 0
19 -206 170 -231 170 -5 0 19 -42 51 -92z"/>
<path d="M7107 4446 c-32 -12 -58 -26 -57 -31 1 -6 7 -29 13 -53 l11 -43 51 7
c27 4 90 12 140 18 88 12 89 12 57 25 -18 8 -56 30 -85 50 -28 20 -56 40 -62
43 -5 3 -36 -4 -68 -16z"/>
<path d="M6574 4305 c-10 -25 22 -53 44 -39 9 6 17 20 17 30 0 25 -52 33 -61
9z"/>
<path d="M7230 4317 c-3 -3 -50 -8 -104 -11 -137 -8 -176 -20 -176 -52 0 -44
43 -40 97 9 27 24 36 18 36 -22 l0 -28 101 -6 c291 -18 592 -157 823 -380 l81
-79 36 64 c39 71 130 261 140 294 6 20 -4 26 -101 67 -240 101 -417 137 -708
144 -121 3 -222 3 -225 0z"/>
<path d="M6866 4217 c-23 -17 -13 -57 14 -57 26 0 75 44 66 58 -10 16 -58 15
-80 -1z"/>
<path d="M6740 4179 c-31 -13 -42 -30 -28 -46 15 -19 72 -16 99 5 46 38 -4 67
-71 41z"/>
<path d="M7080 4159 c0 -17 -4 -38 -10 -48 -8 -16 -3 -19 59 -25 86 -8 186
-38 276 -83 199 -101 336 -244 447 -465 22 -43 43 -76 48 -73 12 7 160 232
160 243 0 17 -164 165 -242 219 -174 121 -386 205 -612 243 -65 11 -120 20
-122 20 -2 0 -4 -14 -4 -31z"/>
<path d="M6540 4135 c-31 -37 51 -62 98 -29 12 8 22 22 22 30 0 20 -103 20
-120 -1z"/>
<path d="M6724 3975 c-9 -22 14 -45 43 -45 35 0 63 18 63 40 0 17 -7 20 -50
20 -36 0 -52 -4 -56 -15z"/>
<path d="M6507 3973 c-4 -3 -7 -14 -7 -24 0 -36 112 -40 118 -5 2 10 -2 22
-10 27 -15 10 -92 12 -101 2z"/>
</g>
</svg>
