<?xml version="1.0" standalone="no"?>
<!DOCTYPE svg PUBLIC "-//W3C//DTD SVG 20010904//EN"
 "http://www.w3.org/TR/2001/REC-SVG-20010904/DTD/svg10.dtd">
<svg version="1.0" xmlns="http://www.w3.org/2000/svg"
 width="512.000000pt" height="512.000000pt" viewBox="0 0 512.000000 512.000000"
 preserveAspectRatio="xMidYMid meet">

<g transform="translate(0.000000,512.000000) scale(0.100000,-0.100000)"
fill="#000000" stroke="none">
<path d="M1033 5101 c-50 -17 -116 -60 -139 -90 -7 -9 -39 -17 -86 -22 -126
-12 -212 -71 -262 -178 -17 -37 -21 -65 -21 -147 l0 -101 -45 -12 c-134 -35
-249 -189 -254 -339 -1 -49 2 -56 32 -83 36 -33 67 -36 127 -14 48 17 163 18
225 2 39 -11 45 -16 42 -36 -4 -37 -47 -117 -97 -178 -72 -88 -80 -108 -80
-198 0 -63 5 -89 22 -121 39 -73 91 -115 186 -147 16 -6 15 -11 -9 -59 -15
-29 -67 -120 -117 -203 -49 -82 -103 -181 -119 -220 -167 -401 -49 -881 281
-1147 177 -143 361 -231 716 -343 191 -60 262 -92 319 -146 65 -59 134 -166
184 -284 24 -55 52 -119 64 -143 19 -37 20 -52 14 -135 -12 -156 -45 -356 -83
-489 -11 -40 -21 -58 -32 -58 -9 0 -84 23 -168 52 l-152 52 -53 -37 c-29 -20
-80 -58 -113 -84 -51 -42 -60 -54 -63 -85 -2 -27 3 -43 17 -57 35 -35 70 -27
156 38 l79 59 79 -29 c43 -16 124 -41 180 -56 90 -24 119 -28 247 -27 111 1
167 6 239 22 l94 22 43 -40 c51 -47 84 -51 119 -15 44 43 32 75 -64 178 -40
42 -66 46 -145 22 -27 -8 -52 -15 -57 -15 -4 0 11 51 33 113 72 204 118 432
118 587 0 36 7 87 15 114 20 65 19 198 -1 267 -9 30 -34 89 -55 132 -50 100
-50 113 4 137 58 27 74 25 155 -15 92 -47 158 -107 196 -181 54 -104 135 -119
205 -38 36 41 64 92 81 152 7 23 17 42 22 42 20 0 109 -102 137 -158 37 -73
61 -92 120 -92 42 0 49 4 96 54 152 162 200 357 149 604 -7 36 -12 33 83 36
45 1 57 6 84 33 27 26 32 39 31 75 -1 85 -88 294 -173 420 -22 31 -39 59 -39
62 0 7 55 -3 115 -21 100 -30 176 -82 282 -189 97 -99 104 -104 143 -104 35 0
48 6 77 35 l36 36 -7 82 c-12 159 -64 316 -146 441 l-49 75 54 -24 c76 -33
177 -100 261 -173 81 -70 107 -79 157 -59 61 26 72 55 71 187 -3 244 -78 426
-248 596 -50 50 -104 100 -121 112 l-30 21 70 1 c135 0 268 -48 391 -140 83
-63 96 -70 136 -70 73 0 113 59 103 154 -59 562 -392 969 -904 1102 -124 32
-164 32 -190 -2 -12 -15 -21 -37 -21 -49 0 -43 30 -63 126 -84 212 -45 379
-136 529 -286 150 -150 231 -300 281 -515 13 -58 24 -109 24 -113 0 -5 -15 1
-32 13 -132 88 -300 140 -447 140 -177 0 -251 -33 -267 -116 -11 -59 13 -94
108 -157 163 -108 274 -254 317 -417 18 -72 34 -180 26 -180 -2 0 -37 24 -78
53 -134 97 -336 187 -417 187 -73 0 -130 -79 -110 -151 5 -17 26 -50 47 -72
77 -83 147 -204 177 -306 24 -83 21 -87 -36 -36 -70 63 -167 118 -263 151 -65
22 -103 27 -204 31 -68 2 -127 6 -132 9 -16 10 -9 19 20 31 54 20 81 98 52
152 -21 39 -216 122 -353 150 l-54 12 -12 57 c-58 280 -19 556 104 749 41 64
45 114 12 137 -30 21 -71 20 -97 -1 -57 -49 -139 -233 -173 -392 -25 -116 -28
-335 -6 -454 8 -42 12 -79 10 -82 -3 -3 -35 -5 -71 -5 -36 -1 -97 -7 -136 -14
-38 -8 -72 -13 -73 -11 -13 12 -32 215 -32 338 0 553 314 970 825 1093 106 25
135 45 135 91 0 13 -12 35 -26 50 -23 23 -31 25 -75 19 -85 -11 -220 -55 -324
-105 -343 -166 -574 -463 -660 -851 -26 -116 -31 -407 -11 -548 9 -62 19 -118
22 -125 3 -9 -26 -25 -86 -50 -153 -62 -201 -53 -433 83 -107 62 -144 97 -214
200 -72 107 -135 264 -163 408 -9 46 -19 68 -38 82 -41 33 -84 25 -107 -21
-13 -25 -13 -37 0 -101 23 -108 71 -246 119 -340 l43 -84 -117 4 c-141 5 -243
-13 -348 -63 -141 -66 -251 -176 -314 -312 -25 -53 -33 -84 -36 -149 -9 -161
53 -288 218 -455 264 -266 695 -462 1207 -550 l72 -12 -21 -30 c-13 -18 -23
-51 -26 -83 -4 -48 1 -64 49 -166 l54 -113 0 -100 c0 -83 -4 -109 -23 -151
l-23 -51 -76 -6 c-42 -3 -84 -2 -94 3 -9 6 -29 40 -43 78 -84 219 -214 397
-346 475 -25 14 -164 66 -310 115 -392 133 -531 204 -679 346 -226 217 -313
540 -226 840 30 102 52 148 142 294 96 155 187 341 235 483 42 122 42 126 43
264 0 131 -2 144 -26 196 -15 31 -44 75 -64 98 -38 41 -38 43 -36 119 2 84
-13 142 -55 205 -24 37 -25 39 -7 52 56 43 230 68 312 45 59 -16 131 -85 174
-168 36 -69 82 -203 112 -330 19 -78 43 -112 81 -112 36 0 54 11 69 41 14 26
12 39 -20 164 -19 75 -48 168 -65 207 -16 40 -29 72 -27 73 1 1 23 9 49 19 25
9 67 35 92 58 90 78 127 176 127 336 0 124 -20 177 -79 214 -33 20 -51 23
-157 24 -73 1 -145 8 -185 17 -84 21 -162 21 -227 -2z m214 -148 c37 -9 115
-17 173 -18 l105 -2 3 -81 c2 -45 -2 -99 -8 -120 -21 -79 -79 -136 -153 -152
-28 -5 -38 -1 -77 33 -70 62 -156 98 -248 104 -133 9 -216 -10 -364 -85 -5 -2
-8 18 -8 45 1 100 65 163 168 163 65 0 108 17 159 64 75 68 130 79 250 49z
m-584 -582 c30 -54 38 -127 13 -118 -42 16 -141 28 -209 25 -42 -1 -77 -2 -77
0 0 13 33 62 57 84 39 37 89 57 144 58 45 0 46 -1 72 -49z m153 -448 c10 -70
-1 -181 -26 -267 l-24 -78 -39 5 c-70 9 -120 82 -103 150 3 12 30 53 60 91 30
38 65 93 78 122 20 46 25 51 35 37 7 -8 15 -36 19 -60z m889 -917 c44 -14 116
-46 160 -71 131 -74 247 -132 299 -149 27 -9 88 -42 135 -73 235 -152 428
-362 552 -597 39 -74 56 -97 76 -102 39 -10 75 7 89 42 12 29 10 38 -27 115
-92 190 -274 413 -458 561 -42 33 -77 64 -79 68 -3 9 120 58 223 89 171 51
357 46 546 -15 l46 -15 -33 -33 c-27 -27 -34 -42 -34 -73 0 -50 18 -74 88
-120 81 -53 181 -155 240 -245 47 -72 102 -190 117 -249 6 -25 5 -26 -50 -32
-71 -7 -115 -33 -138 -79 -18 -36 -18 -39 4 -115 46 -163 19 -340 -69 -445
-13 -16 -18 -12 -57 40 -68 94 -207 202 -258 202 -36 0 -83 -25 -97 -51 -6
-11 -16 -48 -21 -81 -5 -34 -16 -72 -22 -85 l-13 -23 -29 40 c-98 133 -319
235 -646 300 -308 61 -476 113 -689 216 -315 152 -549 364 -590 534 -29 120 5
217 114 326 120 119 221 156 416 150 101 -3 141 -9 205 -30z m625 -2230 c0
-33 -36 -206 -61 -291 -11 -38 -42 -123 -67 -187 l-46 -118 -43 0 c-49 0 -50
3 -28 73 27 88 85 448 85 524 0 12 35 18 118 21 38 2 42 0 42 -22z"/>
<path d="M960 4400 c-25 -25 -26 -71 -1 -101 16 -20 29 -24 71 -24 42 0 55 4
71 24 26 32 24 73 -4 99 -31 30 -108 31 -137 2z"/>
</g>
</svg>
