<?xml version="1.0" standalone="no"?>
<!DOCTYPE svg PUBLIC "-//W3C//DTD SVG 20010904//EN"
 "http://www.w3.org/TR/2001/REC-SVG-20010904/DTD/svg10.dtd">
<svg version="1.0" xmlns="http://www.w3.org/2000/svg"
 width="512.000000pt" height="512.000000pt" viewBox="0 0 512.000000 512.000000"
 preserveAspectRatio="xMidYMid meet">

<g transform="translate(0.000000,512.000000) scale(0.100000,-0.100000)"
fill="#000000" stroke="none">
<path d="M1180 4668 c-53 -29 -93 -88 -114 -171 -12 -46 -25 -67 -64 -105 -74
-73 -90 -169 -48 -289 l14 -40 -75 -49 c-98 -64 -193 -164 -193 -204 0 -70 34
-90 157 -90 48 0 105 -3 125 -6 38 -7 55 -28 40 -48 -21 -26 -52 -130 -52
-174 0 -58 29 -110 70 -125 22 -9 30 -18 30 -37 0 -85 32 -582 41 -643 16
-107 54 -254 89 -343 126 -317 373 -541 720 -651 l89 -28 36 -94 c19 -51 35
-100 35 -108 0 -23 -37 -86 -67 -114 -61 -57 -131 -78 -296 -89 -109 -7 -122
-10 -160 -37 -67 -46 -92 -102 -92 -200 0 -72 3 -84 24 -107 14 -15 42 -31 62
-38 34 -10 44 -8 91 15 45 22 62 26 106 20 49 -5 56 -10 117 -78 65 -73 65
-73 65 -134 0 -69 13 -104 47 -127 31 -20 102 -20 141 0 21 11 44 14 82 9 49
-6 53 -8 70 -47 24 -57 81 -106 123 -106 43 0 94 33 113 72 12 25 34 42 93 71
83 40 112 45 130 23 19 -22 92 -53 146 -61 27 -5 65 -17 84 -29 25 -14 53 -21
93 -21 50 0 62 4 85 27 22 23 28 38 31 91 7 109 -50 202 -157 257 -57 29 -75
60 -68 118 10 84 43 156 84 183 63 41 83 81 83 165 0 105 6 115 103 168 220
119 390 295 506 521 40 78 43 81 113 117 98 50 183 123 275 232 97 115 172
231 228 349 65 139 76 188 82 382 5 166 4 171 -19 204 -12 19 -40 43 -60 54
-36 18 -37 20 -24 45 22 43 38 137 30 179 -14 77 -73 157 -121 165 l-22 3 20
45 c34 74 69 209 69 262 0 113 -57 200 -158 239 -47 19 -76 23 -167 23 -95 -1
-120 -4 -185 -29 -237 -88 -442 -226 -645 -436 -144 -148 -280 -331 -352 -473
l-25 -49 -60 7 c-34 3 -69 6 -79 6 -11 0 -119 124 -300 348 -155 191 -309 377
-341 414 l-58 66 0 149 c0 176 -13 235 -67 294 -65 72 -152 75 -277 10 l-72
-38 -24 19 c-50 40 -144 80 -199 85 -46 4 -64 0 -101 -19z m165 -174 c22 -13
53 -34 68 -47 23 -17 41 -22 91 -22 55 0 70 5 123 38 34 20 72 37 87 37 21 0
27 -7 35 -37 12 -43 14 -87 5 -131 l-6 -30 -53 23 c-183 81 -364 42 -527 -112
-58 -56 -61 -56 -72 -11 -10 41 8 75 48 88 49 16 57 30 72 121 19 123 40 136
129 83z m314 -334 c96 -51 168 -128 446 -469 l256 -315 -53 -13 c-180 -46
-299 -224 -345 -516 l-8 -48 -65 42 c-36 23 -91 66 -124 95 -104 94 -189 105
-250 33 -42 -49 -51 -100 -49 -259 3 -176 -1 -210 -27 -210 -10 0 -47 19 -82
43 l-63 42 -17 100 c-16 97 -45 571 -36 580 3 3 19 0 37 -6 52 -18 153 -6 205
25 221 129 182 455 -64 543 -46 16 -51 21 -76 81 -15 36 -42 86 -60 112 l-33
47 32 30 c86 80 146 105 243 100 56 -3 83 -10 133 -37z m2416 -25 c61 -25 66
-71 23 -205 -29 -90 -60 -150 -108 -205 -49 -57 -54 -102 -15 -141 25 -25 29
-25 103 -19 42 4 82 8 87 9 6 0 11 -16 13 -36 3 -39 -18 -90 -69 -165 -54 -78
-30 -142 56 -150 101 -9 93 3 91 -130 -3 -134 -20 -211 -71 -318 -112 -233
-358 -498 -484 -521 -20 -4 -61 -19 -91 -34 -126 -63 -302 -107 -371 -93 -19
3 -45 14 -58 25 -31 23 -61 23 -184 -4 -136 -29 -380 -32 -477 -5 -167 45
-296 147 -363 287 -48 102 -63 182 -49 268 6 37 18 111 26 164 28 173 92 289
180 329 49 22 138 25 192 5 62 -21 310 -42 337 -27 12 6 39 44 59 84 98 190
255 396 421 553 147 139 292 234 467 305 82 33 106 39 173 39 46 0 92 -6 112
-15z m-2898 -257 c17 -35 36 -81 43 -103 17 -55 34 -71 88 -85 77 -19 127 -54
147 -102 30 -75 -2 -147 -74 -169 -32 -10 -45 -8 -82 8 -24 11 -64 36 -87 56
-24 21 -50 37 -58 37 -20 0 -18 12 18 85 l32 65 -27 83 c-15 47 -36 92 -46
101 -12 11 -43 20 -81 23 -33 3 -59 8 -56 10 9 9 122 53 137 53 10 0 28 -24
46 -62z m504 -1084 c18 -20 85 -68 147 -107 95 -60 112 -75 112 -96 0 -53 32
-159 72 -239 72 -147 210 -272 368 -335 120 -48 215 -60 400 -54 91 3 198 13
239 21 70 15 76 14 135 -5 74 -26 189 -22 303 9 l73 20 -42 -59 c-91 -131
-236 -250 -418 -345 -48 -25 -59 -37 -88 -95 -27 -53 -34 -79 -36 -135 l-3
-69 -29 3 c-16 2 -55 15 -88 30 -55 25 -61 32 -110 117 -59 103 -88 125 -138
104 -16 -6 -36 -23 -45 -35 -38 -59 -130 -81 -196 -48 -86 44 -112 77 -157
200 -49 132 -36 121 -204 173 -248 78 -435 217 -553 413 -51 84 -51 84 7 80
67 -5 93 2 134 38 55 48 66 98 66 287 0 90 4 163 8 163 4 0 24 -16 43 -36z
m562 -1524 c4 -40 19 -106 32 -147 16 -52 20 -75 12 -78 -7 -2 -59 -5 -117 -8
-82 -3 -114 -8 -147 -25 -23 -12 -45 -27 -49 -33 -4 -7 -24 8 -54 42 -52 59
-30 53 -215 58 -94 3 -57 19 45 20 93 2 195 22 266 55 62 28 152 109 180 161
10 19 23 34 29 32 5 -2 14 -36 18 -77z m360 53 c15 -30 11 -57 -16 -109 -18
-36 -101 -114 -120 -114 -15 0 -45 80 -54 146 l-5 40 53 13 c30 6 70 21 89 31
19 11 36 19 37 20 1 0 9 -12 16 -27z m200 -155 c16 -12 15 -17 -3 -76 -22 -71
-26 -165 -9 -223 15 -49 61 -105 118 -140 l45 -29 -46 0 c-40 0 -53 6 -94 41
l-48 41 -68 -4 c-54 -4 -84 -13 -138 -42 -38 -20 -77 -36 -85 -36 -9 0 -28 -6
-43 -14 -27 -14 -28 -13 -40 14 -16 36 -55 52 -118 48 -27 -1 -75 -1 -106 0
l-58 2 0 34 c0 19 -4 38 -10 41 -5 3 -10 14 -10 24 0 23 36 31 137 31 221 0
425 102 503 253 26 48 43 57 73 35z"/>
<path d="M1504 4086 c-51 -23 -64 -95 -22 -132 31 -29 114 -26 139 5 21 25 25
71 9 101 -9 17 -59 40 -84 40 -6 -1 -25 -7 -42 -14z"/>
</g>
</svg>
