<?xml version="1.0" standalone="no"?>
<!DOCTYPE svg PUBLIC "-//W3C//DTD SVG 20010904//EN"
 "http://www.w3.org/TR/2001/REC-SVG-20010904/DTD/svg10.dtd">
<svg version="1.0" xmlns="http://www.w3.org/2000/svg"
 width="1127.000000pt" height="289.000000pt" viewBox="0 0 1127.000000 289.000000"
 preserveAspectRatio="xMidYMid meet">

<g transform="translate(0.000000,289.000000) scale(0.100000,-0.100000)"
fill="#000000" stroke="none">
<path d="M8021 2179 l-33 -47 -77 5 c-67 5 -84 2 -127 -18 -48 -22 -48 -23
-20 -27 28 -3 26 -5 -35 -40 -53 -30 -74 -36 -122 -37 l-59 0 27 -22 c14 -13
36 -23 48 -24 12 0 -5 -9 -39 -20 -33 -10 -69 -28 -79 -39 -17 -19 -17 -19 34
-13 28 3 51 3 51 0 0 -3 -22 -13 -49 -22 -44 -14 -76 -39 -95 -72 -6 -10 -1
-11 19 -3 15 6 36 10 48 10 20 0 20 -1 5 -16 -9 -9 -40 -24 -69 -34 l-54 -17
35 -16 35 -15 -40 -18 c-56 -26 -187 -24 -349 5 -148 27 -187 23 -289 -30
l-58 -30 -83 21 c-126 31 -148 25 -299 -85 -69 -49 -117 -60 -175 -41 -25 9
-47 14 -49 12 -2 -2 9 -18 24 -36 l28 -33 -30 7 c-17 4 -46 18 -66 32 -19 13
-38 24 -42 24 -9 0 19 -88 35 -107 7 -9 31 -25 53 -35 l40 -19 -40 5 -40 5 32
-29 c20 -18 51 -32 88 -40 98 -20 174 7 244 86 22 26 41 44 41 40 0 -15 -34
-73 -58 -98 l-26 -28 24 0 c46 0 89 41 127 120 39 83 77 130 104 130 17 0 17
-3 3 -35 -7 -19 -14 -61 -14 -93 0 -70 27 -129 100 -220 61 -75 80 -116 80
-177 0 -36 -3 -45 -17 -45 -10 0 -25 -5 -33 -11 -12 -8 -8 -9 15 -7 19 2 30
-1 29 -9 -1 -7 -2 -25 -3 -40 -1 -22 -11 -33 -47 -51 l-46 -23 -25 23 c-24 22
-24 21 3 -19 16 -23 35 -42 43 -43 8 0 32 -19 54 -42 34 -36 37 -37 24 -12 -8
16 -12 36 -10 44 4 12 2 12 -5 2 -7 -10 -15 -9 -40 5 -18 10 -32 21 -32 24 0
3 14 16 31 28 25 19 33 21 40 10 5 -8 9 -19 9 -26 0 -7 7 -10 16 -6 15 5 15 7
0 15 -9 5 -16 14 -16 20 0 38 108 -106 160 -214 45 -92 48 -110 22 -136 -25
-25 -48 -151 -33 -180 19 -36 38 -25 62 34 23 54 30 61 87 78 16 6 22 3 22 -8
0 -9 18 -43 41 -76 36 -54 44 -60 75 -60 19 0 34 3 34 7 0 4 -12 24 -26 44
-16 23 -24 47 -22 64 l3 27 125 1 c69 0 144 -4 168 -8 l43 -8 -21 -19 c-31
-29 -22 -53 19 -51 34 1 69 25 80 55 5 15 12 13 50 -17 44 -35 74 -44 86 -25
7 11 -32 75 -70 113 -16 15 -26 29 -24 30 2 2 25 11 51 21 26 9 63 28 82 41
18 13 43 26 54 30 42 13 40 105 -1 105 -30 0 -40 8 -70 57 -14 23 -31 44 -37
48 -23 14 -7 25 38 27 42 1 43 2 10 5 l-36 4 33 32 c18 18 36 46 40 63 5 27
-1 39 -40 88 -25 31 -42 56 -37 56 21 0 139 -43 153 -57 23 -19 37 -82 40
-175 3 -61 0 -80 -14 -96 -9 -10 -17 -24 -17 -30 0 -7 -4 -12 -9 -12 -6 0 -6
-12 0 -30 6 -16 14 -28 19 -25 4 3 13 -2 20 -10 15 -18 37 -19 43 -2 2 6 14
-10 25 -37 12 -27 38 -64 58 -82 l35 -34 -26 -10 c-33 -13 -45 -13 -45 0 0 5
-14 17 -31 25 -16 9 -34 26 -39 38 -6 16 -9 17 -9 5 -1 -18 20 -42 50 -58 10
-6 19 -19 19 -30 0 -27 33 -42 83 -38 30 2 43 8 45 21 3 16 -12 34 -86 100
-17 15 -38 49 -46 75 -14 42 -14 56 -1 132 8 47 15 86 15 88 0 8 113 -57 158
-92 45 -35 52 -45 47 -66 -6 -29 19 -57 68 -78 34 -14 42 -1 34 57 -7 58 -79
160 -112 161 -5 0 4 -11 20 -24 32 -26 83 -111 73 -122 -13 -12 -68 7 -68 25
0 20 -70 75 -155 121 -98 54 -102 69 -55 198 17 46 30 88 29 95 0 7 -14 -26
-32 -73 l-31 -85 -11 58 c-11 65 -21 76 -137 159 l-66 47 24 59 c18 45 23 76
22 124 -3 74 22 150 55 167 13 7 15 9 5 7 -24 -7 -23 0 18 98 l36 85 46 -5
c71 -8 134 -33 165 -66 24 -26 32 -29 65 -23 48 9 62 23 69 73 5 40 3 45 -52
104 -53 57 -95 129 -100 170 -1 10 -10 27 -21 39 -15 16 -18 33 -16 73 l3 51
-35 -40 c-19 -22 -36 -38 -39 -35 -2 3 -8 25 -13 50 l-10 45 -33 -46z m174
-212 c19 -29 47 -67 61 -84 15 -18 24 -33 21 -33 -9 0 -157 170 -157 181 0 22
43 -14 75 -64z m-975 -798 c43 -14 104 -23 180 -26 63 -3 117 -9 120 -13 3 -4
54 -36 114 -70 87 -51 105 -65 90 -71 -16 -6 -14 -8 9 -8 15 -1 27 -7 27 -13
0 -15 -63 -68 -80 -68 -6 0 -3 -11 6 -25 9 -14 15 -27 13 -29 -2 -2 -14 12
-26 31 -13 19 -17 31 -10 27 6 -4 1 5 -12 19 -28 31 -38 28 -49 -16 -8 -30
-11 -32 -68 -39 -33 -4 -89 -3 -129 4 -38 6 -101 11 -140 12 -61 1 -76 5 -115
32 -25 18 -54 41 -64 53 l-19 21 64 1 64 2 -58 7 c-32 4 -60 9 -62 12 -2 2 7
27 20 56 l24 52 123 2 123 2 -117 3 c-65 2 -118 6 -118 8 0 4 22 55 24 55 1 0
30 -10 66 -21z m-185 -275 c75 -45 74 -43 51 -60 -18 -13 -21 -11 -32 16 -14
31 -41 39 -62 18 -12 -12 -15 -8 -25 40 -7 29 -1 28 68 -14z m603 -10 c2 -20
10 -50 19 -67 13 -26 17 -29 27 -16 6 9 17 14 24 12 7 -3 12 4 12 16 0 12 4
21 8 21 13 0 81 -71 87 -92 4 -10 20 -25 37 -34 22 -12 27 -19 19 -27 -6 -6
-11 -24 -11 -40 0 -25 -3 -27 -22 -21 -13 3 -30 13 -39 20 -18 17 -29 18 -29
4 0 -6 14 -19 31 -29 l30 -19 -44 -21 c-28 -14 -63 -21 -100 -21 -44 0 -57 -3
-57 -15 0 -19 -9 -19 -32 2 -34 30 -19 -7 17 -43 40 -40 44 -68 13 -101 -30
-32 -41 -29 -34 11 6 34 6 34 -45 51 -38 13 -56 26 -71 51 -25 42 -32 43 -23
4 8 -36 10 -35 -104 -14 -105 20 -119 26 -123 61 -3 28 -4 28 -25 -12 -24 -44
-57 -70 -123 -94 -35 -13 -46 -23 -55 -51 -15 -44 -41 -47 -38 -5 5 69 13 90
43 107 34 19 37 36 14 81 -10 18 -17 55 -17 85 0 43 6 61 30 95 35 48 59 61
48 27 -10 -31 29 -70 69 -70 42 1 120 22 139 38 9 8 17 31 19 51 l3 38 65 -14
c40 -8 89 -11 127 -8 59 6 61 5 56 -14 -4 -15 -13 -21 -34 -21 -35 0 -46 -21
-31 -56 14 -30 55 -32 78 -5 10 11 25 17 38 14 18 -4 17 -2 -8 19 -27 23 -29
29 -23 73 3 27 10 51 16 53 6 2 8 9 5 14 -4 6 -3 8 2 5 6 -3 11 -22 12 -43z
m102 27 c0 -5 -7 -12 -16 -15 -14 -5 -15 -4 -4 9 14 17 20 19 20 6z m17 -48
c-3 -10 -5 -4 -5 12 0 17 2 24 5 18 2 -7 2 -21 0 -30z m-750 -25 c-3 -8 -6 -5
-6 6 -1 11 2 17 5 13 3 -3 4 -12 1 -19z m19 -33 c10 -8 15 -14 9 -14 -5 0 -19
6 -29 14 -11 8 -15 15 -10 15 6 0 19 -7 30 -15z"/>
<path d="M7293 993 c53 -2 141 -2 195 0 53 1 9 3 -98 3 -107 0 -151 -2 -97 -3z"/>
<path d="M7353 783 c-16 -6 -17 -39 -2 -49 16 -9 43 21 36 40 -7 16 -13 18
-34 9z"/>
<path d="M7047 745 c-7 -16 8 -29 23 -20 15 9 12 35 -4 35 -8 0 -16 -7 -19
-15z"/>
<path d="M7742 744 c4 -21 22 -23 26 -1 2 10 -3 17 -13 17 -10 0 -15 -6 -13
-16z"/>
<path d="M7079 702 c-26 -22 -21 -51 11 -59 11 -3 20 -12 20 -20 0 -8 6 -13
13 -10 6 2 11 10 9 17 -2 7 5 21 15 32 17 19 17 21 -6 39 -29 23 -33 24 -62 1z"/>
<path d="M7226 694 c-10 -26 17 -48 49 -40 20 5 26 12 23 29 -4 29 -62 38 -72
11z"/>
<path d="M7484 689 c-9 -15 5 -26 44 -34 25 -5 32 -3 32 9 0 17 -5 21 -42 30
-15 3 -30 1 -34 -5z"/>
<path d="M9118 2133 c-28 -33 -31 -48 -4 -19 15 15 25 30 23 32 -2 2 -11 -4
-19 -13z"/>
<path d="M9187 2123 c-2 -5 -1 -19 4 -33 7 -23 7 -23 8 8 1 31 -3 40 -12 25z"/>
<path d="M9128 2074 c-3 -24 -1 -31 9 -27 15 6 15 9 4 38 -7 17 -9 16 -13 -11z"/>
<path d="M329 2064 c-9 -11 -22 -14 -47 -9 -25 5 -39 2 -53 -11 -20 -18 -26
-78 -9 -89 16 -10 12 -25 -7 -25 -34 0 -84 -40 -103 -82 l-19 -42 -7 29 c-5
20 -2 38 9 58 13 22 15 33 6 50 -21 40 -42 57 -71 57 l-28 0 0 -275 0 -275 38
0 c21 0 47 7 58 15 26 19 53 19 77 -2 13 -13 38 -18 83 -20 35 -1 67 -4 72 -7
8 -5 25 -3 52 6 77 26 88 28 121 17 19 -7 38 -16 44 -20 15 -15 67 -10 87 8
17 16 19 15 33 -3 13 -19 23 -20 227 -17 117 2 217 3 221 3 4 0 3 9 -3 20 -6
11 -19 20 -28 20 -10 0 -23 5 -29 11 -6 6 -21 9 -34 7 -14 -2 -32 6 -47 21
-15 15 -30 21 -45 17 -11 -3 -26 -1 -31 4 -6 4 -24 10 -39 12 -26 3 -27 5 -14
22 13 18 16 18 47 2 18 -9 41 -16 50 -16 9 0 25 -9 35 -20 10 -11 27 -19 39
-19 77 4 851 -43 1101 -65 77 -7 142 -11 144 -9 10 8 -38 59 -73 77 -30 15
-42 16 -62 7 -22 -10 -29 -7 -59 24 -46 45 -93 54 -139 27 -30 -18 -35 -18
-40 -5 -3 8 -3 19 0 24 3 6 0 16 -6 24 -6 8 -9 19 -6 24 4 5 -1 26 -11 46
l-17 36 -18 -37 c-10 -20 -15 -41 -12 -46 3 -5 1 -15 -5 -22 -7 -8 -11 -18
-10 -22 4 -25 -2 -54 -12 -54 -6 0 -9 6 -6 13 2 6 -4 23 -15 36 -14 19 -16 26
-6 32 9 6 8 13 -6 28 -10 11 -15 24 -12 29 3 6 -3 29 -13 53 l-19 42 -16 -38
c-9 -22 -14 -45 -12 -51 3 -7 -4 -24 -15 -38 -11 -14 -16 -26 -10 -26 9 0 -1
-37 -15 -59 -2 -1 -13 4 -26 13 -12 9 -35 16 -50 16 -17 0 -31 7 -38 20 -13
25 -63 51 -100 52 -40 1 -86 -20 -105 -48 -9 -14 -21 -21 -30 -18 -8 3 -27 -1
-43 -8 -26 -13 -31 -13 -53 4 -16 14 -34 18 -58 16 -26 -3 -39 1 -58 20 -17
17 -32 23 -50 19 -30 -6 -93 28 -93 49 0 8 -6 23 -12 34 -10 16 -10 24 0 40 6
11 12 28 12 38 0 22 -30 52 -53 52 -9 0 -17 10 -19 23 -2 17 -10 22 -32 22
-16 0 -31 6 -33 13 -7 20 -50 14 -70 -11 -10 -12 -25 -21 -34 -19 -26 5 -61
-46 -54 -78 5 -22 1 -31 -20 -44 -25 -17 -28 -17 -46 0 -18 17 -18 17 6 40 33
30 31 45 -8 69 -28 18 -32 26 -33 64 -1 53 -21 71 -76 71 -25 0 -38 5 -38 13
0 22 -39 57 -64 57 -13 0 -29 -7 -37 -16z m-37 -293 c3 8 9 7 20 -4 8 -9 18
-14 20 -12 3 3 3 -9 0 -25 -6 -39 -27 -38 -52 3 -23 38 -26 54 -6 38 11 -9 15
-9 18 0z m-69 -138 c-7 -2 -19 -2 -25 0 -7 3 -2 5 12 5 14 0 19 -2 13 -5z
m597 -108 c0 -11 -42 -25 -53 -18 -8 5 -2 10 18 14 17 4 31 7 33 8 1 0 2 -1 2
-4z"/>
<path d="M8878 2073 c7 -3 16 -2 19 1 4 3 -2 6 -13 5 -11 0 -14 -3 -6 -6z"/>
<path d="M10222 2040 c-22 -34 -31 -39 -52 -34 -14 3 -52 8 -86 11 -49 4 -68
1 -100 -15 -35 -19 -37 -21 -14 -22 l25 -1 -25 -10 c-55 -22 -118 -30 -155
-20 -61 17 -27 -21 40 -44 15 -6 6 -10 -35 -19 -70 -15 -111 -37 -144 -77 -32
-38 -29 -44 12 -23 18 8 42 14 54 12 19 -2 14 -8 -32 -35 -30 -17 -68 -35 -83
-38 -35 -9 -28 -17 26 -30 l41 -11 -47 -30 c-25 -17 -44 -34 -41 -37 3 -3 -11
-11 -32 -17 -43 -15 -156 -8 -277 15 -102 19 -187 19 -252 -1 l-52 -17 -16
-66 c-11 -46 -14 -90 -10 -141 5 -64 2 -82 -17 -123 -27 -57 -40 -65 -72 -43
-12 9 -27 16 -33 16 -22 0 62 -43 139 -71 90 -33 113 -53 121 -107 4 -20 12
-48 19 -62 8 -14 17 -50 21 -80 7 -49 14 -62 65 -117 32 -34 83 -93 114 -131
31 -38 65 -72 75 -75 12 -3 21 -15 23 -33 4 -38 42 -59 91 -50 51 10 48 34
-12 93 -26 26 -85 91 -130 143 l-83 95 79 6 78 5 -77 2 c-49 1 -80 7 -85 15
-5 9 -23 285 -19 293 1 1 28 -11 61 -26 92 -43 210 -64 329 -57 72 4 105 2
120 -8 12 -7 43 -16 70 -20 80 -11 95 -20 91 -52 -2 -15 -4 -51 -4 -80 l-1
-52 -132 -4 -133 -3 133 -2 c73 -1 132 -6 132 -11 0 -5 -12 -11 -27 -13 -20
-2 -32 -14 -49 -48 -29 -57 -19 -71 38 -59 22 6 49 14 59 20 13 6 19 6 19 -1
0 -36 63 21 91 83 11 25 16 26 111 29 l99 3 11 -40 c6 -22 21 -51 34 -65 17
-19 19 -29 11 -41 -21 -32 18 -72 82 -85 l34 -7 -7 39 c-4 21 -10 48 -12 59
-5 19 1 20 88 23 51 2 95 7 96 12 5 14 30 12 35 -2 3 -9 10 -6 22 10 20 27 35
28 35 2 0 -15 7 -20 26 -20 22 0 24 2 14 15 -16 19 -4 35 27 35 22 0 25 -4 21
-25 l-5 -25 73 2 c49 2 74 7 74 15 0 6 6 14 13 17 8 3 6 9 -7 20 -11 9 -17 19
-13 22 4 4 13 2 20 -5 11 -9 17 -8 27 4 20 25 34 17 16 -10 -9 -13 -16 -35
-16 -47 1 -21 2 -22 14 -6 7 10 16 15 19 11 4 -3 7 -1 7 5 0 7 7 12 15 12 9 0
14 -8 12 -22 -2 -23 0 -23 116 -25 l117 -1 0 81 c0 77 -1 79 -18 64 -29 -27
-42 -20 -42 21 l0 37 -22 -35 c-12 -19 -21 -39 -20 -43 2 -5 -3 -7 -10 -5 -7
3 -15 15 -16 28 l-4 24 -13 -24 -13 -24 -18 39 -17 40 -6 -30 -7 -30 -14 23
c-18 27 -30 28 -30 2 0 -25 -12 -25 -35 0 -14 16 -20 17 -26 8 -14 -22 -27 4
-22 44 5 35 7 37 47 41 l41 4 -43 1 -44 2 2 63 c4 128 3 134 -30 140 -58 12
-62 5 -54 -104 l6 -98 -33 -4 -34 -4 33 -1 c30 -2 32 -4 32 -38 0 -20 -8 -46
-19 -60 l-20 -25 -3 23 c-3 21 -5 20 -26 -14 -28 -45 -35 -47 -48 -10 l-11 27
-13 -27 c-11 -23 -15 -25 -34 -15 -11 7 -26 19 -33 27 -11 13 -12 13 -13 -1 0
-9 -10 -19 -21 -22 -18 -5 -20 -11 -14 -34 6 -26 6 -27 -13 -10 -25 23 -31 21
-25 -5 6 -23 6 -23 -22 2 -27 25 -27 25 -21 3 8 -26 -11 -32 -33 -11 -11 11
-13 10 -8 -4 6 -17 -17 -28 -60 -28 -23 0 -34 16 -127 190 -28 52 -57 92 -73
102 -16 9 -56 43 -91 75 l-63 58 14 56 c10 35 13 79 10 120 -4 52 0 78 21 137
36 105 67 157 91 155 98 -10 170 -36 198 -70 30 -37 109 -23 121 21 12 46 4
67 -59 144 -36 44 -65 85 -65 91 0 6 -18 31 -41 56 -40 43 -40 45 -34 99 8 64
-5 75 -30 26 -21 -41 -38 -39 -29 5 9 47 -9 45 -44 -5z m163 -184 c8 -17 26
-47 41 -66 15 -19 1 -9 -30 23 -31 33 -56 67 -56 79 0 17 2 19 16 8 8 -8 21
-27 29 -44z m-339 -851 c9 -21 -2 -56 -27 -85 -19 -24 -20 -24 -14 -3 3 12 7
40 8 62 1 41 22 57 33 26z m193 -89 c12 -18 21 -36 21 -40 0 -3 -40 -6 -90 -6
l-90 0 18 28 c9 15 28 42 41 59 l24 32 28 -20 c15 -10 37 -34 48 -53z m581
-56 c0 -5 -4 -10 -10 -10 -5 0 -10 5 -10 10 0 6 5 10 10 10 6 0 10 -4 10 -10z
m-172 -12 c16 -16 15 -28 -3 -28 -8 0 -15 2 -15 4 0 2 -3 11 -6 20 -7 19 7 21
24 4z m592 3 c0 -12 -20 -25 -27 -18 -7 7 6 27 18 27 5 0 9 -4 9 -9z"/>
<path d="M8828 2063 c7 -3 16 -2 19 1 4 3 -2 6 -13 5 -11 0 -14 -3 -6 -6z"/>
<path d="M9102 2045 c0 -16 2 -22 5 -12 2 9 2 23 0 30 -3 6 -5 -1 -5 -18z"/>
<path d="M9065 2049 c-4 -6 -5 -12 -2 -15 2 -3 7 2 10 11 7 17 1 20 -8 4z"/>
<path d="M9181 2052 c0 -8 -6 -10 -13 -6 -7 4 7 -14 32 -40 24 -25 46 -46 49
-46 3 0 -9 15 -26 33 -17 17 -33 41 -36 52 -3 11 -5 14 -6 7z"/>
<path d="M8758 2034 c-38 -20 -36 -28 2 -9 17 9 30 18 30 20 0 7 -1 6 -32 -11z"/>
<path d="M9015 2040 c-13 -6 -15 -9 -5 -9 8 0 22 4 30 9 18 12 2 12 -25 0z"/>
<path d="M8945 2010 c-3 -6 1 -7 9 -4 18 7 21 14 7 14 -6 0 -13 -4 -16 -10z"/>
<path d="M8620 1991 c0 -10 30 -24 37 -17 3 2 -5 9 -16 16 -12 6 -21 7 -21 1z"/>
<path d="M8874 1958 l-19 -23 23 19 c12 11 22 21 22 23 0 8 -8 2 -26 -19z"/>
<path d="M8680 1966 c0 -9 50 -12 62 -5 8 6 -1 9 -24 9 -21 0 -38 -2 -38 -4z"/>
<path d="M9250 1941 c0 -6 4 -13 10 -16 6 -3 7 1 4 9 -7 18 -14 21 -14 7z"/>
<path d="M8606 1925 c-22 -8 -51 -26 -65 -42 l-26 -27 27 23 c15 13 51 32 80
42 29 9 46 18 38 18 -8 0 -33 -6 -54 -14z"/>
<path d="M8824 1918 l-19 -23 23 19 c12 11 22 21 22 23 0 8 -8 2 -26 -19z"/>
<path d="M9162 1931 c-10 -6 -10 -10 2 -21 20 -16 48 -6 40 15 -7 17 -22 19
-42 6z"/>
<path d="M9290 1885 c13 -14 26 -25 28 -25 3 0 -5 11 -18 25 -13 14 -26 25
-28 25 -3 0 5 -11 18 -25z"/>
<path d="M8784 1868 l-19 -23 23 19 c21 18 27 26 19 26 -2 0 -12 -10 -23 -22z"/>
<path d="M8598 1860 c13 -6 31 -6 45 0 18 7 14 9 -23 9 -37 0 -41 -2 -22 -9z"/>
<path d="M8505 1840 c-3 -5 -1 -10 4 -10 6 0 11 5 11 10 0 6 -2 10 -4 10 -3 0
-8 -4 -11 -10z"/>
<path d="M9355 1810 c21 -22 41 -40 44 -40 3 0 -13 18 -34 40 -21 22 -41 40
-44 40 -3 0 13 -18 34 -40z"/>
<path d="M8748 1823 c-18 -21 -31 -43 -25 -43 2 0 13 14 25 30 25 33 24 41 0
13z"/>
<path d="M8532 1814 c-12 -8 -27 -25 -33 -37 l-10 -22 18 22 c10 12 27 29 38
37 27 20 16 20 -13 0z"/>
<path d="M9047 1789 c10 -12 7 -25 -12 -64 -14 -27 -25 -56 -24 -64 0 -9 7 2
15 23 19 53 42 78 63 67 22 -12 117 -21 100 -10 -8 5 -31 9 -51 9 -25 0 -47 9
-70 27 -18 15 -28 21 -21 12z"/>
<path d="M8565 1750 c3 -5 10 -10 16 -10 5 0 9 5 9 10 0 6 -7 10 -16 10 -8 0
-12 -4 -9 -10z"/>
<path d="M8689 1743 c-13 -16 -12 -17 4 -4 16 13 21 21 13 21 -2 0 -10 -8 -17
-17z"/>
<path d="M9360 1746 c0 -8 5 -18 10 -21 6 -3 10 1 10 9 0 8 -4 18 -10 21 -5 3
-10 -1 -10 -9z"/>
<path d="M9395 1724 c-12 -47 -37 -55 -72 -22 l-26 23 19 -33 c11 -19 24 -30
32 -27 8 3 20 5 27 5 14 0 39 62 33 81 -2 7 -8 -6 -13 -27z"/>
<path d="M2440 1720 c0 -22 -9 -39 -35 -61 -19 -17 -35 -37 -35 -44 0 -7 -16
-43 -35 -79 -26 -49 -35 -79 -35 -114 0 -148 175 -204 288 -92 l40 40 6 -47
c3 -27 8 -80 12 -120 l6 -72 -69 -4 -68 -3 67 -2 c77 -2 85 -12 73 -90 -8 -55
-17 -73 -61 -127 -32 -39 -33 -40 -89 -37 l-56 4 4 56 c4 49 7 57 28 63 23 7
23 7 -4 8 l-28 1 3 108 2 107 -42 3 -42 3 0 -44 c0 -43 -1 -45 -32 -49 -23 -4
-37 0 -45 11 -10 13 -14 14 -22 2 -6 -10 -13 -10 -29 -2 -29 15 -32 14 -32
-11 0 -17 -3 -19 -12 -10 -7 7 -35 11 -68 10 l-55 -2 50 -3 51 -4 -4 -34 c-4
-29 0 -36 22 -46 20 -10 23 -15 15 -26 -9 -10 -58 -13 -221 -13 -199 0 -209 1
-203 19 8 26 -20 48 -40 31 -18 -15 -20 -60 -2 -61 6 0 110 0 230 1 119 1 217
-3 217 -7 0 -4 -6 -30 -13 -58 -11 -43 -17 -51 -43 -56 -23 -5 -24 -7 -6 -8
32 -2 27 -16 -12 -35 -47 -22 -76 -21 -76 4 0 11 1 21 2 23 1 1 -12 23 -29 48
-52 76 -134 100 -200 59 -30 -18 -33 -18 -43 -2 -9 15 -10 14 -5 -5 3 -12 -3
-38 -15 -61 -14 -26 -20 -54 -18 -79 l3 -38 25 49 c25 50 53 76 80 76 8 -1 2
-8 -13 -16 -43 -23 -66 -83 -56 -146 11 -70 29 -86 30 -28 1 25 3 36 6 25 2
-11 9 -36 16 -55 l11 -35 7 30 c6 28 7 28 8 4 0 -14 7 -33 15 -44 12 -17 14
-16 20 11 l8 29 13 -32 c14 -33 35 -45 35 -20 0 6 9 -2 20 -20 10 -18 37 -43
58 -57 38 -24 52 -51 44 -88 -2 -10 -10 -18 -18 -18 -8 0 -14 -5 -14 -11 0 -5
5 -7 10 -4 6 3 10 -2 10 -12 0 -11 -13 -24 -32 -33 l-33 -13 34 -4 c19 -3 44
-11 57 -19 24 -17 80 -16 78 1 0 6 -15 17 -33 27 -44 22 -44 22 -32 60 16 45
54 72 81 58 12 -6 28 -9 38 -6 9 3 24 1 32 -5 12 -8 9 -9 -10 -5 -25 6 -25 6
-2 -6 15 -7 20 -17 17 -29 -8 -23 11 -34 23 -13 8 14 12 14 30 3 12 -8 22 -17
22 -21 0 -5 9 -8 20 -8 28 0 26 35 -2 55 -13 8 -40 20 -60 26 -33 9 -38 13
-38 40 0 25 12 43 59 88 44 42 61 67 66 94 8 42 20 54 39 38 11 -10 17 0 32
46 18 61 29 81 40 70 3 -3 -3 -26 -15 -50 -25 -52 -25 -54 -6 -54 9 0 18 19
25 54 12 53 17 58 58 47 19 -6 22 -13 22 -61 0 -30 -5 -75 -10 -101 -6 -26
-15 -69 -22 -96 -8 -37 -8 -50 2 -56 7 -5 9 -19 5 -43 -7 -33 -4 -38 26 -56
36 -22 84 -28 94 -11 4 6 -3 34 -15 63 l-22 52 21 104 c22 111 43 150 101 191
37 26 80 21 80 -10 0 -10 27 -59 61 -109 33 -50 57 -95 54 -101 -3 -5 1 -10 9
-10 9 0 20 -16 27 -41 7 -23 19 -43 26 -46 7 -3 13 -13 13 -24 0 -36 67 -61
114 -43 23 9 20 19 -23 77 -80 109 -144 248 -122 270 6 6 11 19 11 28 0 22 20
29 84 29 l53 0 7 -46 c3 -26 6 -59 5 -73 l0 -26 -16 23 c-23 32 -37 27 -17 -7
15 -25 20 -27 36 -18 10 7 19 23 19 37 2 23 2 23 6 3 3 -17 10 -22 26 -19 19
3 22 10 25 62 l3 59 157 -3 c86 -2 161 -7 166 -12 4 -4 9 -32 10 -61 1 -52 0
-53 -39 -75 -22 -13 -56 -26 -76 -29 -21 -4 -44 -14 -52 -23 -17 -20 -33 -102
-19 -102 28 0 130 44 172 75 l48 35 7 -39 c4 -22 4 -44 1 -50 -13 -20 30 -53
77 -58 40 -5 47 -3 47 12 0 10 -9 32 -19 49 -15 24 -17 40 -12 71 l7 40 22
-58 c12 -32 22 -67 22 -78 0 -12 9 -32 20 -46 11 -14 20 -34 20 -45 0 -35 95
-53 121 -22 8 10 10 20 3 28 -52 68 -93 146 -103 194 -7 31 -19 80 -27 108
-24 87 -22 94 34 93 l47 0 47 -72 c26 -40 58 -97 72 -129 14 -31 30 -59 35
-63 6 -3 11 -15 11 -25 0 -23 57 -44 94 -34 26 6 35 27 17 38 -12 8 -109 170
-127 212 -29 69 -24 74 71 74 l85 0 0 -45 c0 -47 15 -62 23 -22 3 13 5 7 6
-16 0 -21 5 -36 10 -33 5 4 11 0 14 -6 8 -25 19 1 24 61 4 44 10 61 20 61 12
0 14 -21 12 -122 -5 -182 7 -208 88 -208 50 0 55 15 23 60 -27 38 -30 166 -5
228 15 37 21 42 50 42 27 0 37 -6 54 -36 12 -19 21 -39 21 -43 0 -8 -70 -41
-88 -41 -15 0 -28 -26 -36 -72 -7 -40 -2 -44 36 -29 13 5 35 12 50 15 14 3 40
17 56 31 l30 25 23 -55 c12 -30 26 -55 30 -55 4 0 9 -10 11 -22 4 -27 65 -53
103 -44 31 8 32 20 2 60 -13 17 -40 61 -60 97 -37 66 -37 66 -17 84 11 10 20
30 20 44 0 22 5 17 31 -29 38 -67 54 -131 31 -122 -10 3 -13 1 -8 -6 4 -7 14
-12 22 -12 8 0 14 -10 14 -25 0 -14 7 -28 15 -31 8 -4 15 -17 15 -29 0 -30 8
-35 68 -42 63 -7 72 7 34 55 -33 42 -77 147 -87 207 -4 22 -9 48 -12 58 -4 14
3 17 44 19 l48 1 -49 6 c-36 4 -51 11 -58 26 -9 20 -8 18 12 -103 10 -60 42
-150 65 -186 14 -21 14 -24 0 -30 -47 -18 -77 11 -89 82 -6 43 -99 239 -151
322 -15 24 -31 56 -36 70 -6 20 -7 21 -8 5 -1 -11 8 -35 19 -53 l21 -34 -22 7
c-36 12 -139 7 -224 -9 -106 -21 -149 -20 -223 5 l-61 21 -41 -34 c-22 -18
-40 -42 -40 -53 -1 -19 -1 -19 -14 -2 -19 24 -55 22 -65 -5 -9 -23 -9 -23 -20
5 -6 15 -17 27 -25 27 -32 0 -25 22 24 80 27 34 50 64 50 68 -1 7 -13 -6 -87
-93 -42 -49 -68 -58 -39 -12 9 13 28 53 41 88 14 35 40 87 57 116 30 49 35 53
70 53 29 0 41 6 54 25 19 29 64 34 89 9 12 -13 15 -26 10 -55 -6 -34 -3 -42
23 -69 24 -24 39 -30 72 -30 56 0 73 11 109 69 16 28 40 55 53 62 66 34 86 91
53 149 -22 39 -18 68 13 87 45 28 72 56 72 74 0 10 5 21 12 25 16 10 159 7
170 -4 5 -5 -2 -22 -17 -40 -22 -26 -25 -38 -23 -88 3 -49 0 -59 -15 -62 -12
-2 -21 6 -28 27 -20 57 -76 30 -66 -31 3 -18 0 -63 -6 -100 l-11 -66 37 -41
c30 -33 37 -49 37 -81 0 -50 24 -110 43 -110 19 0 27 22 27 75 0 24 5 47 11
51 6 3 19 26 29 50 21 47 46 57 71 28 9 -11 22 -14 46 -9 24 4 33 2 33 -7 0
-28 -60 -135 -94 -167 -20 -19 -36 -45 -36 -56 0 -31 83 -50 193 -43 78 5 84
4 80 -13 -3 -10 -15 -20 -27 -22 -11 -2 0 -5 27 -6 26 0 47 -4 47 -7 0 -3 -7
-28 -17 -56 -14 -43 -14 -60 -4 -115 12 -63 11 -65 -13 -84 -15 -12 -26 -33
-29 -56 -3 -21 -9 -51 -12 -68 -3 -16 -1 -37 4 -45 15 -22 42 -2 68 51 15 32
29 46 50 50 28 7 28 7 -5 8 -30 1 -35 -3 -49 -39 -17 -43 -24 -48 -42 -26 -17
20 6 106 35 128 20 16 21 22 12 60 -14 64 -12 122 7 159 17 32 17 34 -4 47
-13 9 -21 25 -21 44 0 37 27 49 49 21 21 -27 48 -35 71 -23 41 22 124 30 198
20 l73 -10 26 31 c25 30 28 30 100 27 40 -2 73 0 73 5 0 4 -29 7 -64 7 l-65 0
45 103 c28 63 59 116 81 140 36 36 63 48 63 27 0 -5 21 -10 46 -10 30 0 43 4
38 11 -4 7 10 9 49 4 65 -8 134 1 134 18 0 7 3 26 7 43 6 29 2 36 -43 79 -27
26 -55 60 -61 76 -11 27 -10 31 20 59 18 17 30 37 28 47 -4 22 -47 29 -89 14
-27 -9 -33 -8 -53 16 -34 40 -85 37 -130 -6 -29 -28 -37 -31 -54 -22 -29 16
-97 14 -111 -3 -7 -8 -11 -22 -9 -32 4 -23 -27 -32 -124 -33 -73 -1 -78 0 -96
27 l-20 27 29 33 c52 58 27 96 -47 72 -35 -12 -38 -11 -61 19 -41 52 -114 41
-150 -23 -8 -15 -12 -15 -50 0 -74 29 -144 -1 -101 -44 6 -6 9 -14 6 -17 -13
-13 -129 -26 -185 -20 -34 3 -104 2 -155 -4 -51 -5 -130 -13 -175 -16 -79 -6
-82 -5 -85 16 -5 33 -31 46 -68 32 -28 -10 -29 -10 -19 8 12 24 8 71 -6 76 -6
2 -18 -10 -28 -26 -17 -30 -18 -30 -54 -15 -31 14 -41 14 -80 1 -43 -14 -43
-14 -49 9 -12 49 -49 12 -41 -41 5 -32 4 -34 -13 -25 -21 11 -80 13 -104 4 -9
-3 -16 -17 -16 -30 l0 -24 -142 0 c-79 0 -172 -5 -208 -12 -93 -16 -318 -13
-439 6 -190 29 -259 19 -330 -53 -26 -25 -61 -67 -78 -94 -45 -66 -86 -89
-146 -84 -62 5 -88 30 -94 88 -5 56 19 106 67 136 86 53 104 93 72 159 -25 51
-42 57 -42 14z m2720 -42 c22 -24 45 -61 51 -82 7 -26 32 -61 70 -102 52 -53
59 -65 53 -88 -10 -42 -68 -60 -115 -36 -30 16 -22 3 9 -15 15 -9 18 -13 7
-10 -11 4 -59 10 -107 14 -56 5 -97 14 -115 26 l-28 18 19 -21 c18 -21 18 -22
-30 -78 -46 -54 -49 -55 -55 -33 -13 45 -9 76 11 94 13 12 20 31 20 55 0 39
29 79 38 52 23 -69 183 -76 206 -9 15 43 -35 131 -97 169 -77 49 -82 88 -10
88 27 0 42 -9 73 -42z m-1005 -45 c-15 -22 -19 -24 -26 -10 -6 11 -2 23 13 41
29 32 38 8 13 -31z m-187 0 c20 -17 24 -25 15 -34 -26 -26 -71 29 -56 68 5 14
8 14 11 2 2 -7 16 -24 30 -36z m130 9 c37 -37 69 -89 81 -130 8 -29 29 -60 59
-90 36 -36 47 -55 48 -80 1 -27 -4 -35 -25 -44 -26 -10 -60 -7 -96 7 -16 6
-18 5 -8 -5 7 -7 29 -17 50 -21 36 -8 36 -8 -7 -3 -25 2 -82 8 -127 12 -62 6
-91 14 -115 31 l-33 24 27 -28 27 -28 -34 -42 c-19 -23 -60 -95 -90 -161 -51
-108 -95 -174 -117 -174 -4 0 -9 26 -10 58 -1 47 -2 50 -6 17 -4 -43 8 -113
39 -214 10 -35 19 -75 19 -90 0 -21 30 -91 78 -182 1 -4 -12 -9 -30 -11 -42
-7 -55 11 -84 110 -12 40 -29 81 -37 90 -8 9 -21 46 -27 82 -14 79 -31 107
-75 126 -39 16 -53 38 -72 109 l-13 50 6 -45 c3 -25 12 -58 20 -74 7 -16 14
-30 14 -31 0 -1 -48 -5 -107 -9 -60 -3 -148 -9 -198 -12 -74 -4 -100 -2 -146
14 l-56 20 -41 -32 c-28 -20 -41 -37 -38 -48 5 -23 -10 -33 -21 -15 -11 20
-103 29 -103 11 0 -8 -4 -14 -10 -14 -5 0 -10 8 -10 19 0 10 -7 24 -15 31 -24
20 -18 36 27 75 53 45 75 51 124 30 22 -9 34 -11 27 -4 -6 6 -32 17 -58 23
l-46 12 -113 -110 c-62 -61 -118 -120 -124 -131 -12 -24 -43 -211 -39 -240 1
-16 -5 -21 -30 -23 -29 -3 -33 0 -33 22 0 14 -4 27 -9 30 -4 3 0 39 9 80 10
41 21 110 25 153 6 65 12 84 37 116 38 48 58 97 58 141 0 30 4 35 30 41 17 4
38 18 47 32 14 21 15 33 4 90 -11 60 -10 68 6 83 10 9 37 22 60 29 53 15 97
64 89 100 -18 86 -18 86 6 108 22 21 26 21 113 9 80 -10 90 -14 93 -33 2 -16
-5 -26 -30 -39 -44 -22 -68 -44 -68 -62 0 -8 21 -37 46 -64 39 -41 45 -54 40
-76 -4 -15 -10 -50 -13 -78 -5 -46 -3 -53 18 -68 36 -25 81 -20 124 14 31 25
44 29 74 24 28 -4 42 -1 61 14 23 18 25 28 26 100 1 43 4 84 8 91 4 6 28 22
54 35 66 34 84 57 86 111 l1 46 75 -3 c74 -3 75 -3 78 -31 3 -20 -5 -35 -27
-56 -37 -35 -38 -48 -6 -111 13 -26 28 -67 31 -91 8 -50 56 -109 88 -109 35 0
54 30 70 106 27 132 60 190 94 166 39 -28 87 -44 120 -38 53 8 65 23 59 74 -6
53 -31 90 -80 117 -42 23 -66 63 -45 76 23 15 77 10 96 -9z m-1748 -137 c-11
-22 -20 -59 -20 -83 0 -37 6 -50 34 -78 30 -30 40 -34 84 -34 42 0 58 6 96 35
46 35 66 43 66 26 0 -19 -74 -70 -116 -80 -49 -13 -84 -7 -130 20 -67 41 -73
150 -11 227 18 23 17 6 -3 -33z m22 -410 c3 -14 4 -25 3 -25 -2 0 -10 11 -19
25 -13 20 -14 25 -2 25 7 0 16 -11 18 -25z m-5 -57 c-3 -8 -6 -5 -6 6 -1 11 2
17 5 13 3 -3 4 -12 1 -19z m-602 2 c3 -5 1 -10 -4 -10 -6 0 -11 5 -11 10 0 6
2 10 4 10 3 0 8 -4 11 -10z m507 -6 c-28 -19 -28 -27 3 -58 14 -14 25 -36 25
-50 0 -14 8 -30 18 -35 10 -5 24 -27 30 -49 15 -48 15 -65 2 -57 -5 3 -10 0
-10 -7 -1 -8 -6 -7 -14 5 -13 17 -15 17 -24 1 -9 -16 -10 -16 -21 4 -7 13 -18
19 -31 17 -13 -3 -20 2 -20 12 0 9 -6 13 -15 9 -8 -3 -15 -1 -15 5 0 6 -8 8
-18 5 -17 -6 -16 2 10 81 28 83 62 133 91 133 6 0 1 -7 -11 -16z m88 -24 c0
-5 -7 -10 -15 -10 -8 0 -15 5 -15 10 0 6 7 10 15 10 8 0 15 -4 15 -10z m20
-60 c0 -13 -1 -13 -10 0 -5 8 -10 22 -10 30 0 13 1 13 10 0 5 -8 10 -22 10
-30z m1741 8 c35 -10 39 -15 39 -43 0 -39 -14 -45 -109 -45 -51 0 -62 3 -53
12 7 7 12 18 12 25 0 15 49 62 64 63 5 0 26 -5 47 -12z m429 -14 c6 -14 10
-37 10 -52 0 -25 -1 -25 -15 -6 -15 19 -15 19 -30 0 -14 -19 -15 -19 -15 -1 0
10 -7 27 -16 37 -14 14 -14 20 -4 33 20 25 59 19 70 -11z m83 -35 c26 -42 27
-50 18 -85 -8 -29 -20 -44 -49 -61 -21 -12 -57 -38 -81 -57 -24 -20 -53 -36
-65 -36 -19 0 -22 4 -18 30 4 26 14 36 64 61 74 37 85 59 72 140 -10 57 -9 60
10 57 11 -2 33 -23 49 -49z m-833 28 c0 -2 -15 -16 -32 -33 l-33 -29 29 33
c28 30 36 37 36 29z m468 -24 c-4 -39 -28 -42 -28 -4 0 21 5 31 16 31 11 0 14
-8 12 -27z m-418 -13 c0 -29 -1 -30 -47 -30 l-47 0 29 30 c16 17 37 30 47 30
13 0 18 -8 18 -30z m-1472 -47 l0 -58 -13 45 c-10 32 -11 48 -3 57 6 7 12 13
13 13 2 0 3 -26 3 -57z m1507 37 c3 -11 13 -20 21 -20 8 0 14 9 14 20 0 11 5
20 10 20 6 0 10 -5 10 -11 0 -6 7 -9 15 -5 11 4 15 -2 15 -27 1 -45 21 -96 69
-175 46 -77 49 -88 22 -95 -24 -6 -61 18 -61 39 0 24 -39 94 -87 156 -42 56
-66 118 -45 118 6 0 14 -9 17 -20z m565 6 c0 -7 -9 -16 -21 -19 -20 -5 -20 -5
-3 14 20 23 24 23 24 5z m-1350 -11 l35 -13 -42 -1 c-40 -1 -60 9 -46 23 8 8
11 7 53 -9z m438 -12 c3 -10 -25 -13 -119 -13 -67 0 -120 2 -118 5 23 22 230
29 237 8z m69 -34 c22 -31 32 -56 32 -83 1 -38 -20 -76 -42 -76 -6 0 -33 -18
-61 -39 -62 -48 -112 -70 -102 -45 3 8 6 26 6 38 0 16 9 25 33 34 19 7 51 27
72 45 l38 33 -12 54 c-7 30 -15 63 -18 74 -9 31 18 13 54 -35z m-724 -29 c3
-11 10 -20 17 -20 7 0 14 9 17 20 11 41 31 13 53 -72 7 -26 34 -81 61 -122 27
-41 49 -77 49 -80 0 -3 -9 -10 -20 -16 -27 -15 -67 12 -75 52 -4 17 -36 73
-72 125 -45 67 -62 100 -58 114 8 25 21 24 28 -1z m27 10 c0 -5 -4 -10 -10
-10 -5 0 -10 5 -10 10 0 6 5 10 10 10 6 0 10 -4 10 -10z m763 -92 c2 -7 2 -42
-2 -78 -6 -62 -7 -65 -35 -68 -17 -2 -26 0 -22 6 3 6 1 22 -5 36 -10 22 -8 29
15 56 14 17 26 38 26 46 0 17 16 19 23 2z m-1587 -274 c-20 -51 -19 -67 5 -85
19 -15 21 -19 7 -19 -9 0 -20 5 -23 10 -3 6 -18 10 -33 11 -25 0 -26 1 -5 9
15 6 23 21 28 49 4 23 11 41 17 41 6 0 7 -7 4 -16z m213 5 c31 -11 63 -49 41
-49 -5 0 -10 7 -10 15 0 16 -43 31 -59 20 -6 -3 -11 1 -11 9 0 19 -1 19 39 5z"/>
<path d="M5265 1410 c-3 -5 -1 -10 4 -10 6 0 11 5 11 10 0 6 -2 10 -4 10 -3 0
-8 -4 -11 -10z"/>
<path d="M3530 1363 c-25 -32 -24 -81 3 -97 35 -21 94 76 67 109 -19 23 -46
18 -70 -12z"/>
<path d="M4210 1346 c0 -9 7 -16 16 -16 17 0 14 22 -4 28 -7 2 -12 -3 -12 -12z"/>
<path d="M2902 1281 c-19 -17 -32 -39 -32 -53 0 -27 28 -58 52 -58 20 0 70 87
66 115 -5 33 -49 31 -86 -4z"/>
<path d="M3615 1174 c-10 -10 -15 -29 -13 -48 2 -25 8 -32 30 -34 23 -3 31 3
44 32 14 29 15 38 4 51 -16 20 -44 19 -65 -1z"/>
<path d="M8481 1734 c0 -11 3 -14 6 -6 3 7 2 16 -1 19 -3 4 -6 -2 -5 -13z"/>
<path d="M8509 1693 l-34 -38 38 34 c34 33 42 41 34 41 -2 0 -19 -17 -38 -37z"/>
<path d="M9220 1720 c8 -5 20 -10 25 -10 6 0 3 5 -5 10 -8 5 -19 10 -25 10 -5
0 -3 -5 5 -10z"/>
<path d="M8649 1703 c-13 -16 -12 -17 4 -4 16 13 21 21 13 21 -2 0 -10 -8 -17
-17z"/>
<path d="M8450 1650 c-9 -6 -10 -10 -3 -10 6 0 15 5 18 10 8 12 4 12 -15 0z"/>
<path d="M8510 1635 c-25 -13 -41 -24 -37 -25 11 0 87 39 87 45 0 7 0 7 -50
-20z"/>
<path d="M10775 1623 c-9 -21 -20 -46 -25 -55 -6 -10 -10 -38 -10 -63 l0 -46
-32 18 c-18 10 -37 23 -41 28 -6 6 -10 6 -14 -2 -3 -9 -27 -13 -68 -13 -64 0
-64 0 -102 -45 -26 -31 -45 -45 -62 -45 -14 0 -37 -12 -52 -26 -23 -22 -30
-24 -47 -13 -16 10 -27 8 -66 -10 -25 -13 -48 -27 -52 -32 -3 -5 49 -9 125 -9
l131 0 0 44 c0 36 6 51 38 86 l37 42 34 -45 34 -46 88 6 88 6 3 -48 c3 -43 6
-49 28 -52 50 -8 70 4 70 42 0 35 0 35 45 35 l45 0 0 -40 0 -40 150 0 150 0 0
60 c0 57 -1 60 -24 60 -13 0 -29 -7 -36 -15 -9 -11 -35 -15 -109 -15 l-97 0
-17 35 c-9 19 -29 41 -46 49 -27 14 -31 14 -55 -5 -15 -11 -33 -34 -42 -51 -8
-16 -18 -27 -22 -24 -10 11 28 73 53 86 20 11 22 16 14 43 -9 31 -32 87 -48
117 -4 8 -18 16 -30 18 -17 3 -25 -5 -36 -35z"/>
<path d="M8053 1633 c15 -2 37 -2 50 0 12 2 0 4 -28 4 -27 0 -38 -2 -22 -4z"/>
<path d="M7988 1623 c7 -3 16 -2 19 1 4 3 -2 6 -13 5 -11 0 -14 -3 -6 -6z"/>
<path d="M8158 1623 c7 -3 16 -2 19 1 4 3 -2 6 -13 5 -11 0 -14 -3 -6 -6z"/>
<path d="M8218 1613 c6 -2 18 -2 25 0 6 3 1 5 -13 5 -14 0 -19 -2 -12 -5z"/>
<path d="M8283 1603 c9 -2 23 -2 30 0 6 3 -1 5 -18 5 -16 0 -22 -2 -12 -5z"/>
<path d="M8428 1603 c6 -2 18 -2 25 0 6 3 1 5 -13 5 -14 0 -19 -2 -12 -5z"/>
<path d="M10525 1420 c-3 -5 -1 -10 4 -10 6 0 11 5 11 10 0 6 -2 10 -4 10 -3
0 -8 -4 -11 -10z"/>
<path d="M10518 1365 c-8 -8 3 -55 13 -55 5 0 9 14 9 30 0 28 -9 38 -22 25z"/>
<path d="M10890 1334 c0 -34 1 -35 33 -32 28 3 32 7 35 36 3 31 2 32 -32 32
-35 0 -36 -1 -36 -36z"/>
<path d="M4461 1216 c-27 -29 -24 -60 6 -64 25 -4 46 27 41 60 -4 31 -21 32
-47 4z"/>
<path d="M1387 1214 c-4 -4 -7 -24 -7 -45 l0 -38 -77 -4 -78 -3 78 -2 77 -2 0
-50 0 -50 -27 17 c-35 21 -23 9 43 -45 59 -48 64 -50 64 -22 0 18 7 20 70 20
39 0 70 -4 70 -9 0 -17 -16 -21 -49 -11 -18 5 -31 5 -31 0 0 -5 -6 -7 -13 -4
-20 7 -43 -24 -29 -38 8 -8 6 -18 -6 -36 -9 -14 -26 -51 -37 -81 -20 -57 -46
-74 -53 -36 -2 11 -15 32 -29 47 -14 15 -23 33 -20 42 3 8 0 20 -8 26 -14 11
-19 100 -6 100 4 0 13 -6 21 -12 8 -7 6 -3 -3 8 -10 12 -19 31 -20 42 0 11 -5
18 -9 15 -5 -2 -6 -13 -3 -24 6 -17 1 -19 -49 -19 l-55 0 6 33 c3 17 11 35 16
39 7 4 6 12 -2 22 -7 8 -10 20 -6 26 3 5 2 10 -3 10 -5 0 -12 9 -15 20 -8 30
-51 46 -83 31 -18 -8 -25 -17 -21 -30 4 -16 -4 -19 -71 -25 -41 -3 -132 -7
-201 -8 -69 -1 -103 -3 -74 -5 44 -3 51 -7 46 -21 -4 -9 -12 -20 -19 -25 -7
-4 -15 -21 -19 -37 -5 -25 -12 -30 -35 -30 -15 0 -30 6 -33 14 -11 29 -117 24
-117 -6 0 -5 -10 -13 -22 -18 l-23 -9 23 0 c22 -1 31 -24 13 -36 -5 -3 -17
-28 -26 -55 -9 -27 -21 -53 -27 -56 -6 -4 -6 1 1 14 10 18 8 21 -17 24 -22 2
-26 7 -24 28 l4 25 -29 -27 c-16 -16 -32 -28 -36 -28 -4 0 -7 27 -7 59 l0 60
47 4 48 3 -49 2 -49 2 7 46 c3 26 6 53 6 60 0 11 30 14 143 16 l142 2 -120 3
c-157 4 -163 5 -167 46 -3 31 -5 32 -48 32 l-45 0 0 -100 0 -100 -160 -5 -160
-6 163 -2 163 -2 -3 -27 c-2 -23 -8 -28 -28 -27 -14 1 -33 4 -43 9 -14 6 -18
1 -23 -24 -6 -27 -24 -45 -24 -23 0 4 -13 23 -29 42 l-29 35 6 -53 c5 -59 -5
-66 -30 -22 -22 38 -36 38 -30 0 5 -38 -24 -42 -38 -5 -33 85 -33 85 -41 20
-4 -33 -7 -84 -8 -112 l-1 -53 35 0 c37 0 43 8 23 28 -7 7 -8 12 -4 12 4 0 16
-10 26 -22 l19 -23 10 25 c9 24 10 24 10 3 1 -15 7 -22 19 -21 51 4 70 -3 76
-27 4 -14 15 -34 25 -44 10 -10 29 -37 42 -62 13 -24 39 -53 57 -64 17 -11 35
-30 38 -42 8 -28 -12 -63 -36 -63 -26 0 -25 -3 8 -39 25 -27 46 -35 80 -32 23
2 12 22 -18 32 -36 13 -37 19 -5 53 26 28 31 29 111 30 38 1 51 -3 50 -13 -1
-10 10 -16 32 -17 18 -1 36 -5 40 -9 4 -4 -5 -6 -20 -3 -20 4 -29 0 -37 -19
-8 -18 -8 -23 3 -23 7 0 19 7 26 15 8 10 25 15 44 13 22 -2 31 1 31 12 0 10
-12 16 -35 18 -40 4 -70 27 -70 53 0 26 105 127 137 132 l28 4 -28 2 c-22 1
-27 5 -23 19 2 9 8 32 11 50 5 23 11 32 21 28 8 -3 14 1 14 9 0 8 -7 15 -16
15 -12 0 -44 54 -44 75 0 11 96 5 108 -7 7 -7 12 -27 12 -45 0 -22 10 -44 31
-68 28 -32 29 -35 10 -35 -11 0 -25 -9 -31 -19 -5 -11 -20 -22 -32 -24 l-23
-4 23 -2 c12 0 22 -5 22 -10 0 -11 -74 -41 -101 -41 -18 0 -20 -4 -15 -26 8
-30 35 -74 45 -74 17 0 50 -41 45 -55 -4 -8 -1 -15 6 -15 7 0 10 8 7 20 -4 16
0 20 18 20 13 0 25 -7 29 -15 6 -18 32 -20 42 -3 5 7 2 9 -9 5 -30 -12 -26 22
9 57 20 20 34 44 33 58 0 18 -2 16 -12 -12 -13 -38 -67 -80 -102 -80 -28 0
-71 33 -90 70 -19 37 -19 40 3 40 34 1 102 39 102 58 0 24 19 42 45 42 29 0
45 -19 45 -54 0 -28 1 -29 14 -10 10 14 11 21 3 26 -6 4 -9 9 -6 12 9 10 49
-34 49 -53 0 -10 -7 -24 -15 -31 -12 -10 -13 -16 -4 -26 15 -19 49 -18 49 1 0
20 10 19 25 -1 8 -12 26 -16 63 -16 42 1 52 -2 57 -18 4 -11 3 -30 -1 -42 -7
-23 -6 -23 14 -4 l21 19 -20 28 c-11 16 -25 29 -30 29 -5 0 -9 7 -9 15 0 9 -9
15 -25 15 -47 0 -59 57 -20 95 32 33 41 31 49 -5 3 -17 16 -41 29 -54 13 -13
29 -38 37 -55 7 -18 30 -47 52 -65 40 -34 47 -55 33 -90 -6 -13 -5 -17 2 -13
7 5 9 0 6 -13 -3 -11 0 -27 7 -35 9 -11 9 -15 1 -15 -6 0 -14 14 -17 30 -5 20
-12 30 -25 30 -24 0 -34 -19 -14 -27 10 -3 28 -17 41 -30 25 -25 54 -28 61 -6
3 7 -7 18 -21 24 -30 14 -33 31 -10 50 24 20 83 38 90 28 3 -5 15 -9 27 -9 12
0 33 -9 47 -19 21 -16 22 -21 11 -35 -21 -25 -4 -32 22 -8 12 11 38 22 57 24
48 4 40 22 -12 26 -44 3 -78 25 -78 49 0 8 14 22 32 31 41 22 88 72 88 94 0
25 17 31 23 7 3 -12 10 -18 16 -15 5 4 12 2 16 -4 4 -6 -6 -10 -25 -10 -18 0
-29 -4 -25 -10 8 -14 58 -13 72 1 14 14 47 4 38 -11 -3 -5 -4 -10 -2 -10 3 0
15 17 27 38 l22 37 -23 -22 c-22 -20 -27 -20 -56 -8 -25 11 -33 20 -33 40 0
26 10 38 93 113 20 19 37 38 37 44 0 6 -10 -1 -21 -16 -12 -15 -39 -38 -59
-51 -21 -13 -41 -33 -45 -45 -13 -41 -32 -21 -39 42 -4 35 -12 68 -17 74 -6 7
-4 16 5 24 10 8 13 22 9 43 -5 25 -4 29 10 24 10 -4 17 -2 17 3 0 6 -4 10 -9
10 -5 0 -11 15 -14 33 -4 24 4 51 31 105 43 89 68 110 109 90 15 -7 32 -23 38
-36 5 -12 13 -22 17 -22 12 0 10 8 -8 35 l-16 25 58 0 c67 0 70 7 4 11 -30 2
-50 9 -61 22 -21 26 -96 28 -115 3 -10 -14 -27 -16 -100 -14 l-89 3 -5 40 c-4
36 -8 40 -35 43 -17 2 -34 0 -38 -4z m-214 -101 c-2 -7 4 -13 12 -13 24 0 17
-17 -10 -24 -31 -8 -33 -41 -5 -64 22 -19 40 -102 21 -102 -6 0 -11 -7 -11
-15 0 -18 16 -20 23 -2 3 6 6 0 6 -15 1 -33 -12 -43 -29 -23 -24 29 -57 16
-51 -19 1 -5 -4 -13 -11 -17 -7 -4 -13 -16 -14 -26 0 -10 -1 -30 -2 -46 -2
-20 -9 -30 -29 -38 -16 -6 -38 -20 -50 -31 -32 -29 -88 -18 -98 19 -5 20 -9
23 -15 14 -6 -11 -11 -9 -20 8 -7 13 -17 20 -26 17 -7 -3 -13 -2 -12 2 1 4 -6
22 -15 39 -10 18 -22 44 -27 57 -8 21 -7 24 8 19 15 -6 15 -4 -2 15 -10 12
-22 20 -26 17 -4 -2 -12 7 -19 21 -15 33 -14 37 4 30 13 -4 13 -2 5 14 -5 10
-10 26 -10 36 0 14 2 15 17 3 15 -13 15 -12 0 18 -10 18 -17 34 -17 38 0 13
27 2 53 -22 24 -22 27 -24 19 -7 -6 11 -18 26 -26 34 -17 13 -22 40 -7 40 18
0 61 -42 83 -81 25 -45 62 -69 106 -69 38 0 49 15 72 90 10 34 27 71 36 82 20
21 71 22 67 1z m-94 -15 c-7 -13 -18 -41 -24 -63 -12 -38 -14 -40 -61 -46
l-49 -6 48 -1 c58 -2 55 -22 -3 -22 -42 0 -69 20 -95 71 -8 15 -28 38 -45 52
l-31 26 103 4 c57 1 118 4 136 5 31 2 32 1 21 -20z m576 11 c4 -5 0 -18 -10
-29 -9 -10 -20 -31 -24 -46 -7 -28 -9 -29 -84 -32 l-77 -3 0 61 0 60 94 0 c56
0 98 -4 101 -11z m-357 -143 c7 -16 7 -27 0 -34 -7 -7 -4 -18 7 -36 l17 -26
-51 0 c-51 0 -51 0 -51 33 0 17 -3 42 -6 54 -4 15 -1 22 13 26 42 11 60 6 71
-17z m-624 -8 c8 -13 7 -20 -5 -30 -26 -21 -29 -45 -9 -68 23 -27 35 -96 26
-153 -10 -60 -48 -112 -109 -148 -28 -17 -42 -28 -29 -24 25 7 29 -6 7 -25 -8
-6 -23 -9 -36 -5 -17 6 -19 9 -8 17 19 14 -15 5 -63 -16 -33 -14 -38 -14 -52
0 -9 8 -16 22 -16 29 0 8 -9 16 -19 20 -24 7 -81 71 -81 90 0 8 -11 26 -25 41
-28 31 -34 59 -9 50 10 -4 6 5 -10 25 -27 32 -26 55 2 44 14 -5 14 -4 0 12
-29 35 -32 77 -2 52 10 -8 11 -1 6 33 l-5 43 24 -16 c13 -9 43 -41 67 -72 48
-63 85 -78 146 -57 43 14 49 21 75 89 11 29 28 62 37 73 22 23 72 21 88 -4z
m74 -10 c0 -18 3 -43 7 -55 6 -20 4 -23 -20 -23 -25 0 -27 3 -23 35 2 19 0 35
-4 35 -4 0 -8 9 -8 20 0 15 7 20 24 20 21 0 24 -5 24 -32z m-658 -104 c0 -8
-5 -12 -10 -9 -6 4 -8 11 -5 16 9 14 15 11 15 -7z m1230 7 c0 -6 11 -22 25
-37 14 -15 25 -30 25 -34 0 -4 -23 -11 -52 -14 -48 -7 -54 -5 -79 21 -21 20
-27 34 -23 51 6 19 13 22 55 22 27 0 49 -4 49 -9z m-1220 -51 c0 -5 -4 -10
-10 -10 -5 0 -10 5 -10 10 0 6 5 10 10 10 6 0 10 -4 10 -10z m910 -195 c0 -28
-15 -34 -24 -9 -10 25 -7 34 9 34 9 0 15 -9 15 -25z m34 -21 c3 -8 2 -12 -4
-9 -6 3 -10 10 -10 16 0 14 7 11 14 -7z m-670 -145 c-4 -7 4 -20 17 -30 19
-15 21 -19 7 -19 -9 0 -24 10 -32 22 -15 22 -13 38 5 38 6 0 7 -5 3 -11z
m1179 -46 c-13 -2 -33 -2 -45 0 -13 2 -3 4 22 4 25 0 35 -2 23 -4z"/>
<path d="M1140 1095 c0 -8 5 -15 10 -15 6 0 10 7 10 15 0 8 -4 15 -10 15 -5 0
-10 -7 -10 -15z"/>
<path d="M860 917 c0 -117 128 -190 206 -116 35 33 29 45 -7 15 -21 -18 -42
-26 -67 -26 -39 0 -65 11 -61 26 1 5 -9 15 -22 21 -13 7 -18 13 -10 13 10 0 7
8 -9 25 -25 27 -21 31 13 14 16 -7 14 -4 -5 11 -16 12 -28 26 -28 32 0 6 11 8
28 4 l27 -6 -25 15 c-37 21 -40 19 -40 -28z"/>
<path d="M1086 932 c-3 -5 1 -15 9 -22 16 -14 20 -3 6 19 -5 8 -11 9 -15 3z"/>
<path d="M1130 905 c0 -2 10 -10 23 -16 20 -11 21 -11 8 4 -13 16 -31 23 -31
12z"/>
<path d="M632 949 c2 -6 8 -10 13 -10 5 0 11 4 13 10 2 6 -4 11 -13 11 -9 0
-15 -5 -13 -11z"/>
<path d="M315 701 c-8 -14 60 -81 81 -80 13 0 9 5 -14 17 -18 9 -31 21 -28 28
3 7 -5 14 -16 17 -11 3 -17 10 -13 16 3 6 4 11 1 11 -3 0 -7 -4 -11 -9z"/>
<path d="M550 667 c-18 -20 -42 -33 -80 -42 -37 -9 -46 -14 -27 -14 38 -1 87
21 116 53 14 14 23 27 20 29 -2 2 -15 -9 -29 -26z"/>
<path d="M6220 1170 l0 -39 -77 -4 -78 -3 76 -2 76 -2 5 -47 c2 -27 2 -84 -1
-128 l-6 -80 -55 -27 c-30 -16 -66 -28 -80 -28 -20 -1 -22 -2 -9 -10 12 -7 34
-1 80 23 61 31 69 32 186 33 68 0 126 4 130 7 4 4 -2 7 -13 6 -10 -1 -49 -1
-86 -1 l-68 2 0 60 0 60 88 2 87 2 -82 3 -83 4 0 59 0 59 98 4 97 3 -97 2 -98
2 0 40 0 40 -45 0 -45 0 0 -40z"/>
<path d="M8111 1183 c2 -24 2 -25 6 -5 2 12 6 22 8 22 18 0 125 -55 125 -65 0
-6 -29 -47 -65 -90 -84 -100 -84 -115 0 -161 50 -28 66 -32 90 -25 l30 9 -35
1 c-43 2 -134 50 -138 74 -6 29 17 47 62 48 l41 2 -34 6 -34 6 34 41 c19 22
41 51 50 64 15 22 18 23 63 11 82 -20 188 -29 256 -22 60 7 56 8 -45 8 -131 1
-180 11 -302 64 -51 21 -97 39 -103 39 -5 0 -9 -12 -9 -27z"/>
<path d="M8650 1174 c0 -6 7 -19 16 -30 14 -18 14 -18 3 6 -14 31 -19 36 -19
24z"/>
<path d="M72 1123 c37 -2 100 -2 140 0 40 1 10 3 -67 3 -77 0 -110 -1 -73 -3z"/>
<path d="M5588 1123 c6 -2 18 -2 25 0 6 3 1 5 -13 5 -14 0 -19 -2 -12 -5z"/>
<path d="M9298 1123 c6 -2 18 -2 25 0 6 3 1 5 -13 5 -14 0 -19 -2 -12 -5z"/>
<path d="M10703 1123 c20 -2 54 -2 75 0 20 2 3 4 -38 4 -41 0 -58 -2 -37 -4z"/>
<path d="M11118 1123 c23 -2 59 -2 80 0 20 2 1 4 -43 4 -44 0 -61 -2 -37 -4z"/>
<path d="M5763 1113 c37 -2 96 -2 130 0 34 2 4 3 -68 3 -71 0 -99 -1 -62 -3z"/>
<path d="M6607 1113 c18 -2 50 -2 70 0 21 2 7 4 -32 4 -38 0 -55 -2 -38 -4z"/>
<path d="M8645 1115 c6 -1 35 -10 65 -19 30 -10 73 -32 94 -50 l39 -34 -21
-29 c-14 -20 -22 -48 -24 -87 -2 -50 -7 -60 -25 -69 -13 -6 -23 -14 -23 -19 0
-11 17 -10 25 2 3 5 21 17 40 26 18 8 50 30 71 48 48 41 43 56 -43 137 l-67
62 75 -7 c40 -4 75 -11 77 -16 2 -5 17 -27 33 -50 23 -31 29 -50 27 -78 -3
-32 -12 -43 -78 -94 -91 -70 -127 -88 -174 -88 -40 0 -45 13 -19 42 15 17 15
20 2 34 -21 20 -39 11 -72 -36 -27 -39 -27 -39 -7 -50 19 -10 72 -8 138 6 21
4 22 2 22 -70 0 -72 13 -106 41 -106 5 0 9 -11 9 -24 0 -39 25 -56 81 -56 41
0 49 3 49 19 0 10 -20 41 -45 69 -44 49 -45 52 -45 116 0 37 4 66 10 66 6 0 9
14 8 31 -3 27 3 36 42 64 35 24 47 41 55 73 11 44 30 70 42 58 5 -4 8 -40 8
-79 -1 -66 0 -68 8 -31 11 49 -6 143 -32 175 -15 19 -34 23 -162 34 -80 7
-155 17 -166 24 -12 6 -32 11 -45 10 -13 0 -18 -2 -13 -4z"/>
<path d="M10373 1113 c43 -2 110 -2 150 0 40 1 5 3 -78 3 -82 0 -115 -2 -72
-3z"/>
<path d="M1715 1070 c3 -5 8 -10 11 -10 2 0 4 5 4 10 0 6 -5 10 -11 10 -5 0
-7 -4 -4 -10z"/>
<path d="M7908 1024 c-2 -19 0 -37 4 -40 4 -3 8 13 8 35 0 51 -6 53 -12 5z"/>
<path d="M4742 1015 c0 -16 2 -22 5 -12 2 9 2 23 0 30 -3 6 -5 -1 -5 -18z"/>
<path d="M5644 1009 c-4 -7 -3 -9 4 -5 6 3 28 -8 49 -26 21 -18 32 -25 24 -15
-12 15 -10 17 20 17 l32 0 -23 -25 c-19 -21 -21 -25 -7 -25 9 0 17 6 17 13 0
7 14 26 30 42 l30 29 0 -48 c0 -44 -1 -47 -22 -41 -18 6 -13 -3 21 -39 25 -25
47 -43 50 -41 2 3 -7 18 -22 33 -24 25 -25 30 -14 69 8 32 8 45 -2 57 -12 14
-16 14 -34 1 -28 -20 -91 -19 -121 1 -18 11 -26 12 -32 3z"/>
<path d="M6023 993 c37 -2 96 -2 130 0 34 2 4 3 -68 3 -71 0 -99 -1 -62 -3z"/>
<path d="M9583 993 c37 -2 97 -2 135 0 37 2 6 3 -68 3 -74 0 -105 -1 -67 -3z"/>
<path d="M10608 993 c12 -2 32 -2 45 0 12 2 2 4 -23 4 -25 0 -35 -2 -22 -4z"/>
<path d="M11133 993 c26 -2 68 -2 95 0 26 2 4 3 -48 3 -52 0 -74 -1 -47 -3z"/>
<path d="M6678 983 c12 -2 30 -2 40 0 9 3 -1 5 -23 4 -22 0 -30 -2 -17 -4z"/>
<path d="M8408 983 c56 -2 148 -2 205 0 56 1 10 3 -103 3 -113 0 -159 -2 -102
-3z"/>
<path d="M10418 983 c17 -2 47 -2 65 0 17 2 3 4 -33 4 -36 0 -50 -2 -32 -4z"/>
<path d="M9122 955 c0 -16 2 -22 5 -12 2 9 2 23 0 30 -3 6 -5 -1 -5 -18z"/>
<path d="M7889 905 c-15 -41 -15 -47 2 -85 10 -22 20 -40 23 -40 3 0 -2 16
-11 35 -15 31 -15 42 -5 82 16 59 11 64 -9 8z"/>
<path d="M5594 934 c-7 -3 -41 -9 -75 -13 l-64 -8 57 -2 c31 0 68 3 82 9 23 8
26 7 26 -13 0 -26 26 -67 42 -67 7 0 2 9 -10 20 -13 12 -22 33 -22 50 0 29 -9
35 -36 24z"/>
<path d="M5702 915 c0 -16 2 -22 5 -12 2 9 2 23 0 30 -3 6 -5 -1 -5 -18z"/>
<path d="M5067 924 c-9 -9 4 -35 14 -28 5 3 9 12 9 20 0 14 -12 19 -23 8z"/>
<path d="M5096 893 c-11 -28 -1 -31 29 -10 17 13 17 14 -3 19 -13 4 -23 0 -26
-9z"/>
<path d="M6638 892 c-5 -19 -13 -22 -60 -23 -29 -1 -43 -4 -30 -6 12 -2 20 -9
17 -14 -4 -5 10 -9 30 -9 29 0 37 5 46 27 5 14 8 31 6 37 -2 6 -6 0 -9 -12z"/>
<path d="M9131 894 c0 -11 3 -14 6 -6 3 7 2 16 -1 19 -3 4 -6 -2 -5 -13z"/>
<path d="M6034 845 c-4 -14 -4 -29 0 -32 3 -4 6 4 6 16 0 26 25 38 45 21 9 -8
15 -9 15 -2 0 6 12 13 28 15 15 2 1 5 -30 6 -54 1 -58 -1 -64 -24z"/>
<path d="M8668 863 c23 -2 59 -2 80 0 20 2 1 4 -43 4 -44 0 -61 -2 -37 -4z"/>
<path d="M9563 863 c9 -2 23 -2 30 0 6 3 -1 5 -18 5 -16 0 -22 -2 -12 -5z"/>
<path d="M6685 852 c4 -8 11 -26 15 -40 7 -22 8 -23 9 -6 1 11 -6 29 -15 40
-8 10 -12 13 -9 6z"/>
<path d="M5770 835 c0 -9 5 -15 11 -13 6 2 11 8 11 13 0 5 -5 11 -11 13 -6 2
-11 -4 -11 -13z"/>
<path d="M1411 824 c0 -11 3 -14 6 -6 3 7 2 16 -1 19 -3 4 -6 -2 -5 -13z"/>
<path d="M5900 832 c0 -5 10 -8 23 -8 17 1 23 -5 25 -27 3 -29 -12 -57 -31
-57 -5 0 -3 8 6 18 19 20 22 48 8 57 -5 3 -13 0 -17 -6 -4 -8 -3 -9 4 -5 8 5
12 -1 12 -16 0 -17 -2 -20 -9 -9 -7 11 -10 9 -13 -10 -2 -18 -10 -25 -31 -27
-16 -2 -35 2 -43 9 -8 7 -14 7 -14 1 0 -13 24 -22 58 -22 l27 -1 -29 -24 c-16
-13 -74 -47 -128 -75 -95 -50 -100 -51 -114 -34 -14 18 -14 16 -9 -16 3 -19
18 -61 32 -93 21 -44 24 -60 15 -69 -9 -9 -22 -2 -58 32 -25 25 -59 65 -76 90
-18 27 -28 36 -25 23 4 -18 0 -23 -22 -26 -23 -4 -23 -4 6 -6 25 -1 44 -15
100 -76 53 -57 76 -75 96 -75 27 0 38 22 17 35 -11 7 -53 87 -64 121 -6 21 -6
21 31 9 35 -12 38 -16 35 -48 -4 -45 13 -55 44 -26 35 33 42 84 16 119 l-21
28 45 22 c25 12 72 42 105 67 51 38 59 49 59 77 0 18 -5 37 -12 44 -14 14 -48
16 -48 4z m-130 -286 c0 -44 -13 -62 -30 -41 -7 8 -9 15 -5 15 19 0 -20 29
-47 35 l-30 7 38 23 c36 22 40 22 57 8 9 -9 17 -30 17 -47z"/>
<path d="M9115 788 c-10 -29 -21 -56 -24 -61 -4 -4 -18 7 -31 24 -21 29 -21
33 -6 44 9 7 16 17 16 23 0 5 -13 -2 -30 -16 -33 -29 -36 -45 -18 -103 10 -35
15 -39 42 -38 17 1 42 5 56 9 l25 8 -27 1 c-29 1 -35 10 -19 27 11 12 44 125
38 131 -3 2 -13 -20 -22 -49z"/>
<path d="M6000 813 c0 -6 8 -17 18 -24 16 -13 16 -13 2 6 -8 11 -16 22 -17 24
-2 2 -3 0 -3 -6z"/>
<path d="M6040 792 c0 -6 6 -12 13 -15 9 -3 7 -13 -6 -39 -15 -29 -23 -34 -45
-32 -24 3 -25 3 -4 -4 13 -4 23 -10 23 -14 -1 -5 -1 -14 -1 -22 0 -8 -12 -17
-27 -19 -26 -4 -26 -4 5 -6 28 -1 32 -5 33 -28 0 -16 4 -37 8 -48 5 -11 6 15
3 57 -4 66 -2 82 17 114 12 20 21 37 19 38 -2 1 -11 8 -20 15 -11 8 -18 9 -18
3z"/>
<path d="M767 783 c-4 -3 -7 -11 -7 -17 0 -6 5 -5 12 2 6 6 9 14 7 17 -3 3 -9
2 -12 -2z"/>
<path d="M2777 753 c-4 -3 -7 -11 -7 -17 0 -6 5 -5 12 2 6 6 9 14 7 17 -3 3
-9 2 -12 -2z"/>
<path d="M4240 739 c0 -5 5 -7 10 -4 6 3 10 8 10 11 0 2 -4 4 -10 4 -5 0 -10
-5 -10 -11z"/>
<path d="M6850 713 c6 -13 20 -23 30 -23 11 0 20 -6 20 -12 0 -10 2 -10 9 0
13 21 21 -10 12 -45 -6 -23 -14 -29 -41 -31 -21 -2 -29 -6 -21 -11 9 -6 3 -14
-21 -29 -18 -12 -30 -22 -26 -22 22 0 118 73 124 94 11 44 1 61 -36 64 -18 2
-40 11 -48 20 -11 15 -12 14 -2 -5z"/>
<path d="M6760 710 c0 -5 5 -10 10 -10 6 0 10 5 10 10 0 6 -4 10 -10 10 -5 0
-10 -4 -10 -10z"/>
<path d="M8980 670 c-12 -8 -9 -10 13 -10 16 0 26 4 22 10 -8 12 -16 12 -35 0z"/>
<path d="M7961 660 c0 -8 6 -26 15 -40 l15 -25 -7 25 c-3 14 -10 32 -15 40 -7
13 -8 13 -8 0z"/>
<path d="M5240 615 c-12 -20 -38 -44 -58 -55 -21 -10 -32 -19 -26 -20 7 0 24
-24 39 -52 37 -71 63 -98 96 -98 30 0 46 14 28 26 -14 8 -48 83 -49 107 0 25
34 21 65 -7 33 -30 77 -41 105 -26 37 20 16 34 -66 46 -44 6 -96 17 -117 23
-34 12 -37 15 -24 29 17 20 40 62 33 62 -2 0 -14 -16 -26 -35z m4 -71 c9 -3
13 -10 10 -15 -3 -5 -14 -5 -25 1 -11 6 -24 8 -29 5 -6 -3 -10 -1 -10 4 0 12
29 14 54 5z m-6 -50 c6 3 19 -9 30 -28 18 -30 18 -35 5 -40 -21 -8 -30 0 -53
47 -23 48 -25 60 -5 33 7 -10 18 -15 23 -12z"/>
<path d="M6800 621 c0 -9 30 -24 36 -18 2 1 -6 8 -16 15 -11 7 -20 8 -20 3z"/>
<path d="M6880 620 c0 -5 5 -10 11 -10 5 0 7 5 4 10 -3 6 -8 10 -11 10 -2 0
-4 -4 -4 -10z"/>
<path d="M732 553 c2 -9 10 -18 18 -20 12 -4 13 -3 1 5 -7 5 -10 15 -7 21 4 6
2 11 -4 11 -6 0 -10 -8 -8 -17z"/>
<path d="M1806 555 c-11 -29 -7 -37 10 -20 11 11 13 20 7 26 -7 7 -12 5 -17
-6z"/>
<path d="M6216 523 c-6 -14 -5 -15 5 -6 7 7 10 15 7 18 -3 3 -9 -2 -12 -12z"/>
<path d="M6770 530 c-8 -5 -10 -10 -5 -10 6 0 17 5 25 10 8 5 11 10 5 10 -5 0
-17 -5 -25 -10z"/>
<path d="M6710 513 c-8 -2 -25 -9 -36 -15 -15 -7 -28 -7 -45 2 l-23 13 25 -30
c13 -17 28 -28 32 -26 5 3 25 -11 45 -30 37 -36 48 -40 89 -38 20 1 21 3 11
26 -6 14 -14 22 -17 17 -16 -25 -47 -20 -85 13 l-39 34 27 13 c22 10 32 9 49
-2 19 -12 20 -11 10 2 -7 8 -10 18 -6 21 7 8 -14 8 -37 0z"/>
<path d="M1583 495 c-3 -9 -3 -19 1 -22 3 -4 6 1 6 10 0 8 10 18 23 20 l22 4
-23 2 c-12 0 -25 -6 -29 -14z"/>
<path d="M6029 493 c-13 -16 -12 -17 4 -4 9 7 17 15 17 17 0 8 -8 3 -21 -13z"/>
<path d="M1804 472 c-6 -31 -47 -82 -66 -82 -4 0 -1 -11 8 -25 9 -14 22 -25
29 -25 16 0 37 25 28 33 -3 4 -11 0 -17 -8 -10 -13 -13 -13 -23 4 -10 16 -9
22 12 35 23 15 53 82 41 93 -3 4 -9 -8 -12 -25z"/>
<path d="M6167 471 c-35 -23 -48 -37 -20 -22 30 15 33 14 33 -11 0 -38 97
-148 129 -148 33 0 33 16 0 68 -42 68 -37 85 26 93 l50 6 -45 2 c-42 1 -94 11
-130 24 -8 3 -27 -2 -43 -12z m105 -44 c-2 -15 4 -37 12 -49 42 -60 -1 -64
-55 -5 -27 29 -38 51 -39 73 l0 32 43 -13 c37 -11 42 -15 39 -38z"/>
<path d="M126 420 c-13 -29 -30 -81 -37 -116 -7 -35 -15 -64 -19 -64 -3 0 -11
26 -18 58 -7 32 -18 67 -26 77 -12 16 -12 12 -5 -31 4 -27 8 -83 7 -124 l0
-75 -13 50 c-13 49 -13 47 -14 -72 l-1 -123 228 0 227 0 30 53 c16 28 31 58
33 65 2 6 8 12 13 12 5 0 9 5 9 11 0 5 13 24 30 42 16 17 27 33 25 35 -6 6
-66 -37 -113 -82 -24 -23 -41 -34 -38 -26 2 8 14 47 27 85 12 39 30 87 41 108
19 38 19 38 0 28 -23 -12 -89 -108 -104 -152 -8 -22 -13 -27 -19 -18 -9 15
-11 14 -26 -21 -10 -24 -11 -24 -22 18 -16 58 -11 97 12 96 9 -1 17 2 17 7 0
5 10 9 23 9 16 0 18 3 8 9 -7 5 -10 14 -7 20 4 6 2 11 -3 11 -6 0 -11 -6 -11
-14 0 -20 -19 -31 -32 -18 -8 8 -7 16 2 27 16 20 3 20 -17 -1 -11 -11 -13 -18
-5 -26 8 -8 3 -20 -18 -45 -17 -19 -30 -41 -30 -49 0 -8 -4 -12 -10 -9 -5 3
-10 -1 -10 -10 0 -11 -7 -15 -22 -13 -27 4 -35 26 -12 35 22 8 57 43 44 43 -7
0 -7 7 0 21 18 32 7 32 -36 -1 -21 -16 -42 -30 -45 -30 -3 0 -2 23 4 51 7 35
14 49 23 45 8 -3 14 1 14 9 0 7 8 21 17 31 16 16 16 16 -7 9 -23 -7 -24 -7
-10 10 13 16 13 18 0 13 -8 -3 -14 -13 -13 -24 1 -10 -7 -29 -18 -42 -10 -14
-19 -29 -19 -34 0 -5 -9 -28 -19 -51 -10 -23 -21 -51 -25 -62 -9 -34 3 207 13
250 14 57 5 56 -23 -5z m185 -313 c-8 -8 -11 -4 -11 14 0 33 14 47 18 19 2
-12 -1 -27 -7 -33z m-41 -78 c0 -12 -7 -19 -19 -19 -23 0 -35 15 -27 35 7 20
46 7 46 -16z"/>
<path d="M6005 406 c-7 -71 4 -106 34 -106 14 0 21 13 31 60 9 43 18 61 32 66
11 3 17 8 15 11 -14 13 -45 -20 -52 -54 -9 -50 -13 -55 -35 -43 -17 9 -19 18
-13 70 3 33 3 60 1 60 -3 0 -9 -29 -13 -64z"/>
<path d="M10900 466 c0 -2 22 -48 50 -103 27 -54 50 -103 50 -110 0 -6 14 -52
30 -101 17 -50 30 -101 29 -113 0 -13 -13 12 -28 56 -16 44 -36 96 -46 115
-19 37 -67 100 -75 100 -3 0 -14 -13 -23 -30 -22 -37 -28 -37 -48 -1 -16 27
-16 29 4 47 15 12 18 19 8 22 -7 2 -21 -5 -32 -17 -23 -25 -37 -27 -45 -6 -9
22 15 47 37 40 23 -8 57 9 40 19 -7 4 -18 3 -26 -4 -10 -9 -16 -7 -24 7 -9 17
-10 17 -16 1 -4 -10 -16 -18 -27 -18 -13 0 -18 -6 -16 -17 2 -10 -3 -23 -12
-30 -13 -11 -11 -12 13 -13 15 0 27 -4 27 -10 0 -5 9 -9 21 -7 17 2 27 -11 54
-73 33 -73 37 -99 12 -68 -19 24 -60 48 -81 48 -18 0 -16 -4 11 -33 32 -34 68
-95 60 -104 -3 -2 -13 9 -23 26 -19 32 -41 43 -30 15 3 -9 9 -28 12 -42 l7
-27 -28 25 -28 25 6 -25 c4 -14 7 -33 7 -42 0 -16 11 -18 90 -18 l90 0 -16 38
c-29 67 -54 146 -51 157 5 13 51 -77 72 -143 l17 -52 149 0 149 0 -1 183 c0
142 -3 177 -11 157 -7 -14 -20 -43 -30 -65 -10 -22 -22 -59 -25 -83 -3 -23
-10 -45 -16 -49 -7 -4 -8 46 -4 150 3 87 4 157 2 157 -2 0 -14 -45 -26 -100
-13 -55 -26 -100 -30 -100 -4 0 -13 17 -20 38 -37 111 -60 135 -35 36 8 -33
17 -84 21 -114 l7 -55 -45 90 c-49 100 -157 252 -157 221z m24 -208 c2 -7 13
-35 24 -61 32 -70 27 -78 -16 -28 -35 40 -37 46 -28 77 11 33 15 36 20 12z"/>
<path d="M750 449 c0 -5 5 -7 10 -4 6 3 10 8 10 11 0 2 -4 4 -10 4 -5 0 -10
-5 -10 -11z"/>
<path d="M1590 453 c0 -5 15 -24 33 -43 18 -20 32 -45 32 -60 0 -18 6 -26 23
-28 24 -4 29 7 10 26 -10 10 -10 15 2 22 12 8 11 10 -6 10 -12 0 -37 17 -58
40 -20 22 -36 37 -36 33z"/>
<path d="M6418 453 c12 -2 32 -2 45 0 12 2 2 4 -23 4 -25 0 -35 -2 -22 -4z"/>
<path d="M6590 422 c0 -7 -6 -12 -14 -12 -18 0 -46 -38 -46 -62 0 -16 4 -16
46 -3 44 13 84 40 84 56 0 4 -11 -3 -25 -16 -28 -29 -65 -33 -65 -9 0 9 8 23
17 30 10 7 15 16 10 20 -4 4 -7 2 -7 -4z"/>
<path d="M173 365 c0 -14 5 -28 11 -32 6 -3 8 -3 4 2 -4 4 -3 14 2 20 7 9 6
16 -4 24 -11 9 -13 7 -13 -14z"/>
<path d="M1097 365 c-15 -14 -35 -25 -43 -25 -11 0 -12 -3 -4 -12 6 -7 16 -21
23 -31 12 -17 14 -17 26 -3 11 13 11 16 -2 16 -30 0 -28 20 5 49 18 17 31 30
28 30 -3 0 -18 -11 -33 -24z"/>
<path d="M967 359 c12 -12 24 -21 27 -18 2 2 -8 13 -22 23 l-27 19 22 -24z"/>
<path d="M9195 369 c-4 -6 -5 -12 -2 -15 2 -3 7 2 10 11 7 17 1 20 -8 4z"/>
<path d="M9962 343 c7 -16 19 -37 29 -48 9 -11 21 -29 27 -41 l11 -21 -40 20
c-22 11 -42 17 -45 14 -12 -12 17 -45 53 -62 67 -31 87 -73 23 -48 -22 9 -43
13 -47 10 -11 -12 28 -46 66 -58 39 -13 51 -24 51 -52 0 -16 -2 -16 -25 -1
-13 8 -32 14 -42 12 -32 -7 38 -68 77 -68 23 0 31 4 27 13 -3 8 5 27 19 43 13
16 23 42 23 59 l0 30 -29 -34 c-16 -19 -31 -33 -34 -30 -13 13 -9 49 7 67 24
26 37 107 16 100 -8 -2 -24 -22 -35 -43 -20 -34 -22 -35 -28 -17 -4 12 -2 31
4 42 6 11 10 40 8 63 l-4 42 -18 -39 c-19 -43 -28 -40 -46 17 -10 32 -34 57
-54 57 -3 0 0 -12 6 -27z"/>
<path d="M837 330 c-14 -16 -28 -43 -32 -60 -8 -38 -16 -38 -38 0 -10 17 -22
30 -28 30 -16 0 -10 -44 12 -79 16 -26 19 -42 14 -70 -4 -20 -10 -29 -12 -21
-9 29 -26 60 -35 60 -4 0 -8 -17 -9 -37 -1 -35 -2 -34 -13 17 -12 56 -38 114
-55 124 -6 4 -6 -7 -1 -26 16 -62 21 -133 12 -158 -9 -24 -10 -24 -17 13 -9
47 -19 53 -33 22 -7 -14 -20 -25 -30 -25 -23 0 -46 -25 -72 -76 -11 -21 -20
-40 -20 -41 0 -2 63 -3 139 -3 l140 0 6 44 c6 39 11 46 35 51 30 6 78 51 67
62 -4 3 -25 -1 -47 -10 -22 -8 -40 -12 -40 -7 0 11 29 40 40 40 12 0 70 50 70
60 0 8 -32 1 -72 -15 -27 -11 -21 7 16 51 35 41 54 84 38 84 -6 0 -21 -13 -35
-30z"/>
<path d="M245 330 c3 -5 8 -10 11 -10 2 0 4 5 4 10 0 6 -5 10 -11 10 -5 0 -7
-4 -4 -10z"/>
<path d="M1007 325 c-4 -8 -2 -17 4 -20 5 -4 7 -10 4 -15 -3 -4 2 -10 10 -14
22 -8 29 14 9 28 -9 7 -14 18 -10 24 4 7 3 12 -2 12 -6 0 -12 -7 -15 -15z"/>
<path d="M9118 315 c2 -14 8 -25 12 -25 10 0 1 38 -10 45 -4 2 -5 -7 -2 -20z"/>
<path d="M10330 337 c0 -5 8 -21 19 -35 27 -40 50 -87 77 -161 l25 -66 -26 31
c-24 31 -115 97 -152 111 -10 4 13 -27 50 -67 38 -41 78 -91 88 -112 l19 -38
160 0 160 0 0 49 c0 62 -17 152 -31 166 -8 7 -10 -3 -7 -37 5 -39 0 -55 -24
-98 -16 -29 -32 -50 -34 -47 -5 4 4 48 22 109 8 28 -18 12 -45 -27 -26 -38
-36 -38 -44 1 -4 21 1 30 28 45 18 11 36 27 39 36 11 29 -10 34 -39 11 -25
-20 -28 -20 -22 -4 4 10 4 35 0 55 -6 34 -7 35 -14 11 -4 -14 -8 -52 -8 -85
l-2 -60 -34 40 c-37 43 -40 37 -25 -35 6 -25 12 -56 15 -70 3 -14 -17 20 -45
75 -43 86 -148 228 -150 202z"/>
<path d="M2856 317 c3 -10 9 -15 12 -12 3 3 0 11 -7 18 -10 9 -11 8 -5 -6z"/>
<path d="M8477 323 c-4 -3 -7 -11 -7 -17 0 -6 5 -5 12 2 6 6 9 14 7 17 -3 3
-9 2 -12 -2z"/>
<path d="M4236 307 c3 -10 9 -15 12 -12 3 3 0 11 -7 18 -10 9 -11 8 -5 -6z"/>
<path d="M9036 307 c3 -10 9 -15 12 -12 3 3 0 11 -7 18 -10 9 -11 8 -5 -6z"/>
<path d="M2980 295 c-7 -9 -8 -15 -2 -15 5 0 12 7 16 15 3 8 4 15 2 15 -2 0
-9 -7 -16 -15z"/>
<path d="M8380 290 c6 -11 13 -20 16 -20 2 0 0 9 -6 20 -6 11 -13 20 -16 20
-2 0 0 -9 6 -20z"/>
<path d="M2800 292 c0 -12 19 -26 26 -19 2 2 -2 10 -11 17 -9 8 -15 8 -15 2z"/>
<path d="M3485 270 c-17 -33 -19 -44 -6 -36 10 6 33 66 26 66 -3 0 -11 -13
-20 -30z"/>
<path d="M4038 258 c-9 -18 -23 -53 -29 -78 -7 -25 -13 -46 -14 -48 -1 -1 -19
13 -40 33 -21 19 -41 33 -43 30 -2 -2 6 -20 18 -40 25 -41 22 -52 -10 -35 -18
10 -24 9 -31 -1 -6 -11 -14 -9 -38 9 -33 24 -37 22 -20 -10 10 -19 9 -20 -16
-14 -20 5 -26 3 -23 -6 6 -18 170 -22 333 -8 149 13 190 30 72 30 -42 0 -77 3
-77 6 0 3 5 14 10 25 15 27 2 24 -22 -6 -28 -35 -38 -31 -26 11 12 46 4 54
-16 17 -16 -27 -16 -26 -11 45 3 39 4 72 2 72 -1 0 -10 -15 -19 -32z"/>
<path d="M3400 265 c0 -5 5 -17 10 -25 5 -8 10 -10 10 -5 0 6 -5 17 -10 25 -5
8 -10 11 -10 5z"/>
<path d="M9770 241 c0 -6 4 -13 10 -16 5 -3 21 -26 35 -50 29 -48 49 -109 34
-100 -5 4 -9 -4 -9 -17 -1 -21 -2 -21 -17 7 -23 43 -81 113 -105 126 -18 9
-17 5 8 -38 15 -26 34 -57 41 -68 15 -23 17 -39 3 -30 -5 3 -10 1 -10 -6 0 -8
-4 -8 -16 2 -22 18 -46 68 -39 79 3 6 2 10 -4 10 -6 0 -22 -21 -37 -46 -23
-39 -28 -44 -37 -29 -6 12 -6 30 2 55 6 20 11 46 11 56 -1 17 -3 16 -21 -5
l-19 -24 -34 39 c-35 40 -58 41 -38 2 7 -13 28 -42 47 -66 45 -56 47 -82 5
-51 -36 27 -48 20 -25 -15 10 -14 14 -26 11 -26 -17 0 -64 31 -70 46 -4 9 -9
15 -11 12 -3 -3 1 -18 10 -34 22 -43 18 -54 -7 -15 -20 31 -22 32 -34 16 -12
-17 -14 -17 -20 -2 -8 22 -24 22 -24 0 0 -10 -9 0 -19 22 -18 40 -61 87 -61
68 0 -6 6 -26 14 -44 7 -19 17 -45 21 -58 l7 -24 -31 23 c-38 26 -45 23 -32
-14 l11 -26 345 0 c190 0 345 2 345 5 0 13 -40 82 -53 93 -12 10 -13 4 -10
-40 l3 -53 -24 65 c-13 36 -26 76 -29 90 -4 14 -13 34 -21 45 -13 18 -13 15
-1 -29 8 -27 15 -70 14 -95 l0 -46 -15 54 c-8 30 -26 69 -39 87 -14 18 -25 42
-25 53 0 14 -6 21 -20 21 -11 0 -20 -4 -20 -9z"/>
<path d="M3515 229 c-4 -6 -5 -12 -2 -15 2 -3 7 2 10 11 7 17 1 20 -8 4z"/>
<path d="M911 173 c-35 -69 -61 -100 -81 -96 -24 5 -39 -10 -46 -45 l-6 -32
556 0 c492 0 557 2 563 15 8 23 -5 31 -27 17 -25 -15 -25 -6 0 35 29 48 2 43
-50 -10 l-43 -42 8 35 c4 19 16 57 26 84 10 28 16 52 13 55 -9 9 -42 -40 -60
-89 -10 -25 -20 -49 -24 -53 -4 -4 -19 10 -35 33 -34 49 -49 52 -29 5 19 -46
18 -65 -5 -65 -14 0 -18 5 -14 20 6 24 -5 25 -35 4 -25 -17 -26 -16 -12 20 11
29 8 31 -20 16 -16 -8 -18 -8 -14 5 10 25 -23 17 -45 -12 -26 -32 -35 -26 -21
12 17 44 3 42 -46 -6 -30 -29 -48 -40 -51 -31 -4 10 -8 10 -19 1 -8 -7 -14 -7
-14 -1 0 5 16 22 35 36 41 31 46 51 11 42 -20 -5 -23 -3 -19 13 3 10 0 22 -6
25 -7 5 -11 -4 -11 -23 0 -37 -6 -38 -31 -8 l-18 22 -1 -26 c0 -15 7 -32 15
-39 21 -17 19 -25 -10 -38 -24 -11 -25 -10 -25 21 l-1 32 -24 -28 -25 -28 0
30 c0 34 -14 40 -29 14 -8 -16 -11 -15 -20 10 -6 16 -11 37 -11 47 0 35 -19
31 -26 -5 -7 -39 -15 -43 -35 -19 -17 20 -69 47 -69 35 0 -5 4 -11 8 -13 4 -1
18 -20 30 -41 15 -27 19 -41 12 -50 -6 -7 -18 -21 -26 -32 -15 -20 -15 -20
-11 3 6 26 -5 28 -38 6 -30 -20 -33 -5 -5 21 20 18 27 45 13 45 -5 -1 -19 -7
-33 -15 -45 -26 -45 -16 0 30 24 24 41 47 37 51 -3 3 -31 -8 -61 -26 -31 -17
-60 -29 -65 -25 -5 3 -14 -3 -20 -12 -23 -40 -11 24 14 73 29 56 28 54 15 54
-5 0 -23 -26 -39 -57z"/>
<path d="M6647 195 c-15 -14 -27 -32 -27 -40 0 -8 -5 -17 -11 -21 -8 -4 -9 3
-4 25 8 37 -10 43 -19 6 -7 -29 -26 -25 -26 5 0 10 -5 22 -12 26 -8 5 -9 -3
-5 -29 3 -21 2 -37 -4 -37 -5 0 -9 6 -9 13 0 7 -7 22 -16 33 -15 18 -15 17
-11 -17 l5 -36 -73 -7 c-40 -4 -237 -6 -438 -5 -225 0 -372 -3 -383 -9 -14 -8
-2 -12 52 -16 38 -4 86 -9 106 -12 37 -6 56 -18 41 -27 -5 -3 -147 -8 -318
-11 -170 -3 -362 -8 -425 -11 -63 -3 -203 -7 -310 -10 -107 -3 -196 -8 -199
-10 -2 -3 352 -5 788 -5 484 0 790 4 786 9 -3 5 21 12 52 16 198 20 262 28
386 47 133 20 179 38 97 38 -22 0 -40 2 -40 5 0 3 11 28 25 55 14 28 24 50 23
50 -2 0 -16 -11 -31 -25z"/>
<path d="M8706 201 c-4 -5 -2 -12 3 -15 5 -4 12 -2 15 3 4 5 2 12 -3 15 -5 4
-12 2 -15 -3z"/>
<path d="M8760 198 c0 -10 -4 -18 -10 -18 -6 0 -10 -30 -10 -70 0 -38 3 -70 8
-70 4 0 7 30 8 66 0 36 6 69 12 73 7 4 8 12 2 21 -8 13 -10 12 -10 -2z"/>
<path d="M10214 158 c-17 -33 -54 -135 -54 -150 0 -4 18 -8 40 -8 l40 0 0 95
c0 52 -2 95 -5 95 -2 0 -12 -14 -21 -32z"/>
<path d="M4266 167 c3 -10 9 -15 12 -12 3 3 0 11 -7 18 -10 9 -11 8 -5 -6z"/>
<path d="M3100 139 c-18 -33 -18 -104 0 -104 8 0 18 -4 22 -10 11 -15 25 5 31
47 7 43 -3 48 -27 16 -16 -22 -17 -22 -12 25 6 51 3 58 -14 26z"/>
<path d="M7965 143 c4 -10 12 -39 18 -65 12 -48 12 -48 53 -48 31 0 43 4 47
18 2 9 8 26 12 37 4 13 -4 8 -24 -15 -17 -19 -31 -32 -31 -30 0 3 7 27 15 54
8 27 15 54 15 60 0 17 -31 -33 -39 -62 -7 -25 -8 -25 -30 21 -21 44 -52 69
-36 30z"/>
<path d="M2753 127 c-15 -33 -17 -83 -4 -92 12 -7 24 51 19 91 l-3 29 -12 -28z"/>
<path d="M4527 123 c-21 -39 -22 -73 -2 -73 17 0 28 36 23 76 l-3 29 -18 -32z"/>
<path d="M3190 138 c0 -2 -7 -24 -15 -50 -19 -64 -1 -71 20 -9 9 27 22 52 28
55 7 2 2 5 -10 5 -13 1 -23 0 -23 -1z"/>
<path d="M5254 116 c-15 -24 -18 -25 -34 -11 -27 24 -30 18 -12 -25 24 -56 48
-53 60 7 13 57 9 64 -14 29z"/>
<path d="M10305 108 c18 -78 31 -103 58 -106 26 -3 26 -2 16 25 -14 38 -62
113 -72 113 -5 0 -5 -14 -2 -32z"/>
<path d="M8605 113 c4 -10 10 -30 13 -46 4 -28 22 -48 22 -25 0 28 -22 88 -32
88 -6 0 -7 -7 -3 -17z"/>
<path d="M2521 103 c7 -12 15 -20 18 -17 3 2 -3 12 -13 22 -17 16 -18 16 -5
-5z"/>
<path d="M2801 94 c-12 -15 -21 -33 -21 -40 0 -26 15 -14 32 26 19 47 17 50
-11 14z"/>
<path d="M4464 95 c7 -29 -1 -31 -33 -9 -22 16 -23 16 -12 -5 7 -11 17 -21 24
-21 7 0 22 -3 35 -6 17 -5 22 -2 22 12 -1 20 -22 54 -35 54 -4 0 -4 -11 -1
-25z"/>
<path d="M8680 99 c0 -33 11 -69 20 -69 8 0 -4 77 -14 87 -3 4 -6 -5 -6 -18z"/>
<path d="M3030 108 c0 -2 9 -22 20 -44 17 -35 19 -37 20 -13 0 14 -9 34 -20
44 -11 10 -20 16 -20 13z"/>
<path d="M8828 70 c5 -48 22 -43 22 6 0 21 -5 34 -13 34 -9 0 -11 -12 -9 -40z"/>
<path d="M2702 68 c6 -21 15 -38 20 -38 14 0 9 27 -12 51 l-19 24 11 -37z"/>
<path d="M7942 70 c10 -30 28 -50 28 -31 0 17 -23 61 -31 61 -4 0 -3 -14 3
-30z"/>
<path d="M2485 80 c3 -5 11 -10 16 -10 6 0 7 5 4 10 -3 6 -11 10 -16 10 -6 0
-7 -4 -4 -10z"/>
<path d="M4566 71 c-13 -14 -14 -21 -6 -26 13 -8 30 11 30 33 0 16 -4 15 -24
-7z"/>
<path d="M7893 60 c11 -29 27 -41 27 -19 0 16 -20 49 -29 49 -5 0 -4 -13 2
-30z"/>
<path d="M5285 69 c-11 -17 1 -21 15 -4 8 9 8 15 2 15 -6 0 -14 -5 -17 -11z"/>
<path d="M9218 44 l5 -37 -35 27 c-47 36 -63 34 -43 -4 14 -28 20 -30 70 -30
l55 0 -20 40 c-25 50 -37 51 -32 4z"/>
<path d="M10256 65 c-3 -9 -6 -28 -6 -41 0 -20 5 -24 29 -24 l30 0 -13 37
c-14 41 -30 52 -40 28z"/>
</g>
</svg>
