<?xml version="1.0" standalone="no"?>
<!DOCTYPE svg PUBLIC "-//W3C//DTD SVG 20010904//EN"
 "http://www.w3.org/TR/2001/REC-SVG-20010904/DTD/svg10.dtd">
<svg version="1.0" xmlns="http://www.w3.org/2000/svg"
 width="1408.000000pt" height="252.000000pt" viewBox="0 0 1408.000000 252.000000"
 preserveAspectRatio="xMidYMid meet">

<g transform="translate(0.000000,252.000000) scale(0.100000,-0.100000)"
fill="#000000" stroke="none">
<path d="M10016 2368 l-36 -53 -106 4 c-97 3 -109 1 -159 -24 -30 -14 -55 -30
-55 -33 0 -4 19 -6 43 -4 l42 3 -75 -41 c-94 -51 -139 -63 -198 -54 -43 6 -46
6 -33 -10 18 -22 48 -38 86 -46 l30 -7 -30 -7 c-81 -19 -107 -29 -135 -53 -17
-14 -29 -27 -28 -29 2 -1 22 1 45 6 26 6 51 6 65 1 21 -9 21 -10 3 -10 -34 -2
-118 -47 -149 -80 -34 -35 -31 -46 8 -31 15 5 39 10 53 10 25 0 25 -1 9 -19
-20 -22 -97 -51 -135 -51 -22 0 -23 -2 -11 -14 8 -8 31 -19 50 -24 l35 -10
-50 -23 c-45 -22 -63 -24 -180 -24 -96 1 -160 7 -245 25 -187 38 -279 28 -395
-43 l-50 -30 -85 22 c-93 24 -179 27 -231 9 -35 -11 -58 -27 -168 -110 -95
-73 -154 -80 -263 -33 -29 12 -21 -14 16 -51 19 -19 29 -34 22 -34 -35 0 -92
26 -127 57 -43 39 -48 32 -29 -39 18 -64 70 -113 150 -140 17 -5 5 -6 -34 -3
-52 5 -57 4 -46 -10 22 -26 116 -66 172 -72 105 -11 212 40 285 136 18 23 33
37 33 29 -1 -29 -39 -95 -73 -125 -21 -18 -37 -34 -37 -37 0 -2 19 0 42 6 70
15 102 48 159 164 49 98 75 130 122 147 21 8 21 0 1 -49 -9 -21 -16 -67 -16
-104 -1 -89 35 -168 129 -284 107 -134 113 -126 -90 -128 l-172 -2 175 -6 175
-5 9 -56 c15 -93 23 -89 -186 -89 -101 0 -247 3 -325 7 l-143 6 0 74 0 73 133
2 132 2 -130 6 -130 5 -5 50 c-5 46 -7 50 -34 53 -15 2 -40 1 -53 -3 -23 -5
-24 -10 -21 -53 l3 -47 -125 -5 -125 -6 128 -2 128 -2 -3 -72 -3 -73 -240 -8
c-236 -8 -239 -8 -255 13 l-16 21 -19 -20 c-24 -27 -113 -29 -157 -3 -28 16
-30 16 -39 0 -9 -16 -28 -18 -166 -18 -86 0 -154 -2 -152 -4 2 -2 70 -6 152
-8 81 -3 148 -8 148 -12 9 -61 -90 -81 -261 -51 -47 8 -86 15 -87 15 -2 0 -3
13 -3 29 0 20 6 31 18 34 16 4 16 5 0 6 -15 1 -18 11 -18 65 0 35 2 70 5 78 4
10 39 13 158 12 l152 -1 -130 7 c-71 4 -140 8 -152 9 -19 1 -22 8 -25 48 -3
44 -5 47 -36 55 -20 5 -40 5 -52 -2 -18 -10 -20 -21 -20 -140 0 -72 -1 -131
-2 -131 -2 -1 -84 -5 -183 -9 l-180 -6 183 -2 182 -2 0 -23 c0 -20 -9 -25 -67
-40 -38 -10 -79 -26 -93 -37 -34 -27 -43 -25 -35 9 4 20 1 34 -10 45 -23 22
-40 20 -63 -9 -11 -14 -29 -25 -41 -25 -39 0 -21 -42 24 -53 11 -3 -59 -4
-155 -3 l-175 1 -11 53 c-11 50 -11 53 13 72 22 17 43 20 132 22 l106 2 -97 3
c-54 2 -98 7 -98 12 0 4 8 15 19 25 10 9 26 34 36 55 17 39 18 39 84 45 36 3
147 9 246 13 99 4 151 9 115 11 -36 1 -144 -1 -240 -6 -96 -4 -177 -7 -179 -6
-13 9 80 162 135 222 l66 72 56 -1 c53 -1 126 -10 198 -24 22 -5 43 -1 72 14
48 24 62 46 62 94 0 29 -7 41 -44 71 -24 19 -58 56 -74 81 l-31 46 40 40 c50
50 53 85 7 94 -20 4 -47 0 -70 -9 l-37 -16 -31 40 c-29 37 -35 40 -81 40 -52
0 -74 -14 -110 -69 -15 -24 -15 -24 -43 -6 -35 23 -125 26 -150 6 -15 -13 -15
-16 3 -46 l19 -33 -56 -11 c-30 -6 -122 -11 -203 -11 -81 0 -181 -4 -221 -9
-40 -5 -119 -12 -175 -16 l-103 -6 0 29 c0 18 -6 32 -16 36 -29 11 -79 6 -102
-10 l-23 -16 21 34 c22 36 25 65 10 88 -8 12 -15 9 -40 -22 -30 -36 -30 -36
-61 -21 -38 19 -112 13 -138 -11 -18 -17 -20 -16 -31 18 -6 20 -16 36 -21 36
-18 0 -37 -62 -29 -92 8 -24 6 -27 -8 -19 -37 19 -91 22 -128 6 -31 -13 -35
-18 -30 -39 8 -32 -15 -36 -184 -29 -101 4 -162 1 -243 -11 -154 -25 -385 -23
-568 5 -222 33 -320 18 -402 -59 -16 -15 -53 -62 -83 -104 -70 -101 -110 -128
-186 -128 -50 0 -62 4 -92 31 -57 50 -61 127 -9 207 17 26 39 46 60 53 44 14
91 65 99 106 7 38 -16 101 -47 129 -17 15 -18 14 -17 -24 0 -43 -8 -66 -22
-57 -14 9 -69 -70 -78 -113 -6 -23 -21 -55 -35 -72 -68 -80 -59 -218 18 -278
90 -71 241 -46 322 53 l29 35 15 -155 14 -155 -85 -2 -85 -2 85 -5 85 -6 0
-80 c-1 -87 -17 -126 -84 -204 -30 -34 -30 -34 -97 -28 -37 4 -69 8 -71 10 -2
2 -1 35 3 73 l6 69 117 -1 c64 -1 91 0 61 2 -170 11 -177 13 -184 46 -3 18 -3
53 0 79 6 46 8 48 43 52 l36 4 -37 1 -38 2 0 49 c0 46 -1 49 -31 55 -17 3 -42
3 -55 0 -22 -6 -24 -12 -24 -59 l0 -54 -38 -3 c-26 -2 -44 3 -60 17 -23 19
-23 19 -28 -3 -6 -20 -8 -20 -27 -7 -32 23 -50 19 -43 -8 5 -21 3 -23 -24 -19
-28 4 -30 2 -30 -27 0 -33 29 -71 55 -71 13 0 13 -3 3 -20 -12 -19 -24 -20
-279 -20 l-266 0 0 29 c0 21 6 31 19 35 19 4 19 5 -1 25 -43 43 -30 51 87 53
l107 2 -104 3 c-89 3 -107 7 -118 23 -17 24 -81 46 -95 32 -6 -6 -16 -8 -24
-5 -7 2 -19 -5 -26 -16 -12 -19 -22 -21 -125 -21 l-113 0 0 43 c0 59 -9 69
-61 65 l-44 -3 -3 -52 -3 -53 -109 0 c-100 0 -109 2 -115 20 -9 29 -48 52 -79
46 -37 -7 -46 -14 -46 -41 0 -22 -4 -23 -107 -30 -104 -7 -494 -1 -666 11
l-87 7 0 36 c0 46 -14 61 -60 61 -46 0 -60 -15 -60 -61 l0 -36 -77 -7 c-42 -3
-129 -6 -195 -6 -67 0 -118 -4 -118 -9 0 -9 148 -7 322 4 76 4 78 3 78 -97 l0
-58 -142 -1 c-79 -1 -170 -5 -203 -9 -42 -6 1 -8 140 -7 l200 2 1 -52 c1 -29
-2 -53 -7 -53 -11 0 -21 18 -12 23 5 2 2 2 -5 0 -8 -1 -23 4 -35 12 -32 22
-46 18 -55 -17 -11 -45 -28 -45 -51 0 -11 21 -26 44 -34 51 -13 10 -14 4 -10
-47 6 -70 -9 -90 -30 -40 -8 18 -21 39 -30 47 -15 12 -17 9 -17 -28 0 -65 -29
-55 -64 21 l-30 63 -7 -70 c-3 -38 -7 -100 -8 -137 l-1 -68 45 0 c42 0 58 11
35 25 -6 3 -10 12 -10 18 0 7 11 -1 25 -18 13 -16 24 -24 25 -16 0 11 3 11 17
0 15 -13 16 -11 9 14 -4 19 -3 26 4 22 5 -3 10 -15 10 -26 0 -14 6 -19 23 -18
12 1 38 1 58 1 32 -2 36 -5 32 -26 -3 -16 4 -34 24 -57 17 -19 43 -58 58 -87
18 -34 46 -65 72 -83 36 -25 43 -35 43 -62 -1 -41 -21 -68 -50 -65 -31 4 -37
-20 -7 -27 13 -4 29 -17 35 -30 14 -30 64 -48 87 -31 16 12 16 13 0 29 -9 9
-23 17 -30 17 -23 0 -27 18 -11 47 15 29 111 79 121 63 3 -5 20 -12 38 -15 17
-4 40 -14 50 -23 15 -13 20 -14 26 -3 6 9 11 10 15 2 4 -6 3 -11 -2 -11 -10 0
-25 -60 -17 -68 3 -3 14 3 26 14 15 13 34 18 65 17 36 -1 44 2 44 17 0 21 -19
30 -64 30 -17 0 -41 7 -53 15 -16 12 -23 12 -27 2 -5 -12 2 33 10 64 3 9 19
27 37 39 52 36 94 100 107 166 7 32 16 64 21 70 6 8 5 17 -4 26 -8 7 -20 31
-27 52 -15 47 -6 56 62 56 54 0 78 -23 78 -75 0 -47 31 -87 113 -146 82 -58
100 -90 77 -135 -24 -45 10 -72 46 -37 12 13 19 14 22 5 2 -7 13 -10 27 -6 13
3 33 0 46 -6 20 -11 25 -10 41 10 22 28 15 40 -23 40 -25 0 -33 6 -45 36 -13
32 -13 38 1 60 19 29 61 58 73 50 5 -3 15 -26 22 -52 8 -28 23 -53 41 -66 15
-11 30 -34 33 -51 4 -20 26 -50 61 -83 57 -54 64 -74 43 -119 -8 -18 -19 -25
-41 -25 -25 0 -28 -2 -17 -15 7 -8 18 -15 26 -15 7 0 19 -10 25 -22 7 -13 17
-26 23 -30 17 -12 54 -9 62 4 7 11 -22 41 -49 51 -9 3 -7 14 7 41 14 26 26 36
43 36 13 0 34 5 46 11 16 9 22 9 25 0 2 -6 14 -11 27 -11 24 0 95 -36 95 -48
0 -4 -4 -14 -9 -22 -17 -26 1 -32 26 -8 18 16 36 23 66 23 35 0 42 3 42 20 0
18 -7 20 -56 20 -98 0 -133 57 -59 95 51 26 101 79 115 121 l12 34 12 -24 c11
-20 11 -25 -3 -33 -9 -5 -16 -16 -16 -24 0 -11 9 -13 39 -8 22 4 53 2 70 -4
20 -7 33 -7 37 -1 9 15 -13 36 -46 43 -45 8 -59 47 -35 92 10 20 33 45 49 56
42 29 106 90 106 101 0 5 -18 -9 -39 -31 -22 -23 -53 -48 -69 -56 -16 -8 -39
-32 -51 -51 -12 -20 -26 -35 -32 -33 -6 2 -12 31 -14 65 -2 34 -11 77 -19 97
-13 31 -13 35 1 40 12 5 14 16 10 47 -5 39 -4 41 19 36 29 -5 31 4 4 21 -11 6
-17 18 -14 26 3 8 0 24 -6 36 -10 18 -8 26 8 43 11 12 28 44 38 72 43 115 110
146 173 79 34 -35 34 -36 9 -33 -14 2 -33 -2 -42 -10 -20 -16 -21 -67 -2 -74
8 -3 19 -22 26 -42 11 -33 10 -41 -14 -85 -25 -45 -37 -130 -18 -130 4 0 20
25 36 56 32 60 74 94 116 93 24 -1 24 -1 -4 -9 -76 -23 -119 -109 -102 -199
13 -66 36 -81 36 -24 0 21 4 44 9 52 6 10 9 0 9 -30 -1 -24 6 -58 15 -74 l16
-30 2 45 2 45 6 -45 c4 -25 13 -56 21 -70 14 -25 14 -25 26 25 7 28 13 40 13
27 2 -46 38 -92 54 -69 7 9 10 9 14 -1 11 -27 56 -72 93 -93 31 -17 39 -29 44
-59 7 -48 1 -66 -27 -74 -21 -6 -21 -7 -3 -21 23 -17 10 -39 -29 -49 -39 -10
-29 -26 16 -26 24 0 52 -8 67 -19 15 -10 38 -17 52 -16 14 2 28 4 33 4 4 1 7
8 7 16 0 17 -30 35 -59 35 -29 0 -35 16 -21 64 7 27 24 52 44 68 l33 26 62
-30 c50 -24 62 -34 58 -49 -7 -26 11 -35 28 -13 10 15 16 16 27 6 8 -6 19 -8
23 -4 5 4 5 2 2 -4 -8 -13 16 -37 26 -27 4 3 7 0 7 -7 0 -11 4 -10 17 2 30 31
4 62 -76 92 l-70 27 6 37 c4 29 18 48 63 89 90 81 119 172 96 293 -5 28 -5 41
1 35 6 -5 16 -43 22 -82 7 -40 17 -76 22 -79 5 -3 16 12 24 33 9 21 20 46 25
55 6 10 10 29 10 43 0 24 2 25 70 25 l70 0 0 -69 c0 -38 -10 -113 -21 -167
-32 -149 -33 -154 -19 -154 9 0 11 -13 8 -44 -3 -24 -1 -51 4 -61 21 -37 132
-61 144 -31 3 8 -4 36 -17 62 -25 56 -26 100 -3 221 19 103 30 136 44 128 5
-3 7 0 5 7 -3 8 9 27 27 44 49 46 108 88 108 76 0 -5 9 -12 20 -15 12 -3 20
-14 20 -26 0 -21 17 -50 99 -166 59 -84 101 -161 101 -186 0 -10 9 -24 21 -32
11 -8 24 -28 28 -43 5 -22 17 -32 46 -42 43 -14 93 -8 101 13 3 7 -17 44 -43
82 -111 154 -194 333 -155 333 4 0 12 15 17 33 l10 32 87 3 87 3 3 -82 c2 -55
7 -84 16 -87 8 -2 12 8 13 30 1 19 3 25 6 13 10 -47 15 -51 29 -20 12 27 13
28 14 7 0 -13 4 -20 10 -17 6 3 10 39 10 80 l0 74 203 -6 c111 -3 203 -7 205
-8 7 -6 30 -119 26 -130 -6 -13 -99 -70 -132 -80 -13 -4 -36 -8 -50 -10 -30
-3 -48 -25 -62 -75 -15 -53 -13 -70 9 -70 38 0 160 58 208 98 27 23 52 42 55
42 2 0 4 -13 3 -30 -1 -16 3 -30 8 -30 5 0 7 -17 4 -39 -3 -23 0 -46 7 -55 15
-20 60 -36 103 -36 35 0 36 0 30 36 -3 20 -13 44 -22 54 -18 20 -20 46 -2 53
10 4 10 6 0 6 -8 1 -13 15 -13 36 0 77 38 16 67 -106 9 -41 25 -82 35 -92 10
-10 18 -28 18 -41 0 -31 20 -47 69 -53 49 -7 91 3 91 21 0 7 -25 50 -55 95
-53 80 -95 185 -95 240 0 16 -9 54 -20 86 -30 88 -29 92 36 100 42 5 60 3 69
-7 38 -40 146 -213 156 -250 7 -24 20 -50 30 -60 11 -9 19 -25 19 -37 0 -28
38 -51 85 -51 61 0 72 11 49 48 -10 16 -32 52 -48 78 -16 27 -37 62 -48 77
-30 44 -78 150 -78 173 0 30 16 34 126 34 l94 0 0 -67 c0 -69 6 -74 27 -20 12
30 12 29 7 -23 l-5 -55 20 25 c19 22 21 23 18 5 -1 -11 2 -22 8 -25 12 -6 22
39 24 108 l1 52 205 0 c201 0 205 0 205 -21 0 -11 -5 -29 -10 -39 -13 -24 -90
-70 -117 -70 -11 0 -26 -7 -33 -15 -7 -8 -23 -15 -36 -15 -27 0 -42 -28 -51
-93 -7 -44 -5 -44 86 -17 49 15 82 34 130 74 35 30 76 60 92 66 19 8 33 25 44
55 l17 43 38 -74 c22 -40 46 -105 54 -144 8 -40 21 -79 29 -88 9 -10 17 -28
19 -42 2 -20 13 -28 53 -41 53 -17 94 -14 102 7 2 7 -14 37 -36 67 -48 64 -89
159 -101 237 -4 30 -11 68 -15 83 l-7 28 181 -1 c99 -1 183 -5 185 -9 2 -3 -5
-33 -16 -66 -23 -67 -20 -146 7 -209 6 -15 4 -23 -10 -30 -39 -23 -55 -46 -55
-81 0 -20 -7 -51 -15 -71 -15 -36 -8 -75 15 -89 18 -11 47 22 71 79 21 51 22
52 74 62 l53 9 30 -60 c47 -95 76 -125 123 -125 41 0 52 17 25 39 -21 18 -57
107 -50 126 5 11 15 15 33 11 67 -13 152 -16 216 -8 l70 9 60 -65 c33 -35 64
-73 69 -83 12 -24 72 -52 96 -44 26 8 25 17 -6 54 -23 27 -74 138 -74 160 0 9
82 -18 95 -31 4 -3 2 -16 -5 -28 -6 -11 -8 -30 -5 -41 17 -51 95 20 95 87 0
20 -10 44 -26 63 -24 29 -24 31 -7 38 41 16 161 95 207 138 43 40 48 48 42 77
-9 45 -23 57 -62 56 -19 -1 -40 4 -46 10 -9 9 15 12 101 12 l113 0 -15 -24
c-9 -13 -13 -27 -10 -30 4 -3 12 7 19 24 14 33 43 40 63 16 18 -22 -4 -62 -25
-46 -15 13 -9 34 7 25 5 -4 9 -1 9 4 0 14 -27 14 -35 1 -17 -28 43 -71 65 -45
6 7 38 25 73 41 60 28 68 29 215 29 84 0 143 3 130 6 -21 6 -21 6 7 11 17 3
-18 6 -77 7 l-108 1 0 77 0 76 137 -6 c75 -4 223 -7 329 -7 l194 0 -3 -54 c-2
-49 1 -58 29 -88 99 -105 211 -305 213 -382 1 -11 -8 -30 -20 -42 -21 -23 -51
-133 -50 -186 0 -38 18 -68 40 -68 13 0 23 14 35 47 38 105 36 102 85 116 l46
13 16 -31 c22 -44 99 -144 119 -155 20 -11 60 -2 60 14 0 6 -14 31 -30 56 -29
44 -37 83 -22 107 5 8 28 9 82 3 43 -5 107 -5 151 1 61 7 83 6 112 -6 20 -8
47 -15 59 -15 l23 0 -22 -18 c-12 -9 -25 -29 -28 -44 -6 -23 -4 -28 11 -29 58
-4 104 17 124 58 8 15 16 30 17 32 1 2 23 -15 48 -38 44 -40 95 -55 110 -31 9
14 -18 60 -71 119 -25 28 -45 53 -43 55 2 2 39 18 82 36 43 18 91 43 107 56
15 13 33 24 39 24 40 0 56 122 16 128 -55 8 -66 15 -90 56 -14 24 -34 51 -45
61 -11 10 -20 26 -20 37 0 16 8 18 63 18 l62 0 32 -68 c49 -103 81 -180 106
-257 19 -55 31 -75 58 -93 19 -13 37 -36 42 -52 11 -43 82 -63 142 -40 24 9
25 11 11 38 -8 15 -41 51 -74 79 -40 35 -68 70 -87 110 l-28 58 24 117 23 116
65 -33 c55 -27 94 -53 200 -132 2 -2 -1 -14 -7 -28 -10 -21 -8 -29 15 -56 28
-33 87 -64 103 -54 48 30 -71 275 -133 275 -6 0 5 -14 26 -31 30 -25 97 -131
97 -154 0 -5 -28 0 -72 12 -11 2 -18 14 -18 29 0 13 -4 24 -9 24 -4 0 -31 18
-58 39 -27 22 -89 61 -138 88 -85 46 -90 50 -97 88 -5 33 1 59 33 145 23 58
43 126 46 152 3 27 9 48 14 48 4 0 44 -16 88 -36 l80 -37 -30 -44 c-17 -24
-55 -71 -85 -104 -29 -34 -56 -69 -59 -79 -10 -31 12 -57 80 -95 l64 -36 351
1 c229 0 350 -3 350 -9 0 -6 -14 -18 -30 -26 -26 -13 -37 -14 -64 -4 -44 16
-57 10 -95 -47 -28 -43 -30 -49 -15 -57 16 -9 168 -3 196 8 10 4 12 -12 10
-80 -4 -93 8 -127 48 -140 15 -5 20 -15 20 -39 0 -19 7 -40 17 -47 17 -14 125
-20 138 -7 13 13 -6 47 -60 108 l-55 61 0 79 c0 67 3 80 16 80 13 0 15 8 12
36 -3 30 1 39 25 60 24 20 39 24 92 24 59 0 63 -2 69 -25 5 -21 0 -31 -24 -51
-20 -17 -30 -35 -30 -53 0 -40 30 -121 44 -121 28 0 65 64 98 168 19 62 20 74
8 161 -6 52 -14 101 -16 110 -2 9 3 1 11 -18 9 -18 19 -63 22 -100 l6 -66 89
-90 c48 -49 112 -121 141 -160 32 -42 62 -71 77 -75 19 -4 26 -13 28 -37 2
-17 12 -39 22 -48 24 -22 87 -30 123 -16 l28 11 -18 32 c-10 17 -33 45 -51 62
-41 39 -222 242 -245 276 -18 25 -23 45 -9 36 4 -2 86 -1 182 3 l175 8 -187 1
-187 2 -10 38 c-6 20 -11 54 -11 74 l0 37 73 4 72 3 -72 2 -73 2 0 78 0 78 73
-2 c39 -1 99 -9 132 -18 75 -21 271 -31 347 -19 45 8 60 7 71 -4 14 -14 30
-19 150 -43 51 -10 57 -14 57 -36 l0 -24 -234 0 c-129 0 -237 -3 -239 -7 -3
-5 102 -7 234 -5 l239 3 0 -75 0 -76 -177 -3 -178 -2 178 -3 c165 -2 177 -3
177 -21 0 -14 -6 -17 -25 -13 -14 2 -31 -1 -39 -7 -17 -14 -56 -95 -56 -116 0
-21 42 -19 110 5 30 10 56 15 58 9 6 -15 32 -10 39 9 4 9 15 23 25 30 10 7 27
31 38 53 l20 39 129 0 128 0 17 -51 c9 -29 28 -62 41 -75 21 -20 24 -27 14
-42 -29 -46 35 -112 106 -112 26 0 26 1 19 47 -3 27 -12 59 -19 73 l-13 25
112 0 c122 0 149 3 140 16 -3 5 2 9 10 9 8 0 18 -4 21 -10 10 -17 33 -11 40
10 8 26 35 26 42 0 4 -16 13 -20 47 -19 35 0 38 2 18 10 -32 12 -25 43 11 47
31 4 46 -20 27 -43 -10 -12 -10 -15 1 -16 94 -5 99 -5 100 16 0 18 1 17 10 -4
9 -23 10 -24 24 -5 8 11 15 14 15 7 0 -22 26 -14 40 12 10 20 11 28 2 37 -7 7
-12 19 -12 27 0 11 4 10 21 -5 20 -18 29 -14 42 21 3 6 8 6 13 2 4 -4 0 -21
-9 -36 -12 -20 -14 -36 -9 -52 7 -19 10 -20 15 -6 8 22 27 22 28 0 1 -13 3
-11 7 5 9 29 27 29 27 -1 0 -22 2 -22 148 -25 l147 -3 0 103 c-1 102 -1 103
-19 80 -11 -12 -28 -22 -39 -22 -18 0 -19 5 -15 42 7 47 -7 46 -32 -3 -19 -36
-55 -40 -55 -6 -1 21 -2 20 -16 -5 -8 -16 -17 -28 -19 -28 -3 0 -12 18 -21 40
-20 48 -32 51 -36 8 l-4 -33 -19 32 c-25 41 -32 41 -40 3 -8 -38 -21 -38 -43
0 -20 35 -28 37 -37 10 -13 -40 -26 -19 -23 38 l3 57 205 -1 205 -2 -155 8
c-85 4 -176 8 -202 9 l-48 1 0 75 c0 53 4 75 13 75 9 0 9 2 0 8 -6 4 -13 28
-15 52 l-3 45 -50 0 -50 0 -3 -45 c-2 -24 -9 -48 -15 -52 -9 -6 -9 -8 1 -8 8
0 12 -22 12 -75 l0 -74 -57 -4 -58 -3 58 -2 57 -2 0 -52 c-1 -37 -6 -60 -19
-76 -25 -29 -29 -28 -24 6 l4 27 -30 -35 c-17 -19 -29 -40 -27 -46 3 -7 -3
-10 -15 -7 -12 4 -22 17 -26 36 l-6 30 -19 -22 c-10 -13 -18 -29 -18 -37 0 -8
-4 -14 -10 -14 -5 0 -10 5 -10 10 0 6 -7 10 -15 10 -8 0 -20 9 -27 20 -16 26
-28 26 -28 0 0 -19 -7 -20 -178 -20 l-179 0 -32 58 c-18 31 -44 82 -60 112
-19 39 -43 67 -81 95 l-53 40 59 6 59 7 -65 -2 -65 -1 -62 58 -61 58 20 46
c18 41 20 59 14 144 l-7 97 46 124 c25 67 56 136 69 153 22 27 26 28 50 17 15
-7 40 -12 56 -12 48 0 139 -39 175 -76 39 -38 59 -41 109 -17 29 14 37 24 45
62 12 55 10 59 -85 173 -41 49 -74 95 -74 103 0 8 -22 40 -50 70 -54 60 -54
60 -40 123 6 26 7 50 1 59 -7 13 -13 9 -36 -25 -36 -54 -48 -53 -39 3 9 63
-13 60 -59 -9 l-36 -55 -58 21 c-72 25 -129 21 -203 -15 l-55 -26 43 6 c63 8
51 -4 -28 -28 -70 -21 -161 -23 -205 -4 -20 8 -20 8 0 -14 25 -29 67 -51 96
-51 37 0 14 -11 -54 -25 -84 -18 -138 -45 -176 -92 -39 -47 -39 -58 -2 -39 37
20 120 33 106 18 -21 -23 -169 -93 -187 -89 -10 3 -18 2 -18 -2 0 -15 46 -32
88 -34 l43 -1 -23 -19 c-13 -10 -45 -31 -73 -47 -27 -17 -43 -30 -35 -31 8 0
2 -7 -15 -14 -47 -22 -179 -18 -342 11 -161 28 -253 28 -332 0 -24 -9 -46 -14
-49 -12 -8 9 37 143 57 167 17 21 21 22 58 11 22 -7 52 -12 66 -12 41 0 139
-41 172 -72 35 -32 36 -32 87 -18 41 12 52 26 62 82 7 36 4 40 -80 130 -48 51
-95 112 -105 134 -11 23 -35 56 -55 74 l-36 32 11 55 c17 88 14 92 -30 43
l-41 -45 6 48 c4 36 2 47 -8 47 -19 0 -82 -87 -90 -125 -4 -21 1 -15 19 21 14
28 35 60 48 72 l23 22 -6 -53 c-7 -69 -22 -93 -31 -52 -6 28 -7 28 -8 -9 l-1
-39 25 23 c23 21 26 22 47 7 53 -38 97 -85 118 -125 11 -24 54 -78 94 -120 40
-42 77 -85 83 -96 20 -36 -14 -116 -48 -116 -4 0 -21 14 -38 31 -38 38 -42 26
-4 -13 22 -23 24 -28 9 -28 -9 0 -27 11 -39 24 -26 27 -138 76 -176 76 -51 0
-100 21 -126 53 -16 19 -22 23 -16 10 6 -12 15 -25 21 -28 5 -3 0 -15 -11 -26
-26 -26 -34 -48 -76 -209 -32 -123 -35 -143 -28 -221 7 -99 -3 -152 -43 -216
l-26 -41 -53 30 c-30 17 -56 29 -58 26 -6 -6 151 -84 234 -115 45 -17 81 -38
92 -53 13 -17 25 -73 40 -180 l22 -155 -28 -79 -29 -79 -28 34 c-31 37 -35 54
-14 62 12 5 14 28 12 124 -3 122 -19 178 -61 213 -10 9 -76 18 -187 27 -94 7
-183 19 -197 26 -15 7 -38 35 -54 67 -15 30 -25 44 -21 30 4 -14 13 -37 20
-52 14 -27 13 -27 -23 -35 -21 -4 -99 -8 -173 -8 -156 1 -210 13 -368 82 -57
24 -110 42 -118 39 -8 -3 -14 -17 -14 -31 0 -28 -36 -142 -66 -210 l-18 -40
-7 66 c-4 37 -12 76 -18 87 -6 11 -63 57 -126 102 l-115 81 27 52 c22 44 27
70 33 167 9 159 28 200 103 229 88 32 140 35 277 13 276 -45 321 -41 487 44
59 31 114 61 122 67 8 7 46 55 84 107 123 166 206 238 345 297 32 13 44 21 27
18 -114 -24 -246 -132 -375 -304 -44 -58 -90 -113 -102 -122 -13 -8 -72 -38
-133 -66 -147 -68 -181 -72 -410 -38 -192 28 -232 28 -320 -6 -27 -10 -51 -19
-52 -19 -6 0 52 149 74 193 19 38 28 47 41 41 9 -4 42 -10 72 -14 79 -10 121
-27 155 -64 39 -43 57 -48 111 -35 50 13 62 28 70 92 6 42 4 46 -51 108 -78
86 -115 138 -115 161 0 10 -9 27 -19 37 -16 16 -17 20 -5 23 12 2 6 13 -19 44
-34 39 -35 41 -25 86 6 25 8 54 4 64 -7 18 -9 17 -28 -6 -62 -78 -78 -88 -78
-46 0 36 -12 86 -20 86 -4 0 -24 -24 -44 -52z m1463 -125 c-11 -57 -12 -58
-33 -34 -16 18 -15 20 9 50 15 17 28 31 30 31 1 0 -2 -21 -6 -47z m-1282 -75
c11 -13 28 -38 37 -56 9 -18 44 -65 77 -105 59 -69 57 -69 -33 23 -51 53 -104
110 -116 128 -22 30 -22 32 -4 32 10 0 28 -10 39 -22z m2779 -205 c9 -18 35
-54 57 -79 66 -75 26 -46 -47 34 -38 42 -66 81 -66 94 0 21 0 21 20 3 12 -11
28 -34 36 -52z m-6529 -220 c32 -35 58 -74 65 -98 15 -53 81 -142 124 -167 32
-19 34 -22 28 -61 -4 -23 -13 -48 -22 -54 -22 -18 -93 -16 -120 3 -13 9 -25
14 -28 12 -7 -8 29 -35 61 -46 17 -6 22 -11 13 -11 -9 -1 -29 4 -45 10 -15 6
-74 15 -131 19 -78 7 -110 14 -135 30 l-32 22 29 -25 29 -25 -36 -35 c-19 -20
-48 -52 -63 -73 -28 -36 -29 -37 -35 -13 -15 53 -9 97 16 127 19 22 25 41 25
75 0 29 6 49 17 58 13 12 17 12 21 1 2 -7 14 -25 27 -40 20 -23 31 -27 96 -30
61 -2 80 1 106 17 48 30 51 61 13 134 -42 80 -52 91 -116 126 -83 48 -81 101
4 101 30 0 43 -9 89 -57z m-1244 -22 c-12 -33 -35 -52 -49 -40 -11 9 -9 17 14
43 26 31 46 29 35 -3z m-241 -37 c10 -3 18 -14 18 -25 0 -16 -6 -20 -27 -17
-36 4 -59 44 -48 84 l7 29 16 -32 c8 -18 24 -35 34 -39z m191 -21 c28 -34 53
-79 62 -109 16 -56 69 -131 114 -163 24 -17 29 -27 27 -59 -1 -20 -5 -42 -9
-49 -13 -21 -92 -27 -126 -10 -17 9 -31 11 -31 7 0 -15 37 -30 77 -31 34 0 36
-1 16 -11 -16 -8 -34 -6 -69 6 -27 9 -79 16 -120 16 -83 0 -118 10 -156 48
-16 14 -28 21 -28 14 0 -6 15 -24 34 -39 l35 -27 -45 -48 c-41 -44 -83 -121
-155 -288 -23 -52 -92 -140 -110 -140 -5 0 -10 35 -11 78 l-2 77 -3 -70 c-3
-52 3 -95 23 -170 14 -55 31 -122 36 -150 19 -94 41 -156 75 -212 18 -30 33
-57 33 -59 0 -3 -70 -24 -82 -24 -5 0 -8 5 -8 12 0 6 -8 20 -17 31 -10 10 -23
46 -30 80 -7 33 -28 93 -47 131 -19 39 -37 94 -41 121 -10 69 -29 110 -60 131
-38 24 -155 28 -313 10 -181 -21 -253 -20 -339 5 l-72 22 -42 -37 c-24 -20
-46 -36 -51 -36 -5 0 -7 -12 -6 -26 4 -34 -18 -43 -26 -11 -5 21 -11 23 -66
23 -56 0 -60 -1 -60 -23 0 -13 -4 -23 -10 -23 -5 0 -10 10 -10 22 0 12 -12 35
-27 50 l-27 28 50 51 c27 28 64 58 81 65 29 13 38 12 83 -5 63 -24 66 -17 4
11 -30 13 -57 18 -76 14 l-30 -6 16 28 c10 15 3 9 -15 -13 -18 -22 -88 -94
-155 -160 -92 -89 -127 -131 -138 -161 -21 -61 -48 -243 -41 -276 7 -28 6 -28
-39 -28 -44 0 -46 1 -40 24 4 16 1 27 -9 33 -13 7 -11 21 9 100 13 51 26 137
30 192 7 99 7 100 51 153 48 58 63 99 63 171 0 42 2 47 23 47 33 0 86 36 93
64 3 14 1 48 -5 76 -24 112 -11 140 72 154 44 8 112 64 121 101 4 14 0 41 -9
61 -21 51 -19 66 14 98 l29 28 114 -14 c109 -13 113 -14 113 -38 0 -17 -11
-31 -35 -47 -75 -48 -80 -53 -80 -84 0 -24 12 -42 51 -80 56 -54 53 -39 34
-171 -10 -65 0 -95 37 -114 43 -22 91 -13 144 29 39 31 49 34 89 29 85 -9 123
46 110 163 -8 81 1 98 73 134 84 43 105 69 110 141 l4 60 38 0 c20 0 65 -3 99
-6 60 -7 61 -7 61 -38 0 -23 -10 -40 -40 -67 -50 -46 -51 -68 -5 -155 22 -41
35 -80 35 -103 0 -73 80 -152 133 -132 35 14 46 37 62 137 8 48 21 94 29 103
9 10 16 27 16 39 0 11 11 33 24 49 l24 27 40 -28 c50 -34 101 -46 149 -35 49
11 66 34 60 84 -7 69 -35 113 -89 145 -57 32 -98 87 -76 101 7 5 36 9 64 9 50
0 51 -1 97 -57z m700 -39 c46 -8 49 -29 7 -69 -33 -32 -35 -45 -18 -109 9 -36
9 -48 -1 -60 -22 -26 -42 -18 -58 24 -12 31 -21 40 -39 40 -37 0 -55 -37 -44
-86 7 -30 5 -57 -5 -98 -23 -87 -20 -102 29 -154 41 -44 44 -52 48 -112 5 -74
25 -123 52 -128 27 -6 36 15 36 84 0 34 5 65 13 72 6 7 23 36 37 65 29 60 51
69 86 36 24 -23 25 -23 69 -7 25 10 45 15 45 13 0 -11 -57 -135 -76 -165 -25
-41 -85 -102 -93 -94 -3 2 -8 26 -12 52 l-6 47 -2 -40 c-1 -36 26 -184 64
-352 11 -47 55 -157 82 -203 2 -3 -15 -11 -37 -17 -28 -7 -40 -7 -40 0 0 6 -8
20 -19 31 -10 12 -23 48 -30 80 -12 66 -93 239 -179 383 -36 62 -57 110 -63
145 l-8 53 4 -58 c2 -35 12 -70 24 -91 12 -18 21 -35 21 -38 0 -2 -31 1 -69 6
-56 8 -92 5 -198 -12 -159 -27 -223 -28 -305 -2 -34 11 -69 20 -75 20 -7 0
-33 -15 -57 -32 -34 -25 -45 -40 -45 -60 -1 -33 -16 -37 -24 -7 -8 30 -71 24
-75 -8 -4 -30 -18 -29 -26 2 -4 15 -20 31 -41 41 l-35 16 41 49 c22 27 51 57
62 67 12 9 23 25 24 36 1 12 -15 0 -45 -35 -75 -87 -185 -199 -195 -199 -5 0
11 22 36 49 50 53 69 87 115 204 42 104 122 228 122 188 0 -6 13 -11 29 -11
20 0 37 9 54 30 22 26 32 30 76 30 46 0 51 -2 57 -25 3 -14 3 -41 0 -60 -14
-72 41 -120 136 -120 55 0 87 25 124 96 14 29 38 56 61 70 95 56 111 99 68
180 -33 65 -28 92 24 119 47 23 81 64 81 96 0 13 7 24 18 27 27 7 133 7 175 1z
m527 -14 c0 -5 -4 -10 -10 -10 -5 0 -10 5 -10 10 0 6 5 10 10 10 6 0 10 -4 10
-10z m-3422 -47 c-31 -36 -48 -83 -48 -137 0 -45 5 -60 27 -87 68 -80 180 -77
259 7 27 28 37 33 51 25 16 -8 13 -14 -25 -50 -149 -142 -379 -40 -332 148 14
58 47 111 67 111 15 0 15 -2 1 -17z m6038 -443 c89 -31 219 -51 312 -48 49 1
86 -2 90 -8 4 -6 50 -36 102 -66 52 -31 115 -68 140 -83 l45 -27 -214 6 c-118
3 -310 6 -427 6 l-213 0 13 38 c8 20 22 54 32 75 l18 37 210 2 211 3 -207 2
-206 3 16 40 c9 22 17 40 18 40 0 0 27 -9 60 -20z m2644 -41 c30 -17 47 -28
37 -25 -10 4 -39 6 -63 6 -40 0 -44 2 -44 25 0 31 3 31 70 -6z m-10160 -36
l32 -27 -33 -15 c-44 -21 -50 -54 -16 -85 35 -32 60 -161 41 -210 -5 -14 -11
-12 -36 9 -16 14 -34 25 -38 25 -14 0 -32 -39 -24 -51 4 -6 1 -15 -7 -19 -7
-5 -14 -30 -16 -56 -3 -65 -5 -69 -50 -82 -22 -7 -48 -22 -59 -34 l-19 -22 30
17 30 18 -24 -21 c-13 -11 -31 -18 -38 -16 -9 4 -11 1 -7 -6 5 -8 -2 -9 -26
-5 -56 12 -217 144 -197 163 2 2 10 -7 17 -21 7 -14 17 -25 21 -25 9 0 -32 83
-43 88 -12 5 -10 32 2 32 6 0 10 5 10 11 0 6 -7 9 -15 6 -8 -4 -17 -2 -20 3
-4 6 -1 10 6 10 13 0 3 14 -12 16 -22 3 -23 5 -10 13 11 7 9 11 -8 20 -11 7
-21 21 -21 33 0 20 1 21 20 3 18 -16 30 -8 13 9 -11 11 -31 76 -23 76 4 0 13
-7 20 -15 22 -27 22 -9 -1 29 -33 57 -11 67 42 19 24 -22 38 -30 32 -18 -6 11
-21 29 -32 39 -12 11 -21 27 -21 38 0 43 65 2 106 -68 40 -68 77 -94 135 -94
58 0 69 13 93 105 17 66 41 104 77 122 32 17 33 17 69 -14z m9110 -20 c63 -3
145 -1 183 5 54 9 72 8 95 -4 15 -7 36 -14 47 -14 11 0 46 -23 78 -51 l57 -51
-30 -34 c-25 -29 -30 -43 -30 -88 l0 -53 -345 -2 c-335 -2 -345 -1 -387 20
-96 48 -117 79 -85 123 12 16 27 16 227 6 146 -8 281 -9 420 -3 l205 9 -315 0
c-173 -1 -359 3 -413 8 l-99 8 25 27 c13 14 43 51 66 82 l42 57 72 -20 c41
-11 122 -22 187 -25z m-9632 24 c221 -1 402 -5 402 -9 0 -4 -4 -9 -9 -12 -5
-3 -17 -35 -26 -71 l-18 -65 -83 0 -82 0 -26 45 c-46 78 -126 121 -126 66 0
-10 -9 -21 -20 -24 -14 -3 -21 -17 -26 -46 -6 -39 -8 -41 -41 -41 -20 0 -36 6
-39 14 -3 8 -21 22 -40 31 -33 15 -38 15 -70 0 -20 -9 -38 -23 -41 -31 -6 -15
-84 -19 -168 -8 l-47 7 6 51 c3 28 6 63 6 79 0 24 3 27 23 22 13 -4 204 -7
425 -8z m762 -58 l0 -61 -34 21 c-29 18 -35 19 -46 7 -6 -8 -9 -24 -5 -36 6
-18 2 -20 -42 -21 -26 -1 -58 -3 -70 -4 -24 -2 -41 24 -22 36 7 4 9 17 5 32
-5 20 -1 26 16 30 l22 6 -24 26 -23 25 111 0 112 0 0 -61z m355 52 c3 -5 -6
-26 -19 -46 -14 -19 -27 -49 -31 -65 l-7 -30 -100 0 -101 0 7 38 c3 20 6 54 6
75 l0 37 119 0 c66 0 122 -4 126 -9z m887 -13 c4 -61 2 -98 -6 -98 -5 0 -6 16
-3 35 4 25 0 41 -14 60 l-20 25 20 0 c15 0 22 -7 23 -22z m6916 -46 c18 -23
16 -82 -3 -82 -8 0 -15 -5 -15 -11 0 -5 5 -7 10 -4 14 9 12 -20 -6 -87 l-17
-58 -66 0 -66 0 33 17 c42 21 68 54 76 98 6 29 2 43 -23 78 -16 23 -43 55 -60
71 -17 17 -31 33 -31 37 0 12 154 -42 168 -59z m1268 4 c53 -74 94 -147 94
-166 0 -39 -20 -61 -135 -144 -95 -68 -114 -77 -168 -85 -34 -5 -64 -7 -67 -4
-2 2 4 20 15 39 15 29 24 35 43 31 13 -2 29 1 36 7 6 6 32 22 56 35 25 13 62
37 83 53 59 47 53 68 -50 167 l-87 84 89 -8 c50 -4 90 -8 91 -9z m-1200 -61
c11 -25 18 -75 20 -135 2 -52 6 -106 9 -118 4 -17 -1 -30 -20 -47 -33 -31 -32
-63 5 -113 33 -47 49 -52 57 -21 4 16 13 5 39 -50 22 -43 50 -83 76 -105 23
-20 40 -37 37 -39 -2 -2 -21 -8 -42 -14 -32 -10 -39 -9 -47 7 -5 9 -22 23 -39
29 -21 9 -33 25 -45 59 -22 62 -71 181 -107 261 -35 76 -35 76 -8 188 12 49
19 104 16 125 -5 34 -4 36 14 25 10 -6 26 -30 35 -52z m-7076 37 c0 -5 -11
-14 -25 -20 -31 -15 -32 -45 -2 -69 14 -11 26 -34 30 -57 3 -21 17 -48 30 -60
13 -12 29 -44 36 -71 11 -44 11 -51 -5 -62 -16 -12 -20 -10 -33 14 l-15 28 -6
-33 c-5 -33 -5 -33 -20 -12 -38 54 -39 56 -40 40 0 -9 -9 -16 -20 -16 -14 0
-20 7 -20 24 0 20 -3 22 -14 13 -11 -9 -15 -8 -20 6 -4 10 -10 13 -14 8 -13
-19 -35 -17 -29 2 34 105 69 200 82 220 9 13 31 31 48 38 39 17 37 17 37 7z
m-1090 -100 c81 -65 83 -67 54 -109 -13 -20 -31 -60 -40 -90 -24 -81 -73 -105
-74 -35 0 14 -13 34 -31 49 -19 16 -29 33 -27 47 1 11 -6 33 -16 48 -18 27
-14 54 6 42 6 -4 3 7 -8 24 -25 44 -8 61 32 30 l29 -22 -27 30 c-17 18 -28 41
-28 58 l0 28 38 -28 c20 -16 62 -48 92 -72z m413 78 c-3 -11 -9 -17 -14 -15
-10 7 -1 35 11 35 5 0 6 -9 3 -20z m751 -16 c25 -9 19 -24 -9 -24 -24 0 -32
10 -18 23 8 8 8 8 27 1z m9612 -15 c3 -5 -6 -9 -20 -9 -16 0 -26 6 -26 14 0
15 36 11 46 -5z m-5429 -52 c17 -19 48 -40 69 -47 25 -8 58 -33 91 -68 47 -50
56 -56 95 -57 42 -1 43 -2 46 -39 4 -48 -8 -62 -64 -71 -34 -5 -52 -2 -70 10
-13 8 -24 11 -24 6 0 -18 41 -33 76 -29 27 3 31 1 21 -10 -22 -27 -291 -182
-316 -182 -5 0 -12 12 -15 26 -12 44 -15 22 -5 -31 5 -27 23 -78 39 -113 35
-76 36 -78 11 -85 -14 -3 -37 15 -89 72 -39 43 -80 93 -91 112 -21 34 -30 34
-11 -1 9 -17 6 -20 -26 -26 -58 -11 -244 3 -297 21 l-48 17 19 22 c24 26 42
60 42 78 -1 7 -8 0 -17 -17 -35 -68 -98 -111 -177 -121 -41 -6 -45 -10 -61
-50 -17 -45 -34 -54 -54 -31 -7 10 -7 31 1 76 10 53 16 65 41 78 25 13 28 18
23 46 -30 154 -14 242 56 301 79 68 193 88 350 62 101 -16 204 -19 248 -7 23
6 26 3 35 -32 6 -24 20 -46 35 -56 25 -16 25 -16 -2 17 -34 41 -35 74 -3 170
6 18 34 2 72 -41z m148 20 c4 -18 2 -44 -4 -59 l-10 -27 -33 17 c-18 9 -35 18
-37 19 -5 3 62 83 70 83 5 0 11 -15 14 -33z m4041 -53 c10 -81 2 -94 -57 -94
l-50 0 20 26 c12 16 21 41 21 62 0 23 8 44 22 59 27 29 35 19 44 -53z m-10598
51 c9 -3 6 -15 -12 -42 -13 -21 -31 -62 -41 -90 -16 -52 -35 -78 -35 -49 0 8
5 18 10 21 22 14 8 25 -30 25 -37 0 -40 2 -30 19 20 38 9 44 -23 13 -49 -48
-57 -43 -57 36 0 38 2 71 4 73 5 5 197 0 214 -6z m1286 2 c-17 -29 -27 -37
-38 -29 -18 15 -66 23 -66 13 0 -6 -7 -8 -16 -4 -10 4 -22 -1 -30 -11 -15 -21
-34 -13 -34 14 0 21 13 24 118 27 55 2 71 -1 66 -10z m721 -64 l-23 -78 -80
-3 -81 -3 -25 39 c-29 47 -79 90 -112 98 -43 11 -120 -2 -153 -25 l-31 -22
-10 26 c-5 14 -10 28 -10 30 0 8 84 12 311 13 l236 2 -22 -77z m245 34 l-1
-32 -15 28 c-8 15 -12 32 -9 37 11 18 25 -1 25 -33z m4805 -34 c-1 -43 -3 -81
-4 -84 0 -4 -28 -16 -61 -28 -32 -12 -62 -26 -65 -31 -12 -19 -22 -10 -22 20
0 27 3 29 41 33 23 2 -48 4 -156 5 l-197 2 -20 28 c-13 19 -17 33 -10 43 5 7
9 28 9 46 l0 32 108 4 c59 1 168 4 243 5 l136 2 -2 -77z m1653 70 c308 -7 312
-8 223 -75 l-50 -36 -41 30 c-22 17 -42 29 -44 27 -2 -2 -9 -24 -17 -48 l-14
-44 -125 1 c-69 1 -160 5 -202 10 -42 5 -96 8 -120 5 -39 -4 -49 0 -119 51
-118 85 -117 86 75 86 89 0 285 -3 434 -7z m3132 -8 c0 -17 -43 -90 -60 -100
-7 -4 -7 2 0 20 6 15 10 42 10 61 0 30 3 34 25 34 16 0 25 -6 25 -15z m197
-33 c15 -16 38 -48 51 -70 l23 -42 -121 0 -121 0 12 23 c7 12 30 47 53 78 45
62 51 63 103 11z m-11938 28 c25 -13 57 -62 39 -59 -26 3 -35 -2 -46 -26 -13
-28 -7 -50 19 -76 41 -41 38 -190 -6 -264 -29 -51 -122 -118 -178 -131 -18 -4
-48 -15 -67 -25 -53 -29 -100 -23 -100 12 0 11 -16 29 -40 44 -41 26 -90 89
-90 116 0 9 -9 24 -21 35 -25 23 -51 69 -42 77 3 4 15 1 27 -5 14 -7 10 0 -11
22 -33 33 -44 70 -20 70 7 0 19 -6 27 -12 7 -7 2 2 -13 20 -15 19 -27 45 -27
58 0 26 8 26 44 -5 16 -14 16 -10 -4 25 -14 24 -21 48 -17 58 11 28 59 -5 113
-79 54 -74 89 -91 162 -81 65 9 88 27 107 88 40 122 88 168 144 138z m113 -24
c-2 -16 4 -46 12 -67 l16 -39 -44 0 -44 0 9 37 c5 23 4 42 -1 47 -6 6 -10 21
-10 34 0 20 4 23 33 20 29 -3 32 -6 29 -32z m368 26 c0 -17 -25 -32 -52 -32
-29 0 -98 24 -98 34 0 4 34 6 75 6 41 0 75 -4 75 -8z m327 -22 c6 -16 7 -30 2
-30 -14 0 -11 -33 6 -56 19 -29 11 -34 -52 -34 -60 0 -59 -2 -67 88 l-6 62 53
0 c49 0 53 -2 64 -30z m5567 5 c-19 -30 -22 -30 -46 -8 -27 25 -22 33 22 33
l40 0 -16 -25z m-2034 -10 c33 -11 35 -15 35 -56 l0 -44 -106 -5 c-105 -5
-106 -5 -93 15 8 11 14 26 14 35 0 8 17 29 37 47 39 33 40 33 113 8z m524 -2
c2 -10 8 -37 11 -60 l7 -43 -200 0 -200 0 -4 40 c-3 38 -2 40 27 44 16 3 68
11 115 19 47 8 120 15 162 16 65 1 77 -2 82 -16z m84 -20 c46 -66 53 -89 41
-143 -9 -44 -16 -53 -50 -70 -21 -11 -64 -41 -94 -66 -54 -43 -110 -72 -121
-61 -2 2 -2 22 2 44 6 37 10 42 58 62 28 11 67 35 85 52 33 30 34 31 27 92 -3
34 -9 74 -12 90 -6 24 -3 27 19 27 17 0 32 -10 45 -27z m606 -5 c7 -12 6 -21
-3 -32 -17 -20 -31 -21 -31 -1 0 8 5 15 10 15 6 0 10 5 10 10 0 16 -27 12 -34
-5 -9 -23 4 -45 30 -51 24 -6 24 -24 -1 -24 -40 0 -62 79 -27 99 21 13 32 10
46 -11z m-1580 -4 c10 -4 16 -18 16 -40 0 -34 -1 -34 -44 -34 -24 0 -53 -3
-63 -6 -10 -4 2 14 27 40 24 25 45 46 46 46 1 0 9 -3 18 -6z m3999 -45 c45
-29 83 -52 84 -53 1 -1 -19 -20 -45 -41 -26 -21 -39 -30 -29 -19 21 25 22 53
3 79 -13 18 -17 18 -51 6 -20 -7 -39 -11 -42 -8 -8 8 -16 87 -9 87 3 0 43 -23
89 -51z m907 -4 c0 -30 -4 -55 -9 -55 -13 0 -35 29 -27 37 3 3 6 1 6 -5 0 -26
15 -10 17 18 1 17 -2 30 -7 30 -6 0 -10 -7 -10 -15 0 -9 -6 -12 -17 -8 -12 5
-15 2 -10 -10 4 -11 2 -14 -9 -10 -7 3 -14 7 -14 10 0 7 64 63 72 63 5 0 8
-25 8 -55z m-129 14 c29 -23 43 -44 52 -77 l12 -46 5 33 5 33 35 -24 c19 -13
52 -48 73 -78 21 -30 52 -62 68 -71 27 -13 29 -17 15 -28 -18 -15 -22 -71 -5
-71 6 0 9 6 6 13 -2 6 -1 21 4 32 6 16 8 16 8 3 1 -9 7 -18 14 -21 9 -3 9 -8
-3 -21 -18 -22 -91 -17 -119 8 -20 18 -31 20 -31 6 0 -5 21 -20 46 -33 l46
-23 -39 -17 c-59 -26 -128 -39 -177 -35 -42 3 -50 -2 -48 -24 3 -19 -30 -14
-48 9 -13 16 -20 20 -20 11 0 -8 20 -36 45 -62 52 -56 58 -89 20 -130 -40 -43
-76 -32 -48 15 16 27 16 29 -2 44 -11 8 -36 17 -55 21 -19 4 -41 12 -49 18
-12 9 -13 8 -6 -3 5 -10 4 -12 -4 -7 -6 4 -23 28 -37 54 -17 33 -23 39 -19 20
2 -14 8 -33 11 -42 4 -9 3 -16 -2 -15 -5 1 -16 1 -24 -1 -11 -1 -9 -4 5 -10
15 -6 11 -8 -18 -8 -27 1 -36 5 -33 15 6 14 -6 18 -101 32 -83 13 -123 34
-123 66 0 36 -14 31 -28 -10 -14 -38 -68 -89 -84 -79 -6 4 -8 2 -5 -3 7 -11
-15 -21 -83 -42 -30 -9 -38 -19 -53 -61 -10 -28 -22 -50 -28 -50 -19 0 -37 26
-29 41 4 8 11 38 15 67 6 47 10 54 40 66 47 20 52 47 20 118 -23 50 -26 70
-22 110 7 57 45 128 81 152 32 21 35 20 29 -4 -10 -37 6 -67 43 -85 35 -16 41
-16 95 -1 32 9 68 16 79 16 30 0 62 57 55 98 -5 29 -4 32 20 32 14 0 57 -7 96
-16 53 -12 85 -14 138 -7 l69 9 -2 -25 c-3 -22 -9 -26 -37 -28 -29 -1 -59 -23
-59 -44 0 -17 44 -59 61 -59 11 0 31 11 44 24 17 17 31 23 47 19 20 -6 19 -3
-9 24 -23 21 -33 40 -33 60 0 30 28 123 37 123 3 0 23 -14 44 -31z m-6605 -36
c-3 -3 -13 -3 -22 1 -16 6 -15 8 2 25 18 17 19 17 22 -1 2 -11 1 -22 -2 -25z
m1884 28 c0 -22 25 -45 40 -36 5 3 10 14 10 24 0 29 13 33 27 9 l12 -23 1 23
c0 46 17 11 23 -47 6 -67 34 -136 95 -230 23 -35 42 -70 42 -76 0 -7 -14 -15
-31 -19 -38 -7 -59 12 -84 79 -17 48 -31 71 -117 196 -42 63 -59 119 -34 119
9 0 16 -8 16 -19z m1445 8 c4 -6 5 -12 2 -15 -7 -7 -37 7 -37 17 0 13 27 11
35 -2z m-2430 -19 l50 -19 -69 -1 c-68 0 -69 0 -51 20 10 11 19 20 19 20 1 0
24 -9 51 -20z m555 -4 c0 -2 3 -11 6 -20 5 -14 -7 -16 -93 -16 -55 0 -129 3
-164 7 l-64 7 75 12 c73 11 240 18 240 10z m46 -4 c6 -4 29 -36 52 -72 37 -59
40 -69 32 -103 -9 -40 -35 -77 -55 -77 -6 0 -44 -24 -83 -54 -69 -52 -108 -73
-118 -63 -3 2 -2 23 2 45 6 38 11 42 68 71 34 16 73 42 86 56 l24 26 -17 82
c-9 45 -17 85 -17 90 0 9 12 9 26 -1z m4334 -53 c0 -16 -4 -29 -9 -29 -4 0 -6
11 -3 25 2 15 0 25 -7 25 -6 0 -11 4 -11 10 0 5 7 7 15 4 9 -4 15 -19 15 -35z
m4712 19 c-7 -7 -12 -8 -12 -2 0 14 12 26 19 19 2 -3 -1 -11 -7 -17z m438 12
c0 -5 -4 -10 -10 -10 -5 0 -10 5 -10 10 0 6 5 10 10 10 6 0 10 -4 10 -10z
m-13360 -15 c-14 -17 -30 -20 -30 -6 0 5 8 12 18 14 9 3 19 5 21 6 2 0 -2 -6
-9 -14z m8803 8 c-18 -2 -48 -2 -65 0 -18 2 -4 4 32 4 36 0 50 -2 33 -4z
m-9279 -19 c4 -10 1 -14 -6 -12 -15 5 -23 28 -10 28 5 0 13 -7 16 -16z m1536
8 c0 -5 14 -24 30 -42 17 -18 30 -39 30 -45 0 -7 -21 -15 -47 -18 -27 -3 -55
-8 -64 -12 -23 -9 -90 75 -82 104 5 19 12 21 69 21 35 0 64 -4 64 -8z m1029
-8 c-19 -23 -64 -44 -94 -44 -18 0 -28 7 -35 26 -6 14 -10 27 -10 30 0 2 34 4
76 4 68 0 75 -2 63 -16z m6068 -6 c-3 -8 -6 -5 -6 6 -1 11 2 17 5 13 3 -3 4
-12 1 -19z m4503 -3 c0 -29 -7 -31 -32 -8 -17 15 -18 15 -18 -12 l0 -29 -31
30 -31 29 7 -26 c8 -31 -7 -45 -25 -24 -16 19 -31 19 -24 0 7 -18 0 -19 -28
-4 -17 9 -19 8 -14 -8 5 -16 1 -19 -29 -20 -32 -1 -37 3 -55 44 -11 25 -20 47
-20 49 0 2 68 4 150 4 l150 0 0 -25z m57 5 c9 -14 10 -21 1 -26 -10 -7 -38 21
-38 38 0 16 25 8 37 -12z m722 -1 c-9 -17 -13 -19 -19 -8 -11 16 -4 29 16 29
12 0 13 -4 3 -21z m-10404 -59 c8 0 17 11 21 25 3 14 9 25 13 25 11 0 41 -61
41 -83 0 -32 51 -134 109 -220 l50 -75 -36 -14 c-35 -13 -38 -12 -60 10 -13
13 -33 48 -44 78 -11 30 -49 93 -83 141 -81 115 -78 108 -64 138 l12 26 13
-25 c8 -14 20 -26 28 -26z m5 30 c0 -11 -2 -20 -5 -20 -2 0 -9 9 -15 20 -9 16
-8 20 5 20 8 0 15 -9 15 -20z m5136 -4 c10 -8 15 -18 11 -22 -4 -4 -17 2 -29
14 -25 25 -13 30 18 8z m-8646 -22 c0 -8 -4 -12 -10 -9 -5 3 -10 10 -10 16 0
5 5 9 10 9 6 0 10 -7 10 -16z m8655 -24 c3 -5 2 -10 -4 -10 -5 0 -13 5 -16 10
-3 6 -2 10 4 10 5 0 13 -4 16 -10z m-7085 -41 c0 -5 -15 -8 -32 -8 -24 1 -27
3 -10 6 12 2 22 9 22 14 0 6 5 7 10 4 6 -3 10 -10 10 -16z m2900 -110 c0 -64
-3 -89 -12 -89 -7 0 -22 -3 -33 -6 -16 -4 -22 2 -32 35 -17 55 -16 65 8 87 12
10 28 31 35 47 24 45 34 22 34 -74z m5277 49 c-3 -8 -6 -5 -6 6 -1 11 2 17 5
13 3 -3 4 -12 1 -19z m-8607 -87 c16 -31 12 -51 -10 -51 -16 0 -20 7 -20 35 0
39 14 46 30 16z m-43 -53 c-3 -7 -5 -2 -5 12 0 14 2 19 5 13 2 -7 2 -19 0 -25z
m5977 1 c29 -34 31 -43 15 -87 -9 -27 -14 -30 -30 -22 -10 6 -19 21 -19 34 0
18 -8 25 -40 35 -22 6 -40 15 -40 19 0 7 67 49 82 51 3 1 18 -13 32 -30z
m-5129 -27 c18 -10 16 -11 -16 -12 -33 0 -36 2 -36 31 0 30 1 30 16 11 9 -11
25 -24 36 -30z m-733 7 c28 -17 29 -19 8 -14 -14 4 -32 13 -40 21 -21 20 -5
17 32 -7z m-117 -9 c3 -5 -1 -10 -10 -10 -9 0 -13 5 -10 10 3 6 8 10 10 10 2
0 7 -4 10 -10z m5340 -16 c20 -5 23 -10 18 -35 -3 -19 2 -42 16 -69 11 -22 21
-43 21 -45 0 -3 -13 -5 -29 -5 -26 0 -34 8 -65 65 -20 36 -36 72 -36 80 0 16
19 25 38 19 8 -2 24 -7 37 -10z m-5855 -49 c-15 -18 -20 -18 -57 -4 l-28 11
45 17 c36 14 46 14 48 3 2 -7 -2 -19 -8 -27z m-207 -45 c-3 -11 -9 -23 -14
-26 -18 -11 -9 -45 15 -54 37 -14 44 -32 9 -24 -54 13 -74 51 -42 80 10 9 19
23 19 31 0 7 4 13 9 13 5 0 7 -9 4 -20z m2372 -11 c30 -11 60 -30 66 -41 16
-30 4 -32 -24 -4 -28 28 -56 33 -76 14 -11 -11 -12 -9 -6 10 5 16 2 24 -12 28
-10 3 -27 10 -38 15 -35 17 30 1 90 -22z m-259 -11 c-3 -13 -9 -39 -12 -59 -5
-31 -3 -38 14 -43 11 -4 23 -13 26 -21 7 -20 -4 -19 -34 2 -13 9 -40 16 -59
15 l-36 -2 31 14 c26 12 34 23 44 65 6 28 17 51 22 51 6 0 8 -10 4 -22z
m-1811 2 c17 -7 15 -9 -12 -9 -18 -1 -33 4 -33 9 0 12 17 12 45 0z m1048 -50
c24 -14 48 -20 77 -18 27 2 44 -2 47 -9 3 -7 0 -13 -7 -13 -6 0 -8 5 -5 10 8
13 -1 13 -44 0 -27 -8 -38 -6 -51 5 -9 8 -21 15 -27 15 -6 0 -16 7 -23 15 -17
20 -8 19 33 -5z m-237 -12 c-24 -34 -20 -67 9 -78 31 -12 32 -16 3 -16 -24 0
-47 22 -48 44 0 14 37 72 46 72 3 0 -2 -10 -10 -22z"/>
<path d="M6574 1427 c-8 -22 11 -46 26 -31 7 7 5 17 -4 30 -14 18 -15 18 -22
1z"/>
<path d="M4427 1369 c-33 -25 -53 -90 -37 -120 9 -15 19 -19 43 -17 57 5 103
123 58 148 -27 14 -35 13 -64 -11z"/>
<path d="M5260 1330 c11 -21 22 -25 33 -13 9 9 -12 33 -30 33 -11 0 -11 -4 -3
-20z"/>
<path d="M3640 1265 c-43 -31 -50 -43 -50 -80 0 -44 26 -77 58 -73 20 2 33 17
60 66 29 54 33 67 23 88 -14 31 -47 31 -91 -1z"/>
<path d="M4520 1120 c-13 -13 -20 -33 -20 -60 0 -34 4 -41 24 -46 33 -8 61 9
76 46 10 25 10 34 -4 55 -20 30 -49 32 -76 5z"/>
<path d="M4394 960 c2 -14 8 -43 11 -65 7 -43 43 -120 52 -111 3 3 1 12 -6 19
-6 8 -20 49 -31 92 -19 73 -38 121 -26 65z"/>
<path d="M5575 1176 c-45 -45 -26 -113 24 -86 26 13 47 68 34 88 -16 26 -31
25 -58 -2z"/>
<path d="M4938 973 c7 -3 16 -2 19 1 4 3 -2 6 -13 5 -11 0 -14 -3 -6 -6z"/>
<path d="M4988 973 c7 -3 16 -2 19 1 4 3 -2 6 -13 5 -11 0 -14 -3 -6 -6z"/>
<path d="M9338 1053 c12 -2 30 -2 40 0 9 3 -1 5 -23 4 -22 0 -30 -2 -17 -4z"/>
<path d="M1433 1035 c-3 -9 -3 -18 0 -22 9 -8 37 4 37 16 0 6 -7 7 -17 4 -11
-4 -14 -3 -9 5 4 7 5 12 1 12 -3 0 -8 -7 -12 -15z"/>
<path d="M1074 825 c-8 -31 0 -75 22 -121 48 -101 204 -115 258 -24 24 41 19
51 -5 12 -39 -60 -107 -78 -176 -45 -34 16 -77 69 -67 84 2 4 0 10 -6 14 -19
12 -11 26 9 15 36 -19 43 -10 12 16 -17 14 -31 32 -31 40 0 17 5 17 33 3 21
-10 21 -9 -2 10 -30 27 -39 26 -47 -4z"/>
<path d="M1360 808 c0 -9 5 -20 11 -23 17 -11 20 0 4 21 -13 17 -14 17 -15 2z"/>
<path d="M1422 778 c5 -15 28 -23 28 -10 0 5 -7 13 -16 16 -10 4 -14 1 -12 -6z"/>
<path d="M1470 771 c0 -5 5 -13 10 -16 6 -3 10 -2 10 4 0 5 -4 13 -10 16 -5 3
-10 2 -10 -4z"/>
<path d="M1110 725 c0 -2 10 -10 23 -16 20 -11 21 -11 8 4 -13 16 -31 23 -31
12z"/>
<path d="M1756 697 c3 -10 9 -15 12 -12 3 3 0 11 -7 18 -10 9 -11 8 -5 -6z"/>
<path d="M7085 870 c10 -11 20 -20 23 -20 3 0 -3 9 -13 20 -10 11 -20 20 -23
20 -3 0 3 -9 13 -20z"/>
<path d="M7120 797 c4 -41 5 -41 8 -8 2 18 0 37 -5 42 -5 5 -6 -11 -3 -34z"/>
<path d="M7212 696 c1 -10 8 -17 13 -17 15 1 12 24 -3 29 -9 3 -13 -2 -10 -12z"/>
<path d="M7390 665 c-6 -7 -10 -24 -7 -37 4 -20 4 -20 6 5 0 15 6 27 11 27 14
0 13 -43 -2 -58 -8 -8 -8 -12 -1 -12 13 0 23 23 23 55 0 30 -14 39 -30 20z"/>
<path d="M790 835 c0 -8 7 -15 15 -15 8 0 15 7 15 15 0 8 -7 15 -15 15 -8 0
-15 -7 -15 -15z"/>
<path d="M446 551 c-28 -9 -52 -23 -54 -29 -7 -22 71 -89 118 -102 49 -14 114
-3 158 26 26 17 62 72 62 94 -1 8 -7 1 -14 -15 -18 -42 -69 -83 -112 -91 -50
-9 -119 0 -151 21 l-26 18 29 13 29 13 -28 -6 c-25 -5 -57 10 -57 27 0 4 20
13 45 20 25 7 48 17 51 21 3 5 4 9 2 8 -2 0 -25 -8 -52 -18z"/>
<path d="M9540 771 c5 -11 10 -31 10 -46 0 -14 7 -40 16 -56 12 -25 18 -28 30
-18 24 20 17 65 -17 104 -34 38 -56 47 -39 16z"/>
<path d="M9182 618 c-19 -19 -15 -48 7 -48 24 0 45 25 37 45 -7 18 -27 20 -44
3z"/>
<path d="M8810 585 c-9 -11 -10 -19 -2 -27 14 -14 32 -1 32 23 0 23 -13 25
-30 4z"/>
<path d="M9674 589 c-10 -17 13 -36 27 -22 12 12 4 33 -11 33 -5 0 -12 -5 -16
-11z"/>
<path d="M8840 522 c-48 -39 13 -92 69 -61 14 8 27 23 29 32 9 44 -56 63 -98
29z"/>
<path d="M9043 533 c-18 -7 -16 -48 2 -63 19 -16 69 0 73 24 7 35 -34 56 -75
39z"/>
<path d="M9357 513 c-17 -16 -6 -35 17 -31 15 3 27 0 30 -8 9 -24 38 -17 34 9
-2 15 -10 22 -25 22 -11 0 -25 3 -29 8 -9 9 -19 9 -27 0z"/>
<path d="M8880 424 c0 -9 5 -14 12 -12 18 6 21 28 4 28 -9 0 -16 -7 -16 -16z"/>
<path d="M410 2230 c-16 -16 -28 -19 -61 -14 -33 6 -44 3 -64 -16 -29 -27 -33
-78 -10 -114 15 -23 15 -23 -20 -29 -63 -10 -125 -75 -125 -132 0 -17 5 -36
12 -43 7 -7 9 -12 5 -12 -13 0 -47 65 -47 90 0 14 9 40 20 58 l20 33 -20 39
c-23 45 -45 60 -89 60 l-31 0 0 -345 0 -345 46 0 c28 0 59 8 83 22 l37 21 56
-27 c46 -22 68 -27 117 -25 33 1 64 -1 68 -4 10 -11 63 -8 63 3 0 6 12 10 28
10 15 0 40 7 55 15 21 10 34 12 47 5 10 -6 30 -10 43 -10 14 0 30 -7 37 -15
16 -19 80 -19 106 0 26 20 41 19 47 -5 5 -19 14 -20 286 -20 155 0 281 3 281
8 0 20 -31 50 -48 45 -11 -2 -26 3 -36 12 -9 10 -28 15 -45 13 -20 -2 -38 5
-54 20 -18 17 -34 22 -61 20 -20 -1 -41 3 -48 10 -23 23 -62 14 -81 -18 -15
-25 -22 -28 -48 -23 -20 4 -35 0 -49 -12 -17 -16 -18 -16 -15 2 2 10 4 21 4
25 1 6 32 19 58 24 7 1 17 -5 23 -14 9 -16 9 -16 10 1 0 9 4 17 10 17 5 0 9 3
9 8 -7 41 28 65 74 50 15 -6 27 -14 27 -19 0 -5 14 -9 30 -9 19 0 40 -9 56
-25 13 -13 36 -24 52 -25 15 0 97 -4 182 -10 85 -5 290 -16 455 -25 308 -16
641 -39 800 -55 136 -14 130 -16 108 21 -37 63 -104 96 -162 79 -30 -8 -36 -6
-66 25 -46 50 -95 68 -145 55 -21 -6 -46 -18 -55 -26 -19 -20 -27 -14 -30 23
-1 15 -5 36 -9 45 -4 9 -6 21 -3 25 2 4 -5 30 -17 56 l-22 48 -21 -50 c-12
-28 -17 -51 -12 -51 5 0 2 -11 -7 -25 -8 -13 -13 -29 -9 -35 4 -6 1 -17 -5
-25 -6 -8 -9 -19 -5 -25 3 -5 3 -10 -2 -10 -14 1 -53 88 -41 92 7 3 5 13 -7
31 -9 15 -15 34 -12 42 4 8 -5 40 -20 71 l-25 56 -24 -59 c-13 -32 -20 -59
-14 -61 5 -2 -2 -21 -15 -43 -14 -21 -22 -38 -18 -37 15 5 6 -41 -13 -70 -1
-2 -16 6 -32 18 -21 16 -39 21 -57 17 -23 -4 -35 3 -69 38 -69 72 -155 74
-228 4 -24 -22 -48 -37 -56 -34 -8 3 -29 -2 -47 -10 -30 -15 -34 -15 -69 6
-26 15 -47 20 -74 17 -31 -4 -41 0 -64 25 -23 23 -35 28 -65 26 -50 -4 -113
27 -113 56 0 11 -7 31 -16 44 -16 22 -16 25 0 51 9 16 16 38 16 49 0 28 -43
71 -70 71 -13 0 -20 7 -20 20 0 23 -29 41 -57 34 -11 -3 -25 1 -32 10 -23 27
-69 20 -90 -14 -10 -16 -21 -27 -24 -24 -3 4 -17 4 -31 0 -33 -8 -59 -58 -51
-96 5 -24 1 -31 -30 -50 l-35 -22 -19 24 c-18 21 -18 24 -3 32 25 13 42 37 42
60 0 10 -2 17 -5 14 -3 -3 -21 10 -40 29 -29 29 -35 42 -33 74 2 58 -30 89
-94 89 -40 0 -48 3 -48 18 0 27 -52 72 -83 72 -15 0 -36 -9 -47 -20z m101
-310 c23 7 29 6 29 -7 0 -9 -3 -13 -7 -10 -3 4 -14 -7 -24 -23 -26 -42 -39
-37 -37 12 1 24 3 37 5 31 3 -8 14 -9 34 -3z m-94 -64 c-13 -14 -16 -14 -21
-1 -3 8 -1 15 5 15 6 0 8 8 5 18 -7 16 -6 16 10 0 15 -15 15 -18 1 -32z m-34
-40 c6 -8 10 -7 14 2 6 15 23 6 23 -13 0 -16 -25 -14 -42 3 -22 22 -32 13 -12
-10 l19 -23 -22 18 c-11 10 -23 27 -26 37 -4 17 -2 18 16 8 12 -6 26 -16 30
-22z m32 -64 c-3 -3 -11 0 -18 7 -9 10 -8 11 6 5 10 -3 15 -9 12 -12z"/>
<path d="M10949 2193 c-73 -37 -104 -48 -141 -48 -54 0 -61 -7 -20 -24 53 -22
121 -29 139 -16 16 12 14 12 -10 8 -15 -3 -48 -2 -74 2 l-48 7 55 17 c30 10
82 33 115 52 53 30 71 35 155 40 l95 6 -86 1 c-84 2 -88 1 -180 -45z"/>
<path d="M11258 2233 c12 -2 32 -2 45 0 12 2 2 4 -23 4 -25 0 -35 -2 -22 -4z"/>
<path d="M10793 2066 c-96 -26 -141 -59 -165 -118 -7 -16 -5 -17 15 -6 12 6
40 17 62 24 22 7 32 13 22 13 -10 1 -33 -6 -52 -13 -42 -18 -45 -9 -7 26 37
35 65 48 135 64 33 8 67 19 76 24 24 14 5 11 -86 -14z"/>
<path d="M11450 2059 c0 -5 -6 -7 -12 -3 -9 5 -9 2 1 -9 20 -25 61 -22 61 3 0
15 -7 20 -25 20 -14 0 -25 -5 -25 -11z"/>
<path d="M10758 1982 c8 -6 -4 -16 -37 -32 -56 -26 -105 -72 -120 -113 -15
-40 -14 -52 4 -37 8 7 32 18 52 26 21 7 30 13 20 14 -10 0 -27 -5 -39 -11 -28
-15 -32 -6 -13 30 19 38 75 76 157 107 l63 23 -50 0 c-29 1 -45 -3 -37 -7z"/>
<path d="M11281 1934 c0 -11 3 -14 6 -6 3 7 2 16 -1 19 -3 4 -6 -2 -5 -13z"/>
<path d="M11687 1846 c-7 -16 18 -54 28 -44 9 9 -3 58 -14 58 -5 0 -11 -6 -14
-14z"/>
<path d="M10702 1842 c4 -10 -102 -107 -136 -124 -27 -14 -27 -15 -8 -20 12
-3 20 -3 19 1 -2 7 110 111 138 127 17 9 17 11 2 17 -9 3 -16 3 -15 -1z"/>
<path d="M13483 1715 c-27 -19 -63 -125 -63 -187 0 -52 -4 -56 -34 -33 -11 8
-28 12 -39 9 -14 -4 -18 -1 -15 13 2 11 -3 18 -12 18 -8 0 -14 -6 -12 -12 1
-10 -20 -13 -81 -13 l-83 0 -48 -57 c-40 -48 -53 -58 -82 -59 -23 0 -44 -10
-64 -29 -23 -22 -33 -26 -42 -17 -18 18 -52 15 -97 -9 -84 -44 -77 -48 98 -51
l161 -3 0 55 c0 50 4 60 41 105 23 28 42 51 44 53 1 1 22 -22 46 -52 l44 -55
113 -1 112 0 0 -55 0 -55 59 0 60 0 3 48 c3 44 5 47 32 50 15 2 39 1 52 -2 21
-6 24 -12 24 -51 0 -40 3 -45 23 -46 48 -1 157 -1 255 0 l102 1 0 75 c0 73 -1
75 -24 75 -14 0 -37 -10 -53 -23 -26 -22 -35 -23 -144 -19 l-115 4 -20 41
c-11 24 -33 50 -51 60 -32 18 -33 18 -68 -3 -20 -12 -45 -40 -56 -62 -11 -22
-23 -38 -26 -35 -10 11 30 78 59 99 35 24 34 41 -8 148 -38 96 -49 104 -91 75z"/>
<path d="M7261 1414 c-6 -15 -9 -29 -6 -32 3 -3 -2 -16 -10 -29 -9 -13 -13
-28 -10 -33 9 -15 -15 -52 -32 -48 -15 3 -19 12 -27 63 -1 11 -9 33 -17 48
l-15 28 -13 -28 c-8 -15 -15 -41 -17 -58 -8 -58 -41 -58 -48 1 -2 16 -10 43
-16 59 l-12 30 -18 -40 c-10 -22 -19 -49 -19 -60 -2 -35 -17 -47 -62 -50 -73
-5 -129 -24 -167 -60 -20 -18 -35 -36 -32 -38 3 -3 88 3 190 14 102 10 266 26
364 34 99 8 181 17 183 19 6 6 -84 26 -119 26 -29 0 -35 5 -46 32 -7 18 -8 34
-3 36 7 2 -22 98 -33 110 -2 1 -8 -10 -15 -24z"/>
<path d="M13130 1326 c0 -19 5 -38 10 -41 6 -3 10 -1 10 5 0 6 5 8 10 5 6 -4
10 8 10 29 0 29 -4 36 -20 36 -16 0 -20 -7 -20 -34z"/>
<path d="M13600 1320 l0 -40 45 0 45 0 0 40 0 40 -45 0 -45 0 0 -40z"/>
<path d="M10132 1205 c0 -16 2 -22 5 -12 2 9 2 23 0 30 -3 6 -5 -1 -5 -18z"/>
<path d="M13713 1063 c9 -2 23 -2 30 0 6 3 -1 5 -18 5 -16 0 -22 -2 -12 -5z"/>
<path d="M2563 1053 c37 -2 96 -2 130 0 34 2 4 3 -68 3 -71 0 -99 -1 -62 -3z"/>
<path d="M13363 1053 c32 -2 81 -2 110 0 29 2 3 3 -58 3 -60 0 -84 -1 -52 -3z"/>
<path d="M13868 1053 c39 -2 105 -2 145 0 39 1 7 3 -73 3 -80 0 -112 -2 -72
-3z"/>
<path d="M7148 1043 c68 -2 176 -2 240 0 64 1 9 3 -123 3 -132 0 -185 -2 -117
-3z"/>
<path d="M12950 1040 l-115 -6 115 -1 c63 0 169 3 235 7 l120 6 -120 0 c-66 0
-172 -3 -235 -6z"/>
<path d="M2141 998 c-1 -10 6 -18 14 -18 8 0 15 8 15 18 0 13 -2 14 -9 3 -7
-11 -9 -11 -14 0 -4 10 -6 9 -6 -3z"/>
<path d="M13288 893 c29 -2 74 -2 100 0 26 2 2 3 -53 3 -55 0 -76 -1 -47 -3z"/>
<path d="M11843 883 c15 -2 39 -2 55 0 15 2 2 4 -28 4 -30 0 -43 -2 -27 -4z"/>
<path d="M12970 880 l-85 -6 75 -1 c41 0 120 3 175 7 l100 7 -90 -1 c-49 0
-128 -3 -175 -6z"/>
<path d="M8295 760 l-7 -30 -86 -2 -87 -2 83 -3 c49 -2 80 -8 77 -13 -4 -6
-21 -11 -38 -11 -19 -1 -24 -3 -14 -6 40 -10 66 6 77 47 6 22 15 40 20 40 14
0 80 -69 80 -84 0 -8 11 -17 24 -20 38 -9 81 -51 115 -111 24 -43 37 -55 55
-55 20 0 23 -4 19 -22 l-4 -23 13 23 c8 12 17 19 21 16 12 -12 8 -79 -5 -92
-19 -19 -80 -14 -118 9 l-35 21 19 -21 c10 -11 34 -23 52 -27 19 -3 31 -11 28
-16 -11 -17 -143 -74 -221 -96 l-73 -20 -25 31 c-14 18 -25 27 -25 21 0 -6 9
-19 20 -29 38 -34 62 -84 56 -111 -9 -34 -53 -74 -82 -74 -28 0 -32 25 -8 51
17 18 12 40 -9 38 -9 0 -9 -2 1 -6 20 -8 14 -20 -13 -27 -25 -6 -45 -39 -45
-73 0 -12 7 -14 37 -8 82 15 128 57 128 115 0 46 9 43 70 -19 32 -34 46 -41
77 -41 30 0 38 4 38 18 0 20 -29 64 -30 46 0 -7 -12 -20 -27 -29 -16 -10 -25
-14 -21 -10 10 11 -100 97 -114 89 -7 -4 -8 -3 -4 5 4 6 13 11 19 10 7 -1 25
3 40 9 36 15 31 17 68 -20 l32 -33 -25 35 -25 35 86 42 c120 60 133 69 147 95
30 54 6 114 -42 102 -30 -8 -46 5 -78 62 -21 38 -23 48 -13 86 5 24 15 46 21
50 7 5 7 8 -2 8 -7 0 -17 11 -22 25 -11 29 -22 31 -41 9 -7 -8 -26 -22 -41
-30 -28 -15 -31 -14 -69 20 -48 44 -65 45 -74 6z m219 -26 c4 -14 4 -40 0 -59
l-6 -34 -39 25 c-21 13 -43 24 -49 24 -20 0 -8 16 33 42 52 34 53 34 61 2z
m-20 -569 c4 -10 -1 -15 -15 -15 -17 0 -18 2 -7 15 16 18 15 18 22 0z"/>
<path d="M8351 715 c14 -23 20 -47 17 -69 -2 -19 0 -32 4 -30 15 9 8 69 -12
102 -11 17 -22 32 -25 32 -2 0 5 -16 16 -35z"/>
<path d="M3083 681 c-8 -23 -8 -28 2 -25 13 5 27 54 16 54 -4 0 -12 -13 -18
-29z"/>
<path d="M8108 703 c18 -2 45 -2 60 0 15 2 0 4 -33 4 -33 0 -45 -2 -27 -4z"/>
<path d="M7499 658 c5 -13 18 -24 32 -26 44 -7 48 -19 23 -69 -13 -25 -24 -59
-24 -75 0 -16 -5 -28 -12 -28 -9 0 -9 -3 -3 -8 6 -4 18 -40 28 -81 l17 -74
-22 -24 c-43 -45 -54 -221 -16 -245 29 -18 46 -8 52 30 19 101 24 111 79 139
29 16 55 29 60 31 4 2 7 -10 7 -27 0 -20 12 -44 40 -76 22 -25 45 -55 50 -65
17 -32 64 -52 95 -40 l27 10 -31 39 c-39 49 -61 101 -52 124 6 16 22 18 146
19 85 0 151 -4 169 -11 16 -6 31 -10 33 -7 2 2 -11 9 -31 16 -41 13 -54 27
-72 77 -7 21 -13 30 -14 20 0 -10 7 -31 15 -46 14 -27 13 -29 -8 -35 -42 -11
-186 -6 -258 9 -40 9 -74 17 -76 19 -2 2 5 19 16 37 10 19 22 45 25 59 4 14
-5 1 -19 -28 -29 -58 -66 -90 -137 -121 -41 -18 -48 -25 -58 -63 -16 -61 -18
-68 -28 -68 -4 0 -16 6 -25 12 -26 20 -12 149 20 186 15 17 22 34 18 47 -3 11
-10 52 -17 92 -13 79 -3 134 33 184 18 26 18 26 -9 39 -15 8 -33 12 -40 11 -8
-1 -16 7 -19 18 -3 12 -9 21 -14 21 -5 0 -5 -10 0 -22z m306 -429 c41 -10 42
-12 32 -38 -8 -23 -6 -35 17 -74 l27 -46 -26 -7 c-14 -3 -27 -5 -29 -3 -2 2
-24 28 -50 57 -39 44 -46 59 -46 93 0 34 3 40 16 35 9 -4 36 -11 59 -17z"/>
<path d="M2042 640 c-18 -17 -29 -30 -24 -30 5 0 21 14 37 30 37 38 30 38 -13
0z"/>
<path d="M907 624 c-8 -8 3 -34 14 -34 5 0 9 9 9 20 0 19 -11 26 -23 14z"/>
<path d="M950 604 c0 -8 5 -12 10 -9 6 3 10 10 10 16 0 5 -4 9 -10 9 -5 0 -10
-7 -10 -16z"/>
<path d="M8270 611 c0 -6 4 -13 10 -16 6 -3 7 1 4 9 -7 18 -14 21 -14 7z"/>
<path d="M3481 594 c0 -11 3 -14 6 -6 3 7 2 16 -1 19 -3 4 -6 -2 -5 -13z"/>
<path d="M3880 560 c16 -31 25 -39 33 -31 8 8 6 18 -9 38 -33 44 -48 40 -24
-7z"/>
<path d="M3515 579 c-4 -6 -5 -12 -2 -15 2 -3 7 2 10 11 7 17 1 20 -8 4z"/>
<path d="M8445 541 c-7 -12 12 -24 25 -16 11 7 4 25 -10 25 -5 0 -11 -4 -15
-9z"/>
<path d="M8600 418 c0 -4 4 -8 9 -8 6 0 12 4 15 8 3 5 -1 9 -9 9 -8 0 -15 -4
-15 -9z"/>
<path d="M167 193 c-14 -27 -35 -81 -46 -121 l-20 -72 29 0 c25 0 30 5 35 33
27 164 33 202 31 205 -2 1 -14 -19 -29 -45z"/>
<path d="M13672 122 c57 -114 62 -122 90 -122 l29 0 -31 58 c-17 32 -58 87
-90 123 l-59 64 61 -123z"/>
<path d="M13956 149 c-13 -46 -27 -99 -31 -116 -6 -30 -5 -33 19 -33 25 0 26
3 27 53 0 28 4 79 8 112 5 33 7 62 5 64 -1 1 -14 -35 -28 -80z"/>
<path d="M215 139 c-10 -15 3 -25 16 -12 7 7 7 13 1 17 -6 3 -14 1 -17 -5z"/>
<path d="M13470 130 c-6 -11 -19 -19 -28 -18 -12 2 -17 -4 -17 -19 0 -13 -9
-29 -20 -37 -19 -14 -19 -15 -1 -22 20 -8 47 4 48 21 0 27 21 47 43 42 23 -4
24 -3 9 24 -17 34 -20 35 -34 9z m17 -12 c-3 -8 -6 -5 -6 6 -1 11 2 17 5 13 3
-3 4 -12 1 -19z"/>
<path d="M24 103 c3 -21 6 -51 6 -66 0 -26 23 -47 36 -34 7 7 -35 137 -43 137
-3 0 -3 -17 1 -37z"/>
<path d="M13530 125 c-9 -11 -9 -15 -1 -15 7 0 9 -5 5 -12 -4 -7 2 -5 14 6 12
10 19 23 16 27 -8 13 -20 11 -34 -6z"/>
<path d="M13820 113 c5 -15 14 -47 20 -70 7 -27 16 -43 26 -43 17 0 14 14 -17
86 -21 49 -43 70 -29 27z"/>
<path d="M264 119 c-10 -17 12 -32 36 -24 17 5 19 10 9 21 -14 17 -35 18 -45
3z m36 -3 c0 -3 -4 -8 -10 -11 -5 -3 -10 -1 -10 4 0 6 5 11 10 11 6 0 10 -2
10 -4z"/>
<path d="M11486 105 c-13 -19 -13 -23 -2 -19 8 3 16 14 19 25 7 25 3 24 -17
-6z"/>
<path d="M12447 74 c14 -41 56 -85 69 -72 12 13 -30 90 -57 103 l-28 15 16
-46z"/>
<path d="M220 86 c0 -13 6 -26 12 -28 10 -4 10 -10 0 -32 -10 -22 -10 -27 0
-24 7 3 14 15 16 27 3 19 8 22 28 17 22 -6 23 -5 12 13 -9 15 -16 17 -25 10
-17 -15 -36 -1 -30 22 3 11 1 19 -4 19 -5 0 -9 -11 -9 -24z"/>
<path d="M1062 85 c-16 -14 -35 -39 -41 -55 -9 -26 -8 -30 9 -30 21 0 58 42
66 77 9 35 0 37 -34 8z"/>
<path d="M11377 80 c3 -11 9 -20 13 -20 5 0 6 -10 4 -22 -4 -21 -4 -21 5 -3 5
12 5 27 0 37 -14 25 -28 31 -22 8z"/>
<path d="M14053 55 c-22 -50 -22 -50 -2 -53 29 -5 31 -1 27 54 l-3 49 -22 -50z"/>
<path d="M300 70 c20 -13 33 -13 25 0 -3 6 -14 10 -23 10 -15 0 -15 -2 -2 -10z"/>
<path d="M615 40 c-38 -39 -38 -40 -14 -40 19 0 29 9 43 36 9 20 15 38 13 40
-2 2 -21 -14 -42 -36z"/>
<path d="M10596 54 c-10 -14 -16 -30 -14 -35 2 -6 11 6 21 25 20 42 16 47 -7
10z"/>
<path d="M13520 65 c-8 -8 -26 -16 -38 -18 -25 -4 -44 -25 -35 -40 2 -4 15 -1
28 7 20 13 25 13 35 1 18 -21 33 -19 21 3 -7 13 -5 20 12 29 12 7 16 12 9 13
-7 0 -10 5 -7 10 9 15 -9 12 -25 -5z"/>
<path d="M12922 35 c13 -20 31 -35 42 -35 17 0 15 5 -14 35 -43 45 -57 45 -28
0z"/>
<path d="M11281 42 c6 -10 18 -19 25 -19 19 0 18 2 -11 21 -25 16 -25 16 -14
-2z"/>
<path d="M12565 30 c-15 -29 -15 -30 5 -30 16 0 20 7 20 30 0 17 -2 30 -5 30
-2 0 -11 -13 -20 -30z"/>
<path d="M417 33 c3 -8 13 -11 24 -8 13 4 19 1 19 -9 0 -9 8 -16 18 -16 17 0
20 15 13 49 -1 2 -7 -2 -14 -8 -8 -6 -17 -8 -21 -4 -13 13 -44 10 -39 -4z"/>
<path d="M3570 34 c0 -8 5 -12 10 -9 6 4 8 11 5 16 -9 14 -15 11 -15 -7z"/>
<path d="M3491 22 c6 -10 18 -19 25 -19 19 0 18 2 -11 21 -25 16 -25 16 -14
-2z"/>
<path d="M10460 35 c0 -18 19 -40 26 -32 4 4 0 15 -9 24 -9 10 -17 13 -17 8z"/>
<path d="M13617 20 c-4 -16 0 -20 20 -20 25 0 26 0 8 20 -10 11 -19 20 -20 20
-2 0 -5 -9 -8 -20z"/>
<path d="M395 20 c-3 -5 1 -13 10 -16 22 -9 29 1 11 15 -10 8 -16 9 -21 1z"/>
<path d="M790 21 c0 -5 5 -13 10 -16 6 -3 10 -2 10 4 0 5 -4 13 -10 16 -5 3
-10 2 -10 -4z"/>
<path d="M910 15 c0 -9 9 -15 21 -15 18 0 19 2 9 15 -7 8 -16 15 -21 15 -5 0
-9 -7 -9 -15z"/>
<path d="M4375 19 c-4 -6 -5 -12 -2 -15 2 -3 7 2 10 11 7 17 1 20 -8 4z"/>
</g>
</svg>
