<?xml version="1.0" standalone="no"?>
<!DOCTYPE svg PUBLIC "-//W3C//DTD SVG 20010904//EN"
 "http://www.w3.org/TR/2001/REC-SVG-20010904/DTD/svg10.dtd">
<svg version="1.0" xmlns="http://www.w3.org/2000/svg"
 width="1108.000000pt" height="198.000000pt" viewBox="0 0 1108.000000 198.000000"
 preserveAspectRatio="xMidYMid meet">

<g transform="translate(0.000000,198.000000) scale(0.100000,-0.100000)"
fill="#000000" stroke="none">
<path d="M7883 1862 l-28 -40 -90 1 c-68 1 -98 -3 -122 -16 -43 -23 -48 -34
-12 -29 47 7 34 -6 -43 -44 -63 -30 -80 -35 -123 -30 l-50 5 28 -24 c15 -14
38 -25 49 -25 31 0 15 -10 -32 -21 -42 -10 -90 -35 -90 -49 0 -4 24 -5 53 -3
l52 3 -53 -19 c-50 -18 -102 -55 -102 -73 0 -4 19 -5 42 -2 32 6 39 4 33 -5
-10 -18 -69 -41 -101 -41 -22 0 -25 -2 -14 -15 7 -8 21 -15 31 -15 39 0 27
-19 -23 -36 -63 -20 -220 -15 -337 11 -105 24 -182 17 -266 -24 l-68 -34 -71
17 c-130 30 -171 21 -280 -63 -85 -64 -134 -79 -198 -58 -54 17 -61 8 -22 -28
15 -14 22 -25 17 -25 -26 0 -81 25 -105 48 -26 24 -28 24 -28 6 0 -44 44 -108
90 -133 l45 -23 -38 5 c-52 8 -44 -11 18 -41 35 -18 65 -24 110 -24 76 0 128
24 184 88 22 26 41 44 41 40 0 -23 -32 -76 -59 -99 -29 -24 -30 -27 -11 -27
56 0 101 43 150 143 45 91 121 151 89 71 -6 -16 -11 -56 -11 -89 -1 -74 25
-130 104 -226 44 -54 57 -79 68 -127 7 -34 10 -68 7 -76 -5 -13 -36 -16 -184
-19 l-178 -2 178 -3 177 -2 0 -45 c0 -34 -3 -43 -14 -39 -8 3 -28 -4 -45 -17
-16 -12 -36 -19 -44 -16 -12 4 -12 1 -3 -19 7 -16 12 -19 14 -9 7 30 101 69
103 43 0 -4 18 -25 39 -47 62 -65 139 -209 140 -260 0 -8 -7 -22 -16 -32 -25
-27 -47 -140 -34 -173 15 -41 39 -29 64 32 18 46 27 56 59 67 36 12 39 12 47
-10 5 -13 25 -46 45 -74 30 -41 42 -51 66 -51 36 0 36 10 3 60 -17 26 -24 47
-21 62 6 23 8 23 134 21 120 -3 193 -10 193 -19 0 -3 -7 -16 -16 -30 -37 -55
45 -57 91 -2 l25 30 35 -31 c41 -36 85 -42 85 -11 0 10 -20 44 -44 74 l-45 54
60 26 c34 14 80 40 105 57 39 27 44 34 44 69 0 35 -3 40 -22 40 -13 0 -28 4
-35 8 -12 7 -83 108 -83 117 0 3 22 5 50 5 44 0 51 -3 64 -27 l15 -28 -5 31
c-3 17 2 66 11 108 10 43 14 88 10 103 -6 27 -6 27 14 9 30 -27 43 -78 46
-175 2 -78 0 -89 -21 -114 -29 -34 -29 -42 -4 -87 23 -42 26 -32 4 13 l-15 32
28 -33 c31 -36 43 -40 43 -14 1 12 5 8 16 -11 18 -34 30 -30 14 4 -8 18 -6 46
7 112 l18 88 60 -32 c33 -17 75 -45 93 -60 18 -16 38 -29 44 -29 6 0 8 -11 5
-30 -5 -23 -1 -35 16 -51 26 -25 65 -41 78 -33 17 10 9 58 -18 112 -34 68 -54
86 -139 132 -38 21 -75 48 -81 61 -7 14 -13 18 -13 9 0 -25 12 -35 95 -82 78
-44 122 -90 139 -144 6 -18 3 -20 -25 -16 -19 3 -33 12 -36 22 -6 22 -90 86
-167 126 -77 41 -88 70 -57 152 27 70 25 80 -3 18 l-23 -50 -6 58 c-7 68 -17
81 -109 143 -92 62 -92 62 -68 114 14 31 20 67 20 119 1 87 25 155 61 177 22
12 22 13 2 8 l-21 -6 18 48 c49 129 58 145 79 133 11 -5 33 -10 49 -10 45 0
94 -20 127 -51 56 -53 130 -30 142 43 5 35 1 42 -52 100 -52 57 -101 140 -96
162 1 4 -9 22 -22 40 -20 26 -22 36 -15 65 5 18 7 40 3 49 -4 12 -12 7 -32
-21 -31 -44 -53 -48 -53 -9 0 54 -16 58 -47 14z m142 -158 c8 -9 23 -30 31
-47 9 -18 30 -47 47 -64 17 -18 27 -33 23 -33 -9 0 -126 123 -139 146 -11 20
17 18 38 -2z m-841 -849 c49 -9 112 -15 140 -14 28 2 58 -1 66 -6 23 -15 59
-36 146 -85 l79 -45 -125 -5 -125 -6 131 -2 131 -2 2 -65 c1 -36 -1 -65 -3
-65 -2 0 -10 8 -17 17 -10 11 -10 14 -1 9 8 -5 12 0 11 16 0 13 -3 17 -6 10
-2 -6 -9 -10 -14 -6 -5 3 -9 0 -9 -5 0 -6 -5 -11 -12 -11 -6 0 1 14 17 30 33
34 23 41 -12 8 l-23 -22 -30 22 c-39 29 -45 28 -56 -10 -9 -29 -15 -33 -59
-41 -30 -5 -82 -4 -129 2 -44 6 -108 11 -143 11 -60 0 -68 3 -129 46 -35 25
-64 50 -64 55 0 5 91 10 208 11 l207 3 -208 2 c-165 3 -208 6 -204 16 3 7 22
49 43 94 l38 80 31 -13 c17 -7 71 -20 119 -29z m522 -51 c27 -9 55 -24 62 -33
14 -17 11 -65 -10 -148 l-10 -43 -52 0 -51 0 32 20 c69 42 71 95 7 168 -25 28
-42 52 -37 52 5 0 32 -7 59 -16z m-786 -201 c33 -21 60 -41 60 -45 0 -4 -9
-12 -20 -18 -17 -9 -20 -8 -20 8 0 31 -26 47 -54 34 -13 -6 -27 -8 -30 -5 -7
8 -8 63 -1 63 3 0 32 -17 65 -37z m588 -5 c3 -44 22 -90 36 -85 18 6 19 46 1
75 l-16 27 20 -24 c12 -13 21 -32 21 -42 0 -10 5 -19 10 -19 6 0 10 7 10 15 0
8 4 15 8 15 13 0 72 -62 88 -92 8 -15 25 -30 38 -34 23 -5 23 -7 9 -35 -8 -16
-12 -33 -8 -39 9 -15 -29 -12 -51 5 -22 17 -34 19 -34 5 0 -5 15 -17 33 -26
l32 -17 -45 -21 c-27 -12 -68 -20 -102 -20 -48 -1 -58 -4 -63 -21 -5 -19 -6
-19 -25 5 -11 14 -20 19 -20 13 0 -7 16 -30 35 -50 39 -42 43 -67 16 -102 -13
-17 -24 -22 -36 -17 -14 5 -16 9 -7 18 27 27 13 47 -43 63 -30 9 -55 19 -55
23 0 4 -9 18 -20 32 l-20 25 10 -28 c13 -35 13 -40 0 -32 -5 3 -10 1 -10 -4 0
-16 -37 -13 -43 3 -4 9 -28 17 -64 21 -77 10 -116 30 -108 56 10 31 -9 21 -25
-14 -17 -37 -80 -82 -129 -94 -28 -7 -37 -15 -43 -40 -5 -18 -13 -35 -19 -39
-22 -13 -29 12 -18 68 9 46 16 58 35 62 33 9 37 36 14 87 -11 24 -20 53 -20
64 0 38 21 94 46 125 27 32 50 40 40 14 -8 -20 9 -51 35 -65 29 -15 143 8 167
34 9 10 17 33 17 51 0 30 1 31 39 28 22 -2 51 -8 65 -13 14 -6 53 -7 87 -3 60
6 62 5 57 -15 -3 -14 -13 -21 -28 -21 -37 0 -51 -25 -31 -55 20 -30 46 -32 70
-6 10 11 24 17 32 14 21 -8 17 10 -6 25 -23 14 -25 47 -9 105 12 44 24 42 27
-5z m-598 -88 c0 -6 -9 -5 -20 2 -11 7 -20 16 -20 21 0 4 9 3 20 -3 11 -6 20
-15 20 -20z m850 -147 c0 -26 -16 -12 -18 15 -1 21 0 23 8 12 5 -8 10 -21 10
-27z"/>
<path d="M7222 488 c-20 -20 -14 -40 11 -36 14 2 22 10 22 22 0 24 -16 31 -33
14z"/>
<path d="M6930 449 c0 -24 23 -21 28 4 2 10 -3 17 -12 17 -10 0 -16 -9 -16
-21z"/>
<path d="M7610 456 c0 -9 7 -16 16 -16 9 0 14 5 12 12 -6 18 -28 21 -28 4z"/>
<path d="M6957 412 c-23 -26 -21 -41 8 -54 14 -6 25 -18 25 -25 0 -8 5 -11 11
-8 6 4 8 13 5 20 -2 7 2 16 10 19 19 7 18 52 -2 60 -26 10 -40 7 -57 -12z"/>
<path d="M7112 418 c-30 -30 3 -68 43 -50 30 14 32 37 6 52 -25 13 -34 13 -49
-2z"/>
<path d="M7362 393 c2 -11 11 -17 21 -15 9 2 17 -2 17 -8 0 -5 7 -10 15 -10
25 0 17 30 -11 40 -36 14 -46 12 -42 -7z"/>
<path d="M8959 1813 c-13 -16 -12 -17 4 -4 15 12 17 10 17 -21 0 -18 -7 -45
-16 -58 -9 -14 5 -2 30 25 45 49 46 49 41 20 -5 -30 -5 -30 7 3 15 44 4 50
-26 16 l-25 -29 -1 33 c0 36 -11 41 -31 15z"/>
<path d="M8930 1775 c-7 -9 -11 -17 -9 -20 3 -2 10 5 17 15 14 24 10 26 -8 5z"/>
<path d="M329 1754 c-9 -11 -23 -14 -47 -10 -27 4 -39 0 -59 -20 -25 -25 -26
-43 -9 -86 6 -12 0 -18 -23 -23 -45 -10 -94 -70 -88 -108 4 -27 3 -28 -10 -12
-18 25 -17 75 3 96 15 17 15 21 -5 53 -22 35 -39 46 -72 46 -18 0 -19 -11 -19
-270 l0 -270 36 0 c20 0 48 7 64 16 26 16 30 16 71 -3 46 -22 199 -40 199 -24
0 9 49 22 91 23 14 1 41 -6 59 -15 41 -21 70 -21 96 -2 25 19 34 19 34 0 0 -8
6 -15 13 -16 31 -3 432 3 436 6 2 2 -13 12 -33 21 -20 10 -36 22 -36 27 0 5
-13 7 -29 4 -21 -5 -34 -1 -47 14 -12 13 -27 19 -41 16 -13 -2 -31 2 -40 9
-26 19 -49 17 -65 -7 -9 -15 -26 -22 -51 -24 -38 -2 -49 8 -21 19 9 3 26 6 39
6 15 0 26 7 30 20 10 33 42 44 70 26 14 -9 33 -16 43 -16 10 0 27 -9 37 -20
10 -11 27 -20 39 -20 11 -1 66 -3 121 -6 96 -3 274 -13 645 -34 164 -10 320
-23 418 -36 52 -7 54 6 7 53 -31 31 -39 35 -82 32 -42 -3 -52 1 -80 28 -42 40
-78 47 -125 24 -25 -12 -39 -15 -40 -7 -2 19 -5 31 -10 46 -3 8 -12 34 -19 58
l-13 44 -17 -34 c-9 -18 -15 -37 -12 -41 3 -4 0 -13 -5 -20 -5 -7 -10 -20 -11
-29 -4 -58 -9 -62 -29 -20 -24 49 -26 56 -14 48 17 -10 15 9 -3 24 -8 7 -14
22 -13 34 2 26 -21 86 -33 86 -5 0 -9 -8 -9 -18 0 -10 -7 -28 -16 -40 -10 -14
-11 -22 -4 -22 7 0 4 -14 -9 -36 -12 -19 -17 -32 -11 -29 5 3 10 3 10 0 0 -6
-19 -46 -25 -53 -2 -2 -15 4 -29 13 -14 10 -35 15 -46 12 -14 -4 -26 3 -40 24
-43 59 -156 61 -194 4 -10 -16 -26 -25 -42 -25 -14 0 -34 -5 -45 -11 -15 -8
-25 -6 -46 11 -20 15 -34 19 -56 14 -22 -5 -32 -1 -43 15 -10 14 -26 21 -49
21 -39 0 -107 29 -99 42 3 5 -1 20 -10 33 -14 21 -14 26 0 54 14 29 14 34 0
56 -9 14 -25 25 -35 25 -12 0 -21 10 -25 26 -5 19 -12 25 -30 22 -13 -1 -31 3
-39 11 -22 18 -64 7 -72 -19 -4 -11 -11 -18 -16 -14 -29 17 -72 -34 -66 -80 1
-12 -8 -25 -26 -35 -26 -15 -29 -15 -43 4 -13 18 -13 21 5 29 32 14 30 39 -7
73 -27 26 -33 38 -28 57 10 39 -27 76 -75 76 -25 0 -39 5 -39 13 0 20 -38 57
-59 57 -10 0 -25 -7 -32 -16z m70 -275 c-11 -16 -22 -29 -25 -29 -2 0 -4 15
-4 34 0 30 2 33 25 28 l25 -4 -21 -29z m-76 -20 c-9 -9 -12 -7 -10 9 1 14 5
18 11 12 7 -7 6 -14 -1 -21z m-31 -22 c7 -8 19 -12 26 -9 6 2 12 -2 12 -9 0
-7 -3 -9 -7 -6 -3 4 -12 2 -18 -3 -9 -7 -17 -3 -29 15 -17 26 -7 34 16 12z"/>
<path d="M10046 1729 c-23 -34 -31 -40 -49 -34 -55 18 -142 16 -182 -4 -35
-17 -37 -20 -15 -20 21 -1 23 -3 8 -11 -32 -19 -118 -30 -161 -21 l-42 10 28
-25 c15 -13 37 -24 48 -24 38 0 18 -18 -28 -25 -62 -9 -116 -37 -142 -74 -27
-38 -26 -45 3 -26 14 9 37 15 53 13 26 -3 25 -5 -28 -35 -31 -18 -67 -33 -79
-33 -38 0 -4 -28 38 -32 l37 -3 -45 -30 c-25 -16 -53 -37 -63 -47 -25 -25
-117 -24 -290 4 -141 22 -164 21 -266 -8 -20 -6 -23 -4 -18 10 12 30 20 71 13
65 -3 -3 -17 -50 -30 -105 -18 -73 -24 -123 -23 -189 2 -92 -9 -129 -48 -168
-13 -14 -10 -17 33 -32 126 -45 152 -64 152 -115 0 -14 8 -37 18 -50 25 -37
22 -138 -7 -222 -13 -38 -25 -68 -27 -68 -1 0 -12 14 -24 30 -18 25 -19 34
-10 45 18 22 -4 18 -23 -3 -10 -10 -17 -30 -17 -44 0 -38 20 -88 36 -88 17 0
61 65 68 100 2 14 11 42 18 63 l14 39 83 -88 c46 -48 94 -105 108 -126 14 -21
36 -41 49 -44 17 -4 24 -13 24 -30 0 -40 64 -67 114 -48 27 11 18 30 -48 101
-109 116 -186 205 -186 213 0 5 21 11 48 13 l47 3 -52 2 c-51 2 -52 3 -62 40
-11 36 -16 262 -6 262 2 0 21 -8 41 -17 l37 -18 -34 -6 c-32 -6 -31 -6 13 -8
26 0 77 -8 114 -17 46 -10 106 -15 184 -13 64 1 123 -2 131 -7 8 -4 48 -15 89
-24 54 -11 76 -20 78 -32 2 -9 -5 -18 -15 -21 -17 -4 -17 -5 0 -6 13 -1 17
-10 17 -45 0 -78 -9 -103 -40 -110 -22 -4 -32 -15 -45 -51 -10 -25 -15 -49
-11 -52 4 -4 34 0 66 8 33 9 63 12 68 7 11 -11 49 33 99 118 23 39 49 76 57
84 9 7 16 19 16 27 0 12 5 12 29 -4 37 -23 72 -74 96 -139 10 -27 27 -58 37
-70 13 -15 16 -29 12 -51 -5 -25 -1 -34 21 -52 15 -11 41 -21 57 -21 29 0 30
1 24 38 -4 20 -9 45 -12 55 -5 15 3 17 76 17 45 0 90 5 101 11 15 8 24 7 35
-2 16 -13 23 -8 38 26 3 6 11 2 18 -7 8 -9 27 -20 44 -24 27 -6 28 -5 10 8
-24 19 -13 38 21 38 22 0 24 -3 19 -26 -7 -25 -6 -26 41 -23 26 1 54 7 61 12
8 6 12 5 12 -4 0 -9 8 -6 22 9 17 17 20 24 10 34 -7 7 -12 19 -12 28 1 12 4
11 16 -5 14 -19 16 -19 25 -2 19 32 29 17 12 -18 -16 -33 -11 -64 6 -36 5 7
14 10 20 7 6 -4 11 -2 11 3 0 6 5 11 11 11 6 0 8 -9 4 -20 -6 -19 -2 -20 114
-20 l121 0 0 77 c0 73 -1 75 -18 60 -31 -28 -49 -22 -44 15 l4 33 -26 -30
c-24 -28 -27 -29 -40 -12 -13 16 -14 16 -19 -4 -7 -27 -24 -17 -32 21 -7 33
-25 31 -25 -3 0 -22 -1 -22 -20 3 l-20 25 -6 -23 c-8 -28 -19 -28 -38 0 -16
22 -16 22 -31 3 -14 -18 -15 -10 -9 90 7 118 6 184 -2 197 -7 12 -72 10 -79
-2 -4 -6 -6 -50 -6 -97 0 -59 -3 -90 -12 -95 -9 -6 -9 -8 1 -8 16 0 15 -80 -2
-103 -18 -23 -25 -21 -19 6 4 20 2 19 -21 -7 -14 -17 -23 -33 -20 -38 3 -4 -1
-8 -10 -8 -8 0 -19 12 -24 28 l-9 27 -13 -27 c-13 -28 -30 -38 -30 -18 0 6 -7
10 -15 10 -7 0 -19 8 -24 17 -9 16 -10 16 -11 2 0 -9 -9 -19 -21 -22 -16 -4
-19 -11 -14 -26 7 -23 -4 -28 -23 -9 -9 9 -12 7 -12 -12 l0 -23 -26 24 -26 24
6 -22 c8 -26 -11 -32 -33 -11 -10 11 -11 10 -6 -4 8 -21 -5 -24 -24 -6 -11 11
-13 10 -8 -4 5 -15 1 -18 -22 -18 -24 0 -33 8 -53 48 -104 198 -119 220 -158
246 -24 16 -38 31 -34 38 4 6 3 8 -3 5 -6 -4 -34 13 -61 38 l-51 46 15 35 c10
23 14 64 13 122 -2 63 3 100 15 132 70 179 72 182 124 168 113 -29 145 -42
165 -64 44 -51 127 -19 127 50 0 26 -13 49 -65 111 -36 43 -65 85 -65 92 0 7
-18 32 -40 55 -45 48 -43 42 -31 86 16 55 3 68 -30 30 l-28 -33 -1 38 c0 20
-4 37 -9 37 -4 0 -21 -18 -35 -41z m192 -226 l34 -48 -56 57 c-31 31 -56 65
-56 75 1 15 4 14 23 -9 12 -15 37 -48 55 -75z m-368 -783 c12 -8 11 -10 -7
-10 -13 0 -23 5 -23 10 0 13 11 13 30 0z m10 -32 c0 -12 -36 -78 -42 -78 -2 0
-2 20 0 45 3 36 8 45 23 45 10 0 19 -6 19 -12z m760 -112 c0 -3 -4 -8 -10 -11
-5 -3 -10 -1 -10 4 0 6 5 11 10 11 6 0 10 -2 10 -4z m-170 -21 c7 -9 10 -18 7
-22 -8 -7 -37 15 -37 28 0 14 16 11 30 -6z m574 0 c-4 -8 -10 -15 -15 -15 -5
0 -9 7 -9 15 0 8 7 15 15 15 9 0 12 -6 9 -15z"/>
<path d="M8688 1753 c6 -2 18 -2 25 0 6 3 1 5 -13 5 -14 0 -19 -2 -12 -5z"/>
<path d="M8773 1753 c9 -2 23 -2 30 0 6 3 -1 5 -18 5 -16 0 -22 -2 -12 -5z"/>
<path d="M8858 1753 c7 -3 16 -2 19 1 4 3 -2 6 -13 5 -11 0 -14 -3 -6 -6z"/>
<path d="M8634 1734 c-18 -14 -18 -15 4 -4 12 6 22 13 22 15 0 8 -5 6 -26 -11z"/>
<path d="M8865 1730 c-13 -6 -15 -9 -5 -9 8 0 22 4 30 9 18 12 2 12 -25 0z"/>
<path d="M9000 1737 c0 -2 14 -16 32 -33 31 -29 31 -29 12 -2 -16 23 -44 45
-44 35z"/>
<path d="M8555 1695 c-25 -12 -26 -14 -5 -9 14 4 29 10 35 15 12 12 5 11 -30
-6z"/>
<path d="M8780 1689 c-17 -13 -18 -17 -5 -10 33 17 51 31 40 31 -5 0 -21 -10
-35 -21z"/>
<path d="M8485 1670 c27 -12 43 -12 25 0 -8 5 -22 9 -30 9 -10 0 -8 -3 5 -9z"/>
<path d="M8729 1653 c-13 -16 -12 -17 4 -4 16 13 21 21 13 21 -2 0 -10 -8 -17
-17z"/>
<path d="M9080 1661 c0 -6 4 -13 10 -16 6 -3 7 1 4 9 -7 18 -14 21 -14 7z"/>
<path d="M8548 1653 c12 -2 30 -2 40 0 9 3 -1 5 -23 4 -22 0 -30 -2 -17 -4z"/>
<path d="M8508 1623 c7 -3 16 -2 19 1 4 3 -2 6 -13 5 -11 0 -14 -3 -6 -6z"/>
<path d="M9006 1621 c-9 -15 23 -36 36 -23 5 5 7 15 4 21 -9 13 -33 14 -40 2z"/>
<path d="M8468 1613 c7 -3 16 -2 19 1 4 3 -2 6 -13 5 -11 0 -14 -3 -6 -6z"/>
<path d="M9118 1595 c11 -16 37 -46 58 -65 31 -28 29 -24 -10 20 -66 74 -73
80 -48 45z"/>
<path d="M8389 1573 l-24 -28 30 25 c17 14 32 26 34 28 2 1 0 2 -6 2 -5 0 -20
-12 -34 -27z"/>
<path d="M8634 1558 l-19 -23 23 19 c21 18 27 26 19 26 -2 0 -12 -10 -23 -22z"/>
<path d="M8465 1550 c-7 -12 2 -12 30 0 19 8 19 9 -2 9 -12 1 -25 -3 -28 -9z"/>
<path d="M8389 1503 c-13 -16 -12 -17 4 -4 16 13 21 21 13 21 -2 0 -10 -8 -17
-17z"/>
<path d="M8589 1503 c-13 -16 -12 -17 4 -4 16 13 21 21 13 21 -2 0 -10 -8 -17
-17z"/>
<path d="M8894 1483 c19 -23 19 -23 0 -45 l-19 -23 25 20 c14 11 26 20 27 21
2 0 -9 11 -24 25 -25 22 -26 22 -9 2z"/>
<path d="M8356 1473 c-6 -14 -5 -15 5 -6 7 7 10 15 7 18 -3 3 -9 -2 -12 -12z"/>
<path d="M9225 1482 c4 -8 11 -26 15 -40 7 -22 8 -23 9 -6 1 11 -6 29 -15 40
-8 10 -12 13 -9 6z"/>
<path d="M9200 1441 c0 -12 5 -21 10 -21 6 0 10 6 10 14 0 8 -4 18 -10 21 -5
3 -10 -3 -10 -14z"/>
<path d="M8337 1436 c-4 -11 -5 -21 -2 -24 3 -3 5 0 5 7 0 7 4 10 8 7 4 -2 14
0 22 6 12 8 12 9 -2 5 -9 -3 -18 -1 -21 6 -2 6 -7 3 -10 -7z"/>
<path d="M8375 1398 l-50 -51 50 43 c28 24 54 47 60 52 6 5 6 8 0 8 -6 -1 -32
-24 -60 -52z"/>
<path d="M8519 1413 l-34 -38 38 34 c34 33 42 41 34 41 -2 0 -19 -17 -38 -37z"/>
<path d="M8950 1441 c8 -5 35 -11 60 -14 25 -3 38 -2 30 2 -8 5 -35 11 -60 14
-25 3 -38 2 -30 -2z"/>
<path d="M2400 1414 c0 -16 -12 -37 -34 -57 -19 -18 -38 -48 -43 -67 -6 -19
-22 -53 -37 -74 -30 -45 -35 -119 -11 -166 52 -101 211 -99 292 4 l20 25 6
-92 c4 -51 10 -129 13 -173 8 -98 -5 -143 -52 -197 -32 -35 -34 -41 -32 -105
l1 -67 6 67 c5 54 11 72 33 95 35 37 58 93 58 143 0 36 2 40 25 40 14 0 35 10
46 21 19 19 21 28 15 90 -10 94 -4 107 47 116 29 4 53 17 76 40 34 34 35 38
16 113 -5 18 -1 33 12 49 19 23 22 23 114 15 83 -8 94 -11 94 -28 0 -12 -18
-32 -45 -51 -59 -42 -61 -63 -11 -113 43 -43 47 -59 31 -127 -12 -54 -3 -83
32 -101 34 -18 84 -6 113 26 13 15 31 20 65 20 73 0 84 13 90 116 l5 89 48 26
c72 39 88 59 90 112 l2 47 40 0 c22 0 57 -3 78 -6 47 -8 50 -37 7 -82 -36 -38
-38 -62 -8 -110 12 -19 25 -58 29 -86 7 -40 16 -58 44 -83 41 -39 49 -40 79
-10 16 16 26 41 31 78 4 30 13 68 20 84 7 17 17 43 24 58 15 38 34 43 70 16
21 -16 45 -23 79 -23 65 -1 86 16 79 65 -8 57 -29 92 -71 115 -36 20 -74 69
-63 80 15 16 117 1 117 -16 0 -5 11 -21 25 -36 14 -15 31 -47 37 -72 8 -31 26
-60 62 -97 40 -40 51 -59 51 -81 -2 -47 -55 -64 -120 -39 -16 6 -18 5 -8 -5 6
-7 26 -16 45 -21 l33 -8 -35 5 c-19 2 -71 8 -115 12 -54 5 -93 14 -120 29
l-40 23 31 -27 31 -26 -23 -21 c-33 -29 -88 -125 -119 -206 -14 -37 -42 -87
-63 -111 l-37 -43 -6 34 -6 35 -2 -36 c-1 -34 1 -37 28 -35 16 1 38 9 48 19
11 9 24 17 30 17 15 0 23 -53 10 -62 -8 -5 -8 -8 -1 -8 22 0 144 -197 144
-234 0 -7 7 -16 15 -20 8 -3 15 -14 15 -25 0 -24 28 -41 67 -41 49 0 59 14 36
46 -12 16 -30 45 -40 64 -11 19 -35 58 -52 86 -17 27 -34 67 -38 87 l-6 37 87
0 86 0 0 -52 c1 -52 1 -52 16 -28 l15 25 -5 -32 c-3 -19 -1 -33 4 -33 6 0 10
6 11 13 0 6 4 3 9 -8 7 -19 9 -18 19 8 6 16 11 46 11 67 l0 39 78 4 77 3 -77
2 -78 2 0 35 c0 33 2 35 33 35 17 1 61 7 97 15 36 8 88 14 117 15 l51 0 7 -42
c3 -24 9 -57 12 -75 4 -28 0 -35 -38 -62 -23 -17 -48 -31 -56 -31 -7 0 -21 -4
-31 -9 -9 -5 -25 -12 -34 -15 -20 -6 -42 -76 -29 -89 18 -18 110 14 164 58 29
23 62 47 75 54 13 7 29 26 36 43 l13 30 31 -54 c17 -30 37 -79 43 -109 6 -30
17 -61 25 -70 8 -8 14 -24 14 -35 0 -15 11 -23 42 -31 37 -10 88 -3 88 11 0 3
-13 21 -30 39 -39 45 -86 158 -94 227 -3 30 -13 75 -21 100 -9 25 -14 34 -12
20 22 -143 60 -279 90 -316 18 -24 18 -24 -8 -34 -14 -5 -29 -10 -33 -10 -16
1 -40 48 -47 90 -7 48 -75 194 -138 299 -22 36 -43 74 -47 85 -5 12 -9 15 -9
7 -1 -7 8 -28 19 -46 l20 -32 -73 5 c-44 2 -106 -2 -158 -12 -108 -20 -145
-20 -224 1 l-63 17 -40 -28 c-29 -20 -38 -32 -35 -47 6 -22 -12 -26 -21 -4 -6
17 -56 21 -56 4 0 -5 4 -8 9 -4 5 3 13 0 17 -6 4 -8 9 -7 15 2 6 10 9 5 9 -16
0 -52 20 -107 67 -188 37 -64 43 -81 32 -88 -32 -20 -60 0 -77 56 -7 22 -30
65 -52 95 -69 96 -93 150 -66 150 9 0 16 -9 16 -20 0 -13 6 -20 18 -19 10 0
12 3 5 6 -7 2 -13 11 -13 18 0 7 -14 22 -31 32 l-30 20 45 50 c78 86 50 73
-35 -17 -67 -71 -75 -77 -49 -38 17 26 46 83 64 126 19 44 45 97 59 119 22 35
29 39 55 35 24 -3 36 2 53 22 16 18 33 26 55 26 43 0 57 -20 49 -69 -6 -35 -3
-44 18 -65 32 -32 86 -42 123 -24 16 7 39 32 52 56 13 24 41 54 62 67 43 27
70 61 70 88 0 10 -9 35 -20 57 -11 22 -20 44 -20 50 0 6 20 25 45 42 30 21 48
43 53 63 l8 30 90 0 c83 0 89 -1 86 -20 -2 -11 -13 -26 -23 -33 -16 -11 -19
-24 -17 -75 3 -52 0 -62 -15 -65 -12 -2 -21 6 -28 27 -11 32 -41 42 -56 19 -4
-7 -8 -40 -9 -73 0 -33 -4 -79 -9 -101 -7 -39 -5 -44 28 -79 29 -30 35 -46 39
-90 5 -65 32 -112 54 -94 8 6 14 29 14 54 0 44 54 165 74 165 5 0 19 -9 31
-20 18 -17 27 -19 50 -10 15 6 30 8 33 6 10 -10 -41 -116 -75 -155 -38 -45
-49 -50 -56 -23 -4 13 -5 12 -6 -5 -1 -29 12 -36 35 -18 12 9 47 15 94 17 l75
2 -68 3 -67 4 25 37 c14 20 25 42 25 49 0 8 15 14 38 14 l37 2 -32 6 -32 6 29
59 c22 46 26 65 19 83 -14 38 -10 76 11 103 11 14 20 39 20 55 0 17 5 37 10
45 9 13 14 11 31 -12 35 -47 137 -57 184 -18 39 32 -15 148 -90 192 -54 33
-66 55 -40 74 16 12 16 14 3 14 -9 0 -26 -16 -38 -35 -21 -34 -22 -34 -50 -20
-38 19 -109 20 -116 1 -3 -8 -1 -23 5 -34 16 -30 -3 -34 -194 -43 -93 -4 -218
-11 -277 -15 -106 -7 -108 -6 -108 14 0 25 -35 38 -75 28 -23 -6 -24 -5 -15
20 12 31 12 35 0 54 -8 13 -13 11 -32 -12 -22 -26 -25 -27 -65 -16 -36 10 -48
9 -77 -4 -34 -17 -34 -17 -40 8 -4 13 -11 24 -16 24 -15 0 -30 -44 -23 -68 5
-19 3 -20 -31 -10 -49 15 -101 0 -100 -30 1 -27 11 -25 -161 -26 -77 -1 -185
-7 -240 -15 -115 -15 -283 -9 -415 15 -174 33 -263 -2 -356 -141 -48 -72 -92
-99 -151 -92 -87 9 -117 81 -73 172 15 30 32 47 60 60 68 31 89 88 56 153 -20
39 -36 41 -36 6z m1510 -94 c5 0 10 -7 10 -15 0 -20 -46 -20 -54 1 -3 9 -6 30
-6 47 l0 32 20 -32 c11 -18 24 -33 30 -33z m174 18 c-11 -21 -19 -27 -26 -20
-7 7 -4 18 8 35 26 34 38 23 18 -15z m-1775 -135 c-54 -106 5 -203 115 -191
38 5 56 14 86 43 43 42 69 31 29 -12 -36 -38 -77 -55 -130 -55 -84 0 -139 52
-139 131 0 41 32 121 49 121 5 0 0 -17 -10 -37z m1743 -535 c37 -11 39 -13 36
-47 l-3 -36 -78 -3 -78 -3 7 27 c7 27 50 73 68 74 5 0 26 -5 48 -12z m480 -15
c64 -73 56 -133 -25 -189 -29 -19 -67 -46 -86 -60 -42 -30 -61 -31 -61 -1 0
31 10 43 50 60 19 8 48 27 64 41 27 26 28 31 22 81 -3 29 -9 60 -12 69 -9 22
28 21 48 -1z"/>
<path d="M5065 1377 c25 -24 51 -62 60 -86 18 -51 76 -127 105 -136 16 -5 18
-12 13 -38 -3 -18 -13 -38 -21 -44 -19 -16 -66 -17 -95 -2 -21 10 -21 10 -3
-5 20 -16 20 -16 0 -17 -12 -1 -8 -5 13 -11 25 -8 40 -7 67 6 69 33 75 87 15
135 -22 19 -49 47 -59 64 l-19 31 30 34 c17 19 29 41 27 50 -4 20 -58 28 -87
13 -17 -9 -23 -6 -41 19 -12 17 -27 30 -35 30 -7 0 6 -19 30 -43z m102 -333
c-3 -3 -12 -4 -19 -1 -8 3 -5 6 6 6 11 1 17 -2 13 -5z"/>
<path d="M9100 1400 c8 -5 20 -10 25 -10 6 0 3 5 -5 10 -8 5 -19 10 -25 10 -5
0 -3 -5 5 -10z"/>
<path d="M9159 1387 c26 -29 22 -34 -12 -15 -20 10 -21 10 -8 -6 21 -25 101
-5 101 26 0 5 -7 2 -16 -6 -20 -20 -20 -20 -57 6 l-32 22 24 -27z"/>
<path d="M8425 1360 c-3 -6 1 -7 9 -4 18 7 21 14 7 14 -6 0 -13 -4 -16 -10z"/>
<path d="M10607 1342 c-23 -25 -47 -98 -47 -142 l0 -37 -35 11 c-19 6 -35 17
-35 23 0 7 -4 13 -10 13 -5 0 -10 -4 -10 -10 0 -6 -28 -10 -64 -10 -63 0 -64
0 -100 -45 -25 -30 -45 -45 -61 -45 -13 0 -37 -11 -53 -25 -19 -15 -33 -21
-37 -15 -9 14 -37 12 -72 -5 -68 -34 -58 -40 73 -40 l124 -1 0 39 c0 29 8 50
31 78 17 21 36 39 43 39 8 0 26 -18 41 -41 l29 -40 88 3 88 3 0 -42 0 -43 45
0 c45 0 45 0 45 35 0 35 0 35 45 35 44 0 45 0 45 -34 0 -31 3 -34 37 -41 21
-4 88 -4 150 0 l113 7 0 54 c0 50 -2 54 -24 54 -13 0 -29 -7 -36 -15 -10 -11
-36 -15 -110 -15 l-98 0 -11 33 c-6 17 -24 39 -40 48 -25 15 -31 15 -54 1 -14
-8 -34 -32 -46 -51 -17 -30 -21 -32 -21 -14 0 12 16 37 36 57 l37 36 -23 62
c-22 60 -45 98 -60 98 -4 0 -14 -8 -23 -18z"/>
<path d="M7923 1333 c9 -2 23 -2 30 0 6 3 -1 5 -18 5 -16 0 -22 -2 -12 -5z"/>
<path d="M8360 1325 c-14 -8 -20 -14 -14 -15 5 0 19 7 30 15 24 18 16 19 -16
0z"/>
<path d="M7845 1320 c-25 -11 1 -11 35 0 20 6 21 8 5 8 -11 0 -29 -3 -40 -8z"/>
<path d="M7983 1323 c9 -2 23 -2 30 0 6 3 -1 5 -18 5 -16 0 -22 -2 -12 -5z"/>
<path d="M8038 1313 c6 -2 18 -2 25 0 6 3 1 5 -13 5 -14 0 -19 -2 -12 -5z"/>
<path d="M8128 1303 c7 -3 16 -2 19 1 4 3 -2 6 -13 5 -11 0 -14 -3 -6 -6z"/>
<path d="M8208 1293 c12 -2 32 -2 45 0 12 2 2 4 -23 4 -25 0 -35 -2 -22 -4z"/>
<path d="M5170 1115 c0 -8 7 -15 15 -15 9 0 12 6 9 15 -4 8 -10 15 -15 15 -5
0 -9 -7 -9 -15z"/>
<path d="M5710 1090 c-7 -25 -14 -53 -15 -62 -1 -10 -4 -21 -8 -24 -12 -12
-37 5 -37 25 0 24 -20 71 -31 71 -8 0 -12 -11 -23 -62 -10 -44 -33 -34 -40 17
-9 60 -23 65 -36 13 -15 -63 -22 -70 -62 -74 -68 -6 -115 -24 -132 -49 -16
-25 -16 -25 16 -25 18 0 89 7 158 14 69 8 172 18 229 21 57 4 115 11 130 15
21 6 15 9 -36 15 -66 8 -73 14 -79 75 -1 14 -6 36 -12 50 -9 24 -10 23 -22
-20z"/>
<path d="M3471 1064 c-14 -18 -21 -39 -19 -58 3 -27 7 -31 32 -31 36 0 78 63
60 92 -18 29 -49 27 -73 -3z"/>
<path d="M4932 1075 c4 -4 -13 -32 -39 -62 -25 -29 -44 -56 -41 -58 3 -3 24
17 47 45 l42 50 82 1 82 2 -76 7 c-42 4 -83 11 -90 15 -8 5 -11 5 -7 0z"/>
<path d="M10338 1040 c5 -34 17 -32 24 5 4 19 1 25 -12 25 -13 0 -16 -7 -12
-30z"/>
<path d="M10700 1040 c0 -28 3 -30 35 -30 32 0 35 2 35 30 0 28 -3 30 -35 30
-32 0 -35 -2 -35 -30z"/>
<path d="M4136 1045 c4 -9 11 -14 16 -13 15 5 11 23 -6 26 -11 2 -14 -2 -10
-13z"/>
<path d="M2847 982 c-31 -32 -34 -58 -11 -90 23 -33 41 -27 75 26 37 59 35 86
-6 90 -23 2 -37 -4 -58 -26z"/>
<path d="M7972 950 c0 -14 2 -19 5 -12 2 6 2 18 0 25 -3 6 -5 1 -5 -13z"/>
<path d="M4386 921 c-20 -22 -18 -66 3 -66 21 0 53 48 45 68 -8 22 -27 22 -48
-2z"/>
<path d="M317 913 c-4 -3 -7 -21 -7 -39 l0 -33 -72 -4 -73 -3 73 -2 72 -2 0
-60 0 -60 -92 -1 c-51 -1 -122 -5 -158 -9 -42 -5 -8 -6 93 -3 l157 5 0 -47 c0
-29 -4 -44 -10 -40 -6 4 -8 10 -6 14 3 4 0 8 -7 9 -58 8 -62 7 -65 -15 -4 -27
-28 -30 -36 -5 -4 9 -15 28 -25 41 l-18 24 5 -51 c5 -58 -9 -69 -30 -25 -19
39 -39 42 -32 4 5 -26 3 -31 -12 -31 -14 0 -25 15 -39 53 l-19 52 -7 -60 c-4
-33 -7 -84 -8 -112 l-1 -53 35 0 c37 0 43 8 23 28 -8 8 -9 12 -1 12 6 0 13 -5
15 -12 2 -6 14 -13 27 -15 19 -2 22 0 17 14 -6 17 -5 17 7 1 7 -9 29 -19 49
-23 27 -5 38 -13 42 -31 4 -14 15 -33 25 -43 11 -11 27 -35 36 -55 10 -20 35
-50 56 -67 40 -32 50 -64 27 -87 -7 -7 -20 -12 -30 -12 -24 0 -23 -21 2 -27
10 -3 22 -13 25 -23 3 -10 17 -21 31 -24 46 -12 62 18 19 34 -30 12 -32 29 -5
58 17 18 18 22 5 22 -8 0 -19 10 -24 23 -5 13 -22 32 -37 42 -37 24 -63 56
-64 76 0 9 -7 22 -16 30 -8 7 -22 25 -30 41 -13 25 -13 28 2 28 15 0 14 3 -4
23 -26 28 -29 52 -6 43 15 -6 15 -4 0 18 -9 14 -16 33 -16 42 0 15 2 15 26 -1
l27 -17 -17 23 c-19 28 -21 59 -3 59 6 0 39 -30 73 -66 59 -65 62 -67 108 -67
63 1 91 22 111 82 9 27 25 61 36 75 27 35 71 35 93 1 15 -22 15 -25 1 -25 -8
0 -21 -11 -27 -25 -9 -20 -8 -28 5 -43 9 -9 21 -29 27 -42 9 -23 10 -22 4 8
l-6 33 53 -3 54 -3 7 -42 c9 -55 29 -80 101 -128 l58 -40 -6 -47 c-6 -53 6
-69 36 -42 12 11 19 13 19 5 0 -8 7 -10 20 -6 10 3 28 1 39 -4 14 -8 22 -7 32
5 14 17 4 30 -26 36 -31 5 -42 50 -19 81 31 43 42 40 65 -13 12 -28 25 -50 30
-50 4 0 17 -20 28 -45 13 -29 32 -52 55 -66 27 -16 36 -28 36 -48 0 -36 -26
-71 -48 -65 -9 2 -7 -1 5 -7 13 -7 25 -20 28 -30 7 -20 39 -34 55 -24 16 10
12 35 -5 35 -9 0 -18 6 -21 14 -9 23 15 56 39 56 12 0 28 4 36 9 8 5 21 6 30
1 9 -4 33 -15 54 -24 33 -14 36 -18 27 -36 -12 -22 -1 -27 17 -9 6 6 9 17 6
24 -3 8 5 15 19 18 13 2 8 3 -10 1 -18 -1 -30 1 -27 5 2 5 -2 14 -10 21 -25
20 -17 38 24 60 41 20 76 58 87 92 6 19 7 20 16 4 6 -11 5 -21 -6 -32 -9 -8
-16 -16 -16 -17 0 -1 27 -2 60 -2 67 0 81 16 28 31 -26 8 -34 16 -36 37 -2 15
-10 27 -18 27 -9 0 -14 11 -14 33 0 17 -5 52 -11 76 -7 30 -6 47 1 56 6 7 8
25 4 40 -6 25 -5 27 17 21 21 -6 22 -5 8 6 -26 22 -30 69 -7 106 11 17 17 38
15 45 -3 7 -6 5 -6 -5 -1 -14 -11 -18 -43 -20 l-43 -1 37 -4 c33 -4 36 -6 26
-22 -10 -16 -14 -17 -38 -4 -22 11 -33 11 -54 2 -14 -7 -26 -17 -26 -23 0 -6
-4 -6 -11 1 -19 19 -2 41 33 46 32 4 32 4 -6 5 -35 2 -38 4 -32 25 3 12 6 39
6 59 0 35 2 37 38 41 l37 4 -37 1 c-35 2 -37 4 -40 40 -3 36 -4 37 -43 37
l-40 0 2 -92 c2 -51 0 -93 -4 -93 -3 0 -15 7 -25 17 -10 9 -18 12 -18 7 0 -5
12 -17 28 -27 15 -9 49 -36 76 -60 l50 -44 -21 -29 c-12 -17 -25 -43 -29 -60
-8 -35 -31 -74 -43 -74 -5 0 -12 13 -16 29 -3 15 -17 38 -30 50 -30 25 -34 12
-5 -14 31 -28 24 -42 -26 -50 -42 -6 -50 -4 -72 18 -23 23 -25 34 -26 111 l-2
86 38 0 c28 0 38 -5 43 -20 3 -11 3 -25 0 -30 -4 -6 1 -22 9 -35 16 -25 16
-25 -16 -26 -25 -1 -27 -3 -10 -6 13 -3 30 -2 38 1 13 5 13 9 1 28 -16 27 -16
94 0 91 12 -3 6 34 -8 43 -5 3 -6 -1 -3 -9 6 -17 -7 -23 -62 -26 -30 -1 -43 3
-47 14 -4 8 -1 15 4 15 7 0 9 11 7 25 -4 17 -1 25 8 25 8 0 14 5 14 10 0 6 -4
10 -9 10 -5 0 -12 13 -16 30 -7 32 -38 60 -67 60 -21 0 -50 -28 -42 -41 3 -6
-1 -21 -10 -34 -8 -13 -20 -44 -27 -69 l-11 -46 -64 0 c-63 0 -64 0 -88 39
-40 63 -96 93 -96 51 0 -11 -6 -20 -14 -20 -15 0 -26 -21 -26 -51 0 -14 -7
-19 -30 -19 -16 0 -30 4 -30 10 0 5 -13 16 -29 24 -26 14 -32 14 -60 0 -17 -9
-31 -19 -31 -24 0 -5 -26 -11 -57 -13 l-58 -3 58 -2 c31 -1 57 -5 57 -9 0 -13
-47 -123 -55 -131 -5 -4 -5 1 -2 11 5 14 1 17 -24 17 -26 0 -29 3 -24 20 3 11
2 20 -3 20 -5 0 -17 -9 -27 -20 -29 -32 -35 -24 -35 39 0 48 3 60 18 64 15 4
15 5 -2 6 -12 1 -16 6 -12 17 3 9 6 35 6 59 l0 44 73 4 72 3 -72 2 -73 2 0 34
c0 22 -6 36 -16 40 -21 8 -59 8 -67 -1z m841 -89 c28 -20 28 -28 -3 -42 -30
-14 -32 -41 -6 -64 23 -19 46 -115 37 -152 -6 -26 -6 -26 -26 -6 -11 11 -26
20 -34 20 -16 0 -29 -27 -20 -41 3 -5 1 -9 -4 -9 -6 0 -13 -22 -17 -50 -5 -39
-11 -51 -28 -55 -12 -4 -32 -18 -43 -32 -31 -37 -65 -32 -129 17 -71 55 -75
62 -77 132 -1 15 -5 25 -9 22 -5 -3 -9 2 -9 10 0 9 -5 15 -12 14 -7 -2 -12 2
-13 9 0 6 -3 15 -8 19 -4 4 -7 14 -7 22 0 12 3 12 18 1 15 -12 16 -12 6 1 -6
8 -14 28 -18 44 -6 26 -5 28 8 17 19 -16 20 -11 4 24 -17 38 -2 42 34 9 30
-28 30 -17 1 18 -8 9 -13 25 -11 35 4 19 19 6 109 -96 29 -33 42 -41 71 -41
44 0 64 22 78 85 12 54 24 75 55 93 26 15 27 15 53 -4z m-423 -169 c0 -16 4
-40 9 -52 7 -21 4 -23 -25 -23 -31 0 -31 1 -26 35 3 19 1 37 -4 40 -5 4 -9 13
-9 21 0 11 8 14 27 12 21 -2 26 -8 28 -33z m275 20 c-16 -19 -47 -19 -80 0
-24 14 -22 14 34 15 51 0 57 -2 46 -15z m-920 -121 c0 -8 -4 -12 -10 -9 -5 3
-10 10 -10 16 0 5 5 9 10 9 6 0 10 -7 10 -16z m380 12 c0 -2 -7 -6 -15 -10 -8
-3 -15 -1 -15 4 0 6 7 10 15 10 8 0 15 -2 15 -4z m-370 -56 c0 -5 -4 -10 -10
-10 -5 0 -10 5 -10 10 0 6 5 10 10 10 6 0 10 -4 10 -10z m1225 -50 c4 -6 -6
-10 -22 -9 -25 0 -26 1 -8 9 11 5 21 9 22 9 1 1 5 -3 8 -9z m-331 -126 c10
-25 7 -34 -9 -34 -9 0 -15 9 -15 25 0 28 15 34 24 9z m-37 -36 c-3 -8 -6 -5
-6 6 -1 11 2 17 5 13 3 -3 4 -12 1 -19z m647 -5 c19 -23 19 -23 0 -23 -13 0
-19 8 -20 26 -1 14 -1 24 0 22 0 -2 10 -13 20 -25z m-570 -1 c2 -4 -4 -8 -14
-8 -10 0 -16 4 -14 8 3 4 9 8 14 8 5 0 11 -4 14 -8z m-661 -135 c-3 -17 2 -26
19 -34 22 -11 22 -12 2 -12 -12 -1 -28 9 -37 22 -15 23 -12 30 19 46 1 1 -1
-9 -3 -22z m880 -57 c-3 -11 0 -27 7 -35 8 -10 9 -15 2 -15 -20 0 -35 40 -21
56 16 19 18 18 12 -6z"/>
<path d="M1120 800 c0 -5 4 -10 9 -10 6 0 13 5 16 10 3 6 -1 10 -9 10 -9 0
-16 -4 -16 -10z"/>
<path d="M845 649 c-11 -34 15 -107 47 -134 23 -19 41 -25 80 -25 43 0 54 4
79 31 16 17 29 36 29 43 0 6 -10 -4 -21 -22 -24 -36 -53 -47 -106 -39 -42 7
-90 46 -71 58 9 6 8 10 -5 15 -9 3 -17 13 -17 21 0 13 3 13 15 3 9 -7 18 -11
21 -8 2 3 -7 13 -21 22 -26 17 -25 42 1 32 21 -8 17 2 -5 14 -16 8 -21 6 -26
-11z"/>
<path d="M1070 631 c0 -5 5 -13 10 -16 6 -3 10 -2 10 4 0 5 -4 13 -10 16 -5 3
-10 2 -10 -4z"/>
<path d="M2330 854 c0 -59 -2 -65 -15 -54 -9 7 -14 19 -11 25 3 8 -2 11 -15 8
-11 -3 -28 2 -39 12 -18 16 -20 17 -20 2 0 -19 -15 -23 -25 -7 -12 19 -38 11
-32 -10 4 -17 2 -18 -14 -9 -15 7 -21 6 -25 -6 -10 -25 5 -63 27 -70 34 -11
15 -30 -37 -36 l-49 -6 41 -1 42 -2 -15 -60 c-9 -33 -19 -60 -24 -60 -5 0 -9
-7 -9 -15 0 -17 -49 -45 -79 -45 -14 0 -23 10 -30 36 -20 74 -89 134 -154 134
-12 0 -40 -9 -62 -20 -43 -22 -42 -22 -47 5 -3 19 3 20 142 23 197 4 209 9 23
11 l-152 1 -3 27 c-2 14 -9 28 -17 31 -9 3 -11 -2 -6 -17 4 -13 2 -21 -5 -21
-6 0 -8 5 -5 10 3 6 1 10 -4 10 -6 0 -11 -11 -11 -25 0 -14 4 -25 9 -25 5 0
14 -14 20 -30 8 -25 7 -38 -10 -70 -12 -23 -19 -52 -17 -72 l3 -33 28 47 c15
26 36 52 47 58 32 17 33 11 2 -15 -16 -14 -33 -37 -37 -52 -9 -39 -48 -87 -90
-113 -19 -12 -40 -32 -47 -43 -10 -20 -9 -20 17 3 16 14 48 44 72 66 l43 41 0
-27 c0 -60 29 -85 31 -27 l1 32 8 -31 c4 -18 11 -40 15 -50 7 -16 10 -13 15
16 l7 35 2 -36 c0 -19 8 -44 16 -55 14 -19 14 -18 15 4 0 30 14 28 29 -4 9
-21 14 -24 25 -14 11 9 16 7 20 -8 4 -10 26 -33 50 -50 57 -41 70 -85 35 -114
-13 -11 -18 -17 -11 -13 7 4 12 -1 12 -14 0 -10 -6 -22 -12 -24 -10 -4 -10 -6
0 -6 7 -1 16 9 21 22 5 12 14 33 20 47 10 23 11 22 6 -10 -5 -31 -4 -32 5 -10
6 14 22 35 36 46 l26 22 49 -22 c38 -16 49 -26 49 -44 0 -13 4 -21 9 -18 4 3
6 17 3 31 -5 29 -5 29 37 14 17 -6 36 -20 42 -32 11 -20 11 -20 -16 1 -39 31
-64 28 -27 -3 33 -28 62 -33 62 -11 0 22 -25 42 -75 61 -65 25 -63 56 9 125
42 40 58 64 74 113 11 34 21 52 21 40 1 -34 20 -37 31 -6 6 15 15 36 20 45 6
10 10 27 10 37 0 17 8 21 53 24 l52 3 -52 2 -53 2 0 55 c0 48 3 57 23 65 l22
9 -22 0 c-21 1 -23 6 -23 60 0 54 2 60 23 64 l22 4 -22 2 c-20 1 -23 7 -23 41
l0 40 -40 0 -40 0 0 -66z m-3 -116 c-3 -7 -5 -2 -5 12 0 14 2 19 5 13 2 -7 2
-19 0 -25z m-85 6 c-27 -19 -28 -45 -2 -62 13 -8 20 -23 20 -42 0 -18 6 -33
14 -36 8 -3 22 -28 32 -56 14 -42 14 -52 3 -59 -9 -5 -17 -2 -23 9 -8 15 -10
14 -16 -2 -6 -18 -8 -18 -28 4 -12 13 -22 19 -22 12 0 -6 -7 -9 -15 -6 -8 4
-15 12 -15 20 0 17 -17 18 -23 2 -4 -8 -6 -7 -6 4 -1 11 -7 15 -22 11 -20 -6
-21 -5 -5 25 9 17 16 36 16 41 0 6 9 35 21 66 14 37 29 60 47 70 36 19 52 19
24 -1z m78 -24 c12 -8 11 -10 -7 -10 -13 0 -23 5 -23 10 0 13 11 13 30 0z m20
-53 c-1 -21 -1 -21 -15 -3 -8 10 -12 23 -9 28 9 14 24 -2 24 -25z m0 -67 c0
-11 -7 -20 -15 -20 -18 0 -19 12 -3 28 16 16 18 15 18 -8z m0 -62 c0 -36 -4
-35 -14 5 -4 16 -2 27 4 27 5 0 10 -14 10 -32z"/>
<path d="M5179 878 c0 -24 -1 -72 -2 -108 l-2 -65 -105 -6 -105 -5 108 -2
c100 -2 107 -3 107 -22 0 -15 -7 -20 -27 -20 -16 0 -52 -11 -80 -25 -29 -13
-53 -20 -53 -15 0 5 -8 6 -17 3 -13 -5 -15 -2 -10 11 5 12 3 16 -5 14 -21 -7
-15 -32 12 -45 20 -10 27 -9 40 1 51 46 184 63 290 37 53 -13 137 -13 165 -1
13 6 4 7 -27 3 -65 -8 -208 15 -215 35 -4 8 2 21 12 28 10 8 13 14 7 14 -8 0
-12 20 -12 59 l0 60 53 4 52 3 -52 2 -53 2 0 40 0 40 -40 0 -40 0 -1 -42z"/>
<path d="M6125 910 c-4 -6 -6 -53 -6 -105 l1 -94 -113 -4 -112 -3 113 -2 113
-2 -3 -62 c-3 -61 -4 -63 -38 -80 -45 -22 -36 -22 24 -2 37 13 72 15 150 12
55 -3 92 -2 81 3 -11 4 -48 8 -82 8 l-63 1 0 60 0 60 73 2 72 2 -67 3 -68 4 1
94 c0 52 -2 99 -6 105 -3 5 -19 10 -35 10 -16 0 -32 -5 -35 -10z"/>
<path d="M7977 903 c-2 -5 -7 -26 -10 -48 -5 -28 -4 -34 3 -20 5 11 9 30 9 42
1 12 9 24 19 26 15 4 15 5 0 6 -9 0 -19 -2 -21 -6z"/>
<path d="M3557 882 c-22 -24 -22 -78 -1 -86 23 -9 53 11 60 41 13 49 -28 80
-59 45z"/>
<path d="M8068 872 l52 -28 -51 -64 c-29 -36 -59 -74 -68 -85 -10 -13 -10 -15
-1 -7 8 6 30 13 50 13 29 2 31 3 8 6 l-27 4 47 64 c43 58 50 63 77 59 17 -3
-6 11 -50 30 -95 43 -111 46 -37 8z"/>
<path d="M1643 860 c-24 -10 -29 -26 -13 -50 7 -12 12 -12 22 -2 20 20 54 14
84 -15 16 -16 26 -24 22 -18 -5 5 -8 17 -8 27 0 16 10 18 78 20 l77 2 -75 3
c-46 3 -80 9 -90 18 -22 19 -70 27 -97 15z"/>
<path d="M8510 864 c0 -17 40 -64 53 -63 8 0 7 3 -1 6 -8 3 -22 19 -33 37 -10
17 -19 26 -19 20z"/>
<path d="M18 823 c12 -2 32 -2 45 0 12 2 2 4 -23 4 -25 0 -35 -2 -22 -4z"/>
<path d="M718 823 c61 -2 163 -2 225 0 61 1 11 3 -113 3 -124 0 -174 -2 -112
-3z"/>
<path d="M4903 823 c26 -2 68 -2 95 0 26 2 4 3 -48 3 -52 0 -74 -1 -47 -3z"/>
<path d="M5668 823 c39 -2 105 -2 145 0 39 1 7 3 -73 3 -80 0 -112 -2 -72 -3z"/>
<path d="M6488 823 c29 -2 74 -2 100 0 26 2 2 3 -53 3 -55 0 -76 -1 -47 -3z"/>
<path d="M8235 815 c55 -15 178 -18 240 -6 27 5 1 7 -80 7 -66 -1 -140 2 -165
6 l-45 7 50 -14z"/>
<path d="M10398 823 c12 -2 30 -2 40 0 9 3 -1 5 -23 4 -22 0 -30 -2 -17 -4z"/>
<path d="M10158 813 c29 -2 74 -2 100 0 26 2 2 3 -53 3 -55 0 -76 -1 -47 -3z"/>
<path d="M8600 793 c8 -4 28 -19 45 -35 16 -15 33 -28 38 -28 14 0 7 -27 -13
-45 -14 -13 -20 -31 -20 -61 l0 -43 -82 -4 -83 -3 83 -2 c84 -2 103 -13 57
-34 -19 -9 -32 -8 -52 1 -26 12 -30 11 -60 -25 -48 -54 -44 -64 25 -63 31 1
47 4 35 6 -27 5 -28 11 -7 42 11 15 23 21 35 18 11 -3 21 -1 24 4 3 5 21 16
40 25 18 8 51 30 71 48 35 30 37 36 27 58 -6 14 -39 49 -72 79 -42 36 -57 56
-48 61 7 4 -3 7 -23 7 -19 0 -28 -3 -20 -6z"/>
<path d="M1610 775 c-7 -9 -11 -17 -9 -20 3 -2 10 5 17 15 14 24 10 26 -8 5z"/>
<path d="M1680 778 c0 -4 4 -8 9 -8 6 0 12 4 15 8 3 5 -1 9 -9 9 -8 0 -15 -4
-15 -9z"/>
<path d="M8727 783 c39 -4 46 -9 78 -57 41 -62 45 -103 13 -133 -38 -35 -164
-121 -184 -126 -17 -4 -17 -5 -1 -6 15 -1 17 -12 17 -76 0 -68 2 -76 25 -91
14 -9 25 -26 25 -38 0 -34 20 -46 77 -46 67 0 68 10 5 82 -46 52 -49 59 -51
116 -1 46 2 61 14 66 11 4 14 13 9 30 -4 18 0 28 21 42 58 40 75 62 75 97 0
32 7 41 35 46 6 1 13 -8 17 -21 5 -15 6 -9 3 17 -9 80 -46 103 -160 102 -45 0
-50 -1 -18 -4z"/>
<path d="M3461 733 c-1 -13 7 -45 18 -72 l18 -48 -106 -7 c-58 -3 -141 -9
-184 -12 -59 -5 -94 -2 -143 11 -59 16 -66 16 -87 1 -48 -33 -57 -44 -57 -65
0 -25 -17 -28 -22 -4 -2 13 -14 17 -51 18 -39 0 -47 -2 -47 -18 0 -10 -4 -15
-10 -12 -5 3 -10 15 -10 26 0 11 -7 22 -15 25 -25 10 -18 27 29 73 44 43 69
51 116 38 23 -7 23 -6 -3 8 -19 11 -39 14 -55 10 -27 -7 -203 -169 -234 -215
-22 -32 -48 -154 -48 -221 l0 -49 -36 0 c-29 0 -35 3 -30 16 4 9 2 22 -4 29
-8 10 -7 30 5 73 8 33 15 70 14 83 -1 13 -9 -9 -20 -50 -13 -52 -16 -93 -12
-137 5 -59 8 -64 38 -79 38 -17 71 -20 80 -5 4 6 -1 31 -11 55 -17 46 -16 80
5 202 12 64 32 95 89 138 37 29 47 32 63 22 10 -6 19 -17 19 -24 0 -16 36 -78
72 -125 28 -35 97 -156 119 -208 5 -13 16 -28 22 -32 16 -10 95 -10 101 0 3 5
-18 42 -45 83 -89 130 -128 222 -110 256 5 10 12 26 15 36 4 14 17 17 71 17
l65 0 0 -57 c0 -70 14 -100 29 -63 8 22 10 22 11 5 1 -19 1 -19 14 -2 11 14
15 15 19 5 3 -7 6 13 6 44 1 31 4 59 9 61 4 2 76 1 161 -2 l155 -6 12 -47 c9
-35 9 -51 0 -62 -16 -20 -85 -55 -124 -62 -37 -7 -56 -31 -67 -83 l-7 -34 37
6 c48 8 115 41 157 77 l33 29 7 -32 c4 -18 6 -41 3 -53 -7 -34 17 -56 68 -61
42 -5 47 -3 47 14 0 10 -7 28 -15 39 -8 10 -15 41 -15 69 0 44 2 48 15 34 8
-8 22 -46 31 -84 9 -39 23 -75 30 -81 8 -6 14 -23 14 -37 0 -22 7 -28 39 -38
42 -12 91 -6 91 12 0 6 -20 41 -44 78 -27 40 -51 92 -60 129 -41 162 -46 182
-46 192 0 5 12 11 28 11 21 1 22 2 7 6 -11 3 -22 9 -25 14 -3 4 -12 4 -20 -1
-12 -7 -11 -20 8 -82 11 -40 23 -90 26 -110 2 -21 20 -68 38 -105 18 -37 34
-71 36 -75 2 -3 -11 -9 -28 -13 -41 -9 -58 14 -82 109 -10 38 -24 77 -32 85
-8 9 -22 50 -30 91 -16 78 -46 120 -85 120 -21 0 -37 27 -56 95 -7 28 -14 40
-14 28z m-416 -138 c30 -13 30 -13 -24 -14 -46 -1 -52 1 -41 14 15 18 26 18
65 0z m435 -10 c0 -13 -20 -15 -122 -14 -68 0 -118 3 -112 5 26 11 105 22 167
23 53 1 67 -2 67 -14z m68 -41 c52 -79 44 -113 -40 -169 -21 -14 -54 -36 -74
-50 -50 -34 -61 -32 -56 9 4 31 10 38 58 61 79 39 89 58 70 133 -9 33 -16 63
-16 67 0 18 28 -7 58 -51z m-688 -34 c5 8 10 18 10 23 0 14 20 7 20 -8 0 -8 4
-15 9 -15 5 0 11 -17 15 -37 6 -42 43 -115 87 -176 16 -22 29 -43 29 -47 0 -3
-12 -10 -27 -16 -33 -11 -55 6 -72 58 -10 31 -34 69 -103 171 -17 23 -24 45
-21 58 6 21 6 21 24 -2 16 -20 20 -22 29 -9z m0 20 c0 -5 -4 -10 -10 -10 -5 0
-10 5 -10 10 0 6 5 10 10 10 6 0 10 -4 10 -10z m750 -161 c0 -38 -3 -69 -7
-69 -5 0 -17 -3 -29 -6 -18 -5 -22 0 -28 36 -5 35 -3 46 19 72 14 16 25 34 25
39 0 6 5 7 10 4 6 -3 10 -37 10 -76z"/>
<path d="M5701 716 c-15 -18 -106 -23 -116 -6 -3 6 -10 10 -15 10 -4 0 6 -15
23 -33 32 -32 51 -41 27 -12 -11 13 -8 15 19 15 23 0 30 -4 25 -12 -4 -7 7 0
23 15 l30 28 6 -23 c4 -12 4 -33 0 -46 -4 -18 -10 -21 -27 -16 -11 4 -26 11
-33 16 -7 5 -13 5 -17 0 -3 -6 5 -13 19 -16 14 -4 44 -27 67 -51 36 -38 48
-45 78 -43 l35 1 -34 4 c-21 3 -44 16 -61 35 -25 27 -27 33 -18 68 10 38 11
39 62 43 l51 3 -54 2 c-36 1 -58 7 -65 18 -11 14 -13 14 -25 0z"/>
<path d="M5430 699 l-115 -5 109 -2 109 -2 -6 -32 -6 -33 15 34 c8 18 14 36
12 40 -2 3 -55 4 -118 0z"/>
<path d="M8962 690 c0 -14 4 -38 8 -55 7 -27 8 -27 8 -5 0 14 -4 39 -8 55 -7
27 -8 27 -8 5z"/>
<path d="M9498 703 c39 -2 105 -2 145 0 39 1 7 3 -73 3 -80 0 -112 -2 -72 -3z"/>
<path d="M10457 703 c18 -2 50 -2 70 0 21 2 7 4 -32 4 -38 0 -55 -2 -38 -4z"/>
<path d="M10893 703 c37 -2 96 -2 130 0 34 2 4 3 -68 3 -71 0 -99 -1 -62 -3z"/>
<path d="M8148 693 c23 -2 59 -2 80 0 20 2 1 4 -43 4 -44 0 -61 -2 -37 -4z"/>
<path d="M8518 693 c28 -2 76 -2 105 0 28 2 5 3 -53 3 -58 0 -81 -1 -52 -3z"/>
<path d="M9148 693 c7 -3 16 -2 19 1 4 3 -2 6 -13 5 -11 0 -14 -3 -6 -6z"/>
<path d="M10293 693 c20 -2 54 -2 75 0 20 2 3 4 -38 4 -41 0 -58 -2 -37 -4z"/>
<path d="M622 661 c4 -13 18 -16 19 -4 0 4 -5 9 -11 12 -7 2 -11 -2 -8 -8z"/>
<path d="M4969 653 c-13 -16 -12 -17 4 -4 15 12 20 11 37 -4 24 -21 27 -13 4
9 -20 20 -28 20 -45 -1z"/>
<path d="M5602 625 c0 -16 2 -22 5 -12 2 9 2 23 0 30 -3 6 -5 -1 -5 -18z"/>
<path d="M4920 614 c0 -9 10 -19 23 -22 14 -5 -5 -9 -53 -13 l-75 -5 88 -2
c48 -1 87 -4 87 -7 0 -4 -7 -20 -16 -37 -16 -31 -16 -127 1 -175 6 -18 3 -24
-18 -32 -20 -8 -26 -19 -32 -58 -4 -26 -10 -55 -15 -63 -10 -20 6 -60 25 -60
8 0 26 22 40 49 13 27 30 51 37 54 8 4 7 6 -4 6 -11 1 -23 -12 -33 -35 -21
-52 -40 -39 -39 26 2 44 6 56 29 74 25 20 26 24 16 61 -16 58 -14 119 6 160
16 35 16 36 -5 51 -12 8 -22 22 -22 30 0 8 -9 14 -20 14 -12 0 -20 -7 -20 -16z
m30 -4 c0 -5 -4 -10 -10 -10 -5 0 -10 5 -10 10 0 6 5 10 10 10 6 0 10 -4 10
-10z"/>
<path d="M5520 613 c0 -6 9 -21 21 -34 l20 -24 -17 30 c-24 39 -24 40 -24 28z"/>
<path d="M6512 570 c-7 -11 -8 -20 -3 -20 9 0 24 30 18 36 -1 2 -8 -6 -15 -16z"/>
<path d="M8902 565 c0 -16 2 -22 5 -12 2 9 2 23 0 30 -3 6 -5 -1 -5 -18z"/>
<path d="M5936 564 c-6 -14 -4 -15 10 -4 13 11 19 11 36 1 11 -7 17 -8 14 -2
-3 5 2 12 11 14 10 3 -1 5 -23 6 -30 1 -44 -4 -48 -15z"/>
<path d="M9638 573 c23 -2 59 -2 80 0 20 2 1 4 -43 4 -44 0 -61 -2 -37 -4z"/>
<path d="M2432 540 c0 -14 2 -19 5 -12 2 6 2 18 0 25 -3 6 -5 1 -5 -13z"/>
<path d="M5670 545 c0 -9 5 -15 11 -13 6 2 11 8 11 13 0 5 -5 11 -11 13 -6 2
-11 -4 -11 -13z"/>
<path d="M6378 553 c12 -2 32 -2 45 0 12 2 2 4 -23 4 -25 0 -35 -2 -22 -4z"/>
<path d="M5950 540 c0 -5 7 -7 15 -4 8 4 15 8 15 10 0 2 -7 4 -15 4 -8 0 -15
-4 -15 -10z"/>
<path d="M5900 520 c6 -11 12 -20 14 -20 2 0 2 9 -1 20 -3 11 -9 20 -15 20 -5
0 -4 -9 2 -20z"/>
<path d="M6016 533 c-4 -5 -13 -8 -18 -8 -6 0 -13 -6 -15 -12 -3 -7 -1 -13 4
-13 13 1 59 40 47 40 -6 0 -14 -3 -18 -7z"/>
<path d="M6631 537 c2 -2 20 -14 39 -26 l35 -23 -30 26 c-16 14 -34 26 -39 26
-5 0 -7 -1 -5 -3z"/>
<path d="M5828 503 c4 -19 2 -24 -8 -18 -9 5 -11 4 -6 -4 4 -6 12 -9 17 -6 11
8 12 42 0 49 -4 3 -6 -6 -3 -21z"/>
<path d="M5849 490 c-5 -31 -66 -49 -107 -31 -22 11 -24 10 -13 -3 7 -8 27
-16 44 -18 l31 -3 -45 -29 c-38 -26 -205 -116 -214 -116 -2 0 -6 8 -8 18 -4
13 -5 12 -6 -5 -1 -25 36 -130 49 -138 5 -3 -1 17 -13 45 -11 27 -18 52 -16
55 3 3 20 0 38 -6 27 -10 32 -15 27 -34 -7 -29 2 -55 19 -55 18 0 55 62 55 91
0 12 -9 33 -21 45 l-20 22 63 35 c85 48 151 109 146 133 -4 16 -5 15 -9 -6z
m-185 -195 c20 -30 20 -46 2 -71 -14 -18 -15 -18 -25 7 -6 16 -22 31 -43 38
l-33 12 30 19 c39 26 49 25 69 -5z"/>
<path d="M7781 490 c14 -31 19 -36 19 -24 0 6 -7 19 -16 30 -14 18 -14 18 -3
-6z"/>
<path d="M676 444 c-10 -84 -44 -136 -121 -178 -16 -10 -22 -15 -13 -12 9 3
19 0 22 -7 2 -7 5 -6 5 4 1 9 13 22 27 30 40 21 86 95 92 146 4 37 8 44 23 40
14 -4 19 0 19 16 0 16 -3 18 -12 9 -8 -8 -15 -8 -23 -2 -9 8 -14 -4 -19 -46z"/>
<path d="M5941 441 c-11 -27 -21 -62 -20 -78 1 -21 3 -17 10 16 4 24 17 58 28
77 11 19 17 34 12 34 -5 0 -18 -22 -30 -49z"/>
<path d="M6710 460 c6 -11 13 -20 16 -20 2 0 0 9 -6 20 -6 11 -13 20 -16 20
-2 0 0 -9 6 -20z"/>
<path d="M3056 439 c17 -33 30 -33 20 -1 -4 11 -13 23 -21 26 -13 5 -13 1 1
-25z"/>
<path d="M370 440 c-9 -6 -10 -10 -3 -10 6 0 15 5 18 10 8 12 4 12 -15 0z"/>
<path d="M313 414 c-9 -23 46 -74 91 -84 47 -10 98 3 133 36 l28 25 -33 -23
c-27 -18 -47 -23 -96 -23 -66 0 -111 20 -84 36 9 6 6 9 -9 9 -24 0 -32 25 -10
33 9 4 9 6 -1 6 -7 1 -15 -6 -19 -15z"/>
<path d="M6650 420 c0 -5 5 -10 10 -10 6 0 10 5 10 10 0 6 -4 10 -10 10 -5 0
-10 -4 -10 -10z"/>
<path d="M6740 417 c8 -9 26 -18 40 -20 21 -4 25 -9 23 -37 -1 -18 -7 -37 -15
-42 -10 -8 -10 -9 2 -6 8 3 19 22 25 42 8 32 6 40 -9 51 -10 8 -24 11 -32 8
-8 -3 -22 1 -32 8 -15 12 -16 11 -2 -4z"/>
<path d="M5166 353 c-9 -30 -59 -73 -102 -89 -30 -11 -33 -14 -11 -11 25 4 31
-1 54 -47 34 -69 61 -96 95 -96 34 0 35 11 3 58 -14 20 -25 46 -25 58 0 21 3
22 108 19 l107 -4 -90 8 c-85 7 -165 26 -165 38 0 3 10 21 21 40 12 19 19 36
16 39 -3 3 -8 -3 -11 -13z m-10 -89 c16 -4 20 -11 16 -29 -2 -13 3 -38 12 -56
20 -41 20 -41 -6 -37 -16 2 -32 19 -50 53 -15 28 -28 56 -28 63 0 13 22 15 56
6z"/>
<path d="M6680 341 c0 -5 7 -12 16 -15 14 -5 15 -4 4 9 -14 17 -20 19 -20 6z"/>
<path d="M7841 343 c-2 -29 32 -91 55 -101 13 -7 24 -18 24 -26 0 -29 30 -46
81 -46 41 0 49 3 49 19 0 18 -56 81 -72 81 -4 0 -19 17 -33 37 -14 21 -25 32
-25 26 0 -7 18 -31 40 -54 22 -23 39 -43 38 -44 -37 -19 -58 -23 -65 -12 -4 7
-20 20 -35 29 -15 10 -33 36 -41 60 -9 24 -16 37 -16 31z"/>
<path d="M5932 315 c0 -11 3 -29 8 -40 11 -25 11 1 0 35 -6 20 -8 21 -8 5z"/>
<path d="M6750 295 c-11 -13 -10 -14 4 -9 9 3 16 10 16 15 0 13 -6 11 -20 -6z"/>
<path d="M5410 292 c0 -6 5 -14 12 -18 8 -5 6 -10 -8 -15 -18 -7 -18 -8 3 -8
14 -1 42 -26 84 -76 50 -61 67 -75 90 -75 30 0 38 17 17 38 -8 8 -17 8 -32 0
-17 -9 -26 -5 -64 38 -24 27 -57 67 -73 88 -16 21 -29 34 -29 28z"/>
<path d="M6700 265 c-14 -8 -20 -14 -14 -15 5 0 19 7 30 15 24 18 16 19 -16 0z"/>
<path d="M6116 253 c-6 -14 -5 -15 5 -6 7 7 10 15 7 18 -3 3 -9 -2 -12 -12z"/>
<path d="M460 230 c-19 -11 -30 -19 -25 -19 6 -1 17 3 25 9 9 5 19 5 27 -2 7
-5 18 -8 25 -5 8 4 7 6 -4 6 -10 1 -18 5 -18 10 0 5 8 12 18 14 12 3 12 5 2 5
-8 1 -31 -7 -50 -18z"/>
<path d="M6511 209 c19 -25 37 -42 40 -37 3 5 26 -9 50 -32 31 -29 51 -40 69
-38 19 2 24 8 22 23 -5 29 -18 39 -26 20 -3 -9 -2 -13 4 -10 6 3 10 1 10 -5 0
-17 -39 -2 -82 32 -21 16 -38 32 -38 34 0 3 12 9 27 15 22 8 30 6 51 -13 l25
-23 -14 23 c-8 12 -18 22 -24 22 -5 0 -3 5 5 11 13 9 13 10 -1 6 -99 -32 -98
-32 -125 -6 -22 20 -21 16 7 -22z"/>
<path d="M545 219 c-4 -6 6 -24 21 -41 16 -17 24 -28 18 -25 -7 4 -14 0 -18
-8 -7 -19 13 -19 39 1 12 9 30 12 47 8 16 -3 28 -2 28 3 0 17 -24 33 -51 33
-14 0 -38 9 -52 20 -17 14 -28 17 -32 9z m60 -47 c-3 -3 -11 0 -18 7 -9 10 -8
11 6 5 10 -3 15 -9 12 -12z"/>
<path d="M5928 213 c-15 -17 -31 -93 -30 -142 0 -29 25 -56 46 -48 9 4 16 17
15 29 0 13 -3 17 -6 11 -3 -10 -10 -10 -25 -2 -18 10 -19 17 -13 72 4 34 14
70 23 80 8 9 13 17 10 17 -3 0 -12 -8 -20 -17z"/>
<path d="M6075 200 c-3 -5 -28 -21 -54 -35 -48 -24 -62 -41 -60 -73 0 -9 5 -3
10 13 6 23 21 37 54 53 44 21 45 21 45 2 0 -11 16 -37 36 -58 l37 -37 -32 38
c-19 23 -31 49 -31 67 0 17 1 30 3 30 1 0 20 -7 42 -14 32 -12 39 -19 37 -37
-1 -12 7 -37 18 -56 26 -44 25 -46 -9 -41 -18 3 -27 0 -25 -7 8 -20 44 -35 69
-29 l24 6 -34 50 c-19 28 -35 54 -35 58 0 23 14 40 34 41 11 0 -4 6 -34 13
-30 7 -62 16 -71 20 -10 4 -20 2 -24 -4z"/>
<path d="M6375 191 c3 -5 -3 -12 -12 -14 -11 -3 -6 -5 11 -6 24 -1 27 1 16 14
-14 16 -25 21 -15 6z"/>
<path d="M121 128 c-16 -35 -32 -78 -35 -96 -5 -30 -4 -33 16 -30 19 3 24 14
38 96 9 50 15 92 13 92 -2 0 -17 -28 -32 -62z"/>
<path d="M10757 97 c40 -81 52 -97 71 -97 l23 0 -26 48 c-14 26 -46 70 -70 97
l-45 50 47 -98z"/>
<path d="M6420 160 c8 -5 20 -10 25 -10 6 0 3 5 -5 10 -8 5 -19 10 -25 10 -5
0 -3 -5 5 -10z"/>
<path d="M10980 113 c-29 -112 -29 -113 -10 -113 14 0 18 13 24 77 3 42 4 78
2 80 -2 2 -9 -18 -16 -44z"/>
<path d="M6463 143 c1 -5 -8 -18 -20 -30 -13 -13 -23 -32 -23 -42 0 -17 4 -18
38 -9 20 5 43 16 50 24 8 9 8 10 0 4 -18 -15 -48 -12 -48 4 0 7 7 19 15 26 8
7 12 16 9 21 -6 11 -25 12 -21 2z"/>
<path d="M1510 114 l-25 -14 28 0 c15 0 27 6 27 13 0 8 4 7 10 -3 8 -13 10
-12 10 3 0 20 -15 20 -50 1z"/>
<path d="M6535 119 c-4 -6 -5 -12 -2 -15 2 -3 7 2 10 11 7 17 1 20 -8 4z"/>
<path d="M13 96 c4 -10 7 -30 7 -44 0 -31 16 -60 26 -49 9 8 -15 95 -29 104
-6 4 -8 0 -4 -11z"/>
<path d="M170 83 c0 -18 5 -33 10 -33 6 0 8 -12 5 -27 -5 -27 -5 -27 7 -5 7
14 17 21 26 17 10 -4 12 0 8 11 -4 10 0 22 10 29 12 8 14 14 6 19 -7 4 -12 1
-12 -6 0 -10 -3 -9 -11 2 -9 13 -10 13 -6 -2 7 -20 -18 -45 -28 -28 -3 5 -4
14 -1 18 2 4 1 14 -5 22 -6 11 -9 6 -9 -17z"/>
<path d="M2040 99 c0 -5 6 -9 14 -9 8 0 16 -7 20 -15 5 -13 2 -14 -16 -4 -33
18 -87 28 -94 18 -3 -5 10 -9 29 -9 19 0 40 -7 47 -15 13 -16 65 -21 74 -7 2
4 1 13 -3 20 -10 16 -71 34 -71 21z"/>
<path d="M10600 100 c0 -5 -9 -10 -20 -10 -13 0 -20 -7 -20 -18 0 -10 -5 -23
-12 -30 -9 -9 -7 -12 10 -12 15 0 26 9 32 25 5 14 16 25 24 25 10 0 13 6 10
15 -7 17 -24 20 -24 5z"/>
<path d="M10650 100 c-13 -8 -12 -10 3 -10 9 0 17 5 17 10 0 12 -1 12 -20 0z"/>
<path d="M10873 98 c3 -9 9 -33 13 -52 6 -34 20 -54 30 -44 6 7 -17 70 -34 93
-10 14 -13 15 -9 3z"/>
<path d="M9792 63 c14 -33 45 -69 53 -62 10 10 -17 69 -35 79 -28 15 -31 12
-18 -17z"/>
<path d="M821 54 c-24 -31 -27 -54 -7 -54 16 0 46 42 46 65 0 23 -16 18 -39
-11z"/>
<path d="M11058 45 c-14 -35 -14 -40 -1 -43 21 -5 25 2 21 44 l-3 39 -17 -40z"/>
<path d="M480 30 c-17 -24 -19 -30 -6 -30 9 0 22 14 31 30 9 17 11 30 6 30 -5
0 -19 -13 -31 -30z"/>
<path d="M10168 30 c9 -16 23 -30 31 -30 10 0 5 11 -14 30 -36 37 -38 38 -17
0z"/>
<path d="M10630 50 c-8 -5 -23 -11 -32 -14 -10 -3 -18 -13 -18 -22 0 -14 2
-14 16 -3 13 10 19 10 36 0 19 -12 20 -11 14 5 -4 9 -2 21 5 24 16 11 -3 19
-21 10z"/>
<path d="M9890 31 c-13 -26 -13 -31 5 -31 9 0 15 9 15 25 0 30 -6 32 -20 6z"/>
<path d="M325 30 c3 -5 -1 -10 -7 -13 -8 -2 -9 -8 -4 -13 5 -5 11 -4 13 4 3 6
12 12 21 12 8 0 12 3 8 7 -10 10 -37 13 -31 3z"/>
<path d="M370 15 c0 -8 4 -15 10 -15 5 0 7 7 4 15 -8 19 -14 19 -14 0z"/>
<path d="M620 21 c0 -6 4 -13 10 -16 6 -3 7 1 4 9 -7 18 -14 21 -14 7z"/>
<path d="M8236 17 c3 -10 9 -15 12 -12 3 3 0 11 -7 18 -10 9 -11 8 -5 -6z"/>
<path d="M10716 15 c-4 -10 1 -15 16 -15 17 0 18 2 8 15 -15 19 -16 19 -24 0z"/>
<path d="M715 10 c-3 -5 1 -10 9 -10 9 0 16 5 16 10 0 6 -4 10 -9 10 -6 0 -13
-4 -16 -10z"/>
</g>
</svg>
