<?xml version="1.0" standalone="no"?>
<!DOCTYPE svg PUBLIC "-//W3C//DTD SVG 20010904//EN"
 "http://www.w3.org/TR/2001/REC-SVG-20010904/DTD/svg10.dtd">
<svg version="1.0" xmlns="http://www.w3.org/2000/svg"
 width="1024.000000pt" height="1024.000000pt" viewBox="0 0 1024.000000 1024.000000"
 preserveAspectRatio="xMidYMid meet">

<g transform="translate(0.000000,1024.000000) scale(0.100000,-0.100000)"
fill="#000000" stroke="none">
<path d="M5025 8932 c-97 -40 -252 -131 -365 -216 -298 -223 -512 -521 -604
-839 -62 -214 -81 -409 -96 -984 -10 -359 -9 -406 5 -432 22 -44 57 -57 170
-65 238 -17 443 -79 533 -160 46 -41 52 -66 52 -218 0 -142 1 -143 30 -187
l30 -44 0 -374 c0 -205 -3 -373 -8 -373 -4 0 -13 9 -20 21 -40 63 -465 578
-822 994 -176 205 -208 248 -219 289 -6 26 -19 60 -29 74 -21 34 -193 262
-243 323 l-38 45 106 69 c127 82 192 145 228 220 25 50 27 63 23 143 -7 137
-30 176 -351 612 -333 452 -638 839 -820 1043 -75 84 -108 98 -128 54 -14 -30
7 -80 157 -377 183 -363 378 -710 561 -997 114 -179 123 -217 61 -249 -45 -23
-80 -4 -136 75 -232 330 -800 1072 -961 1256 -59 68 -105 79 -117 28 -8 -29
-3 -41 146 -348 179 -369 339 -658 614 -1109 36 -60 66 -117 66 -127 0 -32
-37 -61 -73 -57 -28 3 -44 20 -144 158 -254 349 -294 404 -452 615 -215 288
-496 641 -517 649 -9 4 -28 -1 -42 -10 -45 -30 -36 -55 169 -466 195 -391 387
-730 599 -1053 58 -89 63 -123 24 -154 -39 -31 -63 -26 -109 22 -23 24 -176
221 -340 438 -297 392 -663 857 -703 892 -29 27 -74 19 -86 -14 -7 -22 -1 -46
34 -130 115 -274 392 -776 662 -1204 228 -360 272 -414 394 -476 66 -33 74
-34 179 -34 108 0 111 1 195 41 47 22 122 64 167 92 46 29 87 52 91 52 9 0 87
-102 210 -276 96 -134 111 -148 170 -150 43 -2 51 -6 88 -50 23 -27 227 -296
453 -599 226 -302 475 -635 553 -738 79 -104 144 -192 146 -197 2 -5 -83 -67
-190 -137 -666 -437 -658 -432 -658 -454 0 -26 96 -202 149 -271 29 -40 40
-48 68 -48 43 0 42 -15 -2 -30 -19 -6 -35 -13 -35 -14 0 -8 125 -224 158 -272
88 -130 99 -154 136 -289 31 -110 82 -223 122 -270 l25 -30 -5 205 c-6 213
-18 291 -54 340 -22 29 -73 68 -165 125 -49 30 -62 43 -56 55 4 8 10 27 13 41
6 27 132 164 179 194 l28 18 127 -86 c117 -79 212 -157 212 -172 0 -3 -7 -22
-15 -42 l-16 -37 -104 104 c-66 65 -108 101 -114 95 -5 -6 -37 -45 -70 -88
l-62 -77 60 -56 c38 -35 65 -70 75 -97 29 -80 66 -407 66 -588 0 -105 1 -108
41 -189 23 -45 45 -78 49 -73 13 14 49 165 60 253 6 47 13 171 16 275 l6 190
71 105 c124 184 299 435 311 448 9 9 44 -26 164 -165 l152 -177 -18 -28 c-9
-15 -53 -80 -96 -145 -97 -143 -176 -294 -183 -348 -8 -64 13 -122 65 -177 67
-72 120 -100 201 -106 77 -5 135 17 169 65 24 33 52 139 52 193 0 45 25 128
46 149 12 13 18 6 44 -51 16 -37 32 -85 36 -107 4 -23 9 -41 13 -41 3 0 24 12
45 26 56 38 297 153 310 148 6 -3 44 -50 85 -104 40 -55 105 -135 143 -178 55
-61 86 -111 155 -245 47 -92 96 -181 109 -197 34 -40 101 -64 164 -58 66 7
199 73 268 133 118 105 202 249 202 348 0 32 -7 71 -15 86 -20 39 -88 94 -240
193 -131 85 -162 113 -247 224 l-47 61 147 73 c81 41 150 76 155 78 12 6 77
-146 103 -243 24 -91 41 -115 78 -115 96 2 101 166 10 356 -19 40 -34 76 -34
81 0 11 129 75 139 69 14 -9 81 -190 95 -259 21 -104 66 -136 116 -82 48 51
34 188 -35 347 l-34 78 70 36 c38 19 74 32 78 29 15 -9 78 -177 90 -240 19
-99 20 -103 37 -119 23 -23 57 -19 84 9 48 51 35 197 -32 359 -15 38 -28 70
-28 72 0 2 32 19 72 39 54 26 74 32 80 23 21 -35 67 -182 78 -253 15 -96 30
-117 79 -113 30 2 39 9 54 38 29 55 18 168 -27 304 -20 60 -35 110 -34 111 2
2 31 17 65 34 l62 31 14 -27 c24 -47 55 -145 67 -213 18 -99 28 -115 75 -115
36 0 42 4 58 35 15 28 17 50 13 115 -4 75 -47 238 -67 260 -5 5 -9 12 -9 16 0
10 119 61 129 55 17 -11 71 -154 77 -203 13 -110 40 -146 91 -121 66 32 70
125 14 295 -68 206 -143 386 -172 416 -31 31 -50 33 -107 13 -40 -14 -1436
-710 -1753 -874 l-157 -81 -65 86 c-36 47 -63 91 -60 99 8 21 150 100 253 139
52 21 113 52 135 69 l40 33 35 -21 c29 -17 52 -21 125 -21 78 0 97 3 141 27
94 49 153 131 154 210 0 55 -14 82 -80 154 -88 93 -100 125 -99 259 1 163 -5
153 124 186 241 60 420 167 547 327 106 134 161 275 174 447 9 108 -16 228
-51 251 -40 26 -71 2 -127 -98 -66 -117 -218 -278 -262 -278 -3 0 5 15 18 34
30 45 73 175 87 267 21 137 -9 385 -59 489 -30 62 -48 54 -165 -77 -137 -154
-264 -277 -467 -454 -215 -188 -270 -234 -297 -248 -53 -27 -16 18 122 152
134 129 211 213 174 192 -27 -16 -125 -82 -279 -187 -126 -86 -164 -107 -204
-113 -27 -3 -93 -20 -147 -36 -108 -32 -479 -179 -577 -228 -34 -17 -66 -31
-72 -31 -8 0 -9 34 -4 117 l7 116 295 446 c162 245 332 503 379 573 l84 127
54 11 c71 15 102 44 110 106 3 27 13 64 21 83 17 37 340 518 355 527 14 8 93
-39 97 -57 1 -9 -139 -229 -312 -490 -358 -539 -519 -785 -753 -1149 -91 -140
-171 -262 -179 -271 -8 -8 -14 -18 -14 -21 0 -10 456 174 558 225 103 51 708
498 1390 1027 217 168 440 341 497 385 57 44 184 143 282 220 98 76 195 148
215 160 l38 20 45 -24 c45 -24 110 -91 173 -180 18 -24 32 -48 32 -52 0 -4
-27 -20 -59 -34 -89 -40 -106 -63 -104 -140 l1 -63 -46 -12 c-83 -20 -92 -31
-92 -109 l0 -68 -51 -6 c-28 -4 -57 -11 -65 -18 -9 -7 -14 -39 -16 -92 l-3
-82 -35 -3 c-92 -7 -113 -33 -99 -121 4 -30 6 -57 4 -61 -2 -4 -29 -12 -60
-19 -31 -7 -59 -19 -62 -26 -2 -8 -5 -45 -6 -82 l-2 -68 -52 -3 c-69 -4 -78
-17 -78 -110 l0 -76 -50 -12 c-70 -18 -87 -42 -79 -110 l7 -54 -31 -6 c-38 -8
-42 -17 -31 -79 4 -28 8 -85 8 -128 1 -69 3 -78 19 -75 14 3 18 16 20 78 2 44
8 78 15 82 7 4 31 8 55 8 24 0 53 5 64 11 19 10 20 17 14 84 -8 83 -4 89 61
100 23 3 46 12 52 19 6 7 9 42 8 79 -2 76 5 87 61 87 19 0 40 8 53 21 19 19
21 29 16 86 -7 71 -4 75 75 88 48 8 60 30 56 108 l-3 61 59 12 c32 6 63 18 68
25 5 8 6 49 3 91 -7 86 -13 80 78 92 60 8 69 20 61 82 -3 30 -3 65 0 79 6 22
11 25 54 25 27 0 57 7 70 16 20 13 22 24 22 93 0 78 0 79 30 90 17 6 44 16 61
23 77 28 78 105 3 225 -26 43 -82 113 -125 155 -115 116 -189 142 -280 96 -24
-13 -136 -93 -249 -179 -113 -87 -304 -232 -425 -323 -267 -201 -706 -534
-1070 -811 -445 -339 -649 -491 -668 -498 -19 -7 -18 -4 14 43 9 14 67 108
129 210 62 102 151 248 199 325 91 149 551 888 555 892 1 2 18 -2 37 -7 23 -7
44 -7 66 1 33 10 66 60 243 357 l43 72 56 0 c352 0 657 220 867 626 29 55 56
118 60 139 10 54 -11 110 -57 155 -44 42 -230 161 -410 262 -307 172 -736 336
-823 314 -56 -14 -96 -64 -173 -219 -163 -327 -188 -670 -68 -911 41 -82 49
-60 -103 -288 -97 -145 -106 -163 -110 -215 -4 -51 -12 -66 -80 -162 -42 -58
-93 -133 -114 -165 l-38 -59 0 59 c0 110 -20 498 -31 594 -29 269 -84 470
-178 658 -153 305 -465 604 -807 774 -128 64 -166 68 -259 30z m220 -162 c215
-102 475 -331 610 -535 144 -218 223 -457 255 -770 15 -145 39 -898 29 -909
-4 -4 -56 -12 -116 -16 -134 -11 -239 -26 -317 -46 -67 -17 -180 -61 -213 -81
-23 -16 -37 -5 -27 22 9 23 195 109 289 134 44 11 112 25 150 31 39 6 83 13
98 16 l29 6 -26 14 c-47 24 -144 37 -224 31 -80 -7 -219 -45 -286 -79 -21 -11
-42 -16 -46 -11 -4 4 -38 96 -75 203 -37 107 -74 206 -81 220 l-13 25 0 -25
c0 -14 6 -142 14 -285 8 -143 15 -315 15 -382 0 -124 -12 -163 -23 -75 -4 26
-11 76 -17 112 -12 81 -99 937 -115 1125 -16 209 -27 323 -31 345 -6 25 -6 25
-21 5 -8 -11 -29 -49 -45 -85 -110 -238 -228 -689 -275 -1050 -14 -109 -20
-130 -32 -126 -9 2 -58 23 -109 45 -57 25 -135 49 -201 63 l-108 21 -12 366
c-16 499 -22 610 -33 582 -27 -74 -66 -450 -95 -917 l-8 -121 100 -13 c150
-19 276 -54 367 -102 68 -37 126 -83 115 -94 -1 -2 -41 12 -87 31 -47 19 -123
43 -170 54 -90 21 -298 51 -356 51 l-34 0 0 178 c1 287 18 698 35 827 33 248
105 476 203 639 64 106 190 255 287 339 133 115 366 258 450 277 37 8 65 1
150 -40z m1834 -61 c18 -6 31 -14 29 -18 -2 -3 -31 -64 -65 -134 -110 -225
-153 -376 -153 -536 0 -156 49 -261 167 -357 99 -80 254 -117 384 -89 218 45
424 219 575 485 27 47 55 95 64 106 15 21 17 21 38 4 12 -10 22 -26 22 -37 0
-28 -42 -110 -108 -209 -139 -211 -306 -351 -489 -412 -67 -22 -97 -25 -208
-26 -99 0 -141 4 -175 16 -33 13 -47 14 -58 6 -7 -6 -63 -80 -124 -165 -60
-84 -114 -155 -118 -158 -5 -3 -40 12 -79 33 l-71 39 111 173 c61 96 111 181
112 190 0 8 -18 47 -40 85 -111 187 -122 384 -36 649 55 170 150 366 177 366
7 0 27 -5 45 -11z m251 -106 c134 -52 394 -185 533 -272 64 -40 117 -75 117
-76 0 -6 -72 -130 -80 -139 -5 -5 -38 10 -77 36 -144 94 -376 219 -548 294
-60 26 -112 49 -114 51 -8 6 51 143 62 143 7 0 55 -17 107 -37z m-4390 -333
c41 -58 126 -179 189 -268 247 -349 417 -600 445 -657 57 -117 44 -186 -52
-278 -64 -60 -833 -575 -918 -614 -156 -71 -296 -44 -402 77 -95 111 -679
1034 -670 1060 3 9 325 -422 526 -704 175 -244 211 -276 316 -276 72 0 123 25
170 83 28 35 31 46 31 106 0 74 -1 75 -161 321 -129 198 -356 577 -453 755
-58 107 -8 41 365 -484 362 -507 356 -500 441 -508 74 -8 125 11 171 61 47 51
61 107 42 176 -6 24 -60 120 -119 214 -180 287 -408 679 -475 816 l-17 35 23
-29 c26 -33 141 -194 438 -612 112 -159 222 -308 245 -330 68 -70 153 -80 243
-28 53 31 93 90 99 148 7 58 -15 106 -154 326 -156 250 -443 744 -443 765 0
11 43 -45 120 -155z m4269 49 c223 -95 593 -301 599 -333 5 -26 -182 -206
-253 -243 -132 -69 -243 -77 -357 -26 -141 63 -213 204 -188 370 19 121 69
273 91 273 7 0 55 -18 108 -41z m-2149 -1319 c6 -124 15 -277 21 -340 10 -112
58 -512 62 -516 1 -1 36 -18 77 -37 73 -33 141 -89 126 -104 -4 -4 -17 -1 -28
6 -12 7 -53 24 -92 37 -77 27 -159 31 -221 11 -48 -15 -121 -53 -130 -67 -8
-13 -25 -13 -25 0 0 5 16 28 36 49 l35 40 5 178 c11 436 45 805 95 1048 20 99
24 101 26 10 1 -49 7 -191 13 -315z m2105 390 c6 -9 -42 -93 -145 -258 -32
-50 -34 -52 -52 -35 -10 9 -16 23 -13 31 13 35 180 272 191 272 7 0 16 -5 19
-10z m-3834 -757 c29 -38 86 -110 127 -162 l73 -93 -77 -45 c-42 -25 -97 -67
-123 -94 -26 -27 -50 -49 -54 -49 -11 0 -220 323 -225 348 -7 37 23 26 53 -20
49 -75 177 -248 183 -248 11 0 52 43 52 55 0 7 -41 74 -90 151 -50 76 -89 143
-87 149 5 15 86 75 102 75 7 0 37 -30 66 -67z m2609 -268 c0 -3 -39 -60 -86
-128 -48 -67 -170 -247 -273 -401 l-186 -278 -3 107 c-2 95 0 111 16 129 52
57 56 73 62 227 l5 148 34 35 c43 45 172 109 281 140 79 23 150 33 150 21z
m-2208 -287 c200 -242 275 -334 599 -738 157 -195 322 -401 367 -457 l82 -101
0 -86 c0 -75 -3 -88 -22 -106 -12 -11 -28 -19 -34 -18 -6 2 -65 73 -130 160
-213 280 -1027 1334 -1101 1425 l-34 42 23 14 c93 58 87 62 250 -135z m1428
-168 c19 -19 20 -33 20 -515 l0 -495 -27 -29 c-16 -16 -71 -61 -123 -100 l-95
-71 -8 28 c-5 15 -10 263 -11 552 -1 401 2 532 11 553 7 16 17 26 21 23 5 -3
12 -121 15 -263 9 -322 28 -646 38 -636 12 12 29 419 29 700 0 282 -3 272 73
273 24 0 44 -7 57 -20z m2055 -77 c12 -63 7 -236 -10 -315 -23 -112 -50 -184
-98 -258 -43 -67 -114 -150 -127 -150 -4 0 18 51 49 113 57 112 92 217 109
330 5 31 5 57 0 57 -4 0 -8 -6 -8 -13 0 -20 -70 -160 -120 -242 -41 -67 -150
-208 -171 -220 -5 -4 -26 7 -47 23 -50 40 -129 79 -174 87 -21 4 -38 11 -38
15 0 4 17 20 38 36 185 140 398 346 520 501 31 40 60 73 63 73 4 0 10 -17 14
-37z m325 -535 c-41 -135 -105 -235 -219 -341 -87 -80 -178 -130 -319 -177
-67 -22 -127 -40 -133 -40 -11 0 -2 209 10 222 4 4 42 12 86 18 98 14 226 57
302 101 79 47 206 170 249 241 20 33 38 57 41 54 3 -3 -5 -38 -17 -78z m-1293
-145 c-3 -16 -17 -57 -32 -92 -23 -55 -27 -77 -26 -157 1 -104 -2 -109 -96
-155 -38 -19 -56 -21 -120 -16 -106 8 -181 -6 -300 -54 -18 -7 -35 -11 -38 -8
-5 6 -77 194 -89 235 -6 18 3 26 61 57 98 51 375 167 463 193 41 13 99 23 129
23 53 1 53 1 48 -26z m396 -26 c137 -81 155 -280 35 -394 -66 -63 -171 -82
-254 -44 -49 23 -107 88 -122 140 -43 141 24 278 158 322 45 15 137 3 183 -24z
m-1192 -374 c30 -76 32 -186 5 -227 l-18 -29 -33 102 c-18 55 -42 115 -52 132
l-20 31 -24 -64 c-42 -113 -54 -123 -734 -543 -104 -65 -225 -142 -268 -172
-43 -30 -80 -54 -81 -52 -2 2 -16 24 -31 48 l-28 45 21 15 c11 9 91 63 178
121 330 222 556 378 731 507 101 74 206 148 235 164 l53 29 22 -25 c11 -13 31
-50 44 -82z m825 -104 l33 -32 -21 -41 c-32 -64 -72 -126 -82 -126 -4 0 -24
14 -43 30 -19 17 -52 38 -74 47 -27 10 -39 21 -37 32 3 15 161 121 182 121 5
0 25 -14 42 -31z m450 -42 c-3 -18 -10 -104 -15 -192 -6 -88 -16 -177 -23
-198 -14 -40 -109 -173 -175 -245 l-38 -42 -103 110 -104 110 35 97 c19 54 42
133 52 176 9 43 23 94 31 112 l14 34 82 -6 c69 -4 92 -2 139 16 31 12 64 30
74 41 27 29 38 25 31 -13z m-854 6 c-12 -10 -37 -29 -56 -43 -20 -14 -50 -44
-67 -67 -38 -50 -49 -53 -49 -15 0 20 13 40 48 74 57 55 78 67 116 68 l29 0
-21 -17z m103 -63 c3 -5 -12 -20 -33 -34 -21 -13 -64 -52 -95 -87 -51 -56 -57
-60 -57 -37 0 39 69 126 125 156 25 14 52 15 60 2z m70 -89 c17 -7 15 -10 -20
-33 -40 -25 -95 -81 -127 -128 -14 -22 -17 -23 -23 -7 -12 29 14 74 72 127 56
51 63 54 98 41z m-423 -47 c23 -19 116 -107 205 -196 l163 -160 -88 -101 c-48
-55 -91 -102 -97 -103 -8 -3 -285 358 -362 472 l-23 33 29 21 c37 25 114 70
123 70 3 0 26 -16 50 -36z m480 -69 c-28 -30 -65 -77 -83 -105 -32 -49 -49
-56 -49 -19 0 57 104 179 153 179 l29 0 -50 -55z m74 -73 c-70 -99 -114 -131
-86 -62 17 41 101 129 107 112 3 -7 -7 -30 -21 -50z m-915 -50 c29 -40 118
-155 292 -376 59 -76 107 -141 107 -145 0 -4 -33 -43 -72 -85 l-73 -78 -81
109 c-45 59 -148 195 -228 302 -81 107 -145 199 -143 204 2 8 155 105 167 106
3 0 17 -16 31 -37z m2964 -98 c15 -39 15 -48 4 -55 -27 -18 -1568 -789 -1576
-789 -5 0 -23 20 -41 45 l-32 45 283 141 c947 475 1320 659 1331 659 7 0 21
-21 31 -46z m-1376 -61 c35 -42 38 -61 15 -104 -18 -36 -83 -68 -137 -69 -41
0 -77 14 -77 31 0 5 30 52 67 104 74 105 76 105 132 38z m-1909 -163 c54 -63
151 -178 216 -256 66 -78 145 -171 177 -207 51 -57 57 -68 47 -86 -6 -12 -17
-21 -24 -21 -8 0 -61 53 -118 118 -230 259 -458 560 -458 606 0 17 4 16 31
-10 17 -16 75 -81 129 -144z m1348 78 c88 -90 111 -117 112 -133 0 -10 -50
-45 -65 -45 -3 0 -44 36 -90 80 -46 44 -88 80 -94 80 -16 0 -13 -52 4 -93 8
-20 12 -42 9 -50 -2 -7 -54 -59 -114 -115 -199 -185 -345 -355 -698 -816 -20
-26 -44 -58 -54 -70 l-16 -21 -26 24 c-14 14 -26 30 -26 36 0 15 128 216 212
333 90 126 269 350 449 563 218 257 267 309 293 309 15 0 51 -29 104 -82z
m-1625 -51 c-183 -260 -225 -317 -232 -317 -7 0 -88 56 -141 98 l-25 20 29 23
c91 72 389 244 394 229 3 -7 -9 -30 -25 -53z m-558 -20 c14 -24 25 -48 25 -53
0 -5 -15 -19 -33 -31 -17 -13 -61 -50 -97 -83 -36 -32 -68 -60 -72 -60 -10 0
-54 68 -62 95 -4 16 4 30 31 57 46 43 153 118 170 118 7 0 24 -20 38 -43z
m699 -147 l27 -41 -63 -87 c-35 -48 -79 -111 -97 -140 l-34 -54 -34 35 -35 34
84 119 c46 65 91 131 101 147 10 15 19 27 21 27 2 0 15 -18 30 -40z m1274
-375 c22 -25 57 -70 78 -101 l39 -56 -35 -27 c-19 -14 -72 -61 -117 -104 -74
-72 -103 -87 -103 -54 0 7 -25 48 -55 91 -52 75 -68 116 -45 116 12 0 98 -106
113 -141 l12 -27 38 33 c20 18 37 35 37 39 0 3 -25 42 -55 86 -30 44 -55 83
-55 87 0 9 92 101 102 102 3 1 24 -19 46 -44z m431 -110 l31 -46 -53 -24 c-64
-31 -78 -31 -103 -2 -51 58 -52 54 17 87 35 16 67 29 71 30 4 0 20 -20 37 -45z
m-221 -189 c40 -21 223 -220 211 -230 -2 -2 -33 -18 -67 -36 -41 -22 -83 -55
-117 -93 -29 -33 -57 -57 -63 -53 -6 3 -50 58 -98 121 -73 96 -85 117 -74 130
21 25 33 17 88 -58 29 -40 65 -86 80 -104 l27 -32 38 44 38 45 -33 42 c-18 24
-56 71 -85 105 -29 33 -53 65 -53 70 1 7 68 63 77 63 2 0 16 -6 31 -14z m-518
-59 c22 -30 40 -56 40 -60 0 -12 -172 -109 -185 -103 -8 3 -21 16 -30 30 -17
25 -16 27 26 78 61 75 92 108 101 108 4 0 25 -24 48 -53z m-549 -295 c21 -19
31 -37 32 -61 2 -43 -11 -47 -54 -18 -34 22 -48 60 -35 93 8 21 22 17 57 -14z
m1484 -47 c68 -46 155 -123 155 -138 0 -7 -30 -34 -66 -62 -100 -76 -94 -73
-111 -47 -9 12 -51 70 -94 128 -44 58 -79 109 -79 112 0 4 17 17 38 30 48 29
86 24 157 -23z m-264 -175 c70 -89 139 -193 139 -210 0 -10 -9 -29 -21 -44
-21 -27 -39 -34 -39 -16 0 6 -20 43 -43 83 -94 155 -100 170 -93 211 4 21 11
35 15 30 4 -5 23 -29 42 -54z m402 -152 c-49 -57 -164 -160 -170 -154 -15 15
159 186 188 186 6 0 -2 -15 -18 -32z"/>
<path d="M5985 5041 c-53 -22 -83 -93 -60 -146 20 -48 56 -69 110 -63 52 6 73
21 91 65 35 83 -58 177 -141 144z m73 -63 c37 -37 -10 -112 -52 -85 -35 24
-41 43 -23 71 19 28 55 34 75 14z"/>
<path d="M6449 5057 c-81 -55 -103 -149 -54 -233 64 -109 224 -91 270 31 54
140 -98 282 -216 202z m125 -83 c33 -33 34 -74 3 -110 -17 -20 -33 -27 -57
-27 -39 0 -80 40 -80 79 0 33 51 84 83 84 13 0 36 -12 51 -26z"/>
<path d="M6480 4492 c-35 -16 -60 -40 -70 -66 -33 -89 21 -176 110 -176 71 0
120 53 120 130 0 55 -48 108 -105 115 -22 2 -47 1 -55 -3z m84 -84 c9 -12 16
-30 16 -40 0 -21 -38 -58 -60 -58 -24 0 -60 37 -60 62 0 54 74 79 104 36z"/>
<path d="M3390 4650 c-165 -17 -319 -61 -478 -135 -118 -56 -144 -75 -193
-141 -22 -30 -56 -62 -75 -71 -33 -16 -36 -16 -85 10 -41 21 -56 24 -77 16
-59 -22 -284 -144 -318 -173 -46 -37 -73 -97 -74 -158 0 -92 78 -270 157 -354
48 -53 108 -72 167 -54 37 11 317 151 342 171 6 5 17 29 24 53 19 70 77 87
125 36 16 -16 34 -30 40 -30 6 0 21 -10 32 -22 31 -34 216 -409 206 -418 -4
-5 -82 -50 -173 -100 -309 -172 -396 -242 -426 -348 -37 -128 15 -219 218
-383 253 -204 579 -382 848 -465 69 -21 82 -19 74 14 -16 68 -127 334 -143
339 -157 53 -482 246 -672 399 -36 30 -70 54 -75 54 -5 0 -27 -14 -48 -32 -43
-35 -56 -28 -56 29 0 62 83 130 341 276 63 35 130 70 151 77 35 13 37 12 62
-16 14 -16 26 -32 26 -36 0 -3 -19 -17 -42 -30 -161 -92 -328 -191 -326 -193
88 -77 537 -375 565 -375 6 0 -2 37 -16 83 l-27 82 -110 78 c-60 43 -110 82
-112 87 -2 4 5 11 16 14 10 4 45 22 77 41 32 20 59 34 60 33 0 -2 8 -14 17
-28 8 -14 42 -86 76 -160 106 -236 331 -702 363 -751 66 -104 201 -128 341
-62 81 38 159 108 189 170 37 76 25 129 -56 270 -140 241 -654 1192 -779 1440
l-66 132 21 36 c17 28 20 45 15 79 -6 39 -5 44 16 51 13 4 120 9 238 11 118 3
225 7 237 9 58 13 123 104 123 172 0 59 -30 103 -96 145 -159 99 -418 150
-644 128z m283 -121 c98 -15 171 -36 240 -70 53 -27 79 -56 40 -45 -156 43
-300 58 -428 45 -111 -11 -228 -47 -233 -71 -2 -9 15 -63 37 -120 23 -57 41
-108 41 -114 0 -10 -330 -184 -349 -184 -6 0 -11 4 -11 9 0 5 -38 81 -85 168
-51 97 -83 167 -79 176 7 20 173 105 270 140 63 23 229 60 309 70 65 8 180 6
248 -4z m172 -190 c27 -12 11 -14 -165 -20 -107 -4 -204 -10 -215 -13 -25 -8
-54 9 -40 23 22 22 96 30 240 27 99 -2 160 -8 180 -17z m-1049 -184 c19 -33
34 -66 34 -72 0 -10 -68 -53 -84 -53 -6 0 -89 151 -85 153 25 15 77 36 88 34
8 -1 29 -29 47 -62z m-228 -24 c74 -114 114 -280 70 -289 -14 -3 -18 3 -18 25
0 36 -27 130 -40 138 -5 3 -19 -5 -32 -18 -13 -13 -46 -32 -73 -42 l-48 -19
-16 23 c-48 69 -90 145 -85 153 9 14 165 88 186 88 11 0 33 -22 56 -59z m-321
-118 c38 -49 123 -251 123 -294 0 -52 -45 6 -112 147 -43 88 -60 164 -38 164
7 0 19 -8 27 -17z m1242 -370 c123 -249 159 -329 149 -335 -7 -5 -36 -20 -64
-33 -33 -15 -62 -39 -82 -65 l-31 -42 -24 39 c-55 87 -318 618 -315 636 2 11
8 22 13 23 6 2 64 -100 129 -227 139 -270 221 -403 232 -376 3 10 -1 37 -9 59
-20 49 -262 511 -289 550 -19 27 -18 27 4 42 39 24 102 55 114 56 7 0 84 -147
173 -327z m424 -798 c97 -192 188 -360 202 -372 20 -17 21 -22 9 -27 -9 -3
-24 -6 -33 -6 -10 0 -39 -11 -64 -24 l-47 -23 -54 96 c-71 128 -323 615 -331
641 -5 17 2 24 47 45 29 14 62 24 73 23 15 -2 60 -83 198 -353z m302 -495 c35
-13 27 -23 -43 -48 -32 -12 -96 -44 -142 -72 -47 -28 -91 -49 -100 -48 -22 5
-24 47 -3 70 70 78 213 126 288 98z"/>
</g>
</svg>
