<?xml version="1.0" standalone="no"?>
<!DOCTYPE svg PUBLIC "-//W3C//DTD SVG 20010904//EN"
 "http://www.w3.org/TR/2001/REC-SVG-20010904/DTD/svg10.dtd">
<svg version="1.0" xmlns="http://www.w3.org/2000/svg"
 width="1024.000000pt" height="1024.000000pt" viewBox="0 0 1024.000000 1024.000000"
 preserveAspectRatio="xMidYMid meet">

<g transform="translate(0.000000,1024.000000) scale(0.100000,-0.100000)"
fill="#000000" stroke="none">
<path d="M2285 8918 c-38 -20 -55 -51 -55 -101 0 -62 25 -111 89 -168 28 -26
51 -50 51 -55 0 -5 -11 -22 -24 -39 l-24 -29 -54 17 c-175 55 -300 -23 -394
-246 -39 -93 -161 -362 -325 -717 -16 -36 -74 -162 -129 -280 l-99 -214 -83
-21 c-195 -47 -243 -121 -213 -325 8 -52 19 -160 26 -239 l12 -145 -34 -25
c-105 -80 -219 -184 -270 -245 -144 -174 -249 -487 -237 -706 6 -100 55 -255
109 -346 52 -89 180 -211 274 -263 47 -26 111 -74 155 -116 81 -78 142 -115
189 -115 37 0 61 31 61 77 0 18 2 33 6 33 3 0 43 -38 89 -84 84 -85 140 -116
205 -116 29 0 70 25 70 43 0 7 4 18 9 26 7 11 29 -1 102 -52 96 -66 185 -109
251 -121 72 -13 298 63 298 100 0 20 -39 52 -110 90 -36 19 -92 59 -125 90
l-60 55 50 -5 c60 -6 156 -37 245 -80 74 -36 92 -36 139 3 l34 28 -21 30 c-11
16 -46 42 -77 57 -77 39 -105 63 -105 90 0 33 9 37 49 20 162 -69 265 -90 290
-61 8 10 4 20 -17 40 -32 30 -222 127 -250 127 -14 0 -21 9 -26 33 -3 19 -47
103 -98 188 -150 253 -348 578 -403 664 -85 132 -135 220 -135 240 0 18 31 79
168 325 79 143 100 174 445 668 120 172 221 320 224 328 6 17 32 -6 298 -266
88 -85 327 -315 530 -511 204 -196 441 -426 527 -511 l156 -156 24 25 c13 14
42 38 66 55 23 16 42 34 42 40 0 15 -779 790 -1015 1010 -104 97 -272 257
-372 355 -167 163 -182 180 -177 205 l6 28 72 -61 c227 -196 581 -533 1030
-981 279 -279 511 -508 515 -508 4 0 31 15 60 33 l53 34 -27 21 c-15 12 -212
204 -437 428 -406 402 -410 406 -391 425 19 20 20 19 44 -4 115 -113 683 -692
750 -765 l85 -94 57 28 c31 16 57 33 57 39 0 6 -18 29 -41 50 -86 84 -679 695
-777 803 l-103 112 80 93 c44 50 104 118 134 151 l53 59 189 -194 c615 -626
951 -965 969 -976 25 -14 149 -17 144 -4 -3 9 -370 388 -920 949 -259 265
-268 275 -268 313 0 36 -8 47 -82 125 -78 81 -84 86 -117 80 -19 -3 -47 -17
-62 -32 -15 -14 -31 -25 -36 -23 -4 3 -131 128 -280 279 l-273 275 7 53 6 53
-149 150 c-233 237 -253 249 -343 213 -39 -15 -41 -15 -69 8 -177 145 -182
148 -225 148 -23 0 -51 -6 -62 -12z m143 -132 c23 -25 42 -51 42 -59 0 -31
-33 -27 -87 10 -59 40 -78 66 -69 90 11 28 67 7 114 -41z m123 -150 c-8 -10
-9 -15 -1 -18 6 -2 -15 -34 -46 -71 -41 -50 -62 -67 -77 -65 -38 6 -29 27 50
108 42 45 79 77 81 71 2 -7 -1 -18 -7 -25z m469 -267 c0 -3 -33 -42 -72 -85
-40 -44 -91 -101 -113 -126 l-40 -48 -148 147 c-95 95 -146 152 -142 162 5 12
7 12 18 -1 6 -8 69 -70 140 -138 126 -122 128 -124 146 -104 19 19 17 21 -110
153 -71 73 -129 138 -129 143 0 6 34 53 76 105 l77 95 148 -148 c82 -82 149
-152 149 -155z m-739 80 c84 -42 149 -120 184 -218 8 -24 26 -100 41 -170 14
-69 36 -170 49 -223 22 -83 24 -128 8 -128 -2 0 -45 35 -96 78 -51 43 -153
128 -227 189 -191 156 -237 203 -245 247 -6 31 -9 35 -23 24 -13 -11 -14 -10
-7 12 56 182 182 258 316 189z m436 -369 c11 -29 11 -29 -10 -13 -30 23 -131
142 -147 173 -7 14 23 -10 67 -53 43 -42 84 -91 90 -107z m600 -99 c136 -131
257 -248 267 -260 19 -21 19 -21 -50 -94 -37 -39 -69 -74 -71 -76 -1 -2 -124
120 -273 270 l-270 273 62 63 c34 35 68 63 74 63 7 0 124 -107 261 -239z
m-1126 -59 c96 -79 200 -164 233 -190 32 -26 70 -56 84 -68 l26 -21 -124 -184
c-68 -101 -153 -227 -190 -279 -37 -52 -131 -189 -209 -305 -156 -232 -203
-293 -234 -304 -30 -11 -104 5 -236 51 -259 90 -339 117 -374 123 -31 6 -38
12 -47 44 -24 87 -3 142 68 174 41 19 65 22 177 22 125 0 134 -1 242 -39 62
-22 116 -36 120 -33 11 12 -31 60 -73 84 -21 13 -38 28 -36 34 2 7 52 143 112
303 114 305 250 699 250 722 0 29 -26 13 -39 -23 -7 -21 -55 -128 -106 -238
-51 -110 -108 -236 -128 -280 -97 -223 -138 -316 -164 -380 -28 -65 -32 -70
-58 -67 -16 2 -37 7 -47 11 -17 6 -17 8 1 41 10 19 40 82 66 140 147 324 231
506 316 681 l94 197 51 -37 c29 -20 130 -100 225 -179z m972 -151 l262 -259
-19 -21 c-11 -12 -23 -20 -28 -19 -19 7 -528 522 -528 535 0 8 4 12 9 8 5 -3
12 -1 16 5 3 5 10 10 16 10 5 0 127 -117 272 -259z m-44 -258 c161 -158 164
-162 150 -185 -22 -33 -7 -75 49 -140 58 -68 75 -95 70 -109 -2 -7 -94 75
-204 182 -109 107 -265 257 -345 334 l-146 141 -13 86 c-7 47 -10 94 -6 103 7
19 18 9 445 -412z m710 156 l44 -40 -44 -47 c-25 -26 -97 -100 -160 -165 -63
-65 -115 -123 -117 -128 -7 -20 -29 -6 -65 41 l-39 50 136 143 c122 129 182
186 196 186 3 0 25 -18 49 -40z m-406 -408 c51 -53 68 -81 51 -81 -25 0 -124
105 -124 132 0 19 20 5 73 -51z m-2112 -647 c18 -9 29 -23 30 -37 0 -12 1 -61
2 -110 l2 -87 -91 0 c-75 0 -93 3 -98 16 -3 9 -9 73 -12 144 l-7 128 73 -19
c40 -11 85 -26 101 -35z m389 -142 c12 -8 2 -34 -60 -160 -41 -84 -78 -152
-81 -152 -3 0 -11 18 -18 40 -6 22 -35 65 -64 97 l-52 58 3 106 4 105 126 -42
c70 -24 134 -47 142 -52z m-320 -187 c46 -24 70 -61 104 -158 18 -53 47 -121
65 -151 17 -31 31 -60 31 -66 0 -15 -66 -12 -163 10 -120 27 -166 49 -230 113
-49 50 -60 56 -111 62 -31 4 -67 5 -80 3 -52 -10 -47 9 19 73 75 73 128 107
194 126 51 14 132 8 171 -12z m-179 -400 c79 -26 147 -49 150 -53 3 -4 30 -61
60 -127 59 -132 186 -384 331 -656 l94 -176 -55 13 c-31 7 -139 33 -241 58
-102 24 -201 47 -220 51 -63 12 -211 57 -256 76 -83 37 -143 129 -277 419
l-16 35 0 -33 c-3 -131 166 -440 266 -487 21 -10 219 -63 441 -118 320 -79
409 -104 430 -123 l27 -23 -25 -1 c-20 0 -22 -2 -10 -10 10 -6 11 -10 3 -10
-38 0 3 -84 76 -158 19 -18 32 -35 29 -37 -8 -8 -143 37 -185 62 -24 14 -57
43 -75 66 -42 54 -40 53 -112 67 -34 6 -69 13 -79 16 -19 6 -18 -10 8 -88 7
-21 9 -38 5 -38 -4 0 -47 32 -95 70 -94 77 -137 102 -203 120 -24 6 -50 14
-59 17 -14 5 -15 0 -10 -38 3 -25 9 -54 14 -64 7 -19 6 -19 -17 -2 -14 9 -35
22 -48 27 -12 5 -50 37 -84 71 -34 33 -87 74 -118 89 -142 72 -248 225 -295
425 -29 124 -5 327 52 439 53 106 90 137 188 163 74 19 147 9 306 -42z m373
-85 c54 -11 111 -20 127 -20 16 0 29 -4 29 -9 0 -14 -55 -24 -89 -16 -25 5
-29 3 -35 -21 -6 -22 15 -71 112 -263 136 -271 276 -520 339 -605 64 -85 64
-85 -14 -66 l-68 17 -79 129 c-128 207 -230 394 -346 629 -129 264 -126 257
-97 250 12 -3 66 -14 121 -25z"/>
<path d="M2142 8413 c-12 -2 -38 -19 -57 -37 -29 -28 -35 -40 -35 -75 0 -80
47 -143 117 -157 65 -13 153 57 153 122 0 88 -92 164 -178 147z m72 -106 c22
-16 18 -65 -6 -81 -43 -26 -110 40 -78 78 15 19 60 21 84 3z"/>
<path d="M1306 6911 c-10 -11 -20 -37 -23 -58 -6 -49 23 -88 79 -105 40 -12
41 -11 69 20 43 47 35 106 -19 150 -24 19 -86 15 -106 -7z"/>
<path d="M1704 6810 c-79 -32 -84 -149 -9 -185 48 -22 70 -19 109 16 43 37 55
83 32 127 -25 49 -76 65 -132 42z m84 -88 c5 -34 -25 -64 -49 -51 -22 11 -26
64 -6 73 26 11 52 1 55 -22z"/>
<path d="M1206 6216 c-50 -46 -50 -92 -1 -134 36 -32 105 -50 145 -37 30 10
60 63 60 108 0 29 -7 46 -29 68 -25 25 -37 29 -85 29 -48 0 -59 -4 -90 -34z
m138 -58 c18 -52 -50 -81 -89 -38 -10 11 -22 17 -26 14 -15 -9 -10 13 6 26 8
7 15 10 15 7 0 -3 12 1 28 9 36 19 55 14 66 -18z"/>
<path d="M949 4969 c-10 -6 -11 -9 -1 -9 6 0 12 -7 12 -15 0 -20 74 -50 235
-96 124 -34 235 -60 570 -130 94 -19 114 -15 96 19 -9 16 -49 29 -203 67 -106
25 -283 69 -393 97 -110 28 -223 56 -251 63 -31 7 -57 9 -65 4z"/>
<path d="M7907 8816 c-15 -8 -55 -40 -90 -71 -116 -103 -746 -535 -781 -535
-12 0 -27 5 -33 11 -20 20 -69 -1 -186 -84 -100 -71 -403 -280 -696 -481 -546
-375 -558 -383 -624 -432 -31 -24 -68 -44 -82 -44 -54 0 -123 -22 -159 -51
-45 -38 -68 -82 -91 -176 -17 -74 -66 -166 -113 -216 -14 -15 -50 -41 -79 -57
-56 -32 -64 -47 -35 -72 48 -43 102 -26 179 55 73 77 101 132 128 252 25 109
39 136 87 161 52 27 108 12 157 -40 37 -40 48 -99 38 -223 -4 -59 -5 -135 -2
-168 9 -99 -25 -127 -149 -126 -91 1 -106 -12 -106 -88 0 -31 4 -62 9 -70 16
-25 114 -26 179 -3 83 30 124 36 145 20 11 -8 33 -41 50 -74 26 -48 37 -59 57
-59 48 -1 61 12 54 55 -10 60 2 86 51 120 69 47 58 90 -35 146 -32 20 -72 80
-68 102 3 16 92 82 380 282 117 82 217 153 523 375 241 174 477 341 553 390
60 38 78 45 102 40 35 -8 35 -5 14 52 -9 23 -14 49 -11 56 3 8 74 62 159 120
84 59 225 157 313 218 l159 111 16 -23 c8 -13 23 -32 33 -41 9 -10 17 -19 17
-21 0 -2 -19 -17 -42 -34 -334 -235 -598 -426 -598 -432 0 -4 -16 -24 -35 -44
-35 -36 -35 -37 -8 -25 15 7 96 58 178 114 696 469 752 504 803 504 16 0 41
-16 68 -44 36 -35 44 -50 44 -80 0 -53 -21 -87 -87 -142 -32 -27 -85 -74 -118
-104 -96 -90 -278 -231 -792 -615 -740 -553 -746 -557 -831 -574 -34 -6 -68
-19 -76 -27 -8 -8 -23 -40 -33 -72 -22 -75 -46 -108 -101 -143 -56 -35 -63
-36 -99 -5 -37 31 -111 50 -160 41 -28 -5 -55 -23 -105 -73 -36 -37 -76 -75
-87 -84 -30 -25 -27 -86 6 -160 23 -52 25 -64 16 -103 -10 -42 -9 -44 16 -55
21 -8 34 -7 59 5 18 9 32 22 32 29 0 7 9 25 20 39 27 35 25 56 -10 92 -32 33
-42 85 -22 121 6 11 29 37 52 57 55 51 82 49 134 -8 55 -59 79 -59 196 1 101
52 120 75 141 167 17 78 37 89 148 80 l81 -6 0 -36 c1 -91 46 -171 97 -171 13
0 47 -13 76 -30 69 -39 109 -39 153 0 47 40 77 46 125 24 47 -21 99 -79 99
-110 0 -11 -11 -34 -25 -50 -33 -39 -32 -63 10 -120 19 -27 58 -87 86 -134 29
-47 57 -89 63 -93 11 -8 79 -3 108 8 13 5 21 -10 41 -72 41 -122 42 -144 15
-170 -13 -12 -44 -31 -70 -43 -26 -11 -49 -28 -52 -38 -17 -56 -46 -255 -40
-276 3 -13 28 -47 55 -75 27 -28 49 -53 49 -57 0 -16 -63 -132 -86 -158 l-25
-29 -40 22 c-84 48 -168 19 -258 -90 -59 -70 -62 -89 -30 -175 l22 -58 -29
-26 c-40 -35 -138 -66 -173 -54 -21 8 -27 19 -36 72 -7 34 -17 68 -23 74 -27
27 -165 25 -198 -3 -8 -7 -14 -24 -12 -38 3 -24 8 -27 63 -34 68 -9 81 -21 90
-80 4 -23 12 -47 17 -54 6 -8 6 -18 0 -29 -9 -16 -13 -15 -39 12 -16 16 -36
39 -45 52 -11 16 -29 25 -57 29 -45 6 -42 13 -60 -107 -18 -118 -23 -243 -12
-273 6 -16 35 -54 65 -85 61 -65 79 -102 48 -102 -19 0 -111 32 -184 64 -36
16 -37 15 -57 -10 -12 -15 -18 -30 -15 -35 2 -4 51 -34 107 -65 56 -31 149
-85 207 -119 58 -34 170 -99 250 -145 463 -265 456 -261 515 -314 56 -51 83
-57 156 -31 24 9 69 18 99 22 61 6 38 16 355 -154 72 -38 164 -83 205 -99 136
-53 180 -120 180 -274 0 -98 -21 -175 -85 -305 -116 -239 -309 -401 -490 -413
-67 -4 -78 -2 -119 22 -62 36 -88 88 -94 189 -8 138 26 285 103 437 56 111 67
147 49 154 -20 8 -54 -11 -54 -29 0 -8 -6 -15 -14 -15 -13 0 -39 15 -260 147
-49 29 -93 53 -97 53 -4 0 -17 -12 -28 -26 -23 -30 -14 -54 29 -76 14 -7 30
-18 37 -24 6 -6 66 -44 133 -84 66 -41 123 -77 126 -81 5 -9 -17 -59 -26 -59
-4 0 -13 7 -20 16 -8 8 -43 33 -79 55 -36 22 -102 63 -146 90 -76 47 -108 58
-119 41 -11 -18 -18 -82 -8 -82 17 0 279 -166 340 -216 8 -6 -10 -44 -20 -44
-6 0 -78 45 -159 100 -82 55 -157 100 -165 100 -14 0 -16 -8 -10 -52 13 -98
36 -130 154 -209 167 -112 162 -108 162 -151 0 -21 -2 -38 -5 -38 -3 0 -38 24
-78 54 -40 29 -100 70 -135 91 -120 73 -157 147 -155 311 3 137 43 246 143
383 29 39 50 77 47 84 -2 6 -56 41 -118 76 -126 72 -615 365 -809 485 -133 83
-180 109 -185 104 -2 -2 -6 -15 -10 -29 -6 -25 -2 -29 51 -53 32 -15 81 -41
108 -58 95 -59 561 -340 641 -388 44 -26 109 -65 143 -88 35 -23 73 -44 84
-47 19 -7 22 -42 2 -38 -5 1 -92 52 -194 114 -207 125 -719 431 -793 474 l-49
28 -24 -29 c-13 -16 -23 -32 -24 -35 0 -8 46 -39 160 -109 47 -29 117 -73 155
-98 62 -41 490 -304 609 -374 l45 -27 -30 -62 c-28 -56 -31 -60 -47 -46 -9 8
-114 75 -232 149 -245 153 -502 317 -638 406 l-93 61 -53 -42 c-28 -23 -82
-62 -119 -87 -36 -25 -67 -49 -67 -53 0 -10 31 -30 760 -480 228 -140 336
-210 368 -237 14 -12 30 -43 39 -77 20 -76 65 -164 111 -215 20 -23 125 -107
232 -186 107 -80 216 -164 241 -187 77 -68 178 -83 302 -45 294 91 603 577
548 861 -27 134 -88 207 -214 255 -76 29 -117 51 -117 64 0 4 51 7 113 6 111
-1 114 0 188 36 69 34 78 42 113 103 32 53 49 71 95 97 86 48 121 77 152 126
36 57 37 97 4 162 -37 73 -31 129 14 130 31 1 97 57 129 110 29 47 33 62 29
103 -3 40 -11 55 -46 91 -38 39 -41 45 -41 99 0 64 19 110 56 140 13 10 39 40
56 65 30 42 33 54 33 118 0 63 -3 75 -28 105 -111 136 -129 197 -70 234 37 23
63 93 63 172 0 69 -25 112 -87 147 -45 26 -53 34 -53 59 0 16 -5 47 -12 68
-10 37 -9 42 19 77 43 54 45 67 23 142 -26 87 -48 114 -112 136 -46 17 -53 24
-73 69 -35 79 -39 118 -17 162 56 110 26 181 -98 236 -30 14 -67 39 -82 56
l-28 31 15 57 c8 31 15 68 15 80 0 35 -39 110 -71 137 -32 27 -118 49 -175 44
l-38 -3 -54 95 c-62 110 -83 135 -136 162 -34 17 -52 19 -125 15 -47 -3 -95
-8 -106 -12 -14 -4 -30 2 -49 18 -56 48 -142 59 -264 31 -70 -16 -70 -16 -124
10 -30 14 -69 26 -86 26 -55 0 -134 -22 -181 -49 l-46 -28 1 -96 c0 -88 -1
-97 -18 -97 -22 0 -53 48 -73 115 l-16 50 28 23 c27 23 160 118 274 198 219
152 314 222 512 377 l138 107 36 -67 c66 -127 176 -328 272 -498 52 -93 110
-198 129 -233 23 -43 50 -75 85 -102 83 -63 138 -145 152 -225 14 -81 27 -105
104 -182 75 -75 80 -82 108 -170 l30 -92 44 24 c147 83 206 104 314 112 85 6
100 -6 110 -83 l7 -51 -53 -36 c-30 -20 -58 -32 -62 -28 -12 12 20 71 38 71
26 0 16 34 -16 53 -42 23 -61 22 -154 -14 -136 -51 -255 -119 -255 -146 0 -7
25 -40 56 -74 30 -33 64 -80 74 -104 l19 -44 88 5 c101 7 166 24 240 65 29 16
55 29 57 29 15 0 59 -98 77 -171 25 -99 22 -186 -10 -269 -31 -82 -58 -109
-120 -126 -78 -20 -132 -4 -193 57 l-48 48 0 -54 c0 -30 8 -72 19 -97 18 -42
74 -97 114 -111 9 -4 17 -13 17 -21 0 -16 72 -32 90 -21 6 4 16 18 21 32 8 22
14 24 42 19 43 -8 68 11 72 55 2 23 8 33 17 30 7 -2 20 -5 28 -8 22 -6 67 32
72 62 3 14 -1 33 -8 42 -11 16 -8 23 27 54 48 45 52 77 9 86 l-30 6 35 34 c43
42 46 76 8 100 -16 9 -30 18 -32 20 -2 1 1 8 6 15 25 31 25 59 2 84 -12 13
-28 24 -36 24 -14 0 -15 2 -17 76 -1 43 -7 58 -39 97 -20 25 -46 49 -57 52
-17 5 -19 13 -13 69 6 72 -6 119 -48 187 -32 50 -59 69 -116 78 l-38 6 -57
155 c-32 85 -73 195 -93 244 -31 82 -33 92 -20 112 10 15 12 31 6 51 -22 77
-194 511 -284 719 -36 83 -84 195 -105 250 -50 125 -153 357 -191 432 -23 43
-79 105 -233 258 -112 112 -230 218 -263 239 -68 44 -133 55 -178 31z m125
-112 c70 -36 419 -380 450 -442 22 -44 23 -59 23 -247 l0 -200 44 -115 c24
-63 75 -198 114 -300 38 -102 85 -225 104 -275 19 -49 59 -157 88 -240 29 -82
68 -188 85 -235 18 -47 56 -153 85 -237 l52 -151 -38 -25 -38 -25 -32 56 c-18
31 -45 75 -59 97 -24 35 -229 404 -272 490 -8 17 -117 229 -242 472 -124 243
-226 445 -226 449 0 4 62 71 138 148 140 143 162 177 162 247 0 71 -90 184
-164 209 -47 15 -83 8 -176 -35 l-75 -35 -73 77 c-100 107 -134 157 -140 209
-4 41 -2 47 36 84 34 34 46 40 81 40 23 0 56 -7 73 -16z m-252 -237 c25 -39
45 -77 45 -84 0 -6 -115 -90 -255 -185 -277 -188 -324 -218 -345 -218 -7 0
-39 32 -69 72 l-56 72 27 11 c31 14 508 332 563 376 19 16 37 28 40 29 3 0 25
-33 50 -73z m-804 -385 c22 -14 94 -104 94 -116 0 -8 -30 -33 -67 -57 l-66
-43 -59 64 c-32 36 -58 67 -58 70 1 10 115 89 130 90 8 0 20 -4 26 -8z m1642
-94 c6 -13 48 -115 93 -228 45 -113 88 -212 95 -221 12 -13 11 -18 -9 -36 -40
-36 -45 -36 -65 4 -11 21 -54 123 -96 227 -78 192 -85 225 -54 264 15 17 23
15 36 -10z m-1843 -93 c22 -31 41 -62 43 -69 3 -14 -101 -91 -398 -296 -91
-63 -302 -211 -470 -330 -168 -119 -310 -220 -317 -224 -8 -4 -19 9 -31 36
-11 24 -31 58 -46 77 l-25 34 62 43 c34 23 89 61 122 85 53 38 133 93 545 378
52 36 178 123 279 193 102 71 187 128 190 128 3 0 24 -25 46 -55z m345 -19 c0
-19 -111 -107 -124 -99 -10 7 99 113 116 113 4 0 8 -6 8 -14z m-209 -156 c10
-6 19 -15 19 -19 0 -12 -516 -396 -740 -551 -19 -13 -112 -81 -206 -151 -94
-70 -211 -152 -260 -182 -80 -50 -90 -54 -101 -40 -31 40 -17 54 179 193 105
74 223 158 262 187 39 28 89 65 111 81 290 211 694 492 708 492 5 0 17 -5 28
-10z m1956 -260 c14 -21 2 -37 -59 -81 -27 -20 -27 -20 -39 3 -10 19 -7 25 32
60 24 20 46 38 49 38 3 0 11 -9 17 -20z m132 -327 c50 -128 91 -235 91 -238 0
-2 -24 -18 -52 -35 l-53 -30 -17 48 c-9 26 -47 126 -83 222 -37 96 -68 184
-71 195 -3 14 8 29 38 53 22 18 44 29 48 25 4 -4 48 -113 99 -240z m-1046
-258 c83 -27 89 -28 115 -13 15 9 42 15 60 13 17 -1 32 1 32 5 0 12 37 0 50
-15 9 -10 0 -17 -42 -29 -29 -8 -71 -30 -93 -48 -23 -19 -48 -31 -60 -30 -11
2 -59 21 -106 42 -135 61 -264 65 -314 10 -17 -18 -35 -79 -38 -128 -3 -35
-28 -22 -45 24 -19 51 -10 105 23 136 14 13 25 26 25 31 0 4 -36 4 -80 1 -69
-6 -80 -5 -80 9 0 22 27 25 260 23 197 -2 209 -3 293 -31z m1147 -126 c0 -12
32 -111 72 -220 50 -137 77 -199 87 -199 25 0 -1 -16 -48 -29 -24 -7 -47 -9
-51 -4 -4 4 -39 103 -78 220 l-70 212 31 20 c41 26 57 26 57 0z m-2075 -114
c155 -3 206 -14 284 -64 65 -42 102 -84 208 -236 90 -130 147 -224 197 -323
32 -64 122 -333 141 -422 65 -308 92 -757 64 -1046 -21 -224 -84 -468 -153
-599 -62 -119 -196 -231 -298 -250 -25 -5 -54 -1 -90 11 -49 16 -51 18 -28 26
14 6 50 16 80 24 163 44 293 191 369 419 16 50 41 160 55 245 47 279 33 710
-35 1070 -25 136 -28 143 -46 136 -11 -5 -14 -2 -9 11 4 10 -4 5 -18 -11 -18
-20 -23 -33 -17 -45 8 -16 27 -142 52 -346 8 -58 13 -217 12 -380 0 -261 -2
-288 -26 -407 -39 -192 -94 -316 -187 -421 -44 -50 -84 -71 -162 -88 -134 -29
-352 121 -471 326 -61 103 -111 230 -102 252 5 10 7 23 6 28 -1 6 5 3 12 -6
20 -26 163 -9 223 26 59 34 111 81 119 106 8 25 21 17 30 -18 3 -15 26 -55 49
-88 24 -33 55 -84 71 -112 57 -107 181 -197 247 -179 61 16 59 46 -6 75 -46
20 -111 73 -127 102 -9 17 -7 18 15 8 78 -36 183 96 193 241 7 94 -20 186 -74
257 l-35 46 41 86 c23 47 41 99 41 114 0 38 -35 103 -66 124 -24 15 -25 20
-20 72 13 117 26 150 64 176 20 14 44 25 52 25 26 0 43 81 37 173 -6 92 -43
206 -79 244 -21 23 -28 25 -85 19 l-63 -7 -15 37 c-8 20 -31 59 -51 86 l-37
50 17 55 c10 30 15 66 12 79 -9 33 -98 138 -149 172 -23 17 -65 37 -92 45 -49
14 -51 14 -100 -14 -59 -34 -92 -36 -144 -9 -48 24 -81 64 -81 97 0 20 4 24
18 18 9 -4 80 -9 157 -10z m915 -1 c115 -18 223 -47 293 -80 29 -13 61 -24 72
-24 12 0 41 18 65 40 25 23 56 43 70 46 14 3 30 7 37 9 27 9 67 -12 74 -38 7
-25 3 -29 -57 -63 -71 -40 -141 -105 -150 -140 -6 -22 -7 -22 -64 17 -31 21
-60 39 -63 39 -3 0 -44 18 -92 41 -112 53 -201 70 -249 46 -38 -18 -98 -92
-118 -144 -14 -38 -23 -42 -31 -13 -6 25 7 84 33 145 l21 48 -43 44 -43 44 75
-1 c41 -1 118 -8 170 -16z m0 -286 c0 -18 -2 -20 -9 -8 -6 8 -7 18 -5 22 9 14
14 9 14 -14z m214 -73 c111 -30 189 -59 260 -95 l101 -51 25 30 c14 16 34 44
46 63 18 29 25 33 61 31 43 -2 135 -40 140 -59 2 -6 -32 -26 -75 -46 -80 -35
-87 -43 -185 -183 -14 -19 -15 -18 -55 15 -89 76 -245 150 -315 150 -75 -1
-173 -71 -201 -145 -10 -25 -22 -45 -26 -45 -13 0 -23 65 -17 116 6 54 46 115
100 152 22 15 40 31 40 36 -1 5 -21 21 -44 34 -50 28 -59 38 -59 70 l0 23 23
-26 c18 -21 53 -35 181 -70z m-27 -406 c11 -11 53 -30 203 -92 41 -17 128 -62
193 -99 68 -40 123 -66 130 -61 7 4 31 28 54 53 55 62 141 105 191 97 41 -7
62 -29 62 -64 0 -25 -2 -26 -67 -43 -50 -12 -126 -78 -193 -167 l-47 -62 -24
25 c-30 33 -192 129 -279 166 -115 49 -212 32 -304 -52 l-45 -41 -6 38 c-4 21
-9 45 -11 54 -2 8 8 27 23 41 38 35 143 101 168 105 37 7 39 22 6 40 -46 25
-81 53 -81 64 0 12 14 11 27 -2z m263 -473 c95 -34 170 -78 232 -138 27 -27
54 -48 59 -48 14 0 11 -12 -10 -39 -17 -23 -18 -23 -52 -6 -19 10 -54 32 -79
50 -70 51 -134 75 -280 105 -114 24 -138 33 -157 55 -46 52 -36 58 95 53 93
-4 132 -10 192 -32z m651 -107 c17 -17 20 -29 16 -61 -7 -50 -32 -77 -105
-114 -33 -16 -83 -55 -120 -92 -34 -36 -64 -63 -67 -61 -2 2 -13 29 -25 59
-12 30 -26 61 -32 68 -15 18 110 137 192 184 76 42 112 46 141 17z m-773 -44
c2 -2 -3 -24 -13 -48 -15 -40 -21 -45 -65 -56 -27 -7 -66 -21 -87 -32 -20 -10
-38 -19 -39 -19 -3 0 8 146 12 159 4 11 22 12 96 7 51 -4 94 -9 96 -11z m-38
-285 c14 -4 48 -14 75 -21 142 -35 323 -157 422 -284 38 -48 38 -48 187 64 60
45 116 81 126 81 24 0 50 -37 50 -70 0 -39 -21 -61 -114 -124 -82 -57 -226
-193 -226 -215 0 -6 -3 -11 -7 -11 -5 0 -9 20 -9 44 -2 50 -40 127 -96 190
-64 74 -275 206 -328 206 -23 0 -73 23 -108 51 -21 16 -82 93 -82 103 0 6 81
-4 110 -14z m-748 -107 c31 -28 23 -50 -21 -57 -49 -8 -63 -24 -55 -67 4 -19
3 -31 -1 -27 -4 4 -16 3 -26 -2 -14 -8 -21 -5 -33 12 -35 49 -7 112 64 142 45
19 50 19 72 -1z m778 -94 c50 -17 53 -22 45 -78 -6 -45 -9 -50 -25 -41 -23 12
-125 18 -135 8 -4 -4 -11 -60 -15 -124 -8 -114 -8 -118 16 -153 31 -46 31 -65
2 -55 -13 3 -30 12 -38 19 -8 8 -27 18 -43 24 -32 12 -31 2 -12 161 8 69 15
155 15 192 0 93 10 101 92 78 35 -10 79 -24 98 -31z m100 -388 c186 -95 320
-194 320 -236 0 -12 -11 -32 -25 -45 l-25 -23 -99 66 c-55 37 -135 84 -179
105 -70 32 -79 40 -71 55 15 27 2 71 -31 102 -17 16 -30 32 -30 37 0 10 15 3
140 -61z m651 -168 c14 -36 2 -83 -21 -83 -36 0 -172 -74 -210 -115 -25 -27
-50 -33 -50 -12 0 95 140 237 232 237 33 0 40 -4 49 -27z m-953 -74 c70 -38
111 -76 165 -152 38 -53 51 -63 143 -105 156 -73 162 -80 120 -135 -13 -17
-20 -16 -118 31 -56 27 -116 52 -131 56 -16 4 -31 16 -37 30 -27 72 -129 206
-156 206 -7 0 -34 -20 -61 -45 -26 -25 -52 -45 -56 -45 -5 0 -2 6 6 14 7 8 24
51 37 95 12 45 25 81 27 81 2 0 30 -14 61 -31z m-91 -370 c39 -14 87 -63 135
-134 23 -33 57 -77 76 -97 35 -37 39 -38 102 -38 36 1 84 5 108 9 l42 8 -32
-39 c-18 -22 -53 -51 -78 -65 -40 -23 -49 -24 -85 -14 -66 18 -100 46 -180
146 -99 124 -120 138 -202 129 -35 -3 -63 -2 -63 2 0 5 20 30 45 57 47 50 75
58 132 36z m878 -10 c9 -28 -15 -53 -73 -74 -26 -10 -66 -31 -89 -47 -70 -47
-85 -33 -30 28 37 43 142 114 168 114 10 0 21 -9 24 -21z"/>
<path d="M7922 8647 c-27 -29 -27 -38 -2 -87 46 -90 127 -86 146 7 5 25 0 37
-26 67 -39 44 -84 49 -118 13z"/>
<path d="M6931 4501 c-12 -8 -11 -18 8 -63 61 -144 131 -242 239 -334 87 -74
151 -111 219 -123 35 -7 50 -6 60 5 8 8 21 14 29 14 17 0 19 19 2 24 -57 15
-130 43 -164 62 -108 61 -228 199 -299 342 -41 82 -58 96 -94 73z"/>
<path d="M8195 8215 c-33 -32 -32 -70 1 -100 57 -53 124 -22 124 56 0 68 -75
95 -125 44z"/>
<path d="M5338 7025 c-56 -32 -65 -96 -19 -147 24 -27 36 -33 71 -33 34 0 47
6 66 28 30 35 33 104 6 137 -23 28 -87 36 -124 15z m80 -95 c-11 -32 -26 -38
-46 -18 -30 30 3 77 40 57 14 -8 15 -14 6 -39z"/>
<path d="M4058 6887 c43 -51 40 -59 -4 -16 -21 20 -32 26 -26 14 6 -11 141
-149 299 -307 221 -220 292 -285 305 -279 14 5 -48 72 -294 316 -171 171 -297
293 -280 272z"/>
<path d="M2483 6740 c-94 -17 -163 -49 -217 -102 -31 -31 -46 -52 -38 -55 6
-3 12 -10 12 -16 0 -14 19 -26 225 -134 88 -46 166 -91 173 -101 21 -26 8
-141 -22 -207 -32 -71 -67 -116 -115 -149 l-38 -27 -124 69 c-158 88 -245 132
-262 132 -8 0 -22 -9 -32 -20 -14 -16 -17 -31 -12 -77 12 -129 76 -271 175
-389 45 -54 145 -136 192 -157 121 -54 104 -52 325 -53 206 -1 211 -1 280 -29
102 -41 187 -84 402 -207 106 -60 197 -107 203 -103 16 10 27 68 17 95 -9 23
-144 111 -317 205 -30 17 -94 52 -142 78 -48 26 -121 60 -163 76 l-76 27 51
24 c76 36 134 122 192 285 l28 80 -5 -72 c-4 -56 -14 -92 -44 -158 -22 -47
-50 -99 -62 -116 -26 -37 -36 -27 124 -109 64 -33 168 -91 230 -129 181 -111
220 -130 201 -99 -5 8 -2 9 9 5 36 -14 14 14 -35 46 -188 121 -378 249 -378
256 0 10 95 41 125 41 13 0 85 -41 160 -91 130 -86 163 -99 172 -72 4 12 -142
112 -293 202 -62 36 -75 40 -98 31 -38 -14 -51 -13 -38 3 5 6 20 41 33 77 12
36 23 66 25 68 3 4 194 -115 350 -218 l133 -89 20 25 c20 26 36 63 29 69 -9 8
-360 235 -408 264 -30 18 -71 53 -90 79 -19 25 -49 61 -66 81 -17 20 -35 52
-39 71 -16 78 -69 229 -103 295 -64 122 -182 218 -332 269 -86 28 -251 41
-337 26z m285 -103 c123 -37 225 -115 273 -208 35 -70 60 -182 66 -295 9 -182
-22 -270 -139 -390 -100 -103 -171 -137 -302 -142 -120 -5 -201 14 -284 67
-78 51 -165 148 -202 226 -31 64 -49 135 -36 135 4 0 66 -35 139 -79 160 -95
171 -101 192 -101 34 0 192 137 220 190 22 43 65 230 65 286 0 47 -3 55 -32
80 -33 27 -266 146 -343 175 l-39 15 39 19 c107 51 255 60 383 22z"/>
<path d="M4960 6294 c-72 -9 -234 -46 -308 -71 -109 -36 -294 -132 -398 -207
-113 -81 -283 -256 -357 -367 -89 -134 -171 -333 -213 -514 -27 -115 -27 -481
0 -605 82 -381 299 -698 631 -922 378 -254 833 -325 1240 -191 247 80 490 241
668 441 128 144 252 356 311 532 59 178 71 510 26 722 -95 448 -386 820 -806
1031 -132 66 -259 116 -339 133 -68 14 -383 27 -455 18z m325 -165 c426 -52
815 -329 1010 -717 102 -205 150 -467 126 -683 -23 -200 -57 -315 -146 -488
-159 -309 -450 -561 -769 -666 -141 -46 -210 -56 -395 -56 -167 0 -247 12
-386 57 -380 123 -711 467 -838 870 -49 155 -60 242 -54 434 4 147 9 191 32
275 89 335 284 603 579 793 230 149 545 217 841 181z"/>
<path d="M4975 6009 c-374 -51 -711 -286 -883 -616 -95 -183 -139 -380 -129
-578 7 -146 29 -248 81 -376 139 -346 434 -596 826 -701 73 -20 108 -23 255
-22 166 0 173 1 295 38 307 91 528 252 688 500 117 180 183 450 167 679 -33
471 -340 869 -791 1026 -135 47 -367 70 -509 50z m345 -149 c163 -33 375 -133
443 -208 19 -21 37 -4 -283 -273 -147 -123 -147 -124 -163 -111 -63 52 -311
53 -406 3 -20 -11 -28 -7 -82 44 -33 30 -93 81 -132 112 -40 32 -101 82 -137
113 -36 30 -76 62 -90 71 l-24 16 75 52 c88 62 230 135 305 157 162 47 339 56
494 24z m-857 -575 c101 -119 127 -151 127 -157 0 -4 -46 23 -102 60 -129 84
-184 110 -206 95 -38 -23 -41 -21 251 -199 145 -89 135 -74 129 -182 -6 -115
14 -198 68 -280 36 -55 144 -164 175 -176 22 -8 23 -596 0 -596 -28 0 -178 60
-254 101 -199 109 -328 240 -429 436 -48 94 -93 235 -108 336 l-7 49 39 -25
c82 -52 690 -412 701 -415 17 -5 26 33 18 77 -12 72 -197 211 -600 451 -161
96 -164 98 -158 119 4 17 23 8 161 -76 211 -128 306 -189 371 -237 30 -21 52
-33 49 -25 -44 107 -73 158 -95 168 -14 6 -104 62 -202 123 -97 61 -197 124
-223 140 -27 17 -48 35 -48 42 1 26 62 164 114 256 l57 99 73 -77 c41 -42 85
-90 99 -107z m1542 69 c115 -211 161 -474 119 -680 -17 -82 -48 -164 -62 -164
-4 0 -109 56 -232 125 -124 69 -228 125 -232 125 -11 0 -90 -151 -85 -163 3
-7 107 -70 232 -142 124 -71 229 -133 231 -137 11 -17 -62 -118 -85 -118 -8 0
-42 15 -75 34 -173 95 -369 196 -383 196 -5 0 -18 -9 -29 -21 -17 -18 -19 -37
-19 -152 l0 -131 105 -62 c133 -79 152 -93 144 -105 -17 -28 -284 -135 -311
-125 -10 4 -13 67 -13 308 l1 303 50 39 c152 117 231 313 197 486 l-15 74 162
172 c89 95 177 190 196 213 40 48 36 51 104 -75z m-1394 14 c139 -111 205
-176 192 -189 -9 -9 -34 8 -110 79 -121 112 -170 162 -157 162 5 0 39 -24 75
-52z m949 -73 c0 -9 -73 -86 -92 -96 -14 -7 -18 -6 -18 5 0 9 23 34 51 56 50
39 59 45 59 35z m-288 -108 c66 -32 129 -94 160 -156 32 -64 32 -204 1 -273
-29 -63 -96 -134 -154 -164 -87 -43 -222 -47 -305 -8 -55 26 -133 102 -161
158 -31 61 -42 169 -24 243 21 88 123 183 234 219 67 22 183 13 249 -19z
m-182 -1098 l0 -270 -22 3 -23 3 -3 268 -2 267 25 0 25 0 0 -271z m70 1 c0
-233 -2 -270 -15 -270 -13 0 -15 37 -15 270 0 233 2 270 15 270 13 0 15 -37
15 -270z"/>
<path d="M5033 5104 c-95 -34 -164 -147 -149 -245 14 -96 96 -179 189 -193 47
-7 122 6 166 28 34 18 84 72 105 113 39 78 3 205 -74 258 -78 54 -156 67 -237
39z m145 -137 c64 -31 69 -155 8 -185 -47 -24 -118 -18 -155 14 -27 22 -31 32
-31 76 0 43 4 54 30 78 43 40 90 45 148 17z"/>
<path d="M4089 4184 c154 -285 468 -503 836 -580 107 -22 296 -22 400 0 186
40 378 124 511 224 63 48 234 224 234 241 0 27 -23 13 -91 -55 -189 -192 -417
-306 -705 -355 -116 -19 -339 -7 -449 25 -285 84 -598 315 -728 538 -12 21
-28 38 -35 38 -9 0 0 -26 27 -76z"/>
<path d="M6565 6285 c-138 -29 -278 -119 -376 -243 -33 -40 -59 -77 -59 -82 0
-11 70 -60 86 -60 7 0 32 23 56 52 97 116 170 167 290 202 151 43 342 0 461
-104 58 -52 131 -161 158 -237 64 -181 19 -391 -111 -527 -102 -107 -229 -154
-378 -142 l-73 6 7 -38 c3 -20 10 -55 16 -76 l10 -39 71 6 c177 16 305 73 423
191 65 65 89 98 122 166 55 116 66 171 59 299 -13 285 -189 520 -457 613 -74
25 -215 32 -305 13z"/>
<path d="M6569 6025 c-102 -33 -206 -132 -227 -217 -11 -42 5 -93 52 -165 26
-40 36 -42 36 -5 0 42 25 119 53 161 35 53 112 92 184 93 73 1 126 -21 182
-75 56 -54 81 -108 81 -177 0 -71 -26 -126 -79 -172 -77 -66 -176 -74 -284
-25 -35 16 -57 21 -57 14 0 -6 12 -42 26 -79 24 -59 31 -69 66 -82 85 -34 222
-12 315 51 153 103 200 303 113 479 -39 80 -119 155 -198 184 -74 29 -200 36
-263 15z"/>
<path d="M3439 4728 c-369 -261 -527 -373 -560 -400 -30 -22 -47 -28 -87 -28
-39 0 -68 -9 -126 -39 -109 -56 -278 -194 -322 -263 -27 -43 -43 -46 -118 -23
-86 26 -145 20 -228 -23 -75 -39 -208 -133 -242 -170 -26 -29 -33 -104 -12
-121 24 -20 20 -41 -9 -41 -40 0 -51 -34 -25 -78 21 -34 21 -37 5 -47 -39 -23
-65 -47 -65 -60 0 -8 18 -28 40 -46 l40 -32 -25 -23 c-14 -13 -25 -34 -25 -49
0 -29 32 -65 58 -65 11 0 24 -11 30 -25 9 -20 8 -30 -6 -55 -23 -40 -10 -59
54 -80 l49 -17 3 -51 c2 -39 8 -55 25 -67 27 -19 32 -19 51 0 15 15 46 11 46
-7 0 -5 19 -35 41 -68 42 -59 81 -82 102 -61 8 8 7 11 -1 11 -15 0 -16 46 -1
55 12 8 51 -24 44 -35 -9 -14 44 -67 71 -73 32 -6 68 26 61 54 -7 25 8 24 76
-2 l54 -21 39 21 c80 43 225 137 270 175 45 38 62 66 68 115 2 14 13 42 24 61
31 49 29 110 -3 148 l-25 30 22 5 c12 4 28 1 35 -5 7 -6 13 -7 13 -2 0 4 5 3
12 -4 44 -44 155 18 498 282 58 44 152 116 210 160 149 114 222 174 246 203
l22 25 -42 42 c-22 23 -46 50 -51 60 -9 16 -23 9 -135 -71 -252 -180 -304
-213 -313 -197 -4 8 -6 18 -3 23 3 5 59 46 123 92 65 45 159 113 209 150 l91
67 -33 67 c-19 37 -34 76 -34 87 0 23 -9 17 -255 -172 -93 -71 -172 -130 -175
-130 -3 1 -17 19 -31 42 l-27 42 187 131 c102 72 205 144 229 161 37 26 42 32
37 59 -11 63 -15 62 -219 -89 -61 -45 -136 -98 -167 -118 -30 -19 -71 -49 -90
-66 -31 -27 -36 -29 -54 -16 -17 13 -18 16 -5 24 39 23 214 145 335 232 74 53
143 102 154 107 17 10 18 15 9 41 -10 30 -22 38 -33 21 -8 -14 -431 -311 -495
-348 l-35 -20 -42 27 -43 27 93 67 c50 36 121 87 157 113 36 26 139 102 230
169 l166 123 -4 41 c-2 22 -8 42 -12 45 -4 3 -73 -41 -151 -97z m-516 -555
c66 -36 192 -161 236 -236 71 -121 97 -237 67 -295 -21 -40 -114 -122 -138
-122 -20 0 -5 31 20 44 51 26 102 92 102 131 0 19 -4 35 -9 35 -6 0 -39 -22
-75 -50 l-66 -49 -6 27 c-34 139 -226 353 -402 447 -50 27 -53 23 63 78 74 34
131 31 208 -10z m-289 -169 c101 -36 249 -161 295 -252 50 -99 66 -225 32
-256 -18 -16 -19 -15 -25 35 -17 127 -89 249 -197 334 -82 64 -132 89 -199
100 -75 11 -83 15 -69 31 27 33 82 36 163 8z m-451 -104 c7 0 -22 -22 -63 -48
-41 -27 -94 -70 -117 -97 -36 -42 -51 -52 -105 -66 -102 -28 -102 6 2 85 113
86 224 143 258 131 8 -3 19 -5 25 -5z m203 -35 c2 -5 -46 -44 -107 -85 -60
-41 -128 -92 -150 -112 -23 -21 -43 -38 -45 -38 -2 0 -4 16 -4 37 0 30 7 43
43 75 23 22 76 62 117 89 59 39 82 49 109 47 19 -2 36 -7 37 -13z m169 -75
l20 -22 -35 -29 c-19 -16 -66 -51 -105 -77 -38 -26 -93 -66 -122 -89 l-52 -43
-16 22 c-8 13 -15 35 -15 50 0 31 11 40 170 152 110 76 117 78 155 36z m123
-145 c12 -25 22 -50 22 -55 0 -5 -66 -53 -147 -107 -82 -54 -149 -101 -151
-105 -8 -17 -20 -6 -42 39 -16 33 -20 51 -13 62 9 15 291 211 303 211 3 0 16
-20 28 -45z m96 -172 c3 -10 8 -35 11 -55 6 -32 5 -36 -12 -33 -10 3 -83 -31
-168 -79 -146 -81 -150 -83 -162 -62 -21 36 -15 52 26 71 22 9 93 53 158 96
65 43 123 79 130 79 6 0 14 -8 17 -17z m-701 -50 c98 -35 195 -163 184 -241
-8 -57 -10 -64 -36 -93 -49 -58 -144 -78 -214 -44 -49 23 -123 105 -148 162
-11 26 -21 69 -21 95 -1 40 3 53 28 79 56 60 121 73 207 42z m685 -176 c22
-27 -2 -53 -112 -124 -134 -87 -139 -89 -160 -68 -34 35 -21 50 117 129 72 42
135 76 138 76 4 0 11 -6 17 -13z m-288 -342 c7 -8 19 -15 26 -15 17 0 17 -5 4
-31 -13 -24 -31 -24 -60 -1 -19 16 -21 22 -11 40 14 26 24 28 41 7z"/>
<path d="M1935 3363 c-42 -22 -47 -32 -41 -81 11 -87 78 -170 158 -194 73 -22
138 21 138 91 0 72 -26 115 -104 172 -45 34 -103 38 -151 12z"/>
<path d="M7670 3329 c-21 -17 -23 -21 -10 -30 47 -31 391 -219 400 -219 18 0
70 40 70 53 0 7 -21 25 -47 42 -27 16 -73 44 -103 63 -182 112 -257 134 -310
91z"/>
<path d="M8257 3109 c-65 -26 -111 -58 -180 -127 -145 -142 -260 -419 -244
-589 11 -118 50 -157 156 -157 54 -1 77 4 125 29 72 36 191 146 250 229 83
117 148 274 160 388 6 53 -16 151 -42 188 -43 59 -136 76 -225 39z m137 -99
c9 -7 23 -36 33 -66 24 -78 9 -148 -67 -302 -45 -92 -75 -139 -118 -184 -180
-191 -322 -183 -322 18 0 81 30 196 73 279 37 72 181 219 247 253 49 25 126
26 154 2z"/>
<path d="M8253 2951 c-82 -51 -200 -198 -247 -308 -30 -72 -44 -189 -27 -221
27 -51 111 -12 224 106 51 54 78 93 112 165 52 109 63 167 45 232 -11 41 -15
45 -44 45 -17 0 -45 -9 -63 -19z"/>
</g>
</svg>
