<?xml version="1.0" standalone="no"?>
<!DOCTYPE svg PUBLIC "-//W3C//DTD SVG 20010904//EN"
 "http://www.w3.org/TR/2001/REC-SVG-20010904/DTD/svg10.dtd">
<svg version="1.0" xmlns="http://www.w3.org/2000/svg"
 width="1024.000000pt" height="1024.000000pt" viewBox="0 0 1024.000000 1024.000000"
 preserveAspectRatio="xMidYMid meet">

<g transform="translate(0.000000,1024.000000) scale(0.100000,-0.100000)"
fill="#000000" stroke="none">
<path d="M5090 8390 c-18 -18 -20 -33 -20 -142 l0 -123 31 -17 c64 -37 69 -28
69 136 0 94 -4 127 -16 144 -19 27 -38 28 -64 2z"/>
<path d="M5499 8258 c-53 -74 -99 -155 -99 -175 0 -11 10 -29 23 -41 22 -21
24 -21 39 -5 31 35 128 197 128 214 0 17 -35 49 -52 49 -4 0 -22 -19 -39 -42z"/>
<path d="M4663 8283 c-18 -7 -16 -38 3 -76 20 -38 115 -177 121 -177 2 0 12 4
22 10 43 23 35 50 -51 178 -46 69 -62 79 -95 65z"/>
<path d="M4971 8044 c-169 -45 -320 -189 -371 -353 -27 -85 -26 -193 0 -265
27 -70 38 -79 79 -65 35 12 36 16 20 122 -9 62 -8 85 5 138 32 126 114 225
232 281 167 79 339 51 473 -77 104 -99 147 -233 123 -380 -12 -67 1 -92 48
-97 21 -3 29 5 50 47 22 45 25 62 25 165 0 113 -1 116 -39 195 -71 145 -199
247 -364 290 -71 19 -210 18 -281 -1z"/>
<path d="M4335 8014 c-31 -32 -14 -55 89 -121 55 -35 108 -63 118 -63 21 0 53
44 43 60 -12 20 -209 140 -229 140 -2 0 -12 -7 -21 -16z"/>
<path d="M5779 7980 c-84 -51 -129 -86 -129 -102 0 -10 37 -48 48 -48 23 0
211 122 217 141 7 22 -18 59 -40 59 -6 0 -50 -23 -96 -50z"/>
<path d="M6462 7786 c-51 -17 -128 -77 -154 -123 -11 -18 -27 -33 -36 -33 -68
0 -161 -66 -206 -143 -34 -59 -53 -155 -34 -174 12 -11 103 -14 564 -13 628 0
580 -8 570 89 -19 163 -139 272 -287 258 -33 -3 -59 -2 -59 3 0 18 -86 103
-124 122 -52 27 -172 34 -234 14z m198 -89 c53 -27 107 -101 116 -158 4 -22
11 -39 16 -39 5 0 24 16 42 35 29 30 40 35 78 35 30 0 56 -7 79 -23 38 -26 84
-96 94 -144 l7 -33 -491 0 c-386 0 -491 3 -491 13 1 28 57 113 90 135 29 20
43 23 86 18 50 -6 51 -6 68 30 29 63 66 102 119 129 65 32 126 32 187 2z"/>
<path d="M3550 7733 c-29 -10 -66 -38 -106 -78 -55 -56 -62 -61 -88 -52 -117
39 -276 -99 -276 -240 0 -29 5 -50 15 -57 11 -8 171 -10 555 -8 l540 2 0 38
c-1 108 -117 232 -218 232 -31 0 -41 5 -50 24 -18 39 -72 95 -120 123 -58 34
-181 42 -252 16z m168 -79 c57 -19 109 -66 145 -134 14 -25 28 -44 33 -43 5 1
24 8 42 15 28 11 37 10 68 -7 39 -21 69 -58 79 -96 l6 -24 -463 3 c-254 1
-464 4 -466 6 -9 9 38 93 67 121 27 25 40 30 84 30 29 0 68 -4 87 -8 33 -8 36
-6 58 32 26 46 76 88 129 107 50 17 71 17 131 -2z"/>
<path d="M4242 7564 c-26 -18 -27 -27 -6 -48 12 -13 38 -16 119 -16 81 0 107
3 119 16 43 43 3 64 -122 64 -63 0 -94 -4 -110 -16z"/>
<path d="M5749 7561 c-23 -19 -23 -20 -6 -38 14 -15 37 -19 123 -21 110 -4
134 3 134 39 0 29 -32 39 -133 39 -79 0 -99 -3 -118 -19z"/>
<path d="M5045 7517 c-51 -29 -300 -204 -383 -269 l-64 -50 -56 10 c-33 6 -66
6 -79 1 -13 -5 -66 -41 -119 -80 l-95 -71 -59 26 c-47 21 -64 25 -79 16 -28
-14 -422 -280 -443 -297 -31 -27 -32 -78 -2 -124 24 -39 26 -49 22 -116 l-5
-73 227 0 226 0 25 28 c14 15 42 50 62 78 21 29 45 55 55 59 70 27 469 263
557 330 128 97 308 295 269 295 -4 0 -48 -31 -98 -69 -152 -115 -246 -169
-246 -143 0 21 339 322 363 322 22 0 458 -340 739 -577 90 -76 126 -96 147
-84 20 13 -68 119 -200 243 -65 61 -119 115 -119 119 0 4 34 19 75 34 72 27
77 27 114 13 48 -19 431 -247 564 -336 l97 -65 -55 -55 c-31 -31 -64 -68 -73
-84 -11 -19 -35 -35 -72 -49 -30 -11 -70 -32 -88 -45 -42 -33 -102 -122 -102
-153 0 -25 60 -174 88 -221 9 -14 29 -40 46 -57 29 -32 33 -33 107 -33 l77 0
52 -50 52 -51 0 -101 0 -102 -148 -3 c-82 -2 -155 -5 -161 -8 -8 -3 -13 -24
-13 -55 l0 -50 200 0 c127 0 200 -4 200 -10 0 -5 -16 -10 -35 -10 -29 0 -360
-59 -433 -77 l-23 -5 3 153 3 154 50 5 c60 6 75 15 75 41 0 22 -34 92 -89 182
-20 34 -61 109 -90 167 -29 58 -85 160 -124 228 l-72 123 -390 197 c-214 108
-397 198 -406 200 -9 2 -189 -77 -400 -176 -282 -131 -393 -188 -419 -213 -19
-19 -62 -84 -96 -144 -34 -61 -109 -197 -169 -302 l-107 -193 -39 0 c-21 0
-39 4 -39 8 0 9 80 160 165 312 65 115 68 131 35 141 -14 4 -121 7 -237 8
l-213 1 0 88 c0 48 -3 97 -6 109 -8 29 -44 39 -199 54 -203 20 -479 -4 -617
-54 l-63 -22 3 -40 c6 -66 13 -1035 8 -1035 -13 0 -399 -82 -446 -95 -30 -8
-56 -12 -58 -10 -3 3 5 28 17 57 32 78 39 138 16 154 -9 7 -36 30 -59 52 -22
21 -57 53 -77 70 l-36 32 -52 -16 c-29 -8 -67 -14 -84 -12 -29 3 -36 10 -69
78 -21 41 -40 91 -43 111 l-7 36 70 36 c38 20 73 45 76 54 4 9 10 67 13 128
l6 110 -59 45 c-77 57 -85 68 -77 99 7 28 41 103 64 139 20 32 55 28 137 -14
l71 -36 25 19 c14 11 50 43 81 71 l55 51 0 98 c0 54 4 103 8 110 12 19 114 62
164 69 56 8 70 -5 122 -111 20 -41 40 -75 45 -75 5 0 19 8 32 19 44 36 22 131
-55 239 -44 61 -55 63 -173 31 -84 -23 -232 -89 -252 -112 -9 -11 -9 -36 0
-109 10 -83 10 -98 -5 -126 -9 -18 -23 -35 -31 -38 -7 -3 -54 8 -105 25 -109
37 -134 38 -164 8 -30 -30 -109 -178 -131 -244 -29 -91 -21 -110 65 -169 83
-56 93 -76 69 -147 -11 -34 -21 -42 -86 -72 l-73 -34 0 -49 c0 -89 65 -278
116 -339 l19 -22 94 20 95 19 49 -47 c56 -55 55 -48 5 -195 -36 -105 -27 -97
-141 -142 -37 -15 -46 -36 -28 -64 6 -11 41 -3 167 37 266 84 575 148 879 182
163 18 230 20 475 16 255 -4 300 -7 425 -31 185 -35 432 -99 574 -148 176 -61
398 -166 456 -216 25 -22 26 -25 10 -42 -9 -10 -30 -24 -46 -30 -46 -20 -34
-30 35 -30 56 0 75 6 177 56 495 244 829 367 1189 438 335 67 403 77 590 83
221 6 265 -2 265 -52 0 -29 -2 -30 -35 -25 -19 3 -87 4 -150 4 -190 -2 -313
-54 -428 -179 -67 -73 -106 -148 -157 -300 -54 -158 -132 -317 -205 -415 -83
-111 -252 -284 -420 -429 l-134 -116 -336 -3 -335 -4 -170 133 c-244 190 -711
493 -900 584 -79 38 -188 75 -219 75 -12 0 -32 7 -44 16 -21 15 -108 125 -167
213 -82 122 -176 198 -320 260 -194 83 -324 88 -379 14 -25 -34 -20 -43 121
-214 133 -160 195 -247 190 -263 -10 -30 -43 -15 -100 46 -34 34 -58 55 -54
46 15 -41 -23 -12 -133 100 -110 113 -168 156 -196 145 -8 -3 -24 -21 -36 -41
-72 -117 33 -426 218 -637 86 -99 167 -146 275 -160 47 -6 47 -7 112 -105 41
-63 59 -100 51 -100 -38 0 -217 22 -289 36 -109 20 -122 27 -130 66 -27 124
-99 270 -150 304 -20 13 -34 11 -131 -11 -147 -35 -261 -68 -358 -106 -127
-48 -296 -131 -296 -145 0 -6 68 -79 150 -161 82 -83 150 -155 150 -161 0 -5
-15 -46 -34 -89 -18 -43 -50 -126 -71 -185 -31 -88 -35 -111 -25 -123 7 -8 22
-13 34 -10 145 32 363 75 406 80 30 3 62 8 71 11 12 3 19 -15 35 -97 10 -56
24 -108 29 -116 6 -8 41 -21 78 -29 130 -27 530 -84 730 -104 111 -11 216 -23
232 -26 17 -4 66 -33 110 -66 106 -80 282 -197 545 -361 118 -74 215 -138 217
-143 1 -5 -59 -47 -134 -94 -75 -47 -145 -98 -157 -113 -15 -20 -20 -42 -20
-82 1 -70 35 -128 129 -221 77 -76 125 -100 178 -90 30 6 243 130 409 237 l77
50 103 -63 c57 -34 139 -86 183 -115 112 -74 155 -89 207 -74 128 39 244 257
193 365 -28 58 -87 98 -570 387 -448 269 -505 304 -505 312 0 4 11 5 24 1 13
-3 216 -6 450 -7 234 -1 426 -4 426 -7 -1 -7 -212 -133 -284 -169 -33 -16 -61
-37 -62 -45 -1 -9 14 -25 34 -37 61 -36 275 -171 302 -190 14 -9 35 -20 48
-24 20 -6 21 -4 12 20 -5 14 -10 40 -10 57 0 20 -19 59 -56 115 -31 47 -52 88
-48 92 71 57 305 191 333 191 15 0 21 -4 15 -9 -12 -12 -225 -141 -233 -141
-3 0 -14 -7 -24 -14 -18 -14 -17 -17 13 -82 28 -60 30 -73 24 -127 l-7 -60
114 -110 c265 -254 420 -352 515 -326 49 14 84 50 84 88 0 35 0 36 -105 102
-107 68 -110 73 -78 114 l27 33 42 -29 c47 -32 182 -99 199 -99 14 0 58 47 74
77 18 35 13 85 -15 138 -24 46 -123 194 -181 271 l-23 31 57 41 c32 22 94 70
137 106 43 36 86 66 95 66 65 0 590 57 786 85 307 45 412 64 424 78 5 7 19 57
31 112 11 54 22 100 23 102 8 7 431 -71 494 -92 6 -2 19 2 29 9 16 12 13 23
-39 162 -30 82 -65 170 -76 197 -11 26 -18 53 -15 60 4 6 38 41 78 76 143 130
236 221 236 231 0 18 -198 107 -344 155 -124 42 -266 78 -436 110 -145 29
-150 24 -185 -144 -15 -68 -35 -147 -46 -176 -19 -51 -21 -53 -67 -59 -203
-27 -613 -65 -872 -80 l-95 -6 90 55 c123 76 279 151 341 164 28 6 134 15 235
21 276 17 287 22 269 117 -10 55 -9 59 12 73 83 55 178 167 207 245 59 156 39
275 -45 275 -17 0 -239 -83 -341 -127 -16 -6 -95 161 -91 190 2 14 26 28 93
52 137 50 198 75 219 90 18 13 17 16 -14 79 -25 53 -41 72 -82 98 l-51 33 54
3 c73 4 93 -2 138 -48 28 -28 48 -40 68 -40 47 0 474 -77 608 -110 146 -36
175 -37 175 -12 0 11 -9 27 -20 37 -18 17 -20 29 -18 109 l3 91 45 21 c25 12
58 36 74 52 32 35 32 34 -3 197 -41 185 -73 245 -140 258 -56 12 -91 -13 -150
-107 -28 -46 -29 -50 -15 -77 8 -16 27 -42 43 -58 20 -20 31 -47 40 -91 7 -34
10 -64 7 -67 -12 -12 -75 51 -91 92 -16 44 -55 85 -81 85 -44 0 -154 -158
-154 -221 0 -40 15 -59 45 -59 12 0 26 -5 33 -12 13 -13 17 -78 5 -78 -22 0
-333 65 -333 70 0 3 23 21 51 40 67 46 127 113 167 188 42 79 42 106 0 119
l-33 9 31 16 c17 9 47 35 68 58 41 45 94 145 83 157 -4 3 -26 10 -50 14 -33 5
-38 8 -22 14 27 9 129 134 161 197 30 59 29 102 -2 106 l-22 3 23 42 c35 62
85 194 85 222 0 32 -29 39 -123 31 -70 -6 -71 -6 -51 11 26 22 48 63 63 121
13 45 16 227 5 255 -10 26 -36 20 -100 -21 -116 -76 -197 -187 -226 -309 -14
-58 -21 -64 -39 -32 -17 32 -4 106 38 217 34 91 35 96 17 109 -25 18 -30 17
-53 -16 -30 -41 -57 -109 -71 -174 l-11 -57 -33 35 c-50 53 -69 47 -106 -30
-30 -62 -59 -173 -60 -223 l0 -24 -31 26 c-17 14 -36 26 -43 26 -31 0 -80
-176 -74 -263 l4 -59 -25 7 c-60 15 -63 13 -84 -45 -10 -31 -21 -96 -24 -148
l-6 -94 -26 6 c-84 19 -86 19 -99 -8 -21 -46 -14 -177 14 -269 5 -17 -1 -18
-93 -12 -54 3 -113 8 -130 11 l-33 5 0 107 0 108 28 12 c15 6 54 34 86 62 48
39 70 51 108 56 26 4 52 12 58 18 5 7 11 56 14 109 5 122 -3 131 -68 81 -29
-22 -63 -38 -87 -41 -38 -5 -39 -5 -39 24 0 61 -51 67 -112 14 -80 -70 -157
-81 -208 -31 -41 41 -57 39 -52 -5 4 -34 3 -35 -31 -35 -64 0 -127 76 -127
152 0 22 11 42 40 71 40 39 42 40 96 34 l55 -6 -6 32 c-5 27 0 39 30 75 52 60
85 76 121 57 37 -19 66 -4 64 33 -3 47 -1 53 35 68 80 33 156 6 189 -66 17
-39 25 -46 40 -41 40 15 80 -1 133 -55 37 -37 53 -61 53 -79 0 -44 24 -23 36
32 9 42 9 57 -4 83 -20 42 -88 98 -128 106 -22 4 -39 17 -55 42 -28 43 -100
82 -163 89 -26 3 -74 -2 -115 -12 l-71 -17 -92 57 c-223 139 -520 316 -596
356 l-82 43 -48 -17 c-26 -9 -80 -28 -121 -42 l-74 -26 -42 28 c-24 15 -121
87 -216 159 -164 124 -240 174 -264 174 -5 0 -28 -11 -50 -23z m-486 -433 c2
-2 -3 -10 -11 -17 -9 -6 -76 -59 -148 -117 -182 -146 -170 -140 -211 -102 -19
18 -39 32 -46 32 -6 0 -58 -36 -115 -79 -57 -44 -124 -96 -150 -116 -27 -20
-48 -32 -48 -26 0 14 117 145 224 251 l86 84 55 -27 c31 -15 61 -27 68 -27 7
0 57 36 112 80 95 76 102 80 140 75 21 -3 41 -8 44 -11z m3374 -184 c-4 -86
-51 -178 -105 -206 -58 -30 -72 4 -43 103 10 34 30 66 65 102 63 65 86 65 83
1z m-2104 -416 c61 -78 265 -470 278 -535 6 -31 -6 -48 -33 -49 -7 0 -69 109
-139 243 -91 174 -137 252 -165 277 -25 24 -143 86 -345 184 l-308 148 -60
-22 c-190 -69 -590 -264 -635 -310 -16 -16 -80 -130 -143 -254 l-114 -226 -33
0 c-30 0 -33 2 -27 23 20 73 254 505 293 540 20 18 335 177 568 287 l142 66
349 -172 c248 -122 356 -180 372 -200z m1701 200 c19 -30 45 -72 58 -92 19
-31 22 -46 17 -87 -6 -49 -25 -119 -37 -130 -8 -8 -39 38 -77 112 -23 46 -31
76 -31 113 0 54 18 140 29 140 3 0 22 -25 41 -56z m-2302 -96 c135 -59 398
-192 458 -230 31 -20 43 -35 48 -60 3 -18 8 -186 11 -373 3 -187 7 -377 8
-422 l3 -82 -29 -11 c-71 -24 -67 -40 -67 260 l0 270 -555 0 -555 0 0 -275 c0
-151 -4 -275 -9 -275 -5 0 -23 3 -40 6 l-31 7 0 444 c0 362 3 450 14 478 13
31 33 43 218 134 228 112 376 179 397 180 7 1 65 -22 129 -51z m2762 8 c0 -20
-69 -132 -95 -155 -30 -26 -190 -89 -201 -79 -7 8 35 121 54 141 27 31 100 69
156 83 54 13 86 17 86 10z m-4549 -38 l39 -11 0 -59 0 -58 -42 7 c-83 15 -249
7 -315 -15 l-63 -20 0 78 c0 74 1 79 23 83 51 10 322 6 358 -5z m-521 -229 c0
-147 -3 -180 -13 -176 -8 3 -20 2 -27 -3 -10 -6 -6 -15 15 -35 l27 -28 2 -268
c0 -147 -1 -269 -4 -272 -3 -2 -17 -7 -32 -11 l-28 -6 0 428 c0 236 -3 457 -6
491 l-7 61 37 0 36 0 0 -181z m4479 109 c58 -79 71 -110 71 -175 0 -61 -16
-133 -29 -133 -11 0 -65 59 -94 103 -14 20 -28 55 -32 77 -9 52 14 180 31 180
7 0 31 -24 53 -52z m-3936 -53 c20 -8 23 -76 6 -137 l-10 -38 -72 0 c-67 0
-243 -21 -302 -36 l-25 -6 0 105 0 106 38 6 c20 4 42 9 47 11 16 6 298 -4 318
-11z m350 -264 c-54 -99 -104 -180 -110 -181 -7 0 -13 4 -13 10 0 17 172 322
199 353 40 47 14 -17 -76 -182z m4104 177 c20 -2 -64 -102 -114 -135 -26 -18
-69 -37 -95 -44 -51 -12 -118 -5 -118 13 0 22 50 97 78 117 49 35 142 62 192
56 25 -3 50 -6 57 -7z m-4194 -45 c-4 -10 -45 -83 -92 -162 -78 -131 -103
-162 -117 -149 -5 5 159 283 183 311 9 9 20 17 24 17 5 0 5 -8 2 -17z m3549
-110 c30 -38 65 -83 77 -101 l23 -33 -19 -74 -19 -75 -39 21 c-101 52 -134
141 -104 279 6 27 14 50 19 50 4 0 32 -30 62 -67z m-2855 -730 c-2 -1 -28 5
-58 15 -30 11 -72 22 -94 26 -64 12 -65 15 -65 150 0 119 0 122 42 226 l43
105 5 -235 c5 -216 6 -235 23 -238 17 -4 18 10 17 260 -2 285 1 300 63 412
l22 38 3 -377 c1 -208 1 -380 -1 -382z m1444 649 l31 -76 -5 -265 c-5 -290 -3
-278 -64 -280 l-23 -1 0 368 c1 408 -1 402 61 254z m-2452 82 c10 -9 -134
-189 -159 -198 -8 -3 -53 -6 -100 -8 l-85 -3 -3 97 -3 96 83 11 c46 6 103 12
128 14 44 4 131 -2 139 -9z m3212 -61 l-4 -38 -14 34 c-11 27 -12 36 -2 42 20
12 25 3 20 -38z m162 41 c11 -4 4 -15 -28 -45 -23 -21 -45 -39 -48 -39 -3 0 4
20 16 45 22 44 31 50 60 39z m998 -113 c-24 -46 -98 -112 -161 -143 -32 -16
-61 -22 -99 -21 -29 1 -55 4 -58 6 -8 9 45 102 74 129 15 14 53 34 83 43 30 9
60 18 65 20 6 2 34 4 63 4 l52 1 -19 -39z m-1807 -186 c36 -98 37 -103 34
-219 l-3 -120 -34 -8 c-18 -5 -35 -8 -37 -6 -1 2 -4 108 -6 235 -2 128 0 229
3 225 3 -4 23 -52 43 -107z m-2788 59 c22 -33 64 -54 109 -54 19 0 35 -3 36
-7 0 -5 1 -28 2 -53 l2 -45 -125 -12 c-69 -6 -131 -12 -138 -12 -10 -1 -12 22
-10 96 l3 98 30 6 c58 13 74 10 91 -17z m3953 -34 c33 -28 72 -70 86 -94 25
-42 25 -46 13 -113 -10 -63 -14 -70 -32 -65 -44 11 -105 73 -124 125 -33 88
-39 197 -11 197 4 0 35 -23 68 -50z m-3323 -20 l254 0 0 -166 c0 -107 -4 -163
-10 -159 -15 9 -350 53 -467 61 l-103 7 0 128 c0 124 1 128 23 132 12 2 28 3
35 1 8 -2 128 -4 268 -4z m1234 -201 c0 -104 -4 -188 -9 -185 -4 3 -55 70
-112 148 -57 79 -118 162 -137 186 l-34 42 146 0 146 0 0 -191z m399 172 c-20
-28 -260 -344 -270 -355 -5 -6 -9 76 -9 182 l0 192 146 0 c143 0 146 0 133
-19z m2241 -67 c0 -11 -42 -68 -79 -107 -58 -62 -104 -82 -189 -81 -40 1 -78
6 -84 12 -8 8 -2 26 22 65 50 83 120 115 253 116 42 1 77 -2 77 -5z m-2830
-244 l109 -150 -139 0 -140 0 0 187 0 188 31 -38 c17 -20 79 -105 139 -187z
m664 -139 c-9 -9 -264 -14 -264 -4 0 4 46 67 101 138 55 72 114 151 132 176
l32 47 3 -175 c1 -97 0 -179 -4 -182z m-2194 279 l0 -50 -74 0 c-40 0 -101 -3
-135 -6 l-62 -7 3 44 c3 43 4 44 48 56 25 6 84 12 133 12 l87 1 0 -50z m4808
-141 c19 -8 22 -15 22 -68 0 -33 3 -66 6 -75 4 -10 1 -16 -8 -16 -14 0 -149
40 -157 46 -2 2 5 28 15 59 23 75 43 83 122 54z m-968 -162 c52 -22 99 -43
103 -47 9 -8 -11 -16 -203 -83 -137 -48 -145 -55 -119 -120 38 -98 174 -416
213 -500 25 -54 46 -104 46 -111 0 -9 -25 -15 -82 -20 -46 -4 -105 -9 -133
-12 l-50 -6 -23 47 c-12 25 -20 50 -17 54 2 5 29 21 60 35 30 15 55 31 55 35
0 6 -64 158 -129 305 -25 56 -18 55 -150 8 l-85 -31 -38 37 c-47 46 -61 87
-62 179 -1 65 2 74 30 110 71 88 176 145 296 160 114 15 184 5 288 -40z
m-4164 -102 c160 -54 261 -125 324 -226 16 -27 29 -49 27 -49 -1 -1 -27 -2
-58 -4 -31 -1 -82 -13 -113 -26 -31 -12 -58 -21 -59 -19 -2 2 -24 33 -49 69
-25 36 -80 106 -123 155 -103 120 -105 125 -60 125 20 0 70 -11 111 -25z
m2194 -27 c-14 -6 -51 -22 -82 -36 l-58 -25 -52 22 c-120 49 -118 50 57 50
125 0 154 -3 135 -11z m-2495 -245 c67 -71 154 -155 193 -187 l71 -59 0 -56
c-1 -55 18 -127 48 -184 8 -16 13 -31 10 -33 -2 -2 -25 3 -51 12 -126 43 -295
274 -370 506 -38 119 -40 128 -29 128 3 0 61 -57 128 -127z m3805 72 c0 -9 14
-52 31 -96 29 -76 30 -81 14 -99 -16 -18 -13 -27 70 -196 l87 -176 30 6 c16 3
45 13 64 22 19 9 36 15 37 13 10 -14 39 -90 36 -93 -2 -1 -38 -11 -79 -21
-103 -24 -230 -77 -320 -132 -82 -51 -203 -135 -236 -165 -16 -15 -34 -18 -72
-16 l-51 3 117 91 c111 86 117 92 115 124 -2 41 -54 96 -78 83 -7 -5 -58 -49
-112 -99 -215 -200 -233 -214 -283 -214 l-45 0 122 118 c183 174 329 357 402
500 23 46 101 250 122 320 12 41 29 57 29 27z m964 -152 c-14 -63 -64 -152
-119 -211 -32 -35 -62 -61 -68 -59 -12 4 -96 199 -90 210 2 4 12 7 21 7 9 0
67 18 127 40 135 47 137 48 129 13z m-659 -22 c7 -12 -7 -21 -59 -41 -22 -8
-41 -21 -44 -27 -7 -24 29 -26 69 -5 24 13 41 17 45 11 8 -13 10 -11 -56 -45
-73 -38 -70 -37 -70 -24 0 7 -7 27 -16 46 -9 19 -15 36 -13 38 2 2 27 15 54
29 53 28 80 33 90 18z m-3422 -15 c109 -39 173 -148 147 -248 -16 -58 -89
-131 -150 -149 -25 -8 -81 -14 -126 -14 -72 0 -85 3 -122 28 -54 38 -84 101
-83 179 0 69 29 138 69 167 67 47 188 64 265 37z m3485 -161 c12 -25 22 -50
22 -55 0 -13 -74 -50 -99 -50 -15 0 -28 15 -47 51 -14 28 -23 53 -21 56 7 6
100 42 113 43 5 0 20 -20 32 -45z m-3134 -13 c80 -38 276 -148 328 -184 l26
-18 -20 -23 -21 -24 -136 80 c-74 44 -141 81 -147 84 -11 4 -54 -33 -54 -47 0
-4 24 -20 53 -35 44 -24 140 -82 234 -141 20 -12 21 -17 11 -39 -6 -14 -18
-25 -25 -25 -16 0 -150 77 -266 153 l-77 51 6 46 c4 30 0 65 -10 100 -9 29
-16 55 -16 57 0 11 43 -2 114 -35z m4039 -256 c165 -40 345 -96 428 -135 l57
-27 -134 -123 c-88 -81 -134 -130 -134 -144 0 -11 27 -85 60 -164 33 -80 60
-147 60 -150 0 -3 -10 -2 -22 1 -54 15 -228 47 -285 53 -49 5 -63 10 -63 22 0
9 14 95 31 191 17 96 33 192 36 213 6 37 4 40 -113 157 -65 66 -120 124 -122
130 -6 18 54 11 201 -24z m-5193 -8 c0 -14 -34 -56 -90 -114 -49 -50 -90 -97
-90 -104 0 -15 55 -311 70 -377 17 -71 14 -83 -20 -83 -17 0 -94 -13 -172 -30
-77 -16 -147 -30 -154 -30 -14 0 -2 36 65 190 23 52 41 104 41 114 0 11 -55
74 -130 150 -71 72 -126 134 -122 138 16 16 300 110 417 138 180 43 185 43
185 8z m1052 -16 c339 -226 461 -303 503 -316 l50 -16 -45 5 c-25 3 -109 8
-187 11 -78 4 -146 10 -150 13 -11 8 -180 205 -222 259 -27 35 -31 45 -21 57
17 20 23 19 72 -13z m663 -48 c106 -70 375 -267 375 -275 0 -25 -165 76 -417
253 -49 35 -52 36 -67 19 -9 -10 -19 -40 -22 -68 l-6 -49 86 -73 c123 -103 99
-112 -29 -11 -98 78 -97 75 -78 147 16 65 42 103 71 103 9 0 49 -21 87 -46z
m-776 -114 c61 -71 111 -132 111 -135 0 -3 -17 -5 -37 -5 -34 0 -45 8 -124 90
-47 50 -90 90 -96 90 -32 0 -23 -25 40 -108 22 -29 38 -55 35 -57 -3 -3 -26
-2 -52 1 -45 7 -50 11 -110 88 -34 45 -73 96 -85 114 l-23 32 54 -5 c33 -4 72
-1 103 8 28 8 55 15 62 16 6 0 61 -57 122 -129z m4068 28 c31 -29 29 -38 -7
-38 -27 0 -30 3 -30 30 0 36 6 37 37 8z m-4958 -19 c9 -27 8 -30 -5 -25 -9 3
-24 6 -35 6 -19 0 -19 1 -2 25 23 32 29 31 42 -6z m5051 -120 c0 -6 -14 -83
-31 -172 -16 -89 -39 -209 -49 -267 -30 -166 -31 -171 -54 -180 -12 -5 -124
-25 -251 -44 -1231 -193 -2764 -212 -4065 -51 -228 28 -561 82 -572 93 -8 8
-130 613 -124 619 1 1 38 -4 81 -12 374 -68 695 -106 1140 -135 88 -5 228 -14
310 -20 660 -42 1544 -37 2280 15 553 39 1151 110 1290 154 41 13 45 13 45 0z
m-3702 -918 c49 -25 327 -197 450 -279 65 -43 82 -60 80 -76 -5 -34 -35 -30
-106 15 -256 161 -531 353 -532 370 0 11 62 -6 108 -30z m393 -19 c30 -16 91
-55 136 -86 l83 -57 -15 -29 c-8 -16 -18 -31 -23 -33 -8 -6 -294 182 -327 214
-19 19 -19 19 37 19 42 0 69 -7 109 -28z m1809 14 c0 -28 -312 -236 -504 -336
-79 -42 -86 -44 -102 -29 -15 16 -11 20 57 66 65 44 430 271 484 301 28 16 65
15 65 -2z m-1372 -284 c59 -33 157 -87 217 -121 100 -58 147 -86 273 -165 l43
-27 -17 -28 c-9 -15 -24 -38 -34 -51 l-17 -23 -319 213 c-175 117 -318 218
-316 224 7 22 36 47 50 41 7 -3 62 -31 120 -63z m1374 -113 c47 -102 26 -105
-69 -9 -38 38 -75 81 -83 95 -12 22 -11 27 6 46 l19 21 55 -59 c31 -33 63 -75
72 -94z m-848 115 c32 -33 34 -52 4 -32 -13 8 -34 21 -47 28 -19 9 -21 14 -10
21 20 13 24 12 53 -17z m640 -95 c43 -58 44 -54 -42 -134 l-54 -50 73 -65 c41
-36 95 -81 122 -100 48 -34 58 -50 33 -50 -29 0 -390 319 -376 333 9 8 195
117 200 117 3 0 23 -23 44 -51z m317 -117 c13 -40 8 -48 -21 -32 -17 9 -19 14
-10 25 9 11 7 22 -9 48 -12 19 -21 38 -21 43 0 17 49 -51 61 -84z m-1630 30
c82 -49 527 -351 534 -362 15 -25 -27 -3 -193 98 -97 60 -230 139 -294 176
-129 74 -150 92 -127 107 21 13 30 11 80 -19z m-46 -189 c28 -25 45 -47 38
-50 -16 -6 -106 -74 -115 -87 -8 -12 -5 -15 -66 60 l-41 50 62 37 c34 20 64
37 67 36 3 0 28 -20 55 -46z m864 -34 c28 -18 51 -35 51 -38 0 -3 -13 -25 -30
-49 -16 -24 -30 -48 -32 -54 -4 -10 -108 57 -108 68 0 3 11 22 25 42 14 20 25
42 25 49 0 20 14 16 69 -18z m-1091 -144 c53 -81 59 -102 26 -97 -43 7 -107
76 -120 129 -7 25 12 56 30 50 6 -2 35 -39 64 -82z m350 33 c-6 -17 -149 -99
-160 -92 -15 9 11 33 66 60 28 14 55 30 61 35 13 13 37 11 33 -3z m662 -125
c23 -21 -13 -17 -60 7 -27 14 -38 25 -34 35 5 13 12 12 43 -6 20 -12 43 -28
51 -36z"/>
<path d="M4927 6494 c-4 -4 -7 -88 -6 -186 l0 -178 180 0 179 0 -2 183 -3 182
-171 3 c-93 1 -173 -1 -177 -4z m243 -184 l0 -80 -65 0 -65 0 0 80 0 80 65 0
65 0 0 -80z"/>
<path d="M4607 6113 c-3 -16 -1 -35 4 -43 6 -10 8 -2 9 28 0 48 -5 55 -13 15z"/>
<path d="M5582 6080 c0 -19 2 -27 5 -17 2 9 2 25 0 35 -3 9 -5 1 -5 -18z"/>
<path d="M4746 6024 c2 -76 14 -81 14 -6 0 34 -4 62 -8 62 -4 0 -7 -25 -6 -56z"/>
<path d="M5456 6064 c-10 -25 -7 -94 4 -94 6 0 10 25 10 55 0 57 -3 66 -14 39z"/>
<path d="M3654 5751 c-2 -2 -4 -33 -4 -68 l0 -63 130 0 130 0 0 64 0 65 -126
3 c-69 2 -128 1 -130 -1z"/>
<path d="M6426 4661 c-25 -52 -46 -104 -46 -115 0 -18 71 -132 128 -205 l19
-23 47 36 c26 19 54 40 63 44 14 8 12 17 -18 68 -18 33 -59 111 -90 174 l-57
115 -46 -94z"/>
<path d="M3204 4716 c-25 -25 -34 -43 -34 -67 0 -104 136 -169 208 -101 55 52
54 112 -3 169 -29 29 -39 33 -85 33 -46 0 -56 -4 -86 -34z"/>
<path d="M2626 3972 c-10 -17 6 -22 126 -36 192 -24 258 -28 258 -16 0 14 -3
15 -175 35 -82 9 -162 19 -176 22 -15 3 -29 0 -33 -5z"/>
<path d="M7405 3958 c-139 -18 -178 -28 -163 -43 6 -6 329 31 356 40 23 8 12
25 -15 24 -16 -1 -95 -10 -178 -21z"/>
<path d="M2636 3852 c-3 -6 -2 -14 4 -17 16 -10 218 -45 257 -45 62 0 34 17
-64 38 -134 29 -189 36 -197 24z"/>
<path d="M7505 3849 c-190 -34 -225 -42 -225 -55 0 -17 -14 -18 138 6 129 21
182 35 182 51 0 11 -27 10 -95 -2z"/>
<path d="M7525 3731 c-11 -5 -66 -17 -122 -27 -62 -10 -104 -23 -107 -31 -7
-17 10 -17 137 2 70 11 106 21 115 32 23 31 15 39 -23 24z"/>
<path d="M2693 3713 c-8 -20 -4 -22 81 -38 89 -17 146 -19 146 -6 0 16 -15 21
-120 40 -86 15 -103 16 -107 4z"/>
<path d="M2670 3591 c0 -5 8 -12 18 -16 25 -10 205 -33 215 -27 19 10 -12 21
-98 36 -103 18 -135 20 -135 7z"/>
<path d="M7396 3584 c-44 -8 -82 -17 -85 -19 -14 -15 19 -17 104 -7 102 12
126 19 104 33 -18 11 -26 10 -123 -7z"/>
<path d="M3053 7095 c-83 -23 -133 -53 -198 -119 -82 -83 -116 -155 -123 -263
l-5 -83 26 0 c60 0 74 14 86 87 30 173 134 280 283 291 59 4 74 1 131 -26 114
-53 188 -140 208 -247 5 -27 13 -52 17 -56 14 -12 62 -20 62 -9 0 5 -5 10 -12
10 -6 0 -4 6 6 13 24 18 18 98 -14 182 -62 162 -291 270 -467 220z"/>
<path d="M5936 6986 l-28 -11 24 -21 c34 -32 191 -130 293 -185 77 -41 95 -47
125 -40 19 4 35 13 35 20 0 13 -88 69 -285 183 -111 64 -127 69 -164 54z"/>
<path d="M3153 6953 c-18 -7 -16 -23 2 -23 9 0 38 -22 65 -49 47 -47 80 -119
80 -173 0 -14 8 -18 40 -18 39 0 40 1 40 34 0 43 -24 110 -55 158 -38 57 -122
92 -172 71z"/>
<path d="M2527 6605 c-145 -54 -274 -162 -331 -280 -60 -124 -59 -284 4 -412
61 -124 215 -248 350 -283 25 -6 53 -13 63 -16 15 -5 17 2 17 55 l0 60 -83 39
c-106 50 -155 94 -203 185 -38 70 -39 75 -39 172 0 82 4 109 22 148 32 70 115
146 208 193 l80 41 3 56 c3 57 3 57 -25 56 -15 0 -45 -7 -66 -14z"/>
<path d="M1764 5384 c-16 -24 -16 -30 0 -107 50 -234 221 -578 368 -739 l33
-37 48 15 c26 8 50 21 53 29 4 8 -15 42 -43 77 -114 146 -265 418 -313 563
-12 39 -36 105 -52 148 -25 67 -33 77 -53 77 -15 0 -31 -10 -41 -26z"/>
<path d="M8434 5402 c-7 -4 -28 -56 -48 -117 -68 -205 -240 -521 -372 -683
-25 -30 -41 -58 -37 -62 11 -10 103 -40 121 -40 18 0 38 24 123 149 164 243
320 651 280 737 -11 24 -43 32 -67 16z"/>
<path d="M6346 5359 c-89 -13 -355 -85 -464 -125 -113 -42 -392 -176 -471
-227 l-55 -35 35 -21 c19 -11 43 -21 54 -21 11 0 75 27 142 60 240 117 454
196 648 240 55 13 117 27 137 32 26 6 45 20 67 50 17 23 31 46 31 50 0 10 -44
9 -124 -3z"/>
<path d="M3267 5350 c-49 -9 -70 -20 -52 -26 6 -2 36 -22 69 -44 51 -35 66
-40 115 -40 79 0 329 -26 436 -45 200 -35 422 -110 640 -216 122 -60 180 -73
191 -44 9 21 -8 38 -89 91 -207 136 -543 259 -849 309 -111 18 -393 28 -461
15z"/>
<path d="M2402 5241 c-22 -14 -9 -44 25 -57 28 -12 34 -11 55 6 l23 20 -24 20
c-24 21 -57 26 -79 11z"/>
<path d="M7532 5194 c-12 -8 -22 -25 -22 -37 0 -20 11 -25 98 -46 53 -12 184
-52 291 -87 106 -36 200 -64 208 -62 8 2 22 16 31 31 16 27 16 29 -2 43 -38
27 -177 74 -367 124 -105 28 -197 50 -203 50 -6 0 -22 -7 -34 -16z"/>
<path d="M2116 5119 c-21 -11 -34 -24 -30 -29 5 -4 48 -24 95 -43 47 -20 116
-52 152 -72 52 -29 71 -34 81 -26 19 16 9 98 -16 133 -39 56 -205 77 -282 37z"/>
<path d="M6285 5133 c-160 -37 -564 -203 -577 -238 -3 -10 85 -45 114 -45 10
0 66 20 125 44 59 24 153 58 208 76 134 44 127 40 152 91 35 71 31 84 -22 72z"/>
<path d="M3490 5101 c-12 -8 -9 -16 16 -48 28 -34 44 -42 150 -74 133 -41 292
-100 402 -150 l73 -33 62 16 c106 28 121 36 106 54 -16 20 -191 108 -279 141
-138 52 -312 94 -415 99 -60 3 -106 1 -115 -5z"/>
<path d="M7711 4939 c-22 -21 -22 -22 -4 -39 19 -18 240 -110 264 -110 13 0
49 47 49 64 0 10 -133 73 -189 90 -72 21 -93 20 -120 -5z"/>
<path d="M4965 4879 c-167 -7 -289 -26 -445 -69 -181 -50 -407 -140 -396 -159
4 -5 61 -42 129 -82 118 -70 162 -96 427 -258 l124 -76 241 3 c277 4 364 -5
451 -48 34 -17 69 -30 78 -30 45 0 236 167 236 206 0 22 -66 85 -111 107 -47
22 -197 65 -278 78 -36 7 -172 15 -301 18 -218 6 -229 7 -155 16 44 6 168 10
275 10 266 -1 401 -28 603 -124 91 -43 108 -45 152 -15 11 8 26 14 35 14 9 0
33 20 54 45 45 54 46 52 -60 125 -142 98 -351 181 -559 220 -88 17 -328 26
-500 19z m442 -120 c191 -26 413 -102 511 -176 43 -32 35 -40 -15 -15 -57 29
-244 88 -363 114 -95 20 -131 22 -370 22 -278 0 -373 -10 -625 -66 -49 -11
-115 -22 -145 -25 -49 -5 -53 -4 -40 10 39 39 263 99 470 127 156 21 457 26
577 9z m-45 -289 c128 -11 238 -41 306 -84 54 -34 46 -49 -16 -30 -111 34
-203 56 -297 69 -159 23 -443 18 -604 -12 -23 -4 -32 -2 -27 5 9 15 135 41
251 51 142 12 252 12 387 1z m93 -150 c69 -13 104 -36 40 -26 -22 4 -176 9
-343 12 -167 4 -300 9 -297 12 22 22 486 23 600 2z"/>
<path d="M6170 4855 c-88 -25 -140 -53 -140 -76 0 -17 69 -20 125 -5 68 17 73
21 81 64 7 36 4 37 -66 17z"/>
<path d="M7107 3240 c-21 -4 -57 -21 -80 -38 -144 -107 -283 -188 -469 -272
-65 -29 -118 -58 -118 -64 0 -7 11 -23 25 -36 31 -29 51 -25 200 40 173 75
338 172 473 279 38 30 52 48 52 66 0 14 -4 25 -9 25 -5 0 -15 2 -23 4 -7 2
-30 0 -51 -4z"/>
<path d="M3013 3224 c-9 -24 31 -59 182 -159 148 -98 350 -207 449 -240 l58
-20 24 30 c13 17 24 32 24 35 0 3 -48 29 -107 59 -131 65 -293 157 -388 221
-38 26 -89 57 -112 69 -50 25 -121 28 -130 5z"/>
<path d="M3945 2929 c-92 -81 -117 -202 -64 -304 31 -59 98 -115 139 -115 30
0 53 21 31 28 -26 9 -73 56 -91 93 -36 71 -18 162 19 97 7 -13 28 -36 47 -51
38 -33 30 -35 168 51 76 48 87 57 72 66 -10 6 -72 46 -139 88 -67 43 -127 78
-134 78 -7 0 -28 -14 -48 -31z"/>
</g>
</svg>
