<?xml version="1.0" standalone="no"?>
<!DOCTYPE svg PUBLIC "-//W3C//DTD SVG 20010904//EN"
 "http://www.w3.org/TR/2001/REC-SVG-20010904/DTD/svg10.dtd">
<svg version="1.0" xmlns="http://www.w3.org/2000/svg"
 width="512.000000pt" height="512.000000pt" viewBox="0 0 512.000000 512.000000"
 preserveAspectRatio="xMidYMid meet">

<g transform="translate(0.000000,512.000000) scale(0.100000,-0.100000)"
fill="#000000" stroke="none">
<path d="M1180 5065 c-144 -32 -272 -104 -365 -208 -53 -58 -125 -185 -125
-220 0 -19 -96 -84 -164 -110 -67 -25 -185 -46 -266 -47 -104 -1 -170 -41
-205 -122 -19 -46 -19 -98 -1 -142 34 -82 175 -172 316 -202 86 -18 293 -14
395 8 l60 13 46 -32 c102 -72 222 -110 389 -121 l96 -7 -13 -115 c-25 -227
-105 -665 -193 -1060 -54 -243 -70 -352 -70 -480 0 -182 36 -343 110 -490 144
-287 461 -510 850 -596 41 -9 120 -31 175 -49 55 -17 141 -42 191 -54 l91 -22
10 -237 c6 -130 9 -239 7 -241 -2 -2 -63 2 -136 9 -73 7 -178 14 -233 14 -84
1 -107 -2 -145 -21 -48 -24 -273 -225 -278 -249 -2 -8 2 -21 8 -29 10 -13 61
-15 299 -15 l286 -1 -77 -73 c-78 -73 -89 -91 -66 -114 16 -16 923 -17 965 -1
39 14 81 57 92 93 6 17 18 211 27 431 9 220 18 401 19 403 2 2 47 12 100 23
252 52 541 183 730 334 22 17 71 44 108 60 313 129 603 432 752 786 61 144
108 324 109 417 1 69 -1 75 -28 99 -38 32 -72 27 -193 -26 -169 -74 -292 -88
-439 -51 -43 11 -168 59 -277 106 -343 148 -528 214 -767 274 -207 52 -355 70
-680 80 -315 10 -440 21 -549 45 -111 26 -161 92 -198 265 -25 117 -24 500 1
815 10 128 16 266 13 310 -22 309 -283 548 -612 561 -64 2 -123 -1 -165 -11z
m265 -80 c162 -34 309 -145 379 -287 59 -118 63 -172 40 -486 -25 -349 -25
-702 -1 -825 23 -112 49 -182 88 -235 80 -109 212 -136 734 -152 301 -9 426
-22 600 -61 241 -55 440 -124 794 -276 134 -57 280 -113 325 -123 157 -38 294
-22 473 55 58 25 109 45 114 45 26 0 -25 -244 -80 -384 -133 -334 -373 -608
-661 -754 -52 -27 -108 -54 -125 -60 -16 -6 -73 -43 -125 -81 -462 -340 -1095
-413 -1751 -202 -68 22 -151 45 -184 51 -231 46 -485 178 -636 329 -171 171
-255 366 -266 621 -7 154 4 239 67 530 109 499 177 890 205 1173 9 93 4 97
-105 97 -125 0 -252 24 -335 64 -72 34 -155 98 -155 119 0 7 22 45 50 85 55
81 75 138 67 194 -7 55 -37 88 -119 134 -83 46 -83 45 -37 142 44 90 138 181
242 232 135 67 263 84 402 55z m-720 -455 c4 -6 30 -22 58 -36 99 -50 114 -80
78 -159 -24 -54 -34 -60 -121 -74 -184 -30 -421 -24 -546 14 -75 23 -79 27
-60 64 22 42 64 61 134 61 136 0 308 48 397 110 45 32 51 34 60 20z m-265
-364 c85 -1 189 3 230 7 l76 8 -4 -40 c-4 -39 -5 -40 -51 -48 -25 -4 -107 -8
-181 -8 -114 0 -145 4 -201 23 -57 19 -159 74 -159 85 0 2 30 -3 68 -11 41 -9
127 -15 222 -16z m2248 -3193 c31 -5 32 -6 32 -58 0 -84 -20 -518 -25 -541 -4
-20 -11 -21 -117 -20 -89 1 -120 -3 -147 -16 -30 -16 -67 -18 -307 -18 l-274
0 75 70 c110 102 112 102 479 64 130 -14 150 -14 163 -1 13 12 13 44 4 229 -6
118 -11 236 -11 262 l0 48 48 -6 c26 -4 62 -10 80 -13z m482 -40 c0 -21 -7
-184 -15 -363 -8 -179 -15 -342 -15 -363 0 -27 -7 -45 -25 -62 l-24 -25 -400
0 -401 0 75 70 c110 102 112 102 479 64 130 -14 150 -14 163 -1 13 12 12 55
-1 335 -9 177 -16 333 -16 346 0 24 4 25 63 29 34 2 74 4 90 5 25 2 27 -1 27
-35z m-260 -10 c1 -21 7 -162 14 -313 8 -151 12 -277 10 -279 -1 -2 -39 0 -83
4 -80 7 -80 7 -76 34 5 28 25 464 25 543 l0 48 55 0 55 0 0 -37z"/>
<path d="M1132 4743 c-101 -49 -122 -175 -43 -254 108 -108 288 -19 268 133
-14 104 -132 167 -225 121z m123 -88 c50 -49 15 -135 -55 -135 -41 0 -80 39
-80 80 0 41 39 80 80 80 19 0 40 -9 55 -25z"/>
<path d="M2530 2826 c-309 -66 -537 -286 -596 -577 -32 -160 -3 -308 87 -444
117 -174 319 -311 558 -378 66 -18 102 -21 271 -21 162 1 213 5 300 23 171 36
296 110 316 187 4 16 18 22 75 32 38 7 89 21 114 33 61 29 122 97 136 153 9
35 16 46 31 46 47 0 178 34 235 61 72 34 143 108 169 175 24 64 15 74 -87 96
-205 44 -292 86 -595 288 -384 256 -557 326 -819 335 -88 3 -151 0 -195 -9z
m296 -77 c191 -26 352 -103 682 -322 288 -191 384 -240 560 -282 39 -9 72 -21
72 -26 0 -5 -20 -29 -43 -53 -63 -62 -189 -106 -306 -106 -56 0 -71 -12 -71
-57 0 -104 -79 -166 -230 -180 -74 -7 -90 -15 -90 -49 0 -35 -62 -98 -122
-124 -88 -38 -221 -60 -393 -66 -187 -7 -299 11 -432 68 -219 94 -388 274
-438 464 -53 205 47 456 242 603 155 117 349 161 569 130z"/>
<path d="M619 4380 l-24 -20 24 -20 c14 -12 38 -20 61 -20 23 0 47 8 61 20
l24 20 -24 20 c-14 12 -38 20 -61 20 -23 0 -47 -8 -61 -20z"/>
</g>
</svg>
