<?xml version="1.0" standalone="no"?>
<!DOCTYPE svg PUBLIC "-//W3C//DTD SVG 20010904//EN"
 "http://www.w3.org/TR/2001/REC-SVG-20010904/DTD/svg10.dtd">
<svg version="1.0" xmlns="http://www.w3.org/2000/svg"
 width="512.000000pt" height="512.000000pt" viewBox="0 0 512.000000 512.000000"
 preserveAspectRatio="xMidYMid meet">

<g transform="translate(0.000000,512.000000) scale(0.100000,-0.100000)"
fill="#000000" stroke="none">
<path d="M1221 5025 c-103 -23 -225 -89 -302 -165 -79 -78 -112 -128 -156
-235 l-32 -80 -282 -70 -282 -71 -38 -41 c-67 -72 -65 -159 5 -230 31 -31 54
-44 84 -49 39 -6 43 -10 70 -68 35 -75 89 -131 157 -162 41 -19 96 -28 304
-49 140 -14 257 -28 262 -30 27 -17 32 -126 34 -635 1 -569 2 -584 61 -788 95
-328 314 -643 578 -832 l76 -55 -2 -180 c-3 -177 -3 -181 -31 -228 -15 -26
-45 -59 -66 -72 -21 -14 -131 -63 -246 -109 l-208 -83 114 -38 c127 -42 168
-67 193 -118 23 -49 20 -101 -9 -187 -14 -40 -23 -75 -21 -77 2 -2 58 10 124
27 140 35 163 36 218 11 53 -24 78 -57 105 -139 12 -37 24 -70 28 -74 10 -11
427 326 453 366 l22 33 60 -20 c148 -49 185 -129 131 -287 -14 -40 -23 -75
-21 -77 2 -2 58 10 124 27 140 35 163 36 218 11 53 -24 78 -57 105 -139 12
-37 24 -70 28 -74 6 -7 362 270 427 333 17 17 44 56 60 87 38 76 41 201 7 274
-30 65 -102 139 -163 168 -49 23 -50 24 -45 59 21 131 71 264 105 282 8 4 53
20 100 34 113 35 287 119 391 188 172 114 306 250 432 437 172 255 340 370
639 434 l27 6 -20 72 c-31 113 -84 204 -164 285 l-71 72 55 56 56 56 -66 63
c-120 115 -249 189 -387 224 -39 10 -74 21 -77 24 -3 3 3 38 14 77 l20 71 -22
5 c-795 183 -986 226 -1047 237 -42 7 -155 12 -255 12 -146 0 -201 -4 -293
-22 -287 -57 -551 -184 -764 -366 l-77 -66 -15 22 c-81 125 -123 339 -97 494
7 38 32 130 56 204 59 183 86 319 92 475 6 161 -10 245 -68 364 -124 252 -420
388 -708 326z m251 -156 c177 -38 321 -185 359 -366 15 -72 7 -257 -16 -368
-9 -44 -38 -147 -65 -230 -58 -181 -75 -285 -67 -414 10 -155 63 -320 144
-444 21 -32 22 -29 -65 -125 l-62 -70 60 -52 c34 -29 65 -49 69 -44 111 130
254 281 306 324 211 175 453 290 705 337 117 21 392 24 495 5 138 -26 860
-194 869 -203 13 -12 -20 -79 -78 -156 -58 -77 -142 -141 -270 -205 -54 -27
-95 -53 -90 -57 5 -5 95 -59 199 -121 105 -62 196 -118 203 -125 17 -15 -27
-50 -141 -110 -111 -59 -211 -88 -412 -120 -93 -16 -172 -30 -175 -32 -2 -2
59 -67 135 -144 135 -135 139 -141 120 -156 -40 -31 -202 -102 -280 -123 -282
-73 -699 1 -1002 178 -163 95 -340 253 -450 399 -31 40 -57 73 -60 73 -10 0
-123 -82 -123 -89 0 -17 113 -157 194 -239 302 -311 699 -488 1141 -509 280
-13 513 60 749 235 l99 74 -99 99 c-57 57 -92 99 -82 99 34 0 197 53 275 90
108 50 213 124 314 219 l81 76 -185 110 -185 110 67 61 c51 47 148 160 156
181 0 1 34 -5 75 -13 76 -15 234 -86 279 -124 22 -19 23 -22 7 -39 -15 -16
-21 -17 -65 -5 -101 26 -104 25 -117 -31 -23 -95 -20 -102 34 -114 130 -27
219 -83 292 -180 47 -63 49 -77 13 -86 -48 -12 -188 -81 -254 -125 -93 -62
-214 -190 -291 -305 -246 -370 -569 -579 -989 -641 -92 -13 -173 -15 -477 -11
-398 5 -443 10 -629 72 -459 154 -815 537 -934 1002 -44 176 -51 281 -48 793
3 422 1 471 -15 530 -26 96 -88 206 -161 287 -79 90 -109 140 -129 218 -80
307 148 611 461 614 34 1 86 -4 115 -10z m-747 -561 l7 -68 -246 0 c-135 0
-246 4 -246 9 0 6 470 132 476 127 1 -1 5 -31 9 -68z m118 -293 l47 -66 -47 6
c-27 3 -107 12 -179 20 -74 7 -145 20 -162 29 -29 15 -62 51 -62 68 0 5 80 8
178 8 l177 0 48 -65z m1161 -2681 l78 -35 -4 -167 c-4 -190 -14 -225 -87 -305
-23 -24 -41 -48 -41 -53 0 -6 23 -32 50 -59 42 -41 53 -48 68 -39 34 21 112
129 134 185 l22 57 29 -20 c65 -46 85 -165 40 -227 -20 -27 -114 -108 -208
-181 l-54 -41 -41 41 c-58 58 -137 92 -226 98 l-72 5 -7 35 c-7 39 -39 107
-62 133 -13 15 -7 20 60 53 93 44 175 128 208 213 19 48 24 82 27 201 2 78 5
142 7 142 1 0 37 -16 79 -36z m341 -105 c71 -14 157 -22 297 -26 l196 -6 19
-41 c13 -29 18 -64 18 -126 0 -75 -3 -91 -28 -133 -41 -69 -69 -85 -327 -187
l-45 -18 0 77 c-1 56 -6 88 -22 123 -29 65 -102 139 -163 168 l-50 23 0 84 c0
46 1 83 3 83 1 0 47 -9 102 -21z m910 -36 c-22 -58 -47 -183 -54 -279 -10
-128 -29 -181 -90 -247 -23 -24 -41 -48 -41 -53 0 -6 23 -32 50 -59 42 -41 53
-48 68 -39 34 21 112 129 134 185 l22 57 29 -20 c65 -46 85 -165 40 -227 -20
-27 -114 -108 -208 -181 l-54 -41 -41 41 c-58 58 -137 92 -226 98 l-72 5 -7
35 c-7 39 -39 107 -62 133 -13 15 -7 20 60 53 94 45 175 128 208 213 28 74 36
207 16 280 l-14 52 106 4 c58 1 114 4 125 5 14 1 16 -2 11 -15z"/>
<path d="M1225 4535 c-50 -49 -15 -135 55 -135 41 0 80 39 80 80 0 41 -39 80
-80 80 -19 0 -40 -9 -55 -25z"/>
<path d="M3282 3208 c-12 -35 -22 -68 -22 -73 0 -6 22 -20 50 -33 115 -53 161
-188 103 -303 -46 -90 -87 -110 -289 -143 -93 -16 -172 -30 -175 -32 -4 -2 4
-46 17 -96 32 -125 31 -161 -2 -187 -30 -24 -74 -26 -174 -10 -153 24 -295 97
-415 210 -40 38 -76 69 -82 69 -13 0 -103 -93 -103 -107 0 -6 32 -41 72 -78
184 -170 391 -257 618 -259 119 -1 164 15 215 76 46 54 58 94 53 178 l-4 76
93 16 c163 28 261 96 325 226 30 61 33 74 33 162 0 82 -4 103 -27 153 -35 75
-117 160 -184 192 -29 14 -59 25 -67 25 -7 0 -23 -27 -35 -62z"/>
</g>
</svg>
