<?xml version="1.0" standalone="no"?>
<!DOCTYPE svg PUBLIC "-//W3C//DTD SVG 20010904//EN"
 "http://www.w3.org/TR/2001/REC-SVG-20010904/DTD/svg10.dtd">
<svg version="1.0" xmlns="http://www.w3.org/2000/svg"
 width="512.000000pt" height="512.000000pt" viewBox="0 0 512.000000 512.000000"
 preserveAspectRatio="xMidYMid meet">

<g transform="translate(0.000000,512.000000) scale(0.100000,-0.100000)"
fill="#000000" stroke="none">
<path d="M1102 4307 c-6 -7 -47 -70 -90 -139 -198 -315 -414 -552 -647 -710
-97 -66 -103 -84 -56 -184 44 -93 129 -213 157 -220 14 -4 45 4 80 20 66 31
72 28 104 -46 32 -74 29 -156 -12 -309 -31 -119 -33 -131 -31 -294 4 -479 125
-758 483 -1115 372 -372 789 -619 1220 -722 82 -19 122 -22 290 -22 268 0 295
8 635 187 66 35 180 87 252 117 73 29 139 60 147 69 24 27 26 194 3 226 -10
12 -34 21 -78 26 -48 7 -95 24 -184 69 -66 34 -141 67 -165 75 l-45 14 60 0
c153 2 360 49 493 111 109 51 182 105 317 230 61 56 170 148 243 203 73 55
140 110 149 123 17 26 15 45 -13 140 -25 86 -38 95 -131 88 -64 -5 -98 -2
-188 20 -72 18 -160 30 -256 36 -80 5 -152 11 -160 14 -8 2 -27 7 -44 11 -25
6 -15 10 65 27 368 75 654 256 807 513 53 88 159 236 252 350 93 115 97 128
50 215 -55 103 -79 116 -155 84 -26 -11 -88 -20 -186 -25 -81 -5 -191 -17
-245 -28 -303 -62 -658 -46 -1026 45 -104 26 -126 23 -147 -16 -12 -23 2 -65
27 -78 28 -15 228 -59 343 -76 328 -49 580 -48 829 4 52 11 113 20 136 20 36
0 44 -4 54 -27 11 -24 10 -29 -11 -45 -13 -10 -72 -42 -133 -72 -362 -181
-808 -232 -1267 -146 -434 82 -882 304 -1272 629 -113 94 -140 106 -169 73
-31 -34 -21 -65 41 -124 249 -237 673 -486 1032 -607 489 -165 1012 -177 1447
-35 100 33 311 129 375 171 27 17 28 17 49 -3 l20 -21 -63 -94 c-35 -52 -82
-124 -105 -160 -174 -272 -534 -437 -1013 -465 -131 -7 -144 -4 -367 101 -229
108 -394 225 -708 500 -339 298 -581 434 -771 435 l-42 0 -17 70 c-20 83 -71
191 -113 240 l-30 35 20 39 c18 35 22 38 51 32 18 -3 73 -9 123 -12 71 -5 103
-3 150 11 127 38 291 12 541 -87 99 -39 103 -40 128 -24 22 14 26 24 23 54 -3
34 -8 39 -58 64 -71 35 -282 103 -385 124 -91 19 -187 15 -275 -12 -57 -17
-183 -15 -202 4 -5 5 0 28 11 53 28 61 26 73 -16 120 -50 55 -97 84 -187 114
-83 28 -128 32 -144 12z m166 -152 c29 -13 55 -31 58 -38 6 -17 -46 -124 -118
-246 -83 -138 -195 -280 -312 -397 -116 -115 -190 -173 -315 -245 l-74 -43
-21 27 c-12 15 -33 48 -48 75 l-27 48 82 59 c109 79 290 256 394 385 47 58
131 174 186 258 112 169 97 160 195 117z m18 -494 c24 -37 66 -151 59 -159 -6
-6 -97 47 -133 76 l-33 27 33 47 c18 26 36 48 40 48 4 0 19 -18 34 -39z m-31
-255 c93 -47 167 -65 267 -65 103 1 162 -20 308 -107 139 -82 193 -123 395
-300 220 -193 294 -251 440 -349 282 -188 695 -348 1015 -394 41 -6 135 -15
207 -20 73 -5 137 -12 143 -16 5 -3 10 -20 10 -36 0 -36 -12 -41 -160 -75
-373 -84 -810 -30 -1222 151 -425 186 -835 536 -1143 974 -51 73 -66 86 -92
89 -37 4 -63 -19 -63 -55 0 -31 105 -185 226 -330 381 -460 901 -801 1414
-927 193 -47 309 -60 520 -60 206 1 351 20 490 63 67 21 74 20 84 -15 5 -17
-6 -31 -55 -74 -34 -29 -99 -88 -146 -131 -134 -125 -261 -189 -455 -230 -140
-30 -392 -30 -555 -1 -121 21 -167 44 -338 166 -287 205 -453 383 -725 781
-161 234 -204 288 -341 420 -87 85 -133 120 -192 150 l-77 40 0 60 c-1 116
-42 225 -110 291 -22 22 -40 43 -40 48 0 6 10 20 21 32 l22 23 41 -34 c22 -18
73 -49 111 -69z m3448 -37 c8 -14 2 -27 -32 -68 l-43 -51 -18 22 c-20 27 -53
89 -48 92 6 5 104 23 117 22 8 0 19 -8 24 -17z m-3695 -41 c42 -44 71 -113 79
-189 l6 -62 -34 19 c-43 25 -179 159 -179 177 0 15 73 87 88 87 4 0 22 -15 40
-32z m-151 -217 c104 -104 153 -134 265 -164 110 -30 163 -62 271 -166 112
-108 178 -189 313 -389 181 -264 281 -390 434 -543 282 -283 615 -496 942
-603 167 -55 210 -75 203 -94 -3 -7 -5 -23 -5 -34 0 -20 -3 -21 -162 -15 -190
6 -325 30 -502 88 -488 160 -935 529 -1252 1031 -81 128 -221 410 -269 543
-43 117 -49 125 -86 125 -36 0 -59 -24 -59 -60 0 -38 58 -194 126 -338 431
-917 1244 -1511 2070 -1512 137 0 144 -2 144 -45 0 -7 -57 -44 -127 -81 -297
-157 -329 -167 -558 -168 -133 -1 -177 3 -263 22 -232 52 -470 157 -702 309
-183 121 -320 232 -475 388 -318 318 -435 593 -435 1021 0 133 3 163 30 269
41 162 47 234 26 315 -9 35 -28 85 -43 109 l-26 44 23 19 c12 10 24 18 26 18
1 0 43 -40 91 -89z m3448 -1011 c8 -25 0 -36 -59 -78 l-44 -32 -16 47 c-27 80
-25 83 48 83 56 0 65 -3 71 -20z m-834 -1017 c54 -15 60 -19 57 -41 -2 -19
-15 -29 -60 -47 -48 -20 -57 -21 -62 -8 -7 18 -8 113 -1 113 3 0 32 -8 66 -17z"/>
<path d="M2630 3680 c-40 -40 -19 -83 56 -116 30 -13 63 -24 73 -24 37 0 66
62 43 96 -11 17 -108 64 -132 64 -11 0 -29 -9 -40 -20z"/>
</g>
</svg>
