<?xml version="1.0" standalone="no"?>
<!DOCTYPE svg PUBLIC "-//W3C//DTD SVG 20010904//EN"
 "http://www.w3.org/TR/2001/REC-SVG-20010904/DTD/svg10.dtd">
<svg version="1.0" xmlns="http://www.w3.org/2000/svg"
 width="512.000000pt" height="512.000000pt" viewBox="0 0 512.000000 512.000000"
 preserveAspectRatio="xMidYMid meet">

<g transform="translate(0.000000,512.000000) scale(0.100000,-0.100000)"
fill="#000000" stroke="none">
<path d="M1715 4976 c-284 -56 -528 -250 -672 -536 -61 -122 -112 -310 -113
-418 l-1 -47 -247 -150 c-265 -162 -299 -185 -313 -222 -12 -32 12 -78 52 -98
20 -11 133 -27 334 -48 l305 -32 46 -75 c57 -91 126 -182 177 -233 l38 -38
-39 -67 c-85 -144 -129 -290 -139 -462 -13 -242 69 -469 293 -807 119 -179
275 -319 459 -411 33 -16 141 -60 240 -97 215 -81 241 -93 281 -137 55 -59 95
-121 84 -132 -5 -5 -55 -41 -112 -81 -152 -106 -178 -157 -115 -220 59 -59
190 -69 300 -23 30 13 66 41 97 75 l48 55 21 -21 c30 -30 28 -91 -4 -130 -31
-36 -106 -73 -197 -95 -62 -15 -70 -15 -105 -1 -81 35 -299 29 -432 -10 -96
-29 -129 -91 -73 -135 29 -24 56 -24 193 0 37 6 89 10 118 8 l51 -3 -54 -42
c-30 -23 -62 -53 -71 -67 -24 -36 -11 -82 28 -107 31 -18 58 -19 645 -19 l613
0 24 25 c20 19 25 34 25 75 0 90 -34 136 -182 241 -130 92 -135 100 -142 207
-3 48 -10 115 -14 148 l-8 62 84 96 c48 56 100 105 123 116 23 12 85 27 150
35 307 41 506 126 682 294 249 237 382 551 437 1036 24 213 25 220 56 239 27
18 64 125 90 262 21 116 15 282 -14 373 -28 85 -84 166 -140 198 -90 53 -183
31 -368 -84 -110 -70 -166 -96 -259 -126 -133 -42 -253 -50 -605 -44 -265 5
-331 9 -413 27 -95 20 -203 55 -220 70 -5 4 5 32 22 62 245 434 10 1107 -488
1397 -182 107 -401 151 -576 117z m350 -187 c273 -91 504 -333 604 -634 111
-334 39 -623 -214 -864 -90 -85 -109 -115 -93 -145 40 -75 118 -57 227 53 l63
65 177 -58 c341 -113 629 -231 750 -310 142 -92 201 -178 209 -306 13 -224
-175 -470 -447 -585 -122 -51 -206 -67 -381 -72 -143 -4 -179 -2 -269 17 -321
66 -561 248 -658 498 -22 56 -26 83 -26 167 0 68 5 114 16 144 38 99 5 159
-75 138 -39 -10 -74 -76 -94 -179 -14 -74 -15 -101 -6 -166 50 -351 338 -637
750 -744 100 -26 141 -31 282 -35 184 -6 285 7 431 53 483 152 768 633 581
977 -59 108 -176 206 -348 290 l-90 43 221 11 c321 17 424 47 669 197 114 69
173 93 201 82 26 -10 74 -125 87 -209 17 -112 0 -224 -42 -277 -36 -45 -60
-100 -59 -132 1 -13 -6 -40 -15 -60 -9 -21 -27 -129 -41 -250 -14 -116 -35
-253 -46 -302 -91 -389 -281 -645 -583 -787 -106 -49 -201 -75 -360 -99 -170
-25 -233 -55 -313 -148 -124 -143 -203 -201 -322 -236 l-55 -16 -39 27 c-22
15 -84 84 -138 154 -93 121 -151 174 -228 214 -19 9 -109 44 -200 77 -261 93
-360 149 -482 271 -128 128 -314 436 -376 621 -25 73 -27 95 -28 231 0 129 3
160 23 225 24 78 99 240 111 240 4 0 24 -9 46 -20 51 -26 71 -25 100 5 49 48
32 79 -98 185 -164 132 -311 351 -373 556 -25 80 -28 103 -27 239 0 128 4 164
26 248 84 319 322 568 603 631 104 24 230 14 349 -25z m-1118 -1070 c7 -35 17
-77 23 -93 6 -16 8 -31 6 -33 -4 -4 -318 25 -323 30 -4 5 262 165 271 163 5
-1 15 -31 23 -67z m2083 -3146 c14 -41 51 -98 84 -126 12 -10 62 -46 111 -80
l90 -62 -425 -3 c-234 -1 -431 0 -439 3 -29 11 14 35 114 66 263 78 354 167
359 347 l2 75 39 12 40 11 7 -103 c3 -56 12 -120 18 -140z"/>
<path d="M1583 4260 c-138 -29 -226 -134 -226 -270 0 -160 119 -280 277 -280
111 0 204 57 252 157 101 206 -79 440 -303 393z m111 -160 c41 -15 68 -67 63
-120 -10 -89 -110 -139 -188 -93 -31 18 -59 67 -59 103 0 82 100 142 184 110z"/>
<path d="M2562 3000 c-210 -45 -347 -240 -313 -449 30 -185 167 -339 371 -418
93 -37 130 -44 255 -50 182 -8 344 31 493 118 84 50 202 171 240 248 67 134
36 195 -125 250 -85 29 -197 78 -448 196 -203 95 -357 129 -473 105z m263
-188 c44 -16 177 -74 295 -129 118 -55 245 -110 283 -123 37 -13 67 -27 67
-31 0 -15 -94 -126 -133 -158 -60 -48 -148 -89 -235 -112 -95 -24 -268 -26
-356 -3 -136 35 -269 132 -315 230 -71 151 -7 304 148 355 48 16 162 2 246
-29z"/>
</g>
</svg>
