<?xml version="1.0" standalone="no"?>
<!DOCTYPE svg PUBLIC "-//W3C//DTD SVG 20010904//EN"
 "http://www.w3.org/TR/2001/REC-SVG-20010904/DTD/svg10.dtd">
<svg version="1.0" xmlns="http://www.w3.org/2000/svg"
 width="1024.000000pt" height="1024.000000pt" viewBox="0 0 1024.000000 1024.000000"
 preserveAspectRatio="xMidYMid meet">

<g transform="translate(0.000000,1024.000000) scale(0.100000,-0.100000)"
fill="#000000" stroke="none">
<path d="M4715 9666 c-17 -7 -45 -29 -62 -49 -55 -62 -54 -121 7 -395 17 -73
30 -138 30 -144 0 -6 -13 7 -28 28 -47 64 -170 170 -236 203 -74 36 -150 54
-194 46 -46 -8 -97 -58 -119 -113 -26 -67 -23 -249 6 -407 12 -66 24 -127 27
-137 3 -12 -15 -6 -73 24 -73 37 -83 39 -150 36 -60 -3 -76 -7 -98 -28 -50
-47 -59 -76 -58 -185 2 -161 53 -355 145 -548 23 -48 39 -88 37 -90 -2 -2 -36
-22 -75 -45 -330 -193 -563 -485 -651 -819 -27 -103 -31 -200 -23 -528 5 -166
-27 -322 -136 -675 -83 -268 -112 -413 -179 -895 -103 -741 -198 -1199 -341
-1637 -128 -392 -293 -752 -440 -961 -19 -26 -34 -49 -34 -51 0 -2 38 -11 84
-21 129 -27 286 -18 391 23 44 18 111 52 149 77 l68 44 -6 -32 c-3 -17 -9 -98
-12 -178 -8 -168 9 -294 56 -440 99 -303 330 -557 647 -711 68 -33 126 -58
129 -56 2 3 -3 34 -11 69 -32 129 -29 382 4 472 7 19 12 15 39 -38 84 -168
243 -330 470 -481 53 -36 241 -137 417 -226 332 -167 482 -253 564 -325 l48
-42 24 25 c75 81 241 180 558 335 256 125 418 218 541 310 152 115 299 280
367 414 25 47 26 49 35 26 31 -84 32 -330 2 -459 -18 -81 -18 -84 4 -73 9 5
65 33 125 61 372 178 632 524 686 914 14 96 14 269 1 360 -6 38 -9 70 -8 72 2
1 28 -13 58 -32 130 -84 256 -124 387 -124 81 0 233 23 233 36 0 2 -33 59 -74
127 -165 274 -286 554 -417 967 -138 433 -219 826 -329 1605 -58 405 -92 585
-145 760 -98 329 -128 439 -146 545 -23 133 -25 199 -14 400 6 117 4 163 -9
240 -68 387 -315 720 -694 934 -123 70 -210 107 -397 171 l-149 51 -22 125
c-113 655 -379 1185 -698 1391 -33 21 -82 45 -110 53 -61 18 -160 19 -201 1z
m232 -289 c135 -100 288 -341 398 -627 139 -362 213 -872 185 -1265 -28 -394
-106 -712 -245 -1002 -35 -73 -61 -133 -58 -133 15 0 108 78 166 139 78 83
131 159 184 266 123 245 192 591 193 973 0 81 3 102 14 102 22 0 176 -56 276
-100 91 -40 229 -121 284 -166 74 -61 188 -181 239 -252 57 -79 153 -250 145
-258 -3 -2 -30 1 -62 7 -144 26 -327 -70 -435 -230 -35 -52 -111 -193 -111
-206 0 -4 23 15 50 42 199 189 429 237 534 112 41 -48 55 -87 62 -171 l7 -73
-48 53 c-65 72 -113 96 -195 96 -121 1 -233 -82 -330 -244 -80 -134 -140 -359
-140 -530 l0 -74 68 66 67 67 37 -34 c53 -49 135 -71 205 -56 74 17 141 65
188 136 51 76 73 144 89 282 l13 108 21 -45 c11 -25 42 -130 67 -235 26 -104
62 -237 80 -295 97 -305 102 -410 35 -676 -109 -432 -371 -780 -704 -934 -122
-57 -119 -56 -149 -12 -43 66 -104 195 -129 272 -19 63 -23 96 -23 211 0 92 4
141 12 151 7 8 43 20 80 27 83 16 160 56 179 93 19 37 17 95 -5 144 -26 56
-99 110 -241 177 -199 94 -282 171 -410 382 -173 285 -222 344 -327 392 -48
22 -65 25 -132 21 -136 -8 -219 -73 -331 -257 -137 -226 -195 -309 -269 -381
-65 -64 -94 -84 -196 -133 -183 -89 -184 -90 -225 -125 -54 -45 -84 -111 -77
-168 8 -77 50 -107 202 -148 94 -25 93 -23 94 -171 1 -159 -31 -269 -126 -432
-29 -51 -55 -93 -57 -93 -12 0 -120 42 -156 60 -149 76 -336 243 -437 391
-137 200 -241 475 -274 724 -20 151 -2 272 72 496 17 52 52 182 78 289 26 107
59 215 72 240 l24 45 6 -100 c13 -215 79 -349 202 -412 92 -46 216 -29 289 39
l26 25 64 -64 63 -64 7 38 c8 41 -5 204 -22 278 -43 192 -153 383 -270 469
-132 98 -267 85 -375 -36 l-47 -53 4 76 c6 93 43 168 102 208 110 73 305 15
481 -142 36 -32 65 -55 65 -52 0 4 -23 52 -52 108 -115 224 -320 361 -490 327
-33 -6 -62 -9 -66 -6 -11 12 80 176 152 273 112 150 219 244 388 339 l61 35
91 -88 c50 -48 133 -126 184 -172 173 -156 244 -275 293 -493 35 -156 66 -243
117 -327 77 -127 159 -207 265 -258 56 -27 127 -49 127 -38 0 2 -25 37 -55 77
-65 86 -155 264 -183 363 -12 39 -30 124 -43 190 -54 298 -132 431 -399 685
-214 204 -287 303 -363 495 -59 147 -105 345 -82 345 14 0 114 -56 150 -83 83
-64 162 -138 215 -201 51 -60 56 -63 64 -43 14 36 9 256 -7 342 -9 44 -29 134
-46 200 -43 174 -72 395 -52 395 5 0 39 -29 75 -65 114 -112 213 -286 281
-492 26 -79 86 -365 102 -483 l9 -65 21 48 c38 82 90 257 109 362 21 121 24
436 5 590 -12 97 -56 367 -68 413 -8 32 7 28 74 -21z m-1153 -2978 c31 -37 33
-77 5 -113 -42 -54 -129 -16 -129 57 0 81 75 114 124 56z m2706 9 c28 -31 28
-100 -2 -128 -32 -29 -81 -27 -107 6 -28 36 -26 76 5 113 31 38 74 41 104 9z
m-1344 -567 c41 -25 69 -63 136 -186 31 -55 64 -114 74 -131 l18 -32 -38 -55
c-32 -46 -39 -66 -43 -119 -5 -75 17 -131 55 -136 31 -5 91 36 122 82 14 20
30 36 35 36 6 0 41 -21 79 -46 71 -48 164 -93 274 -134 35 -12 60 -26 55 -30
-4 -4 -34 -12 -66 -18 -144 -28 -260 -96 -392 -227 -114 -113 -229 -278 -310
-443 -27 -55 -52 -101 -55 -101 -3 -1 -34 56 -70 125 -36 70 -92 168 -125 218
-76 117 -236 279 -330 334 -73 43 -235 102 -279 102 -46 0 -28 17 57 50 119
47 230 103 275 139 22 17 44 31 49 31 5 0 31 -25 57 -55 52 -61 84 -75 119
-52 24 15 47 75 47 118 -1 39 -25 95 -59 138 l-33 41 20 27 c10 16 48 81 82
146 98 182 163 229 246 178z m1954 -1088 c67 -535 203 -1162 339 -1553 76
-220 235 -582 290 -659 41 -56 18 -55 -77 4 -213 130 -339 297 -578 762 l-94
182 0 -57 c0 -159 51 -425 139 -732 93 -325 96 -342 96 -535 0 -135 -4 -184
-19 -240 -46 -170 -126 -313 -245 -437 -40 -43 -78 -78 -82 -78 -5 0 -9 13 -9
29 0 54 -40 229 -79 342 -49 147 -102 267 -176 404 l-60 110 -7 -105 c-24
-358 -137 -615 -363 -829 -111 -105 -222 -173 -540 -331 -250 -124 -461 -246
-521 -301 -21 -20 -21 -20 -100 37 -119 85 -215 138 -494 276 -140 69 -298
154 -350 189 -302 203 -475 483 -519 844 -6 50 -11 119 -11 155 l0 65 -19 -24
c-32 -42 -128 -232 -175 -347 -71 -173 -126 -382 -126 -476 0 -21 -5 -38 -10
-38 -19 0 -100 82 -159 160 -167 221 -232 500 -183 785 12 66 37 174 57 240
53 180 131 487 149 595 9 52 19 142 22 200 l6 105 -20 -31 c-11 -18 -66 -122
-121 -231 -135 -268 -236 -419 -371 -553 -65 -65 -132 -121 -175 -146 -38 -23
-71 -40 -73 -39 -2 2 22 54 54 116 271 540 454 1228 585 2197 7 50 16 92 21
92 4 0 8 -8 8 -17 0 -34 87 -211 153 -311 118 -181 280 -328 460 -418 89 -45
214 -84 269 -84 15 0 28 -2 28 -4 0 -2 -25 -44 -56 -92 -111 -177 -206 -399
-237 -559 -96 -482 109 -862 522 -971 76 -20 243 -19 323 1 158 41 302 156
370 295 64 129 73 180 73 395 -1 176 -5 216 -53 539 -28 193 -50 351 -48 354
2 2 25 -13 50 -32 48 -36 102 -57 133 -51 10 2 30 6 45 9 14 3 47 22 73 42 26
19 48 34 50 32 1 -2 -19 -154 -46 -338 -75 -515 -76 -703 -8 -885 48 -129 158
-253 274 -310 110 -55 180 -68 320 -63 197 8 319 62 461 204 65 66 89 98 126
175 64 129 83 221 82 384 -2 142 -18 236 -65 380 -37 111 -119 281 -194 399
-31 49 -54 89 -53 90 2 1 36 8 77 14 190 31 426 179 577 361 80 97 185 274
226 381 18 48 34 87 36 85 2 -2 12 -70 22 -152z m-2480 -103 c41 -42 93 -103
115 -135 22 -33 53 -77 69 -98 15 -21 26 -40 24 -42 -11 -11 -171 101 -221
154 -54 59 -109 155 -123 215 l-7 30 34 -24 c19 -14 68 -58 109 -100z m1064
69 c-43 -122 -125 -225 -245 -305 -70 -46 -104 -58 -77 -26 8 9 26 38 41 63
58 101 247 307 283 309 8 0 8 -12 -2 -41z m-1146 -400 c32 -27 75 -62 98 -76
l41 -26 6 -141 c4 -78 18 -217 32 -311 97 -636 99 -787 18 -937 -69 -127 -239
-198 -406 -170 -190 32 -328 164 -378 362 -40 156 -13 366 72 578 29 74 138
286 144 280 2 -2 -1 -25 -5 -53 -19 -113 -8 -276 32 -455 25 -109 25 -108 54
70 22 137 63 306 124 510 52 175 100 366 100 400 0 11 3 20 6 20 3 0 31 -23
62 -51z m1172 12 c0 -38 48 -223 114 -436 59 -190 97 -357 117 -518 7 -53 16
-94 20 -90 10 11 47 166 59 248 11 82 12 220 1 288 -4 26 -5 47 -1 47 9 0 125
-234 155 -315 119 -319 92 -603 -74 -765 -140 -137 -334 -175 -503 -97 -150
68 -208 190 -209 432 0 126 9 211 66 610 14 99 30 248 37 331 l12 151 50 36
c28 20 71 55 96 76 25 21 48 37 53 34 4 -2 7 -17 7 -32z"/>
<path d="M4015 5714 c-129 -60 -292 -70 -385 -25 -24 11 -45 19 -48 16 -11
-10 36 -110 66 -141 43 -44 68 -54 143 -54 76 0 134 27 192 89 40 43 94 129
85 136 -2 1 -26 -8 -53 -21z"/>
<path d="M6133 5690 c72 -121 157 -180 259 -181 97 -2 170 52 202 149 15 44
15 44 -7 37 -103 -32 -127 -36 -207 -32 -57 3 -110 13 -160 31 -125 45 -116
45 -87 -4z"/>
</g>
</svg>
