<?xml version="1.0" standalone="no"?>
<!DOCTYPE svg PUBLIC "-//W3C//DTD SVG 20010904//EN"
 "http://www.w3.org/TR/2001/REC-SVG-20010904/DTD/svg10.dtd">
<svg version="1.0" xmlns="http://www.w3.org/2000/svg"
 width="1024.000000pt" height="1024.000000pt" viewBox="0 0 1024.000000 1024.000000"
 preserveAspectRatio="xMidYMid meet">

<g transform="translate(0.000000,1024.000000) scale(0.100000,-0.100000)"
fill="#000000" stroke="none">
<path d="M2371 9397 c-99 -53 -243 -208 -347 -373 -144 -230 -213 -523 -185
-781 30 -277 125 -471 330 -673 199 -197 442 -334 761 -428 97 -28 263 -66
335 -75 17 -2 30 -8 30 -13 0 -5 -15 -39 -34 -76 -33 -65 -36 -68 -71 -68 -47
0 -164 40 -379 129 -330 138 -506 190 -711 211 -389 41 -811 -107 -1092 -382
l-81 -79 6 -47 c7 -61 98 -239 185 -362 83 -118 257 -295 377 -383 331 -245
737 -326 1104 -221 167 48 379 170 480 278 40 41 66 46 75 14 3 -13 6 -126 6
-253 0 -353 20 -525 81 -705 20 -59 22 -94 29 -385 5 -200 14 -365 24 -440 44
-319 159 -585 363 -837 l54 -66 -18 -59 c-22 -73 -24 -246 -4 -318 39 -140
140 -255 281 -323 83 -39 86 -42 117 -105 108 -219 344 -367 704 -439 97 -19
145 -22 329 -22 303 -1 481 34 686 134 176 85 307 210 365 346 19 47 25 51
112 93 243 116 342 344 272 623 l-17 67 39 48 c107 130 217 313 271 453 90
235 112 386 122 820 6 279 10 343 24 380 27 72 64 228 75 320 6 46 11 188 11
315 1 234 10 359 29 378 7 7 33 -12 84 -59 135 -124 311 -220 504 -271 88 -23
117 -26 273 -27 202 0 288 15 462 83 308 121 586 365 776 681 57 96 112 218
112 250 0 106 -348 352 -620 438 -394 125 -717 86 -1290 -158 -255 -108 -350
-139 -377 -122 -6 4 -27 40 -47 79 -36 72 -36 73 -14 77 400 80 649 173 890
332 118 78 311 263 373 359 124 190 178 372 178 605 0 330 -145 671 -392 919
-104 105 -163 141 -230 141 -56 0 -77 -13 -91 -55 -9 -27 -8 -46 4 -92 65
-241 66 -245 66 -348 0 -358 -230 -622 -668 -764 -171 -56 -290 -76 -463 -76
-140 0 -147 1 -185 26 -181 120 -432 189 -682 189 -132 0 -202 -10 -407 -56
-146 -33 -169 -36 -265 -30 -58 3 -148 15 -200 26 -284 63 -446 74 -630 45
-181 -30 -307 -73 -440 -154 l-75 -46 -165 1 c-127 1 -188 6 -266 23 -277 58
-515 179 -661 335 -187 200 -235 453 -143 746 36 114 38 167 9 204 -27 35 -95
36 -158 3z m-85 -500 c2 -188 52 -361 147 -504 55 -83 187 -212 277 -271 204
-135 482 -224 748 -239 56 -3 102 -8 102 -11 0 -2 -13 -21 -28 -41 -39 -50
-65 -96 -93 -165 l-24 -58 -56 6 c-73 9 -219 48 -316 86 -42 16 -78 28 -80 26
-2 -2 17 -26 42 -54 59 -66 168 -138 270 -179 44 -18 80 -38 80 -45 0 -7 -7
-48 -15 -90 l-14 -78 -32 0 c-51 0 -292 64 -395 105 -228 91 -390 193 -535
339 -132 132 -204 245 -260 408 -68 202 -55 460 36 664 29 64 128 224 140 224
3 0 5 -55 6 -123z m5783 -37 c174 -338 153 -676 -61 -987 -185 -268 -563 -493
-966 -574 -62 -12 -114 -20 -117 -17 -3 3 -10 32 -16 64 -5 33 -12 73 -15 89
-5 29 -4 31 69 58 41 16 102 46 135 68 62 40 172 142 172 159 0 5 -24 -2 -53
-15 -70 -30 -257 -82 -328 -90 l-56 -7 -18 49 c-22 58 -88 175 -109 193 -27
22 -18 30 35 30 139 0 398 56 557 121 431 175 666 496 666 908 l0 113 28 -33
c15 -19 50 -77 77 -129z m-3255 -814 c182 -44 301 -59 381 -51 33 4 134 25
225 48 159 40 171 42 320 41 161 0 215 -8 360 -51 110 -33 158 -55 257 -120
112 -73 199 -170 257 -285 44 -87 96 -259 96 -315 0 -23 -1 -23 -28 -9 -87 45
-256 46 -346 2 -87 -43 -86 -51 7 -52 140 -3 266 -63 348 -166 l42 -53 -99 -6
c-210 -14 -371 -86 -515 -232 -176 -178 -296 -463 -323 -767 -6 -65 -6 -65 14
25 101 461 326 752 635 820 209 47 401 -18 470 -159 27 -56 44 -171 31 -220
l-7 -27 -42 26 c-24 14 -71 29 -105 33 -139 19 -262 -26 -371 -135 -78 -78
-126 -159 -186 -314 -27 -68 -68 -147 -108 -207 -36 -53 -74 -115 -85 -137
-40 -81 -52 -213 -29 -335 l12 -65 32 101 c46 143 107 231 206 298 l39 25 50
-34 c53 -37 132 -65 182 -65 88 0 181 55 225 132 40 69 39 77 -6 38 -119 -105
-276 -105 -353 1 -16 23 -30 51 -30 61 0 16 5 14 27 -13 36 -42 116 -79 173
-78 134 1 222 87 252 249 12 64 23 74 38 38 11 -29 30 -310 30 -448 -1 -250
-33 -364 -186 -668 -165 -324 -219 -494 -212 -657 l3 -70 34 90 c46 122 213
448 222 432 8 -13 -5 -229 -21 -352 -14 -104 -52 -264 -83 -345 -53 -142 -191
-381 -201 -349 -2 7 -19 61 -37 119 -23 71 -80 198 -180 395 -267 528 -363
787 -409 1099 -10 70 -21 130 -23 133 -3 2 -8 -40 -12 -94 -23 -305 47 -664
193 -986 19 -42 32 -80 29 -83 -3 -3 -20 2 -37 11 -64 33 -128 47 -245 52
-107 5 -139 2 -295 -28 -238 -45 -380 -45 -633 0 -256 45 -393 39 -516 -23
-28 -15 -51 -25 -51 -23 0 2 12 28 26 58 154 319 244 793 202 1066 l-12 78
-12 -106 c-32 -276 -157 -647 -337 -999 -50 -96 -118 -230 -153 -298 -35 -67
-82 -180 -104 -250 -23 -70 -43 -128 -45 -130 -6 -6 -94 136 -134 216 -87 173
-143 396 -161 641 -17 236 -17 222 -3 208 18 -18 184 -349 227 -452 l37 -90
-5 105 c-10 207 -60 354 -228 670 -150 283 -181 447 -158 838 13 213 21 269
39 258 4 -3 11 -28 15 -56 14 -106 69 -183 161 -226 90 -42 183 -26 253 43 44
45 51 43 28 -10 -52 -126 -235 -141 -366 -31 l-32 28 26 -51 c74 -147 253
-184 399 -83 l59 41 55 -41 c87 -66 150 -167 194 -310 21 -69 23 -73 30 -45 3
17 7 83 8 148 1 150 -16 205 -109 344 -43 65 -83 141 -110 210 -67 173 -113
253 -188 327 -75 75 -158 122 -242 135 -76 12 -184 -3 -236 -34 -23 -14 -45
-25 -48 -25 -12 0 -5 159 9 207 41 139 192 222 384 210 159 -9 302 -79 425
-207 153 -161 256 -372 302 -620 9 -50 18 -90 21 -90 12 0 -12 156 -43 277
-92 362 -250 587 -500 709 -101 49 -206 74 -316 74 l-70 0 38 47 c52 64 79 87
144 122 67 36 114 49 204 55 37 3 71 7 74 10 3 3 -25 20 -62 37 -103 48 -250
50 -360 4 -18 -8 -19 -5 -12 44 27 203 151 424 303 537 112 84 290 157 461
189 132 25 327 14 506 -29z m-2674 -1020 c113 -18 306 -74 404 -120 l71 -32
-144 4 c-208 7 -308 -16 -588 -132 -62 -25 -146 -53 -188 -63 -88 -19 -84 -25
34 -47 110 -21 142 -20 296 9 176 33 365 50 440 40 37 -5 50 -10 35 -13 -59
-8 -179 -47 -240 -76 -124 -60 -240 -128 -234 -137 9 -16 195 -9 309 12 127
23 405 38 405 22 0 -6 -16 -14 -35 -17 -33 -7 -249 -112 -309 -151 -26 -17
-27 -20 -10 -26 38 -15 169 -8 310 16 147 25 224 31 224 18 0 -12 -110 -136
-155 -175 -307 -269 -753 -264 -1145 11 -92 64 -233 202 -303 296 -65 87 -127
202 -127 236 0 113 335 297 595 328 112 13 253 12 355 -3z m6305 4 c39 -6 106
-20 150 -31 208 -53 440 -191 461 -274 16 -63 -98 -248 -241 -391 -344 -347
-783 -467 -1131 -309 -39 18 -98 51 -130 73 -79 54 -224 205 -224 233 0 16 81
9 219 -16 132 -25 229 -31 290 -19 17 4 31 10 31 13 0 12 -334 171 -358 171
-13 0 -20 4 -17 10 12 19 218 11 369 -15 139 -24 284 -32 335 -18 20 5 13 11
-55 50 -145 80 -246 125 -337 148 l-91 23 90 6 c103 8 216 -3 432 -41 140 -25
160 -26 240 -16 48 6 101 18 119 25 l32 14 -117 36 c-64 19 -182 60 -262 91
-80 30 -180 62 -222 71 -85 18 -288 21 -353 6 -22 -5 -41 -7 -43 -5 -2 2 27
19 64 38 94 47 261 103 364 120 100 18 286 21 385 7z m-4802 -639 c66 -26 139
-93 176 -161 l25 -45 -57 52 c-85 77 -145 97 -287 98 -100 0 -121 -3 -157 -22
l-42 -22 9 25 c20 51 33 66 73 85 57 26 179 22 260 -10z m3234 3 c23 -17 66
-83 59 -91 -1 -1 -22 5 -46 15 -31 11 -77 16 -150 17 -97 0 -110 -2 -170 -31
-36 -17 -87 -51 -115 -75 l-49 -44 23 40 c49 82 109 134 200 172 74 31 204 30
248 -3z m-3187 -256 c44 -47 -6 -117 -64 -90 -21 9 -26 18 -26 50 0 21 5 43
12 50 19 19 55 14 78 -10z m2952 5 c37 -33 14 -103 -34 -103 -50 0 -73 54 -42
98 18 26 50 28 76 5z m-1862 -1984 c143 -30 170 -33 345 -33 177 0 200 2 343
32 192 41 261 48 347 33 129 -23 242 -99 318 -214 49 -74 104 -219 133 -350
13 -61 39 -170 56 -242 56 -233 39 -370 -55 -450 -97 -83 -234 -99 -437 -51
-578 137 -822 140 -1335 14 -285 -70 -427 -57 -528 51 -78 83 -95 192 -57 366
82 380 117 504 178 620 67 129 192 227 323 255 70 15 202 4 369 -31z m750
-1418 c167 -35 362 -94 380 -115 18 -22 5 -48 -51 -104 -239 -240 -960 -288
-1344 -89 -96 49 -185 132 -185 172 0 22 8 30 53 49 88 39 291 86 512 120 17
2 134 3 260 1 211 -3 242 -6 375 -34z"/>
<path d="M4550 3975 c0 -4 29 -40 65 -79 81 -91 130 -172 157 -260 42 -140 -1
-278 -104 -332 -32 -17 -125 -18 -165 -3 -63 23 -115 98 -127 179 l-6 45 17
-25 c66 -91 108 -120 179 -120 110 0 174 100 130 204 -20 49 -74 104 -132 137
-52 30 -68 52 -93 131 -15 47 -63 88 -103 88 -132 0 -166 -347 -51 -537 74
-125 160 -183 268 -183 145 1 262 112 273 261 9 135 -49 279 -158 389 -58 58
-150 122 -150 105z"/>
<path d="M5638 3941 c-224 -142 -321 -473 -186 -627 72 -82 185 -113 287 -79
101 33 199 150 247 295 24 73 25 224 1 302 -42 137 -167 143 -211 10 -22 -66
-39 -87 -103 -128 -75 -48 -111 -89 -128 -148 -32 -106 30 -186 142 -186 62 0
120 36 159 97 15 24 29 42 31 40 2 -2 -2 -27 -8 -55 -22 -106 -104 -172 -210
-172 -199 1 -263 250 -123 481 19 31 64 89 100 128 36 39 62 71 57 71 -5 0
-30 -13 -55 -29z"/>
<path d="M5590 2599 c-152 -38 -539 -50 -760 -24 -69 8 -147 17 -175 20 l-50
6 55 -27 c30 -14 107 -40 170 -56 107 -29 128 -31 295 -32 167 -1 188 1 285
27 109 29 220 74 220 88 0 5 -1 9 -2 8 -2 -1 -19 -5 -38 -10z"/>
</g>
</svg>
