<?xml version="1.0" standalone="no"?>
<!DOCTYPE svg PUBLIC "-//W3C//DTD SVG 20010904//EN"
 "http://www.w3.org/TR/2001/REC-SVG-20010904/DTD/svg10.dtd">
<svg version="1.0" xmlns="http://www.w3.org/2000/svg"
 width="1024.000000pt" height="1024.000000pt" viewBox="0 0 1024.000000 1024.000000"
 preserveAspectRatio="xMidYMid meet">

<g transform="translate(0.000000,1024.000000) scale(0.100000,-0.100000)"
fill="#000000" stroke="none">
<path d="M1864 9594 c-27 -107 89 -328 266 -505 113 -114 160 -150 406 -315
258 -173 290 -199 439 -348 253 -253 402 -522 489 -879 33 -135 66 -324 66
-380 0 -16 -39 -85 -101 -180 l-102 -153 -101 102 c-256 258 -562 373 -1116
419 -484 40 -703 95 -965 240 -111 62 -134 70 -165 60 -40 -13 -53 -67 -51
-219 5 -617 255 -1133 716 -1476 300 -223 746 -371 1285 -425 91 -10 170 -18
176 -20 6 -2 21 -54 33 -117 26 -133 70 -267 117 -358 l34 -65 10 -300 c20
-575 46 -735 165 -980 62 -129 135 -243 289 -449 240 -322 331 -480 488 -846
l80 -185 2 -165 c4 -242 33 -357 156 -620 90 -191 121 -271 160 -413 l33 -118
17 38 c9 21 30 75 46 120 16 46 32 82 35 80 7 -3 237 -344 303 -450 26 -42 52
-75 56 -72 4 3 29 40 56 82 26 43 96 151 156 240 59 89 111 169 114 177 7 18
24 22 24 5 0 -12 80 -200 91 -212 3 -5 10 9 14 30 16 86 92 298 162 452 140
305 175 442 172 666 l-3 140 78 185 c159 374 243 519 512 880 158 213 243 350
298 480 93 219 118 377 141 888 l15 344 45 91 c49 103 88 227 112 363 l16 90
181 17 c914 86 1507 430 1811 1052 126 259 197 571 196 863 0 119 -13 175 -44
197 -33 23 -56 19 -132 -26 -288 -169 -504 -230 -915 -259 -319 -23 -458 -42
-613 -86 -293 -82 -514 -218 -669 -411 l-26 -33 -101 153 c-113 170 -110 159
-86 320 59 392 183 701 386 960 145 185 289 312 565 497 93 62 205 141 249
174 102 77 254 223 312 301 103 137 172 332 131 373 -19 19 -52 14 -186 -28
-70 -21 -208 -60 -307 -85 -648 -166 -905 -261 -1245 -460 -488 -285 -766
-622 -1020 -1235 -28 -69 -55 -128 -58 -132 -16 -17 -276 -60 -392 -65 -108
-4 -146 -1 -275 22 -82 14 -164 29 -182 32 -29 5 -35 13 -63 82 -275 668 -509
970 -987 1269 -300 188 -626 312 -1245 473 -150 38 -320 86 -379 105 -131 42
-166 44 -175 8z m858 -470 c674 -234 1044 -494 1345 -944 98 -146 279 -502
267 -522 -3 -5 -20 -8 -37 -8 -88 0 -281 -76 -393 -154 -41 -29 -66 -41 -68
-33 -79 270 -183 544 -261 683 -102 182 -241 355 -385 479 -118 102 -196 157
-402 286 -230 144 -363 235 -422 290 l-51 48 152 -45 c83 -24 198 -60 255 -80z
m5213 118 c-112 -94 -312 -231 -537 -367 -383 -231 -641 -521 -814 -914 -25
-58 -76 -196 -112 -306 -37 -110 -67 -201 -68 -203 -1 -2 -31 18 -67 43 -116
81 -224 125 -400 162 l-37 8 92 185 c297 594 672 945 1262 1180 104 41 364
128 596 198 72 22 99 26 85 14z m-3375 -1814 c30 -5 102 -23 159 -40 317 -91
505 -91 821 0 157 45 215 55 320 55 291 -2 515 -147 732 -473 89 -133 207
-366 181 -356 -108 43 -245 45 -343 6 -157 -62 -299 -219 -411 -454 -45 -96
-113 -285 -105 -294 2 -2 36 44 76 102 40 59 115 151 167 206 148 156 274 230
430 253 60 9 81 8 135 -7 34 -10 77 -28 93 -40 49 -38 91 -140 111 -272 6 -44
5 -47 -12 -40 -283 110 -539 -46 -754 -456 -148 -283 -295 -795 -314 -1098 -4
-47 -3 -78 0 -70 4 8 38 104 75 213 93 268 156 425 238 593 55 113 125 239
147 263 1 1 18 -9 37 -23 185 -142 467 -5 471 229 0 33 -3 77 -8 98 l-8 38 38
-16 c72 -30 84 -49 84 -134 -1 -174 -46 -384 -110 -511 -16 -30 -67 -113 -115
-184 -143 -214 -208 -361 -250 -566 -22 -106 -44 -332 -32 -320 3 3 20 41 37
85 65 163 247 494 263 478 4 -3 5 -29 2 -57 -3 -28 -10 -112 -16 -186 -32
-397 -120 -638 -338 -930 -101 -135 -203 -265 -211 -268 -5 -2 -11 16 -15 40
-12 73 -80 267 -132 378 -43 93 -219 397 -245 425 -6 6 -7 -11 -3 -45 14 -118
37 -226 84 -382 58 -193 78 -287 91 -425 12 -131 0 -244 -36 -319 -78 -166
-315 -287 -562 -288 -91 -1 -105 1 -118 18 -29 41 -10 329 28 419 37 87 169
183 319 232 85 27 115 48 140 95 40 74 12 199 -53 240 -58 37 -112 24 -213
-50 -134 -97 -191 -122 -284 -128 -121 -7 -177 15 -339 131 -67 49 -92 61
-130 64 -83 7 -137 -45 -149 -146 -12 -101 33 -168 135 -202 142 -46 295 -147
331 -218 28 -55 41 -131 48 -281 l6 -136 -29 -23 c-27 -22 -35 -23 -124 -18
-194 12 -361 78 -471 187 -99 98 -114 142 -113 340 1 175 14 254 88 511 55
192 54 191 75 322 20 124 21 124 -66 -13 -144 -226 -234 -419 -286 -610 -17
-63 -33 -117 -35 -120 -2 -3 -12 6 -20 19 -9 14 -59 79 -111 145 -283 363
-379 607 -411 1051 -7 88 -10 176 -8 195 3 34 6 30 79 -95 88 -149 126 -223
181 -350 l39 -90 -5 110 c-14 285 -85 485 -274 771 -110 166 -133 206 -168
302 -30 78 -62 267 -66 383 -3 75 0 90 17 109 21 23 54 43 92 54 22 7 22 6 6
-25 -21 -42 -13 -158 14 -219 27 -60 85 -117 147 -146 95 -44 234 -27 304 39
29 27 35 21 101 -102 104 -192 194 -405 310 -732 83 -238 94 -259 86 -169 -16
171 -72 436 -136 647 -189 622 -461 964 -766 963 -41 -1 -90 -8 -123 -20 -30
-11 -58 -19 -61 -20 -7 0 12 109 30 176 15 56 65 131 103 154 55 33 132 44
218 31 207 -32 411 -200 632 -522 21 -30 38 -49 38 -42 0 22 -72 218 -112 303
-55 118 -157 268 -224 329 -145 133 -317 181 -473 132 -34 -10 -61 -16 -61
-12 1 22 133 263 195 356 128 190 257 316 401 388 159 80 311 100 494 65z
m4506 -165 c-2 -10 -7 -38 -11 -63 -12 -83 -67 -283 -102 -370 -43 -107 -106
-223 -174 -320 -69 -99 -252 -280 -362 -357 -139 -98 -340 -195 -536 -259 -89
-29 -282 -76 -288 -71 -2 3 15 15 39 27 68 35 198 133 253 190 l50 52 -45 -6
c-101 -14 -345 -46 -350 -46 -3 0 45 27 105 59 522 276 831 526 967 783 15 28
26 53 24 55 -1 1 -53 -19 -114 -47 -130 -57 -259 -100 -410 -135 -157 -37
-264 -72 -357 -114 -172 -80 -336 -215 -447 -368 -52 -73 -83 -130 -175 -323
l-22 -45 0 75 c-1 87 -24 251 -46 328 -16 52 -15 53 14 116 108 226 324 424
559 512 124 46 207 61 504 89 269 25 403 47 550 89 107 32 241 88 309 130 63
40 72 42 65 19z m-7763 -46 c201 -99 419 -155 710 -182 357 -34 482 -58 633
-119 172 -70 351 -219 459 -381 93 -139 92 -135 65 -267 -13 -62 -26 -169 -29
-238 l-6 -125 -20 45 c-97 218 -164 326 -270 439 -84 88 -152 142 -260 204
-114 66 -205 99 -422 156 -200 52 -335 98 -470 161 -46 21 -83 37 -83 34 0
-13 85 -152 124 -202 49 -63 184 -197 261 -259 136 -109 450 -304 680 -422 22
-11 36 -20 30 -21 -5 0 -95 11 -199 25 -104 14 -191 23 -193 21 -14 -13 229
-203 310 -241 21 -10 36 -19 35 -20 -6 -6 -184 36 -272 64 -328 105 -547 232
-752 436 -234 233 -371 498 -429 831 -17 98 -18 117 -7 112 4 -2 51 -25 105
-51z m2301 -1508 c40 -60 80 -81 144 -76 58 4 67 -8 32 -43 -14 -14 -33 -20
-66 -20 -86 0 -149 62 -161 159 -7 62 6 103 17 53 4 -18 20 -50 34 -73z m3086
41 c0 -69 -29 -123 -83 -155 -53 -31 -105 -32 -141 -4 -14 11 -26 24 -26 29 0
4 27 10 60 12 39 3 70 11 88 25 34 25 72 80 79 116 9 45 23 31 23 -23z m-2165
-3222 c66 -33 193 -75 285 -93 108 -22 404 -31 523 -16 173 22 365 86 458 152
l31 22 -7 -24 c-4 -13 -30 -69 -58 -124 -42 -83 -65 -115 -136 -185 -158 -158
-339 -221 -568 -199 -278 26 -468 165 -593 432 -22 47 -40 88 -40 92 0 3 12
-2 28 -13 15 -11 50 -31 77 -44z m348 -680 c71 -20 105 -23 262 -22 226 0 294
17 498 122 33 17 -61 -470 -99 -508 -13 -13 -14 -13 -9 1 6 16 -34 194 -59
266 -16 44 -17 42 -45 -72 -34 -134 -70 -235 -121 -340 -51 -104 -166 -278
-181 -273 -14 5 -149 219 -184 293 -41 86 -78 198 -107 327 -12 54 -25 98 -30
98 -10 0 -56 -151 -70 -232 -7 -38 -15 -68 -19 -68 -19 0 -75 273 -85 415 l-7
95 87 -40 c47 -22 123 -50 169 -62z"/>
</g>
</svg>
