<?xml version="1.0" standalone="no"?>
<!DOCTYPE svg PUBLIC "-//W3C//DTD SVG 20010904//EN"
 "http://www.w3.org/TR/2001/REC-SVG-20010904/DTD/svg10.dtd">
<svg version="1.0" xmlns="http://www.w3.org/2000/svg"
 width="1024.000000pt" height="1024.000000pt" viewBox="0 0 1024.000000 1024.000000"
 preserveAspectRatio="xMidYMid meet">

<g transform="translate(0.000000,1024.000000) scale(0.100000,-0.100000)"
fill="#000000" stroke="none">
<path d="M3724 9591 c-42 -26 -86 -84 -138 -183 -168 -317 -219 -758 -132
-1138 48 -208 142 -435 245 -593 28 -43 51 -82 51 -86 0 -17 -165 -115 -235
-139 -45 -16 -104 -27 -165 -31 l-95 -6 72 -46 c40 -25 97 -57 127 -70 41 -18
54 -28 49 -39 -3 -8 -25 -71 -49 -140 -95 -282 -97 -480 -5 -614 l31 -44 -43
-26 c-23 -14 -58 -39 -77 -55 l-35 -30 126 -1 126 0 13 -89 c12 -86 12 -93
-14 -183 -53 -189 -76 -379 -76 -643 0 -471 -132 -1381 -362 -2500 -56 -269
-105 -513 -111 -540 -9 -46 -7 -57 28 -140 328 -800 1076 -1420 1923 -1596
123 -25 174 -25 292 1 235 52 377 103 615 220 347 171 677 432 908 720 152
189 319 469 397 664 l32 78 -27 127 c-206 981 -341 1759 -410 2361 -9 74 -20
176 -26 225 -5 50 -14 230 -19 400 -9 333 -25 467 -75 632 -24 78 -25 87 -14
173 l12 90 120 0 120 0 -19 21 c-10 11 -45 37 -77 56 l-58 36 25 26 c14 14 37
53 53 86 26 56 28 68 28 190 -1 109 -5 148 -29 240 -47 187 -135 389 -250 578
l-43 71 29 49 c171 291 268 638 268 960 -1 279 -54 500 -177 739 -77 149 -131
208 -194 208 -55 0 -144 -77 -255 -222 -184 -239 -312 -505 -360 -744 -22
-115 -19 -111 -67 -67 -138 127 -342 215 -562 244 -259 33 -570 -48 -762 -200
l-49 -38 -17 83 c-60 289 -229 611 -431 822 -114 119 -167 142 -232 103z m106
-326 c191 -221 359 -648 363 -920 1 -79 -3 -98 -28 -158 -17 -38 -34 -67 -40
-66 -5 2 -22 46 -37 98 -15 53 -40 132 -57 176 -48 131 -179 437 -191 449 -18
16 -6 -420 15 -549 15 -97 83 -383 104 -438 9 -23 6 -33 -17 -67 -15 -21 -30
-39 -33 -40 -12 0 -139 279 -173 381 -131 387 -125 794 16 1137 12 29 25 51
29 50 3 -2 26 -25 49 -53z m2669 -29 c72 -172 106 -386 98 -610 -9 -259 -65
-469 -198 -745 -38 -79 -74 -161 -80 -183 -16 -60 -3 -108 53 -200 75 -123
163 -309 202 -430 31 -95 80 -298 73 -305 -2 -1 -31 7 -66 17 -297 93 -572
-141 -663 -565 -21 -101 -36 -393 -24 -489 l8 -59 34 84 c19 46 51 111 71 144
43 71 149 209 190 248 l30 28 16 -24 c35 -54 127 -72 197 -38 46 22 50 15 15
-28 -38 -44 -100 -64 -184 -59 -50 2 -71 0 -71 -8 0 -16 75 -83 106 -94 38
-15 121 -12 154 5 25 13 29 13 35 -2 3 -10 9 -92 12 -183 11 -302 -19 -423
-200 -806 -247 -521 -348 -897 -366 -1364 l-6 -165 -37 50 c-91 122 -155 284
-188 480 -42 250 -45 339 -43 1270 l2 890 -29 -110 c-80 -300 -151 -732 -182
-1110 -18 -224 -15 -624 5 -765 33 -226 84 -392 169 -550 45 -85 89 -145 198
-275 91 -108 129 -173 166 -280 24 -69 28 -96 28 -195 0 -186 -41 -322 -146
-483 -66 -99 -88 -144 -88 -177 0 -20 1 -20 30 -5 38 20 40 19 40 -12 0 -44
-38 -110 -92 -158 -89 -79 -231 -135 -424 -166 -102 -16 -378 -17 -474 -1
-172 28 -337 97 -418 175 -35 34 -82 119 -82 149 0 27 27 33 50 13 11 -10 22
-16 25 -13 11 11 -25 99 -64 157 -60 87 -117 212 -141 306 -67 261 -14 470
176 690 152 176 228 304 289 488 117 353 123 844 20 1572 -32 224 -139 755
-152 755 -3 0 -2 -363 1 -807 7 -791 3 -1008 -24 -1243 -30 -251 -90 -428
-199 -580 l-46 -65 -6 160 c-13 314 -67 602 -167 895 -44 127 -79 211 -197
470 -152 333 -188 453 -201 657 -6 91 8 322 21 343 3 4 18 2 34 -6 67 -33 185
-6 232 55 32 40 25 46 -47 43 -36 -2 -81 -1 -100 2 -35 7 -88 45 -104 77 -10
17 -8 17 25 4 69 -30 161 -10 203 43 18 24 35 10 115 -89 83 -102 147 -208
190 -313 l32 -79 6 59 c11 95 10 258 -2 361 -38 341 -193 601 -407 684 -78 30
-204 37 -268 15 -26 -9 -52 -16 -57 -16 -22 0 30 218 89 377 34 93 40 102 60
97 33 -8 170 15 241 41 103 37 211 105 303 193 49 45 90 82 93 82 13 0 -41
-164 -88 -267 -60 -131 -151 -246 -257 -325 -37 -28 -68 -53 -68 -55 0 -8 185
8 265 24 340 65 697 322 1064 763 76 91 196 261 244 344 l29 51 -7 -44 c-12
-88 -115 -336 -283 -682 -53 -109 -95 -199 -92 -199 2 0 32 17 65 37 228 139
431 347 530 543 44 88 80 192 100 286 9 43 18 81 21 83 2 3 22 -12 43 -33 l38
-37 7 103 c25 373 126 694 304 968 70 109 142 201 152 195 5 -3 22 -39 39 -79z
m-1284 -686 c19 -8 19 -9 -2 -9 -65 -2 -301 -106 -423 -187 -142 -93 -323
-275 -474 -474 -66 -86 -106 -133 -106 -122 0 9 88 182 148 292 147 269 339
430 581 490 80 19 240 25 276 10z m145 -286 c0 -12 -129 -190 -216 -300 -130
-162 -317 -374 -438 -493 l-105 -105 40 119 c89 265 221 467 392 604 113 90
327 204 327 175z m-1522 -1700 c52 -21 99 -69 133 -136 16 -32 29 -60 29 -64
0 -3 -28 23 -63 59 -52 55 -72 68 -121 82 -38 11 -81 16 -122 13 -62 -4 -63
-3 -46 15 40 46 123 59 190 31z m2712 -4 c21 -11 41 -24 44 -29 3 -4 -29 -11
-72 -13 -111 -7 -183 -45 -250 -133 l-23 -30 6 29 c12 54 74 135 129 166 61
35 111 38 166 10z m-2655 -2225 c137 -408 193 -672 202 -950 l6 -160 -37 -97
c-94 -251 -61 -590 80 -822 30 -51 37 -73 45 -150 13 -125 30 -179 87 -266 35
-54 51 -89 56 -125 3 -27 22 -83 41 -123 80 -168 280 -299 525 -343 93 -17
352 -17 440 0 176 33 323 104 426 206 80 79 114 142 137 251 11 53 24 83 55
124 58 76 82 146 89 259 5 89 8 101 45 164 153 257 180 593 68 856 -31 72 -31
76 -25 185 25 426 129 838 351 1391 l69 170 12 -130 c60 -612 199 -1426 394
-2302 49 -221 49 -223 33 -270 -37 -109 -144 -289 -272 -457 -92 -120 -294
-326 -412 -420 -317 -250 -690 -431 -1059 -512 l-123 -27 -130 27 c-226 47
-472 138 -680 253 -435 239 -823 628 -1024 1025 -62 122 -64 136 -38 257 46
210 194 951 238 1191 77 422 148 913 178 1227 l12 131 69 -171 c37 -95 101
-271 142 -392z m933 -2710 c246 -38 543 -25 737 31 44 13 81 21 84 19 17 -18
-136 -117 -229 -149 -110 -36 -225 -50 -359 -43 -139 8 -218 26 -307 69 -61
30 -164 110 -164 127 0 4 32 -3 70 -16 39 -13 114 -30 168 -38z"/>
<path d="M6393 8862 c-6 -15 -39 -94 -72 -177 -78 -190 -151 -404 -194 -570
-30 -114 -32 -134 -21 -160 21 -51 136 -147 149 -125 13 21 66 185 91 278 43
163 65 339 70 557 4 201 -1 250 -23 197z"/>
<path d="M4482 3139 c-136 -68 -195 -325 -126 -545 34 -108 121 -213 191 -230
39 -10 92 5 128 38 90 78 78 240 -30 414 -57 91 -75 134 -75 179 0 47 22 98
51 119 24 17 24 17 5 31 -28 21 -94 18 -144 -6z"/>
<path d="M5613 3148 l-23 -11 34 -37 c65 -72 58 -145 -24 -275 -65 -103 -91
-173 -97 -260 -4 -60 -1 -76 19 -114 30 -57 62 -79 118 -87 39 -5 52 -1 93 25
59 38 115 123 148 223 33 102 34 285 1 369 -53 134 -177 211 -269 167z"/>
</g>
</svg>
