<?xml version="1.0" standalone="no"?>
<!DOCTYPE svg PUBLIC "-//W3C//DTD SVG 20010904//EN"
 "http://www.w3.org/TR/2001/REC-SVG-20010904/DTD/svg10.dtd">
<svg version="1.0" xmlns="http://www.w3.org/2000/svg"
 width="1024.000000pt" height="1024.000000pt" viewBox="0 0 1024.000000 1024.000000"
 preserveAspectRatio="xMidYMid meet">

<g transform="translate(0.000000,1024.000000) scale(0.100000,-0.100000)"
fill="#000000" stroke="none">
<path d="M4915 9643 c-377 -22 -639 -62 -945 -144 -527 -140 -1058 -386 -1475
-682 -385 -273 -741 -633 -1030 -1040 -44 -63 -84 -121 -90 -130 -9 -13 -18
-14 -85 -1 -90 16 -368 18 -460 3 -122 -19 -225 -49 -300 -87 -99 -49 -103
-69 -32 -147 64 -70 79 -114 97 -297 29 -285 75 -435 181 -585 l44 -62 -45
-180 c-55 -226 -99 -483 -121 -716 -20 -216 -23 -639 -5 -835 82 -921 436
-1759 1039 -2465 145 -169 418 -433 587 -569 592 -473 1255 -787 1965 -929
312 -63 512 -81 880 -82 239 0 354 5 475 18 534 60 1006 195 1460 417 757 370
1372 902 1822 1575 384 575 602 1166 700 1900 22 165 26 845 5 1020 -18 159
-59 402 -88 535 -51 227 -160 554 -250 749 -19 41 -34 75 -34 77 0 2 12 4 26
4 32 0 84 50 84 82 0 78 -107 202 -268 310 l-102 69 24 42 c45 77 59 156 53
307 -4 103 -11 158 -31 230 -30 109 -80 220 -120 267 -48 57 -128 53 -164 -6
l-18 -30 -34 106 c-57 180 -119 289 -193 338 -46 31 -82 38 -120 22 -41 -18
-62 -49 -83 -126 -10 -34 -20 -61 -24 -61 -3 0 -12 15 -18 34 -21 57 -110 186
-172 248 -121 121 -244 132 -300 26 l-24 -45 -55 45 c-148 121 -443 292 -691
401 -591 258 -1161 381 -1825 394 -104 2 -212 2 -240 0z m550 -244 c622 -48
1229 -228 1735 -515 63 -36 200 -122 305 -192 208 -139 198 -127 211 -249 l7
-67 -78 67 c-130 111 -218 140 -300 101 -134 -63 -141 -364 -14 -617 12 -23
28 -50 37 -59 14 -16 13 -18 -4 -18 -10 0 -37 5 -59 10 -77 19 -311 69 -375
81 -110 20 -332 15 -423 -9 -111 -30 -229 -95 -301 -165 -33 -33 -62 -55 -63
-50 -2 6 -24 38 -49 72 -39 54 -43 64 -33 84 7 12 29 74 50 137 53 166 93 268
135 352 115 228 286 388 476 443 31 9 114 21 185 28 149 14 157 22 85 80 -54
43 -159 89 -270 119 -110 29 -316 29 -426 -1 -109 -29 -265 -106 -361 -178
-137 -102 -291 -280 -397 -458 -61 -102 -128 -238 -128 -259 0 -8 -3 -17 -7
-19 -5 -3 -92 -12 -194 -22 -146 -13 -207 -14 -286 -6 -55 6 -127 13 -159 16
-117 12 -121 13 -134 48 -105 267 -346 579 -561 725 -189 127 -360 182 -568
182 -60 0 -91 4 -85 9 16 17 153 72 302 122 448 152 996 234 1472 222 80 -2
204 -9 275 -14z m-1752 -548 c58 -20 176 -79 212 -107 19 -14 19 -16 -23 -54
l-43 -40 -87 89 c-48 49 -105 98 -127 109 -36 19 -38 21 -14 22 14 0 51 -9 82
-19z m2722 9 c-3 -5 -10 -10 -16 -10 -20 0 -111 -74 -162 -132 l-53 -60 -47
32 c-25 19 -44 37 -41 41 11 18 142 84 218 110 88 30 111 35 101 19z m-3120
-55 c141 -38 275 -126 368 -240 90 -111 195 -367 267 -650 l23 -90 -28 -45
c-16 -25 -30 -47 -32 -49 -1 -2 -21 13 -45 32 -132 107 -277 167 -453 188
-126 15 -261 1 -505 -52 -197 -43 -275 -50 -422 -35 -85 9 -87 8 -112 -17 -31
-32 -34 -73 -7 -125 21 -40 149 -197 245 -300 32 -34 57 -64 55 -66 -2 -1 -68
-8 -145 -14 -244 -20 -426 -62 -584 -133 -36 -17 -66 -26 -68 -21 -1 5 -24 46
-50 90 -57 99 -104 156 -182 221 l-59 49 26 39 c317 471 799 932 1248 1193
l90 52 155 -6 c94 -3 179 -12 215 -21z m4636 -170 c24 -25 83 -109 131 -188
48 -78 100 -162 115 -187 16 -25 44 -54 65 -65 35 -18 40 -19 65 -5 41 22 60
72 76 190 l14 105 22 -50 c12 -27 51 -135 87 -239 35 -104 69 -195 75 -203 33
-39 111 4 149 83 13 25 26 42 30 37 16 -17 61 -215 72 -314 12 -113 4 -167
-31 -210 l-18 -23 -49 40 c-124 103 -278 186 -409 220 -104 28 -294 24 -395
-6 -107 -33 -170 -31 -252 7 -181 85 -272 267 -259 521 1 12 5 22 10 22 4 0
46 -34 92 -75 146 -131 195 -165 243 -165 95 0 121 61 120 272 -1 80 -4 176
-8 212 -4 38 -3 66 2 66 5 0 29 -20 53 -45z m-1850 -39 c16 -15 29 -32 29 -37
0 -5 -19 -45 -43 -89 l-43 -79 -70 50 c-38 28 -80 55 -94 61 -24 9 -23 11 52
84 l77 76 31 -19 c17 -10 44 -31 61 -47z m-1994 -8 c35 -34 63 -67 63 -73 -1
-5 -23 -21 -51 -33 -27 -13 -63 -35 -78 -48 -16 -13 -33 -24 -37 -24 -9 0 -85
138 -84 152 0 11 100 88 113 88 6 0 40 -28 74 -62z m202 -242 c28 -41 51 -78
51 -83 0 -4 -24 -16 -53 -25 -67 -21 -133 -51 -175 -78 l-32 -22 -25 56 c-41
93 -41 97 9 134 50 37 146 92 162 92 6 0 35 -33 63 -74z m1536 48 c70 -37 145
-93 145 -109 0 -7 -8 -32 -19 -56 -10 -24 -21 -52 -24 -61 -6 -16 -11 -15 -53
11 -25 16 -80 42 -122 57 -43 15 -79 29 -81 30 -5 4 92 154 99 154 3 0 28 -12
55 -26z m-1419 -251 c20 -27 17 -43 -9 -43 -34 0 -120 -31 -204 -74 -82 -41
-83 -41 -83 -21 0 42 170 136 279 154 2 1 10 -7 17 -16z m1285 1 c30 -9 80
-30 111 -46 104 -55 113 -116 9 -64 -28 15 -88 39 -134 54 -79 27 -83 30 -74
50 12 26 18 27 88 6z m-916 -224 c144 -24 327 -26 444 -5 214 38 360 26 498
-39 87 -42 192 -140 235 -221 55 -103 107 -343 108 -491 l0 -61 -46 23 c-68
35 -107 39 -160 19 -113 -43 -178 -168 -215 -410 -32 -220 -29 -224 63 -59 26
47 31 52 82 63 98 22 154 78 181 181 11 42 14 45 41 42 16 -2 32 -7 36 -10 12
-12 -29 -262 -68 -422 -53 -216 -116 -395 -297 -846 -276 -686 -343 -831 -472
-1024 -65 -97 -182 -240 -197 -240 -4 0 -8 16 -8 36 0 44 -25 156 -49 220
l-19 48 -40 -79 c-22 -44 -54 -95 -70 -114 l-29 -35 -6 75 c-8 108 -47 229
-136 423 -109 238 -145 321 -206 476 -64 165 -219 540 -310 750 -117 270 -191
524 -198 684 -2 48 -1 49 32 58 46 13 61 4 61 -34 1 -47 31 -108 73 -145 33
-29 71 -44 132 -55 11 -2 43 -36 73 -78 30 -41 58 -77 64 -79 24 -8 -28 275
-71 386 -16 39 -43 90 -60 112 -36 46 -102 81 -152 81 -37 0 -112 -31 -143
-58 -18 -17 -19 -15 -13 98 21 401 195 664 483 734 84 20 219 19 359 -4z
m2075 -155 c36 -3 135 -20 220 -37 98 -20 187 -32 243 -32 48 -1 87 -2 87 -4
0 -11 -140 -173 -224 -260 -219 -225 -422 -328 -666 -339 -110 -5 -238 7 -269
26 -38 24 92 169 210 234 94 52 191 84 363 117 202 40 276 65 276 93 0 11
-259 2 -383 -14 -171 -22 -329 -80 -433 -159 -29 -22 -55 -40 -58 -40 -2 0
-10 31 -17 69 l-12 70 31 48 c60 94 155 166 267 203 58 19 233 40 280 34 11
-2 49 -6 85 -9z m-3396 -10 c104 -22 221 -83 300 -157 l67 -63 -14 -65 c-8
-36 -18 -82 -22 -103 l-6 -38 -37 33 c-87 78 -184 132 -321 178 -97 33 -296
70 -369 70 l-47 -1 30 -24 c30 -25 98 -54 280 -120 127 -47 231 -102 312 -166
70 -57 138 -133 129 -147 -10 -16 -167 -37 -271 -36 -279 4 -460 112 -784 472
l-83 92 48 0 c54 0 159 17 339 54 167 34 158 33 275 34 59 1 135 -5 174 -13z
m4187 -106 c19 -6 40 -13 48 -15 10 -3 -4 -24 -46 -67 -216 -223 -459 -609
-603 -959 -13 -32 -28 -58 -34 -58 -34 0 -88 -25 -126 -57 -62 -53 -90 -119
-90 -214 0 -86 29 -198 60 -229 19 -19 17 -20 -65 -64 -212 -112 -360 -244
-523 -464 -64 -86 -150 -222 -195 -305 -14 -27 -27 -44 -30 -40 -10 15 -56
336 -67 458 -20 242 -18 263 55 478 100 296 156 537 180 778 l6 56 52 -15 c73
-20 304 -27 392 -12 316 56 643 301 884 663 29 42 56 77 60 77 4 0 23 -5 42
-11z m648 -4 c73 -18 208 -78 274 -124 25 -17 70 -53 101 -82 66 -60 70 -80
27 -155 -39 -67 -76 -98 -196 -164 -58 -32 -121 -76 -152 -107 -62 -63 -115
-166 -139 -273 -24 -110 -29 -120 -61 -120 -74 1 -178 80 -223 169 -30 62 -60
169 -60 220 0 20 -4 31 -12 29 -23 -8 -41 -83 -41 -183 -1 -92 1 -105 30 -167
58 -123 172 -208 279 -208 l51 0 5 -107 c3 -60 15 -144 27 -188 27 -105 88
-518 106 -715 17 -185 19 -488 4 -631 -17 -172 -57 -366 -103 -504 -44 -130
-112 -285 -125 -285 -20 0 -203 131 -266 191 -63 60 -75 77 -103 151 -40 106
-108 224 -168 295 -130 152 -369 273 -569 289 -38 3 -85 7 -104 9 -19 2 -78
-1 -133 -6 -214 -20 -404 -111 -556 -266 -208 -214 -317 -488 -384 -973 -19
-140 -16 -685 5 -918 18 -189 23 -432 10 -432 -5 0 -44 14 -87 31 -91 35 -339
100 -471 123 -173 30 -381 41 -547 28 -83 -7 -180 -17 -215 -24 -34 -6 -66 -8
-70 -5 -3 4 -2 89 5 190 12 194 72 554 95 569 7 4 30 8 52 8 22 0 76 9 120 20
348 87 655 325 928 720 99 144 148 231 297 525 232 458 350 663 492 853 136
183 321 344 475 413 248 113 513 85 674 -72 77 -75 94 -117 94 -234 0 -92 -3
-105 -33 -169 -98 -207 -287 -306 -449 -236 -57 24 -123 88 -150 145 -9 19
-20 35 -24 35 -12 0 -17 -64 -8 -117 15 -97 64 -162 154 -204 49 -24 74 -29
132 -29 l72 0 41 -60 c70 -104 155 -151 273 -152 59 -1 81 4 124 25 125 64
167 202 129 430 -15 90 -29 79 125 96 130 14 195 29 220 50 l22 18 -22 45
c-13 25 -41 66 -63 92 -41 47 -233 183 -301 211 -20 8 -37 17 -37 20 0 2 11
38 25 80 54 159 24 421 -60 536 -54 72 -141 98 -220 65 -37 -16 -45 -13 -45
18 0 36 -57 144 -86 163 -39 25 -101 23 -146 -5 -21 -13 -57 -52 -80 -87 -23
-35 -45 -62 -50 -59 -50 31 109 380 315 689 103 153 177 246 281 351 79 78
117 109 175 137 69 35 80 37 165 37 50 0 120 -7 155 -15z m-7034 -185 c166
-43 302 -152 382 -306 l42 -80 -65 -65 c-131 -129 -225 -287 -277 -469 -29
-97 -25 -96 -138 -60 -159 51 -279 150 -342 280 -44 92 -71 202 -92 375 -19
155 -30 205 -55 263 l-19 43 27 10 c110 42 393 47 537 9z m7710 -240 c40 -28
81 -60 90 -70 18 -20 16 -20 -108 -20 -69 0 -128 4 -131 8 -5 8 61 132 70 132
3 0 39 -23 79 -50z m-6075 -91 c151 -102 283 -161 414 -186 87 -17 318 -13
386 5 19 6 47 13 61 16 l26 6 7 -98 c13 -184 96 -505 167 -645 34 -65 45 -227
31 -427 -12 -171 -39 -364 -68 -490 -15 -66 -18 -71 -38 -66 -153 44 -339 50
-479 17 -263 -63 -482 -238 -606 -487 -48 -96 -74 -174 -106 -318 -34 -149
-105 -265 -250 -406 l-67 -65 -40 45 c-45 50 -178 226 -178 234 0 3 41 6 91 6
103 0 273 34 266 53 -2 7 -51 22 -108 33 -218 45 -392 116 -565 230 -123 81
-360 312 -340 331 3 3 45 -6 93 -20 124 -38 222 -50 343 -44 129 6 199 24 315
81 111 55 191 130 234 219 32 66 51 157 33 157 -6 0 -50 -40 -99 -88 -74 -74
-104 -96 -183 -135 -105 -52 -183 -74 -280 -81 -62 -4 -64 -3 -40 12 14 9 50
41 81 72 195 196 128 583 -150 861 -102 102 -205 159 -320 179 -83 14 -81 9
-56 154 38 215 127 415 245 549 186 210 529 320 1015 326 118 1 121 0 165 -30z
m5849 -133 c69 -36 138 -153 167 -284 29 -131 3 -255 -69 -330 -30 -31 -85
-68 -92 -60 -1 2 -8 50 -15 108 -10 94 -95 534 -106 552 -7 11 28 27 59 28 15
0 41 -7 56 -14z m280 -72 c50 -104 174 -485 225 -694 86 -352 123 -630 133
-995 11 -474 -42 -872 -179 -1325 -123 -410 -317 -804 -585 -1188 -267 -383
-685 -792 -1090 -1066 -149 -100 -331 -211 -337 -205 -3 2 0 24 4 49 14 70 11
274 -5 387 -18 124 -45 234 -92 367 -52 150 -52 139 4 171 262 154 505 411
716 760 43 71 99 171 124 220 25 50 47 92 48 94 2 1 50 -5 107 -15 210 -35
377 -17 490 55 97 62 135 175 78 236 -29 32 -126 82 -226 118 -81 29 -204 83
-204 90 0 3 20 42 44 88 75 140 133 318 176 536 30 153 41 305 41 538 -1 261
-15 417 -62 699 -11 65 -18 120 -16 122 2 2 20 -1 41 -7 90 -25 211 46 247
144 11 31 18 36 68 47 168 37 277 165 300 350 17 133 -19 321 -85 439 -27 49
-30 65 -11 59 6 -2 27 -35 46 -74z m-486 -202 c52 -272 61 -356 48 -443 -18
-110 -45 -149 -106 -149 -103 0 -152 128 -142 373 6 164 33 255 101 352 26 36
50 65 54 65 4 0 24 -89 45 -198z m-1103 -402 c26 -111 50 -160 78 -160 10 0
38 21 62 46 25 25 53 50 63 56 66 35 133 -191 110 -370 l-8 -62 -60 55 c-77
71 -169 126 -270 162 -74 26 -91 28 -232 28 l-153 0 -26 58 c-49 111 -40 217
22 246 36 16 71 -5 124 -74 48 -62 66 -75 105 -75 45 0 64 18 81 78 25 85 52
136 68 123 7 -6 23 -56 36 -111z m-6385 19 c26 -12 88 -29 137 -39 50 -11 92
-21 94 -23 2 -2 1 -39 -3 -83 l-6 -80 -66 -34 c-133 -68 -251 -220 -312 -400
-26 -78 -33 -115 -36 -210 -8 -190 31 -306 134 -400 61 -56 119 -86 210 -109
l66 -17 61 -98 c109 -176 277 -329 501 -458 l110 -63 48 -89 c61 -113 132
-216 202 -294 l55 -60 -117 -86 c-269 -197 -284 -212 -290 -299 -4 -45 0 -59
26 -100 60 -93 189 -148 351 -148 53 0 117 5 142 10 132 30 320 118 573 269
261 156 338 184 443 162 65 -15 111 -45 140 -95 20 -35 23 -49 18 -120 -8
-137 -76 -297 -241 -570 -195 -321 -280 -486 -345 -670 -73 -207 -105 -397
-98 -579 l4 -115 -35 21 c-429 258 -937 745 -1255 1202 -403 578 -657 1280
-725 2006 -33 351 -23 697 30 1015 40 236 116 575 130 575 4 0 28 -9 54 -21z
m485 -394 c114 -30 242 -144 328 -292 57 -97 74 -155 76 -248 1 -131 -53 -221
-171 -280 -88 -44 -147 -50 -286 -32 -67 9 -148 19 -181 22 -103 12 -154 32
-207 85 -61 61 -82 126 -80 251 1 150 62 293 171 400 104 103 210 131 350 94z
m2630 -217 c0 -6 15 -47 34 -92 19 -45 59 -139 89 -211 30 -71 85 -195 122
-275 233 -504 237 -517 239 -740 l1 -155 28 -3 c31 -4 82 24 140 77 l39 35 -7
-40 c-4 -21 -13 -65 -21 -97 -8 -33 -12 -63 -8 -68 21 -34 139 19 261 116 253
202 433 520 728 1280 5 13 13 -23 21 -105 17 -162 39 -273 76 -386 l30 -91
-137 -274 c-161 -322 -187 -371 -273 -504 -208 -323 -479 -562 -754 -665 -55
-20 -202 -60 -224 -60 -9 0 -10 10 -4 38 35 156 40 578 10 785 -34 228 -103
442 -191 590 -51 86 -173 210 -252 258 -31 18 -55 39 -53 45 28 72 86 433 86
532 0 20 4 31 10 27 6 -3 10 -11 10 -17z m3748 -192 c37 -19 87 -49 112 -67
l45 -33 -45 -7 c-25 -3 -85 -10 -134 -14 l-89 -7 7 33 c4 19 10 55 13 82 3 26
10 47 15 47 5 0 39 -15 76 -34z m-149 -369 c25 -142 7 -217 -55 -243 -23 -10
-50 -13 -70 -9 -35 6 -125 62 -131 81 -2 6 16 24 39 39 57 38 144 120 169 162
11 18 24 33 29 33 4 0 13 -28 19 -63z m-3951 -97 c302 -86 472 -316 554 -748
20 -103 23 -150 23 -387 0 -293 -3 -321 -66 -665 -59 -325 -70 -418 -74 -615
l-3 -180 -59 -47 c-100 -82 -137 -139 -98 -154 8 -3 43 3 77 14 487 157 989
143 1558 -44 92 -31 178 -54 195 -52 42 4 62 50 77 177 12 102 6 271 -22 641
-15 195 -12 602 6 735 75 583 274 906 629 1021 107 35 293 44 408 20 266 -55
464 -224 541 -463 l17 -52 -63 -73 c-114 -131 -164 -217 -177 -307 l-6 -46
-115 -7 c-289 -17 -496 -151 -563 -363 -25 -79 -39 -212 -32 -300 17 -196 65
-368 195 -695 188 -473 231 -708 189 -1049 -6 -47 -12 -88 -14 -92 -8 -11
-226 -107 -366 -160 -330 -124 -686 -205 -1109 -250 -179 -20 -693 -17 -875 4
-530 62 -974 191 -1432 416 l-161 79 -9 69 c-12 103 -7 286 11 392 46 262 129
460 370 872 129 220 228 416 262 519 24 73 28 101 28 205 1 116 0 123 -32 186
-57 118 -170 183 -340 196 l-84 6 -88 84 c-49 46 -113 121 -145 168 -68 101
-145 255 -145 289 0 37 48 194 81 265 98 212 288 362 514 407 94 18 249 11
343 -16z m-998 -912 c41 -86 113 -191 185 -266 37 -39 64 -75 61 -81 -15 -24
-390 -244 -518 -304 -143 -66 -232 -90 -343 -91 -122 -1 -175 18 -175 64 0 34
43 74 168 159 239 160 447 352 538 496 26 41 50 75 53 75 4 0 17 -24 31 -52z
m5085 -174 c128 -84 227 -133 415 -209 186 -75 204 -89 154 -122 -22 -14 -53
-18 -158 -21 -160 -4 -247 14 -571 112 -291 89 -266 77 -253 123 20 72 61 138
130 210 l70 72 66 -56 c36 -31 102 -80 147 -109z m-427 -344 c115 -23 313 -78
326 -91 5 -5 -12 -51 -43 -112 -174 -351 -422 -645 -697 -827 l-74 -49 -16 37
c-71 170 -139 411 -155 558 -24 217 30 359 170 442 108 64 302 81 489 42z"/>
<path d="M5345 5984 c-61 -110 -109 -168 -197 -237 -46 -35 -88 -67 -95 -71
-15 -8 -123 56 -210 126 -66 52 -131 130 -170 203 l-21 40 -7 -29 c-14 -52 1
-170 28 -222 30 -57 117 -145 202 -201 87 -59 96 -72 102 -146 6 -71 -12 -121
-47 -132 -34 -11 -125 14 -186 51 -74 45 -112 81 -149 144 -17 27 -33 50 -37
50 -12 0 -21 -69 -14 -116 8 -63 38 -115 92 -163 98 -86 234 -131 399 -131
122 0 206 19 297 67 115 60 185 147 203 250 7 47 -1 103 -16 103 -5 0 -24 -21
-42 -47 -55 -81 -105 -129 -164 -160 -67 -35 -146 -57 -174 -48 -44 14 -64
123 -36 189 8 18 51 58 107 100 105 79 161 146 182 215 16 56 17 189 2 215
-10 17 -16 11 -49 -50z"/>
<path d="M8231 7445 c-73 -62 -53 -186 34 -215 102 -34 190 60 155 164 -25 75
-127 103 -189 51z"/>
<path d="M7293 5695 c-61 -26 -91 -114 -60 -175 7 -13 28 -35 47 -48 85 -58
190 16 177 125 -5 50 -28 80 -74 99 -40 17 -49 17 -90 -1z"/>
<path d="M2780 6431 c-121 -25 -240 -164 -228 -267 l3 -27 50 43 50 43 8 -40
c5 -25 20 -52 43 -74 32 -31 41 -34 93 -34 32 0 70 6 84 14 33 18 67 85 67
134 0 20 5 37 10 37 6 0 33 -11 60 -25 27 -14 52 -25 55 -25 13 0 2 40 -25 86
-35 62 -88 106 -153 128 -51 17 -62 18 -117 7z"/>
<path d="M1587 5679 c-35 -21 -51 -70 -51 -159 1 -145 57 -249 137 -252 20 -1
43 5 52 12 89 74 40 319 -79 391 -36 22 -35 22 -59 8z"/>
<path d="M1209 5647 c-71 -48 -102 -209 -59 -304 22 -50 53 -62 98 -39 59 31
92 102 92 202 0 98 -34 164 -83 164 -8 0 -29 -10 -48 -23z"/>
<path d="M3295 4613 c-63 -16 -105 -78 -105 -155 0 -115 128 -187 221 -125 49
32 83 105 74 157 -15 89 -102 145 -190 123z"/>
<path d="M7042 4480 c-119 -73 -84 -265 52 -287 71 -11 142 35 166 110 40 125
-107 244 -218 177z"/>
<path d="M2743 3953 c-7 -2 -22 -20 -34 -40 -20 -31 -20 -36 -6 -50 14 -14 19
-13 47 15 41 42 36 93 -7 75z"/>
<path d="M7695 3979 c-4 -13 0 -27 11 -40 21 -23 37 -24 55 -3 11 14 10 20
-14 40 -34 29 -44 30 -52 3z"/>
</g>
</svg>
