<?xml version="1.0" standalone="no"?>
<!DOCTYPE svg PUBLIC "-//W3C//DTD SVG 20010904//EN"
 "http://www.w3.org/TR/2001/REC-SVG-20010904/DTD/svg10.dtd">
<svg version="1.0" xmlns="http://www.w3.org/2000/svg"
 width="1024.000000pt" height="1024.000000pt" viewBox="0 0 1024.000000 1024.000000"
 preserveAspectRatio="xMidYMid meet">

<g transform="translate(0.000000,1024.000000) scale(0.100000,-0.100000)"
fill="#000000" stroke="none">
<path d="M2864 9817 c-92 -68 -180 -179 -247 -312 -151 -302 -117 -680 86
-951 63 -83 189 -201 282 -264 82 -55 212 -119 286 -141 42 -13 36 -14 -121
-20 -218 -9 -341 -42 -506 -134 -85 -48 -184 -131 -184 -154 0 -55 206 -277
340 -366 250 -166 539 -181 817 -41 l91 45 37 -85 c66 -154 103 -271 150 -472
26 -108 71 -291 100 -407 50 -196 105 -506 105 -592 l0 -38 -21 35 c-42 69
-198 266 -277 351 -252 269 -559 449 -914 538 -48 12 -115 25 -148 29 l-61 7
-43 95 c-102 225 -303 499 -424 580 -50 33 -95 36 -130 8 -67 -56 -108 -363
-83 -622 l12 -120 -42 -42 -41 -42 -58 67 c-31 36 -90 102 -130 146 -87 96
-273 312 -354 412 -97 121 -132 153 -167 153 -43 0 -66 -15 -88 -59 -34 -65
-44 -161 -38 -336 14 -363 118 -609 341 -812 l57 -53 -111 -142 c-61 -79 -125
-172 -143 -208 -31 -63 -32 -69 -35 -215 l-3 -151 -45 -89 -44 -90 5 130 c10
243 68 629 124 829 l19 69 -65 104 c-35 58 -68 115 -73 129 -5 13 -11 24 -14
24 -5 0 -57 -155 -76 -225 -51 -189 -99 -462 -120 -680 -17 -180 -23 -500 -11
-625 l10 -115 -144 -290 c-79 -159 -149 -308 -154 -330 -18 -67 -12 -116 25
-220 30 -84 37 -120 44 -225 4 -69 15 -144 23 -168 55 -146 197 -237 391 -249
70 -5 97 -11 123 -29 18 -12 58 -33 89 -45 55 -23 57 -25 105 -120 246 -492
713 -1031 1216 -1406 522 -389 1146 -660 1786 -777 285 -52 478 -69 797 -70
311 0 418 8 680 50 778 127 1540 497 2140 1039 662 599 1090 1301 1299 2130
58 231 111 571 111 718 0 47 2 51 70 116 82 80 124 160 145 278 51 279 54 316
31 436 -36 188 -122 338 -378 659 -128 160 -215 286 -276 398 -46 87 -66 146
-82 248 -21 131 -115 276 -297 457 l-111 111 75 85 c211 238 336 452 422 722
70 220 86 322 86 547 0 190 -1 196 -27 252 -46 99 -112 112 -185 35 -58 -62
-244 -304 -567 -741 l-143 -194 -6 196 c-10 363 -93 681 -204 780 -44 39 -71
40 -114 5 -79 -67 -260 -391 -348 -625 -98 -259 -141 -462 -144 -687 -1 -78
-3 -141 -4 -141 -2 0 -26 18 -55 40 -70 54 -193 113 -303 146 -75 22 -118 27
-260 33 -162 6 -168 7 -125 20 84 24 234 105 331 178 162 122 286 273 356 434
52 122 67 196 66 349 0 165 -20 248 -93 397 -93 188 -265 369 -331 348 -37
-12 -42 -41 -20 -113 44 -148 53 -290 26 -397 -80 -316 -384 -505 -870 -541
-90 -6 -91 -6 -155 29 -36 20 -99 46 -140 58 -107 33 -276 32 -512 -4 -246
-38 -377 -35 -688 14 -45 7 -131 9 -215 7 -130 -5 -148 -8 -245 -43 -187 -66
-190 -67 -335 -55 -208 17 -409 66 -540 132 -66 34 -160 104 -207 156 -135
151 -177 372 -114 605 31 116 31 121 10 141 -23 24 -36 20 -100 -27z m-44
-736 c144 -271 459 -440 898 -483 l124 -12 -7 -31 c-3 -16 -9 -85 -13 -151 -5
-78 -12 -127 -21 -138 -44 -53 -403 45 -603 165 -325 195 -459 408 -457 723
l0 121 24 -67 c13 -37 38 -94 55 -127z m4359 53 c2 -205 -64 -358 -219 -515
-173 -174 -397 -291 -664 -346 -122 -25 -122 -25 -129 193 l-4 122 61 6 c422
47 736 228 876 507 27 55 52 116 56 136 12 61 22 13 23 -103z m782 -206 c21
-114 24 -163 23 -343 -1 -288 -24 -392 -161 -748 -35 -92 -67 -183 -70 -202
-5 -33 -4 -35 23 -35 32 0 135 57 194 107 l38 33 72 -30 c94 -39 163 -79 261
-152 160 -118 323 -295 384 -415 14 -29 28 -82 34 -128 12 -95 27 -139 82
-246 51 -99 140 -225 268 -382 376 -462 416 -556 383 -887 -17 -178 -70 -275
-161 -300 -53 -14 -98 -7 -165 27 -64 32 -108 67 -223 174 -135 127 -169 153
-177 133 -17 -44 8 -123 71 -222 40 -64 165 -189 201 -203 39 -15 10 -29 -58
-29 -110 0 -217 80 -303 225 -53 89 -113 148 -214 207 -116 69 -230 110 -482
172 -234 58 -339 99 -436 170 -100 72 -198 221 -245 371 -25 81 -50 267 -50
370 0 48 -5 78 -16 93 -15 22 -17 22 -35 6 -31 -28 -77 -136 -95 -225 -12 -62
-15 -115 -12 -218 5 -117 10 -148 35 -223 37 -108 80 -181 156 -264 59 -64
170 -146 226 -165 17 -6 31 -13 31 -16 0 -5 -57 -166 -92 -263 -9 -24 -10 -23
-37 25 -45 83 -52 91 -103 124 -110 73 -218 90 -436 71 -125 -10 -172 -10
-317 4 -253 23 -386 5 -510 -69 -107 -64 -204 -181 -241 -288 -18 -54 -35 -68
-172 -152 -103 -62 -89 -62 -186 -6 -21 12 -73 34 -115 49 -68 24 -89 26 -211
26 -104 -1 -153 -6 -211 -22 -105 -28 -206 -73 -289 -127 -39 -25 -72 -45 -75
-45 -2 0 -11 24 -21 53 -18 57 -120 319 -179 460 -20 49 -35 90 -33 93 3 2 30
-10 62 -27 39 -21 70 -48 97 -85 47 -64 101 -106 187 -145 110 -51 177 -62
362 -56 238 7 342 43 467 161 65 61 170 132 180 122 3 -2 -7 -44 -21 -93 -54
-185 -80 -343 -57 -343 15 0 141 155 197 240 56 87 190 349 253 495 24 55 90
196 147 314 370 763 750 1280 1109 1510 44 28 87 51 96 51 11 0 29 -29 54 -89
36 -87 65 -131 86 -131 6 0 19 4 29 10 39 21 44 62 45 370 1 172 7 333 14 385
22 157 74 343 149 530 36 91 152 325 161 325 4 0 19 -60 32 -132z m965 -71
c-51 -250 -154 -507 -283 -702 -61 -93 -185 -246 -245 -303 l-34 -32 -65 29
c-35 15 -90 36 -121 45 -32 9 -58 20 -58 24 0 4 50 72 112 152 230 298 643
854 694 935 l19 29 3 -25 c2 -15 -8 -83 -22 -152z m-4271 -193 c296 -44 381
-43 710 6 317 48 519 1 569 -133 12 -31 17 -87 19 -207 l2 -165 39 -85 c85
-188 99 -232 104 -318 6 -109 -9 -180 -73 -342 -66 -168 -91 -255 -156 -534
-42 -186 -109 -498 -109 -514 0 -2 -18 12 -41 32 -98 89 -208 139 -335 151
-39 4 -142 2 -229 -5 -126 -10 -193 -10 -334 0 -158 12 -184 11 -251 -4 -104
-23 -191 -66 -255 -127 l-54 -51 -7 28 c-4 16 -25 94 -46 174 -21 80 -69 267
-107 415 -73 285 -85 326 -150 497 -75 195 -72 312 13 497 78 170 78 171 85
351 8 183 19 221 82 274 104 88 239 103 524 60z m-945 -630 l25 -15 -25 7
c-14 3 -32 10 -40 15 -13 7 -13 8 0 8 8 0 26 -6 40 -15z m-322 -154 c83 -23
166 -63 230 -110 43 -31 43 -32 26 -51 -33 -37 -158 -107 -239 -135 -68 -24
-95 -28 -180 -28 -155 2 -266 51 -401 179 l-69 66 35 19 c47 26 182 69 250 80
87 14 265 4 348 -20z m3543 11 c80 -21 169 -57 169 -69 0 -11 -128 -134 -190
-182 -30 -24 -74 -51 -98 -61 -82 -35 -220 -18 -333 42 -55 30 -159 113 -159
129 0 11 116 85 164 105 135 56 313 71 447 36z m-554 -454 c48 -23 124 -51
168 -62 44 -10 82 -20 84 -21 2 -2 -33 -54 -77 -116 -195 -275 -317 -482 -489
-823 l-115 -230 5 70 c4 39 27 156 52 260 25 105 68 282 95 395 27 113 63 246
80 295 37 108 101 275 105 275 2 0 43 -19 92 -43z m-4030 -442 c114 -191 180
-351 234 -570 36 -147 47 -175 68 -175 25 0 58 38 77 90 12 31 17 77 18 147 1
98 2 102 21 97 58 -18 217 -80 267 -105 137 -69 330 -219 465 -362 277 -295
496 -617 846 -1247 10 -19 28 -49 38 -66 16 -26 17 -36 8 -64 -9 -23 -9 -42
-1 -69 23 -76 189 -245 332 -338 33 -21 59 -43 60 -50 0 -12 -407 -433 -419
-433 -3 0 -14 29 -23 65 -43 163 -179 484 -281 665 -49 86 -145 216 -154 207
-6 -7 54 -262 142 -597 41 -157 86 -338 100 -403 l27 -118 -94 -97 c-285 -296
-505 -656 -599 -982 -47 -160 -78 -413 -49 -395 5 3 40 68 77 143 142 290 276
508 447 727 105 136 254 289 706 726 146 141 288 284 315 318 l50 61 67 -5
c115 -10 241 -6 301 10 118 31 235 105 285 181 35 51 40 89 18 120 -14 19 -17
18 -138 -24 -168 -58 -273 -71 -399 -48 -112 21 -231 74 -330 147 -74 55 -159
143 -159 165 0 18 102 86 178 118 34 15 94 33 133 41 186 39 327 -2 501 -148
155 -131 251 -127 365 15 35 45 72 78 105 96 89 48 90 50 72 102 -49 139 53
327 206 379 83 28 171 32 320 15 114 -13 177 -15 295 -8 208 11 266 9 318 -14
58 -26 89 -68 135 -184 57 -142 84 -181 222 -324 188 -193 210 -253 159 -414
-19 -59 -24 -96 -23 -175 0 -88 5 -113 37 -208 42 -124 167 -379 262 -534 49
-80 62 -108 53 -115 -56 -35 -208 -46 -347 -24 -144 23 -234 21 -288 -5 -82
-40 -133 -133 -133 -241 0 -49 13 -88 29 -88 5 0 32 31 61 70 98 132 131 144
320 115 158 -24 305 -17 410 20 41 14 86 24 99 23 33 -4 71 -76 71 -135 0 -42
0 -43 -35 -43 -74 0 -131 -113 -105 -206 17 -61 53 -88 103 -80 l39 7 -7 -53
c-9 -71 -43 -138 -82 -164 -29 -20 -50 -22 -220 -27 -195 -5 -213 -8 -398 -67
-177 -56 -300 -58 -377 -7 -61 42 -124 135 -190 280 -35 77 -69 142 -75 144
-19 7 -36 -94 -30 -183 2 -46 3 -84 2 -84 -2 0 -16 5 -32 11 -15 6 -122 44
-238 83 -115 40 -244 89 -285 110 -224 111 -367 314 -428 611 -26 126 -39 236
-52 445 -6 91 -13 175 -16 188 -24 87 -93 -99 -114 -307 -13 -133 -13 -235 1
-363 52 -485 309 -776 817 -924 7 -2 -9 -31 -43 -75 -173 -223 -299 -499 -384
-839 -23 -89 -41 -170 -41 -179 0 -21 -44 -32 -243 -61 -227 -33 -421 -43
-697 -37 -455 11 -818 75 -1236 218 -415 142 -755 316 -1047 535 -176 133
-182 140 -201 253 -29 170 -16 394 34 593 12 46 61 202 110 348 90 271 129
413 151 555 18 116 15 370 -5 484 l-17 95 33 24 c74 56 226 221 272 295 98
158 138 297 138 477 0 177 -40 321 -134 477 -53 88 -209 255 -225 240 -3 -4
20 -95 50 -204 71 -250 80 -299 81 -453 1 -148 -20 -237 -87 -365 -50 -95
-197 -250 -289 -304 -32 -18 -126 -57 -210 -86 -261 -89 -404 -168 -565 -307
-109 -95 -177 -181 -239 -303 -72 -140 -117 -199 -169 -224 -48 -23 -106 -31
-112 -15 -2 6 20 40 48 75 69 85 194 348 174 367 -2 2 -17 1 -33 -3 -36 -7
-76 -46 -202 -189 -95 -110 -168 -172 -228 -196 -53 -21 -168 -9 -228 24 -77
42 -96 80 -105 211 -9 127 -19 178 -54 271 -14 36 -25 79 -25 94 0 44 207 443
397 763 102 172 180 326 203 402 18 57 22 93 21 195 -1 120 0 127 28 175 28
47 91 120 271 312 l77 82 5 -102 c5 -107 26 -177 52 -177 8 0 44 56 86 138 40
75 108 192 153 260 l81 122 24 -30 c28 -36 117 -90 150 -90 33 0 29 38 -23
183 -51 146 -68 208 -90 332 -16 92 -23 344 -10 365 9 15 54 -47 142 -195z
m-866 -128 c96 -109 193 -220 216 -245 23 -26 42 -51 43 -55 0 -10 -132 -177
-140 -177 -10 0 -75 72 -117 130 -88 122 -141 241 -167 376 -21 111 -29 191
-18 179 5 -5 87 -99 183 -208z m3433 -504 c64 -3 175 -1 267 7 219 18 307 -2
398 -90 82 -80 116 -188 109 -346 -5 -115 -32 -186 -92 -246 -56 -55 -110 -72
-209 -65 -45 4 -107 14 -137 23 -36 10 -110 18 -210 21 -140 4 -167 2 -280
-21 -165 -34 -222 -34 -290 2 -97 50 -150 158 -150 307 0 272 152 434 395 420
50 -3 139 -8 199 -12z m3036 -879 c210 -40 394 -106 493 -176 15 -11 54 -59
85 -107 121 -185 255 -282 413 -300 82 -9 180 1 234 23 l35 15 0 -39 c0 -58
-27 -257 -56 -405 -95 -493 -297 -978 -589 -1415 -58 -85 -114 -166 -125 -180
l-21 -25 5 30 c24 144 13 257 -35 364 -24 52 -50 85 -132 165 -81 79 -115 121
-155 193 -175 307 -245 559 -195 703 l19 55 80 7 c123 11 181 26 284 75 82 40
108 59 186 138 67 68 100 110 127 165 42 83 45 112 17 157 -47 78 -256 198
-405 234 -154 37 -328 13 -529 -71 -39 -17 -71 -28 -73 -26 -2 2 27 82 65 177
38 96 75 192 82 214 17 53 18 55 38 55 10 0 78 -12 152 -26z m-2767 -16 c64
-12 114 -25 110 -29 -5 -4 -48 -20 -98 -34 -148 -44 -336 -36 -469 20 -21 9
-36 19 -33 22 11 10 232 41 302 42 39 1 123 -9 188 -21z m3064 -525 c70 -30
153 -86 153 -103 0 -5 -27 -39 -61 -75 -95 -101 -254 -172 -370 -163 -41 3
-43 4 -55 48 -17 64 -57 130 -114 187 l-50 50 63 31 c100 49 159 62 267 59 79
-3 108 -9 167 -34z m-5601 -705 c13 -61 19 -202 12 -314 -10 -170 -43 -296
-169 -651 -109 -306 -138 -441 -148 -687 l-6 -159 -115 119 c-226 235 -430
514 -580 794 l-46 86 57 33 c79 46 132 114 201 260 48 102 70 136 125 192 122
126 340 255 547 324 55 19 104 34 108 35 3 0 10 -15 14 -32z m5314 -1887 c0
-5 -35 -22 -77 -37 -69 -26 -91 -29 -191 -28 -73 0 -116 4 -124 12 -9 9 -6 12
13 12 13 1 65 12 114 25 92 24 265 35 265 16z m-918 -45 c179 -98 483 -206
579 -206 l32 0 -39 -31 c-197 -156 -539 -354 -834 -482 -113 -49 -438 -162
-445 -156 -7 7 52 239 81 319 69 192 163 350 264 443 53 49 170 120 229 137
47 15 69 10 133 -24z"/>
<path d="M8058 7127 c-57 -16 -140 -79 -164 -123 -10 -18 -16 -36 -13 -39 3
-3 32 -10 65 -16 66 -12 88 -27 115 -82 29 -56 72 -79 137 -74 33 2 63 12 81
25 l29 21 45 -30 c24 -16 81 -68 126 -115 45 -47 85 -83 88 -80 9 9 -16 120
-41 183 -41 98 -77 155 -142 221 -99 99 -218 139 -326 109z"/>
<path d="M9163 5840 c-54 -22 -84 -125 -64 -213 17 -75 48 -108 150 -161 86
-44 91 -46 101 -27 15 29 12 138 -5 206 -21 79 -64 155 -105 183 -36 24 -44
25 -77 12z"/>
<path d="M4066 7876 c-21 -8 -54 -29 -73 -48 -36 -34 -66 -82 -57 -90 2 -3 26
-2 53 3 45 7 115 -1 128 -15 4 -3 -6 -29 -22 -57 -22 -41 -26 -60 -23 -99 12
-119 114 -170 216 -108 19 12 37 17 42 12 9 -9 77 -215 101 -304 6 -25 31
-130 54 -235 25 -113 44 -182 48 -170 3 11 11 74 18 140 28 280 -19 625 -110
803 -30 58 -85 118 -139 149 -55 33 -174 42 -236 19z"/>
<path d="M5755 7866 c-126 -59 -217 -232 -256 -491 -23 -148 -14 -617 10 -589
4 5 18 63 30 129 34 177 67 313 107 438 20 62 38 114 40 116 2 2 13 -4 24 -14
29 -26 98 -30 140 -7 77 43 99 152 46 232 -15 23 -26 43 -24 45 13 12 88 23
133 18 68 -7 71 5 19 66 -71 83 -170 104 -269 57z"/>
<path d="M2065 5711 c-114 -30 -211 -144 -263 -311 -24 -76 -36 -150 -24 -150
4 0 30 23 57 51 84 85 98 92 176 90 49 -1 81 3 111 17 52 23 64 37 88 99 18
49 32 57 123 77 34 8 34 15 -3 53 -59 61 -184 96 -265 74z"/>
<path d="M6385 4561 c-47 -12 -113 -49 -154 -86 -41 -38 -90 -119 -78 -131 4
-5 29 -2 55 6 26 7 67 15 91 18 40 4 43 2 36 -14 -15 -36 -18 -124 -5 -154 28
-67 120 -111 185 -90 19 6 48 27 65 46 41 48 35 53 250 -214 69 -86 131 -158
139 -160 35 -11 -35 231 -109 380 -145 290 -322 439 -475 399z"/>
<path d="M1131 4449 c-40 -20 -81 -68 -81 -95 0 -8 15 -10 45 -7 75 9 85 -3
31 -39 -26 -17 -59 -49 -74 -72 -33 -52 -56 -145 -48 -190 8 -42 53 -92 90
-102 78 -19 191 68 254 195 32 65 37 84 37 145 0 117 -49 177 -152 183 -45 3
-68 -1 -102 -18z"/>
<path d="M7525 3051 c-55 -23 -80 -109 -55 -186 36 -110 166 -171 237 -111 68
57 61 167 -16 249 -48 52 -111 70 -166 48z"/>
<path d="M4543 6200 c-48 -19 -72 -117 -49 -193 40 -131 149 -207 235 -162 34
17 61 66 61 109 0 83 -77 202 -155 237 -44 21 -60 22 -92 9z"/>
<path d="M5379 6180 c-70 -37 -128 -131 -136 -220 -6 -66 5 -93 50 -120 40
-25 68 -25 115 -1 122 63 173 239 96 331 -31 36 -70 39 -125 10z"/>
<path d="M4780 9449 c-515 -29 -1009 -148 -1406 -339 -78 -37 -144 -72 -147
-77 -5 -8 164 -78 260 -107 14 -5 76 12 181 48 447 153 830 223 1279 233 528
12 972 -57 1444 -222 l107 -37 79 34 c94 41 185 97 177 110 -9 15 -146 74
-284 125 -487 176 -1126 264 -1690 232z"/>
<path d="M2490 8588 c-388 -295 -785 -751 -1008 -1158 l-41 -76 70 -82 c38
-45 74 -82 79 -82 5 0 45 60 89 133 257 427 591 805 962 1088 l34 27 -31 43
c-17 24 -43 68 -58 97 -14 28 -30 52 -34 52 -4 0 -32 -19 -62 -42z"/>
</g>
</svg>
