<?xml version="1.0" standalone="no"?>
<!DOCTYPE svg PUBLIC "-//W3C//DTD SVG 20010904//EN"
 "http://www.w3.org/TR/2001/REC-SVG-20010904/DTD/svg10.dtd">
<svg version="1.0" xmlns="http://www.w3.org/2000/svg"
 width="1024.000000pt" height="1024.000000pt" viewBox="0 0 1024.000000 1024.000000"
 preserveAspectRatio="xMidYMid meet">

<g transform="translate(0.000000,1024.000000) scale(0.100000,-0.100000)"
fill="#000000" stroke="none">
<path d="M4820 9230 c-228 -22 -497 -84 -693 -160 -504 -195 -874 -534 -1097
-1005 -98 -206 -155 -383 -235 -725 -88 -379 -144 -549 -310 -940 -252 -592
-335 -932 -321 -1325 13 -375 122 -664 362 -962 207 -255 488 -473 864 -671
53 -28 94 -56 94 -64 -1 -7 -16 -80 -33 -163 -79 -391 -81 -745 -5 -985 53
-170 131 -294 266 -427 219 -214 499 -335 934 -405 123 -20 177 -22 479 -23
279 0 362 3 460 18 384 58 648 163 882 352 207 166 340 418 374 706 23 201 -8
571 -72 849 -18 78 -19 95 -8 99 31 10 250 127 330 177 408 252 695 561 856
919 147 326 173 710 77 1145 -36 161 -143 474 -231 675 -169 384 -253 624
-318 900 -125 537 -201 756 -344 998 -207 348 -468 588 -841 771 -356 175
-662 243 -1130 251 -135 2 -288 0 -340 -5z m715 -318 c403 -70 725 -213 1000
-444 158 -133 292 -304 399 -512 105 -204 161 -371 245 -731 81 -344 146 -541
299 -900 241 -565 322 -866 322 -1197 0 -205 -36 -361 -124 -543 -75 -152
-160 -269 -301 -411 -125 -126 -245 -220 -405 -321 -104 -64 -282 -163 -296
-163 -5 0 -24 59 -43 130 -18 72 -52 190 -75 263 l-42 132 24 42 c35 64 55
173 49 274 -9 148 -64 286 -193 484 -28 44 -63 103 -78 132 -133 264 -211 671
-246 1271 -11 186 -19 231 -42 233 -61 6 -109 -26 -273 -181 -167 -158 -244
-217 -350 -270 -224 -110 -454 -90 -675 60 -70 47 -149 114 -299 254 -138 129
-214 166 -240 117 -6 -10 -15 -92 -21 -182 -37 -576 -100 -949 -202 -1209 -33
-84 -68 -147 -146 -268 -169 -259 -214 -507 -127 -701 l26 -58 -26 -79 c-14
-43 -49 -160 -77 -259 -28 -99 -52 -181 -53 -183 -5 -6 -206 105 -310 172
-170 108 -259 179 -395 315 -231 232 -358 465 -404 740 -41 244 0 580 114 921
52 156 73 209 210 530 150 351 195 490 285 877 79 338 134 506 230 698 146
291 310 480 571 654 250 168 552 276 905 325 161 22 606 15 764 -12z m-1066
-2764 c338 -317 656 -389 996 -224 99 48 171 99 303 216 l88 77 12 -182 c30
-451 96 -783 258 -1295 216 -684 321 -1136 399 -1715 22 -163 31 -460 16 -552
-28 -179 -91 -310 -204 -424 -230 -231 -582 -343 -1123 -356 -474 -12 -862 58
-1119 202 -186 103 -322 276 -376 475 -27 97 -36 350 -20 516 25 248 98 670
172 999 49 214 123 474 244 860 158 501 222 827 256 1308 7 92 14 167 17 167
2 0 39 -32 81 -72z"/>
<path d="M3432 7689 c-56 -28 -109 -91 -127 -153 -25 -84 -17 -130 15 -91 29
35 160 74 160 48 0 -5 -15 -20 -34 -35 -20 -16 -49 -57 -68 -95 -31 -64 -33
-73 -33 -178 0 -89 5 -123 23 -177 47 -137 140 -244 262 -302 56 -26 78 -31
166 -34 l101 -4 7 -97 c6 -87 -4 -298 -20 -426 l-7 -50 33 40 c120 149 189
415 177 684 -18 413 -204 773 -449 872 -61 25 -153 24 -206 -2z m243 -374 c35
-34 35 -101 0 -139 -53 -58 -145 -19 -145 63 0 86 89 133 145 76z"/>
<path d="M6618 7696 c-270 -97 -468 -495 -468 -942 0 -146 20 -277 60 -385 32
-89 85 -188 125 -234 l26 -30 -6 30 c-21 114 -32 415 -19 498 l7 37 77 0 c178
0 326 92 412 256 101 191 88 404 -31 523 -23 23 -41 43 -41 46 0 17 73 0 127
-30 l63 -35 0 38 c0 46 -48 148 -86 184 -59 55 -162 74 -246 44z m77 -393 c24
-36 15 -111 -15 -135 -36 -29 -84 -23 -114 13 -45 53 -32 129 27 154 39 16 79
4 102 -32z"/>
<path d="M4519 5469 c-55 -55 -102 -236 -103 -399 -1 -133 15 -198 72 -300 32
-59 147 -189 157 -178 3 2 -8 56 -24 119 -26 102 -51 243 -51 287 0 29 16 0
58 -103 41 -102 52 -137 72 -214 l11 -43 25 23 c13 12 34 47 46 78 20 50 22
73 21 216 0 138 -4 173 -26 256 -47 181 -117 279 -197 279 -27 0 -47 -7 -61
-21z"/>
<path d="M5582 5465 c-96 -80 -158 -314 -149 -555 6 -155 16 -197 59 -246 l32
-36 22 79 c26 95 70 216 95 263 l19 35 0 -42 c0 -57 -27 -191 -56 -286 -14
-43 -23 -81 -20 -84 3 -3 34 23 69 59 114 113 167 248 167 424 0 155 -58 361
-113 399 -34 24 -91 19 -125 -10z"/>
<path d="M6258 3280 c15 -75 7 -352 -11 -433 -42 -178 -157 -334 -303 -410
-138 -71 -265 -83 -514 -45 -199 29 -416 29 -608 0 -330 -51 -510 -13 -663
138 -74 74 -137 185 -164 290 -22 83 -34 261 -26 377 3 50 3 89 -1 87 -13 -8
-72 -162 -90 -234 -22 -94 -24 -285 -3 -385 29 -134 110 -273 220 -373 142
-130 314 -194 594 -222 135 -13 703 -13 851 1 391 35 641 178 766 436 112 232
107 477 -15 728 -28 57 -38 70 -33 45z"/>
</g>
</svg>
