<?xml version="1.0" standalone="no"?>
<!DOCTYPE svg PUBLIC "-//W3C//DTD SVG 20010904//EN"
 "http://www.w3.org/TR/2001/REC-SVG-20010904/DTD/svg10.dtd">
<svg version="1.0" xmlns="http://www.w3.org/2000/svg"
 width="1024.000000pt" height="1024.000000pt" viewBox="0 0 1024.000000 1024.000000"
 preserveAspectRatio="xMidYMid meet">

<g transform="translate(0.000000,1024.000000) scale(0.100000,-0.100000)"
fill="#000000" stroke="none">
<path d="M1387 9289 c-59 -34 -98 -227 -139 -674 -20 -223 -17 -875 5 -1060
69 -581 241 -1004 518 -1272 102 -100 170 -149 268 -195 104 -50 195 -77 289
-85 39 -3 72 -10 72 -15 0 -21 -142 -386 -237 -607 -195 -455 -268 -689 -319
-1021 -26 -164 -26 -514 -1 -665 116 -698 497 -1261 1137 -1680 266 -174 471
-274 900 -439 91 -35 165 -72 227 -113 196 -130 428 -231 633 -277 484 -107
944 -16 1391 275 70 45 141 82 201 104 386 138 696 291 978 483 163 111 250
182 388 317 320 310 541 686 647 1099 54 212 69 334 69 556 -2 440 -81 765
-324 1325 -136 316 -262 639 -252 649 3 4 22 6 43 6 57 0 170 26 257 60 230
88 472 330 611 607 111 224 186 492 226 815 57 461 31 1243 -55 1640 -20 94
-31 120 -63 156 -29 31 -60 28 -164 -17 -215 -93 -411 -147 -838 -231 -402
-79 -573 -127 -742 -205 -313 -146 -537 -352 -677 -623 -26 -51 -49 -92 -51
-92 -2 0 -43 16 -91 35 -443 179 -1027 241 -1631 174 -246 -27 -530 -98 -730
-183 -34 -14 -66 -26 -71 -26 -5 0 -22 28 -38 62 -126 267 -359 492 -658 634
-205 97 -372 144 -831 234 -419 83 -586 129 -798 221 -94 40 -120 45 -150 28z
m200 -370 c183 -80 380 -137 723 -209 286 -59 357 -77 503 -125 340 -110 592
-306 739 -575 38 -69 98 -229 98 -261 0 -11 -17 -45 -39 -77 -41 -60 -83 -140
-96 -182 -6 -18 16 -3 81 59 425 403 1185 580 1994 465 307 -44 620 -153 830
-292 63 -41 196 -147 235 -187 6 -5 25 -24 43 -40 l34 -30 -27 60 c-28 63 -58
117 -98 175 l-24 35 19 70 c65 236 236 466 453 610 203 134 351 186 819 285
402 84 555 127 745 209 40 17 74 31 76 31 5 0 26 -154 42 -320 24 -251 24
-800 0 -999 -60 -486 -179 -798 -386 -1015 -118 -122 -271 -213 -436 -257
-105 -29 -329 -32 -420 -7 -32 10 -61 15 -63 13 -8 -8 68 -271 131 -455 66
-197 160 -435 267 -680 200 -458 273 -734 287 -1079 19 -479 -129 -902 -454
-1306 -250 -311 -636 -588 -1098 -790 -146 -64 -147 -64 -140 -37 19 68 42
172 39 172 -2 0 -52 -48 -111 -106 -200 -195 -376 -325 -568 -419 -457 -223
-892 -217 -1361 18 -179 90 -363 227 -567 423 -62 59 -86 77 -82 62 15 -64 33
-163 31 -166 -10 -9 -374 168 -512 249 -297 175 -499 340 -691 563 -342 399
-498 832 -480 1331 13 352 87 635 279 1075 113 256 196 466 254 634 60 174
156 497 150 503 -3 3 -51 -3 -108 -12 -292 -50 -579 41 -791 250 -86 86 -142
165 -205 290 -159 319 -226 690 -226 1260 0 296 12 495 44 714 5 36 10 72 10
79 0 16 0 16 57 -9z"/>
<path d="M8435 8564 c-76 -63 -158 -90 -455 -153 -286 -61 -436 -115 -577
-208 -184 -122 -308 -306 -348 -516 -40 -212 1 -426 140 -715 103 -214 193
-343 283 -406 40 -27 182 -90 189 -83 2 2 -3 22 -11 45 -8 22 -25 85 -37 139
-32 140 -32 379 -1 506 30 120 73 219 136 316 l54 81 -42 -6 c-164 -23 -289
-97 -370 -218 -19 -29 -26 -34 -27 -20 -10 238 79 441 256 587 69 57 218 139
370 203 268 112 404 234 459 409 10 31 17 58 15 60 -2 2 -17 -8 -34 -21z"/>
<path d="M1784 8549 c11 -59 65 -156 119 -215 79 -87 145 -127 403 -242 319
-143 479 -304 540 -544 18 -69 33 -238 22 -238 -4 0 -8 4 -8 8 0 19 -110 129
-163 163 -61 39 -151 73 -225 83 l-42 6 46 -67 c60 -87 106 -184 141 -298 25
-83 27 -103 28 -265 0 -181 -13 -275 -55 -400 -10 -30 -17 -56 -16 -57 6 -6
118 37 160 62 132 78 298 340 401 636 83 240 85 430 6 635 -30 78 -105 198
-159 258 -61 66 -181 150 -286 201 -132 64 -219 90 -506 151 -211 45 -294 72
-355 118 -57 42 -59 43 -51 5z"/>
<path d="M3487 6709 c-96 -23 -207 -105 -273 -203 -18 -28 -32 -51 -30 -53 1
-2 34 11 71 28 88 40 196 62 258 54 127 -16 247 -76 354 -178 87 -82 211 -260
279 -399 48 -98 54 -77 29 102 -33 235 -117 410 -253 531 -115 101 -297 151
-435 118z"/>
<path d="M6551 6709 c-158 -31 -312 -163 -404 -346 -52 -103 -106 -349 -95
-438 3 -27 10 -17 60 81 197 380 473 575 734 521 39 -9 100 -29 137 -45 37
-17 67 -28 67 -25 0 17 -67 107 -109 146 -105 98 -242 135 -390 106z"/>
<path d="M3314 6242 c-102 -36 -164 -109 -200 -240 -9 -34 -15 -64 -12 -67 3
-3 25 6 49 19 24 14 60 32 80 40 l37 15 -15 -47 c-19 -59 -21 -173 -5 -232 37
-127 153 -220 276 -220 89 0 157 23 221 75 30 25 57 45 59 45 2 0 32 -52 66
-115 35 -63 66 -115 71 -115 12 0 15 103 6 197 -16 177 -85 373 -172 487 -109
142 -309 210 -461 158z m292 -217 c34 -34 30 -90 -8 -118 -56 -42 -121 17 -98
89 19 58 65 70 106 29z"/>
<path d="M6694 6246 c-207 -67 -352 -285 -398 -597 -18 -119 -21 -235 -7 -244
8 -4 122 182 134 220 2 5 26 -10 54 -33 92 -78 217 -103 327 -66 64 22 147
100 177 166 28 65 32 197 7 266 -15 39 -15 42 2 42 10 0 48 -15 86 -34 38 -19
70 -34 71 -32 6 6 -28 119 -47 157 -32 62 -85 115 -143 140 -64 28 -200 36
-263 15z m16 -206 c11 -6 24 -26 29 -46 23 -82 -48 -136 -104 -79 -31 30 -32
73 -4 109 22 27 48 33 79 16z"/>
<path d="M3163 5550 c2 -94 6 -111 32 -158 54 -100 133 -146 245 -147 65 0 84
4 140 32 36 18 85 51 110 73 l45 41 -50 -8 c-27 -4 -84 -7 -126 -7 -63 0 -86
5 -140 31 -97 46 -147 91 -242 223 -17 24 -17 23 -14 -80z"/>
<path d="M7046 5604 c-105 -166 -274 -250 -452 -225 -38 6 -70 9 -71 7 -7 -7
108 -92 157 -115 82 -38 185 -36 259 4 64 35 115 99 136 168 15 52 21 207 8
207 -5 0 -21 -21 -37 -46z"/>
<path d="M4923 5385 c-304 -55 -585 -257 -738 -530 -20 -37 -35 -68 -33 -70 2
-2 65 42 140 98 209 156 369 239 554 288 115 30 330 37 449 15 233 -44 442
-146 684 -335 50 -39 91 -66 91 -59 0 6 -16 41 -36 76 -149 272 -450 478 -758
521 -101 14 -263 13 -353 -4z"/>
<path d="M5010 5054 c-324 -49 -542 -170 -811 -451 -220 -231 -365 -502 -414
-777 -27 -149 -18 -341 22 -458 16 -49 26 -88 23 -88 -14 0 -136 133 -172 186
-92 140 -123 284 -115 539 6 243 58 465 152 657 l36 73 -70 -73 c-137 -143
-229 -304 -278 -489 -24 -89 -26 -116 -27 -288 -1 -154 3 -203 17 -260 27
-102 98 -240 164 -319 173 -205 589 -443 965 -552 548 -158 1099 -107 1623
151 454 222 671 431 744 716 88 346 -36 794 -289 1044 l-61 60 30 -68 c46
-102 99 -271 121 -383 79 -408 15 -728 -187 -933 -40 -41 -75 -72 -78 -70 -2
3 7 35 21 73 95 263 58 570 -109 878 -172 320 -496 627 -790 749 -166 69 -380
103 -517 83z m267 -269 c216 -45 397 -149 579 -330 220 -218 344 -458 374
-723 21 -181 -34 -360 -139 -455 -161 -144 -384 -184 -666 -119 -280 65 -330
65 -576 6 -264 -63 -449 -49 -609 46 -121 71 -194 174 -220 308 -18 89 -8 286
20 382 61 217 233 476 420 635 152 127 312 211 470 245 104 23 255 25 347 5z"/>
<path d="M4515 4171 c-62 -29 -141 -105 -172 -165 -50 -96 -69 -239 -44 -331
53 -198 284 -260 441 -118 66 59 97 114 116 204 37 174 -32 379 -143 425 -54
23 -130 18 -198 -15z"/>
<path d="M5513 4181 c-106 -48 -175 -242 -144 -406 31 -168 152 -283 306 -292
62 -4 76 -1 125 24 146 75 194 275 108 454 -89 188 -258 282 -395 220z"/>
<path d="M6065 2620 c-17 -11 -86 -42 -155 -69 -543 -214 -1016 -219 -1546
-16 -61 24 -134 55 -163 70 -29 14 -55 24 -58 21 -10 -10 84 -135 161 -212
131 -131 283 -212 506 -272 128 -34 390 -43 534 -18 253 43 487 173 645 355
66 78 117 149 110 156 -3 2 -18 -5 -34 -15z"/>
</g>
</svg>
