<?xml version="1.0" standalone="no"?>
<!DOCTYPE svg PUBLIC "-//W3C//DTD SVG 20010904//EN"
 "http://www.w3.org/TR/2001/REC-SVG-20010904/DTD/svg10.dtd">
<svg version="1.0" xmlns="http://www.w3.org/2000/svg"
 width="1024.000000pt" height="1024.000000pt" viewBox="0 0 1024.000000 1024.000000"
 preserveAspectRatio="xMidYMid meet">

<g transform="translate(0.000000,1024.000000) scale(0.100000,-0.100000)"
fill="#000000" stroke="none">
<path d="M6928 8870 c-45 -24 -72 -58 -94 -118 -9 -26 -32 -86 -51 -133 -24
-60 -32 -95 -27 -113 3 -14 10 -26 15 -26 5 0 9 -9 9 -20 0 -11 -5 -20 -11
-20 -6 0 -69 29 -140 65 -72 36 -143 65 -159 65 -21 0 -38 -12 -69 -46 l-40
-45 -40 23 c-39 22 -39 24 -34 68 4 33 1 49 -9 58 -34 27 -563 202 -614 202
-15 0 -124 -212 -124 -242 0 -26 47 -71 147 -138 82 -56 176 -121 181 -125 2
-2 -4 -17 -12 -34 -9 -16 -16 -39 -16 -50 0 -27 137 -130 455 -343 334 -224
305 -198 291 -256 -9 -38 -18 -50 -44 -62 -24 -12 -37 -28 -53 -70 -23 -63
-66 -233 -75 -302 -6 -44 -4 -50 27 -81 19 -19 39 -36 46 -38 9 -3 -5 -72 -48
-239 -33 -129 -95 -413 -139 -630 -79 -393 -111 -525 -130 -544 -6 -6 -16 -3
-30 9 -11 10 -22 16 -24 14 -3 -3 -28 -38 -55 -79 -28 -41 -80 -107 -116 -146
l-64 -72 62 -6 c59 -7 127 -39 127 -60 0 -5 -24 -6 -52 -3 -29 3 -87 9 -129
13 l-76 7 -59 -40 c-33 -22 -88 -55 -124 -74 l-65 -33 110 -12 c94 -11 195
-29 270 -49 16 -4 35 15 101 107 44 62 119 169 164 238 169 252 246 347 442
546 l110 112 59 178 c32 99 87 274 120 391 l62 212 47 -6 c58 -7 122 22 138
64 23 57 73 296 67 322 -3 14 -21 48 -39 74 -32 48 -33 50 -20 95 7 26 15 59
18 75 5 22 11 26 29 22 12 -3 68 -9 124 -14 121 -11 175 -2 361 60 139 46 147
54 139 133 l-5 51 92 22 c131 32 378 116 428 146 91 54 128 117 128 220 0 73
-21 111 -68 121 -70 15 -242 26 -408 26 -196 1 -235 -7 -249 -50 -11 -36 -47
-48 -189 -64 -179 -21 -186 -20 -186 2 0 24 24 46 73 66 43 18 49 29 98 189
l33 109 -24 44 c-27 52 -112 109 -257 174 -175 77 -328 100 -405 60z m43 -82
c-5 -13 -23 -69 -40 -125 -26 -85 -35 -103 -51 -103 -11 0 -20 6 -20 13 0 22
59 188 75 214 21 31 48 32 36 1z m149 7 c9 -11 7 -28 -10 -82 -48 -154 -48
-153 -86 -153 -21 0 -34 5 -34 13 0 6 14 55 30 107 17 51 30 102 30 112 0 23
52 25 70 3z m151 -45 c10 -6 19 -19 19 -29 0 -24 -49 -194 -59 -204 -4 -4 -22
-4 -40 -1 -31 6 -33 9 -28 38 3 18 17 71 32 119 27 90 36 98 76 77z m-1524
-13 l21 -12 -30 -72 c-25 -59 -35 -73 -52 -73 -12 0 -29 6 -38 13 -14 11 -12
20 18 85 34 74 43 80 81 59z m1642 -38 c17 -6 31 -16 31 -22 0 -12 -58 -208
-63 -213 -1 -1 -21 2 -43 8 l-41 11 34 101 c42 127 42 126 46 126 2 0 18 -5
36 -11z m-1481 -19 c36 -16 42 -23 42 -49 0 -17 -8 -47 -17 -68 -10 -21 -18
-39 -19 -40 0 -2 -27 8 -60 21 -56 23 -59 26 -56 56 4 50 29 100 49 100 10 0
37 -9 61 -20z m265 -88 c27 -12 34 -35 18 -61 -8 -12 -18 -11 -63 9 -29 12
-72 31 -94 41 -36 15 -41 21 -37 42 l5 25 71 -23 c40 -12 84 -27 100 -33z
m1345 10 c3 -21 -43 -200 -54 -211 -2 -3 -11 2 -20 11 -14 13 -13 26 13 122
21 80 32 106 43 104 8 -2 16 -14 18 -26z m-1405 -92 c45 -21 123 -63 172 -92
l90 -54 8 -78 c4 -43 5 -81 3 -84 -3 -2 -34 15 -69 39 -35 24 -130 89 -210
144 -150 102 -160 113 -136 157 13 25 32 21 142 -32z m535 -97 c109 -57 123
-68 118 -87 -3 -11 -6 -24 -6 -28 0 -15 -22 -8 -73 25 -29 18 -92 55 -142 82
-109 58 -101 51 -85 70 19 23 45 14 188 -62z m403 22 c81 -21 143 -49 219 -98
63 -41 64 -42 34 -45 -17 -2 -64 10 -105 26 -41 16 -119 44 -174 62 -112 37
-127 46 -105 60 22 14 64 12 131 -5z m-1018 -68 c26 -17 47 -34 47 -38 0 -23
-28 -17 -77 17 -31 22 -60 42 -66 45 -5 4 -6 12 -3 18 8 13 23 6 99 -42z m897
-31 c0 -11 -62 -214 -96 -315 -3 -11 -8 -11 -16 -3 -17 17 9 141 67 320 6 17
45 15 45 -2z m-322 -93 c70 -42 129 -78 130 -79 6 -4 -29 -159 -38 -174 -10
-16 -65 16 -128 74 -53 49 -66 73 -86 160 -17 71 -20 96 -10 96 3 0 62 -35
132 -77z m550 7 c56 -27 102 -52 102 -55 0 -4 -25 -67 -55 -140 -30 -74 -55
-141 -55 -149 0 -24 -15 -26 -52 -7 -19 11 -67 29 -107 41 -55 16 -71 25 -67
36 3 8 27 81 52 162 26 81 49 150 51 155 8 14 30 7 131 -43z m836 5 c14 -37
30 -185 20 -195 -5 -5 -42 -12 -82 -16 l-72 -7 0 111 c0 124 -5 118 86 121 29
1 44 -4 48 -14z m184 -35 c2 -23 0 -46 -5 -51 -4 -4 -30 -9 -58 -10 l-50 -3
-7 44 c-5 25 -6 50 -4 55 2 6 30 10 62 9 l59 -1 3 -43z m195 23 c4 -2 7 -35 7
-72 0 -79 -2 -82 -108 -121 -69 -25 -93 -21 -43 7 32 18 32 18 26 78 -3 33 -8
75 -12 93 l-5 33 63 -7 c35 -3 67 -9 72 -11z m-2114 -20 c117 -67 187 -122
209 -162 13 -22 21 -41 17 -41 -9 0 -154 98 -202 137 -42 33 -91 93 -77 93 4
0 28 -12 53 -27z m-254 -14 c20 -12 34 -24 31 -26 -2 -3 -22 7 -43 21 -46 31
-38 34 12 5z m219 -51 c16 -25 -56 -128 -89 -128 -14 0 -25 3 -25 6 0 3 18 37
41 75 40 70 53 78 73 47z m1561 -9 c4 -12 3 -25 -2 -29 -11 -11 -429 -147
-477 -156 -37 -6 -38 -6 -31 17 6 23 46 128 49 130 3 2 413 56 433 58 14 1 24
-6 28 -20z m5 -93 c0 -18 -6 -38 -12 -44 -11 -8 -507 -182 -521 -182 -3 0 -7
12 -10 26 -3 20 1 28 18 36 32 14 508 196 518 197 4 1 7 -14 7 -33z m-1431
-55 c89 -54 235 -156 253 -178 7 -8 8 -17 2 -23 -10 -10 -355 217 -362 238 -7
23 25 12 107 -37z m1666 -32 c11 -16 0 -21 -72 -35 -73 -13 -78 -13 -70 10 10
24 130 46 142 25z m-1275 -213 c-46 -139 -62 -168 -81 -149 -10 10 -6 33 20
115 46 147 52 159 75 168 12 4 22 4 24 -1 2 -5 -15 -65 -38 -133z m240 107
c102 -68 171 -127 166 -140 -3 -8 -6 -19 -6 -24 0 -16 -29 -10 -80 16 -27 14
-52 25 -56 25 -15 0 8 -66 32 -91 24 -25 25 -32 19 -83 -4 -31 -12 -56 -17
-56 -26 0 -225 44 -234 52 -13 10 -8 35 46 211 l33 107 36 0 c20 0 48 -8 61
-17z m766 -35 c18 -29 35 -63 39 -76 6 -22 4 -23 -31 -20 -34 3 -40 8 -70 63
-39 70 -40 72 -16 78 39 10 49 5 78 -45z m-212 -117 l15 -28 -63 -11 c-35 -7
-85 -12 -112 -12 l-49 0 33 20 c46 28 145 69 155 63 4 -2 14 -17 21 -32z
m-934 -252 c0 -7 -14 -56 -30 -109 -27 -86 -33 -97 -50 -93 -11 3 -20 10 -20
16 0 32 45 174 58 185 20 15 42 16 42 1z m173 -9 c7 -6 -36 -196 -47 -208 -7
-7 -76 8 -76 16 2 19 46 189 53 200 8 12 53 7 70 -8z m124 -17 c21 -10 39 -18
41 -19 3 -2 -47 -205 -54 -215 -4 -8 -84 10 -97 21 -5 4 -3 27 3 51 29 112 52
179 60 179 5 0 26 -8 47 -17z m136 -72 c8 -8 -27 -176 -42 -199 -10 -17 -61
-5 -61 15 0 14 35 161 45 191 5 13 40 9 58 -7z m93 -36 c3 -8 -6 -61 -21 -119
-21 -77 -31 -103 -41 -99 -18 7 -18 12 6 124 11 52 20 97 20 102 0 13 31 7 36
-8z m-426 -260 c26 -13 28 -18 20 -47 -12 -42 -134 -489 -210 -769 -60 -218
-107 -354 -154 -448 -27 -53 -42 -69 -26 -27 5 14 52 219 105 458 105 471 180
790 195 826 11 26 30 28 70 7z m115 -252 c-77 -319 -183 -674 -207 -698 -7 -7
-8 -3 -5 10 32 111 67 244 127 480 110 431 112 438 118 388 2 -17 -13 -98 -33
-180z"/>
<path d="M5043 8768 c-15 -29 -30 -57 -32 -63 -2 -5 -38 -73 -79 -150 -131
-244 -258 -451 -483 -785 -130 -193 -253 -404 -271 -462 -13 -45 -7 -60 54
-132 l41 -47 46 98 c61 126 141 264 305 527 183 291 264 432 363 635 l86 174
22 -54 c53 -130 104 -220 440 -774 362 -599 489 -895 524 -1225 36 -339 -101
-685 -351 -887 -126 -101 -303 -181 -450 -204 -108 -17 -325 -6 -417 21 -223
66 -431 210 -549 382 -43 63 -115 210 -141 288 -20 61 -50 191 -51 216 0 6 20
14 45 17 152 21 243 165 216 338 -26 163 -118 355 -261 550 -54 71 -110 182
-110 215 0 31 51 101 130 179 40 38 76 78 82 88 15 29 12 84 -7 113 -22 34
-62 50 -176 70 -106 19 -139 34 -140 67 0 12 -5 38 -12 57 -11 31 -20 37 -81
60 -58 21 -74 32 -101 70 -35 50 -119 106 -174 116 -19 4 -48 2 -65 -4 -26
-10 -33 -9 -52 9 -12 11 -95 46 -185 78 -407 146 -445 162 -482 207 -63 76
-302 170 -408 161 -64 -6 -129 -35 -177 -81 -18 -17 -31 -24 -27 -15 9 23 -23
46 -100 73 -72 25 -89 25 -99 -1 -11 -27 21 -49 104 -74 44 -13 79 -26 77 -29
-1 -3 -19 -39 -40 -80 -62 -125 -80 -204 -80 -365 0 -201 37 -318 128 -409 54
-54 114 -69 268 -64 l133 3 99 50 c81 40 110 49 151 49 83 0 132 -47 153 -143
10 -48 42 -298 86 -671 31 -264 68 -496 99 -625 27 -109 48 -139 117 -164 23
-9 44 -21 46 -27 2 -7 -8 -24 -22 -40 -14 -15 -28 -38 -31 -51 -6 -23 45 -269
68 -325 8 -21 21 -31 52 -39 80 -22 93 -34 107 -96 82 -393 190 -697 311 -875
21 -32 37 -58 36 -58 -17 2 -292 100 -299 107 -7 7 10 21 45 39 31 16 56 32
56 36 0 3 -18 45 -40 93 -25 55 -45 85 -53 82 -6 -2 -39 -12 -72 -22 -33 -9
-76 -25 -97 -36 -77 -39 -94 -11 -23 40 57 41 123 71 158 71 15 0 27 1 27 3 0
8 -49 148 -57 160 -14 26 -217 -70 -305 -145 -71 -60 -58 0 16 74 45 44 133
92 216 118 30 9 54 21 54 26 -1 5 -10 40 -19 78 l-19 68 -59 -7 c-154 -17
-357 -107 -491 -218 l-29 -24 43 -39 c24 -21 84 -81 134 -133 169 -174 406
-356 550 -421 389 -177 1198 -320 1810 -320 99 0 177 -2 174 -5 -13 -13 -223
-36 -388 -41 -235 -9 -578 13 -825 52 -129 20 -346 74 -459 114 -342 121 -714
375 -1056 721 -64 65 -105 97 -168 130 -63 33 -84 49 -89 69 -14 61 -28 69
-417 240 -190 84 -213 92 -250 85 -68 -12 -88 -9 -156 22 -105 48 -233 87
-261 80 -77 -19 -156 -122 -185 -238 -16 -64 -15 -68 4 -111 16 -38 29 -50 74
-72 31 -15 68 -40 84 -57 18 -18 52 -37 93 -49 78 -25 91 -34 91 -69 0 -49 51
-79 301 -180 178 -72 308 -105 383 -98 48 4 73 0 130 -20 95 -34 177 -76 201
-103 60 -67 258 -196 390 -255 339 -150 826 -274 1305 -331 187 -23 940 -27
1090 -6 186 26 328 53 548 107 122 30 241 55 263 55 75 0 383 74 580 140 152
50 329 137 403 197 108 89 159 210 137 330 -20 108 -97 196 -237 274 -42 22
-74 43 -72 45 2 2 31 -5 64 -15 185 -58 324 -162 381 -288 22 -47 25 -66 21
-122 -19 -261 -373 -478 -1096 -670 -387 -103 -751 -165 -1131 -192 -204 -15
-703 -6 -891 15 -830 93 -1453 301 -1782 595 -114 102 -213 161 -268 161 -30
0 -31 -1 -25 -32 32 -160 117 -300 274 -450 249 -239 653 -450 1250 -652 103
-35 218 -71 256 -81 66 -17 120 -43 65 -31 -14 3 -52 10 -85 16 -159 30 -374
85 -585 151 -411 128 -798 345 -1007 562 -137 143 -200 272 -210 435 -3 50
-10 92 -15 92 -23 0 -65 -31 -77 -57 -35 -73 -20 -258 29 -354 21 -40 21 -40
1 -67 -65 -92 -90 -303 -52 -451 42 -169 137 -311 293 -438 166 -136 397 -252
699 -352 l96 -32 44 -67 c29 -44 56 -73 79 -84 58 -28 445 -135 590 -163 74
-14 165 -32 202 -39 60 -12 72 -11 123 6 l56 20 156 -27 c208 -37 263 -27 323
57 81 111 78 315 -6 425 -34 45 -102 82 -171 94 -32 5 -192 32 -357 60 -383
64 -651 119 -800 164 -437 133 -767 316 -988 548 -68 72 -85 106 -25 51 140
-130 404 -283 738 -427 305 -132 661 -224 1039 -267 675 -76 1253 -42 1965
117 642 143 1125 368 1319 613 50 63 110 171 120 213 11 47 26 19 26 -48 0
-181 -206 -389 -555 -560 -561 -275 -1470 -475 -2156 -475 -115 0 -134 -5
-106 -28 7 -6 24 -34 37 -62 l23 -50 131 0 c246 1 604 35 896 86 847 148 1418
367 1683 643 42 44 77 77 77 73 0 -4 -14 -32 -32 -62 -159 -280 -754 -557
-1478 -689 -378 -69 -636 -94 -983 -95 -242 -1 -276 -3 -271 -16 4 -8 8 -58 9
-110 l2 -95 129 -3 c234 -6 631 24 932 69 656 99 1183 270 1510 491 158 107
293 264 337 393 24 69 25 207 2 259 -15 34 -16 48 -6 95 23 110 -5 261 -64
350 -20 30 -23 41 -14 57 6 10 11 62 10 114 0 77 -5 111 -29 180 -67 200 -234
377 -459 487 -148 73 -210 90 -258 70 -35 -15 -117 -117 -156 -194 -26 -51
-26 -53 -2 -53 30 0 152 -66 211 -114 94 -78 117 -138 84 -214 l-17 -37 -8 39
c-15 64 -50 115 -112 162 -53 39 -194 114 -214 114 -10 -1 -126 -191 -120
-196 2 -2 31 -11 63 -20 73 -19 155 -71 194 -126 34 -47 37 -63 13 -77 -14 -7
-28 1 -70 40 -55 52 -156 106 -214 115 -32 5 -36 2 -73 -56 -21 -33 -37 -62
-35 -63 2 -1 27 -13 54 -27 50 -25 135 -95 135 -111 0 -5 -10 -11 -23 -14 -16
-4 -47 9 -107 45 -46 28 -91 49 -98 48 -8 -2 -34 -26 -59 -54 l-44 -52 32 -20
33 -20 -45 -12 c-24 -6 -57 -15 -74 -20 -16 -5 -57 -14 -90 -20 -33 -6 -69
-14 -80 -17 -11 -3 29 45 88 106 133 138 274 327 397 531 51 85 110 180 131
211 51 76 199 246 296 342 75 73 81 77 107 67 70 -26 98 -15 273 112 119 86
153 123 153 167 0 16 24 29 128 69 197 77 244 86 397 78 72 -4 162 -13 200
-22 144 -31 180 -36 224 -29 177 25 338 115 403 225 50 85 63 162 49 287 -41
349 -227 629 -471 709 -123 40 -285 14 -407 -65 -73 -47 -116 -96 -156 -178
-36 -72 -47 -81 -435 -344 -101 -68 -204 -139 -228 -157 -41 -31 -46 -32 -66
-18 -35 25 -50 20 -145 -44 -188 -127 -293 -253 -277 -335 6 -33 2 -38 -157
-197 -90 -90 -204 -215 -252 -278 -84 -107 -126 -170 -342 -500 -101 -154
-246 -308 -378 -398 -155 -107 -398 -206 -622 -254 -80 -17 -135 -22 -280 -22
l-180 -1 -81 36 c-237 104 -448 322 -556 572 -48 112 -112 322 -143 473 l-24
116 24 24 c50 50 54 69 35 179 -25 143 -56 254 -75 275 -10 11 -37 27 -61 36
-24 9 -44 20 -44 25 0 4 16 17 35 29 19 11 46 35 61 53 24 28 26 36 20 87 -8
63 -55 254 -120 480 -25 85 -43 157 -40 159 5 6 -2 15 89 -129 128 -203 141
-245 155 -515 10 -199 27 -302 70 -435 183 -559 743 -877 1345 -763 352 66
664 319 808 655 112 260 133 547 62 828 -83 328 -216 592 -595 1185 -230 359
-382 615 -498 838 l-41 78 -28 -53z m-2700 -178 c68 -54 116 -241 103 -401 -8
-93 -45 -226 -80 -290 -34 -60 -92 -119 -117 -119 -92 0 -156 132 -166 340 -9
193 41 355 138 445 54 50 82 56 122 25z m183 -16 c35 -19 74 -45 86 -55 l23
-20 -52 5 c-40 4 -53 2 -53 -8 0 -15 37 -32 93 -42 41 -7 41 -7 51 -46 6 -26
5 -27 -41 -30 -35 -2 -49 -7 -51 -19 -2 -13 10 -20 47 -29 44 -10 51 -15 51
-36 0 -13 1 -27 3 -31 1 -4 -19 -14 -45 -22 -34 -10 -48 -20 -48 -33 0 -11 7
-18 20 -18 30 0 80 -28 80 -44 0 -19 -22 -35 -58 -42 -17 -4 -36 -12 -41 -18
-16 -19 -17 -40 -1 -41 35 -2 80 -18 80 -28 0 -7 -7 -21 -16 -32 -11 -15 -30
-20 -86 -23 -66 -4 -71 -3 -64 14 25 63 37 175 32 285 -9 159 -32 243 -92 327
-15 20 -15 22 1 22 9 0 46 -16 81 -36z m325 -185 c17 -33 24 -238 10 -311 -16
-81 -55 -161 -87 -183 -14 -9 -28 -15 -30 -12 -2 2 7 28 20 58 41 89 59 206
53 333 -3 61 -9 122 -13 135 -6 21 -5 22 14 12 12 -6 27 -21 33 -32z m289
-110 c172 -61 204 -81 216 -137 3 -15 10 -37 15 -50 13 -34 10 -121 -6 -167
-35 -97 -17 -204 120 -700 89 -322 127 -480 123 -513 -5 -42 -102 270 -311
1002 l-34 118 33 69 c42 87 50 115 34 134 -16 19 -116 48 -245 70 -55 10 -107
21 -116 26 -13 7 -17 26 -18 99 -1 49 -4 97 -8 107 -5 13 -3 15 13 9 10 -5 93
-35 184 -67z m367 -81 c35 -38 54 -122 53 -239 0 -101 -8 -143 -51 -286 -23
-75 -8 -102 179 -325 85 -101 223 -293 286 -397 54 -91 150 -298 167 -361 12
-47 5 -130 -10 -114 -5 5 -22 54 -40 109 -75 238 -198 442 -495 825 -93 120
-107 142 -120 200 l-15 64 32 76 c30 72 31 80 31 215 0 130 -2 144 -26 198
-28 60 -25 72 9 35z m257 -195 c56 -26 54 -43 -4 -43 -49 0 -50 1 -50 30 0 35
6 36 54 13z m-286 -18 c6 -27 -8 -105 -19 -105 -5 0 -9 30 -9 66 0 48 3 65 13
62 6 -3 14 -13 15 -23z m300 -99 c10 -11 -12 -26 -39 -26 -23 0 -29 4 -29 21
0 19 4 21 32 15 17 -3 33 -8 36 -10z m-1191 -11 c-21 -15 -115 -40 -123 -32
-3 3 -1 15 6 26 9 18 20 21 73 21 55 -1 60 -2 44 -15z m520 -26 c32 -17 57
-39 75 -70 26 -42 59 -154 73 -247 7 -43 7 -43 -21 -40 -21 2 -31 10 -35 28
-4 14 -17 61 -29 105 -46 171 -85 213 -208 225 -37 3 -60 9 -52 12 8 4 22 9
30 12 32 12 120 -1 167 -25z m941 -54 c29 -9 55 -22 58 -29 3 -7 -33 -50 -79
-97 -170 -172 -169 -234 6 -516 147 -236 223 -419 215 -516 -3 -33 -5 -38 -12
-22 -4 11 -24 61 -43 110 -48 120 -120 264 -206 410 -117 198 -126 219 -147
353 -19 114 -41 191 -63 220 -5 7 -8 14 -6 16 2 1 25 17 50 34 25 16 52 38 59
47 17 20 81 16 168 -10z m-1558 -5 c0 -5 -18 -10 -41 -10 -24 0 -38 4 -34 10
3 6 22 10 41 10 19 0 34 -4 34 -10z m1143 -132 c9 -7 21 -28 26 -45 8 -28 6
-35 -12 -48 -28 -20 -39 -19 -71 6 -25 20 -33 50 -20 83 7 19 53 21 77 4z
m-329 -275 c8 -49 18 -107 22 -130 l6 -41 -123 1 c-108 2 -124 4 -127 19 -2
12 5 19 25 24 80 18 108 32 106 53 -2 16 3 21 21 21 13 0 29 7 36 15 29 35
-40 65 -147 65 -56 0 -85 11 -69 27 8 8 141 30 192 32 l42 1 16 -87z m5208
-134 c115 -25 208 -94 288 -217 148 -225 187 -557 80 -672 -23 -24 -36 -30
-72 -30 -163 0 -377 253 -459 545 -18 63 -23 106 -23 207 -1 140 2 146 69 167
41 13 56 13 117 0z m-287 -196 c0 -130 3 -160 27 -245 15 -53 38 -123 52 -155
l25 -58 -42 -18 c-87 -39 -123 -32 -129 23 -2 19 6 29 40 48 63 35 57 55 -17
46 -68 -7 -70 -5 -78 71 l-6 54 38 15 c46 20 41 39 -11 46 l-39 5 -3 62 c-5
109 26 175 107 228 20 13 36 24 36 24 0 1 0 -65 0 -146z m-4876 73 c15 -62 14
-84 -6 -90 -10 -2 -63 -7 -119 -11 -84 -5 -103 -4 -113 9 -15 18 -4 24 92 46
52 12 57 15 57 41 0 21 7 30 28 37 44 17 49 14 61 -32z m38 -211 c7 -32 11
-61 8 -64 -3 -3 -61 -7 -129 -9 -107 -4 -125 -2 -140 13 -9 10 -14 21 -9 26 4
4 44 11 88 16 76 8 80 9 80 32 0 19 9 27 35 37 19 7 39 11 44 10 5 -1 16 -29
23 -61z m4612 -399 c37 -83 105 -179 161 -230 23 -21 40 -39 38 -41 -1 -1 -18
0 -37 3 -24 3 -54 24 -106 73 -77 74 -118 139 -155 251 l-23 68 -31 -19 c-17
-10 -94 -55 -171 -99 -168 -97 -285 -177 -285 -196 0 -8 9 -35 20 -61 31 -73
26 -82 -22 -40 -53 46 -98 126 -98 171 0 32 5 38 76 82 41 26 152 96 247 156
95 60 201 126 237 147 l64 38 27 -118 c15 -65 41 -148 58 -185z m-4589 254
c20 -77 21 -79 1 -89 -27 -15 -183 -31 -225 -24 -30 5 -36 10 -36 29 0 21 5
24 43 25 69 1 132 21 132 42 0 20 41 48 64 44 8 -1 18 -13 21 -27z m290 -150
c0 -31 -43 -65 -125 -99 -103 -43 -176 -61 -281 -68 -91 -6 -92 -6 -109 21
-10 15 -16 28 -14 29 2 2 60 11 129 20 118 17 293 66 358 101 36 20 42 20 42
-4z m26 -141 c11 -54 11 -54 -20 -81 -38 -34 -160 -82 -241 -97 -33 -5 -97
-12 -143 -15 -78 -4 -84 -3 -98 20 -9 13 -18 41 -21 62 l-5 39 99 6 c55 4 133
16 175 26 82 21 201 72 213 90 14 23 30 4 41 -50z m4694 -10 c0 -6 -24 -21
-52 -34 -85 -37 -95 -39 -108 -15 -15 27 -14 27 62 55 62 22 98 20 98 -6z
m-1230 -63 c0 -128 113 -292 284 -411 32 -23 8 -36 -37 -20 -62 21 -117 65
-180 145 -71 89 -115 178 -124 249 -5 45 -3 55 17 76 13 14 27 25 32 25 4 0 8
-29 8 -64z m-105 -75 c-8 -26 -123 -133 -138 -129 -6 3 -14 15 -15 27 -4 26
36 74 102 123 34 24 41 26 49 13 4 -8 6 -24 2 -34z m1423 27 c-5 -17 -91 -58
-134 -65 -27 -4 -34 -2 -34 11 0 9 1 16 3 16 1 0 29 11 62 25 66 27 109 32
103 13z m-597 -84 c-13 -10 -58 -31 -100 -49 -42 -18 -113 -51 -158 -74 -46
-22 -91 -41 -102 -41 -17 0 -49 27 -40 33 2 1 54 26 114 55 142 67 209 90 265
91 44 1 44 1 21 -15z m-778 -25 c5 -17 -9 -37 -62 -90 -37 -38 -72 -69 -77
-69 -6 0 -16 12 -23 28 -12 25 -11 29 26 61 49 43 114 91 123 91 4 0 10 -10
13 -21z m1505 2 c28 -18 -79 -44 -140 -34 l-43 6 50 18 c54 19 112 24 133 10z
m-5009 -45 c17 -20 -19 -43 -90 -58 -54 -11 -89 -8 -119 11 -23 16 -2 29 70
45 86 19 125 19 139 2z m114 -48 c8 -29 -12 -51 -76 -81 -83 -38 -139 -49
-226 -46 -66 3 -84 8 -102 26 -31 30 -17 45 26 27 65 -27 185 -13 283 33 28
13 57 33 62 44 14 25 26 24 33 -3z m3453 -128 c-14 -21 -41 -50 -60 -65 -29
-22 -38 -24 -55 -15 -39 20 -31 31 74 101 67 45 80 38 41 -21z m-3393 -17 c9
-38 20 -87 23 -110 6 -41 5 -43 -19 -43 -22 0 -28 6 -37 43 -6 23 -17 64 -25
92 -13 44 -12 51 2 67 27 30 39 21 56 -49z m-112 -30 c15 -41 38 -156 33 -165
-3 -4 -16 -8 -30 -8 -27 0 -29 5 -62 112 l-20 66 22 10 c34 17 46 14 57 -15z
m-314 -10 c17 -15 53 -144 53 -190 0 -17 -39 -3 -50 18 -16 30 -50 142 -50
167 0 26 20 29 47 5z m3533 -18 l23 -24 -81 -83 c-92 -95 -208 -232 -306 -363
-37 -49 -71 -90 -74 -89 -18 2 -72 27 -72 33 0 12 77 119 152 211 97 118 307
340 322 340 7 0 23 -11 36 -25z m419 12 c8 -10 4 -20 -17 -39 -66 -60 -122
-85 -122 -54 0 13 106 106 121 106 4 0 12 -6 18 -13z m-3779 -49 c6 -29 14
-72 17 -95 5 -39 4 -43 -16 -43 -24 0 -42 36 -60 119 -13 60 -9 71 24 71 20 0
25 -7 35 -52z m3489 -102 c13 -16 9 -22 -142 -191 -54 -60 -137 -161 -184
-222 -46 -62 -88 -115 -93 -118 -9 -6 -50 15 -50 25 0 6 124 160 229 285 84
101 211 235 222 235 3 0 12 -6 18 -14z m-5536 -147 c31 -17 36 -28 30 -68 -7
-47 -26 -93 -60 -147 -30 -46 -53 -60 -77 -47 -12 7 -10 19 15 77 16 38 37 98
46 133 8 35 17 63 20 63 2 0 14 -5 26 -11z m2263 -140 c17 -79 36 -162 42
-184 7 -22 12 -43 12 -47 0 -6 -55 -28 -70 -28 -10 0 -45 131 -76 280 -13 63
-24 115 -24 117 0 3 63 10 75 8 6 -1 24 -66 41 -146z m-2393 59 c-19 -66 -45
-117 -50 -101 -8 23 41 153 58 153 4 0 1 -24 -8 -52z m279 -38 c-4 -51 -63
-163 -94 -180 -15 -8 -29 -12 -32 -9 -9 9 107 230 118 226 6 -2 10 -19 8 -37z
m162 -71 c-1 -49 -30 -89 -63 -89 -51 0 -56 12 -33 72 11 29 23 61 26 71 6 18
7 18 39 0 27 -16 32 -25 31 -54z m167 42 c23 -18 23 -21 12 -75 -7 -31 -24
-80 -38 -108 -30 -60 -141 -178 -167 -178 -24 0 -23 6 12 50 44 55 109 201
122 270 12 64 22 71 59 41z m184 -77 c60 -26 114 -50 119 -55 17 -15 -54 -219
-77 -219 -4 0 -49 17 -100 39 -51 21 -102 42 -115 46 -13 4 -22 10 -20 13 33
60 61 136 65 174 3 26 8 48 12 48 3 0 55 -21 116 -46z m259 -167 c0 -31 -12
-69 -37 -120 -51 -102 -113 -167 -162 -167 -19 0 -23 -10 58 124 31 49 69 139
91 208 4 14 10 16 28 9 19 -7 23 -16 22 -54z m4012 -3 c115 -85 124 -93 118
-109 -9 -23 -35 -26 -62 -6 -15 10 -46 28 -70 40 -40 20 -43 21 -49 4 -4 -10
-18 -35 -31 -56 l-25 -38 28 -29 c16 -17 44 -40 62 -52 34 -24 43 -52 20 -61
-14 -5 -120 65 -191 126 l-40 34 68 106 c38 59 72 107 76 107 4 0 47 -30 96
-66z m-4751 13 c24 -18 11 -37 -25 -37 -32 0 -45 13 -36 35 7 19 36 19 61 2z
m905 -125 c30 -19 56 -36 58 -37 2 -1 -5 -19 -14 -39 -11 -22 -25 -36 -36 -36
-19 0 -138 46 -150 58 -3 4 5 31 18 60 26 60 18 61 124 -6z m1115 -49 c50
-143 213 -444 260 -483 21 -18 18 -29 -5 -23 -30 8 -106 116 -166 238 -65 134
-139 345 -120 345 2 0 16 -35 31 -77z m180 -25 c78 -198 178 -354 311 -485 41
-40 68 -73 61 -73 -6 0 -39 13 -72 28 -99 47 -205 178 -300 371 -41 82 -98
222 -93 226 10 7 44 24 49 25 4 0 23 -42 44 -92z m-1905 48 c70 -21 120 -48
120 -64 0 -21 -105 -9 -170 19 -53 23 -57 28 -38 47 15 15 32 15 88 -2z m570
-168 c20 -19 27 -48 11 -48 -5 0 -38 13 -73 30 -34 16 -68 30 -75 30 -22 0
-23 17 -2 39 l20 22 49 -27 c27 -15 58 -35 70 -46z m3603 17 c15 -13 27 -28
27 -34 0 -19 -196 -214 -279 -276 -114 -86 -299 -178 -426 -211 -81 -21 -131
-27 -265 -31 -162 -5 -204 -1 -105 11 348 41 670 197 897 434 42 44 84 92 93
106 21 32 23 32 58 1z m-3286 -108 c154 -135 315 -257 433 -329 102 -63 106
-70 20 -37 -187 71 -436 226 -574 357 l-56 53 22 29 c13 16 26 29 30 29 4 1
60 -45 125 -102z m3448 -17 c13 -21 -182 -226 -280 -296 -65 -46 -166 -106
-172 -101 -2 2 22 24 54 47 129 97 208 168 289 262 85 98 97 107 109 88z
m1251 -245 c-61 -124 -227 -264 -442 -375 -388 -199 -1128 -395 -1749 -462
-161 -17 -808 -17 -970 0 -674 72 -1235 247 -1618 504 -98 65 -177 128 -177
139 0 4 37 -18 83 -47 394 -260 1138 -475 1812 -524 213 -15 667 -13 872 5
515 45 1171 200 1598 377 298 124 532 295 597 438 14 31 24 44 26 34 2 -9 -12
-49 -32 -89z m-94 -317 c-194 -282 -860 -561 -1662 -697 -299 -51 -458 -65
-755 -65 -276 0 -435 11 -626 44 -107 18 -353 80 -346 86 2 2 48 -3 103 -11
180 -28 417 -38 764 -32 184 3 380 10 435 17 518 57 1052 175 1431 316 116 43
357 156 447 210 73 44 186 130 205 156 28 39 31 16 4 -24z m-5148 -208 c45
-161 209 -317 486 -463 114 -61 358 -167 430 -188 25 -7 46 -13 48 -14 1 -1
-12 -18 -30 -36 -18 -19 -37 -42 -43 -52 -9 -17 -14 -16 -80 6 -93 32 -249 99
-360 154 -292 146 -470 337 -490 527 -8 70 1 145 15 130 4 -5 15 -34 24 -64z
m1272 -711 c49 -13 56 -19 44 -38 -6 -11 -24 -10 -99 10 -50 13 -91 27 -91 31
0 12 95 10 146 -3z m227 -55 c3 -3 -7 -29 -23 -58 -56 -100 -71 -194 -50 -306
6 -29 8 -55 6 -57 -2 -2 -15 2 -30 8 -39 18 -60 97 -54 208 5 91 20 134 66
184 24 25 69 36 85 21z m-323 -48 l65 -22 -3 -45 c-2 -24 -7 -48 -12 -53 -10
-10 -102 12 -168 39 -32 14 -34 17 -29 51 12 70 21 72 147 30z m596 -6 c54
-11 99 -22 101 -24 2 -2 -1 -14 -6 -27 -13 -32 -37 -116 -46 -157 -7 -33 -7
-33 -53 -26 -58 8 -166 31 -209 45 -24 8 -33 16 -33 32 1 29 34 103 66 144 30
40 44 41 180 13z m283 -54 c29 -8 55 -17 58 -19 2 -3 -7 -27 -20 -54 -28 -56
-47 -135 -47 -198 l0 -45 -66 0 -65 0 -16 37 c-24 60 -13 156 27 231 37 69 41
71 129 48z m224 -55 c4 -4 -5 -32 -20 -61 -39 -75 -45 -205 -14 -270 11 -24
19 -45 17 -47 -2 -3 -22 1 -45 7 -33 9 -45 19 -62 53 -45 88 -32 224 29 305
22 29 30 33 56 28 17 -4 34 -10 39 -15z m-1149 -88 c118 -45 139 -69 51 -60
-73 7 -149 44 -153 75 -2 12 -2 22 0 22 2 0 48 -17 102 -37z m1296 -95 c0 -44
-29 -120 -50 -133 -19 -12 -21 0 -5 31 8 16 20 55 27 87 14 67 28 75 28 15z
m-741 -68 c92 -19 141 -40 141 -60 0 -14 -38 -12 -149 6 -71 12 -101 21 -113
36 -26 29 -23 50 5 43 12 -3 64 -14 116 -25z m371 -88 c21 -14 22 -17 8 -20
-24 -5 -128 17 -128 27 0 26 75 22 120 -7z"/>
<path d="M2242 8536 c-137 -124 -178 -487 -74 -656 16 -26 39 -49 55 -54 23
-8 31 -6 57 19 91 87 149 341 121 524 -19 119 -63 201 -108 201 -7 0 -30 -16
-51 -34z m57 -127 c12 -34 7 -49 -14 -49 -24 0 -37 36 -23 60 17 27 24 25 37
-11z m-69 -103 c0 -39 -14 -53 -35 -36 -10 9 -11 18 -3 41 14 41 38 38 38 -5z
m94 -55 c17 -19 17 -20 -4 -31 -38 -21 -68 8 -38 38 16 16 22 15 42 -7z m-106
-125 c-2 -23 -8 -31 -23 -31 -24 0 -32 34 -15 65 16 30 42 7 38 -34z m90 -34
c2 -13 -3 -25 -13 -28 -23 -9 -36 7 -28 34 7 29 37 25 41 -6z m-64 -78 c12
-32 6 -54 -14 -54 -26 0 -35 22 -20 49 13 25 26 27 34 5z"/>
<path d="M8534 7176 c-8 -21 3 -36 27 -36 15 0 20 6 17 22 -4 27 -35 37 -44
14z"/>
<path d="M8401 7146 c-15 -18 -3 -46 19 -46 20 0 32 23 24 45 -8 19 -28 19
-43 1z"/>
<path d="M8644 7065 c-4 -9 -2 -21 4 -27 15 -15 44 -1 40 19 -4 23 -36 29 -44
8z"/>
<path d="M8526 7012 c-3 -5 1 -17 8 -27 16 -22 49 -13 44 12 -3 19 -42 30 -52
15z"/>
<path d="M8410 6965 c-12 -15 -7 -45 7 -45 21 1 35 19 28 39 -8 25 -18 27 -35
6z"/>
<path d="M8747 6907 c-3 -8 -2 -20 3 -27 11 -18 42 -4 38 17 -4 22 -34 29 -41
10z"/>
<path d="M8632 6868 c2 -15 10 -23 23 -23 30 0 27 39 -3 43 -20 3 -23 0 -20
-20z"/>
<path d="M8542 6851 c-19 -11 -11 -45 11 -49 9 -2 20 4 23 13 9 21 -16 47 -34
36z"/>
<path d="M8434 6805 c-4 -9 -2 -21 4 -27 15 -15 44 -1 40 19 -4 23 -36 29 -44
8z"/>
<path d="M8794 6765 c-4 -9 -2 -21 4 -27 15 -15 44 -1 40 19 -4 23 -36 29 -44
8z"/>
<path d="M8683 6704 c-8 -22 4 -44 26 -44 24 0 33 13 25 33 -8 21 -44 29 -51
11z"/>
<path d="M8573 6664 c-3 -8 -1 -20 6 -27 14 -14 47 15 37 32 -10 16 -36 13
-43 -5z"/>
<path d="M8807 6586 c-6 -16 11 -36 30 -36 7 0 13 11 13 25 0 18 -5 25 -19 25
-10 0 -21 -6 -24 -14z"/>
<path d="M8644 6535 c-4 -9 -2 -21 4 -27 15 -15 44 -1 40 19 -4 23 -36 29 -44
8z"/>
<path d="M8754 6469 c-3 -6 0 -18 9 -26 18 -18 37 -9 37 18 0 21 -34 27 -46 8z"/>
<path d="M1700 8425 c-6 -8 -9 -23 -6 -33 5 -15 28 -24 114 -41 59 -11 117
-21 128 -21 19 0 34 17 34 39 0 13 -48 31 -137 51 -100 24 -117 24 -133 5z"/>
<path d="M1804 8155 c-123 -23 -164 -37 -164 -56 0 -24 22 -50 37 -45 9 4 59
13 112 21 178 28 161 21 161 65 0 26 -4 40 -12 39 -7 0 -68 -11 -134 -24z"/>
<path d="M1875 7869 c-55 -28 -109 -59 -120 -70 l-20 -20 24 -20 24 -19 63 34
c132 73 145 84 138 114 -4 15 -7 28 -8 29 -1 1 -47 -20 -101 -48z"/>
<path d="M2789 7333 c-80 -84 -217 -282 -292 -423 -181 -339 -286 -843 -247
-1190 17 -153 12 -144 96 -179 40 -17 78 -31 82 -31 5 0 3 26 -4 58 -66 292
-34 717 82 1072 61 187 202 449 351 655 17 25 20 38 15 74 l-7 44 -76 -80z"/>
<path d="M7347 7260 c-14 -69 -8 -90 57 -188 35 -53 81 -128 102 -167 20 -38
39 -72 41 -74 8 -10 50 19 65 47 l18 29 -53 86 c-52 86 -134 198 -193 265
l-31 35 -6 -33z"/>
<path d="M4250 6239 c0 -48 43 -196 77 -262 131 -261 388 -429 678 -443 104
-6 227 10 294 38 33 13 28 14 -85 14 -329 2 -598 138 -798 403 -41 56 -96 143
-121 194 -41 85 -45 89 -45 56z"/>
<path d="M7856 6039 c-27 -10 -54 -23 -59 -28 -6 -6 -5 -46 4 -113 22 -163 18
-564 -6 -713 -25 -154 -24 -172 9 -280 15 -49 30 -116 33 -149 7 -72 13 -63
52 84 59 223 87 502 76 755 -8 203 -36 457 -50 461 -5 1 -32 -6 -59 -17z"/>
<path d="M3962 5717 c-18 -18 -32 -40 -32 -48 0 -17 58 -258 65 -269 3 -5 20
-1 38 8 21 11 64 18 126 20 l93 4 -45 47 c-66 69 -134 156 -168 217 -17 30
-34 54 -38 54 -4 0 -21 -15 -39 -33z"/>
<path d="M3183 5600 c-117 -27 -277 -82 -374 -130 -84 -41 -208 -119 -209
-132 0 -3 30 -21 66 -40 l66 -35 112 58 c118 61 258 111 419 150 l98 24 -6 30
c-17 82 -25 95 -58 94 -18 0 -69 -9 -114 -19z"/>
<path d="M4252 5400 c-12 -5 -69 -12 -126 -16 -58 -4 -110 -10 -116 -14 -9 -5
-2 -32 24 -95 19 -48 37 -89 39 -92 3 -2 37 5 78 16 63 18 196 36 323 44 l40
2 -66 42 c-36 23 -87 61 -114 83 -27 22 -51 40 -54 39 -3 0 -15 -4 -28 -9z"/>
<path d="M4475 5214 c-16 -2 -73 -9 -125 -15 -52 -6 -124 -17 -160 -25 -111
-25 -105 -18 -69 -83 18 -32 44 -72 58 -88 l26 -31 100 18 c55 10 195 26 310
35 408 34 851 2 1142 -81 18 -5 36 8 98 72 74 77 75 79 48 82 -15 1 -82 16
-149 32 -225 55 -245 56 -359 25 -76 -20 -133 -28 -238 -32 -192 -8 -331 12
-509 72 -69 23 -101 27 -173 19z"/>
<path d="M4720 4969 c-200 -12 -460 -55 -475 -78 -2 -5 27 -39 66 -76 79 -77
48 -72 269 -39 162 25 606 25 775 1 65 -9 131 -17 145 -17 24 0 200 106 200
120 0 8 -217 55 -320 70 -82 12 -393 30 -480 28 -30 0 -111 -4 -180 -9z"/>
</g>
</svg>
