<?xml version="1.0" standalone="no"?>
<!DOCTYPE svg PUBLIC "-//W3C//DTD SVG 20010904//EN"
 "http://www.w3.org/TR/2001/REC-SVG-20010904/DTD/svg10.dtd">
<svg version="1.0" xmlns="http://www.w3.org/2000/svg"
 width="1024.000000pt" height="1024.000000pt" viewBox="0 0 1024.000000 1024.000000"
 preserveAspectRatio="xMidYMid meet">

<g transform="translate(0.000000,1024.000000) scale(0.100000,-0.100000)"
fill="#000000" stroke="none">
<path d="M4980 9186 c-341 -158 -958 -461 -977 -479 -12 -12 -106 -188 -209
-392 -103 -203 -196 -382 -206 -397 -17 -24 -17 -28 -4 -28 32 0 147 53 165
76 11 13 90 166 178 338 l158 315 125 60 c69 33 294 142 500 241 206 100 386
183 400 186 18 4 82 -22 225 -91 110 -53 218 -105 240 -115 22 -10 126 -60
230 -110 105 -50 225 -108 269 -128 l78 -37 163 -325 c90 -179 173 -335 186
-346 24 -22 169 -79 169 -67 0 3 -11 20 -23 37 -13 17 -105 191 -204 387 -99
195 -188 368 -198 383 -20 30 -86 63 -740 375 -199 94 -372 171 -385 171 -14
0 -77 -24 -140 -54z"/>
<path d="M4875 8910 c-126 -61 -249 -120 -273 -131 -23 -11 -134 -64 -246
-118 -194 -94 -204 -100 -227 -142 -67 -123 -452 -909 -447 -914 3 -3 16 -2
29 4 115 44 124 52 173 149 14 29 27 52 29 52 1 0 1 -315 -1 -700 -1 -386 1
-707 5 -714 6 -10 45 -6 188 16 658 102 1469 103 2040 3 50 -9 109 -19 133
-22 l42 -6 0 702 c0 385 3 701 8 701 4 0 20 -25 36 -55 16 -31 40 -64 53 -75
25 -20 133 -64 139 -57 3 2 -103 219 -233 483 l-238 478 -250 121 c-138 66
-346 166 -464 223 -118 57 -226 105 -240 108 -19 3 -91 -27 -256 -106z m684
-230 c282 -136 442 -219 450 -233 8 -12 54 -107 102 -211 l89 -190 0 -753 c0
-596 -3 -753 -12 -753 -25 1 -250 39 -255 43 -2 3 -5 246 -6 541 -2 348 -6
539 -13 546 -7 7 -276 9 -810 8 l-799 -3 -3 -551 -2 -551 -99 -12 c-54 -6
-115 -14 -135 -18 l-36 -6 3 759 2 759 96 198 c53 108 99 200 102 204 6 5 876
431 885 432 2 1 200 -94 441 -209z m-569 -1125 c0 -8 -221 -340 -228 -342 -4
-2 -18 16 -31 40 -42 74 -163 261 -184 285 l-20 22 231 0 c128 0 232 -2 232
-5z m700 1 c0 -2 -50 -79 -111 -172 l-111 -167 -21 34 c-12 19 -60 93 -107
164 -47 72 -86 133 -88 138 -2 4 96 7 217 7 122 0 221 -2 221 -4z m-1229 -108
c18 -29 77 -120 131 -202 107 -162 105 -152 56 -211 -4 -5 -54 -80 -109 -165
-56 -85 -105 -159 -110 -164 -5 -6 -9 156 -9 392 0 221 2 402 4 402 2 0 19
-24 37 -52z m1339 -355 l0 -388 -130 196 -130 196 128 191 c70 106 128 192
130 192 1 0 2 -174 2 -387z m-740 12 c0 -179 -3 -325 -7 -325 -12 1 -215 308
-211 319 4 11 212 330 216 330 1 1 2 -145 2 -324z m238 152 l101 -158 -95
-142 c-52 -78 -99 -152 -104 -164 -5 -13 -12 -23 -15 -23 -3 0 -5 149 -5 332
0 189 4 328 9 323 5 -6 54 -81 109 -168z m-301 -633 c3 -7 -63 -13 -214 -17
-120 -4 -233 -9 -251 -13 -33 -7 -31 -4 99 189 l132 195 114 -172 c64 -94 117
-176 120 -182z m483 348 c0 -5 54 -90 120 -191 66 -100 120 -183 120 -184 0
-1 -44 1 -97 4 -54 4 -157 7 -230 8 -72 1 -138 4 -146 7 -12 4 12 48 101 184
106 162 132 196 132 172z"/>
<path d="M4785 8508 c-3 -7 -4 -155 -3 -328 l3 -315 330 0 330 0 0 325 0 325
-328 3 c-258 2 -329 0 -332 -10z m259 -114 c12 -5 16 -21 16 -75 l0 -69 -80 0
-80 0 0 69 0 70 33 4 c56 7 95 7 111 1z m284 -71 l3 -73 -81 0 -80 0 0 69 c0
80 0 80 95 78 l60 -2 3 -72z m-268 -268 l0 -75 -80 0 -80 0 0 75 0 75 80 0 80
0 0 -75z m270 0 l0 -75 -80 0 -80 0 0 75 0 75 80 0 80 0 0 -75z"/>
<path d="M2999 8036 c-21 -7 -108 -51 -195 -98 -88 -47 -301 -161 -474 -253
-283 -151 -658 -351 -1040 -555 -233 -124 -246 -136 -256 -227 -12 -101 70
-261 186 -365 52 -47 61 -62 85 -133 84 -256 293 -448 535 -491 190 -34 368
23 507 162 35 35 65 64 67 64 2 0 6 -12 9 -27 8 -42 48 -94 95 -126 38 -25 42
-32 42 -69 0 -22 8 -53 18 -70 31 -54 91 -74 428 -144 l317 -65 51 -41 c28
-23 85 -72 126 -108 41 -37 145 -124 230 -194 85 -71 160 -134 166 -142 20
-25 24 -15 24 65 l0 78 -112 96 c-62 52 -153 129 -203 171 -49 42 -129 109
-177 149 -77 64 -84 72 -62 75 58 8 328 -167 481 -311 28 -27 47 -38 58 -33
15 5 16 16 10 84 -4 42 -10 82 -14 89 -7 14 -186 159 -213 174 -20 11 -20 11
3 23 l24 12 2 364 c2 202 -1 371 -6 379 -6 10 -51 18 -148 27 -76 6 -170 15
-208 19 -54 6 -73 4 -81 -6 -17 -21 -34 -102 -34 -159 0 -94 -51 -163 -113
-153 -38 6 -91 -14 -143 -53 -41 -32 -59 -63 -69 -122 l-7 -44 -162 4 c-134 2
-167 6 -189 21 -43 28 -37 71 18 123 25 24 62 52 84 63 l39 20 43 -22 c35 -17
61 -22 124 -22 81 0 103 7 185 56 119 71 171 204 113 286 -37 53 -38 55 -27
60 30 11 315 233 373 291 89 89 106 125 105 227 0 62 -7 97 -28 155 -45 120
-45 124 3 152 22 12 41 30 41 39 0 18 -146 262 -208 348 -49 67 -133 131 -205
155 -57 19 -168 20 -218 2z m208 -126 c23 -10 61 -38 85 -62 50 -51 197 -290
181 -295 -5 -2 -288 -170 -627 -374 l-617 -370 -77 55 c-89 62 -220 129 -414
211 -76 32 -138 62 -138 67 0 13 56 44 545 305 259 138 531 283 605 323 249
134 308 160 364 160 28 0 70 -9 93 -20z m271 -582 c12 -40 22 -82 22 -93 0
-27 -51 -75 -175 -165 -55 -40 -140 -103 -190 -140 -165 -122 -672 -460 -690
-460 -3 0 -5 10 -5 23 0 39 -28 133 -59 196 l-30 62 22 13 c12 7 117 69 232
137 116 68 350 208 520 311 171 102 315 187 320 187 6 1 20 -32 33 -71z m-3
-266 c-53 -50 -182 -152 -445 -350 -118 -89 -249 -188 -290 -220 -41 -32 -126
-93 -187 -136 l-113 -77 0 44 c0 55 0 55 225 203 99 65 268 181 375 258 391
283 542 380 435 278z m-1932 -23 c20 -5 37 -14 37 -19 0 -6 -4 -10 -8 -10 -16
0 -72 -108 -88 -170 -22 -86 -15 -257 15 -351 26 -83 101 -199 170 -262 105
-98 245 -137 366 -103 136 40 226 202 181 326 l-13 35 -11 -40 c-21 -73 -108
-135 -190 -135 -51 0 -152 51 -191 96 -74 84 -111 212 -90 312 15 73 28 98 78
147 l41 39 83 -43 c45 -24 137 -80 205 -125 136 -90 151 -109 173 -223 38
-201 -29 -372 -175 -443 -244 -120 -549 15 -681 303 -36 79 -70 208 -80 302
-12 120 28 275 89 340 37 39 37 39 89 24z m-203 -24 c0 -3 -11 -22 -25 -43
-40 -61 -57 -121 -59 -209 0 -46 -4 -83 -8 -83 -11 0 -56 63 -73 103 -19 47
-19 116 1 145 8 12 46 38 82 57 67 34 82 40 82 30z m350 -102 c-49 -70 -70
-136 -70 -223 0 -178 95 -346 240 -424 57 -31 127 -39 198 -24 47 11 39 -8
-13 -28 -142 -54 -344 55 -426 231 -64 136 -77 304 -32 406 26 59 86 119 118
119 24 0 24 -1 -15 -57z m1400 -386 c0 -37 -38 -97 -62 -97 -19 0 -58 58 -58
87 0 20 29 51 65 71 16 9 23 8 38 -9 9 -12 17 -35 17 -52z m425 -22 c117 -11
105 24 105 -299 0 -236 -2 -286 -15 -296 -11 -9 -49 -9 -161 -2 -210 15 -214
33 -16 72 57 11 108 22 113 26 5 3 9 91 9 196 0 225 -1 228 -84 228 -28 0 -68
-4 -89 -9 -44 -11 -49 -5 -41 48 7 44 19 51 74 45 19 -2 67 -6 105 -9z m-610
-72 c28 -31 31 -43 13 -61 -24 -24 -48 -12 -75 35 -9 16 -8 23 5 37 22 22 27
21 57 -11z m524 -92 c18 -12 6 -61 -15 -61 -8 0 -51 -17 -95 -37 -67 -30 -82
-34 -90 -22 -13 21 -11 26 20 48 27 20 150 81 161 81 3 0 11 -4 19 -9z m-1
-203 c-3 -51 -4 -53 -39 -65 -19 -6 -55 -13 -80 -15 l-44 -3 -3 36 c-3 36 -3
36 70 67 99 42 100 42 96 -20z m-285 15 c21 -20 23 -92 3 -132 -16 -30 -60
-54 -85 -46 -42 13 -65 104 -40 159 21 46 81 55 122 19z m-175 -228 c60 -14
36 -34 -66 -55 -74 -15 -182 -9 -216 14 -21 13 -24 24 -17 54 2 6 266 -6 299
-13z m239 -104 c37 -41 53 -71 38 -71 -22 0 -178 45 -192 55 -17 13 -17 14 2
35 47 52 92 46 152 -19z"/>
<path d="M1898 6734 c-38 -20 -68 -83 -68 -139 0 -80 43 -135 120 -156 61 -16
112 7 140 62 24 46 25 73 5 130 -35 98 -123 144 -197 103z m94 -91 c40 -36 12
-93 -39 -76 -34 12 -40 35 -19 68 19 29 33 31 58 8z"/>
<path d="M7331 7904 c-159 -43 -293 -160 -378 -330 -27 -55 -69 -159 -93 -231
l-44 -133 -35 0 c-41 0 -93 -28 -115 -62 -13 -20 -73 -217 -216 -708 -46 -159
-60 -268 -38 -310 21 -38 70 -66 188 -105 61 -20 112 -40 115 -45 3 -4 -19
-25 -47 -46 -163 -118 -636 -475 -647 -488 -10 -12 -12 -37 -6 -101 4 -47 10
-85 13 -85 8 0 141 103 407 315 305 243 433 335 465 335 16 0 31 -4 34 -9 3
-5 -36 -44 -87 -87 -50 -43 -224 -193 -386 -333 -162 -141 -322 -280 -356
-308 -35 -29 -65 -58 -68 -66 -5 -13 19 -96 32 -109 9 -10 428 350 779 671
112 102 211 187 221 189 9 2 95 -22 191 -51 352 -110 393 -120 441 -107 26 7
58 27 80 48 43 44 65 107 204 592 70 244 95 344 91 369 -6 39 -45 84 -87 101
-16 7 -29 18 -29 24 0 7 16 59 35 117 53 154 66 220 66 329 0 124 -12 171 -72
297 -55 115 -132 202 -234 263 -129 77 -288 101 -424 64z m334 -130 c188 -93
306 -280 305 -487 0 -76 -28 -202 -72 -327 -30 -87 -35 -95 -58 -92 -13 1 -26
5 -28 7 -3 3 11 60 31 127 54 185 60 223 54 303 -17 200 -142 362 -319 416
-144 44 -283 6 -398 -110 -67 -67 -121 -169 -175 -330 -33 -101 -39 -111 -61
-111 -14 0 -27 6 -29 13 -8 20 60 218 111 325 38 79 60 110 118 167 71 70 156
122 226 136 19 4 76 7 125 5 82 -2 97 -6 170 -42z m-117 -168 c101 -36 176
-119 213 -235 22 -73 24 -132 5 -216 -19 -86 -67 -235 -76 -235 -9 0 -602 199
-607 203 -6 7 68 211 103 282 82 168 227 248 362 201z m-652 -537 c147 -46
951 -316 1009 -338 27 -10 53 -27 58 -38 11 -24 -212 -773 -254 -855 -15 -28
-44 -39 -63 -25 -16 12 -14 23 22 147 22 74 43 149 46 165 l6 30 -22 -27 c-13
-15 -54 -82 -92 -148 -38 -67 -74 -124 -80 -126 -26 -10 -966 294 -997 322
-10 9 -19 27 -19 40 0 29 202 729 213 741 3 2 66 -10 141 -26 156 -35 146 -34
146 -22 0 5 -57 38 -126 72 -69 35 -128 67 -130 71 -10 16 7 48 25 48 10 0 63
-14 117 -31z"/>
<path d="M7218 6761 c-100 -33 -148 -134 -117 -253 11 -42 9 -47 -50 -170 -34
-70 -61 -132 -61 -136 0 -5 68 -29 150 -54 146 -44 150 -45 151 -24 0 11 2 30
4 41 2 10 9 60 15 110 15 127 15 127 60 158 92 65 113 196 43 271 -47 51 -134
76 -195 57z"/>
<path d="M4310 6240 c-119 -19 -190 -60 -190 -109 0 -40 -11 -48 -70 -56 -66
-9 -105 -27 -121 -57 -16 -30 -6 -134 30 -303 47 -222 54 -278 58 -473 3 -179
3 -185 -22 -239 -27 -60 -119 -173 -141 -173 -7 0 -28 -18 -45 -40 -18 -22
-51 -51 -74 -64 -42 -25 -59 -49 -70 -101 -15 -69 -142 -146 -350 -210 -226
-69 -304 -121 -354 -236 -27 -62 -75 -338 -75 -434 1 -136 28 -182 139 -230
33 -14 69 -30 80 -35 68 -31 106 -41 155 -42 33 0 71 -7 96 -19 30 -14 64 -19
140 -20 208 -3 254 -4 253 -9 0 -3 -163 -128 -362 -278 -520 -392 -540 -407
-560 -444 -24 -44 -18 -108 17 -178 47 -95 106 -140 183 -140 51 0 80 19 338
221 116 90 250 196 299 234 458 358 1104 865 1246 979 96 76 181 144 188 149
8 7 25 -2 55 -29 45 -42 67 -59 478 -381 303 -237 263 -206 759 -592 800 -622
726 -568 790 -582 75 -17 163 36 214 131 52 96 34 161 -66 231 -122 86 -186
135 -220 167 -36 34 -43 36 -189 59 -84 13 -154 21 -157 19 -5 -5 188 -135
238 -161 19 -10 36 -18 37 -19 2 -1 -20 -26 -48 -56 l-50 -53 -32 30 c-18 17
-86 70 -152 119 -153 113 -354 270 -860 669 -297 234 -495 395 -495 402 0 3
28 -11 63 -31 34 -20 141 -76 238 -125 212 -106 254 -133 529 -339 118 -89
218 -162 222 -162 4 0 -17 33 -46 74 -29 41 -68 104 -87 141 -24 47 -51 83
-91 118 -68 59 -76 83 -23 73 l35 -7 -37 68 c-20 37 -37 69 -39 71 -1 2 -39
-6 -85 -17 l-84 -19 -60 35 c-33 19 -73 46 -88 59 -23 19 -39 24 -72 23 -48
-3 -128 40 -212 114 -98 87 -160 135 -250 196 -93 64 -110 84 -98 121 6 20 7
20 33 2 15 -10 62 -38 105 -62 57 -31 105 -69 175 -139 88 -88 105 -101 187
-135 95 -40 221 -70 343 -81 l73 -7 -17 35 c-16 34 -21 36 -73 42 -109 11
-200 37 -299 85 -83 41 -110 61 -158 114 -56 62 -166 140 -516 364 -125 81
-192 131 -202 152 -5 10 -5 31 -1 47 7 26 8 27 19 9 41 -70 185 -179 371 -281
128 -70 239 -149 326 -232 120 -113 213 -158 390 -187 118 -20 109 -20 109 4
0 26 -32 45 -100 60 -82 19 -157 61 -144 81 2 4 43 5 89 2 74 -5 85 -4 85 10
0 23 -28 39 -151 86 -104 40 -237 114 -309 171 -19 15 -87 60 -150 100 -139
88 -152 102 -107 119 12 5 70 26 130 47 122 42 123 44 82 124 -85 168 -120
363 -112 625 5 147 22 345 30 351 1 0 33 -1 70 -4 65 -4 67 -5 51 -23 -12 -13
-15 -28 -10 -54 8 -43 40 -66 102 -73 42 -4 45 -6 40 -31 -3 -14 -8 -42 -12
-62 -6 -36 -7 -37 -57 -42 -41 -3 -56 -10 -79 -36 -64 -71 -5 -161 105 -161
71 0 77 -68 9 -88 -85 -26 -123 -84 -94 -143 22 -44 61 -56 125 -39 51 13 60
9 71 -26 5 -17 -2 -25 -44 -48 -61 -33 -84 -71 -69 -114 11 -33 47 -62 76 -62
10 0 38 11 61 25 24 14 47 23 52 20 4 -2 15 -25 24 -50 21 -55 19 -59 -69
-117 -66 -45 -105 -78 -105 -89 0 -28 93 0 210 64 30 17 78 36 105 42 39 9 51
16 53 33 3 17 -4 23 -36 31 -54 15 -94 48 -90 75 4 29 32 32 67 7 32 -23 81
-28 81 -8 0 7 -17 55 -39 108 -65 159 -83 245 -88 414 -3 90 0 180 7 225 6 41
15 102 20 135 4 33 15 109 24 169 21 145 21 192 -3 225 -44 62 -211 121 -414
146 -153 19 -433 20 -502 1 -70 -18 -112 -42 -121 -68 -5 -13 -7 -144 -5 -293
3 -340 -16 -571 -54 -644 -10 -21 -13 -14 -18 60 -4 46 -7 261 -7 477 0 252
-4 400 -10 413 -6 10 -30 29 -53 41 -38 20 -58 22 -237 24 -107 2 -220 -1
-250 -6z m395 -119 l30 -13 -23 -18 c-13 -11 -40 -22 -60 -26 -71 -12 -207
-56 -224 -73 -13 -12 -22 -51 -33 -136 -21 -155 -31 -192 -62 -221 -30 -28
-110 -34 -119 -10 -3 8 -1 64 5 123 5 59 13 165 17 235 l6 127 36 7 c135 25
372 28 427 5z m807 -6 c211 -26 340 -53 331 -68 -13 -21 -354 4 -608 44 -157
25 -165 27 -145 39 27 17 227 10 422 -15z m-403 -120 c143 -36 414 -65 623
-65 75 0 139 -4 142 -8 3 -5 -1 -49 -9 -98 -7 -49 -16 -107 -19 -129 -3 -22
-5 -41 -6 -42 0 -2 -7 -3 -15 -3 -21 0 -52 54 -61 104 -7 44 -21 77 -37 88 -6
3 -34 4 -62 1 -97 -10 -536 36 -602 63 -30 12 -33 17 -33 58 0 52 0 52 79 31z
m-990 -160 c-2 -122 -4 -135 -20 -135 -21 0 -34 38 -50 147 -13 82 -9 100 23
113 49 19 49 19 47 -125z m657 -340 c-6 -347 -13 -414 -66 -611 -18 -65 -37
-153 -44 -194 l-12 -75 -56 -3 -56 -3 35 103 c95 285 129 521 140 971 6 247 7
259 27 273 21 14 21 13 29 -63 5 -43 6 -222 3 -398z m-146 382 l0 -53 -70 -1
c-77 -1 -77 0 -64 65 7 32 16 36 102 40 l32 2 0 -53z m449 -47 c19 -5 88 -17
155 -26 67 -9 122 -17 124 -19 2 -2 -4 -70 -14 -151 -24 -212 -16 -470 20
-610 13 -55 39 -135 55 -178 17 -42 31 -80 31 -84 0 -4 -33 -17 -72 -29 -132
-40 -122 -41 -147 19 -36 84 -93 176 -170 272 -39 49 -74 99 -77 112 -3 13 1
45 9 71 31 97 37 159 37 393 0 132 3 240 8 240 4 0 22 -4 41 -10z m589 -72
c15 -15 16 -58 1 -58 -19 0 -49 20 -49 33 0 13 19 37 30 37 3 0 11 -5 18 -12z
m-1103 -25 c11 -14 10 -20 -4 -30 -25 -19 -41 -15 -41 10 0 40 23 50 45 20z
m75 -187 c0 -52 -4 -98 -10 -101 -5 -3 -20 1 -32 9 -13 8 -49 22 -82 31 -82
24 -118 64 -82 94 8 7 42 16 76 22 35 5 75 16 89 24 14 8 29 14 34 15 4 0 7
-42 7 -94z m1184 -3 c4 -9 4 -15 1 -11 -4 3 -20 2 -36 -2 -28 -8 -29 -7 -29
26 l0 35 29 -15 c16 -9 32 -23 35 -33z m-1689 3 c10 -7 20 -21 21 -30 2 -14
-4 -17 -29 -14 -27 2 -33 8 -35 31 -4 30 12 36 43 13z m207 -72 c27 -14 30
-19 24 -52 -3 -20 -14 -45 -26 -56 -18 -18 -23 -19 -57 -7 -45 16 -73 38 -73
58 0 20 61 73 83 73 10 0 32 -7 49 -16z m1491 -51 c2 -21 1 -42 -4 -47 -4 -5
-5 -15 -2 -22 3 -8 0 -14 -6 -14 -7 0 -14 7 -17 15 -4 8 -12 15 -20 15 -7 0
-19 10 -25 22 -10 19 -8 25 15 45 38 33 53 29 59 -14z m-185 5 c33 -33 -2 -67
-52 -49 -34 13 -33 37 2 49 36 14 36 14 50 0z m-1115 -42 c3 -12 -30 -32 -39
-24 -11 12 5 40 21 36 9 -2 17 -7 18 -12z m-394 -45 c16 -10 6 -31 -15 -31 -8
0 -14 9 -14 20 0 22 7 25 29 11z m487 -35 c7 -18 -21 -212 -46 -316 -41 -166
-73 -256 -132 -369 -47 -87 -61 -125 -63 -163 -4 -61 6 -59 61 13 l42 54 93 6
c74 4 100 2 122 -10 15 -8 27 -18 27 -22 0 -3 -55 -56 -122 -117 -216 -196
-482 -382 -547 -382 -12 0 -47 26 -84 63 -70 69 -145 117 -228 146 -78 28
-173 46 -195 37 -15 -6 -3 -13 51 -30 111 -35 211 -93 281 -163 35 -34 64 -69
64 -77 0 -28 -190 -59 -365 -59 -238 0 -443 42 -505 105 -27 27 -31 37 -26 66
8 49 52 109 104 139 24 15 103 44 176 65 216 65 371 150 442 244 37 48 48 52
147 60 74 5 88 4 93 -9 3 -9 -1 -26 -10 -39 -9 -12 -16 -30 -16 -40 0 -47 98
-165 182 -219 71 -46 81 -31 22 32 -107 116 -138 182 -69 151 32 -15 90 -15
117 -1 11 6 29 31 39 55 23 51 18 67 -38 113 -33 28 -36 33 -27 58 8 22 15 27
34 25 14 -2 35 -10 47 -18 32 -20 73 -17 100 8 22 21 30 63 15 83 -20 29 -68
55 -99 55 -19 0 -33 3 -31 8 27 55 58 126 58 132 0 22 29 30 75 20 89 -20 145
20 145 104 0 42 -32 71 -96 87 -54 14 -76 52 -45 82 17 18 24 19 63 9 45 -12
118 1 118 20 0 13 20 9 26 -6z m1208 -64 c3 -5 8 -31 12 -59 6 -49 5 -50 -20
-55 -23 -5 -29 -1 -41 30 -16 37 -19 74 -8 85 9 10 51 9 57 -1z m-1516 -50 c5
-33 -21 -67 -60 -79 -28 -8 -40 -6 -80 16 -27 14 -48 28 -48 32 0 23 89 58
145 56 34 -2 41 -6 43 -25z m1382 -66 c0 -29 -5 -33 -45 -37 -23 -3 -30 0 -33
15 -5 23 23 46 55 46 18 0 23 -6 23 -24z m-1232 -8 c17 -17 15 -26 -7 -37 -13
-7 -24 -6 -37 3 -15 12 -16 16 -5 30 16 19 33 20 49 4z m-322 -59 c3 -6 1 -16
-6 -22 -10 -9 -11 -9 -6 1 4 6 2 12 -3 12 -6 0 -11 5 -11 10 0 13 17 13 26 -1z
m852 -49 c90 -104 192 -302 192 -372 0 -36 -2 -38 -30 -38 -51 0 -123 45 -190
117 -34 37 -67 78 -72 90 -8 16 -3 51 17 137 14 64 30 116 33 116 4 0 26 -23
50 -50z m892 -14 c27 -29 21 -56 -12 -56 -29 0 -57 58 -35 72 18 11 21 10 47
-16z m-1674 -53 c-12 -35 -16 -38 -52 -38 -32 0 -40 4 -42 20 -3 23 45 53 85
54 21 1 21 -1 9 -36z m1532 -70 c-4 -22 -48 -31 -48 -10 0 19 10 27 32 27 13
0 18 -6 16 -17z m-1600 -100 c5 -32 -47 -57 -99 -48 -58 10 -48 45 18 65 46
14 78 8 81 -17z m165 -4 c-11 -11 -43 -2 -43 11 0 12 44 17 49 7 2 -5 -1 -13
-6 -18z m-120 -173 c9 -7 17 -18 17 -25 0 -15 -45 -32 -64 -25 -13 5 -30 34
-24 39 9 7 44 24 48 24 3 0 13 -6 23 -13z m823 -160 c111 -66 139 -89 131
-109 -4 -10 -12 -17 -19 -17 -17 1 -198 134 -220 163 -24 31 -22 42 5 25 12
-8 59 -36 103 -62z m-216 -66 c0 -8 -98 -90 -185 -157 -44 -33 -127 -105 -185
-160 -144 -137 -151 -143 -274 -212 -176 -97 -316 -131 -551 -132 -230 -2
-397 30 -509 97 -95 56 -90 91 6 46 120 -58 276 -84 488 -83 365 1 560 77 808
316 59 57 165 151 237 208 109 88 132 103 147 93 10 -6 18 -13 18 -16z m86
-119 c-8 -15 -25 -35 -38 -44 -13 -8 -39 -29 -58 -46 -40 -36 -46 -37 -58 -14
-11 19 9 39 99 97 65 43 74 45 55 7z m178 -97 c28 -11 18 -30 -47 -90 -63 -59
-337 -282 -497 -405 -47 -36 -213 -166 -370 -289 -157 -123 -409 -321 -560
-439 -151 -117 -281 -218 -287 -223 -9 -7 -29 4 -69 38 l-56 48 23 16 c28 18
560 418 739 555 69 53 171 128 227 166 126 88 172 137 221 236 65 132 138 235
182 258 23 12 30 12 49 -1 11 -8 21 -22 21 -31 0 -38 173 26 270 100 80 60
117 75 154 61z m-778 -363 c-8 -15 -39 -54 -68 -85 -47 -49 -58 -56 -92 -56
-31 0 -45 -7 -71 -34 -48 -51 -94 -76 -140 -76 -36 0 -42 3 -53 32 l-11 31
-33 -27 c-54 -43 -82 -55 -150 -62 -59 -6 -66 -4 -91 18 -24 23 -37 25 -144
31 -225 12 -425 85 -448 165 -8 29 6 28 54 -4 105 -69 333 -110 566 -101 226
9 463 69 621 157 38 22 70 39 72 40 1 0 -4 -13 -12 -29z m-1140 -1097 c53 -56
58 -70 32 -94 -48 -45 -53 -44 -117 14 l-59 54 42 31 c22 16 47 30 55 31 7 0
29 -16 47 -36z m4034 -15 c22 -12 40 -22 40 -23 0 -2 -20 -25 -45 -52 -25 -27
-45 -52 -45 -55 0 -4 -7 -10 -16 -13 -19 -7 -74 32 -74 53 0 18 76 111 90 111
5 0 28 -9 50 -21z m-4190 -151 c22 -30 27 -45 19 -52 -13 -13 -69 48 -69 76 0
29 18 21 50 -24z m4285 -24 c-17 -27 -61 -51 -72 -40 -4 3 13 27 38 52 32 33
45 41 47 29 2 -9 -4 -27 -13 -41z"/>
<path d="M4585 3898 c-28 -16 -51 -46 -75 -97 -24 -50 -21 -60 14 -38 36 24
146 128 146 138 0 13 -61 11 -85 -3z"/>
<path d="M7215 5271 c-111 -28 -201 -121 -244 -251 -9 -30 -19 -38 -71 -59
-34 -12 -86 -40 -117 -61 l-57 -38 -65 56 c-87 73 -138 95 -222 95 -177 0
-328 -153 -338 -340 -4 -86 3 -124 23 -117 7 3 33 50 56 105 67 157 150 230
265 231 28 0 66 -6 85 -15 34 -14 100 -72 100 -87 0 -4 -33 -10 -72 -13 -140
-10 -239 -69 -362 -213 -89 -104 -110 -150 -114 -250 -4 -79 -3 -85 48 -205
29 -68 76 -182 106 -254 146 -360 217 -499 317 -626 118 -148 290 -231 482
-232 272 -1 568 234 640 508 19 76 19 207 0 273 -17 55 -79 172 -98 184 -9 5
-7 12 4 24 16 15 22 11 90 -48 41 -35 104 -104 141 -153 95 -128 160 -178 276
-211 75 -22 234 -14 315 15 184 65 325 211 394 406 24 71 27 94 27 200 0 108
-3 127 -28 187 -42 100 -118 179 -222 228 -82 40 -465 290 -635 416 -121 89
-166 108 -261 108 -42 0 -83 -5 -90 -12 -16 -13 -24 -8 -61 37 -81 98 -198
140 -312 112z m174 -130 c69 -36 69 -44 -1 -94 -61 -43 -131 -113 -154 -152
-9 -17 -15 -14 -64 32 l-54 51 18 46 c46 120 153 169 255 117z m413 -129 c26
-13 100 -61 165 -108 65 -47 156 -111 203 -143 47 -33 107 -75 134 -94 l49
-35 -39 -11 c-21 -5 -52 -13 -69 -17 -50 -11 -156 -73 -219 -127 -40 -35 -62
-48 -71 -41 -7 5 -44 31 -83 57 -97 66 -227 183 -350 316 l-104 111 24 20
c111 96 252 124 360 72z m-760 -116 c62 -26 71 -56 18 -56 -14 0 -49 -6 -76
-14 -53 -15 -160 -27 -168 -19 -11 11 145 100 180 102 6 1 27 -5 46 -13z m234
-157 c32 -28 75 -65 94 -83 l35 -31 -26 -3 c-21 -2 -42 11 -103 71 -69 67 -90
97 -68 97 5 0 35 -23 68 -51z m-112 -60 c86 -92 98 -109 73 -109 -15 0 -187
176 -187 191 0 26 37 -1 114 -82z m-206 34 c2 -7 -2 -13 -10 -13 -7 0 -33 -13
-58 -30 -45 -29 -45 -30 -64 -10 -20 20 -20 20 -1 34 21 16 90 35 114 33 8 -1
16 -8 19 -14z m-281 -62 c52 -41 423 -382 461 -424 14 -15 22 -34 20 -48 -3
-20 -14 -25 -88 -41 -92 -20 -216 -75 -294 -131 l-49 -36 -50 72 c-210 304
-307 461 -307 498 0 39 41 83 112 118 87 44 132 42 195 -8z m371 -18 c33 -20
122 -104 122 -115 0 -21 -45 -3 -86 34 -82 76 -103 123 -36 81z m624 -92 l53
-49 -53 -16 c-30 -8 -93 -18 -142 -22 -88 -7 -89 -6 -114 21 -14 15 -26 31
-26 35 0 11 171 79 202 79 18 1 43 -14 80 -48z m846 -6 c67 -20 149 -95 185
-169 53 -107 45 -249 -20 -386 -48 -100 -162 -217 -255 -260 -145 -68 -295
-74 -404 -17 -107 56 -165 211 -134 360 18 91 92 228 163 303 79 85 133 121
231 156 92 32 158 35 234 13z m-1159 -96 c18 -22 32 -41 30 -43 -2 -1 -37 -26
-76 -54 -40 -29 -81 -52 -92 -52 -18 0 -111 75 -101 82 3 2 39 21 80 42 41 21
82 45 90 52 22 21 32 17 69 -27z m531 -59 c8 -5 12 -11 9 -14 -3 -3 -14 1 -25
9 -21 16 -8 20 16 5z m-1676 -63 c13 -30 81 -158 151 -286 166 -305 176 -327
164 -360 -6 -14 -14 -51 -18 -81 l-8 -55 -47 100 c-103 216 -229 493 -252 554
-22 57 -34 181 -19 181 3 0 16 -24 29 -53z m1374 7 c30 -21 62 -86 62 -126 0
-44 -38 -99 -86 -123 -22 -11 -42 -24 -45 -28 -8 -11 -88 38 -116 72 -44 52
-23 148 44 201 32 25 108 27 141 4z m147 6 c-4 -7 2 -9 18 -5 26 7 78 -12 115
-42 l24 -19 -24 -37 c-13 -20 -26 -36 -29 -37 -11 0 -119 131 -119 144 0 3 5
6 11 6 5 0 7 -5 4 -10z m-385 -302 c172 -84 268 -272 230 -451 -42 -203 -244
-400 -461 -452 -211 -49 -409 33 -487 203 -35 76 -42 205 -17 298 45 168 235
356 418 414 87 27 103 29 182 24 52 -3 87 -12 135 -36z m-670 -116 c0 -24 -24
-7 -42 29 -25 51 -21 57 12 19 16 -19 29 -41 30 -48z m-94 -28 c8 -20 12 -44
9 -53 -5 -11 -12 -2 -26 34 -22 59 -22 55 -8 55 5 0 17 -16 25 -36z"/>
<path d="M8314 4456 c-219 -71 -396 -345 -345 -533 27 -98 116 -171 221 -180
117 -11 279 66 362 171 57 71 108 182 115 249 11 112 -39 224 -122 273 -56 33
-164 42 -231 20z m125 -132 c16 -21 21 -41 21 -88 -1 -71 -17 -121 -56 -178
-37 -53 -84 -84 -160 -103 -57 -14 -65 -14 -103 1 -53 21 -52 30 2 26 97 -8
188 44 239 135 31 56 38 103 24 186 -8 54 2 60 33 21z m-101 -29 c6 -66 -7
-101 -54 -154 -51 -56 -105 -81 -130 -60 -25 21 -13 101 22 152 33 47 119 109
143 105 11 -2 17 -16 19 -43z m222 -46 c42 -172 -82 -361 -266 -406 -56 -14
-74 -14 -113 -4 -25 7 -55 21 -66 33 l-20 20 25 -13 c39 -20 138 -16 190 8 85
38 145 96 186 178 34 70 38 84 38 160 1 46 4 81 7 79 4 -2 13 -27 19 -55z"/>
<path d="M7483 4252 c-51 -40 -33 -122 27 -122 33 0 70 40 70 76 0 28 -33 64
-57 64 -10 0 -28 -8 -40 -18z"/>
<path d="M7048 3961 c-133 -44 -248 -145 -313 -276 -33 -68 -39 -91 -43 -161
-5 -102 14 -165 70 -229 57 -65 106 -88 203 -93 144 -8 269 38 379 140 119
109 174 261 141 390 -26 102 -78 169 -170 216 -68 34 -185 40 -267 13z m120
-103 c16 -16 15 -111 -2 -151 -29 -70 -127 -137 -200 -137 -56 0 -66 8 -66 51
0 88 63 190 145 232 36 19 106 22 123 5z m119 -92 c9 -73 -5 -130 -47 -195
-78 -121 -205 -176 -340 -148 -33 7 -88 43 -79 51 2 3 29 -2 59 -10 71 -18
129 -10 204 29 102 54 176 176 176 289 0 64 20 53 27 -16z m119 -63 c10 -65
-9 -145 -46 -203 -38 -60 -124 -141 -176 -168 -83 -42 -223 -52 -269 -18 -14
10 -7 12 41 8 111 -8 225 46 322 152 56 62 86 129 97 219 4 31 11 57 16 57 4
0 11 -21 15 -47z"/>
</g>
</svg>
