<?xml version="1.0" standalone="no"?>
<!DOCTYPE svg PUBLIC "-//W3C//DTD SVG 20010904//EN"
 "http://www.w3.org/TR/2001/REC-SVG-20010904/DTD/svg10.dtd">
<svg version="1.0" xmlns="http://www.w3.org/2000/svg"
 width="225.000000pt" height="225.000000pt" viewBox="0 0 225.000000 225.000000"
 preserveAspectRatio="xMidYMid meet">

<g transform="translate(0.000000,225.000000) scale(0.100000,-0.100000)"
fill="#000000" stroke="none">
<path d="M1035 2243 c-252 -35 -478 -223 -557 -463 -29 -89 -36 -281 -14 -371
65 -259 271 -452 544 -510 l52 -11 0 -224 0 -224 -130 0 c-127 0 -132 -1 -156
-26 -20 -19 -24 -31 -19 -52 11 -47 28 -52 172 -52 l133 0 0 -135 c0 -122 2
-137 20 -155 26 -26 64 -26 90 0 18 18 20 33 20 155 l0 135 133 0 c144 0 161
5 172 52 5 21 1 33 -19 52 -24 25 -29 26 -156 26 l-130 0 0 223 0 224 88 21
c136 34 223 82 323 182 69 68 94 102 127 170 61 125 75 189 70 334 -8 196 -60
317 -198 457 -146 147 -361 220 -565 192z m206 -137 c222 -47 396 -235 427
-463 46 -329 -211 -623 -543 -623 -181 0 -354 92 -454 240 -275 412 87 948
570 846z"/>
</g>
</svg>
