<?xml version="1.0" standalone="no"?>
<!DOCTYPE svg PUBLIC "-//W3C//DTD SVG 20010904//EN"
 "http://www.w3.org/TR/2001/REC-SVG-20010904/DTD/svg10.dtd">
<svg version="1.0" xmlns="http://www.w3.org/2000/svg"
 width="702.000000pt" height="981.000000pt" viewBox="0 0 702.000000 981.000000"
 preserveAspectRatio="xMidYMid meet">

<g transform="translate(0.000000,981.000000) scale(0.100000,-0.100000)"
fill="#000000" stroke="none">
<path d="M6105 9709 c-407 -49 -757 -94 -778 -99 -65 -19 -96 -96 -63 -158 8
-15 90 -102 183 -194 192 -191 164 -178 338 -157 52 6 99 9 104 8 6 -2 -256
-270 -581 -596 l-593 -592 -89 59 c-585 390 -1358 436 -2001 120 -404 -198
-732 -528 -931 -935 -124 -254 -204 -575 -204 -821 l0 -61 -47 -14 c-153 -42
-365 -142 -523 -246 -697 -460 -1035 -1280 -869 -2108 105 -526 450 -1020 909
-1306 197 -122 457 -226 662 -265 l98 -19 0 -382 0 -383 -439 0 c-417 0 -440
-1 -462 -19 -24 -19 -24 -20 -27 -272 -2 -140 0 -264 3 -276 3 -12 15 -32 27
-43 21 -19 34 -20 460 -20 l438 0 0 -436 0 -436 29 -29 29 -29 262 0 262 0 29
29 29 29 0 436 0 436 438 0 439 0 24 26 c24 25 24 27 27 272 2 136 0 257 -3
270 -3 12 -14 31 -25 42 -19 19 -35 20 -460 20 l-440 0 0 384 0 383 49 7 c139
18 369 95 535 178 212 106 368 219 536 388 171 172 285 334 396 565 115 241
177 480 192 744 l7 113 121 42 c491 171 901 529 1137 994 149 292 217 583 217
925 0 248 -32 445 -107 662 -47 135 -137 318 -217 439 -36 55 -66 102 -66 106
0 3 261 266 580 585 481 481 580 576 580 554 0 -14 -5 -63 -11 -108 -8 -62 -8
-89 1 -110 6 -16 89 -106 184 -200 173 -170 174 -171 218 -171 47 0 88 23 108
60 11 21 190 1507 190 1578 0 76 -49 123 -127 121 -21 -1 -371 -41 -778 -90z
m-2281 -1908 c615 -125 1086 -595 1222 -1221 27 -122 27 -478 0 -600 -40 -186
-118 -377 -211 -522 -140 -216 -343 -407 -559 -527 -83 -45 -232 -111 -253
-111 -4 0 -26 56 -47 125 -75 238 -216 495 -384 695 -371 444 -948 719 -1510
720 l-113 0 6 58 c27 245 94 450 210 647 242 411 661 689 1140 754 110 15 383
5 499 -18z m-1494 -1946 c471 -91 883 -403 1098 -831 33 -66 112 -271 112
-291 0 -11 -225 6 -310 22 -445 86 -837 370 -1066 772 -43 76 -112 239 -133
317 l-10 39 112 -6 c62 -3 150 -13 197 -22z m-742 -198 c46 -145 130 -326 211
-457 356 -572 1017 -949 1670 -950 l124 0 -7 -72 c-57 -593 -469 -1116 -1033
-1311 -194 -68 -283 -82 -513 -82 -162 0 -223 4 -290 19 -642 139 -1108 606
-1237 1241 -14 70 -18 134 -17 290 1 219 14 308 74 485 123 370 414 706 764
882 89 45 185 87 201 88 6 0 29 -60 53 -133z"/>
</g>
</svg>
