<?xml version="1.0" standalone="no"?>
<!DOCTYPE svg PUBLIC "-//W3C//DTD SVG 20010904//EN"
 "http://www.w3.org/TR/2001/REC-SVG-20010904/DTD/svg10.dtd">
<svg version="1.0" xmlns="http://www.w3.org/2000/svg"
 width="360.000000pt" height="360.000000pt" viewBox="0 0 360.000000 360.000000"
 preserveAspectRatio="xMidYMid meet">

<g transform="translate(0.000000,360.000000) scale(0.100000,-0.100000)"
fill="#000000" stroke="none">
<path d="M2337 3120 c-57 -45 -53 -144 6 -180 29 -18 52 -20 227 -20 l195 0
-305 -305 c-299 -299 -305 -304 -325 -287 -81 71 -236 146 -380 184 -102 26
-305 36 -413 18 -651 -104 -1043 -760 -829 -1385 121 -351 436 -617 811 -684
95 -17 289 -13 391 8 435 90 762 443 826 890 15 110 7 271 -21 386 -25 102
-109 286 -165 359 l-38 48 299 299 c164 164 301 296 305 294 3 -3 6 -88 6
-189 -2 -201 4 -226 55 -252 49 -25 96 -18 134 20 l34 34 0 357 0 357 -34 34
-34 34 -360 0 c-347 0 -360 -1 -385 -20z m-635 -829 c243 -62 460 -246 551
-466 59 -143 62 -161 62 -330 0 -158 0 -161 -36 -262 -20 -56 -51 -128 -70
-159 -178 -295 -532 -454 -859 -386 -173 36 -284 92 -408 207 -384 356 -339
976 92 1274 108 74 242 125 381 145 58 8 213 -4 287 -23z"/>
</g>
</svg>
