<?xml version="1.0" standalone="no"?>
<!DOCTYPE svg PUBLIC "-//W3C//DTD SVG 20010904//EN"
 "http://www.w3.org/TR/2001/REC-SVG-20010904/DTD/svg10.dtd">
<svg version="1.0" xmlns="http://www.w3.org/2000/svg"
 width="512.000000pt" height="512.000000pt" viewBox="0 0 512.000000 512.000000"
 preserveAspectRatio="xMidYMid meet">

<g transform="translate(0.000000,512.000000) scale(0.100000,-0.100000)"
fill="#000000" stroke="none">
<path d="M363 4116 c-44 -37 -111 -154 -145 -252 -73 -212 -33 -395 123 -557
l65 -68 -150 -121 c-163 -130 -187 -153 -217 -210 -24 -47 -26 -164 -3 -231
31 -91 136 -180 246 -207 40 -10 51 -19 72 -54 35 -60 101 -125 149 -147 70
-31 138 -25 237 21 67 31 97 40 140 40 73 0 101 -19 180 -119 37 -47 105 -114
160 -159 52 -42 112 -95 134 -117 74 -77 227 -321 245 -390 5 -22 21 -128 36
-235 14 -107 42 -266 61 -354 32 -143 35 -167 28 -248 -9 -113 8 -157 71 -188
38 -18 61 -20 283 -20 132 0 263 5 290 11 113 24 136 112 66 250 l-38 74 3
165 c1 91 4 166 6 168 2 2 49 -12 104 -32 165 -58 272 -77 481 -83 373 -11
606 38 807 169 36 22 69 38 78 34 25 -9 55 -69 55 -109 0 -73 -59 -278 -95
-332 -62 -91 -86 -253 -44 -291 19 -18 42 -19 298 -22 l277 -3 21 23 c11 13
35 58 53 102 18 43 44 90 57 105 l25 26 -22 -37 c-64 -111 -71 -144 -37 -184
l25 -29 189 -3 c179 -3 190 -2 216 18 67 53 63 231 -11 599 l-30 143 43 -6
c57 -7 100 9 114 43 8 19 11 226 9 731 l-3 705 -28 55 c-33 64 -104 141 -162
175 -24 14 -77 30 -130 40 -54 9 -100 23 -115 35 -126 97 -214 134 -361 150
-52 5 -298 10 -547 10 -417 0 -462 2 -555 21 -209 42 -437 138 -620 261 -112
75 -143 88 -214 88 -52 0 -72 -7 -192 -67 -133 -68 -134 -68 -215 -67 -100 0
-167 19 -317 91 l-116 55 -6 91 c-3 57 -15 123 -31 172 -30 94 -103 228 -146
268 -34 31 -80 36 -104 11 -18 -17 -18 -19 -16 -149 2 -218 -86 -312 -301
-323 -164 -8 -267 39 -321 147 -26 50 -28 64 -28 170 0 139 -10 165 -61 169
-27 2 -44 -3 -66 -22z m104 -506 c30 -28 85 -65 122 -82 l68 -33 -65 -64 -64
-64 -41 30 c-53 36 -112 115 -132 172 -15 43 -21 192 -9 204 3 3 19 -21 36
-53 17 -36 51 -79 85 -110z m796 -49 c-32 -103 -135 -182 -216 -167 -38 7 -60
27 -76 68 -10 27 -8 28 54 58 76 36 170 120 217 193 l33 52 3 -74 c2 -50 -3
-92 -15 -130z m-429 -186 c49 -100 145 -152 258 -142 84 7 153 45 235 128 l70
70 82 -41 c188 -94 364 -129 503 -100 36 8 113 39 177 73 80 41 121 57 137 53
13 -4 65 -33 116 -67 118 -76 346 -188 465 -229 216 -72 212 -72 813 -80 593
-7 603 -8 714 -68 77 -40 159 -129 200 -214 102 -215 123 -555 55 -893 -41
-200 -44 -325 -11 -430 45 -146 122 -541 137 -702 l7 -73 -76 0 -76 0 30 60
c16 33 30 66 30 74 0 26 -120 407 -142 450 -39 75 -63 98 -220 202 -111 73
-190 136 -272 214 -64 60 -127 112 -140 116 -18 4 -55 -9 -132 -46 -317 -153
-649 -215 -1106 -208 -125 2 -230 7 -234 10 -3 4 4 48 16 98 14 58 20 102 16
125 -8 41 -50 78 -80 69 -46 -13 -63 -48 -112 -246 l-48 -193 -7 -260 c-3
-143 -9 -270 -13 -281 -8 -24 8 -61 55 -131 16 -23 29 -44 29 -47 0 -3 -45 -6
-100 -6 -76 0 -100 3 -100 13 0 13 63 123 80 141 4 4 0 22 -10 40 -10 17 -35
112 -55 210 -72 347 -78 359 -243 485 -135 103 -160 131 -275 307 -106 163
-124 184 -259 291 -85 67 -128 110 -182 183 -48 64 -87 104 -120 125 -47 28
-55 30 -155 30 -101 0 -110 -2 -187 -37 -93 -43 -116 -46 -161 -18 -40 24 -41
33 -8 54 58 38 51 116 -11 142 -27 11 -46 12 -101 2 -109 -18 -180 7 -230 81
-54 80 -19 151 127 262 121 91 266 223 368 335 62 68 114 124 116 124 2 0 16
-25 30 -55z m3958 -582 c69 -71 66 -44 68 -713 1 -333 1 -620 1 -639 l-1 -34
-21 19 c-64 56 -74 170 -34 368 40 200 48 302 42 521 -7 222 -20 304 -71 433
-18 45 -30 82 -27 82 4 0 23 -17 43 -37z m-843 -1247 c63 -61 158 -138 244
-198 31 -23 57 -45 57 -50 0 -5 -9 -69 -20 -141 -31 -199 -42 -230 -107 -299
-53 -55 -56 -62 -60 -116 -2 -31 -6 -63 -8 -69 -5 -15 -115 -18 -115 -4 0 29
24 63 60 86 40 25 40 25 40 89 0 38 9 91 21 128 11 34 23 102 26 149 5 73 2
92 -15 132 -28 64 -125 164 -172 178 -42 13 -59 6 -167 -66 -231 -155 -620
-201 -1018 -120 -71 14 -161 37 -198 50 -67 23 -113 52 -101 64 3 3 150 6 327
7 275 1 341 4 452 22 237 37 529 124 660 195 17 9 32 16 34 17 2 0 29 -24 60
-54z m-2130 -140 c21 -14 48 -38 60 -54 27 -39 66 -177 98 -347 28 -153 26
-174 -19 -297 -19 -53 -23 -58 -50 -58 -27 0 -30 3 -24 25 20 79 18 112 -12
206 -17 52 -38 133 -46 179 -19 101 -54 370 -49 370 2 0 21 -11 42 -24z m2645
-362 c43 -137 44 -127 -14 -164 -54 -35 -112 -104 -149 -177 -19 -38 -25 -43
-56 -43 -19 0 -35 3 -35 7 0 4 25 50 55 103 66 115 90 183 105 293 6 45 14 98
17 117 l5 35 23 -46 c13 -25 35 -81 49 -125z"/>
<path d="M953 3170 c-54 -13 -120 -57 -131 -89 -22 -64 48 -112 132 -90 94 25
144 82 124 141 -16 46 -50 56 -125 38z"/>
</g>
</svg>
