<?xml version="1.0" standalone="no"?>
<!DOCTYPE svg PUBLIC "-//W3C//DTD SVG 20010904//EN"
 "http://www.w3.org/TR/2001/REC-SVG-20010904/DTD/svg10.dtd">
<svg version="1.0" xmlns="http://www.w3.org/2000/svg"
 width="1024.000000pt" height="1024.000000pt" viewBox="0 0 1024.000000 1024.000000"
 preserveAspectRatio="xMidYMid meet">

<g transform="translate(0.000000,1024.000000) scale(0.100000,-0.100000)"
fill="#000000" stroke="none">
<path d="M8105 8304 c-85 -46 -107 -84 -223 -374 -100 -252 -455 -1128 -617
-1525 -59 -143 -151 -370 -206 -505 l-100 -245 38 -75 38 -75 58 135 c32 74
96 228 144 342 l86 208 38 -22 c66 -37 329 -239 329 -252 0 -7 -22 -68 -49
-135 -38 -93 -46 -121 -33 -116 9 4 46 17 81 30 l64 23 32 78 c39 96 456 1105
565 1369 43 105 108 262 145 350 81 197 109 230 186 223 27 -3 52 -8 56 -12 4
-3 -12 -25 -34 -49 -33 -33 -55 -75 -103 -192 -204 -496 -466 -1129 -625
-1510 -51 -121 -91 -222 -89 -224 5 -6 123 40 133 53 8 9 81 182 288 681 25
61 74 178 108 260 35 83 97 231 138 330 41 99 101 242 133 318 l57 138 31 -7
c17 -3 132 -31 256 -61 244 -59 286 -62 339 -23 33 23 61 76 61 117 0 57 -53
114 -139 147 -82 32 -556 157 -617 163 -100 9 -187 -43 -234 -144 -15 -32
-231 -561 -277 -680 -3 -7 -10 -13 -15 -13 -12 0 -244 179 -313 243 l-50 45
27 74 c14 40 74 190 133 333 59 143 120 290 135 328 37 90 55 115 95 134 26
12 42 14 67 7 47 -14 47 -39 1 -83 -32 -31 -54 -76 -132 -267 -51 -126 -121
-294 -154 -373 l-60 -145 48 -43 c27 -24 52 -43 56 -43 4 0 199 462 293 697
26 66 23 65 221 13 179 -48 254 -57 324 -40 95 23 137 103 91 177 -35 58 -109
91 -375 168 -194 56 -396 78 -450 49z m520 -180 c143 -40 207 -69 203 -94 -3
-11 -16 -15 -53 -13 -64 2 -332 82 -363 108 -2 2 2 13 8 25 14 26 17 26 205
-26z m378 -445 c129 -32 271 -77 291 -92 27 -20 14 -47 -21 -47 -57 0 -403
103 -403 120 0 22 14 40 32 40 11 0 56 -9 101 -21z m-1038 -689 c66 -50 121
-97 123 -104 1 -7 -13 -50 -33 -97 -42 -98 -236 -573 -273 -669 -14 -36 -26
-66 -28 -68 -5 -7 -53 24 -179 116 -168 123 -197 150 -189 176 10 33 272 662
309 744 l34 73 58 -39 c32 -22 112 -81 178 -132z"/>
<path d="M7767 6992 c-20 -46 -129 -308 -208 -500 -33 -79 -59 -146 -59 -150
1 -10 85 -72 97 -72 6 0 18 21 28 48 10 26 71 177 137 336 65 160 117 295 115
300 -3 6 -25 25 -49 43 l-45 32 -16 -37z"/>
<path d="M5290 8094 c-25 -13 -56 -41 -69 -61 -34 -53 -26 -153 24 -293 63
-177 62 -175 29 -223 -16 -23 -38 -61 -48 -84 -10 -24 -27 -45 -37 -48 -33
-11 -70 -47 -93 -94 -22 -42 -30 -49 -82 -65 -90 -28 -236 -108 -339 -186
-251 -189 -466 -506 -535 -791 -11 -46 -32 -169 -46 -274 -18 -140 -31 -204
-49 -243 -30 -65 -144 -240 -175 -267 l-23 -20 5 80 c6 93 31 162 108 295 45
78 52 99 57 162 l6 72 -62 -49 c-74 -59 -123 -115 -179 -209 -39 -65 -116
-250 -143 -344 -7 -24 -17 -41 -23 -39 -6 2 -50 17 -98 33 -69 23 -88 33 -88
48 0 44 167 298 267 406 71 76 179 163 279 223 58 35 62 40 71 87 12 59 9 60
-69 29 -81 -31 -117 -49 -194 -96 -97 -58 -244 -213 -319 -334 -32 -52 -63
-97 -69 -102 -6 -4 -29 -12 -51 -17 -141 -35 -316 -113 -373 -164 -109 -99
-90 -196 57 -290 73 -47 91 -66 236 -247 313 -389 417 -528 413 -554 -3 -17
-13 -21 -78 -27 -185 -17 -358 -92 -483 -208 -133 -125 -237 -294 -292 -475
-19 -64 -65 -299 -65 -335 0 -4 -23 -24 -50 -44 -60 -43 -104 -108 -120 -177
-17 -69 4 -121 74 -187 65 -62 118 -89 224 -117 78 -21 84 -24 112 -67 104
-157 413 -327 595 -328 51 0 103 31 117 70 8 25 15 30 44 30 32 0 33 -1 22
-25 -10 -22 -9 -29 9 -47 17 -16 28 -19 55 -14 53 10 122 59 141 99 24 49 34
53 52 17 8 -16 22 -30 30 -30 32 0 116 63 135 101 14 26 29 41 48 45 42 10 93
53 109 93 8 20 32 52 52 71 29 27 40 46 45 80 3 25 20 72 36 104 22 43 30 73
30 111 0 40 5 56 21 71 40 36 52 73 46 142 l-6 63 126 60 c69 33 127 58 128
57 1 -2 12 -34 25 -73 32 -100 86 -199 130 -239 54 -49 132 -65 194 -42 98 37
164 148 211 355 13 57 26 105 29 108 7 8 169 -28 192 -42 11 -7 43 -51 70 -97
109 -181 281 -443 323 -490 56 -63 105 -88 173 -88 68 1 125 27 178 81 81 84
83 98 62 420 -6 96 -15 304 -18 460 l-7 284 87 63 c47 35 262 214 476 397 397
340 540 456 616 501 43 25 512 248 738 350 124 56 158 80 182 126 43 83 -20
185 -126 203 -38 6 -98 -12 -340 -107 -63 -25 -209 -78 -325 -118 -326 -112
-314 -105 -636 -385 -329 -287 -454 -394 -460 -395 -11 0 220 440 268 513 52
78 62 125 39 180 -23 52 -71 83 -268 172 -200 90 -304 141 -311 153 -3 4 1 34
9 67 22 89 29 308 14 401 -23 147 -88 310 -175 444 -47 71 -216 254 -243 261
-9 3 -7 14 8 44 17 32 19 50 14 102 -5 45 -3 67 7 79 7 9 68 42 135 74 209 99
283 204 225 318 -25 48 -56 76 -111 100 -44 19 -45 20 -62 91 -21 90 -51 139
-96 158 -48 20 -93 10 -176 -39 -37 -22 -86 -43 -107 -45 -38 -5 -42 -3 -122
74 -105 101 -168 133 -256 133 -52 0 -76 -6 -111 -26z m208 -128 c20 -13 68
-56 105 -95 81 -85 116 -105 164 -96 39 7 116 42 178 80 52 32 71 31 90 -5 46
-88 -10 -178 -197 -314 -72 -52 -98 -65 -98 -49 0 3 7 41 16 84 9 43 14 84 12
91 -2 6 -31 -25 -63 -70 -35 -49 -65 -82 -74 -80 -8 2 -19 24 -26 53 -6 28
-21 68 -33 90 -27 51 -107 166 -97 140 19 -51 37 -174 31 -209 -6 -31 -11 -37
-29 -34 -41 6 -133 232 -144 355 -5 59 -5 61 23 77 37 21 93 14 142 -18z m734
-343 c27 -24 22 -39 -30 -92 -33 -33 -71 -57 -125 -79 -67 -29 -87 -32 -150
-30 -96 4 -95 20 5 78 43 25 113 66 155 91 85 51 117 58 145 32z m-596 -237
c137 -41 219 -93 199 -126 -10 -16 -45 -12 -124 15 -41 14 -120 37 -175 50
-123 31 -146 40 -146 59 0 43 107 44 246 2z m-206 -115 c221 -55 364 -111 385
-151 28 -53 3 -53 -173 4 -75 25 -181 57 -235 72 -55 15 -109 36 -120 46 -22
18 -22 18 -3 33 26 20 55 19 146 -4z m-280 -137 c0 -4 -15 -27 -33 -53 -32
-43 -117 -213 -117 -231 0 -5 58 38 130 95 144 116 219 160 257 150 21 -5 23
-9 17 -43 -7 -39 -23 -87 -72 -214 -35 -90 -29 -91 60 -9 34 31 71 80 99 130
46 84 55 90 105 71 l27 -11 -6 -127 c-6 -109 -28 -246 -52 -317 -4 -11 21 9
55 44 69 71 103 135 121 232 6 35 14 71 16 79 7 20 49 -102 73 -210 24 -105
27 -329 6 -440 -8 -41 -13 -76 -11 -78 8 -8 88 111 113 169 26 61 27 72 26
214 0 119 -5 166 -21 225 -12 41 -19 77 -17 79 8 8 66 -54 106 -113 57 -83
133 -247 158 -341 13 -47 24 -127 27 -195 7 -153 -11 -245 -92 -471 -36 -98
-68 -197 -71 -219 -11 -67 -24 -45 -25 43 0 85 -32 283 -41 257 -3 -8 -13 -85
-22 -170 -9 -85 -25 -193 -37 -239 -11 -46 -18 -85 -15 -88 3 -3 108 18 233
46 125 28 283 64 351 79 68 15 124 31 125 35 1 5 -77 49 -173 99 -96 49 -179
94 -184 99 -6 5 2 9 22 9 69 0 427 -150 494 -208 46 -39 -12 -61 -388 -147
-159 -37 -390 -91 -514 -121 -124 -30 -315 -75 -425 -100 -809 -183 -862 -192
-1080 -181 -150 8 -220 25 -520 130 -132 46 -346 119 -475 162 -264 88 -310
111 -310 154 0 40 37 68 129 96 22 7 24 5 18 -23 -12 -58 -12 -58 398 -199
547 -188 651 -213 868 -213 153 0 210 10 852 149 127 27 252 53 278 56 26 4
46 9 43 12 -2 2 -51 -2 -108 -11 -160 -24 -413 -39 -523 -32 -266 17 -490 106
-651 258 -30 28 -54 47 -54 41 0 -5 7 -31 17 -58 21 -63 134 -178 218 -223 64
-34 58 -40 -16 -18 -162 49 -275 147 -282 245 -1 17 -5 31 -8 31 -4 0 -25 -30
-47 -67 -22 -38 -63 -93 -91 -124 -48 -53 -53 -56 -84 -50 -54 13 -77 29 -69
49 4 9 46 76 93 147 184 279 252 391 328 544 63 124 143 320 138 334 -7 22
-163 -147 -227 -245 -35 -54 -65 -96 -67 -94 -9 9 59 221 102 318 165 372 436
658 744 785 57 23 81 28 81 17z m3208 -1403 c22 -14 10 -41 -28 -61 -46 -26
-451 -202 -564 -246 -127 -49 -213 -96 -292 -162 -115 -95 -711 -599 -833
-705 -63 -55 -146 -120 -185 -145 -72 -47 -461 -228 -681 -317 -66 -27 -122
-50 -124 -51 -9 -7 453 -756 509 -827 46 -57 42 -71 -20 -82 -27 -5 -43 -1
-70 17 -35 24 -61 64 -416 643 l-122 200 -39 3 c-29 3 -35 1 -26 -9 12 -12
-47 -45 -187 -104 -128 -54 -741 -335 -1070 -490 -195 -92 -438 -207 -540
-255 -324 -153 -426 -184 -600 -184 -160 -1 -261 39 -323 125 -31 42 -34 92
-6 97 8 1 44 -16 78 -39 74 -49 163 -79 235 -79 111 0 290 63 561 197 126 63
838 402 1085 518 156 73 406 181 1200 520 190 81 382 167 426 191 77 41 246
174 494 389 455 393 596 508 673 546 80 41 812 315 847 318 3 1 11 -3 18 -8z
m-1713 -532 c-57 -129 -172 -351 -255 -492 -52 -88 -71 -111 -107 -131 -86
-49 -89 -47 -44 41 21 43 91 174 154 292 64 117 128 243 144 279 26 62 30 66
88 92 33 15 61 26 63 25 2 -1 -18 -49 -43 -106z m-259 -5 c-10 -37 -282 -580
-317 -630 -16 -24 -44 -54 -62 -67 -106 -80 -680 -358 -995 -484 l-113 -44
-47 15 c-26 9 -60 26 -75 39 -27 21 -121 155 -401 572 -74 111 -143 208 -153
217 -10 8 -63 30 -118 48 -125 41 -195 70 -195 81 0 15 21 10 136 -30 176 -62
254 -75 449 -75 l170 -1 630 147 c347 80 704 163 795 182 91 20 181 40 200 45
19 5 50 9 69 10 31 1 33 -1 27 -25z m-2895 -98 c206 -73 323 -117 329 -123 9
-9 -63 6 -197 43 -142 39 -263 90 -263 110 0 8 1 14 3 14 2 0 59 -20 128 -44z
m-60 -65 c44 -29 91 -79 242 -255 73 -85 78 -93 72 -126 -4 -19 -9 -37 -12
-40 -7 -7 -48 41 -208 240 -173 215 -187 242 -94 181z m760 -423 c60 -25 108
-75 115 -119 5 -30 -9 -65 -94 -239 -55 -113 -163 -333 -239 -490 -77 -157
-147 -291 -156 -298 -9 -8 -21 -11 -27 -7 -5 3 -10 1 -10 -4 0 -6 -4 -11 -10
-11 -36 0 9 106 277 643 112 224 203 416 203 427 0 20 -30 44 -101 78 -26 12
-53 30 -60 38 -12 15 -10 16 21 9 19 -4 56 -16 81 -27z m-285 -109 c4 -6 36
-25 72 -41 72 -33 132 -76 132 -95 0 -20 -21 -16 -121 28 -113 49 -119 53
-119 90 0 30 22 40 36 18z m-27 -193 c42 -22 111 -102 111 -129 0 -13 -8 -31
-18 -41 -18 -15 -20 -15 -39 1 -11 10 -23 28 -27 41 -8 23 -52 52 -81 52 -31
0 -57 -39 -54 -83 3 -61 1 -67 -21 -67 -13 0 -26 14 -40 39 -29 58 -62 80
-109 74 -36 -5 -38 -4 -45 27 -3 19 -1 38 5 46 18 21 70 16 117 -11 l43 -25
50 25 c34 18 49 31 49 45 0 24 20 26 59 6z m483 -118 c30 -35 73 -89 97 -121
60 -80 90 -102 168 -127 37 -13 72 -26 77 -31 11 -10 -51 -22 -95 -17 -29 2
-34 0 -37 -20 -2 -12 -11 -26 -21 -31 -14 -8 -26 5 -71 77 -29 48 -87 138
-127 200 -67 101 -79 132 -53 132 4 0 32 -28 62 -62z m-920 -21 c36 -16 57
-36 83 -77 40 -62 45 -96 15 -105 -25 -8 -46 7 -67 48 -20 39 -63 76 -89 77
-11 0 -31 -11 -43 -24 -30 -32 -59 -24 -36 10 8 13 15 30 15 38 0 15 47 55 65
56 6 0 31 -10 57 -23z m2775 -309 c5 -161 8 -294 7 -296 -1 -2 -52 11 -113 29
l-111 32 -42 66 c-90 142 -159 265 -155 276 3 6 45 28 93 50 49 21 136 60 194
86 58 26 108 48 111 48 3 1 10 -131 16 -291z m-1907 115 c0 -21 -15 -15 -38
16 -12 17 -19 37 -16 46 5 12 11 9 30 -17 13 -17 24 -38 24 -45z m-1043 18
c70 -32 117 -129 78 -161 -24 -20 -64 3 -71 40 -5 24 -14 32 -42 40 -47 13
-81 3 -92 -26 -7 -17 -17 -24 -35 -24 -22 0 -25 4 -25 33 0 39 21 72 64 98 39
24 70 24 123 0z m633 -25 c0 -28 -36 -55 -95 -71 -85 -24 -132 -54 -207 -133
-100 -107 -147 -222 -164 -402 -7 -80 -29 -120 -66 -120 -15 0 -18 8 -18 58 0
126 35 265 99 387 45 88 163 209 241 248 85 42 210 61 210 33z m2429 -237 c7
-101 16 -233 22 -294 5 -60 9 -149 9 -196 0 -79 -2 -89 -29 -126 -37 -51 -94
-87 -125 -79 -24 6 -45 36 -25 36 25 0 101 64 120 102 20 39 20 47 10 202 -12
182 -13 605 -2 565 5 -14 14 -108 20 -210z m-2134 109 c22 -15 55 -50 74 -78
30 -44 33 -53 23 -75 -6 -14 -16 -25 -22 -25 -11 0 -146 135 -159 160 -5 8 -5
25 0 37 10 27 25 23 84 -19z m1335 -33 c17 -25 30 -49 28 -54 -4 -12 -108 29
-108 42 0 9 38 54 47 56 1 1 16 -19 33 -44z m-1730 -52 c0 -9 -35 -53 -78 -97
-88 -90 -122 -144 -161 -249 -32 -87 -54 -96 -59 -24 -7 101 44 223 126 305
66 67 172 107 172 65z m-640 -8 c59 -30 109 -155 62 -155 -10 0 -35 18 -55 40
-35 40 -56 47 -104 34 -12 -3 -27 -19 -33 -34 -13 -32 -30 -42 -50 -30 -18 11
-8 114 13 138 21 23 127 28 167 7z m2086 -52 c-17 -119 -61 -223 -95 -223 -24
0 -45 25 -75 90 -41 87 -39 91 62 138 114 53 116 53 108 -5z m-1189 -68 c12
-22 23 -42 23 -46 0 -10 -91 -49 -101 -43 -11 6 -2 88 13 117 14 28 40 16 65
-28z m927 -109 c32 -88 76 -161 119 -197 36 -31 22 -47 -21 -25 -57 30 -125
152 -139 251 -9 69 11 55 41 -29z m-1911 -37 c69 -35 107 -105 75 -137 -9 -9
-20 -5 -48 22 -36 35 -90 58 -90 37 0 -15 -54 -41 -67 -33 -6 4 -14 21 -17 39
-6 27 -3 37 18 58 28 28 89 34 129 14z m3094 -13 l51 -24 7 -59 c3 -32 9 -70
11 -85 8 -42 -7 -34 -48 25 -20 28 -55 78 -78 110 -39 54 -40 57 -18 57 13 0
46 -11 75 -24z m-931 -96 c-29 -44 -66 -58 -45 -17 17 34 63 79 67 67 2 -6 -8
-29 -22 -50z m-891 -73 c9 -36 -22 -143 -67 -229 -49 -94 -161 -214 -233 -250
-96 -48 -151 -61 -241 -56 -70 4 -94 10 -158 41 -74 37 -161 117 -153 141 2 6
16 17 31 24 25 13 29 11 68 -23 22 -21 66 -49 97 -64 48 -22 70 -26 146 -26
82 0 97 3 157 33 122 60 213 174 275 343 15 41 32 77 38 81 19 14 35 8 40 -15z
m-165 -52 c0 -32 -64 -140 -112 -192 -28 -29 -75 -65 -105 -79 -47 -23 -62
-26 -121 -22 -66 5 -151 39 -159 64 -2 6 30 15 79 23 104 15 176 49 227 107
25 29 66 58 108 79 79 39 83 40 83 20z m-1150 -63 c0 -11 -8 -13 -32 -8 -40 8
-63 29 -54 51 5 15 10 14 46 -6 22 -13 40 -29 40 -37z m834 -37 c-22 -16 -44
-19 -44 -6 0 9 21 18 49 20 10 1 9 -4 -5 -14z m-574 -291 c0 -17 -22 -14 -28
4 -2 7 3 12 12 12 9 0 16 -7 16 -16z m-130 -44 c15 -11 30 -31 32 -45 l5 -25
-39 22 c-21 12 -45 32 -53 45 -14 22 -14 23 6 23 11 0 33 -9 49 -20z m210 -96
c47 -19 49 -26 15 -48 -34 -22 -46 -20 -85 14 -32 26 -33 29 -13 30 12 0 25 5
28 10 8 13 7 13 55 -6z m208 -99 c29 -8 24 -27 -11 -39 -52 -19 -115 24 -65
43 23 9 31 9 76 -4z"/>
<path d="M5985 5050 c-148 -37 -416 -102 -595 -145 -179 -43 -406 -97 -505
-121 -191 -46 -331 -66 -430 -63 -33 2 -59 -1 -58 -7 5 -20 167 -247 271 -380
133 -168 210 -244 247 -244 l27 0 -42 58 c-48 65 -141 206 -158 239 -11 20 -8
24 33 48 25 15 45 29 45 32 0 3 -24 2 -54 -1 -48 -7 -56 -5 -65 13 -14 25 -5
32 132 96 54 26 96 49 94 51 -4 4 -201 -53 -249 -71 -11 -4 -20 0 -28 14 -9
19 -7 23 17 32 387 150 911 318 1433 460 85 23 159 46 165 50 12 12 29 16
-280 -61z"/>
<path d="M6601 6348 l-173 -72 5 -54 c3 -30 8 -56 10 -59 3 -2 41 14 85 36
110 55 246 111 272 111 28 0 37 -28 14 -46 -27 -21 -335 -174 -350 -174 -20 0
-31 -28 -39 -102 l-7 -67 29 10 c15 5 127 60 248 122 239 122 265 143 265 216
0 80 -57 142 -137 147 -41 3 -73 -6 -222 -68z"/>
<path d="M2830 6234 c-85 -25 -292 -81 -460 -125 -168 -44 -372 -98 -455 -120
-82 -22 -244 -64 -359 -94 -115 -30 -213 -60 -218 -67 -4 -7 -8 -255 -8 -551
l0 -538 -27 3 c-23 3 -29 11 -46 61 -10 32 -25 61 -33 64 -18 6 -274 -75 -296
-95 -16 -13 -18 -38 -18 -228 0 -211 0 -214 23 -228 24 -17 129 -46 782 -223
208 -56 790 -215 909 -247 70 -20 131 -36 135 -36 3 0 17 30 29 68 25 71 86
182 135 245 16 21 28 39 26 41 -5 4 -547 134 -1149 276 -663 157 -765 181
-772 188 -4 4 -9 19 -10 32 -3 24 -1 25 52 24 81 -2 914 -187 1848 -409 l112
-27 37 28 c20 16 46 34 56 40 23 13 43 7 -248 70 -245 52 -754 166 -1012 226
l-223 51 0 139 c0 80 4 138 9 138 6 0 142 -26 303 -59 161 -32 393 -78 516
-101 l222 -42 0 -143 0 -143 31 -6 c73 -14 69 -21 69 135 l0 141 33 -6 c114
-20 116 -20 122 7 4 14 4 30 1 35 -3 5 -39 15 -81 22 l-75 13 0 160 0 159 33
-5 c119 -21 124 -21 131 8 9 37 3 42 -62 55 -115 23 -102 0 -102 187 l0 165
29 -7 c25 -5 33 -1 60 32 l31 38 -32 7 c-44 9 -313 57 -642 113 -367 63 -536
100 -536 115 0 4 12 10 28 13 25 4 455 116 782 204 300 80 425 113 433 113 5
0 7 -10 5 -22 -2 -18 -17 -28 -68 -46 -64 -23 -534 -153 -765 -211 -238 -61
-241 -53 29 -90 l236 -33 147 40 c162 45 325 83 331 77 9 -8 -11 -26 -46 -41
-20 -9 -95 -35 -165 -59 l-129 -42 143 -22 142 -22 133 32 134 33 0 187 c0
103 4 199 10 213 13 35 29 34 267 -14 109 -22 206 -40 215 -40 10 0 38 13 64
30 43 27 45 29 23 34 -13 3 -55 13 -94 21 -215 49 -505 105 -535 104 -19 -1
-105 -21 -190 -45z m-1304 -500 c20 -5 22 -15 28 -146 4 -78 3 -145 -1 -149
-4 -4 -35 -2 -68 4 l-60 12 -7 80 c-4 44 -5 103 -3 130 2 28 4 56 5 63 0 13
67 17 106 6z m369 -59 c138 -25 372 -66 522 -92 l272 -46 3 -161 c2 -89 2
-162 2 -164 -2 -4 -804 149 -1001 190 l-53 11 0 154 c0 84 1 153 3 153 1 0
115 -20 252 -45z m-344 -347 c9 -14 13 -271 4 -280 -6 -5 -118 16 -134 26 -11
7 -16 277 -6 288 10 9 127 -20 136 -34z m603 -98 c265 -50 493 -93 509 -96
l27 -6 0 -154 c0 -85 -3 -154 -7 -154 -5 0 -75 13 -158 30 -82 16 -278 55
-435 85 -157 31 -321 64 -365 73 l-80 18 -3 147 c-2 132 -1 147 14 147 10 0
234 -41 498 -90z m-619 -270 c25 -9 25 -11 25 -127 0 -65 -4 -124 -9 -132 -9
-14 -40 -11 -108 10 l-33 11 0 130 0 131 50 -7 c28 -4 62 -11 75 -16z m-182
-615 c128 -31 295 -73 372 -95 77 -21 226 -62 330 -90 204 -55 546 -156 633
-186 62 -22 65 -41 7 -36 -67 6 -688 168 -1505 392 -68 19 -100 39 -100 62 0
14 25 9 263 -47z"/>
<path d="M3160 5910 c0 -142 3 -181 13 -177 7 2 49 15 94 28 70 20 83 27 96
54 8 16 42 68 76 113 34 46 60 86 58 89 -3 2 -71 17 -152 33 -81 16 -155 32
-166 35 -18 6 -19 -1 -19 -175z"/>
<path d="M7369 6013 c-11 -26 -61 -147 -111 -268 -50 -121 -104 -246 -120
-279 -16 -32 -27 -60 -25 -63 3 -2 31 16 62 42 32 25 74 57 94 70 32 21 45 44
103 182 37 87 78 186 92 220 l24 62 -49 42 -49 41 -21 -49z"/>
<path d="M7749 5123 c-6 -16 -28 -77 -49 -138 -21 -60 -57 -161 -79 -223 -23
-62 -41 -116 -41 -119 0 -3 21 -3 48 1 108 15 757 88 877 98 72 6 134 15 140
20 5 5 2 8 -9 8 -21 0 -373 98 -638 177 -176 53 -222 73 -163 73 48 0 364 -71
749 -169 345 -88 385 -100 345 -105 -24 -3 -96 -13 -159 -21 -63 -8 -221 -30
-350 -49 -129 -20 -377 -56 -550 -81 -173 -26 -318 -49 -321 -53 -8 -9 -59
-122 -55 -122 2 0 72 18 157 39 113 29 283 58 644 110 270 39 520 73 558 77
l67 7 -1 -94 c-1 -52 -4 -121 -8 -154 l-6 -60 -65 -13 c-187 -38 -1019 -220
-1038 -227 -9 -3 -5 -20 15 -60 20 -41 31 -54 43 -49 8 3 87 23 175 44 88 21
225 54 305 74 202 49 268 61 277 52 26 -26 -163 -87 -537 -173 -113 -26 -206
-47 -207 -48 -1 0 15 -45 36 -100 l37 -100 50 -18 c27 -10 103 -33 169 -52
l119 -32 13 -79 c27 -159 96 -260 221 -322 74 -36 79 -37 187 -37 96 0 116 3
160 24 105 51 203 185 240 326 19 72 21 217 4 288 -6 29 -25 80 -41 114 l-29
61 13 118 14 118 89 26 c149 43 135 17 135 261 l0 209 -32 15 c-18 8 -94 30
-168 49 -150 38 -265 68 -740 193 -478 125 -550 143 -571 143 -12 0 -24 -11
-30 -27z m1469 -580 l-3 -128 -70 -16 c-38 -9 -85 -19 -102 -22 l-33 -6 0 144
0 144 38 4 c20 2 68 4 105 5 l68 2 -3 -127z m-228 -376 c0 -35 -3 -66 -6 -70
-10 -9 -61 20 -68 38 -20 54 2 94 52 95 20 0 22 -4 22 -63z m-277 -129 c-6 -7
-32 -40 -58 -73 -27 -33 -61 -87 -76 -120 -30 -68 -59 -185 -59 -243 0 -59
-12 -132 -21 -132 -18 0 -49 80 -49 125 0 105 61 286 125 369 15 20 50 47 78
60 58 28 74 32 60 14z m-373 -150 c-8 -45 -31 -104 -43 -112 -11 -7 -43 -2
-111 19 -53 15 -94 31 -91 34 8 7 246 64 245 59z m584 -28 c104 -92 81 -341
-42 -452 -47 -42 -89 -54 -137 -38 -130 43 -140 289 -18 448 58 77 137 94 197
42z"/>
<path d="M8792 3809 c-101 -65 -126 -277 -38 -334 23 -15 27 -15 69 3 52 23
90 78 108 158 16 70 5 120 -36 161 -38 38 -58 41 -103 12z m54 -114 c34 -51
-19 -140 -61 -105 -19 16 -19 63 0 100 19 37 39 38 61 5z"/>
<path d="M3033 5033 c4 -38 7 -195 7 -350 0 -323 -7 -300 96 -310 47 -5 64 -1
122 25 37 18 115 44 172 59 58 14 106 28 108 29 2 1 -36 52 -84 112 l-87 111
-28 -15 c-36 -18 -145 -44 -184 -43 -16 0 -24 3 -17 6 6 2 10 8 7 13 -3 5 38
23 90 40 52 17 95 35 95 38 0 7 -83 111 -221 280 -33 39 -64 72 -71 72 -8 0
-9 -20 -5 -67z"/>
<path d="M7529 5016 c-47 -37 -60 -55 -85 -117 -25 -61 -34 -75 -55 -77 -13
-2 -33 3 -43 11 -18 13 -28 8 -112 -56 -70 -53 -93 -76 -98 -99 -3 -16 -66
-223 -140 -461 -155 -497 -190 -619 -205 -701 -6 -33 -11 -61 -11 -63 0 -10
-59 1 -152 31 l-108 34 0 -53 0 -52 90 -32 c49 -17 94 -31 99 -31 6 0 15 -19
21 -42 43 -167 88 -240 194 -322 73 -56 144 -86 244 -102 183 -30 350 24 483
156 111 110 183 265 210 448 28 200 -36 429 -153 549 -65 66 -142 107 -249
133 -151 36 -232 24 -333 -48 -39 -29 -47 -32 -43 -16 3 10 30 114 61 229 88
333 96 356 135 382 19 13 41 23 50 23 43 -1 42 -12 -24 -225 -35 -116 -67
-219 -71 -229 -7 -17 -4 -18 30 -12 76 14 78 17 130 174 26 81 84 247 127 370
44 122 79 227 79 232 0 18 -14 11 -71 -34z m-179 -916 c0 -5 -37 -44 -81 -87
-45 -43 -99 -105 -122 -137 -70 -104 -133 -286 -156 -456 -11 -84 -34 -116
-59 -83 -19 25 -9 185 18 288 11 44 45 130 75 190 78 160 175 261 273 284 51
12 52 12 52 1z m207 -248 c35 -19 89 -93 107 -145 21 -61 21 -203 1 -282 -57
-225 -222 -368 -358 -311 -152 63 -197 324 -92 542 85 176 227 257 342 196z"/>
<path d="M7395 3781 c-78 -35 -145 -139 -172 -265 -31 -149 17 -273 120 -306
137 -44 285 183 264 406 -7 75 -24 110 -72 153 -42 36 -80 40 -140 12z m52
-93 c23 -22 31 -48 13 -48 -16 0 -80 -61 -96 -91 -23 -45 -18 -127 12 -178 29
-52 26 -71 -14 -71 -34 0 -59 24 -78 77 -19 53 -17 111 5 181 20 66 47 107 89
134 35 23 41 23 69 -4z m61 -164 c6 -65 -36 -117 -64 -79 -20 28 -17 50 12 85
31 37 48 35 52 -6z"/>
<path d="M6943 4521 c-52 -45 -54 -49 -107 -210 -30 -90 -59 -168 -65 -174
-21 -21 -39 3 -51 65 -17 93 -21 97 -67 65 -104 -73 -138 -104 -141 -127 -3
-24 4 -28 145 -74 81 -27 153 -51 159 -53 6 -2 15 11 21 29 108 338 164 520
162 523 -2 1 -28 -18 -56 -44z"/>
<path d="M7935 4424 c-372 -68 -441 -91 -477 -158 -10 -18 -7 -19 31 -13 22 3
109 28 193 55 84 28 211 69 283 92 186 59 181 63 -30 24z"/>
<path d="M1246 4130 c-29 -51 -56 -159 -62 -255 -9 -143 31 -294 104 -390 171
-226 520 -248 723 -46 59 60 128 182 132 236 l2 30 -52 -3 c-30 -2 -71 3 -95
11 -24 9 -85 28 -136 43 -72 21 -99 34 -118 57 -14 16 -23 31 -21 33 4 4 281
-62 387 -91 88 -25 592 -155 600 -155 6 0 30 104 30 133 0 9 -7 17 -15 17 -12
0 -516 136 -1019 274 -71 20 -135 36 -142 36 -50 0 -69 -312 -25 -422 25 -63
58 -115 115 -179 35 -40 36 -44 18 -47 -12 -2 -41 6 -66 16 -144 64 -218 368
-143 591 l23 70 -108 35 c-59 20 -109 36 -111 36 -1 0 -11 -14 -21 -30z m77
-222 c-7 -50 -24 -90 -31 -70 -5 17 18 112 28 112 4 0 6 -19 3 -42z m16 -236
c11 -37 34 -89 52 -115 39 -59 31 -72 -14 -25 -45 48 -70 102 -75 167 -6 72
10 60 37 -27z m495 2 c21 -20 20 -63 -1 -86 -20 -22 -70 -23 -95 -1 -18 16
-26 82 -11 96 13 14 92 7 107 -9z"/>
<path d="M6510 3984 l0 -49 135 -44 c75 -24 137 -42 139 -40 5 7 26 72 24 74
-2 1 -61 22 -133 47 -71 25 -138 49 -147 53 -16 6 -18 1 -18 -41z"/>
<path d="M6510 3730 l0 -119 101 -31 c55 -17 102 -30 103 -28 1 2 8 37 15 78
7 41 15 89 18 106 5 30 3 31 -43 44 -27 8 -80 26 -118 42 -38 15 -70 28 -72
28 -2 0 -4 -54 -4 -120z"/>
</g>
</svg>
