<?xml version="1.0" standalone="no"?>
<!DOCTYPE svg PUBLIC "-//W3C//DTD SVG 20010904//EN"
 "http://www.w3.org/TR/2001/REC-SVG-20010904/DTD/svg10.dtd">
<svg version="1.0" xmlns="http://www.w3.org/2000/svg"
 width="512.000000pt" height="512.000000pt" viewBox="0 0 512.000000 512.000000"
 preserveAspectRatio="xMidYMid meet">

<g transform="translate(0.000000,512.000000) scale(0.100000,-0.100000)"
fill="#000000" stroke="none">
<path d="M820 4249 c-89 -17 -120 -42 -120 -95 0 -9 49 -66 109 -129 60 -62
119 -131 131 -155 20 -40 21 -43 4 -68 -10 -15 -110 -119 -223 -232 l-206
-206 -58 4 c-71 5 -106 -9 -151 -59 -40 -43 -51 -87 -43 -165 15 -144 156
-274 358 -330 50 -14 107 -19 263 -20 110 -1 214 -5 231 -8 66 -13 112 -94
185 -326 110 -352 231 -496 545 -647 l114 -54 7 -66 c9 -84 -1 -316 -16 -365
-10 -36 -20 -46 -110 -111 -57 -42 -87 -87 -96 -143 -9 -63 3 -109 39 -151 54
-61 64 -63 397 -63 l300 0 32 29 33 29 5 509 c5 381 9 516 19 540 22 54 92 63
315 40 118 -13 138 -25 86 -52 -17 -9 -38 -31 -46 -49 -15 -30 -15 -36 0 -65
10 -17 28 -37 42 -43 22 -10 33 -8 70 11 l44 24 19 -24 19 -24 -34 -37 c-19
-21 -34 -47 -34 -59 0 -28 53 -79 82 -79 29 0 83 33 98 59 10 20 12 20 45 4
l34 -16 -6 -57 c-5 -52 -3 -59 18 -74 37 -26 94 -21 118 10 12 15 21 37 21 50
0 20 5 24 30 24 28 0 30 -3 30 -35 0 -48 37 -85 83 -85 47 0 67 25 67 83 0 40
3 47 19 47 16 0 21 -10 27 -47 12 -81 10 -256 -4 -280 -7 -13 -39 -41 -71 -63
-64 -43 -91 -75 -109 -129 -28 -81 -1 -172 64 -212 l39 -24 328 0 329 0 32 36
c39 42 87 169 116 306 30 147 43 444 36 833 -12 642 -39 891 -121 1137 -14 42
-24 78 -21 80 7 8 60 -24 90 -54 47 -45 85 -112 113 -198 26 -76 27 -90 27
-270 0 -153 -6 -226 -27 -373 -15 -101 -27 -212 -27 -246 0 -68 22 -164 45
-200 14 -21 13 -27 -7 -72 -14 -31 -23 -76 -25 -124 -4 -64 -1 -82 19 -119 35
-68 66 -86 148 -86 74 0 103 14 144 68 31 42 34 146 6 222 -18 48 -38 74 -100
135 -53 51 -80 85 -84 107 -4 18 2 92 13 170 62 421 66 650 17 816 -74 250
-201 371 -405 386 -74 6 -93 12 -136 39 -61 40 -174 77 -279 91 -96 14 -438
14 -786 1 -927 -35 -1077 -33 -1213 15 -69 24 -177 89 -177 106 0 5 18 36 41
69 54 79 79 154 79 234 0 87 -21 112 -105 127 -95 16 -231 -23 -327 -94 -15
-11 -29 -19 -31 -16 -1 2 -16 23 -32 47 -42 63 -136 146 -197 175 -94 44 -195
56 -298 36z m227 -179 c71 -33 137 -96 173 -163 l24 -45 -24 -51 c-23 -49 -23
-53 -7 -86 30 -63 96 -58 140 12 31 49 115 129 171 164 48 30 123 56 133 46 3
-4 -2 -27 -12 -53 -21 -56 -117 -161 -188 -205 -91 -57 -109 -98 -62 -144 31
-32 63 -31 125 0 l50 25 54 -44 c67 -54 159 -99 263 -129 73 -20 99 -21 408
-22 l331 0 -1 -180 c0 -179 0 -180 29 -239 59 -121 152 -182 264 -174 48 3 81
15 172 62 99 51 126 60 239 81 150 27 211 55 270 121 52 59 78 141 87 270 l7
96 71 -7 c106 -10 199 -31 247 -55 89 -46 187 -169 205 -256 6 -30 5 -31 -39
-37 -140 -19 -257 -109 -296 -228 -14 -41 -33 -77 -52 -95 -100 -95 -102 -250
-6 -380 83 -112 271 -244 414 -291 l83 -27 0 -241 c-1 -369 -24 -577 -82 -732
l-19 -53 -115 0 c-94 0 -114 3 -114 15 0 8 25 44 55 80 70 82 78 104 70 185
-16 166 -77 565 -90 590 -19 37 -56 65 -113 86 -338 122 -508 251 -607 456
-28 58 -44 79 -64 85 -54 18 -103 -12 -103 -61 -1 -39 63 -163 121 -238 l52
-68 -63 0 c-35 0 -193 5 -351 11 -253 9 -295 8 -342 -5 -65 -20 -117 -74 -135
-144 -9 -33 -15 -189 -19 -509 -3 -254 -9 -465 -14 -469 -4 -4 -46 -10 -93
-12 l-87 -5 51 49 c41 40 52 59 61 102 22 106 6 371 -29 486 -35 112 -109 184
-250 246 -30 13 -59 27 -64 31 -5 4 10 29 33 55 112 128 130 270 44 365 -69
77 -143 96 -271 71 -70 -13 -93 -14 -160 -3 -44 7 -93 11 -112 9 l-32 -3 -47
136 c-26 76 -60 162 -74 192 -35 70 -99 142 -148 168 -54 27 -162 39 -299 32
-160 -7 -257 8 -350 54 -52 27 -84 51 -107 81 -40 52 -52 107 -30 129 25 25
68 1 121 -68 26 -33 53 -62 61 -66 40 -15 105 28 105 69 0 13 -16 46 -36 75
l-35 52 117 113 c157 152 330 344 355 395 l20 41 -41 84 c-23 46 -62 109 -87
141 -24 31 -38 57 -31 57 7 0 41 -13 75 -30z m2483 -745 c0 -176 -49 -224
-263 -255 -101 -15 -170 -39 -252 -89 -37 -22 -80 -43 -96 -46 -41 -9 -88 21
-119 76 -24 41 -25 52 -23 174 1 72 6 146 11 165 l8 35 314 11 c173 6 339 11
368 12 l52 2 0 -85z m739 -482 c6 -38 15 -99 21 -138 12 -89 33 -496 26 -503
-9 -9 -113 35 -171 72 -67 43 -211 179 -232 219 -26 51 -20 82 25 131 45 49
62 78 93 160 30 81 93 123 186 125 l41 1 11 -67z m-2334 -598 c14 -13 25 -33
25 -44 0 -49 -51 -134 -106 -176 l-35 -27 -44 26 c-58 34 -159 128 -197 183
-16 25 -28 46 -26 48 2 2 35 0 73 -5 52 -7 86 -6 130 4 100 22 152 20 180 -9z
m1606 -285 c42 -30 170 -92 237 -115 35 -13 65 -25 68 -28 8 -7 -161 -45 -237
-53 -84 -8 -191 10 -266 45 -56 27 -145 109 -172 159 l-12 22 178 -6 c149 -5
182 -9 204 -24z m1175 -286 c-3 -8 -15 -14 -26 -14 -16 0 -20 6 -20 33 0 17 3
43 7 57 6 24 8 23 26 -18 10 -24 16 -50 13 -58z m-802 -36 c12 -69 46 -342 46
-373 0 -24 -12 -46 -51 -91 -53 -60 -79 -107 -79 -144 0 -18 -6 -20 -70 -20
-57 0 -72 3 -77 17 -10 25 18 64 66 92 116 69 148 185 120 438 -8 78 -8 98 3
104 24 16 36 9 42 -23z m-1765 -40 c17 -52 28 -235 22 -341 l-6 -87 -48 -41
c-37 -32 -48 -49 -53 -80 l-7 -39 -72 0 c-112 0 -123 36 -31 99 67 46 111 104
135 177 26 79 45 249 36 319 -8 57 5 53 24 -7z"/>
<path d="M1060 3490 c-28 -28 -26 -75 5 -105 43 -44 109 -23 121 40 13 68 -77
114 -126 65z"/>
<path d="M2015 3209 c-22 -4 -80 -8 -130 -8 -105 -1 -156 -13 -207 -48 -43
-29 -88 -111 -88 -158 0 -58 30 -125 77 -170 36 -34 47 -53 54 -91 18 -97 97
-172 206 -194 73 -16 158 0 290 51 263 103 312 192 216 391 -86 178 -164 239
-303 237 -41 -1 -93 -5 -115 -10z m198 -167 c13 -12 43 -56 66 -96 59 -104 56
-119 -39 -173 -106 -61 -171 -83 -240 -83 -32 0 -66 3 -75 6 -19 8 -49 63 -65
124 -8 31 -27 59 -61 92 -38 37 -49 54 -49 78 0 43 43 60 157 61 48 0 106 4
128 9 69 15 152 7 178 -18z"/>
</g>
</svg>
