<?xml version="1.0" standalone="no"?>
<!DOCTYPE svg PUBLIC "-//W3C//DTD SVG 20010904//EN"
 "http://www.w3.org/TR/2001/REC-SVG-20010904/DTD/svg10.dtd">
<svg version="1.0" xmlns="http://www.w3.org/2000/svg"
 width="1024.000000pt" height="1024.000000pt" viewBox="0 0 1024.000000 1024.000000"
 preserveAspectRatio="xMidYMid meet">

<g transform="translate(0.000000,1024.000000) scale(0.100000,-0.100000)"
fill="#000000" stroke="none">
<path d="M4409 8492 c-60 -39 -106 -94 -143 -172 -29 -60 -31 -73 -31 -175 0
-98 3 -116 25 -161 l26 -52 -126 -5 c-91 -4 -142 -11 -190 -27 -131 -44 -251
-124 -264 -176 -15 -59 108 -202 229 -266 171 -89 320 -91 486 -7 49 24 63 28
70 17 25 -40 89 -394 89 -494 0 -41 11 -44 31 -8 18 34 93 100 144 127 22 11
74 31 114 43 l75 21 23 68 c64 190 59 358 -17 580 -15 46 -44 114 -64 151 -19
37 -35 68 -33 69 1 1 38 10 82 21 128 30 326 24 426 -15 l26 -9 -39 -79 c-53
-109 -96 -247 -110 -357 -14 -113 -2 -232 36 -352 25 -78 27 -82 60 -87 111
-18 264 -116 305 -194 l17 -35 13 109 c23 202 70 435 91 448 4 3 37 -8 72 -24
231 -105 427 -73 611 99 80 74 116 137 102 177 -12 34 -89 94 -172 134 -102
49 -207 71 -323 67 -55 -2 -99 -1 -97 2 23 39 50 113 58 161 23 144 -49 320
-160 391 -68 43 -70 41 -69 -59 2 -77 -1 -94 -24 -138 -45 -85 -148 -165 -214
-165 -15 0 -68 13 -119 29 -117 38 -246 55 -360 48 -92 -5 -237 -37 -286 -63
-82 -42 -210 19 -279 132 -33 55 -35 64 -37 152 -1 52 -4 96 -6 98 -2 2 -23
-9 -48 -24z m65 -395 c26 -24 66 -53 89 -63 23 -10 44 -19 46 -21 8 -5 -51
-93 -64 -93 -25 0 -123 100 -149 152 -21 42 -26 66 -26 122 l1 71 29 -62 c16
-35 48 -80 74 -106z m1397 38 c-12 -63 -55 -129 -112 -175 -28 -22 -55 -40
-60 -40 -9 0 -59 74 -59 88 0 4 15 14 34 20 53 19 129 93 159 155 15 31 27 62
28 69 1 7 5 -6 10 -30 4 -24 5 -63 0 -87z m-1556 -369 c28 -8 67 -30 88 -47
37 -31 38 -31 21 -58 -22 -34 -48 -56 -109 -89 -45 -24 -60 -27 -150 -27 -89
0 -106 3 -156 27 -62 31 -151 112 -143 132 6 15 59 42 134 68 67 22 236 19
315 -6z m1918 5 c81 -21 157 -55 157 -71 0 -24 -78 -92 -137 -122 -55 -27 -80
-33 -152 -36 -112 -5 -180 19 -252 89 -48 47 -50 51 -37 71 51 77 257 110 421
69z m-1529 -162 c40 -18 76 -79 83 -140 l6 -54 -50 52 c-51 52 -107 86 -177
108 l-41 12 35 16 c42 19 110 21 144 6z m973 -6 l35 -16 -59 -22 c-86 -31
-129 -60 -166 -113 l-32 -47 -3 38 c-4 51 33 125 77 154 41 28 99 30 148 6z"/>
<path d="M7073 7845 c-130 -60 -268 -252 -462 -643 -43 -86 -84 -173 -91 -192
-7 -19 -30 -53 -50 -75 -71 -76 -116 -266 -107 -454 6 -123 23 -203 61 -287
l24 -52 -76 -88 c-42 -49 -123 -141 -179 -204 l-102 -115 92 -3 92 -3 45 49
c25 28 92 102 149 166 l105 117 24 -25 25 -24 -126 -143 c-69 -78 -124 -145
-122 -149 3 -4 17 -10 32 -13 28 -6 103 -70 103 -88 0 -21 21 -2 134 125 l118
133 57 -23 c134 -54 353 -58 515 -10 117 35 272 112 299 149 38 50 69 77 184
158 211 149 455 410 540 576 36 73 38 81 38 173 0 90 -2 100 -37 171 -20 41
-61 101 -91 134 -29 33 -65 86 -80 117 -14 31 -45 77 -70 101 -81 82 -140 73
-241 -33 -69 -73 -94 -127 -82 -175 11 -43 92 -122 144 -141 56 -21 97 -56
123 -106 24 -47 24 -79 0 -127 -81 -157 -500 -521 -602 -521 -14 0 -59 -14
-100 -31 -127 -52 -190 -69 -255 -69 -124 0 -237 69 -290 176 -35 72 -43 195
-20 308 9 43 16 92 16 110 0 58 186 453 289 614 86 134 110 145 225 102 46
-18 60 -29 75 -59 30 -57 134 -121 198 -121 15 0 42 9 60 20 69 42 143 183
127 244 -10 43 -79 93 -183 132 -53 21 -121 49 -151 64 -128 63 -286 78 -377
35z m222 -116 c63 -17 155 -61 155 -73 0 -7 -6 -21 -14 -31 -10 -14 -17 -17
-27 -9 -27 21 -144 54 -191 54 -61 0 -90 -15 -149 -77 -78 -80 -215 -321 -323
-568 -41 -94 -46 -100 -72 -98 -15 1 -32 7 -37 12 -18 18 88 241 223 471 110
187 191 284 264 316 38 16 117 18 171 3z m900 -616 c121 -148 122 -236 4 -410
-76 -111 -270 -301 -431 -421 -75 -56 -141 -102 -146 -102 -5 0 -19 11 -31 24
l-22 24 83 57 c196 136 355 283 454 418 121 164 124 244 14 372 -22 25 -40 49
-40 52 0 8 44 42 56 43 6 0 33 -26 59 -57z m-1549 -337 c-88 -353 73 -643 384
-688 102 -15 192 -1 305 47 92 40 98 41 119 19 28 -28 18 -41 -61 -76 -151
-68 -273 -87 -398 -63 -235 45 -399 210 -441 445 -16 91 -13 154 13 255 21 83
27 93 58 87 21 -4 25 -9 21 -26z"/>
<path d="M1670 7600 c0 -26 44 -94 102 -157 34 -37 134 -142 222 -233 89 -91
188 -193 220 -227 l59 -62 -13 -45 c-7 -25 -9 -58 -5 -73 3 -15 44 -66 91
-113 l85 -87 -27 -53 c-17 -34 -28 -76 -32 -117 l-5 -64 139 -141 c76 -78 293
-294 482 -481 188 -187 342 -345 342 -352 0 -6 -14 -30 -31 -53 -40 -55 -51
-96 -39 -143 21 -76 87 -129 160 -129 53 0 90 20 173 93 l68 60 39 -32 40 -32
0 178 0 178 -85 -90 c-143 -152 -149 -157 -188 -183 -183 -121 230 374 449
539 83 62 114 76 114 50 0 -5 -18 -29 -41 -55 l-41 -46 77 0 c61 0 83 4 105
20 80 57 57 205 -40 255 -53 27 -101 16 -178 -43 l-32 -24 -278 273 c-491 483
-685 665 -726 679 -47 15 -105 7 -176 -26 l-54 -25 -61 66 c-101 110 -148 132
-218 106 -23 -9 -40 5 -212 167 -384 361 -485 449 -485 422z m829 -772 c34
-35 61 -66 61 -69 0 -3 -13 -18 -29 -33 l-28 -27 -59 61 c-33 34 -63 68 -67
76 -9 15 25 54 47 54 8 0 42 -28 75 -62z m380 -92 c43 -32 591 -574 591 -585
0 -4 -19 -16 -42 -25 -96 -36 -224 -168 -271 -278 -11 -27 -23 -48 -26 -48 -4
0 -28 22 -54 48 l-47 48 43 66 c23 36 50 77 61 92 12 17 16 34 12 51 -13 52
-58 22 -141 -93 l-38 -53 -38 37 -38 37 42 56 c23 31 56 75 74 99 38 50 42 77
12 93 -17 9 -25 7 -46 -13 -19 -17 -117 -134 -140 -167 -2 -3 -20 11 -40 31
l-36 36 76 101 c83 109 93 137 52 147 -31 8 -44 -3 -122 -102 -32 -41 -62 -74
-67 -74 -14 0 -66 52 -66 66 0 6 27 47 61 90 33 44 65 87 71 97 14 27 0 57
-27 57 -18 0 -41 -22 -95 -91 -63 -80 -73 -89 -88 -77 -29 23 -41 42 -42 67
-1 95 210 310 306 311 16 0 45 -11 63 -24z m793 -773 c54 -54 98 -101 98 -106
0 -4 -14 -21 -32 -37 l-32 -30 -101 98 c-55 53 -101 100 -103 104 -4 9 49 68
62 68 6 0 55 -44 108 -97z m-140 -129 c51 -52 94 -99 96 -103 1 -4 -15 -23
-35 -43 l-38 -37 -103 101 -103 102 38 38 c20 21 40 38 44 38 4 0 50 -43 101
-96z m-76 -293 l-39 -40 -83 85 -83 85 16 37 c29 71 29 71 132 -32 l95 -96
-38 -39z"/>
<path d="M4926 7084 c-95 -21 -153 -50 -207 -104 -56 -56 -81 -123 -81 -218
-1 -115 46 -177 139 -186 27 -2 49 -14 75 -39 122 -116 410 -114 546 4 18 16
50 32 73 35 118 19 166 127 125 283 -28 105 -89 163 -217 208 -65 23 -92 27
-229 29 -112 3 -174 -1 -224 -12z m-1 -194 c41 -25 70 -91 55 -120 -31 -57
-140 19 -140 97 0 16 3 33 7 36 12 13 46 7 78 -13z m481 -5 c9 -38 -4 -75 -38
-107 -25 -23 -39 -28 -67 -26 -29 2 -37 8 -39 26 -8 57 54 132 109 132 22 0
30 -6 35 -25z m-66 -288 l55 -14 -35 -6 c-99 -17 -532 -15 -514 2 3 3 45 14
92 23 102 20 314 17 402 -5z"/>
<path d="M4503 6303 c-23 -22 -23 -24 -23 -332 l0 -310 -300 -3 -300 -3 -27
-28 -28 -27 -3 -505 -3 -505 25 -25 25 -25 306 0 305 0 0 -228 0 -228 28 -26
c15 -15 52 -45 82 -67 l54 -41 416 0 415 1 143 126 142 126 0 168 0 169 305 0
306 0 25 25 25 25 -3 510 -3 509 -23 23 c-22 23 -25 23 -327 26 l-304 3 -3
314 c-3 286 -5 316 -21 332 -17 17 -55 18 -615 18 l-597 1 -22 -23z m1087
-455 c0 -276 2 -314 17 -330 15 -17 39 -18 330 -18 l313 0 0 -400 0 -400 -308
0 c-262 0 -311 -2 -330 -16 -22 -15 -22 -17 -22 -288 l0 -273 -52 -7 c-29 -3
-241 -6 -470 -6 l-418 0 0 273 c0 230 -2 276 -16 295 -15 22 -16 22 -330 22
l-314 0 0 400 0 400 314 0 c314 0 315 0 330 22 14 19 16 68 16 330 l0 308 470
0 470 0 0 -312z"/>
<path d="M7896 5869 c-65 -16 -164 -74 -316 -186 -234 -172 -679 -523 -968
-763 l-102 -85 0 -77 c0 -43 3 -78 8 -78 4 0 49 36 101 81 52 44 109 92 126
105 l32 24 102 -102 c56 -55 100 -102 99 -103 -2 -1 -104 -64 -228 -140 -309
-189 -410 -252 -592 -371 -152 -100 -157 -102 -174 -83 -25 28 -13 44 111 155
61 53 137 121 169 151 l59 53 -84 0 -85 0 -79 -72 c-44 -40 -167 -146 -272
-236 -226 -191 -246 -219 -208 -292 34 -67 104 -87 183 -55 20 9 91 49 157 89
66 40 201 117 300 171 231 126 763 438 975 573 568 360 993 701 1045 835 24
63 18 165 -15 232 -30 62 -98 131 -154 156 -52 23 -138 31 -190 18z m120 -155
c41 -20 74 -70 74 -113 0 -49 -23 -91 -79 -146 l-51 -50 -83 88 c-45 48 -89
87 -98 87 -8 0 -23 -6 -33 -13 -16 -12 -11 -21 63 -108 44 -52 81 -99 81 -105
0 -11 -99 -95 -200 -170 -212 -156 -346 -252 -484 -346 l-159 -107 -54 49
c-85 77 -157 160 -147 169 54 46 477 380 629 496 72 54 157 120 190 145 163
127 267 164 351 124z m-2172 -1710 c-19 -38 -127 -124 -140 -111 -23 22 81
141 129 149 31 5 31 4 11 -38z"/>
<path d="M7528 5393 c-159 -115 -318 -246 -324 -268 -6 -26 9 -68 36 -95 23
-23 60 -26 98 -6 25 13 313 236 375 290 37 33 38 87 1 121 -45 42 -79 34 -186
-42z"/>
<path d="M2152 5561 c-85 -29 -150 -104 -166 -192 -16 -90 37 -223 122 -300
64 -58 119 -92 312 -187 172 -85 184 -93 175 -121 -3 -12 -12 -21 -18 -21 -28
0 -159 58 -241 107 -50 29 -126 65 -170 80 -70 24 -96 28 -196 28 -109 0 -118
-2 -169 -30 -188 -104 -189 -341 -1 -518 162 -153 397 -200 569 -112 49 25
131 107 131 131 0 8 2 14 5 14 5 0 447 -193 840 -367 578 -256 832 -363 850
-359 11 2 47 14 80 26 33 11 94 24 135 29 l75 7 -45 13 c-102 29 -810 295
-878 330 -44 22 -52 36 -52 86 0 41 44 96 91 115 25 11 38 11 66 1 20 -7 191
-104 382 -215 523 -306 591 -344 672 -377 74 -31 171 -60 177 -54 2 2 -23 29
-55 62 -36 36 -115 94 -208 151 -336 209 -409 254 -620 376 -121 71 -260 152
-310 181 -49 29 -220 128 -380 220 -359 207 -543 313 -573 332 l-23 14 25 29
c40 48 60 112 53 176 -15 149 -137 271 -339 338 -97 33 -233 36 -316 7z m259
-127 c144 -43 239 -133 239 -226 0 -123 -157 -164 -326 -84 -121 57 -184 131
-184 214 0 45 35 89 79 98 14 3 31 7 36 9 27 9 107 3 156 -11z m284 -522 c99
-58 265 -161 440 -272 50 -31 152 -94 228 -140 75 -45 137 -86 137 -90 0 -4
-7 -14 -16 -21 -19 -15 8 -25 -354 120 -140 55 -297 117 -347 138 -51 20 -93
40 -93 45 0 20 35 19 103 -1 75 -22 127 -27 127 -12 0 5 -24 27 -52 49 -57 43
-293 199 -312 205 -14 5 10 37 28 37 6 0 56 -26 111 -58z m-588 -103 c137 -51
236 -154 236 -245 0 -93 -75 -140 -217 -132 -69 4 -96 10 -149 36 -118 58
-193 170 -168 252 14 46 53 87 96 99 55 17 142 12 202 -10z m563 -239 c69 -28
202 -82 295 -120 218 -88 438 -179 443 -185 2 -2 -2 -20 -9 -40 -9 -25 -18
-35 -29 -31 -8 2 -103 41 -210 86 -327 137 -481 200 -567 233 -76 30 -82 34
-88 65 -3 18 -9 40 -11 47 -8 19 18 11 176 -55z"/>
<path d="M4275 4393 c-60 -49 -110 -92 -112 -98 -1 -5 17 -22 41 -38 24 -15
73 -50 110 -77 37 -28 68 -50 69 -50 1 0 2 79 2 175 0 96 0 175 -1 175 0 0
-50 -39 -109 -87z"/>
<path d="M5840 4375 l0 -97 50 42 c27 23 52 46 56 51 5 9 -31 47 -78 81 l-28
19 0 -96z"/>
<path d="M3617 4252 c-24 -27 -21 -69 8 -97 45 -46 105 -22 105 43 0 57 -77
94 -113 54z"/>
<path d="M6995 4200 c-103 -47 -823 -338 -952 -386 -98 -36 -308 -96 -568
-164 -88 -23 -257 -69 -375 -101 -118 -32 -220 -59 -225 -59 -6 0 -17 16 -24
36 -17 47 -78 107 -138 137 -143 72 -361 65 -518 -16 -88 -46 -186 -147 -214
-222 -29 -77 -25 -174 9 -230 50 -81 161 -132 304 -141 105 -7 180 7 441 81
309 87 780 215 805 217 35 4 42 -37 8 -52 -36 -15 -241 -71 -645 -174 -205
-53 -399 -106 -431 -120 -74 -29 -168 -93 -210 -140 -103 -118 -105 -254 -6
-346 150 -138 422 -157 647 -43 136 68 227 183 227 285 0 56 -11 51 215 93
438 82 455 87 504 164 16 25 36 63 45 84 l15 37 88 1 c53 0 114 7 153 18 36
10 126 35 200 54 259 68 379 127 501 247 71 70 94 100 127 170 58 120 82 228
89 390 7 178 -6 210 -72 180z m-35 -164 c-76 -202 -292 -396 -544 -491 -62
-23 -67 -24 -72 -8 -11 33 -63 138 -78 158 -15 20 -10 23 177 108 105 48 264
125 352 171 88 46 163 84 167 85 4 1 3 -10 -2 -23z m-61 -343 c-34 -72 -167
-198 -269 -256 -86 -48 -271 -114 -290 -102 -14 9 -13 40 3 53 7 6 49 24 94
41 178 65 359 179 440 277 20 24 39 42 41 39 2 -2 -6 -26 -19 -52z m-781 -2
c68 -35 104 -96 104 -180 1 -96 -50 -178 -137 -223 -43 -23 -133 -29 -197 -15
l-36 9 -49 -73 c-56 -85 -85 -108 -141 -116 l-40 -5 -7 46 c-6 40 -4 51 13 69
25 26 86 149 132 266 48 120 84 168 155 208 72 39 144 44 203 14z m-1529 -138
c148 -40 163 -172 31 -265 -143 -101 -385 -113 -470 -23 -50 53 -31 159 39
218 103 86 250 112 400 70z m1075 8 c9 -14 -4 -40 -26 -52 -11 -6 -71 -24
-132 -39 -62 -16 -224 -60 -359 -99 -136 -39 -253 -72 -260 -74 -13 -2 -12 52
1 65 16 16 701 203 759 207 6 1 14 -3 17 -8z m-144 -425 c0 -7 3 -27 6 -44 5
-27 3 -32 -17 -36 -13 -3 -109 -24 -214 -46 -104 -23 -197 -43 -206 -46 -9 -2
-25 9 -38 27 -29 39 -26 41 89 69 47 11 144 36 215 55 147 38 165 41 165 21z
m-662 -222 c65 -32 86 -68 80 -134 -6 -61 -37 -103 -109 -150 -118 -76 -304
-99 -404 -50 -102 51 -108 141 -15 231 118 115 328 163 448 103z"/>
<path d="M5965 3658 c-73 -26 -124 -110 -111 -180 14 -75 85 -138 153 -138 44
1 108 34 134 71 33 47 33 132 0 181 -41 59 -117 88 -176 66z m89 -100 c52 -47
25 -128 -42 -128 -67 0 -98 88 -46 129 34 27 57 26 88 -1z"/>
<path d="M4855 3847 c22 -18 69 -58 105 -91 36 -32 80 -70 98 -84 l33 -25 97
13 c53 7 103 16 110 19 9 5 -17 36 -80 97 l-94 91 -99 6 c-55 4 -125 7 -155 7
l-55 -1 40 -32z"/>
<path d="M5310 3790 c72 -67 77 -70 125 -70 28 0 66 3 86 6 l36 6 -66 64 -66
64 -95 0 -95 -1 75 -69z"/>
<path d="M3570 3783 c-516 -454 -645 -575 -671 -625 -49 -96 -30 -202 51 -291
61 -67 127 -98 209 -98 95 -1 132 25 341 238 328 332 415 427 447 483 17 30
49 76 72 102 l42 47 -23 14 c-102 62 -368 198 -386 196 -4 0 -41 -30 -82 -66z
m240 -84 c0 -4 -19 -24 -42 -44 -24 -21 -110 -101 -192 -179 -82 -78 -152
-142 -156 -144 -4 -2 -24 16 -43 39 l-36 41 121 101 c67 56 157 132 202 168
l81 66 32 -21 c18 -12 33 -24 33 -27z m-526 -415 c32 -36 36 -47 26 -59 -21
-26 -177 -155 -186 -155 -16 1 -73 84 -66 96 9 16 174 164 181 163 3 0 23 -21
45 -45z"/>
<path d="M6798 3314 c-75 -48 -237 -124 -309 -143 -41 -11 -126 -30 -189 -42
-63 -11 -118 -24 -123 -28 -7 -7 70 -81 288 -277 195 -175 258 -213 361 -222
52 -4 71 0 118 21 78 36 159 116 198 195 65 132 44 248 -67 358 -59 60 -206
165 -229 163 -6 0 -28 -11 -48 -25z m-59 -123 c71 -37 159 -100 190 -138 39
-47 42 -104 8 -154 -26 -39 -81 -79 -109 -79 -17 0 -16 4 9 36 57 76 27 146
-100 234 -40 27 -83 57 -96 66 l-24 17 34 18 c43 23 42 23 88 0z"/>
</g>
</svg>
