<?xml version="1.0" standalone="no"?>
<!DOCTYPE svg PUBLIC "-//W3C//DTD SVG 20010904//EN"
 "http://www.w3.org/TR/2001/REC-SVG-20010904/DTD/svg10.dtd">
<svg version="1.0" xmlns="http://www.w3.org/2000/svg"
 width="512.000000pt" height="512.000000pt" viewBox="0 0 512.000000 512.000000"
 preserveAspectRatio="xMidYMid meet">

<g transform="translate(0.000000,512.000000) scale(0.100000,-0.100000)"
fill="#000000" stroke="none">
<path d="M760 5025 c-143 -25 -278 -78 -407 -161 l-52 -33 80 -198 c43 -108
79 -203 79 -209 0 -7 -14 -43 -30 -80 -26 -56 -53 -90 -160 -199 -158 -161
-185 -208 -185 -325 0 -53 6 -85 18 -109 32 -58 153 -215 197 -255 91 -82 229
-115 342 -82 31 9 59 16 63 16 10 0 -32 -65 -96 -151 -173 -229 -209 -366
-209 -800 l0 -279 79 0 79 0 5 313 c5 348 8 368 77 512 21 44 70 123 110 175
78 105 140 222 166 317 16 60 19 64 87 108 38 26 73 43 77 38 4 -4 14 -29 22
-54 35 -105 -32 -303 -162 -476 -186 -247 -220 -372 -220 -814 l0 -279 79 0
79 0 5 313 c5 344 7 364 73 506 19 41 65 116 102 165 38 50 82 114 98 141 l29
50 6 -60 c4 -33 7 -106 8 -161 1 -99 0 -103 -33 -159 -19 -31 -49 -95 -65
-142 -52 -141 -61 -223 -61 -534 l0 -279 80 0 80 0 0 284 c0 265 8 353 24 255
10 -60 61 -186 104 -259 l39 -63 -174 -461 c-222 -593 -232 -633 -233 -923 0
-90 -4 -163 -8 -163 -20 0 -97 -90 -121 -140 -34 -73 -36 -174 -5 -216 50 -68
53 -69 294 -69 205 0 220 1 246 21 69 51 68 47 75 357 7 350 -9 301 203 645
112 183 132 210 138 190 4 -13 32 -195 64 -404 l56 -382 -41 -41 c-64 -64 -94
-133 -95 -218 -1 -77 12 -106 68 -147 26 -20 41 -21 246 -21 205 0 220 1 246
21 63 46 69 64 72 211 3 128 5 137 32 180 70 110 66 199 -19 412 -89 221 -91
232 -91 536 l0 260 83 23 c247 68 487 125 648 152 202 34 259 37 259 16 0 -40
69 -208 219 -535 205 -443 197 -425 216 -516 16 -78 21 -335 7 -335 -20 0 -97
-90 -121 -140 -34 -73 -36 -174 -5 -216 51 -68 53 -69 298 -69 l223 0 35 27
c22 17 42 45 52 70 8 24 32 176 52 338 40 325 41 398 4 530 -55 200 -62 340
-25 470 19 64 95 230 105 230 14 0 20 -54 29 -240 6 -129 14 -200 26 -235 60
-176 186 -304 362 -366 43 -16 92 -23 192 -26 l133 -6 -69 104 c-138 205 -158
265 -157 454 1 122 11 204 78 631 42 270 76 517 76 550 0 93 -26 191 -76 294
-117 235 -367 382 -629 367 -50 -3 -115 -14 -146 -24 l-56 -19 -34 24 c-59 41
-201 109 -284 135 -229 72 -466 62 -745 -33 -177 -59 -287 -80 -430 -80 -105
0 -107 0 -121 26 -30 56 -157 161 -258 213 -118 60 -105 23 -121 351 -17 335
-38 440 -126 610 -151 293 -419 488 -748 545 -109 19 -398 19 -506 0z m578
-181 c253 -73 464 -260 566 -503 52 -123 60 -174 81 -536 l14 -240 -36 -30
c-21 -16 -59 -50 -85 -73 l-47 -44 -21 34 c-45 73 -60 154 -81 422 -11 143
-26 287 -34 321 -52 227 -227 419 -448 494 -46 16 -50 19 -69 76 -11 32 -26
68 -34 79 -8 11 -14 24 -14 29 0 13 118 -4 208 -29z m-588 11 c0 -3 -21 -57
-46 -120 -39 -98 -52 -120 -82 -140 -20 -14 -39 -21 -43 -17 -6 6 -79 181 -79
189 0 7 67 36 147 63 91 30 103 34 103 25z m234 -58 c51 -67 56 -99 56 -378
l0 -259 80 0 80 0 0 185 c0 146 3 185 13 185 7 0 42 -17 78 -39 l64 -39 3
-226 2 -226 80 0 80 0 1 108 1 107 14 -45 c8 -25 23 -163 34 -307 10 -144 26
-290 35 -325 18 -70 73 -188 108 -232 l24 -29 -24 -69 c-52 -149 -41 -303 32
-455 38 -78 61 -108 153 -204 l109 -113 106 141 c58 78 110 149 115 158 8 15
15 14 72 -15 49 -25 297 -99 333 -100 13 0 8 370 -7 438 l-13 62 66 0 c115 0
257 28 411 80 195 66 302 84 450 77 128 -6 233 -30 333 -75 241 -110 428 -330
499 -588 17 -64 21 -106 21 -224 0 -195 -15 -247 -153 -530 -121 -248 -147
-329 -157 -480 -6 -108 6 -204 43 -330 34 -117 39 -211 20 -355 -9 -65 -16
-123 -16 -127 0 -4 -47 -8 -105 -8 l-105 0 0 109 c0 115 -18 233 -49 323 -10
29 -97 224 -194 433 -176 381 -208 464 -227 585 -21 137 -5 313 40 444 11 33
20 65 20 72 0 9 -118 54 -144 54 -3 0 -17 -37 -31 -82 -32 -101 -55 -247 -55
-349 l0 -75 -129 -17 c-174 -23 -394 -68 -614 -127 -100 -27 -190 -52 -199
-55 -17 -7 -18 10 -18 259 l0 266 -80 0 -80 0 0 -610 c0 -707 -3 -674 96 -925
35 -89 64 -177 64 -194 0 -17 -7 -49 -16 -71 l-16 -41 -116 3 -116 3 -108 715
c-121 800 -122 812 -70 923 16 35 43 79 61 99 17 20 31 39 31 44 0 13 -93 104
-106 104 -15 0 -90 -92 -116 -145 -39 -74 -59 -150 -65 -237 -3 -49 -8 -88
-11 -88 -3 0 -29 20 -58 45 -98 84 -179 211 -224 350 -21 65 -23 95 -30 425
-9 429 -24 538 -116 858 -6 21 -4 22 55 22 l61 0 0 81 0 82 -102 -5 c-155 -8
-207 -29 -434 -179 -203 -133 -241 -149 -317 -135 -39 7 -130 62 -125 76 2 5
51 45 111 90 59 44 107 84 107 88 0 7 -68 103 -84 120 -3 3 -57 -34 -121 -82
l-115 -86 -20 32 c-45 74 -27 113 124 267 142 146 157 166 196 261 38 92 79
142 148 183 l56 33 69 172 c76 190 77 190 131 119z m1354 -1526 c98 -99 142
-215 142 -371 l0 -79 -41 14 c-22 8 -63 27 -90 42 l-50 27 8 45 c16 93 8 231
-19 309 -13 39 -21 72 -16 72 4 0 34 -27 66 -59z m-392 -68 c-9 -54 -19 -110
-22 -124 -5 -26 -3 -26 71 -38 42 -7 79 -10 82 -8 2 3 12 51 21 106 9 56 19
101 24 101 16 0 33 -90 32 -180 -1 -129 -38 -222 -138 -345 l-24 -30 -29 27
c-112 107 -152 304 -94 459 22 58 78 145 88 136 3 -3 -2 -50 -11 -104z m2597
-117 c143 -54 249 -159 302 -300 42 -113 42 -166 -1 -453 l-39 -258 -5 130
c-6 119 -9 136 -37 198 -37 78 -109 154 -180 190 -48 25 -50 28 -68 94 -26 95
-113 265 -180 347 -41 52 -52 72 -43 78 25 17 180 1 251 -26z m86 -775 c6 -21
11 -104 11 -188 0 -172 17 -287 61 -414 28 -84 29 -91 23 -215 -8 -164 7 -263
62 -398 7 -17 4 -17 -35 5 -60 34 -118 100 -154 176 -29 64 -31 74 -38 247 -8
185 -25 285 -67 392 l-20 49 29 85 c32 97 59 238 59 314 l1 51 28 -33 c15 -18
33 -50 40 -71z m-3041 -466 c38 -27 83 -57 99 -66 27 -15 30 -22 42 -111 l13
-95 -187 -304 c-104 -167 -201 -331 -217 -365 -36 -77 -58 -178 -58 -271 l0
-73 -81 0 -82 0 6 173 c3 103 12 202 22 247 9 41 89 270 178 507 144 387 163
431 178 420 9 -6 48 -34 87 -62z m-308 -1525 l0 -80 -160 0 c-174 0 -171 -1
-149 57 29 76 81 102 212 103 l97 0 0 -80z m960 0 l0 -80 -160 0 c-174 0 -171
-1 -149 57 29 76 81 102 212 103 l97 0 0 -80z m1866 53 c-3 -16 -8 -52 -11
-80 l-7 -53 -164 0 c-178 0 -175 -1 -153 57 14 37 47 73 84 89 19 8 71 13 143
14 l114 0 -6 -27z"/>
<path d="M745 4295 c-50 -49 -15 -135 55 -135 41 0 80 39 80 80 0 41 -39 80
-80 80 -19 0 -40 -9 -55 -25z"/>
</g>
</svg>
